<svg width="27" height="17" viewBox="0 0 27 17" fill="none" xmlns="http://www.w3.org/2000/svg">
<path d="M15.6242 1.94063C14.7185 1.81333 13.9083 1.94453 13.1938 2.33421C12.4819 2.70541 11.827 3.20715 11.2292 3.83944C10.6314 4.47173 10.0707 5.17521 9.54711 5.94988C9.02353 6.72455 8.49981 7.43322 7.97593 8.0759C7.43357 8.71598 6.87907 9.24126 6.31243 9.65172C5.74839 10.0437 5.11515 10.1903 4.41272 10.0916C3.96908 10.0293 3.61107 9.89413 3.33869 9.6862C3.05043 9.45718 2.82541 9.18051 2.66364 8.85617C2.50187 8.53183 2.40075 8.17832 2.36029 7.79563C2.31982 7.41294 2.32686 7.0275 2.38142 6.63932C2.44896 6.15871 2.60374 5.72806 2.84574 5.34737C3.08775 4.96667 3.38536 4.65977 3.73857 4.42666C4.0759 4.17247 4.46753 4.00131 4.91347 3.91318C5.34092 3.82245 5.79365 3.8201 6.27166 3.90614L6.51717 2.1593C4.90897 1.93328 3.62401 2.22395 2.66229 3.03129C1.70057 3.83864 1.1093 5.02792 0.888481 6.59915C0.807946 7.17218 0.819836 7.75821 0.924151 8.35722C1.01258 8.93515 1.19198 9.46932 1.46236 9.95972C1.73275 10.4501 2.098 10.869 2.55813 11.2165C3.00236 11.5428 3.54797 11.7514 4.19495 11.8423C5.39647 12.0112 6.46885 11.6907 7.41209 10.8807C7.5213 11.3108 7.67932 11.7288 7.88615 12.1349C8.0745 12.5384 8.31555 12.9021 8.60932 13.2262C8.90308 13.5502 9.2416 13.824 9.62489 14.0475C9.99229 14.2499 10.4071 14.3836 10.8692 14.4486C11.7749 14.5759 12.5838 14.4539 13.2957 14.0827C14.0102 13.693 14.6664 13.1821 15.2642 12.5498C15.862 11.9175 16.4227 11.214 16.9463 10.4393C17.4699 9.66467 18.0028 8.95729 18.5452 8.31721C19.0691 7.67453 19.613 7.1572 20.1771 6.76522C20.7437 6.35475 21.369 6.19758 22.053 6.2937C22.4966 6.35605 22.8533 6.50044 23.1231 6.72685C23.414 6.93738 23.6403 7.20481 23.802 7.52915C23.9638 7.85349 24.0649 8.207 24.1054 8.58969C24.1459 8.97238 24.1388 9.35782 24.0843 9.746C24.0167 10.2266 23.8619 10.6573 23.6199 11.038C23.3779 11.4186 23.079 11.7348 22.7232 11.9864C22.3885 12.2221 21.9982 12.384 21.5522 12.4721C21.1248 12.5629 20.6813 12.5665 20.2217 12.4831L19.9762 14.2299C21.5475 14.4507 22.8139 14.1575 23.7757 13.3501C24.7559 12.5454 25.3564 11.3574 25.5772 9.78617C25.6603 9.19465 25.6484 8.60863 25.5415 8.0281C25.4531 7.45017 25.2737 6.916 25.0033 6.4256C24.7329 5.93519 24.3664 5.52553 23.9037 5.19659C23.462 4.85177 22.9177 4.6339 22.2707 4.54297C21.0877 4.37671 20.0246 4.69855 19.0813 5.50849C18.9721 5.07844 18.8233 4.66168 18.635 4.2582C18.4282 3.85213 18.1779 3.48708 17.8841 3.16304C17.5903 2.839 17.2598 2.57577 16.8923 2.37333C16.5091 2.14981 16.0864 2.00558 15.6242 1.94063ZM15.4065 3.69136C16.1828 3.80047 16.7801 4.11062 17.1984 4.62181C17.5982 5.1304 17.8899 5.7369 18.0737 6.44133C17.5839 6.9757 17.0785 7.62097 16.5575 8.37716C16.0181 9.13075 15.4653 9.84477 14.8993 10.5192C14.3147 11.1911 13.7088 11.7468 13.0815 12.1865C12.4358 12.6235 11.7617 12.7927 11.0592 12.694C10.2829 12.5848 9.69349 12.2852 9.29111 11.7951C8.87026 11.3024 8.56795 10.7039 8.3842 9.99944C8.874 9.46508 9.37939 8.8198 9.90037 8.06361C10.4029 7.30483 10.9464 6.58951 11.5309 5.91765C12.0995 5.22472 12.7067 4.65973 13.3525 4.22268C14.0009 3.76715 14.6855 3.59004 15.4065 3.69136Z" fill="#1C2229"/>
</svg>
