<svg width="1711" height="355" viewBox="0 0 1711 355" fill="none" xmlns="http://www.w3.org/2000/svg">
<g clip-path="url(#clip0_1321_6023)">
<path d="M777.584 265.273L766.691 284.219C761.712 292.88 750.936 296.235 741.951 291.923C734.567 288.38 725.842 290.077 719.54 295.321C717.076 297.371 714.535 299.328 711.924 301.186C705.262 305.925 701.34 313.894 702.745 321.97C704.456 331.809 698.404 341.332 688.797 343.916L667.866 349.548C658.221 352.143 648.207 346.869 644.849 337.425C642.088 329.661 634.692 324.669 626.517 323.905C623.392 323.612 620.279 323.204 617.184 322.68C609.113 321.314 600.712 324.215 596.058 330.977C590.386 339.219 579.363 341.708 570.723 336.698L551.867 325.766C543.239 320.763 539.895 309.937 544.191 300.91C547.718 293.498 546.034 284.741 540.816 278.415C538.785 275.953 536.847 273.415 535.004 270.808C530.267 264.104 522.278 260.197 514.229 261.691C504.435 263.509 494.893 257.469 492.302 247.812L486.663 226.788C484.066 217.111 489.31 207.054 498.709 203.684C506.44 200.912 511.403 193.481 512.165 185.273C512.452 182.189 512.852 179.116 513.364 176.061C514.747 167.815 511.805 159.225 504.933 154.502C496.588 148.768 494.048 137.547 499.104 128.753L509.709 110.307C514.773 101.499 525.736 98.093 534.868 102.49C542.367 106.101 551.235 104.385 557.649 99.0696C560.047 97.0825 562.517 95.1838 565.053 93.3771C571.724 88.6245 575.612 80.6077 574.125 72.5307C572.314 62.694 578.337 53.1118 587.959 50.523L608.993 44.8639C618.615 42.275 628.603 47.5492 631.933 56.9776C634.667 64.7194 642.026 69.7098 650.17 70.4765C653.343 70.7753 656.504 71.1928 659.646 71.7284C667.71 73.1031 676.105 70.189 680.733 63.4158C686.37 55.1667 697.378 52.6611 706.006 57.6634L725.137 68.7557C733.778 73.7651 737.142 84.5956 732.871 93.6498C729.366 101.079 731.065 109.834 736.279 116.171C738.28 118.603 740.191 121.109 742.007 123.684C746.749 130.406 754.747 134.339 762.817 132.859C772.642 131.058 782.197 137.138 784.77 146.83L790.352 167.856C792.917 177.52 787.661 187.542 778.274 190.884C770.559 193.631 765.586 201.027 764.822 209.211C764.525 212.393 764.109 215.563 763.577 218.714C762.208 226.813 765.11 235.243 771.856 239.891C780.071 245.552 782.566 256.608 777.584 265.273Z" fill="white" stroke="#1C2229" stroke-linecap="round" stroke-linejoin="round"/>
<path d="M1627.81 134.557L1671.51 197.447L1700.56 168.995L1665.69 97.102L1627.81 134.557Z" fill="white" stroke="#1C2229" stroke-linecap="round" stroke-linejoin="round"/>
<path d="M1387.76 102.137C1387.76 102.137 1407.71 108.987 1428.6 109.428C1449.49 109.869 1548.14 88.5858 1606.58 52.4618L1649.37 26.0118C1651.63 24.6168 1654.33 24.1177 1656.93 24.6132C1659.54 25.1087 1661.86 26.5628 1663.44 28.6878L1696.42 73.6697C1697.95 75.7518 1698.66 78.3315 1698.4 80.9091C1698.13 83.4866 1696.92 85.8785 1695 87.6213L1671.9 108.874C1613.05 162.257 1582.89 212.823 1569.21 262.281C1555.53 311.74 1552.76 332.416 1552.76 332.416L1387.76 102.137Z" fill="white" stroke="#1C2229" stroke-linecap="round" stroke-linejoin="round"/>
<path d="M1546.24 346.483C1568.92 329.395 1546.49 261.388 1496.15 194.585C1445.81 127.782 1386.62 87.4795 1363.94 104.567C1341.26 121.655 1363.68 189.663 1414.02 256.466C1464.36 323.269 1523.56 363.571 1546.24 346.483Z" fill="white" stroke="#1C2229" stroke-linecap="round" stroke-linejoin="round"/>
<path d="M1674.17 112.121L1698.05 89.9092C1700.03 88.0696 1701.24 85.5101 1701.46 82.7265C1701.67 79.9429 1700.87 77.1335 1699.2 74.8425L1663.47 25.119C1661.76 22.7806 1659.28 21.1502 1656.53 20.5504C1653.78 19.9507 1650.95 20.4251 1648.61 21.8801L1604.29 49.4688C1595.61 54.8566 1569.02 68.3442 1559.96 73.0426L1627.05 160.669C1636.51 149.698 1663.59 121.963 1674.17 112.121Z" fill="white" stroke="#1C2229" stroke-linecap="round" stroke-linejoin="round"/>
<path d="M1017.85 350.744C1016.38 350.202 1014.97 349.686 1013.5 349.144C912.71 309.44 854.395 217.814 883.266 144.482C912.136 71.1502 1017.25 43.903 1118.04 83.6069C1119.47 84.1683 1120.91 84.7747 1122.31 85.4009L1017.85 350.744Z" fill="white" stroke="#1C2229" stroke-linecap="round" stroke-linejoin="round"/>
<path d="M915.5 100.432L876.78 198.779L798.41 167.908C789.112 164.245 784.576 153.728 788.219 144.475L813.683 79.7952C817.344 70.4964 827.86 65.9612 837.112 69.6058L915.482 100.477L915.5 100.432Z" fill="white" stroke="#1C2229" stroke-linecap="round" stroke-linejoin="round"/>
<path d="M403.411 274.33L345.266 324.178L376.51 350.195L444.507 308.231L403.411 274.33Z" fill="white" stroke="#1C2229" stroke-linecap="round" stroke-linejoin="round"/>
<path d="M411.379 32.2383C411.379 32.2383 406.582 52.7777 408.256 73.6047C409.931 94.4318 441.086 190.423 482.937 244.908L513.58 284.798C515.196 286.907 515.966 289.543 515.737 292.186C515.508 294.829 514.296 297.286 512.341 299.07L470.927 336.43C469.011 338.169 466.516 339.132 463.925 339.132C461.334 339.131 458.832 338.168 456.903 336.428L433.423 315.597C374.36 262.451 321.002 237.564 270.413 228.96C219.825 220.356 198.974 219.689 198.974 219.689L411.379 32.2383Z" fill="white" stroke="#1C2229" stroke-linecap="round" stroke-linejoin="round"/>
<path d="M184.318 214.619C203.613 235.454 269.003 206.266 330.37 149.426C391.738 92.5849 425.845 29.6162 406.55 8.78074C387.255 -12.0547 321.865 17.1331 260.498 73.9737C199.13 130.814 165.023 193.783 184.318 214.619Z" fill="white" stroke="#1C2229" stroke-linecap="round" stroke-linejoin="round"/>
<path d="M430.425 318.182L454.939 339.695C456.969 341.481 459.639 342.431 462.43 342.361C465.22 342.291 467.934 341.207 470.045 339.318L515.898 298.737C518.051 296.799 519.423 294.172 519.741 291.375C520.06 288.577 519.302 285.814 517.617 283.63L485.687 242.331C479.448 234.241 463.339 209.146 457.749 200.613L377.359 276.216C389.231 284.525 419.563 308.656 430.425 318.182Z" fill="white" stroke="#1C2229" stroke-linecap="round" stroke-linejoin="round"/>
<path d="M1313.28 223.669L1229.19 253.502L1156.93 178.068L1190.09 95.2081L1351.15 39.7295L1362.41 51.5069L1363.59 52.6546L1375.2 64.7986L1313.28 223.669Z" fill="white"/>
<path d="M1174.36 350.505L1064.03 235.315L1157.08 177.866L1229.38 253.344L1174.36 350.505Z" fill="white"/>
<path d="M1263.04 150.647C1261.8 150.304 1260.68 149.637 1259.79 148.714C1258.94 147.832 1258.33 146.747 1258 145.555L1359.47 48.3383L1364.42 53.5182L1263.04 150.647Z" fill="white"/>
<path d="M1313.28 223.669L1313.45 224.14C1313.59 224.092 1313.69 223.986 1313.75 223.851L1313.28 223.669ZM1229.19 253.502L1228.83 253.848C1228.96 253.99 1229.17 254.039 1229.36 253.973L1229.19 253.502ZM1156.93 178.068L1156.46 177.882C1156.39 178.064 1156.43 178.272 1156.57 178.414L1156.93 178.068ZM1190.09 95.2081L1189.92 94.7354C1189.79 94.7827 1189.68 94.8874 1189.62 95.0223L1190.09 95.2081ZM1351.15 39.7295L1351.52 39.3841C1351.38 39.2429 1351.18 39.1932 1350.99 39.2568L1351.15 39.7295ZM1362.41 51.5069L1362.05 51.8523C1362.05 51.857 1362.06 51.8615 1362.06 51.8659L1362.41 51.5069ZM1363.59 52.6546L1363.95 52.3092C1363.95 52.3046 1363.95 52.3 1363.94 52.2956L1363.59 52.6546ZM1375.2 64.7986L1375.66 64.9801C1375.73 64.7991 1375.69 64.5936 1375.56 64.4531L1375.2 64.7986ZM1174.36 350.505L1174 350.851C1174.11 350.965 1174.27 351.021 1174.43 351.001C1174.58 350.982 1174.72 350.889 1174.8 350.752L1174.36 350.505ZM1064.03 235.315L1063.76 234.89C1063.64 234.969 1063.55 235.102 1063.53 235.252C1063.51 235.402 1063.56 235.552 1063.67 235.661L1064.03 235.315ZM1157.08 177.866L1157.44 177.52C1157.28 177.349 1157.02 177.316 1156.82 177.44L1157.08 177.866ZM1229.38 253.344L1229.82 253.591C1229.93 253.399 1229.9 253.158 1229.75 252.998L1229.38 253.344ZM1263.04 150.647L1262.91 151.129L1263.19 151.205L1263.39 151.008L1263.04 150.647ZM1259.79 148.714L1260.15 148.367L1260.15 148.366L1259.79 148.714ZM1258 145.555L1257.66 145.194L1257.44 145.399L1257.52 145.685L1258 145.555ZM1359.47 48.3383L1359.83 47.9929L1359.48 47.6309L1359.12 47.9773L1359.47 48.3383ZM1364.42 53.5182L1364.76 53.8793L1365.12 53.5338L1364.78 53.1728L1364.42 53.5182ZM1313.11 223.198L1229.02 253.031L1229.36 253.973L1313.45 224.14L1313.11 223.198ZM1229.55 253.156L1157.29 177.722L1156.57 178.414L1228.83 253.848L1229.55 253.156ZM1157.39 178.254L1190.55 95.3939L1189.62 95.0223L1156.46 177.882L1157.39 178.254ZM1190.25 95.6808L1351.32 40.2023L1350.99 39.2568L1189.92 94.7354L1190.25 95.6808ZM1350.79 40.075L1362.05 51.8523L1362.77 51.1615L1351.52 39.3841L1350.79 40.075ZM1362.06 51.8659L1363.24 53.0137L1363.94 52.2956L1362.76 51.1478L1362.06 51.8659ZM1363.23 53.0001L1374.84 65.144L1375.56 64.4531L1363.95 52.3092L1363.23 53.0001ZM1374.73 64.617L1312.82 223.488L1313.75 223.851L1375.66 64.9801L1374.73 64.617ZM1174.73 350.159L1064.39 234.969L1063.67 235.661L1174 350.851L1174.73 350.159ZM1064.29 235.741L1157.34 178.291L1156.82 177.44L1063.76 234.89L1064.29 235.741ZM1156.72 178.212L1229.02 253.69L1229.75 252.998L1157.44 177.52L1156.72 178.212ZM1228.95 253.098L1173.93 350.259L1174.8 350.752L1229.82 253.591L1228.95 253.098ZM1263.18 150.165C1262.02 149.846 1260.98 149.225 1260.15 148.367L1259.43 149.06C1260.38 150.049 1261.58 150.762 1262.91 151.129L1263.18 150.165ZM1260.15 148.366C1259.36 147.546 1258.79 146.535 1258.49 145.424L1257.52 145.685C1257.86 146.958 1258.52 148.119 1259.44 149.062L1260.15 148.366ZM1359.11 48.6838L1364.06 53.8637L1364.78 53.1728L1359.83 47.9929L1359.11 48.6838ZM1364.07 53.1572L1262.7 150.286L1263.39 151.008L1364.76 53.8793L1364.07 53.1572ZM1258.35 145.916L1359.81 48.6994L1359.12 47.9773L1257.66 145.194L1258.35 145.916Z" fill="#1C2229"/>
<path d="M997.344 268.446L997.344 268.445C995.979 266.897 995.119 264.969 994.88 262.919C994.641 260.869 995.034 258.795 996.007 256.974C996.979 255.154 998.485 253.674 1000.32 252.732C1002.16 251.791 1004.24 251.433 1006.28 251.707L1006.3 251.709L1006.31 251.71L1163.16 265.854C1167.68 266.462 1171.78 268.842 1174.56 272.471C1177.33 276.103 1178.55 280.688 1177.94 285.218C1177.34 289.748 1174.96 293.852 1171.32 296.627C1167.7 299.4 1163.12 300.619 1158.59 300.016L1003.6 271.784L1003.59 271.782L1003.58 271.78C1001.17 271.457 998.952 270.272 997.344 268.446Z" fill="white" stroke="#1C2229"/>
<path d="M960.731 192.881C931.428 158.474 879.78 154.337 845.374 183.64C810.967 212.943 806.829 264.59 836.132 298.997" stroke="#1C2229"/>
<path d="M923.588 150.916C942.381 155.894 959.275 166.333 972.135 180.913C989.378 200.462 998.15 226.06 996.52 252.076C994.891 278.092 982.994 302.395 963.447 319.64C948.869 332.502 930.803 340.751 911.536 343.346C892.269 345.94 872.666 342.762 855.204 334.215C837.743 325.668 823.209 312.134 813.439 295.326C803.67 278.519 799.104 259.191 800.319 239.788C801.534 220.385 808.476 201.778 820.266 186.321C832.056 170.863 848.166 159.249 866.557 152.947C884.948 146.645 904.795 145.938 923.588 150.916ZM816.826 256.929C819.002 273.067 825.913 288.198 836.688 300.408C851.135 316.779 871.492 326.741 893.284 328.103C915.075 329.465 936.514 322.115 952.887 307.671C965.098 296.898 973.841 282.745 978.008 267.004C982.176 251.262 981.582 234.638 976.302 219.234C971.021 203.83 961.291 190.338 948.343 180.464C935.394 170.589 919.808 164.777 903.555 163.761C887.303 162.745 871.115 166.572 857.037 174.757C842.96 182.942 831.625 195.117 824.468 209.744C817.31 224.371 814.651 240.791 816.826 256.929Z" fill="white" stroke="#1C2229"/>
<path d="M928.047 155.982C946.84 160.958 963.735 171.395 976.597 185.973C985.138 195.652 991.688 206.918 995.874 219.129C1000.06 231.34 1001.8 244.256 1000.99 257.139C1000.19 270.022 996.852 282.62 991.176 294.214C985.5 305.808 977.597 316.17 967.916 324.708C953.338 337.57 935.273 345.819 916.006 348.414C896.74 351.008 877.137 347.831 859.676 339.285C842.215 330.738 827.68 317.206 817.91 300.398C808.14 283.591 803.573 264.264 804.787 244.862C806.001 225.459 812.942 206.852 824.731 191.394C836.519 175.936 852.627 164.321 871.018 158.018C889.408 151.714 909.254 151.006 928.047 155.982ZM821.294 261.988C823.467 278.126 830.377 293.257 841.149 305.468C855.595 321.842 875.954 331.807 897.747 333.171C919.54 334.534 940.982 327.185 957.356 312.739C969.567 301.966 978.309 287.815 982.477 272.074C986.645 256.332 986.051 239.709 980.771 224.305C975.492 208.901 965.763 195.409 952.815 185.535C939.867 175.66 924.282 169.847 908.03 168.83C891.778 167.813 875.59 171.638 861.512 179.822C847.434 188.005 836.099 200.179 828.94 214.805C821.782 229.43 819.121 245.85 821.294 261.988Z" fill="white" stroke="#1C2229"/>
<path d="M264.201 178.099L264.201 178.1L264.214 178.098C266.126 177.884 267.882 176.942 269.118 175.467C270.353 173.992 270.973 172.097 270.848 170.177L269.85 170.242C269.958 171.906 269.421 173.547 268.351 174.825C267.282 176.101 265.763 176.917 264.109 177.104C262.442 177.247 260.787 176.724 259.504 175.65C258.22 174.574 257.415 173.034 257.265 171.366L256.269 171.455C256.443 173.387 257.375 175.171 258.862 176.416C260.349 177.662 262.269 178.267 264.201 178.099ZM54.5817 278.225L54.5759 278.225C53.7279 278.252 52.8829 278.11 52.0905 277.806C51.2982 277.503 50.5742 277.045 49.9612 276.458L49.2698 277.18C49.9789 277.859 50.8163 278.389 51.7329 278.74C52.6486 279.091 53.6251 279.256 54.6053 279.225C55.5646 279.205 56.5096 278.989 57.3822 278.589C58.2529 278.191 59.0328 277.618 59.6741 276.907C60.3466 276.212 60.8725 275.389 61.221 274.486C61.5702 273.582 61.7338 272.616 61.7022 271.647C61.6827 270.689 61.4715 269.745 61.081 268.87C60.6905 267.994 60.1287 267.206 59.4286 266.551C53.9374 261.302 48.9566 255.544 44.5533 249.355L43.7384 249.934C48.1789 256.176 53.2019 261.983 58.7394 267.276L58.7436 267.28C59.3471 267.844 59.8313 268.523 60.1678 269.277C60.5043 270.031 60.6861 270.845 60.7024 271.671L60.7027 271.677C60.7303 272.513 60.5893 273.346 60.2881 274.126C59.9869 274.906 59.5317 275.617 58.9496 276.218L58.9431 276.225L58.9369 276.231C58.3858 276.844 57.715 277.337 56.9659 277.68C56.2168 278.023 55.4054 278.208 54.5817 278.225ZM264.651 182.348L264.648 182.348C263.154 182.481 261.648 182.317 260.218 181.866C258.787 181.414 257.46 180.684 256.313 179.718C255.166 178.752 254.221 177.568 253.533 176.235C252.845 174.902 252.428 173.447 252.305 171.952L252.304 171.946C250.683 154.787 245.146 138.229 236.118 123.547C227.091 108.865 214.814 96.4512 200.233 87.2613C185.652 78.0715 169.156 72.351 152.016 70.5403C134.876 68.7296 117.55 70.8772 101.37 76.8174C85.1911 82.7577 70.5911 92.3323 58.6949 104.804C46.7988 117.275 37.9238 132.311 32.7536 148.752C27.5834 165.194 26.2559 182.602 28.8733 199.638C31.4907 216.673 37.9833 232.88 47.8509 247.011L47.8531 247.014C52.0984 252.997 56.9064 258.559 62.2111 263.626L62.212 263.627C63.8453 265.18 64.9828 267.181 65.4814 269.379C65.98 271.577 65.8174 273.874 65.014 275.979C64.2106 278.085 62.8022 279.906 60.9663 281.214C59.1305 282.521 56.9492 283.256 54.6968 283.326C53.1865 283.371 51.6824 283.116 50.2715 282.576C48.8605 282.035 47.5707 281.221 46.4768 280.178L46.1319 280.54L46.4767 280.178C40.0957 274.101 34.3154 267.423 29.2161 260.236C17.1564 243.231 9.178 223.674 5.90015 203.086C2.62229 182.497 4.13329 161.43 10.3158 141.52C16.4983 121.61 27.1859 103.393 41.5492 88.2823C55.9124 73.1717 73.5647 61.5745 93.1358 54.3909C112.707 47.2072 133.67 44.6305 154.398 46.8607C175.127 49.0909 195.062 56.068 212.657 67.2504C230.252 78.4328 245.034 93.5197 255.854 111.34C266.674 129.16 273.242 149.234 275.047 170.003C275.219 171.99 274.869 173.988 274.033 175.799C273.197 177.61 271.904 179.171 270.282 180.33C268.615 181.486 266.673 182.182 264.651 182.348Z" fill="white" stroke="black"/>
<path d="M16.7679 279.916C15.6994 283.554 16.1104 287.466 17.9117 290.802C19.713 294.138 22.7588 296.628 26.3864 297.73L197.589 349.602L16.7679 279.916ZM16.7679 279.916L66.0832 113.216C66.0835 113.215 66.0838 113.214 66.0842 113.213C67.1806 109.626 69.6347 106.61 72.9232 104.807C76.2119 103.004 80.0751 102.557 83.6886 103.562C83.6894 103.562 83.6901 103.562 83.6909 103.562L261.28 154.838C263.137 155.378 264.867 156.287 266.366 157.511C267.864 158.735 269.1 160.249 269.999 161.962C270.899 163.675 271.443 165.552 271.6 167.48C271.757 169.408 271.524 171.348 270.914 173.184L215.281 340.493C215.281 340.493 215.281 340.493 215.281 340.494C214.075 343.999 211.561 346.904 208.265 348.601C204.969 350.298 201.146 350.657 197.592 349.603L16.7679 279.916Z" fill="white" stroke="black"/>
<path d="M469.513 235.939L469.506 235.945L469.02 236.29C468.517 236.354 468.007 236.236 467.585 235.953L467.566 235.941L467.547 235.93L416.48 207.987L416.234 207.852L415.991 207.992L224.804 317.759L224.803 317.759C224.444 317.967 224.03 318.057 223.617 318.018C223.205 317.98 222.815 317.814 222.501 317.543L222.493 317.537L222.485 317.531C222.164 317.276 221.932 316.926 221.822 316.531C221.711 316.137 221.728 315.717 221.87 315.332L221.871 315.332L221.875 315.321L256.124 215.105C256.124 215.105 256.125 215.105 256.125 215.105C256.296 214.613 256.644 214.203 257.101 213.953C257.556 213.704 258.088 213.633 258.593 213.753C258.594 213.754 258.596 213.754 258.598 213.754L307.777 226.718L307.957 226.766L308.124 226.684L467.051 148.864L467.059 148.859C467.49 148.639 467.986 148.582 468.455 148.699C468.923 148.816 469.333 149.099 469.609 149.494C476.877 160.35 481.343 172.837 482.605 185.84C483.349 195.604 480.409 207.61 477.185 217.369C473.975 227.086 470.508 234.508 470.207 235.148C470.047 235.466 469.808 235.739 469.513 235.939Z" fill="white" stroke="black"/>
</g>
<defs>
<clipPath id="clip0_1321_6023">
<rect width="1711" height="355" fill="white"/>
</clipPath>
</defs>
</svg>
