<svg width="1440" height="572" viewBox="0 0 1440 572" fill="none" xmlns="http://www.w3.org/2000/svg">
<path d="M716.584 361.273L705.691 380.219C700.712 388.88 689.936 392.235 680.951 387.923C673.567 384.38 664.842 386.077 658.54 391.321C656.076 393.371 653.535 395.328 650.924 397.186C644.262 401.925 640.34 409.894 641.745 417.97C643.456 427.809 637.404 437.332 627.797 439.916L606.866 445.548C597.221 448.143 587.207 442.869 583.849 433.425C581.088 425.661 573.692 420.669 565.517 419.905C562.392 419.612 559.279 419.204 556.184 418.68C548.113 417.314 539.712 420.215 535.058 426.977C529.386 435.219 518.363 437.708 509.723 432.698L490.867 421.766C482.239 416.763 478.895 405.937 483.191 396.91C486.718 389.498 485.034 380.741 479.816 374.415C477.785 371.953 475.847 369.415 474.004 366.808C469.267 360.104 461.278 356.197 453.229 357.691C443.435 359.509 433.893 353.469 431.302 343.812L425.663 322.788C423.066 313.111 428.31 303.054 437.709 299.684C445.44 296.912 450.403 289.481 451.165 281.273C451.452 278.189 451.852 275.116 452.364 272.061C453.747 263.815 450.805 255.225 443.933 250.502C435.588 244.768 433.048 233.547 438.104 224.753L448.709 206.307C453.773 197.499 464.736 194.093 473.868 198.49C481.367 202.101 490.235 200.385 496.649 195.07C499.047 193.083 501.517 191.184 504.053 189.377C510.724 184.624 514.612 176.608 513.125 168.531C511.314 158.694 517.337 149.112 526.959 146.523L547.993 140.864C557.615 138.275 567.603 143.549 570.933 152.978C573.667 160.719 581.026 165.71 589.17 166.477C592.343 166.775 595.504 167.193 598.646 167.728C606.71 169.103 615.105 166.189 619.733 159.416C625.37 151.167 636.378 148.661 645.006 153.663L664.137 164.756C672.778 169.765 676.142 180.596 671.871 189.65C668.366 197.079 670.065 205.834 675.279 212.171C677.28 214.603 679.191 217.109 681.007 219.684C685.749 226.406 693.747 230.339 701.817 228.859C711.642 227.058 721.197 233.138 723.77 242.83L729.352 263.856C731.917 273.52 726.661 283.542 717.274 286.884C709.559 289.631 704.586 297.027 703.822 305.211C703.525 308.393 703.109 311.563 702.577 314.714C701.208 322.813 704.11 331.243 710.856 335.891C719.071 341.552 721.566 352.608 716.584 361.273Z" fill="white" stroke="#1C2229" stroke-linecap="round" stroke-linejoin="round"/>
<path d="M1326.76 198.137C1326.76 198.137 1346.71 204.987 1367.6 205.428C1388.49 205.869 1487.14 184.586 1545.58 148.462L1588.37 122.012C1590.63 120.617 1593.33 120.118 1595.93 120.613C1598.54 121.109 1600.86 122.563 1602.44 124.688L1635.42 169.67C1636.95 171.752 1637.66 174.332 1637.4 176.909C1637.13 179.487 1635.92 181.878 1634 183.621L1610.9 204.874C1552.05 258.257 1521.89 308.823 1508.21 358.281C1494.53 407.74 1491.76 428.416 1491.76 428.416L1326.76 198.137Z" fill="white" stroke="#1C2229" stroke-linecap="round" stroke-linejoin="round"/>
<path d="M1485.24 442.483C1507.92 425.395 1485.49 357.388 1435.15 290.585C1384.81 223.782 1325.62 183.479 1302.94 200.567C1280.26 217.655 1302.68 285.663 1353.02 352.466C1403.36 419.269 1462.56 459.571 1485.24 442.483Z" fill="white" stroke="#1C2229" stroke-linecap="round" stroke-linejoin="round"/>
<path d="M956.847 446.74C955.377 446.198 953.972 445.682 952.501 445.14C851.71 405.436 793.395 313.811 822.266 240.478C851.136 167.146 956.252 139.899 1057.04 179.603C1058.47 180.164 1059.91 180.771 1061.31 181.397L956.847 446.74Z" fill="white" stroke="#1C2229" stroke-linecap="round" stroke-linejoin="round"/>
<path d="M854.5 196.428L815.78 294.776L737.41 263.904C728.112 260.241 723.576 249.724 727.219 240.471L752.683 175.791C756.344 166.493 766.86 161.957 776.112 165.602L854.482 196.474L854.5 196.428Z" fill="white" stroke="#1C2229" stroke-linecap="round" stroke-linejoin="round"/>
<path d="M342.411 370.326L284.266 420.174L315.51 446.191L383.507 404.227L342.411 370.326Z" fill="white" stroke="#1C2229" stroke-linecap="round" stroke-linejoin="round"/>
<path d="M350.379 128.234C350.379 128.234 345.582 148.774 347.256 169.601C348.931 190.428 380.086 286.419 421.937 340.905L452.58 380.794C454.196 382.903 454.966 385.539 454.737 388.182C454.508 390.825 453.296 393.282 451.341 395.066L409.927 432.426C408.011 434.165 405.516 435.128 402.925 435.128C400.334 435.128 397.832 434.164 395.903 432.424L372.423 411.593C313.36 358.447 260.002 333.56 209.413 324.956C158.825 316.352 137.974 315.685 137.974 315.685L350.379 128.234Z" fill="white" stroke="#1C2229" stroke-linecap="round" stroke-linejoin="round"/>
<path d="M123.318 310.615C142.613 331.45 208.003 302.262 269.37 245.422C330.738 188.581 364.845 125.612 345.55 104.777C326.255 83.9414 260.865 113.129 199.498 169.97C138.13 226.81 104.023 289.779 123.318 310.615Z" fill="white" stroke="#1C2229" stroke-linecap="round" stroke-linejoin="round"/>
<path d="M369.425 414.179L393.939 435.692C395.969 437.477 398.639 438.427 401.43 438.357C404.22 438.287 406.934 437.203 409.045 435.314L454.898 394.733C457.051 392.795 458.423 390.168 458.741 387.371C459.06 384.573 458.302 381.81 456.617 379.626L424.687 338.327C418.448 330.237 402.339 305.142 396.749 296.609L316.359 372.212C328.231 380.521 358.563 404.652 369.425 414.179Z" fill="white" stroke="#1C2229" stroke-linecap="round" stroke-linejoin="round"/>
<path d="M1252.28 319.669L1168.19 349.502L1095.93 274.068L1129.09 191.208L1290.15 135.73L1301.41 147.507L1302.59 148.655L1314.2 160.799L1252.28 319.669Z" fill="white"/>
<path d="M1113.36 446.505L1003.03 331.315L1096.08 273.866L1168.38 349.344L1113.36 446.505Z" fill="white"/>
<path d="M1202.04 246.647C1200.8 246.304 1199.68 245.637 1198.79 244.714C1197.94 243.832 1197.33 242.747 1197 241.555L1298.47 144.338L1303.42 149.518L1202.04 246.647Z" fill="white"/>
<path d="M1252.28 319.669L1252.45 320.14C1252.59 320.092 1252.69 319.986 1252.75 319.851L1252.28 319.669ZM1168.19 349.502L1167.83 349.848C1167.96 349.99 1168.17 350.039 1168.36 349.973L1168.19 349.502ZM1095.93 274.068L1095.46 273.882C1095.39 274.064 1095.43 274.272 1095.57 274.414L1095.93 274.068ZM1129.09 191.208L1128.92 190.735C1128.79 190.783 1128.68 190.887 1128.62 191.022L1129.09 191.208ZM1290.15 135.73L1290.52 135.384C1290.38 135.243 1290.18 135.193 1289.99 135.257L1290.15 135.73ZM1301.41 147.507L1301.05 147.852C1301.05 147.857 1301.06 147.861 1301.06 147.866L1301.41 147.507ZM1302.59 148.655L1302.95 148.309C1302.95 148.305 1302.95 148.3 1302.94 148.296L1302.59 148.655ZM1314.2 160.799L1314.66 160.98C1314.73 160.799 1314.69 160.594 1314.56 160.453L1314.2 160.799ZM1113.36 446.505L1113 446.851C1113.11 446.965 1113.27 447.021 1113.43 447.001C1113.58 446.982 1113.72 446.889 1113.8 446.752L1113.36 446.505ZM1003.03 331.315L1002.76 330.89C1002.64 330.969 1002.55 331.102 1002.53 331.252C1002.51 331.402 1002.56 331.552 1002.67 331.661L1003.03 331.315ZM1096.08 273.866L1096.44 273.52C1096.28 273.349 1096.02 273.316 1095.82 273.44L1096.08 273.866ZM1168.38 349.344L1168.82 349.591C1168.93 349.399 1168.9 349.158 1168.75 348.998L1168.38 349.344ZM1202.04 246.647L1201.91 247.129L1202.19 247.205L1202.39 247.008L1202.04 246.647ZM1198.79 244.714L1199.15 244.367L1199.15 244.366L1198.79 244.714ZM1197 241.555L1196.66 241.194L1196.44 241.399L1196.52 241.685L1197 241.555ZM1298.47 144.338L1298.83 143.993L1298.48 143.631L1298.12 143.977L1298.47 144.338ZM1303.42 149.518L1303.76 149.879L1304.12 149.534L1303.78 149.173L1303.42 149.518ZM1252.11 319.198L1168.02 349.031L1168.36 349.973L1252.45 320.14L1252.11 319.198ZM1168.55 349.156L1096.29 273.722L1095.57 274.414L1167.83 349.848L1168.55 349.156ZM1096.39 274.254L1129.55 191.394L1128.62 191.022L1095.46 273.882L1096.39 274.254ZM1129.25 191.681L1290.32 136.202L1289.99 135.257L1128.92 190.735L1129.25 191.681ZM1289.79 136.075L1301.05 147.852L1301.77 147.161L1290.52 135.384L1289.79 136.075ZM1301.06 147.866L1302.24 149.014L1302.94 148.296L1301.76 147.148L1301.06 147.866ZM1302.23 149L1313.84 161.144L1314.56 160.453L1302.95 148.309L1302.23 149ZM1313.73 160.617L1251.82 319.488L1252.75 319.851L1314.66 160.98L1313.73 160.617ZM1113.73 446.159L1003.39 330.969L1002.67 331.661L1113 446.851L1113.73 446.159ZM1003.29 331.741L1096.34 274.291L1095.82 273.44L1002.76 330.89L1003.29 331.741ZM1095.72 274.212L1168.02 349.69L1168.75 348.998L1096.44 273.52L1095.72 274.212ZM1167.95 349.098L1112.93 446.259L1113.8 446.752L1168.82 349.591L1167.95 349.098ZM1202.18 246.165C1201.02 245.846 1199.98 245.225 1199.15 244.367L1198.43 245.06C1199.38 246.049 1200.58 246.762 1201.91 247.129L1202.18 246.165ZM1199.15 244.366C1198.36 243.546 1197.79 242.535 1197.49 241.424L1196.52 241.685C1196.86 242.958 1197.52 244.119 1198.44 245.062L1199.15 244.366ZM1298.11 144.684L1303.06 149.864L1303.78 149.173L1298.83 143.993L1298.11 144.684ZM1303.07 149.157L1201.7 246.286L1202.39 247.008L1303.76 149.879L1303.07 149.157ZM1197.35 241.916L1298.81 144.699L1298.12 143.977L1196.66 241.194L1197.35 241.916Z" fill="#1C2229"/>
<path d="M936.344 364.442L936.344 364.441C934.979 362.893 934.119 360.965 933.88 358.915C933.641 356.865 934.034 354.791 935.007 352.97C935.979 351.15 937.485 349.67 939.322 348.728L939.094 348.283L939.322 348.728C941.159 347.787 943.239 347.429 945.285 347.703L945.295 347.705L945.306 347.706L1102.16 361.85C1106.68 362.458 1110.78 364.838 1113.56 368.467C1116.33 372.099 1117.55 376.684 1116.94 381.214C1116.34 385.745 1113.96 389.848 1110.32 392.623C1106.7 395.396 1102.12 396.615 1097.59 396.012L942.601 367.78L942.589 367.778L942.578 367.777C940.166 367.453 937.952 366.268 936.344 364.442Z" fill="white" stroke="#1C2229"/>
<path d="M899.731 288.877C870.428 254.47 818.78 250.333 784.374 279.636C749.967 308.939 745.829 360.586 775.132 394.993" stroke="#1C2229"/>
<path d="M862.588 246.912C881.381 251.89 898.275 262.329 911.135 276.909C928.378 296.458 937.15 322.056 935.52 348.072C933.891 374.088 921.994 398.391 902.447 415.636C887.869 428.498 869.803 436.747 850.536 439.342C831.269 441.936 811.666 438.759 794.204 430.211C776.743 421.664 762.209 408.131 752.439 391.323C742.67 374.515 738.104 355.187 739.319 335.784C740.534 316.381 747.476 297.774 759.266 282.317C771.056 266.859 787.166 255.245 805.557 248.943C823.948 242.641 843.795 241.934 862.588 246.912ZM755.826 352.926C758.001 369.064 764.913 384.194 775.688 396.404C790.135 412.775 810.492 422.737 832.284 424.099C854.075 425.461 875.514 418.111 891.887 403.667C904.098 392.894 912.841 378.742 917.008 363C921.176 347.258 920.582 330.634 915.302 315.23C910.021 299.826 900.291 286.334 887.343 276.46C874.394 266.586 858.808 260.773 842.555 259.757C826.303 258.741 810.115 262.568 796.037 270.753C781.96 278.938 770.625 291.113 763.468 305.74C756.31 320.367 753.651 336.787 755.826 352.926Z" fill="white" stroke="#1C2229"/>
<path d="M867.047 251.978C885.84 256.954 902.735 267.391 915.597 281.969C924.138 291.648 930.688 302.914 934.874 315.125C939.06 327.336 940.8 340.252 939.994 353.135C939.188 366.018 935.852 378.616 930.176 390.21C924.5 401.804 916.597 412.166 906.916 420.705C892.338 433.566 874.273 441.815 855.006 444.41C835.74 447.004 816.137 443.827 798.676 435.281C781.215 426.734 766.68 413.202 756.91 396.394C747.14 379.587 742.573 360.261 743.787 340.858C745.001 321.455 751.942 302.849 763.731 287.39C775.519 271.932 791.627 260.317 810.018 254.014C828.408 247.71 848.254 247.002 867.047 251.978ZM760.294 357.984C762.467 374.122 769.377 389.253 780.149 401.464C794.595 417.838 814.954 427.803 836.747 429.167C858.54 430.53 879.982 423.181 896.356 408.735C908.567 397.962 917.309 383.811 921.477 368.07C925.645 352.329 925.051 335.705 919.771 320.301C914.492 304.897 904.763 291.405 891.815 281.531C878.867 271.656 863.282 265.843 847.03 264.826C830.778 263.809 814.59 267.634 800.512 275.818C786.434 284.001 775.099 296.175 767.94 310.801C760.782 325.426 758.121 341.846 760.294 357.984Z" fill="white" stroke="#1C2229"/>
<path d="M203.651 278.348L203.648 278.348C202.154 278.481 200.648 278.317 199.218 277.866C197.787 277.414 196.46 276.684 195.313 275.718C194.166 274.752 193.221 273.568 192.533 272.235C191.845 270.902 191.428 269.447 191.304 267.952L191.304 267.946C189.683 250.787 184.146 234.229 175.118 219.547C166.091 204.865 153.814 192.451 139.233 183.261C124.652 174.072 108.156 168.351 91.0163 166.54C73.8764 164.73 56.5496 166.877 40.3704 172.817C24.1911 178.758 9.59109 188.332 -2.30508 200.804C-14.2012 213.275 -23.0762 228.311 -28.2464 244.752C-33.4166 261.194 -34.7441 278.602 -32.1267 295.638C-29.5093 312.673 -23.0167 328.88 -13.1491 343.011L-13.1469 343.014C-8.90158 348.997 -4.09364 354.559 1.21114 359.626L1.21196 359.627C2.84533 361.18 3.98284 363.181 4.48145 365.379C4.98004 367.577 4.81737 369.874 4.01397 371.979C3.21057 374.085 1.80225 375.906 -0.0337153 377.214C-1.86967 378.521 -4.05128 379.256 -6.30403 379.327C-7.81398 379.371 -9.3178 379.116 -10.7285 378.576C-12.1395 378.035 -13.4293 377.221 -14.5232 376.178L-14.8681 376.54L-14.5233 376.178C-20.9043 370.101 -26.6846 363.423 -31.7839 356.236C-43.8436 339.231 -51.822 319.674 -55.0999 299.086C-58.3777 278.497 -56.8667 257.43 -50.6842 237.52C-44.5017 217.61 -33.8141 199.393 -19.4508 184.282C-5.08763 169.172 12.5647 157.574 32.1358 150.391C51.7069 143.207 72.6702 140.631 93.3984 142.861C114.127 145.091 134.062 152.068 151.657 163.25C169.252 174.433 184.034 189.52 194.854 207.34C205.674 225.16 212.242 245.234 214.047 266.003C214.219 267.99 213.869 269.988 213.033 271.799C212.197 273.61 210.904 275.171 209.282 276.33C207.615 277.486 205.673 278.182 203.651 278.348Z" fill="white" stroke="black"/>
<path d="M-44.2321 375.916C-45.3006 379.554 -44.8896 383.466 -43.0883 386.802C-41.287 390.138 -38.2412 392.628 -34.6136 393.73L136.589 445.602L-44.2321 375.916ZM-44.2321 375.916L5.08322 209.216C5.08343 209.215 5.08364 209.214 5.08385 209.214C6.18017 205.627 8.63437 202.61 11.9232 200.807C15.2119 199.004 19.0751 198.557 22.6886 199.562C22.6894 199.562 22.6901 199.562 22.6909 199.562L200.28 250.838L-44.2321 375.916ZM147.265 444.601C143.969 446.298 140.146 446.657 136.592 445.603L200.28 250.838C202.138 251.378 203.868 252.287 205.366 253.511C206.864 254.735 208.1 256.249 208.999 257.962C209.899 259.675 210.443 261.552 210.6 263.48C210.757 265.408 210.524 267.348 209.914 269.184L154.281 436.493C154.281 436.493 154.281 436.494 154.28 436.494C153.074 440 150.561 442.904 147.265 444.601Z" fill="white" stroke="black"/>
<path d="M408.513 331.939L408.506 331.945L408.02 332.29C407.517 332.354 407.007 332.236 406.585 331.953L406.566 331.941L406.547 331.93L355.48 303.987L355.234 303.852L354.991 303.992L163.804 413.759L163.803 413.759C163.444 413.967 163.03 414.057 162.617 414.018C162.205 413.98 161.815 413.814 161.501 413.543L161.493 413.537L161.485 413.531C161.164 413.276 160.932 412.926 160.822 412.531C160.711 412.137 160.728 411.717 160.87 411.332L160.871 411.332L160.875 411.321L195.124 311.105C195.124 311.105 195.125 311.105 195.125 311.105C195.296 310.613 195.644 310.203 196.101 309.953C196.556 309.704 197.088 309.633 197.593 309.753C197.594 309.754 197.596 309.754 197.598 309.754L246.777 322.718L246.957 322.766L247.124 322.684L406.051 244.864L406.059 244.859C406.49 244.639 406.986 244.582 407.455 244.699C407.923 244.816 408.333 245.099 408.609 245.495C415.878 256.35 420.343 268.837 421.605 281.84C422.349 291.604 419.409 303.61 416.185 313.369C412.975 323.086 409.508 330.508 409.207 331.148C409.047 331.466 408.808 331.739 408.513 331.939Z" fill="white" stroke="black"/>
</svg>
