<svg width="25" height="25" viewBox="0 0 25 25" fill="none" xmlns="http://www.w3.org/2000/svg">
<rect width="24.5" height="24.5" rx="12.25" fill="#F5F3EF"/>
<path d="M9.43308 7.46823L10.4839 6.21592C9.54712 5.46334 8.65241 5.14777 7.79976 5.2692C6.93732 5.38241 6.16819 5.84172 5.49237 6.64713C5.21215 6.98108 4.98578 7.36022 4.81325 7.78453C4.63918 8.19081 4.5478 8.6079 4.53911 9.03579C4.53042 9.46368 4.607 9.87943 4.76884 10.283C4.93069 10.6866 5.20252 11.0486 5.58434 11.369C5.89763 11.6319 6.231 11.8112 6.58445 11.9069C6.92811 11.9945 7.30319 12.0246 7.70968 11.9975C7.58711 12.2629 7.51194 12.5513 7.48417 12.8627C7.45485 13.1562 7.47139 13.4546 7.53378 13.758C7.59462 14.0434 7.70054 14.3247 7.85154 14.6021C8.001 14.8614 8.18831 15.0855 8.41349 15.2745C8.81489 15.6113 9.22916 15.8334 9.65629 15.9407C10.0834 16.048 10.5183 16.0865 10.9608 16.0562C11.4116 16.016 11.8627 15.9258 12.314 15.7856C12.7637 15.6274 13.2037 15.461 13.6339 15.2863C14.0821 15.1101 14.5171 14.9395 14.939 14.7747C15.361 14.6099 15.759 14.4835 16.133 14.3957C16.5153 14.298 16.871 14.2617 17.2002 14.2869C17.5294 14.3121 17.8164 14.4274 18.0612 14.6328C18.2668 14.8053 18.4059 14.9973 18.4786 15.209C18.5611 15.4288 18.5936 15.6486 18.5761 15.8682C18.5684 16.0961 18.5107 16.3239 18.4031 16.5516C18.3037 16.7695 18.1798 16.9668 18.0315 17.1436C17.6111 17.6445 17.1166 17.9158 16.5478 17.9574C15.9888 18.0072 15.4555 17.8275 14.948 17.4184L13.8972 18.6707C14.8082 19.3347 15.7227 19.6167 16.6408 19.5167C17.5769 19.4151 18.4159 18.9223 19.1576 18.0383C19.4955 17.6356 19.7458 17.218 19.9086 16.7855C20.0811 16.3611 20.1676 15.9399 20.168 15.5219C20.1685 15.1038 20.0795 14.7028 19.9012 14.3188C19.7327 13.9431 19.4722 13.6073 19.1197 13.3116C18.3855 12.6955 17.5598 12.4964 16.6428 12.7145C16.8374 12.1246 16.8633 11.5271 16.7205 10.9218C16.5762 10.2986 16.2592 9.78155 15.7697 9.37079C15.4075 9.06684 15.0275 8.87351 14.6297 8.79082C14.2304 8.69009 13.8234 8.65821 13.4086 8.69517C12.9939 8.73213 12.5748 8.82401 12.1513 8.9708C11.718 9.10938 11.2904 9.26108 10.8685 9.42591C10.4466 9.59074 10.0337 9.75476 9.62978 9.91798C9.22588 10.0812 8.84182 10.2109 8.47758 10.3069C8.11179 10.385 7.7782 10.4147 7.4768 10.3961C7.16561 10.3693 6.89253 10.2573 6.65756 10.0602C6.217 9.69051 6.01007 9.29092 6.03679 8.86142C6.06196 8.41389 6.23938 7.99368 6.56905 7.60079C6.96466 7.12933 7.42624 6.89736 7.95382 6.90486C8.4814 6.91237 8.97448 7.10016 9.43308 7.46823ZM8.93457 11.8202C9.43996 11.6752 9.93557 11.522 10.4214 11.3605C10.9056 11.181 11.3948 11.0057 11.8889 10.8344C12.1186 10.7594 12.3664 10.6828 12.6323 10.6046C12.8966 10.5083 13.1681 10.4433 13.4468 10.4093C13.7157 10.3672 13.9795 10.3709 14.2382 10.4206C14.4952 10.4522 14.7266 10.5543 14.9322 10.7268C15.2651 11.0061 15.4583 11.3524 15.512 11.7656C15.5641 12.1608 15.5294 12.5501 15.4078 12.9336C14.9024 13.0786 14.4076 13.2408 13.9233 13.4203C13.4293 13.5915 12.9409 13.7759 12.4582 13.9734C12.2021 14.0599 11.942 14.1512 11.6777 14.2475C11.4036 14.3355 11.1362 14.3957 10.8755 14.428C10.6148 14.4603 10.3552 14.4517 10.0965 14.402C9.84613 14.3425 9.60345 14.2142 9.36848 14.0171C9.05519 13.7542 8.87172 13.4161 8.81807 13.0029C8.75463 12.5814 8.79346 12.1872 8.93457 11.8202Z" fill="#1C2229"/>
</svg>
