<svg width="176" height="269" viewBox="0 0 176 269" fill="none" xmlns="http://www.w3.org/2000/svg">
<rect x="0.675624" y="0.675624" width="174.649" height="267.209" rx="2.51221" fill="white" stroke="#ADBFFD" stroke-width="1.35125"/>
<mask id="mask0_1541_1800" style="mask-type:alpha" maskUnits="userSpaceOnUse" x="0" y="0" width="176" height="269">
<path d="M2.32387e-07 3.18785C1.04043e-07 1.42725 1.42724 4.89417e-06 3.18784 4.85402e-06L172.812 9.8655e-07C174.573 9.46408e-07 176 1.42724 176 3.18784L176 265.373C176 267.133 174.573 268.561 172.812 268.561L3.18784 268.56C1.42725 268.56 1.94734e-05 267.133 1.9345e-05 265.372L2.32387e-07 3.18785Z" fill="#D9D9D9"/>
</mask>
<g mask="url(#mask0_1541_1800)">
<path d="M-73.9805 -78.7246L658.478 621.674" stroke="#ADBFFD" stroke-width="0.637567"/>
<path d="M-399.293 144.564L333.165 844.963" stroke="#ADBFFD" stroke-width="0.637567"/>
<path d="M143.973 -358.812L876.431 341.586" stroke="#ADBFFD" stroke-width="0.637567"/>
<path d="M-181.34 -135.523L551.118 564.875" stroke="#ADBFFD" stroke-width="0.637567"/>
<path d="M34.998 -218.77L767.456 481.629" stroke="#ADBFFD" stroke-width="0.637567"/>
<path d="M-290.316 4.52148L442.142 704.92" stroke="#ADBFFD" stroke-width="0.637567"/>
<path d="M-46.7363 -113.736L685.722 586.662" stroke="#ADBFFD" stroke-width="0.637567"/>
<path d="M-372.047 109.555L360.411 809.953" stroke="#ADBFFD" stroke-width="0.637567"/>
<path d="M62.2422 -253.779L794.701 446.619" stroke="#ADBFFD" stroke-width="0.637567"/>
<path d="M-263.07 -30.4883L469.388 669.91" stroke="#ADBFFD" stroke-width="0.637567"/>
<path d="M-19.4902 -148.746L712.968 551.652" stroke="#ADBFFD" stroke-width="0.637567"/>
<path d="M-344.803 74.543L387.656 774.941" stroke="#ADBFFD" stroke-width="0.637567"/>
<path d="M89.4863 -288.791L821.945 411.607" stroke="#ADBFFD" stroke-width="0.637567"/>
<path d="M-235.828 -65.5L496.63 634.898" stroke="#ADBFFD" stroke-width="0.637567"/>
<path d="M7.75391 -183.758L740.212 516.64" stroke="#ADBFFD" stroke-width="0.637567"/>
<path d="M-317.559 39.5312L414.9 739.929" stroke="#ADBFFD" stroke-width="0.637567"/>
<path d="M116.729 -323.801L849.187 376.597" stroke="#ADBFFD" stroke-width="0.637567"/>
<path d="M-208.584 -100.512L523.874 599.886" stroke="#ADBFFD" stroke-width="0.637567"/>
<path d="M-67.168 -87.4766L665.29 612.922" stroke="#ADBFFD" stroke-width="0.637567"/>
<path d="M-392.482 135.812L339.976 836.211" stroke="#ADBFFD" stroke-width="0.637567"/>
<path d="M150.785 -367.564L883.243 332.834" stroke="#ADBFFD" stroke-width="0.637567"/>
<path d="M-174.527 -144.275L557.931 556.123" stroke="#ADBFFD" stroke-width="0.637567"/>
<path d="M41.8086 -227.521L774.267 472.877" stroke="#ADBFFD" stroke-width="0.637567"/>
<path d="M-283.504 -4.23047L448.954 696.168" stroke="#ADBFFD" stroke-width="0.637567"/>
<path d="M-39.9238 -122.488L692.535 577.91" stroke="#ADBFFD" stroke-width="0.637567"/>
<path d="M-365.238 100.801L367.22 801.199" stroke="#ADBFFD" stroke-width="0.637567"/>
<path d="M69.0527 -262.531L801.511 437.867" stroke="#ADBFFD" stroke-width="0.637567"/>
<path d="M-256.262 -39.2422L476.197 661.156" stroke="#ADBFFD" stroke-width="0.637567"/>
<path d="M-12.6797 -157.5L719.779 542.898" stroke="#ADBFFD" stroke-width="0.637567"/>
<path d="M-337.994 65.791L394.464 766.189" stroke="#ADBFFD" stroke-width="0.637567"/>
<path d="M96.2969 -297.543L828.755 402.855" stroke="#ADBFFD" stroke-width="0.637567"/>
<path d="M-229.018 -74.252L503.441 626.146" stroke="#ADBFFD" stroke-width="0.637567"/>
<path d="M14.5625 -192.51L747.021 507.888" stroke="#ADBFFD" stroke-width="0.637567"/>
<path d="M-310.748 30.7793L421.71 731.177" stroke="#ADBFFD" stroke-width="0.637567"/>
<path d="M123.539 -332.553L855.997 367.845" stroke="#ADBFFD" stroke-width="0.637567"/>
<path d="M-201.771 -109.264L530.687 591.135" stroke="#ADBFFD" stroke-width="0.637567"/>
<path d="M-60.3574 -96.2305L672.101 604.168" stroke="#ADBFFD" stroke-width="0.637567"/>
<path d="M-385.672 127.061L346.786 827.459" stroke="#ADBFFD" stroke-width="0.637567"/>
<path d="M157.596 -376.318L890.054 324.08" stroke="#ADBFFD" stroke-width="0.637567"/>
<path d="M-167.717 -153.027L564.742 547.371" stroke="#ADBFFD" stroke-width="0.637567"/>
<path d="M48.6172 -236.273L781.076 464.125" stroke="#ADBFFD" stroke-width="0.637567"/>
<path d="M-276.693 -12.9824L455.765 687.416" stroke="#ADBFFD" stroke-width="0.637567"/>
<path d="M-33.1133 -131.242L699.345 569.156" stroke="#ADBFFD" stroke-width="0.637567"/>
<path d="M-358.428 92.0488L374.031 792.447" stroke="#ADBFFD" stroke-width="0.637567"/>
<path d="M75.8633 -271.285L808.322 429.113" stroke="#ADBFFD" stroke-width="0.637567"/>
<path d="M-249.449 -47.9941L483.009 652.404" stroke="#ADBFFD" stroke-width="0.637567"/>
<path d="M-5.86914 -166.25L726.589 534.148" stroke="#ADBFFD" stroke-width="0.637567"/>
<path d="M-331.184 57.0371L401.275 757.435" stroke="#ADBFFD" stroke-width="0.637567"/>
<path d="M103.107 -306.297L835.566 394.101" stroke="#ADBFFD" stroke-width="0.637567"/>
<path d="M-222.207 -83.0078L510.251 617.39" stroke="#ADBFFD" stroke-width="0.637567"/>
<path d="M21.373 -201.264L753.831 499.135" stroke="#ADBFFD" stroke-width="0.637567"/>
<path d="M-303.939 22.0254L428.519 722.424" stroke="#ADBFFD" stroke-width="0.637567"/>
<path d="M130.352 -341.307L862.81 359.092" stroke="#ADBFFD" stroke-width="0.637567"/>
<path d="M-194.963 -118.018L537.495 582.381" stroke="#ADBFFD" stroke-width="0.637567"/>
<path d="M-53.5469 -104.982L678.911 595.416" stroke="#ADBFFD" stroke-width="0.637567"/>
<path d="M-378.859 118.307L353.599 818.705" stroke="#ADBFFD" stroke-width="0.637567"/>
<path d="M55.4297 -245.025L787.888 455.373" stroke="#ADBFFD" stroke-width="0.637567"/>
<path d="M-269.883 -21.7363L462.576 678.662" stroke="#ADBFFD" stroke-width="0.637567"/>
<path d="M-26.3027 -139.994L706.156 560.404" stroke="#ADBFFD" stroke-width="0.637567"/>
<path d="M-351.615 83.2949L380.843 783.693" stroke="#ADBFFD" stroke-width="0.637567"/>
<path d="M82.6738 -280.039L815.132 420.359" stroke="#ADBFFD" stroke-width="0.637567"/>
<path d="M-242.639 -56.748L489.82 643.65" stroke="#ADBFFD" stroke-width="0.637567"/>
<path d="M0.941406 -175.004L733.4 525.394" stroke="#ADBFFD" stroke-width="0.637567"/>
<path d="M-324.371 48.2852L408.087 748.683" stroke="#ADBFFD" stroke-width="0.637567"/>
<path d="M109.918 -315.047L842.376 385.351" stroke="#ADBFFD" stroke-width="0.637567"/>
<path d="M-215.395 -91.7578L517.064 608.64" stroke="#ADBFFD" stroke-width="0.637567"/>
<path d="M28.1855 -210.016L760.644 490.383" stroke="#ADBFFD" stroke-width="0.637567"/>
<path d="M-297.127 13.2734L435.331 713.672" stroke="#ADBFFD" stroke-width="0.637567"/>
<path d="M137.162 -350.059L869.62 350.34" stroke="#ADBFFD" stroke-width="0.637567"/>
<path d="M-188.148 -126.77L544.31 573.629" stroke="#ADBFFD" stroke-width="0.637567"/>
</g>
<rect x="37.6669" y="27.87" width="101.006" height="22.499" rx="2.8714" fill="white"/>
<path d="M65.8114 35.8832H71.4461V43.1191H70.4834V36.694H66.7742V43.1191H65.8114V35.8832ZM72.6107 37.8797H73.4721V38.5891H73.4924C73.6343 38.2986 73.8572 38.0891 74.1613 37.9608C74.4653 37.8256 74.7997 37.7581 75.1646 37.7581C75.5699 37.7581 75.9213 37.8324 76.2185 37.981C76.5226 38.1297 76.7726 38.3323 76.9685 38.5891C77.1712 38.8391 77.3232 39.1296 77.4245 39.4606C77.5259 39.7917 77.5765 40.143 77.5765 40.5146C77.5765 40.893 77.5259 41.2477 77.4245 41.5787C77.3299 41.903 77.1813 42.1902 76.9786 42.4401C76.7827 42.6834 76.5327 42.8759 76.2287 43.0178C75.9314 43.1597 75.5835 43.2306 75.1848 43.2306C75.0497 43.2306 74.9045 43.2171 74.7491 43.1901C74.5937 43.1631 74.4383 43.1191 74.2829 43.0583C74.1275 42.9975 73.9788 42.9165 73.837 42.8151C73.7018 42.707 73.587 42.5753 73.4924 42.4199H73.4721V45.1156H72.6107V37.8797ZM75.0936 42.4807C75.3841 42.4807 75.6307 42.4232 75.8334 42.3084C76.0361 42.1935 76.1983 42.0415 76.3199 41.8523C76.4415 41.6632 76.5293 41.447 76.5834 41.2037C76.6374 40.9605 76.6645 40.7105 76.6645 40.4538C76.6645 40.2106 76.6307 39.9741 76.5631 39.7444C76.5023 39.5079 76.4043 39.2985 76.2692 39.1161C76.1408 38.9336 75.9719 38.7884 75.7625 38.6803C75.5598 38.5722 75.32 38.5181 75.043 38.5181C74.7524 38.5181 74.5058 38.5756 74.3031 38.6904C74.1005 38.8053 73.9349 38.9573 73.8066 39.1465C73.6782 39.3289 73.5836 39.5383 73.5228 39.7748C73.4688 40.0113 73.4417 40.2511 73.4417 40.4943C73.4417 40.7511 73.4721 41.0011 73.5329 41.2443C73.5937 41.4808 73.6883 41.6902 73.8167 41.8726C73.9518 42.055 74.1241 42.2037 74.3335 42.3185C74.543 42.4266 74.7964 42.4807 75.0936 42.4807ZM80.5436 43.2306C80.1247 43.2306 79.7565 43.1631 79.439 43.0279C79.1282 42.8861 78.8647 42.6935 78.6485 42.4503C78.4323 42.2003 78.2701 41.9098 78.162 41.5787C78.0539 41.2477 77.9999 40.8896 77.9999 40.5045C77.9999 40.1194 78.0539 39.7613 78.162 39.4302C78.2701 39.0924 78.4323 38.8019 78.6485 38.5587C78.8647 38.3087 79.1282 38.1128 79.439 37.9709C79.7565 37.829 80.1247 37.7581 80.5436 37.7581C80.9557 37.7581 81.3206 37.829 81.6381 37.9709C81.9557 38.1128 82.2225 38.3087 82.4387 38.5587C82.6549 38.8019 82.8171 39.0924 82.9252 39.4302C83.0333 39.7613 83.0873 40.1194 83.0873 40.5045C83.0873 40.8896 83.0333 41.2477 82.9252 41.5787C82.8171 41.9098 82.6549 42.2003 82.4387 42.4503C82.2225 42.6935 81.9557 42.8861 81.6381 43.0279C81.3206 43.1631 80.9557 43.2306 80.5436 43.2306ZM80.5436 42.4807C80.7666 42.4807 80.976 42.4368 81.1719 42.3489C81.3746 42.2611 81.5503 42.1361 81.6989 41.974C81.8476 41.8051 81.9624 41.599 82.0435 41.3558C82.1313 41.1058 82.1752 40.822 82.1752 40.5045C82.1752 40.1869 82.1313 39.9065 82.0435 39.6633C81.9624 39.4133 81.8476 39.2039 81.6989 39.035C81.5503 38.8661 81.3746 38.7377 81.1719 38.6499C80.976 38.5621 80.7666 38.5181 80.5436 38.5181C80.3207 38.5181 80.1078 38.5621 79.9052 38.6499C79.7092 38.7377 79.5369 38.8661 79.3883 39.035C79.2397 39.2039 79.1214 39.4133 79.0336 39.6633C78.9525 39.9065 78.912 40.1869 78.912 40.5045C78.912 40.822 78.9525 41.1058 79.0336 41.3558C79.1214 41.599 79.2397 41.8051 79.3883 41.974C79.5369 42.1361 79.7092 42.2611 79.9052 42.3489C80.1078 42.4368 80.3207 42.4807 80.5436 42.4807ZM86.14 43.2306C85.4644 43.2306 84.9171 43.0583 84.4982 42.7138C84.0861 42.3692 83.826 41.8355 83.7179 41.1125C83.6774 40.8288 83.6571 40.5112 83.6571 40.1599C83.6571 39.9099 83.6638 39.6498 83.6774 39.3796C83.6976 39.1093 83.728 38.8424 83.7686 38.5789C83.8159 38.3155 83.8767 38.0621 83.951 37.8189C84.0321 37.5756 84.1368 37.3561 84.2651 37.1601C84.4949 36.8021 84.7752 36.5386 85.1063 36.3697C85.4374 36.194 85.8529 36.0893 86.3528 36.0555C86.6839 36.0285 86.9609 35.9981 87.1838 35.9643C87.4068 35.9305 87.5318 35.846 87.5588 35.7109H88.4202C88.4067 35.9744 88.3493 36.1771 88.248 36.319C88.1466 36.4609 88.0047 36.569 87.8223 36.6433C87.6399 36.7108 87.4169 36.7581 87.1534 36.7852C86.8899 36.8054 86.5825 36.8291 86.2312 36.8561C85.9407 36.8764 85.6873 36.9439 85.4711 37.0588C85.2549 37.1736 85.0691 37.329 84.9137 37.525C84.7651 37.7141 84.6435 37.9405 84.5489 38.204C84.4543 38.4607 84.3868 38.7445 84.3462 39.0553H84.3766C84.5253 38.7107 84.755 38.4269 85.0658 38.204C85.3833 37.981 85.765 37.8695 86.2109 37.8695C86.9474 37.8695 87.5284 38.0993 87.9541 38.5587C88.3797 39.0181 88.5925 39.6802 88.5925 40.545C88.5925 40.9842 88.5317 41.3727 88.4101 41.7105C88.2952 42.0415 88.1297 42.3219 87.9135 42.5516C87.6973 42.7746 87.4372 42.9435 87.1332 43.0583C86.8359 43.1732 86.5048 43.2306 86.14 43.2306ZM86.1501 42.5009C86.3528 42.5009 86.5488 42.4604 86.7379 42.3793C86.9271 42.2915 87.0926 42.1665 87.2345 42.0044C87.3764 41.8422 87.4913 41.6429 87.5791 41.4064C87.6669 41.1632 87.7108 40.8828 87.7108 40.5653C87.7108 39.9505 87.5689 39.4674 87.2852 39.1161C87.0014 38.7647 86.6163 38.5891 86.1299 38.5891C85.6434 38.5891 85.2549 38.7681 84.9644 39.1262C84.6807 39.4775 84.5388 39.9606 84.5388 40.5754C84.5388 41.17 84.6807 41.6395 84.9644 41.9841C85.2482 42.3287 85.6434 42.5009 86.1501 42.5009ZM89.2638 43.1799C89.176 43.1799 89.0848 43.1698 88.9902 43.1495C88.8956 43.136 88.8179 43.1225 88.7571 43.109V42.3489C88.8247 42.3692 88.8855 42.3827 88.9395 42.3895C89.0003 42.3962 89.0578 42.3996 89.1118 42.3996C89.3348 42.3996 89.5037 42.3118 89.6185 42.1361C89.7402 41.9604 89.828 41.6902 89.882 41.3254C89.9428 40.9605 89.98 40.4943 89.9935 39.9268C90.007 39.3525 90.0205 38.6702 90.0341 37.8797H93.7128V43.1191H92.8514V38.6398H90.8651C90.8448 39.2546 90.8212 39.839 90.7941 40.393C90.7739 40.9403 90.7164 41.4199 90.6218 41.8321C90.5273 42.2442 90.3752 42.5719 90.1658 42.8151C89.9564 43.0583 89.6557 43.1799 89.2638 43.1799ZM96.9404 43.2306C96.5215 43.2306 96.1533 43.1631 95.8357 43.0279C95.525 42.8928 95.2648 42.7036 95.0554 42.4604C94.8459 42.2172 94.6872 41.9267 94.5791 41.5889C94.4777 41.251 94.4271 40.8828 94.4271 40.4842C94.4271 40.0923 94.4879 39.7309 94.6095 39.3998C94.7311 39.062 94.9 38.7715 95.1162 38.5283C95.3392 38.285 95.5993 38.0959 95.8965 37.9608C96.2006 37.8256 96.5316 37.7581 96.8897 37.7581C97.3559 37.7581 97.741 37.856 98.045 38.052C98.3558 38.2411 98.6024 38.4844 98.7848 38.7816C98.974 39.0789 99.1024 39.4032 99.1699 39.7545C99.2443 40.1059 99.2747 40.4403 99.2612 40.7578H95.3392C95.3324 40.9875 95.3594 41.2071 95.4202 41.4166C95.481 41.6193 95.579 41.8017 95.7141 41.9638C95.8493 42.1192 96.0215 42.2442 96.231 42.3388C96.4404 42.4334 96.687 42.4807 96.9708 42.4807C97.3356 42.4807 97.6329 42.3962 97.8626 42.2273C98.0991 42.0584 98.2545 41.8017 98.3288 41.4571H99.1801C99.0652 42.0517 98.8119 42.4976 98.42 42.7948C98.0281 43.0854 97.5349 43.2306 96.9404 43.2306ZM98.3491 39.9978C98.3355 39.7951 98.2883 39.6025 98.2072 39.4201C98.1329 39.2377 98.0281 39.0823 97.893 38.9539C97.7646 38.8188 97.6093 38.7141 97.4268 38.6398C97.2512 38.5587 97.0552 38.5181 96.839 38.5181C96.6161 38.5181 96.4134 38.5587 96.231 38.6398C96.0553 38.7141 95.9033 38.8188 95.7749 38.9539C95.6466 39.089 95.5452 39.2478 95.4709 39.4302C95.3966 39.6059 95.3527 39.7951 95.3392 39.9978H98.3491ZM99.8501 37.8797H101.086L102.678 42.126H102.698L104.289 37.8797H105.525V43.1191H104.664V38.9641L103.083 43.1191H102.292L100.711 38.9641V43.1191H99.8501V37.8797ZM107.973 43.2306C107.736 43.2306 107.513 43.2036 107.304 43.1495C107.094 43.1023 106.908 43.0212 106.746 42.9063C106.591 42.7847 106.466 42.6327 106.371 42.4503C106.283 42.2611 106.24 42.0348 106.24 41.7713C106.24 41.474 106.29 41.2308 106.392 41.0416C106.493 40.8524 106.625 40.7004 106.787 40.5856C106.956 40.4639 107.145 40.3727 107.354 40.3119C107.571 40.2511 107.79 40.2004 108.013 40.1599C108.25 40.1126 108.472 40.0788 108.682 40.0586C108.898 40.0315 109.087 39.9978 109.249 39.9572C109.412 39.9099 109.54 39.8457 109.635 39.7647C109.729 39.6768 109.776 39.5518 109.776 39.3897C109.776 39.2005 109.739 39.0485 109.665 38.9336C109.597 38.8188 109.506 38.731 109.391 38.6702C109.283 38.6093 109.158 38.5688 109.016 38.5485C108.881 38.5283 108.746 38.5181 108.611 38.5181C108.246 38.5181 107.942 38.5891 107.699 38.731C107.456 38.8661 107.324 39.1262 107.304 39.5113H106.442C106.456 39.187 106.523 38.9134 106.645 38.6904C106.767 38.4675 106.929 38.2884 107.131 38.1533C107.334 38.0114 107.564 37.9101 107.82 37.8493C108.084 37.7885 108.364 37.7581 108.662 37.7581C108.898 37.7581 109.131 37.775 109.361 37.8087C109.597 37.8425 109.81 37.9135 109.999 38.0216C110.189 38.1229 110.341 38.2682 110.455 38.4573C110.57 38.6465 110.628 38.8931 110.628 39.1971V41.8929C110.628 42.0956 110.638 42.2442 110.658 42.3388C110.685 42.4334 110.766 42.4807 110.901 42.4807C110.962 42.4807 111.05 42.4638 111.165 42.43V43.0989C111.016 43.1867 110.81 43.2306 110.547 43.2306C110.324 43.2306 110.145 43.1698 110.01 43.0482C109.881 42.9198 109.817 42.7138 109.817 42.43C109.58 42.7138 109.303 42.9198 108.986 43.0482C108.675 43.1698 108.337 43.2306 107.973 43.2306ZM108.165 42.4807C108.449 42.4807 108.692 42.4435 108.895 42.3692C109.097 42.2881 109.263 42.1902 109.391 42.0753C109.52 41.9537 109.614 41.8253 109.675 41.6902C109.736 41.5483 109.766 41.4166 109.766 41.295V40.4133C109.658 40.5011 109.516 40.5619 109.341 40.5957C109.165 40.6295 108.979 40.6599 108.783 40.6869C108.594 40.7139 108.402 40.7409 108.206 40.768C108.01 40.795 107.834 40.8423 107.679 40.9098C107.523 40.9774 107.395 41.0754 107.294 41.2037C107.199 41.3254 107.152 41.4943 107.152 41.7105C107.152 41.8523 107.179 41.974 107.233 42.0753C107.294 42.1699 107.368 42.2476 107.456 42.3084C107.55 42.3692 107.658 42.4131 107.78 42.4401C107.902 42.4672 108.03 42.4807 108.165 42.4807Z" fill="#104A99"/>
<rect x="37.6669" y="27.87" width="101.006" height="22.499" rx="2.8714" stroke="#ADBFFD" stroke-width="1.01344" stroke-dasharray="10.13 3.38"/>
<rect x="37.6669" y="65.0302" width="101.006" height="22.499" rx="2.8714" fill="white"/>
<path d="M71.3167 80.4414C70.7559 80.4414 70.2661 80.3469 69.8472 80.1577C69.4283 79.9618 69.0804 79.6949 68.8034 79.3571C68.5264 79.0193 68.3169 78.6206 68.1751 78.1612C68.0399 77.7018 67.9724 77.2086 67.9724 76.6816C67.9724 76.1546 68.0467 75.6614 68.1953 75.202C68.344 74.7358 68.5602 74.3304 68.8439 73.9859C69.1344 73.6413 69.4925 73.371 69.9182 73.1751C70.3438 72.9724 70.837 72.8711 71.3978 72.8711C71.7761 72.8711 72.1342 72.9217 72.472 73.0231C72.8098 73.1244 73.1105 73.2731 73.374 73.469C73.6375 73.6649 73.8571 73.9115 74.0327 74.2088C74.2084 74.4993 74.3232 74.8371 74.3773 75.2222H73.4145C73.3064 74.7088 73.0666 74.3237 72.695 74.0669C72.3302 73.8102 71.8944 73.6818 71.3877 73.6818C70.9553 73.6818 70.5837 73.7629 70.2729 73.9251C69.9688 74.0872 69.7155 74.3068 69.5128 74.5838C69.3169 74.854 69.1716 75.1648 69.077 75.5161C68.9824 75.8675 68.9351 76.2323 68.9351 76.6107C68.9351 77.0228 68.9824 77.4147 69.077 77.7862C69.1716 78.1511 69.3169 78.472 69.5128 78.749C69.7155 79.0193 69.9722 79.2355 70.283 79.3976C70.5938 79.5598 70.9654 79.6408 71.3978 79.6408C71.7086 79.6408 71.989 79.5902 72.2389 79.4888C72.4889 79.3807 72.7017 79.2355 72.8774 79.053C73.0598 78.8639 73.2017 78.6409 73.3031 78.3842C73.4044 78.1274 73.4652 77.8504 73.4855 77.5532H74.4482C74.3536 78.472 74.0395 79.1848 73.5057 79.6915C72.9788 80.1915 72.2491 80.4414 71.3167 80.4414ZM75.1949 75.0398H76.0564V79.3165L78.5291 75.0398H79.6338V80.2793H78.7724V76.0026L76.2996 80.2793H75.1949V75.0398ZM80.6311 75.0398H81.8675L83.4586 79.2861H83.4788L85.0699 75.0398H86.3063V80.2793H85.4449V76.1242L83.8639 80.2793H83.0734L81.4925 76.1242V80.2793H80.6311V75.0398ZM87.3043 75.0398H91.581V80.2793H90.7196V75.7999H88.1657V80.2793H87.3043V75.0398ZM93.839 75.7999H91.9641V75.0398H96.5753V75.7999H94.7004V80.2793H93.839V75.7999ZM99.2192 80.3908C98.8003 80.3908 98.4321 80.3232 98.1146 80.1881C97.8038 80.0462 97.5403 79.8537 97.3241 79.6104C97.1079 79.3604 96.9458 79.0699 96.8377 78.7389C96.7296 78.4078 96.6755 78.0497 96.6755 77.6646C96.6755 77.2795 96.7296 76.9214 96.8377 76.5904C96.9458 76.2526 97.1079 75.9621 97.3241 75.7188C97.5403 75.4689 97.8038 75.2729 98.1146 75.131C98.4321 74.9892 98.8003 74.9182 99.2192 74.9182C99.6314 74.9182 99.9962 74.9892 100.314 75.131C100.631 75.2729 100.898 75.4689 101.114 75.7188C101.331 75.9621 101.493 76.2526 101.601 76.5904C101.709 76.9214 101.763 77.2795 101.763 77.6646C101.763 78.0497 101.709 78.4078 101.601 78.7389C101.493 79.0699 101.331 79.3604 101.114 79.6104C100.898 79.8537 100.631 80.0462 100.314 80.1881C99.9962 80.3232 99.6314 80.3908 99.2192 80.3908ZM99.2192 79.6408C99.4422 79.6408 99.6516 79.5969 99.8476 79.5091C100.05 79.4213 100.226 79.2963 100.375 79.1341C100.523 78.9652 100.638 78.7591 100.719 78.5159C100.807 78.2659 100.851 77.9822 100.851 77.6646C100.851 77.3471 100.807 77.0667 100.719 76.8235C100.638 76.5735 100.523 76.3641 100.375 76.1951C100.226 76.0262 100.05 75.8979 99.8476 75.81C99.6516 75.7222 99.4422 75.6783 99.2192 75.6783C98.9963 75.6783 98.7834 75.7222 98.5808 75.81C98.3848 75.8979 98.2125 76.0262 98.0639 76.1951C97.9153 76.3641 97.797 76.5735 97.7092 76.8235C97.6281 77.0667 97.5876 77.3471 97.5876 77.6646C97.5876 77.9822 97.6281 78.2659 97.7092 78.5159C97.797 78.7591 97.9153 78.9652 98.0639 79.1341C98.2125 79.2963 98.3848 79.4213 98.5808 79.5091C98.7834 79.5969 98.9963 79.6408 99.2192 79.6408ZM102.475 75.0398H103.711L105.302 79.2861H105.322L106.913 75.0398H108.15V80.2793H107.288V76.1242L105.707 80.2793H104.917L103.336 76.1242V80.2793H102.475V75.0398Z" fill="#104A99"/>
<rect x="37.6669" y="65.0302" width="101.006" height="22.499" rx="2.8714" stroke="#ADBFFD" stroke-width="1.01344" stroke-dasharray="10.13 3.38"/>
<rect x="37.6669" y="102.188" width="101.006" height="22.499" rx="2.8714" fill="white"/>
<path d="M71.3167 117.6C70.7559 117.6 70.2661 117.505 69.8472 117.316C69.4283 117.12 69.0804 116.853 68.8034 116.515C68.5264 116.177 68.3169 115.779 68.1751 115.319C68.0399 114.86 67.9724 114.367 67.9724 113.84C67.9724 113.313 68.0467 112.82 68.1953 112.36C68.344 111.894 68.5602 111.489 68.8439 111.144C69.1344 110.799 69.4925 110.529 69.9182 110.333C70.3438 110.131 70.837 110.029 71.3978 110.029C71.7761 110.029 72.1342 110.08 72.472 110.181C72.8098 110.283 73.1105 110.431 73.374 110.627C73.6375 110.823 73.8571 111.07 74.0327 111.367C74.2084 111.658 74.3232 111.995 74.3773 112.38H73.4145C73.3064 111.867 73.0666 111.482 72.695 111.225C72.3302 110.968 71.8944 110.84 71.3877 110.84C70.9553 110.84 70.5837 110.921 70.2729 111.083C69.9688 111.245 69.7155 111.465 69.5128 111.742C69.3169 112.012 69.1716 112.323 69.077 112.674C68.9824 113.026 68.9351 113.391 68.9351 113.769C68.9351 114.181 68.9824 114.573 69.077 114.944C69.1716 115.309 69.3169 115.63 69.5128 115.907C69.7155 116.177 69.9722 116.394 70.283 116.556C70.5938 116.718 70.9654 116.799 71.3978 116.799C71.7086 116.799 71.989 116.748 72.2389 116.647C72.4889 116.539 72.7017 116.394 72.8774 116.211C73.0598 116.022 73.2017 115.799 73.3031 115.542C73.4044 115.286 73.4652 115.009 73.4855 114.711H74.4482C74.3536 115.63 74.0395 116.343 73.5057 116.85C72.9788 117.35 72.2491 117.6 71.3167 117.6ZM75.1949 112.198H76.0564V116.475L78.5291 112.198H79.6338V117.438H78.7724V113.161L76.2996 117.438H75.1949V112.198ZM80.6311 112.198H81.8675L83.4586 116.444H83.4788L85.0699 112.198H86.3063V117.438H85.4449V113.282L83.8639 117.438H83.0734L81.4925 113.282V117.438H80.6311V112.198ZM87.3043 112.198H91.581V117.438H90.7196V112.958H88.1657V117.438H87.3043V112.198ZM93.839 112.958H91.9641V112.198H96.5753V112.958H94.7004V117.438H93.839V112.958ZM99.2192 117.549C98.8003 117.549 98.4321 117.481 98.1146 117.346C97.8038 117.204 97.5403 117.012 97.3241 116.769C97.1079 116.519 96.9458 116.228 96.8377 115.897C96.7296 115.566 96.6755 115.208 96.6755 114.823C96.6755 114.438 96.7296 114.08 96.8377 113.749C96.9458 113.411 97.1079 113.12 97.3241 112.877C97.5403 112.627 97.8038 112.431 98.1146 112.289C98.4321 112.147 98.8003 112.076 99.2192 112.076C99.6314 112.076 99.9962 112.147 100.314 112.289C100.631 112.431 100.898 112.627 101.114 112.877C101.331 113.12 101.493 113.411 101.601 113.749C101.709 114.08 101.763 114.438 101.763 114.823C101.763 115.208 101.709 115.566 101.601 115.897C101.493 116.228 101.331 116.519 101.114 116.769C100.898 117.012 100.631 117.204 100.314 117.346C99.9962 117.481 99.6314 117.549 99.2192 117.549ZM99.2192 116.799C99.4422 116.799 99.6516 116.755 99.8476 116.667C100.05 116.579 100.226 116.454 100.375 116.292C100.523 116.123 100.638 115.917 100.719 115.674C100.807 115.424 100.851 115.14 100.851 114.823C100.851 114.505 100.807 114.225 100.719 113.982C100.638 113.732 100.523 113.522 100.375 113.353C100.226 113.184 100.05 113.056 99.8476 112.968C99.6516 112.88 99.4422 112.836 99.2192 112.836C98.9963 112.836 98.7834 112.88 98.5808 112.968C98.3848 113.056 98.2125 113.184 98.0639 113.353C97.9153 113.522 97.797 113.732 97.7092 113.982C97.6281 114.225 97.5876 114.505 97.5876 114.823C97.5876 115.14 97.6281 115.424 97.7092 115.674C97.797 115.917 97.9153 116.123 98.0639 116.292C98.2125 116.454 98.3848 116.579 98.5808 116.667C98.7834 116.755 98.9963 116.799 99.2192 116.799ZM102.475 112.198H103.711L105.302 116.444H105.322L106.913 112.198H108.15V117.438H107.288V113.282L105.707 117.438H104.917L103.336 113.282V117.438H102.475V112.198Z" fill="#104A99"/>
<rect x="37.6669" y="102.188" width="101.006" height="22.499" rx="2.8714" stroke="#ADBFFD" stroke-width="1.01344" stroke-dasharray="10.13 3.38"/>
<rect x="37.6669" y="139.349" width="101.006" height="22.499" rx="2.8714" fill="white"/>
<path d="M71.3167 154.76C70.7559 154.76 70.2661 154.665 69.8472 154.476C69.4283 154.28 69.0804 154.013 68.8034 153.675C68.5264 153.338 68.3169 152.939 68.1751 152.48C68.0399 152.02 67.9724 151.527 67.9724 151C67.9724 150.473 68.0467 149.98 68.1953 149.52C68.344 149.054 68.5602 148.649 68.8439 148.304C69.1344 147.96 69.4925 147.689 69.9182 147.493C70.3438 147.291 70.837 147.189 71.3978 147.189C71.7761 147.189 72.1342 147.24 72.472 147.341C72.8098 147.443 73.1105 147.591 73.374 147.787C73.6375 147.983 73.8571 148.23 74.0327 148.527C74.2084 148.818 74.3232 149.156 74.3773 149.541H73.4145C73.3064 149.027 73.0666 148.642 72.695 148.385C72.3302 148.129 71.8944 148 71.3877 148C70.9553 148 70.5837 148.081 70.2729 148.243C69.9688 148.406 69.7155 148.625 69.5128 148.902C69.3169 149.172 69.1716 149.483 69.077 149.835C68.9824 150.186 68.9351 150.551 68.9351 150.929C68.9351 151.341 68.9824 151.733 69.077 152.105C69.1716 152.469 69.3169 152.79 69.5128 153.067C69.7155 153.338 69.9722 153.554 70.283 153.716C70.5938 153.878 70.9654 153.959 71.3978 153.959C71.7086 153.959 71.989 153.909 72.2389 153.807C72.4889 153.699 72.7017 153.554 72.8774 153.371C73.0598 153.182 73.2017 152.959 73.3031 152.703C73.4044 152.446 73.4652 152.169 73.4855 151.872H74.4482C74.3536 152.79 74.0395 153.503 73.5057 154.01C72.9788 154.51 72.2491 154.76 71.3167 154.76ZM75.1949 149.358H76.0564V153.635L78.5291 149.358H79.6338V154.598H78.7724V150.321L76.2996 154.598H75.1949V149.358ZM80.6311 149.358H81.8675L83.4586 153.604H83.4788L85.0699 149.358H86.3063V154.598H85.4449V150.443L83.8639 154.598H83.0734L81.4925 150.443V154.598H80.6311V149.358ZM87.3043 149.358H91.581V154.598H90.7196V150.118H88.1657V154.598H87.3043V149.358ZM93.839 150.118H91.9641V149.358H96.5753V150.118H94.7004V154.598H93.839V150.118ZM99.2192 154.709C98.8003 154.709 98.4321 154.642 98.1146 154.506C97.8038 154.365 97.5403 154.172 97.3241 153.929C97.1079 153.679 96.9458 153.388 96.8377 153.057C96.7296 152.726 96.6755 152.368 96.6755 151.983C96.6755 151.598 96.7296 151.24 96.8377 150.909C96.9458 150.571 97.1079 150.28 97.3241 150.037C97.5403 149.787 97.8038 149.591 98.1146 149.449C98.4321 149.308 98.8003 149.237 99.2192 149.237C99.6314 149.237 99.9962 149.308 100.314 149.449C100.631 149.591 100.898 149.787 101.114 150.037C101.331 150.28 101.493 150.571 101.601 150.909C101.709 151.24 101.763 151.598 101.763 151.983C101.763 152.368 101.709 152.726 101.601 153.057C101.493 153.388 101.331 153.679 101.114 153.929C100.898 154.172 100.631 154.365 100.314 154.506C99.9962 154.642 99.6314 154.709 99.2192 154.709ZM99.2192 153.959C99.4422 153.959 99.6516 153.915 99.8476 153.827C100.05 153.74 100.226 153.615 100.375 153.452C100.523 153.284 100.638 153.078 100.719 152.834C100.807 152.584 100.851 152.301 100.851 151.983C100.851 151.665 100.807 151.385 100.719 151.142C100.638 150.892 100.523 150.682 100.375 150.514C100.226 150.345 100.05 150.216 99.8476 150.128C99.6516 150.041 99.4422 149.997 99.2192 149.997C98.9963 149.997 98.7834 150.041 98.5808 150.128C98.3848 150.216 98.2125 150.345 98.0639 150.514C97.9153 150.682 97.797 150.892 97.7092 151.142C97.6281 151.385 97.5876 151.665 97.5876 151.983C97.5876 152.301 97.6281 152.584 97.7092 152.834C97.797 153.078 97.9153 153.284 98.0639 153.452C98.2125 153.615 98.3848 153.74 98.5808 153.827C98.7834 153.915 98.9963 153.959 99.2192 153.959ZM102.475 149.358H103.711L105.302 153.604H105.322L106.913 149.358H108.15V154.598H107.288V150.443L105.707 154.598H104.917L103.336 150.443V154.598H102.475V149.358Z" fill="#104A99"/>
<rect x="37.6669" y="139.349" width="101.006" height="22.499" rx="2.8714" stroke="#ADBFFD" stroke-width="1.01344" stroke-dasharray="10.13 3.38"/>
<rect x="37.6669" y="176.507" width="101.006" height="22.499" rx="2.8714" fill="white"/>
<path d="M69.3118 184.52H74.9465V191.756H73.9838V185.331H70.2746V191.756H69.3118V184.52ZM76.1111 186.516H76.9725V187.226H76.9928C77.1347 186.935 77.3576 186.726 77.6617 186.597C77.9657 186.462 78.3001 186.395 78.665 186.395C79.0703 186.395 79.4217 186.469 79.7189 186.618C80.023 186.766 80.2729 186.969 80.4689 187.226C80.6716 187.476 80.8236 187.766 80.9249 188.097C81.0263 188.428 81.0769 188.78 81.0769 189.151C81.0769 189.53 81.0263 189.884 80.9249 190.215C80.8303 190.54 80.6817 190.827 80.479 191.077C80.2831 191.32 80.0331 191.513 79.7291 191.655C79.4318 191.796 79.0838 191.867 78.6852 191.867C78.5501 191.867 78.4048 191.854 78.2495 191.827C78.0941 191.8 77.9387 191.756 77.7833 191.695C77.6279 191.634 77.4792 191.553 77.3374 191.452C77.2022 191.344 77.0874 191.212 76.9928 191.057H76.9725V193.752H76.1111V186.516ZM78.594 191.117C78.8845 191.117 79.1311 191.06 79.3338 190.945C79.5365 190.83 79.6987 190.678 79.8203 190.489C79.9419 190.3 80.0297 190.084 80.0838 189.84C80.1378 189.597 80.1648 189.347 80.1648 189.091C80.1648 188.847 80.1311 188.611 80.0635 188.381C80.0027 188.145 79.9047 187.935 79.7696 187.753C79.6412 187.57 79.4723 187.425 79.2629 187.317C79.0602 187.209 78.8204 187.155 78.5433 187.155C78.2528 187.155 78.0062 187.212 77.8035 187.327C77.6009 187.442 77.4353 187.594 77.307 187.783C77.1786 187.966 77.084 188.175 77.0232 188.412C76.9691 188.648 76.9421 188.888 76.9421 189.131C76.9421 189.388 76.9725 189.638 77.0333 189.881C77.0941 190.117 77.1887 190.327 77.3171 190.509C77.4522 190.692 77.6245 190.84 77.8339 190.955C78.0434 191.063 78.2967 191.117 78.594 191.117ZM81.784 186.516H82.6455V190.793L85.1183 186.516H86.2229V191.756H85.3615V187.479L82.8887 191.756H81.784V186.516ZM90.3618 189.628C90.2064 189.695 89.9902 189.759 89.7132 189.82C89.4362 189.881 89.1457 189.911 88.8417 189.911C88.1931 189.911 87.7303 189.773 87.4533 189.496C87.1763 189.212 87.0378 188.817 87.0378 188.31V186.516H87.8992V188.168C87.8992 188.513 87.9769 188.77 88.1323 188.939C88.2944 189.101 88.5849 189.182 89.0038 189.182C89.2606 189.182 89.5139 189.155 89.7639 189.101C90.0139 189.047 90.2132 188.986 90.3618 188.918V186.516H91.2233V191.756H90.3618V189.628ZM92.2209 186.516H93.0823V190.793L95.5551 186.516H96.6597V191.756H95.7983V187.479L93.3255 191.756H92.2209V186.516ZM97.657 186.516H98.5184V188.604H101.174V186.516H102.035V191.756H101.174V189.344H98.5184V191.756H97.657V186.516ZM104.473 191.867C104.237 191.867 104.014 191.84 103.804 191.786C103.595 191.739 103.409 191.658 103.247 191.543C103.091 191.421 102.966 191.269 102.872 191.087C102.784 190.898 102.74 190.671 102.74 190.408C102.74 190.111 102.791 189.867 102.892 189.678C102.993 189.489 103.125 189.337 103.287 189.222C103.456 189.101 103.645 189.009 103.855 188.949C104.071 188.888 104.291 188.837 104.514 188.797C104.75 188.749 104.973 188.716 105.182 188.695C105.399 188.668 105.588 188.634 105.75 188.594C105.912 188.547 106.041 188.482 106.135 188.401C106.23 188.314 106.277 188.189 106.277 188.026C106.277 187.837 106.24 187.685 106.166 187.57C106.098 187.456 106.007 187.368 105.892 187.307C105.784 187.246 105.659 187.206 105.517 187.185C105.382 187.165 105.247 187.155 105.112 187.155C104.747 187.155 104.443 187.226 104.199 187.368C103.956 187.503 103.824 187.763 103.804 188.148H102.943C102.956 187.824 103.024 187.55 103.145 187.327C103.267 187.104 103.429 186.925 103.632 186.79C103.835 186.648 104.064 186.547 104.321 186.486C104.585 186.425 104.865 186.395 105.162 186.395C105.399 186.395 105.632 186.412 105.861 186.445C106.098 186.479 106.311 186.55 106.5 186.658C106.689 186.76 106.841 186.905 106.956 187.094C107.071 187.283 107.128 187.53 107.128 187.834V190.53C107.128 190.732 107.138 190.881 107.159 190.976C107.186 191.07 107.267 191.117 107.402 191.117C107.463 191.117 107.551 191.101 107.665 191.067V191.736C107.517 191.823 107.311 191.867 107.047 191.867C106.824 191.867 106.645 191.807 106.51 191.685C106.382 191.557 106.318 191.35 106.318 191.067C106.081 191.35 105.804 191.557 105.487 191.685C105.176 191.807 104.838 191.867 104.473 191.867ZM104.666 191.117C104.949 191.117 105.193 191.08 105.395 191.006C105.598 190.925 105.764 190.827 105.892 190.712C106.02 190.59 106.115 190.462 106.176 190.327C106.236 190.185 106.267 190.053 106.267 189.932V189.05C106.159 189.138 106.017 189.199 105.841 189.232C105.666 189.266 105.48 189.297 105.284 189.324C105.095 189.351 104.902 189.378 104.706 189.405C104.51 189.432 104.335 189.479 104.179 189.547C104.024 189.614 103.895 189.712 103.794 189.84C103.699 189.962 103.652 190.131 103.652 190.347C103.652 190.489 103.679 190.611 103.733 190.712C103.794 190.807 103.868 190.884 103.956 190.945C104.051 191.006 104.159 191.05 104.281 191.077C104.402 191.104 104.53 191.117 104.666 191.117Z" fill="#104A99"/>
<rect x="37.6669" y="176.507" width="101.006" height="22.499" rx="2.8714" stroke="#ADBFFD" stroke-width="1.01344" stroke-dasharray="10.13 3.38"/>
<rect x="37.6669" y="213.667" width="101.006" height="22.499" rx="2.8714" fill="white"/>
<path d="M68.8219 221.68H71.994C72.7304 221.68 73.2844 221.869 73.656 222.248C74.0276 222.619 74.2134 223.143 74.2134 223.818C74.2134 224.494 74.0276 225.021 73.656 225.399C73.2844 225.771 72.7304 225.957 71.994 225.957H69.7847V228.916H68.8219V221.68ZM71.6697 225.146C72.2169 225.146 72.6155 225.035 72.8655 224.812C73.1223 224.582 73.2506 224.251 73.2506 223.818C73.2506 223.386 73.1223 223.058 72.8655 222.835C72.6155 222.606 72.2169 222.491 71.6697 222.491H69.7847V225.146H71.6697ZM77.1771 229.027C76.7582 229.027 76.39 228.96 76.0724 228.825C75.7616 228.69 75.5015 228.501 75.2921 228.257C75.0826 228.014 74.9239 227.724 74.8158 227.386C74.7144 227.048 74.6637 226.68 74.6637 226.281C74.6637 225.889 74.7246 225.528 74.8462 225.197C74.9678 224.859 75.1367 224.568 75.3529 224.325C75.5758 224.082 75.836 223.893 76.1332 223.758C76.4373 223.623 76.7683 223.555 77.1264 223.555C77.5926 223.555 77.9777 223.653 78.2817 223.849C78.5925 224.038 78.8391 224.281 79.0215 224.579C79.2107 224.876 79.3391 225.2 79.4066 225.551C79.4809 225.903 79.5113 226.237 79.4978 226.555H75.5758C75.5691 226.784 75.5961 227.004 75.6569 227.213C75.7177 227.416 75.8157 227.599 75.9508 227.761C76.0859 227.916 76.2582 228.041 76.4677 228.136C76.6771 228.23 76.9237 228.278 77.2075 228.278C77.5723 228.278 77.8696 228.193 78.0993 228.024C78.3358 227.855 78.4912 227.599 78.5655 227.254H79.4168C79.3019 227.849 79.0485 228.294 78.6567 228.592C78.2648 228.882 77.7716 229.027 77.1771 229.027ZM78.5857 225.795C78.5722 225.592 78.5249 225.399 78.4439 225.217C78.3695 225.035 78.2648 224.879 78.1297 224.751C78.0013 224.616 77.8459 224.511 77.6635 224.437C77.4879 224.356 77.2919 224.315 77.0757 224.315C76.8528 224.315 76.6501 224.356 76.4677 224.437C76.292 224.511 76.14 224.616 76.0116 224.751C75.8832 224.886 75.7819 225.045 75.7076 225.227C75.6333 225.403 75.5894 225.592 75.5758 225.795H78.5857ZM80.0867 223.677H80.9482V228.156H82.9041V223.677H83.7655V228.156H85.7214V223.677H86.5829V228.916H80.0867V223.677ZM89.8011 229.027C89.3822 229.027 89.014 228.96 88.6964 228.825C88.3856 228.69 88.1255 228.501 87.9161 228.257C87.7066 228.014 87.5479 227.724 87.4398 227.386C87.3384 227.048 87.2878 226.68 87.2878 226.281C87.2878 225.889 87.3486 225.528 87.4702 225.197C87.5918 224.859 87.7607 224.568 87.9769 224.325C88.1998 224.082 88.46 223.893 88.7572 223.758C89.0613 223.623 89.3923 223.555 89.7504 223.555C90.2166 223.555 90.6017 223.653 90.9057 223.849C91.2165 224.038 91.4631 224.281 91.6455 224.579C91.8347 224.876 91.9631 225.2 92.0306 225.551C92.105 225.903 92.1354 226.237 92.1218 226.555H88.1998C88.1931 226.784 88.2201 227.004 88.2809 227.213C88.3417 227.416 88.4397 227.599 88.5748 227.761C88.7099 227.916 88.8822 228.041 89.0917 228.136C89.3011 228.23 89.5477 228.278 89.8315 228.278C90.1963 228.278 90.4936 228.193 90.7233 228.024C90.9598 227.855 91.1152 227.599 91.1895 227.254H92.0408C91.9259 227.849 91.6726 228.294 91.2807 228.592C90.8888 228.882 90.3956 229.027 89.8011 229.027ZM91.2098 225.795C91.1962 225.592 91.1489 225.399 91.0679 225.217C90.9936 225.035 90.8888 224.879 90.7537 224.751C90.6253 224.616 90.4699 224.511 90.2875 224.437C90.1119 224.356 89.9159 224.315 89.6997 224.315C89.4768 224.315 89.2741 224.356 89.0917 224.437C88.916 224.511 88.764 224.616 88.6356 224.751C88.5073 224.886 88.4059 225.045 88.3316 225.227C88.2573 225.403 88.2134 225.592 88.1998 225.795H91.2098ZM92.7107 223.677H93.5722V225.764H96.2274V223.677H97.0888V228.916H96.2274V226.504H93.5722V228.916H92.7107V223.677ZM98.0776 223.677H98.939V227.953L101.412 223.677H102.516V228.916H101.655V224.639L99.1823 228.916H98.0776V223.677ZM105.743 229.027C105.324 229.027 104.956 228.96 104.639 228.825C104.328 228.69 104.068 228.501 103.858 228.257C103.649 228.014 103.49 227.724 103.382 227.386C103.281 227.048 103.23 226.68 103.23 226.281C103.23 225.889 103.291 225.528 103.412 225.197C103.534 224.859 103.703 224.568 103.919 224.325C104.142 224.082 104.402 223.893 104.699 223.758C105.003 223.623 105.335 223.555 105.693 223.555C106.159 223.555 106.544 223.653 106.848 223.849C107.159 224.038 107.405 224.281 107.588 224.579C107.777 224.876 107.905 225.2 107.973 225.551C108.047 225.903 108.078 226.237 108.064 226.555H104.142C104.135 226.784 104.162 227.004 104.223 227.213C104.284 227.416 104.382 227.599 104.517 227.761C104.652 227.916 104.824 228.041 105.034 228.136C105.243 228.23 105.49 228.278 105.774 228.278C106.139 228.278 106.436 228.193 106.666 228.024C106.902 227.855 107.057 227.599 107.132 227.254H107.983C107.868 227.849 107.615 228.294 107.223 228.592C106.831 228.882 106.338 229.027 105.743 229.027ZM107.152 225.795C107.138 225.592 107.091 225.399 107.01 225.217C106.936 225.035 106.831 224.879 106.696 224.751C106.568 224.616 106.412 224.511 106.23 224.437C106.054 224.356 105.858 224.315 105.642 224.315C105.419 224.315 105.216 224.356 105.034 224.437C104.858 224.511 104.706 224.616 104.578 224.751C104.449 224.886 104.348 225.045 104.274 225.227C104.2 225.403 104.156 225.592 104.142 225.795H107.152Z" fill="#104A99"/>
<rect x="37.6669" y="213.667" width="101.006" height="22.499" rx="2.8714" stroke="#ADBFFD" stroke-width="1.01344" stroke-dasharray="10.13 3.38"/>
<path d="M139.111 37.779C159.093 37.779 162.588 77.8096 139.111 77.8096" stroke="#ADBFFD" stroke-width="0.675624"/>
<path d="M131.759 77.8811L139.41 76.2246L139.41 79.5375L131.759 77.8811Z" fill="#ADBFFD"/>
<path d="M139.111 74.5974C159.093 74.5974 162.588 114.628 139.111 114.628" stroke="#ADBFFD" stroke-width="0.675624"/>
<path d="M131.759 114.699L139.41 113.043L139.41 116.356L131.759 114.699Z" fill="#ADBFFD"/>
<path d="M139.111 112.097C159.093 112.097 162.588 152.128 139.111 152.128" stroke="#ADBFFD" stroke-width="0.675624"/>
<path d="M131.759 152.199L139.41 150.543L139.41 153.856L131.759 152.199Z" fill="#ADBFFD"/>
<path d="M139.111 150.265C159.093 150.265 162.588 190.296 139.111 190.296" stroke="#ADBFFD" stroke-width="0.675624"/>
<path d="M131.759 190.367L139.41 188.711L139.41 192.024L131.759 190.367Z" fill="#ADBFFD"/>
<path d="M139.111 187.427C159.093 187.427 162.588 227.458 139.111 227.458" stroke="#ADBFFD" stroke-width="0.675624"/>
<path d="M131.759 227.529L139.41 225.873L139.41 229.186L131.759 227.529Z" fill="#ADBFFD"/>
<path d="M37.2583 227.09C17.2766 227.09 13.7808 187.06 37.2582 187.06" stroke="#ADBFFD" stroke-width="0.675624"/>
<path d="M44.6098 186.988L36.959 188.645L36.959 185.332L44.6098 186.988Z" fill="#ADBFFD"/>
<path d="M37.2583 190.268C17.2766 190.268 13.7808 150.237 37.2582 150.237" stroke="#ADBFFD" stroke-width="0.675624"/>
<path d="M44.6098 150.166L36.959 151.822L36.959 148.509L44.6098 150.166Z" fill="#ADBFFD"/>
<path d="M37.2583 152.774C17.2766 152.774 13.7808 112.743 37.2582 112.743" stroke="#ADBFFD" stroke-width="0.675624"/>
<path d="M44.6098 112.672L36.959 114.328L36.959 111.015L44.6098 112.672Z" fill="#ADBFFD"/>
<path d="M37.2583 114.598C17.2766 114.598 13.7808 74.5673 37.2582 74.5673" stroke="#ADBFFD" stroke-width="0.675624"/>
<path d="M44.6098 74.4959L36.959 76.1523L36.959 72.8394L44.6098 74.4959Z" fill="#ADBFFD"/>
<path d="M37.2583 77.4417C17.2766 77.4417 13.7808 37.4111 37.2582 37.4111" stroke="#ADBFFD" stroke-width="0.675624"/>
<path d="M44.6098 37.3396L36.959 38.9961L36.959 35.6832L44.6098 37.3396Z" fill="#ADBFFD"/>
<rect x="129.719" y="8.7832" width="37.1593" height="18.5797" rx="3.37812" fill="white"/>
<path d="M136.154 18.2853C136.165 18.2346 136.171 18.1783 136.171 18.1164C136.176 18.0545 136.179 18.0038 136.179 17.9644C136.179 17.8743 136.168 17.787 136.145 17.7026C136.129 17.6181 136.095 17.5421 136.044 17.4746C135.999 17.407 135.934 17.3535 135.85 17.3141C135.771 17.2747 135.67 17.255 135.546 17.255C135.416 17.255 135.29 17.2916 135.166 17.3648C135.048 17.4323 134.938 17.5252 134.836 17.6435C134.741 17.7561 134.656 17.8856 134.583 18.032C134.51 18.1727 134.462 18.3135 134.439 18.4542L134 21.0723H133.325L134.026 16.8496H134.22L134.575 17.635C134.625 17.5337 134.69 17.4323 134.769 17.331C134.853 17.224 134.949 17.1283 135.056 17.0439C135.169 16.9594 135.292 16.8918 135.428 16.8412C135.568 16.7905 135.72 16.7652 135.884 16.7652C136.064 16.7652 136.216 16.7933 136.34 16.8496C136.469 16.9059 136.573 16.9819 136.652 17.0776C136.731 17.1677 136.787 17.2775 136.821 17.407C136.86 17.5309 136.88 17.6632 136.88 17.8039C136.88 17.8602 136.877 17.9278 136.872 18.0066C136.866 18.0854 136.858 18.153 136.846 18.2093L136.525 20.1348C136.52 20.163 136.514 20.1996 136.509 20.2446C136.503 20.2897 136.5 20.3263 136.5 20.3544C136.5 20.4389 136.52 20.5036 136.559 20.5487C136.604 20.5881 136.661 20.6078 136.728 20.6078C136.841 20.6078 136.939 20.5712 137.024 20.498C137.108 20.4192 137.21 20.3066 137.328 20.1602L137.26 20.5487C137.148 20.7232 137.029 20.8611 136.906 20.9625C136.787 21.0638 136.63 21.1145 136.433 21.1145C136.19 21.1145 136.027 21.0526 135.943 20.9287C135.858 20.7992 135.816 20.6444 135.816 20.4642C135.816 20.4023 135.819 20.3432 135.825 20.2869C135.83 20.2306 135.839 20.1714 135.85 20.1095L136.154 18.2853ZM139.649 16.7652C139.897 16.7652 140.116 16.8102 140.308 16.9003C140.499 16.9904 140.657 17.1142 140.781 17.2719C140.91 17.4295 141.006 17.6153 141.068 17.8293C141.135 18.0432 141.169 18.2712 141.169 18.5133C141.169 18.8793 141.121 19.2227 141.026 19.5437C140.93 19.8646 140.795 20.1461 140.62 20.3882C140.446 20.6247 140.237 20.8133 139.995 20.954C139.753 21.0892 139.486 21.1567 139.193 21.1567C138.962 21.1567 138.751 21.1145 138.56 21.03C138.374 20.9456 138.216 20.8274 138.087 20.6753C137.957 20.5233 137.856 20.3432 137.783 20.1348C137.715 19.9209 137.681 19.6844 137.681 19.4254C137.681 19.0201 137.729 18.6541 137.825 18.3275C137.926 18.001 138.064 17.7223 138.239 17.4915C138.413 17.2606 138.619 17.0833 138.855 16.9594C139.097 16.8299 139.362 16.7652 139.649 16.7652ZM139.185 20.8865C139.415 20.8865 139.61 20.7936 139.767 20.6078C139.925 20.4163 140.052 20.1855 140.147 19.9153C140.243 19.645 140.311 19.3635 140.35 19.0707C140.395 18.7723 140.418 18.519 140.418 18.3107C140.418 17.8546 140.35 17.5309 140.215 17.3394C140.08 17.1424 139.897 17.0439 139.666 17.0439C139.508 17.0439 139.367 17.0889 139.244 17.179C139.125 17.2634 139.018 17.3789 138.923 17.5252C138.833 17.6716 138.757 17.8377 138.695 18.0235C138.633 18.2037 138.582 18.3895 138.543 18.5809C138.503 18.7723 138.475 18.9609 138.458 19.1467C138.441 19.3269 138.433 19.4874 138.433 19.6281C138.433 20.0842 138.5 20.4079 138.636 20.5993C138.776 20.7908 138.959 20.8865 139.185 20.8865ZM142.021 17.7955C142.027 17.7673 142.03 17.742 142.03 17.7195C142.035 17.6913 142.038 17.6688 142.038 17.6519C142.038 17.5506 142.001 17.4774 141.928 17.4323C141.855 17.3817 141.728 17.3563 141.548 17.3563L141.582 17.1452L142.705 16.7652H142.874L142.655 18.1417C142.643 18.198 142.635 18.26 142.629 18.3275C142.629 18.3951 142.629 18.4458 142.629 18.4796C142.629 18.6485 142.671 18.7892 142.756 18.9018C142.84 19.0088 142.998 19.0623 143.229 19.0623C143.375 19.0623 143.51 19.0454 143.634 19.0116C143.758 18.9722 143.896 18.9131 144.048 18.8343L144.386 16.8496H145.07L144.521 20.1348C144.515 20.163 144.51 20.1996 144.504 20.2446C144.498 20.2897 144.496 20.3263 144.496 20.3544C144.496 20.5233 144.572 20.6078 144.724 20.6078C144.836 20.6078 144.935 20.5712 145.019 20.498C145.104 20.4192 145.205 20.3066 145.323 20.1602L145.247 20.5487C145.14 20.7232 145.025 20.8611 144.901 20.9625C144.777 21.0638 144.617 21.1145 144.42 21.1145C144.183 21.1145 144.023 21.0526 143.938 20.9287C143.854 20.7992 143.812 20.6444 143.812 20.4642C143.812 20.4473 143.82 20.3713 143.837 20.2362C143.859 20.1011 143.882 19.9547 143.904 19.797C143.927 19.6337 143.947 19.4874 143.964 19.3579C143.986 19.2227 143.997 19.1467 143.997 19.1298C143.851 19.2199 143.699 19.2959 143.541 19.3579C143.384 19.4142 143.181 19.4423 142.933 19.4423C142.646 19.4423 142.407 19.3635 142.215 19.2059C142.024 19.0482 141.928 18.8061 141.928 18.4796C141.928 18.4233 141.931 18.3613 141.937 18.2938C141.942 18.2206 141.951 18.1586 141.962 18.108L142.021 17.7955ZM148.573 20.2193C148.461 20.5064 148.292 20.7345 148.066 20.9034C147.847 21.0723 147.577 21.1567 147.256 21.1567C147.025 21.1567 146.814 21.1145 146.622 21.03C146.436 20.9456 146.276 20.8274 146.141 20.6753C146.011 20.5233 145.91 20.3432 145.837 20.1348C145.764 19.9209 145.727 19.6872 145.727 19.4339C145.727 19.1186 145.769 18.8033 145.854 18.488C145.938 18.1671 146.068 17.8799 146.242 17.6266C146.417 17.3732 146.636 17.1677 146.901 17.0101C147.166 16.8468 147.478 16.7652 147.838 16.7652C148.159 16.7652 148.41 16.8412 148.59 16.9932C148.776 17.1452 148.869 17.3535 148.869 17.6181C148.869 17.9109 148.784 18.1558 148.615 18.3529C148.446 18.5443 148.241 18.702 147.999 18.8258C147.757 18.944 147.501 19.0341 147.23 19.0961C146.96 19.158 146.721 19.2002 146.512 19.2227C146.507 19.2622 146.504 19.3016 146.504 19.341C146.504 19.3748 146.504 19.4085 146.504 19.4423C146.504 19.8027 146.586 20.087 146.749 20.2953C146.918 20.498 147.16 20.5993 147.475 20.5993C147.695 20.5993 147.897 20.5402 148.083 20.422C148.275 20.2981 148.458 20.1123 148.632 19.8646L148.573 20.2193ZM147.729 17.0354C147.543 17.0354 147.377 17.103 147.23 17.2381C147.09 17.3732 146.968 17.5393 146.867 17.7364C146.766 17.9278 146.687 18.1333 146.631 18.3529C146.574 18.5668 146.538 18.7583 146.521 18.9272C146.69 18.9103 146.867 18.8709 147.053 18.8089C147.244 18.7414 147.419 18.6541 147.577 18.5471C147.74 18.4345 147.872 18.2966 147.973 18.1333C148.08 17.9644 148.134 17.7702 148.134 17.5506C148.134 17.4042 148.097 17.2831 148.024 17.1874C147.957 17.0861 147.858 17.0354 147.729 17.0354ZM151.701 19.9659L153.331 16.8496H154.117L153.568 20.1348C153.562 20.163 153.557 20.1996 153.551 20.2446C153.545 20.2897 153.543 20.3263 153.543 20.3544C153.543 20.5233 153.619 20.6078 153.771 20.6078C153.883 20.6078 153.982 20.5712 154.066 20.498C154.151 20.4192 154.252 20.3066 154.37 20.1602L154.294 20.5487C154.187 20.7232 154.072 20.8611 153.948 20.9625C153.824 21.0638 153.664 21.1145 153.467 21.1145C153.23 21.1145 153.07 21.0526 152.985 20.9287C152.901 20.7992 152.859 20.6444 152.859 20.4642C152.859 20.4023 152.861 20.3432 152.867 20.2869C152.873 20.2306 152.881 20.1714 152.892 20.1095L153.331 17.5083L151.465 21.0723H151.229L150.57 17.4577L150.401 18.5893C150.362 18.8709 150.319 19.1636 150.274 19.4677C150.229 19.7661 150.167 20.0419 150.088 20.2953C150.01 20.543 149.908 20.7485 149.784 20.9118C149.661 21.0751 149.503 21.1567 149.311 21.1567C149.165 21.1567 149.055 21.1145 148.982 21.03C148.915 20.9456 148.867 20.8499 148.839 20.7429L148.906 20.3122C148.968 20.3854 149.03 20.4361 149.092 20.4642C149.159 20.4924 149.233 20.5064 149.311 20.5064C149.525 20.5064 149.689 20.3572 149.801 20.0588C149.914 19.7604 150.01 19.3213 150.088 18.7414L150.232 17.6688C150.238 17.6407 150.24 17.6069 150.24 17.5675C150.246 17.5281 150.249 17.4971 150.249 17.4746C150.249 17.362 150.212 17.2691 150.139 17.1959C150.066 17.1227 149.936 17.0861 149.751 17.0861L149.793 16.8496H151.153L151.701 19.9659ZM157.482 18.0911C157.555 17.9391 157.611 17.8096 157.65 17.7026C157.69 17.5956 157.71 17.5027 157.71 17.4239C157.71 17.3338 157.679 17.2494 157.617 17.1705C157.555 17.0917 157.425 17.0523 157.228 17.0523L157.27 16.8496H158.377L158.334 17.0523L155.978 21.8746C155.911 22.0097 155.84 22.142 155.767 22.2715C155.7 22.4066 155.626 22.5249 155.548 22.6262C155.469 22.7275 155.384 22.8092 155.294 22.8711C155.204 22.933 155.108 22.964 155.007 22.964C154.855 22.964 154.74 22.919 154.661 22.8289C154.588 22.7444 154.537 22.6459 154.509 22.5333L154.568 22.1364C154.63 22.2096 154.7 22.2659 154.779 22.3053C154.863 22.3447 154.962 22.3644 155.075 22.3644C155.204 22.3644 155.32 22.3053 155.421 22.187C155.528 22.0744 155.646 21.8886 155.776 21.6297L156.08 21.0047L155.336 17.7955C155.303 17.6435 155.263 17.5393 155.218 17.483C155.179 17.4211 155.122 17.3901 155.049 17.3901C154.937 17.3901 154.835 17.4436 154.745 17.5506C154.655 17.6519 154.579 17.7504 154.517 17.8462L154.593 17.407C154.655 17.2437 154.756 17.1002 154.897 16.9763C155.038 16.8468 155.207 16.7821 155.404 16.7821C155.517 16.7821 155.607 16.8074 155.674 16.8581C155.747 16.9031 155.804 16.965 155.843 17.0439C155.888 17.1227 155.922 17.2099 155.944 17.3057C155.973 17.4014 155.998 17.4971 156.02 17.5928L156.561 19.9575L157.482 18.0911ZM158.934 20.6838C158.934 20.5205 158.985 20.3826 159.086 20.27C159.193 20.1574 159.314 20.1011 159.449 20.1011C159.579 20.1011 159.686 20.1489 159.77 20.2446C159.855 20.3347 159.897 20.4473 159.897 20.5824C159.897 20.7401 159.841 20.8752 159.728 20.9878C159.621 21.0948 159.503 21.1483 159.373 21.1483C159.244 21.1483 159.137 21.1032 159.052 21.0131C158.974 20.9231 158.934 20.8133 158.934 20.6838ZM160.218 14.7805C160.64 14.7805 160.969 14.8931 161.206 15.1183C161.448 15.3435 161.569 15.6419 161.569 16.0135C161.569 16.2669 161.521 16.4893 161.426 16.6807C161.335 16.8665 161.217 17.0382 161.071 17.1959C160.93 17.3535 160.778 17.5027 160.615 17.6435C160.452 17.7842 160.297 17.9306 160.15 18.0826C160.01 18.229 159.891 18.3895 159.796 18.564C159.706 18.7385 159.66 18.9384 159.66 19.1636C159.66 19.1918 159.66 19.2256 159.66 19.265C159.66 19.3044 159.663 19.341 159.669 19.3748H159.432C159.41 19.2678 159.399 19.1608 159.399 19.0538C159.399 18.823 159.432 18.6147 159.5 18.4289C159.573 18.2431 159.663 18.0742 159.77 17.9222C159.877 17.7645 159.993 17.6181 160.117 17.483C160.24 17.3479 160.356 17.2128 160.463 17.0776C160.57 16.9369 160.657 16.7933 160.725 16.6469C160.798 16.5005 160.834 16.3373 160.834 16.1571C160.834 15.9657 160.761 15.7968 160.615 15.6504C160.474 15.4984 160.271 15.4224 160.007 15.4224C159.703 15.4224 159.447 15.504 159.238 15.6673C159.036 15.8305 158.869 16.0276 158.74 16.2584L158.799 15.8277C158.85 15.687 158.917 15.5519 159.002 15.4224C159.092 15.2929 159.196 15.1831 159.314 15.093C159.438 14.9973 159.573 14.9213 159.72 14.865C159.872 14.8087 160.038 14.7805 160.218 14.7805Z" fill="#104A99"/>
<rect x="16.5527" y="236.807" width="24.3225" height="18.5797" rx="3.37812" fill="white"/>
<path d="M20.8657 245.819C20.8713 245.791 20.8741 245.765 20.8741 245.743C20.8798 245.715 20.8826 245.692 20.8826 245.675C20.8826 245.574 20.846 245.501 20.7728 245.456C20.6996 245.405 20.5729 245.38 20.3927 245.38L20.4265 245.169L21.5413 244.789H21.7187L21.3808 246.815H21.6764C21.789 246.815 21.8791 246.796 21.9467 246.756C22.0142 246.711 22.0846 246.635 22.1578 246.528L22.749 245.642C22.8447 245.495 22.9292 245.371 23.0023 245.27C23.0755 245.163 23.1431 245.079 23.205 245.017C23.267 244.949 23.3289 244.901 23.3908 244.873C23.4528 244.845 23.5231 244.831 23.602 244.831C23.7202 244.831 23.8103 244.879 23.8722 244.974C23.9398 245.064 23.9679 245.186 23.9567 245.338L23.8891 245.718C23.8497 245.644 23.7962 245.585 23.7286 245.54C23.6611 245.495 23.5794 245.473 23.4837 245.473C23.3599 245.473 23.2585 245.506 23.1797 245.574C23.1065 245.642 23.0277 245.74 22.9432 245.87L22.4112 246.655L23.0868 248.251C23.1262 248.347 23.1684 248.42 23.2135 248.471C23.2642 248.521 23.3373 248.547 23.4331 248.547C23.5344 248.547 23.6132 248.513 23.6695 248.445C23.7315 248.378 23.7934 248.302 23.8553 248.217L23.7878 248.597C23.7258 248.733 23.647 248.856 23.5513 248.969C23.4556 249.082 23.3176 249.138 23.1375 249.138C22.9573 249.138 22.8109 249.076 22.6983 248.952C22.5913 248.828 22.4928 248.665 22.4027 248.462L21.8116 247.094H21.3302L20.9924 249.096H20.2914L20.8657 245.819ZM27.0131 249.096L26.7259 248.361C26.6753 248.462 26.6105 248.564 26.5317 248.665C26.4529 248.761 26.3628 248.848 26.2614 248.927C26.1657 249 26.0559 249.059 25.9321 249.104C25.8138 249.155 25.6872 249.18 25.552 249.18C25.096 249.18 24.761 249.034 24.547 248.741C24.3331 248.448 24.2261 248.048 24.2261 247.542C24.2261 247.204 24.2712 246.872 24.3612 246.545C24.457 246.213 24.5893 245.917 24.7582 245.658C24.9271 245.399 25.127 245.191 25.3578 245.034C25.5886 244.87 25.8448 244.789 26.1263 244.789C26.2783 244.789 26.4106 244.811 26.5232 244.856C26.6415 244.901 26.74 244.96 26.8188 245.034C26.8977 245.101 26.9596 245.18 27.0046 245.27C27.0497 245.36 27.0835 245.447 27.106 245.532L27.7225 244.873H27.9083L27.1989 249.096H27.0131ZM26.2446 245.211C26.07 245.211 25.9067 245.278 25.7547 245.414C25.6027 245.549 25.4704 245.732 25.3578 245.962C25.2508 246.193 25.1664 246.461 25.1044 246.765C25.0425 247.063 25.0115 247.378 25.0115 247.711C25.0115 248.037 25.0735 248.296 25.1973 248.488C25.3268 248.679 25.5154 248.775 25.7632 248.775C25.887 248.775 26.0025 248.741 26.1094 248.673C26.222 248.6 26.3234 248.507 26.4135 248.395C26.5035 248.277 26.5767 248.144 26.633 247.998C26.695 247.851 26.74 247.699 26.7682 247.542L26.9455 246.495C26.9568 246.438 26.9624 246.376 26.9624 246.309C26.968 246.236 26.9708 246.174 26.9708 246.123C26.9708 245.836 26.9089 245.613 26.7851 245.456C26.6612 245.293 26.481 245.211 26.2446 245.211ZM29.0434 245.819C29.0491 245.791 29.0519 245.765 29.0519 245.743C29.0575 245.715 29.0603 245.692 29.0603 245.675C29.0603 245.574 29.0237 245.501 28.9505 245.456C28.8774 245.405 28.7507 245.38 28.5705 245.38L28.6043 245.169L29.7191 244.789H29.8964L29.5586 246.815H29.8542C29.9668 246.815 30.0569 246.796 30.1244 246.756C30.192 246.711 30.2624 246.635 30.3356 246.528L30.9267 245.642C31.0225 245.495 31.1069 245.371 31.1801 245.27C31.2533 245.163 31.3209 245.079 31.3828 245.017C31.4447 244.949 31.5067 244.901 31.5686 244.873C31.6305 244.845 31.7009 244.831 31.7797 244.831C31.898 244.831 31.988 244.879 32.05 244.974C32.1175 245.064 32.1457 245.186 32.1344 245.338L32.0669 245.718C32.0275 245.644 31.974 245.585 31.9064 245.54C31.8388 245.495 31.7572 245.473 31.6615 245.473C31.5376 245.473 31.4363 245.506 31.3575 245.574C31.2843 245.642 31.2054 245.74 31.121 245.87L30.5889 246.655L31.2646 248.251C31.304 248.347 31.3462 248.42 31.3912 248.471C31.4419 248.521 31.5151 248.547 31.6108 248.547C31.7122 248.547 31.791 248.513 31.8473 248.445C31.9092 248.378 31.9711 248.302 32.0331 248.217L31.9655 248.597C31.9036 248.733 31.8248 248.856 31.729 248.969C31.6333 249.082 31.4954 249.138 31.3152 249.138C31.1351 249.138 30.9887 249.076 30.8761 248.952C30.7691 248.828 30.6706 248.665 30.5805 248.462L29.9893 247.094H29.5079L29.1701 249.096H28.4692L29.0434 245.819ZM33.1093 248.707C33.1093 248.544 33.16 248.406 33.2613 248.293C33.3683 248.181 33.4894 248.124 33.6245 248.124C33.754 248.124 33.861 248.172 33.9454 248.268C34.0299 248.358 34.0721 248.471 34.0721 248.606C34.0721 248.764 34.0158 248.899 33.9032 249.011C33.7962 249.118 33.678 249.172 33.5485 249.172C33.419 249.172 33.312 249.127 33.2276 249.037C33.1487 248.947 33.1093 248.837 33.1093 248.707ZM34.393 242.804C34.8153 242.804 35.1446 242.917 35.3811 243.142C35.6232 243.367 35.7443 243.665 35.7443 244.037C35.7443 244.29 35.6964 244.513 35.6007 244.704C35.5106 244.89 35.3924 245.062 35.246 245.219C35.1052 245.377 34.9532 245.526 34.7899 245.667C34.6267 245.808 34.4718 245.954 34.3255 246.106C34.1847 246.252 34.0665 246.413 33.9707 246.587C33.8807 246.762 33.8356 246.962 33.8356 247.187C33.8356 247.215 33.8356 247.249 33.8356 247.288C33.8356 247.328 33.8384 247.364 33.8441 247.398H33.6076C33.5851 247.291 33.5738 247.184 33.5738 247.077C33.5738 246.846 33.6076 246.638 33.6752 246.452C33.7484 246.267 33.8384 246.098 33.9454 245.946C34.0524 245.788 34.1678 245.642 34.2917 245.506C34.4155 245.371 34.531 245.236 34.6379 245.101C34.7449 244.96 34.8322 244.817 34.8997 244.67C34.9729 244.524 35.0095 244.361 35.0095 244.181C35.0095 243.989 34.9363 243.82 34.7899 243.674C34.6492 243.522 34.4465 243.446 34.1819 243.446C33.8779 243.446 33.6217 243.527 33.4134 243.691C33.2107 243.854 33.0446 244.051 32.9151 244.282L32.9742 243.851C33.0249 243.71 33.0924 243.575 33.1769 243.446C33.267 243.316 33.3711 243.207 33.4894 243.116C33.6132 243.021 33.7484 242.945 33.8947 242.888C34.0468 242.832 34.2128 242.804 34.393 242.804Z" fill="#104A99"/>
</svg>
