<svg width="237" height="279" viewBox="0 0 237 279" fill="none" xmlns="http://www.w3.org/2000/svg">
<rect x="0.90854" y="0.90854" width="234.858" height="277.105" rx="3.37828" fill="white" stroke="#ADBFFD" stroke-width="1.81708"/>
<mask id="mask0_1910_3020" style="mask-type:alpha" maskUnits="userSpaceOnUse" x="0" y="0" width="237" height="279">
<path d="M3.98758e-07 4.28686C1.78531e-07 1.91931 1.91927 1.95937e-05 4.28682 1.95548e-05L232.388 1.58077e-05C234.755 1.57689e-05 236.675 1.91929 236.675 4.28684L236.675 274.635C236.675 277.003 234.755 278.922 232.388 278.922L4.28683 278.921C1.9193 278.921 2.57664e-05 277.002 2.55462e-05 274.634L3.98758e-07 4.28686Z" fill="#D9D9D9"/>
</mask>
<g mask="url(#mask0_1910_3020)">
<path d="M-99.4844 -105.867L885.483 835.988" stroke="#ADBFFD" stroke-width="0.857364"/>
<path d="M-536.947 194.4L448.02 1136.26" stroke="#ADBFFD" stroke-width="0.857364"/>
<path d="M193.605 -482.512L1178.57 459.343" stroke="#ADBFFD" stroke-width="0.857364"/>
<path d="M-243.855 -182.244L741.112 759.611" stroke="#ADBFFD" stroke-width="0.857364"/>
<path d="M47.0605 -294.189L1032.03 647.666" stroke="#ADBFFD" stroke-width="0.857364"/>
<path d="M-390.4 6.07812L594.567 947.933" stroke="#ADBFFD" stroke-width="0.857364"/>
<path d="M-62.8477 -152.947L922.12 788.908" stroke="#ADBFFD" stroke-width="0.857364"/>
<path d="M-500.311 147.318L484.657 1089.17" stroke="#ADBFFD" stroke-width="0.857364"/>
<path d="M83.6973 -341.271L1068.66 600.584" stroke="#ADBFFD" stroke-width="0.857364"/>
<path d="M-353.764 -41.0039L631.204 900.851" stroke="#ADBFFD" stroke-width="0.857364"/>
<path d="M-26.2109 -200.027L958.757 741.828" stroke="#ADBFFD" stroke-width="0.857364"/>
<path d="M-463.674 100.238L521.294 1042.09" stroke="#ADBFFD" stroke-width="0.857364"/>
<path d="M120.334 -388.352L1105.3 553.503" stroke="#ADBFFD" stroke-width="0.857364"/>
<path d="M-317.129 -88.084L667.839 853.771" stroke="#ADBFFD" stroke-width="0.857364"/>
<path d="M10.4258 -247.109L995.393 694.746" stroke="#ADBFFD" stroke-width="0.857364"/>
<path d="M-427.037 53.1582L557.931 995.013" stroke="#ADBFFD" stroke-width="0.857364"/>
<path d="M156.971 -435.432L1141.94 506.423" stroke="#ADBFFD" stroke-width="0.857364"/>
<path d="M-280.492 -135.166L704.476 806.689" stroke="#ADBFFD" stroke-width="0.857364"/>
<path d="M-90.3262 -117.637L894.642 824.218" stroke="#ADBFFD" stroke-width="0.857364"/>
<path d="M-527.789 182.629L457.179 1124.48" stroke="#ADBFFD" stroke-width="0.857364"/>
<path d="M202.766 -494.283L1187.73 447.572" stroke="#ADBFFD" stroke-width="0.857364"/>
<path d="M-234.695 -194.016L750.272 747.839" stroke="#ADBFFD" stroke-width="0.857364"/>
<path d="M56.2207 -305.961L1041.19 635.894" stroke="#ADBFFD" stroke-width="0.857364"/>
<path d="M-381.242 -5.69336L603.726 936.162" stroke="#ADBFFD" stroke-width="0.857364"/>
<path d="M-53.6895 -164.719L931.278 777.136" stroke="#ADBFFD" stroke-width="0.857364"/>
<path d="M-491.152 135.549L493.815 1077.4" stroke="#ADBFFD" stroke-width="0.857364"/>
<path d="M92.8574 -353.041L1077.83 588.814" stroke="#ADBFFD" stroke-width="0.857364"/>
<path d="M-344.605 -52.7734L640.362 889.082" stroke="#ADBFFD" stroke-width="0.857364"/>
<path d="M-17.0527 -211.799L967.915 730.056" stroke="#ADBFFD" stroke-width="0.857364"/>
<path d="M-454.516 88.4688L530.452 1030.32" stroke="#ADBFFD" stroke-width="0.857364"/>
<path d="M129.492 -400.121L1114.46 541.734" stroke="#ADBFFD" stroke-width="0.857364"/>
<path d="M-307.969 -99.8535L676.999 842.002" stroke="#ADBFFD" stroke-width="0.857364"/>
<path d="M19.584 -258.879L1004.55 682.976" stroke="#ADBFFD" stroke-width="0.857364"/>
<path d="M-417.879 41.3887L567.089 983.244" stroke="#ADBFFD" stroke-width="0.857364"/>
<path d="M166.129 -447.201L1151.1 494.654" stroke="#ADBFFD" stroke-width="0.857364"/>
<path d="M-271.332 -146.934L713.636 794.921" stroke="#ADBFFD" stroke-width="0.857364"/>
<path d="M-81.166 -129.408L903.802 812.447" stroke="#ADBFFD" stroke-width="0.857364"/>
<path d="M-518.629 170.859L466.339 1112.71" stroke="#ADBFFD" stroke-width="0.857364"/>
<path d="M211.924 -506.053L1196.89 435.802" stroke="#ADBFFD" stroke-width="0.857364"/>
<path d="M-225.537 -205.785L759.431 736.07" stroke="#ADBFFD" stroke-width="0.857364"/>
<path d="M65.3789 -317.73L1050.35 624.125" stroke="#ADBFFD" stroke-width="0.857364"/>
<path d="M-372.082 -17.4629L612.886 924.392" stroke="#ADBFFD" stroke-width="0.857364"/>
<path d="M-44.5293 -176.488L940.438 765.367" stroke="#ADBFFD" stroke-width="0.857364"/>
<path d="M-481.992 123.779L502.976 1065.63" stroke="#ADBFFD" stroke-width="0.857364"/>
<path d="M102.016 -364.811L1086.98 577.045" stroke="#ADBFFD" stroke-width="0.857364"/>
<path d="M-335.447 -64.543L649.52 877.312" stroke="#ADBFFD" stroke-width="0.857364"/>
<path d="M-7.89453 -223.57L977.073 718.285" stroke="#ADBFFD" stroke-width="0.857364"/>
<path d="M-445.357 76.6973L539.61 1018.55" stroke="#ADBFFD" stroke-width="0.857364"/>
<path d="M138.652 -411.893L1123.62 529.962" stroke="#ADBFFD" stroke-width="0.857364"/>
<path d="M-298.811 -111.625L686.157 830.23" stroke="#ADBFFD" stroke-width="0.857364"/>
<path d="M28.7422 -270.65L1013.71 671.205" stroke="#ADBFFD" stroke-width="0.857364"/>
<path d="M-408.721 29.6172L576.247 971.472" stroke="#ADBFFD" stroke-width="0.857364"/>
<path d="M175.287 -458.973L1160.25 482.882" stroke="#ADBFFD" stroke-width="0.857364"/>
<path d="M-262.174 -158.705L722.794 783.15" stroke="#ADBFFD" stroke-width="0.857364"/>
<path d="M-72.0078 -141.178L912.96 800.677" stroke="#ADBFFD" stroke-width="0.857364"/>
<path d="M-509.469 159.09L475.499 1100.94" stroke="#ADBFFD" stroke-width="0.857364"/>
<path d="M74.5391 -329.5L1059.51 612.355" stroke="#ADBFFD" stroke-width="0.857364"/>
<path d="M-362.924 -29.2324L622.044 912.623" stroke="#ADBFFD" stroke-width="0.857364"/>
<path d="M-35.3711 -188.26L949.597 753.595" stroke="#ADBFFD" stroke-width="0.857364"/>
<path d="M-472.834 112.008L512.134 1053.86" stroke="#ADBFFD" stroke-width="0.857364"/>
<path d="M111.174 -376.582L1096.14 565.273" stroke="#ADBFFD" stroke-width="0.857364"/>
<path d="M-326.287 -76.3145L658.681 865.541" stroke="#ADBFFD" stroke-width="0.857364"/>
<path d="M1.26562 -235.338L986.233 706.517" stroke="#ADBFFD" stroke-width="0.857364"/>
<path d="M-436.197 64.9277L548.77 1006.78" stroke="#ADBFFD" stroke-width="0.857364"/>
<path d="M147.811 -423.662L1132.78 518.193" stroke="#ADBFFD" stroke-width="0.857364"/>
<path d="M-289.65 -123.395L695.317 818.461" stroke="#ADBFFD" stroke-width="0.857364"/>
<path d="M37.9004 -282.42L1022.87 659.435" stroke="#ADBFFD" stroke-width="0.857364"/>
<path d="M-399.561 17.8477L585.407 959.703" stroke="#ADBFFD" stroke-width="0.857364"/>
<path d="M184.447 -470.742L1169.41 471.113" stroke="#ADBFFD" stroke-width="0.857364"/>
<path d="M-253.014 -170.477L731.954 771.378" stroke="#ADBFFD" stroke-width="0.857364"/>
</g>
<circle cx="118.763" cy="87.4219" r="48.8301" transform="rotate(-32.4204 118.763 87.4219)" fill="#ADBFFD" stroke="#ADBFFD" stroke-width="1.36281"/>
<path d="M92.6432 83.3796C92.31 83.3796 92.0261 83.4099 91.7914 83.4705C91.5643 83.531 91.3636 83.637 91.1895 83.7885C91.0229 83.9323 90.8753 84.1292 90.7466 84.379C90.6179 84.6289 90.493 84.9393 90.3718 85.3103H90.0879L90.4513 82.9594H96.5045L96.1183 85.3103H95.8117C95.8117 84.9393 95.789 84.6289 95.7436 84.379C95.7057 84.1292 95.6262 83.9323 95.5051 83.7885C95.3839 83.637 95.2174 83.531 95.0054 83.4705C94.801 83.4099 94.5284 83.3796 94.1877 83.3796H93.9151L92.8135 90.1255C92.806 90.1634 92.7984 90.2164 92.7908 90.2845C92.7832 90.3527 92.7795 90.4095 92.7795 90.4549C92.7795 90.629 92.8325 90.7691 92.9385 90.8751C93.052 90.9811 93.2451 91.0341 93.5176 91.0341L93.4722 91.3066H90.7466L90.792 91.0341C91.11 91.0341 91.3409 90.9659 91.4848 90.8297C91.6286 90.6858 91.7195 90.5041 91.7574 90.2845L92.893 83.3796H92.6432ZM97.9383 85.5147C98.2714 85.5147 98.5667 85.5753 98.8241 85.6964C99.0815 85.8175 99.2935 85.9841 99.4601 86.1961C99.6342 86.4081 99.7629 86.6579 99.8462 86.9456C99.9371 87.2334 99.9825 87.54 99.9825 87.8655C99.9825 88.3577 99.9181 88.8195 99.7894 89.2511C99.6607 89.6826 99.479 90.0612 99.2443 90.3867C99.0096 90.7047 98.7295 90.9584 98.4039 91.1476C98.0783 91.3294 97.7187 91.4202 97.325 91.4202C97.0146 91.4202 96.7307 91.3634 96.4732 91.2499C96.2234 91.1363 96.0114 90.9773 95.8373 90.7729C95.6631 90.5685 95.5268 90.3262 95.4284 90.046C95.3376 89.7583 95.2921 89.4403 95.2921 89.0921C95.2921 88.5469 95.3565 88.0548 95.4852 87.6157C95.6215 87.1766 95.807 86.8018 96.0417 86.4914C96.2764 86.181 96.5527 85.9425 96.8707 85.7759C97.1963 85.6018 97.5521 85.5147 97.9383 85.5147ZM97.3136 91.0568C97.6241 91.0568 97.8853 90.9319 98.0973 90.682C98.3093 90.4246 98.4796 90.1142 98.6083 89.7508C98.737 89.3873 98.8279 89.0088 98.8809 88.6151C98.9414 88.2138 98.9717 87.8731 98.9717 87.593C98.9717 86.9797 98.8809 86.5444 98.6992 86.287C98.5175 86.022 98.2714 85.8895 97.961 85.8895C97.749 85.8895 97.5597 85.95 97.3931 86.0712C97.2341 86.1847 97.0903 86.34 96.9616 86.5368C96.8404 86.7337 96.7382 86.957 96.655 87.2069C96.5717 87.4491 96.5035 87.699 96.4505 87.9564C96.3975 88.2138 96.3597 88.4675 96.337 88.7173C96.3142 88.9596 96.3029 89.1754 96.3029 89.3646C96.3029 89.9779 96.3937 90.4132 96.5755 90.6707C96.7647 90.9281 97.0108 91.0568 97.3136 91.0568ZM101.128 86.9002C101.136 86.8624 101.14 86.8283 101.14 86.798C101.147 86.7602 101.151 86.7299 101.151 86.7072C101.151 86.5709 101.102 86.4724 101.003 86.4119C100.905 86.3437 100.734 86.3097 100.492 86.3097L100.538 86.0257L102.048 85.5147H102.275L101.98 87.3658C101.965 87.4416 101.953 87.5248 101.946 87.6157C101.946 87.7065 101.946 87.7747 101.946 87.8201C101.946 88.0473 102.003 88.2365 102.116 88.388C102.23 88.5318 102.442 88.6037 102.752 88.6037C102.949 88.6037 103.131 88.581 103.297 88.5356C103.464 88.4826 103.649 88.4031 103.854 88.2971L104.308 85.6283H105.228L104.49 90.046C104.482 90.0839 104.475 90.1331 104.467 90.1937C104.459 90.2542 104.456 90.3035 104.456 90.3413C104.456 90.5685 104.558 90.682 104.762 90.682C104.914 90.682 105.046 90.6328 105.16 90.5344C105.273 90.4284 105.41 90.277 105.569 90.0801L105.466 90.6025C105.323 90.8372 105.167 91.0227 105.001 91.159C104.834 91.2953 104.618 91.3634 104.353 91.3634C104.036 91.3634 103.82 91.2801 103.706 91.1136C103.593 90.9394 103.536 90.7312 103.536 90.489C103.536 90.4662 103.547 90.364 103.57 90.1823C103.6 90.0006 103.63 89.8038 103.661 89.5918C103.691 89.3722 103.718 89.1754 103.74 89.0012C103.771 88.8195 103.786 88.7173 103.786 88.6946C103.589 88.8157 103.384 88.9179 103.172 89.0012C102.96 89.0769 102.688 89.1148 102.355 89.1148C101.969 89.1148 101.647 89.0088 101.389 88.7968C101.132 88.5848 101.003 88.2592 101.003 87.8201C101.003 87.7444 101.007 87.6611 101.015 87.5703C101.022 87.4718 101.034 87.3886 101.049 87.3204L101.128 86.9002ZM106.975 86.9002C106.982 86.8624 106.986 86.8283 106.986 86.798C106.994 86.7602 106.997 86.7299 106.997 86.7072C106.997 86.5709 106.948 86.4724 106.85 86.4119C106.751 86.3437 106.581 86.3097 106.339 86.3097L106.384 86.0257L107.883 85.5147H108.122L107.668 88.2403H108.065C108.216 88.2403 108.338 88.2138 108.428 88.1608C108.519 88.1003 108.614 87.998 108.712 87.8542L109.507 86.6617C109.636 86.4649 109.75 86.2983 109.848 86.162C109.946 86.0182 110.037 85.9046 110.121 85.8213C110.204 85.7305 110.287 85.6661 110.37 85.6283C110.454 85.5904 110.548 85.5715 110.654 85.5715C110.813 85.5715 110.935 85.6358 111.018 85.7645C111.109 85.8857 111.146 86.0485 111.131 86.2529L111.04 86.7639C110.987 86.6655 110.916 86.586 110.825 86.5254C110.734 86.4649 110.624 86.4346 110.495 86.4346C110.329 86.4346 110.193 86.48 110.087 86.5709C109.988 86.6617 109.882 86.7942 109.769 86.9684L109.053 88.0245L109.962 90.171C110.015 90.2997 110.071 90.3981 110.132 90.4662C110.2 90.5344 110.299 90.5685 110.427 90.5685C110.564 90.5685 110.67 90.523 110.745 90.4322C110.829 90.3413 110.912 90.2391 110.995 90.1255L110.904 90.6366C110.821 90.8183 110.715 90.9849 110.586 91.1363C110.458 91.2877 110.272 91.3634 110.03 91.3634C109.787 91.3634 109.591 91.2801 109.439 91.1136C109.295 90.947 109.163 90.7274 109.042 90.4549L108.247 88.6151H107.599L107.145 91.3066H106.203L106.975 86.9002ZM115.241 91.3066L114.855 90.3186C114.787 90.4549 114.7 90.5912 114.594 90.7274C114.488 90.8562 114.367 90.9735 114.231 91.0795C114.102 91.1779 113.954 91.2574 113.788 91.318C113.629 91.3861 113.458 91.4202 113.277 91.4202C112.663 91.4202 112.213 91.2234 111.925 90.8297C111.638 90.436 111.494 89.8984 111.494 89.217C111.494 88.7627 111.554 88.316 111.675 87.8769C111.804 87.4302 111.982 87.0327 112.209 86.6844C112.436 86.3362 112.705 86.056 113.016 85.844C113.326 85.6245 113.67 85.5147 114.049 85.5147C114.253 85.5147 114.431 85.545 114.583 85.6056C114.742 85.6661 114.874 85.7456 114.98 85.844C115.086 85.9349 115.17 86.0409 115.23 86.162C115.291 86.2832 115.336 86.4005 115.366 86.5141L116.195 85.6283H116.445L115.491 91.3066H115.241ZM114.208 86.0825C113.973 86.0825 113.754 86.1734 113.549 86.3551C113.345 86.5368 113.167 86.7829 113.016 87.0933C112.872 87.4037 112.758 87.7633 112.675 88.1722C112.592 88.5734 112.55 88.9974 112.55 89.4441C112.55 89.8833 112.633 90.2315 112.8 90.489C112.974 90.7464 113.227 90.8751 113.561 90.8751C113.727 90.8751 113.882 90.8297 114.026 90.7388C114.178 90.6404 114.314 90.5155 114.435 90.364C114.556 90.205 114.655 90.0271 114.73 89.8303C114.814 89.6334 114.874 89.429 114.912 89.217L115.151 87.8088C115.166 87.733 115.173 87.6498 115.173 87.5589C115.181 87.4605 115.185 87.3772 115.185 87.3091C115.185 86.9229 115.101 86.6239 114.935 86.4119C114.768 86.1923 114.526 86.0825 114.208 86.0825ZM122.535 88.2403C122.649 88.263 122.763 88.3009 122.876 88.3539C122.997 88.4069 123.103 88.4826 123.194 88.581C123.293 88.6719 123.372 88.7854 123.433 88.9217C123.501 89.0504 123.535 89.2019 123.535 89.376C123.535 89.7394 123.463 90.0498 123.319 90.3072C123.175 90.5647 122.99 90.7767 122.763 90.9432C122.535 91.1098 122.286 91.2309 122.013 91.3066C121.74 91.3824 121.475 91.4202 121.218 91.4202C120.93 91.4202 120.662 91.3786 120.412 91.2953C120.169 91.212 119.957 91.0833 119.776 90.9092C119.602 90.735 119.462 90.5192 119.356 90.2618C119.257 90.0044 119.208 89.6978 119.208 89.3419C119.208 88.7059 119.295 88.1495 119.469 87.6725C119.643 87.1955 119.87 86.798 120.15 86.48C120.438 86.162 120.76 85.9235 121.116 85.7645C121.479 85.598 121.846 85.5147 122.217 85.5147C122.694 85.5147 123.058 85.6169 123.308 85.8213C123.565 86.0182 123.694 86.2983 123.694 86.6617C123.694 86.8813 123.652 87.0781 123.569 87.2523C123.493 87.4188 123.395 87.5703 123.274 87.7065C123.16 87.8353 123.035 87.945 122.899 88.0359C122.77 88.1192 122.649 88.1873 122.535 88.2403ZM122.115 85.9008C121.918 85.9008 121.729 85.9614 121.547 86.0825C121.366 86.2037 121.199 86.3702 121.048 86.5822C120.904 86.7942 120.775 87.0441 120.662 87.3318C120.556 87.6195 120.476 87.9261 120.423 88.2517C120.665 88.229 120.923 88.1949 121.195 88.1495C121.468 88.0965 121.721 88.0132 121.956 87.8996C122.191 87.786 122.384 87.6271 122.535 87.4226C122.687 87.2182 122.763 86.9419 122.763 86.5936C122.763 86.3967 122.706 86.234 122.592 86.1052C122.486 85.969 122.327 85.9008 122.115 85.9008ZM121.354 91.0568C121.506 91.0568 121.653 91.0303 121.797 90.9773C121.941 90.9167 122.066 90.8297 122.172 90.7161C122.286 90.595 122.373 90.4435 122.433 90.2618C122.501 90.0801 122.535 89.8681 122.535 89.6258C122.535 89.2776 122.463 89.0088 122.32 88.8195C122.176 88.6227 121.926 88.5242 121.57 88.5242C121.328 88.5242 121.093 88.5432 120.866 88.581C120.646 88.6113 120.472 88.6454 120.344 88.6832C120.328 88.7968 120.313 88.9369 120.298 89.1034C120.283 89.2624 120.275 89.4176 120.275 89.5691C120.275 90.0612 120.37 90.4322 120.559 90.682C120.756 90.9319 121.021 91.0568 121.354 91.0568ZM124.784 86.287C124.868 86.1052 124.993 85.9349 125.159 85.7759C125.326 85.6169 125.53 85.5374 125.772 85.5374C125.901 85.5374 126.007 85.5677 126.09 85.6283C126.181 85.6888 126.257 85.7683 126.317 85.8668C126.378 85.9652 126.427 86.0712 126.465 86.1847C126.511 86.2983 126.556 86.4119 126.601 86.5254L127.033 87.6952L127.896 86.6958C127.957 86.6277 128.01 86.5482 128.055 86.4573C128.108 86.3665 128.135 86.2794 128.135 86.1961C128.135 86.128 128.108 86.0636 128.055 86.003C128.002 85.9349 127.873 85.9008 127.669 85.9008L127.737 85.6283H129.179L129.123 85.8895L127.181 88.1154L127.907 90.0915C127.976 90.2732 128.036 90.4019 128.089 90.4776C128.15 90.5533 128.229 90.5912 128.328 90.5912C128.403 90.5912 128.475 90.5685 128.543 90.523C128.612 90.4776 128.676 90.4208 128.736 90.3527C128.797 90.2845 128.85 90.2126 128.895 90.1369C128.948 90.0536 128.994 89.9779 129.032 89.9098L128.85 90.6934C128.767 90.8751 128.642 91.0454 128.475 91.2044C128.309 91.3634 128.104 91.4429 127.862 91.4429C127.741 91.4429 127.639 91.4126 127.555 91.3521C127.472 91.2991 127.4 91.2271 127.34 91.1363C127.279 91.0454 127.226 90.947 127.181 90.841C127.135 90.7274 127.094 90.6177 127.056 90.5117L126.476 88.9331L125.352 90.2277C125.223 90.3792 125.159 90.5306 125.159 90.682C125.159 90.9243 125.329 91.0454 125.67 91.0454L125.613 91.3066H124.069L124.126 91.0454L126.317 88.5129L125.727 86.8889C125.659 86.6996 125.594 86.5709 125.534 86.5027C125.481 86.427 125.405 86.3892 125.307 86.3892C125.231 86.3892 125.159 86.4119 125.091 86.4573C125.023 86.5027 124.958 86.5595 124.898 86.6277C124.837 86.6958 124.781 86.7715 124.728 86.8548C124.682 86.9305 124.64 87.0024 124.603 87.0706L124.784 86.287ZM132.197 85.5147C132.53 85.5147 132.825 85.5753 133.082 85.6964C133.34 85.8175 133.552 85.9841 133.718 86.1961C133.893 86.4081 134.021 86.6579 134.105 86.9456C134.195 87.2334 134.241 87.54 134.241 87.8655C134.241 88.3577 134.176 88.8195 134.048 89.2511C133.919 89.6826 133.737 90.0612 133.503 90.3867C133.268 90.7047 132.988 90.9584 132.662 91.1476C132.337 91.3294 131.977 91.4202 131.583 91.4202C131.273 91.4202 130.989 91.3634 130.732 91.2499C130.482 91.1363 130.27 90.9773 130.096 90.7729C129.921 90.5685 129.785 90.3262 129.687 90.046C129.596 89.7583 129.55 89.4403 129.55 89.0921C129.55 88.5469 129.615 88.0548 129.744 87.6157C129.88 87.1766 130.065 86.8018 130.3 86.4914C130.535 86.181 130.811 85.9425 131.129 85.7759C131.455 85.6018 131.81 85.5147 132.197 85.5147ZM131.572 91.0568C131.882 91.0568 132.144 90.9319 132.356 90.682C132.568 90.4246 132.738 90.1142 132.867 89.7508C132.995 89.3873 133.086 89.0088 133.139 88.6151C133.2 88.2138 133.23 87.8731 133.23 87.593C133.23 86.9797 133.139 86.5444 132.958 86.287C132.776 86.022 132.53 85.8895 132.219 85.8895C132.007 85.8895 131.818 85.95 131.651 86.0712C131.492 86.1847 131.349 86.34 131.22 86.5368C131.099 86.7337 130.997 86.957 130.913 87.2069C130.83 87.4491 130.762 87.699 130.709 87.9564C130.656 88.2138 130.618 88.4675 130.595 88.7173C130.573 88.9596 130.561 89.1754 130.561 89.3646C130.561 89.9779 130.652 90.4132 130.834 90.6707C131.023 90.9281 131.269 91.0568 131.572 91.0568ZM136.306 83.6863C136.352 83.5803 136.42 83.4781 136.511 83.3796C136.609 83.2812 136.719 83.1979 136.84 83.1298C136.961 83.0541 137.09 82.9935 137.226 82.9481C137.37 82.9026 137.514 82.8799 137.658 82.8799C138.324 82.8799 138.835 83.1638 139.191 83.7317C139.547 84.292 139.725 85.1702 139.725 86.3665C139.725 86.6239 139.71 86.9267 139.679 87.275C139.657 87.6233 139.607 87.9867 139.532 88.3652C139.456 88.7362 139.354 89.1034 139.225 89.4668C139.096 89.8303 138.926 90.1596 138.714 90.4549C138.51 90.7426 138.26 90.9773 137.965 91.159C137.669 91.3331 137.321 91.4202 136.92 91.4202C136.602 91.4202 136.318 91.3672 136.068 91.2612C135.826 91.1476 135.621 90.9887 135.455 90.7842C135.288 90.5798 135.159 90.3337 135.069 90.046C134.985 89.7583 134.944 89.4403 134.944 89.0921C134.944 88.5621 135.012 88.0813 135.148 87.6498C135.292 87.2106 135.481 86.8397 135.716 86.5368C135.958 86.2264 136.235 85.9879 136.545 85.8213C136.863 85.6548 137.2 85.5715 137.556 85.5715C137.843 85.5715 138.086 85.632 138.283 85.7532C138.487 85.8668 138.665 86.0257 138.816 86.2302C138.816 85.8516 138.79 85.4996 138.737 85.174C138.684 84.8409 138.6 84.5532 138.487 84.3109C138.373 84.0686 138.23 83.8793 138.055 83.743C137.881 83.6068 137.673 83.5386 137.431 83.5386C137.188 83.5386 136.961 83.5992 136.749 83.7203C136.537 83.8339 136.367 83.9664 136.238 84.1178L136.306 83.6863ZM136.931 91.0568C137.234 91.0568 137.491 90.9319 137.703 90.682C137.915 90.4246 138.086 90.118 138.214 89.7621C138.343 89.3987 138.434 89.0239 138.487 88.6378C138.547 88.2441 138.578 87.9072 138.578 87.6271C138.578 87.0289 138.487 86.6012 138.305 86.3437C138.124 86.0787 137.881 85.9463 137.578 85.9463C137.26 85.9463 136.995 86.075 136.783 86.3324C136.579 86.5822 136.412 86.8889 136.284 87.2523C136.155 87.6081 136.064 87.9829 136.011 88.3766C135.958 88.7703 135.932 89.1072 135.932 89.3873C135.932 89.993 136.023 90.4246 136.204 90.682C136.393 90.9319 136.636 91.0568 136.931 91.0568ZM144.162 91.3066L143.776 90.3186C143.708 90.4549 143.621 90.5912 143.515 90.7274C143.409 90.8562 143.288 90.9735 143.151 91.0795C143.023 91.1779 142.875 91.2574 142.708 91.318C142.549 91.3861 142.379 91.4202 142.197 91.4202C141.584 91.4202 141.134 91.2234 140.846 90.8297C140.558 90.436 140.414 89.8984 140.414 89.217C140.414 88.7627 140.475 88.316 140.596 87.8769C140.725 87.4302 140.903 87.0327 141.13 86.6844C141.357 86.3362 141.626 86.056 141.936 85.844C142.247 85.6245 142.591 85.5147 142.97 85.5147C143.174 85.5147 143.352 85.545 143.503 85.6056C143.662 85.6661 143.795 85.7456 143.901 85.844C144.007 85.9349 144.09 86.0409 144.151 86.162C144.211 86.2832 144.257 86.4005 144.287 86.5141L145.116 85.6283H145.366L144.412 91.3066H144.162ZM143.129 86.0825C142.894 86.0825 142.674 86.1734 142.47 86.3551C142.266 86.5368 142.088 86.7829 141.936 87.0933C141.792 87.4037 141.679 87.7633 141.595 88.1722C141.512 88.5734 141.471 88.9974 141.471 89.4441C141.471 89.8833 141.554 90.2315 141.72 90.489C141.895 90.7464 142.148 90.8751 142.481 90.8751C142.648 90.8751 142.803 90.8297 142.947 90.7388C143.098 90.6404 143.235 90.5155 143.356 90.364C143.477 90.205 143.575 90.0271 143.651 89.8303C143.734 89.6334 143.795 89.429 143.833 89.217L144.071 87.8088C144.086 87.733 144.094 87.6498 144.094 87.5589C144.102 87.4605 144.105 87.3772 144.105 87.3091C144.105 86.9229 144.022 86.6239 143.855 86.4119C143.689 86.1923 143.447 86.0825 143.129 86.0825Z" fill="white"/>
<path d="M118.477 111.299L118.477 168.991" stroke="#ADBFFD" stroke-width="0.857364"/>
<path d="M118.52 178.531L116.293 168.242L120.748 168.242L118.52 178.531Z" fill="#ADBFFD"/>
<rect x="216.459" y="179.211" width="60.8722" height="195.79" transform="rotate(90 216.459 179.211)" fill="white" stroke="#ADBFFD" stroke-width="1.36281"/>
<path d="M92.5762 205.622L92.5421 205.894C92.2014 205.894 91.944 205.996 91.7699 206.201C91.5957 206.398 91.4405 206.647 91.3043 206.95L88.1584 214.026H87.7496L87.0114 208.359L84.547 214.026H84.1381L83.1501 206.814C83.1274 206.67 83.1009 206.541 83.0706 206.428C83.0403 206.314 82.9949 206.22 82.9343 206.144C82.8738 206.061 82.7905 206 82.6845 205.962C82.586 205.917 82.4573 205.894 82.2983 205.894L82.3324 205.622H85.1262L85.0807 205.894C84.7628 205.894 84.5281 205.943 84.3766 206.042C84.2328 206.14 84.1609 206.322 84.1609 206.587C84.1609 206.647 84.1646 206.716 84.1722 206.791C84.1798 206.859 84.1911 206.928 84.2063 206.996L84.9218 212.095L86.9205 207.495L86.8524 206.814C86.8373 206.67 86.8145 206.541 86.7843 206.428C86.754 206.314 86.7048 206.22 86.6366 206.144C86.5761 206.061 86.489 206 86.3754 205.962C86.2694 205.917 86.1294 205.894 85.9552 205.894L86.0006 205.622H88.8058L88.7603 205.894C88.4423 205.894 88.2114 205.943 88.0676 206.042C87.9313 206.133 87.8632 206.299 87.8632 206.541C87.8632 206.67 87.8745 206.814 87.8972 206.973L88.5218 212.084L90.7137 207.211C90.7743 207.083 90.8386 206.935 90.9068 206.769C90.9749 206.602 91.009 206.443 91.009 206.292C91.009 206.17 90.956 206.076 90.85 206.008C90.744 205.932 90.5585 205.894 90.2935 205.894L90.3389 205.622H92.5762ZM95.0246 212.822C94.8731 213.208 94.646 213.514 94.3432 213.742C94.0479 213.969 93.6845 214.082 93.2529 214.082C92.9425 214.082 92.6586 214.026 92.4012 213.912C92.1513 213.798 91.9355 213.639 91.7538 213.435C91.5797 213.231 91.4434 212.988 91.345 212.708C91.2465 212.42 91.1973 212.106 91.1973 211.766C91.1973 211.342 91.2541 210.918 91.3677 210.494C91.4813 210.062 91.6554 209.676 91.8901 209.335C92.1248 208.994 92.4201 208.718 92.7759 208.506C93.1318 208.287 93.552 208.177 94.0365 208.177C94.4681 208.177 94.805 208.279 95.0473 208.483C95.2971 208.688 95.422 208.968 95.422 209.324C95.422 209.718 95.3085 210.047 95.0813 210.312C94.8542 210.569 94.5779 210.781 94.2523 210.948C93.9267 211.107 93.5823 211.228 93.2188 211.311C92.8554 211.395 92.5336 211.451 92.2535 211.482C92.2459 211.535 92.2422 211.588 92.2422 211.641C92.2422 211.686 92.2422 211.731 92.2422 211.777C92.2422 212.261 92.3519 212.644 92.5715 212.924C92.7986 213.196 93.1242 213.333 93.5482 213.333C93.8435 213.333 94.116 213.253 94.3659 213.094C94.6233 212.928 94.8694 212.678 95.1041 212.345L95.0246 212.822ZM93.8889 208.54C93.639 208.54 93.4157 208.631 93.2188 208.813C93.0296 208.994 92.8668 209.218 92.7305 209.483C92.5942 209.74 92.4882 210.017 92.4125 210.312C92.3368 210.6 92.2876 210.857 92.2649 211.084C92.492 211.061 92.7305 211.008 92.9803 210.925C93.2378 210.834 93.4725 210.717 93.6845 210.573C93.904 210.422 94.082 210.236 94.2182 210.017C94.3621 209.789 94.434 209.528 94.434 209.233C94.434 209.036 94.3848 208.873 94.2864 208.745C94.1955 208.608 94.063 208.54 93.8889 208.54ZM97.1051 206.916C97.1126 206.878 97.1164 206.844 97.1164 206.814C97.124 206.776 97.1278 206.746 97.1278 206.723C97.1278 206.458 96.9082 206.326 96.4691 206.326L96.5145 206.053L98.0023 205.542H98.2521L97.0596 212.708C97.0521 212.746 97.0445 212.795 97.0369 212.856C97.0294 212.916 97.0256 212.966 97.0256 213.003C97.0256 213.231 97.1278 213.344 97.3322 213.344C97.4836 213.344 97.6161 213.295 97.7297 213.196C97.8433 213.09 97.9795 212.939 98.1385 212.742L98.0363 213.265C97.8925 213.499 97.7373 213.685 97.5707 213.821C97.4041 213.957 97.1883 214.026 96.9234 214.026C96.6054 214.026 96.3896 213.942 96.276 213.776C96.1625 213.602 96.1057 213.393 96.1057 213.151C96.1057 213.068 96.1095 212.988 96.117 212.913C96.1246 212.837 96.136 212.757 96.1511 212.674L97.1051 206.916ZM102.29 210.573C102.298 210.497 102.301 210.418 102.301 210.335C102.309 210.244 102.313 210.153 102.313 210.062C102.313 209.88 102.298 209.702 102.267 209.528C102.245 209.347 102.199 209.184 102.131 209.04C102.063 208.888 101.972 208.767 101.858 208.677C101.745 208.586 101.601 208.54 101.427 208.54C101.26 208.54 101.079 208.601 100.882 208.722C100.693 208.835 100.515 209.017 100.348 209.267C100.189 209.509 100.057 209.824 99.9506 210.21C99.8446 210.596 99.7916 211.054 99.7916 211.584C99.7916 212.091 99.89 212.504 100.087 212.822C100.284 213.132 100.598 213.287 101.029 213.287C101.347 213.287 101.609 213.208 101.813 213.049C102.025 212.89 102.245 212.651 102.472 212.333L102.404 212.799C102.275 213.162 102.07 213.469 101.79 213.719C101.518 213.961 101.166 214.082 100.734 214.082C100.386 214.082 100.083 214.022 99.8256 213.901C99.5758 213.779 99.3676 213.617 99.201 213.412C99.0344 213.2 98.9095 212.954 98.8262 212.674C98.7505 212.386 98.7127 212.076 98.7127 211.743C98.7127 211.175 98.7922 210.672 98.9512 210.232C99.1102 209.786 99.3146 209.411 99.5644 209.108C99.8143 208.805 100.094 208.574 100.405 208.415C100.715 208.256 101.026 208.177 101.336 208.177C101.571 208.177 101.771 208.203 101.938 208.256C102.112 208.302 102.26 208.366 102.381 208.449C102.51 208.533 102.616 208.627 102.699 208.733C102.79 208.839 102.865 208.945 102.926 209.051L102.676 210.573H102.29ZM106.097 208.177C106.43 208.177 106.725 208.237 106.983 208.359C107.24 208.48 107.452 208.646 107.619 208.858C107.793 209.07 107.921 209.32 108.005 209.608C108.096 209.895 108.141 210.202 108.141 210.528C108.141 211.02 108.077 211.482 107.948 211.913C107.819 212.345 107.638 212.723 107.403 213.049C107.168 213.367 106.888 213.62 106.562 213.81C106.237 213.991 105.877 214.082 105.484 214.082C105.173 214.082 104.889 214.026 104.632 213.912C104.382 213.798 104.17 213.639 103.996 213.435C103.822 213.231 103.685 212.988 103.587 212.708C103.496 212.42 103.451 212.102 103.451 211.754C103.451 211.209 103.515 210.717 103.644 210.278C103.78 209.839 103.965 209.464 104.2 209.153C104.435 208.843 104.711 208.605 105.029 208.438C105.355 208.264 105.711 208.177 106.097 208.177ZM105.472 213.719C105.783 213.719 106.044 213.594 106.256 213.344C106.468 213.087 106.638 212.776 106.767 212.413C106.896 212.049 106.986 211.671 107.039 211.277C107.1 210.876 107.13 210.535 107.13 210.255C107.13 209.642 107.039 209.206 106.858 208.949C106.676 208.684 106.43 208.552 106.119 208.552C105.907 208.552 105.718 208.612 105.552 208.733C105.393 208.847 105.249 209.002 105.12 209.199C104.999 209.396 104.897 209.619 104.813 209.869C104.73 210.111 104.662 210.361 104.609 210.619C104.556 210.876 104.518 211.13 104.495 211.379C104.473 211.622 104.461 211.837 104.461 212.027C104.461 212.64 104.552 213.075 104.734 213.333C104.923 213.59 105.169 213.719 105.472 213.719ZM115.512 210.142C115.534 210.005 115.546 209.861 115.546 209.71C115.546 209.483 115.489 209.282 115.375 209.108C115.262 208.926 115.061 208.835 114.773 208.835C114.599 208.835 114.433 208.885 114.274 208.983C114.115 209.074 113.971 209.195 113.842 209.347C113.713 209.49 113.604 209.657 113.513 209.846C113.429 210.028 113.373 210.21 113.342 210.391L112.74 213.969H111.832L112.479 210.119C112.487 210.051 112.491 209.983 112.491 209.914C112.498 209.839 112.502 209.771 112.502 209.71C112.502 209.596 112.491 209.487 112.468 209.381C112.445 209.275 112.404 209.184 112.343 209.108C112.29 209.025 112.214 208.96 112.116 208.915C112.017 208.862 111.889 208.835 111.73 208.835C111.563 208.835 111.4 208.885 111.241 208.983C111.09 209.074 110.95 209.195 110.821 209.347C110.692 209.498 110.583 209.668 110.492 209.858C110.409 210.039 110.352 210.221 110.321 210.403L109.72 213.969H108.811L109.754 208.29H110.004L110.503 209.335C110.571 209.206 110.655 209.074 110.753 208.938C110.859 208.801 110.984 208.677 111.128 208.563C111.272 208.449 111.431 208.359 111.605 208.29C111.787 208.215 111.98 208.177 112.184 208.177C112.419 208.177 112.612 208.211 112.763 208.279C112.922 208.34 113.051 208.427 113.149 208.54C113.248 208.654 113.32 208.786 113.365 208.938C113.411 209.089 113.441 209.252 113.456 209.426C113.524 209.275 113.615 209.127 113.729 208.983C113.842 208.832 113.971 208.695 114.115 208.574C114.266 208.453 114.433 208.359 114.614 208.29C114.796 208.215 114.989 208.177 115.194 208.177C115.436 208.177 115.636 208.215 115.795 208.29C115.962 208.359 116.095 208.457 116.193 208.586C116.299 208.707 116.371 208.851 116.409 209.017C116.454 209.184 116.477 209.358 116.477 209.54C116.477 209.699 116.465 209.858 116.443 210.017L116 212.708C115.992 212.746 115.985 212.795 115.977 212.856C115.97 212.916 115.966 212.966 115.966 213.003C115.966 213.117 115.992 213.204 116.045 213.265C116.106 213.318 116.182 213.344 116.272 213.344C116.424 213.344 116.556 213.295 116.67 213.196C116.783 213.09 116.92 212.939 117.079 212.742L116.988 213.265C116.836 213.499 116.677 213.685 116.511 213.821C116.344 213.957 116.129 214.026 115.864 214.026C115.546 214.026 115.33 213.942 115.216 213.776C115.103 213.602 115.046 213.393 115.046 213.151C115.046 213.068 115.05 212.988 115.057 212.913C115.065 212.837 115.076 212.757 115.091 212.674L115.512 210.142ZM121.38 212.822C121.229 213.208 121.002 213.514 120.699 213.742C120.404 213.969 120.04 214.082 119.609 214.082C119.298 214.082 119.014 214.026 118.757 213.912C118.507 213.798 118.291 213.639 118.109 213.435C117.935 213.231 117.799 212.988 117.701 212.708C117.602 212.42 117.553 212.106 117.553 211.766C117.553 211.342 117.61 210.918 117.723 210.494C117.837 210.062 118.011 209.676 118.246 209.335C118.48 208.994 118.776 208.718 119.132 208.506C119.487 208.287 119.908 208.177 120.392 208.177C120.824 208.177 121.161 208.279 121.403 208.483C121.653 208.688 121.778 208.968 121.778 209.324C121.778 209.718 121.664 210.047 121.437 210.312C121.21 210.569 120.934 210.781 120.608 210.948C120.282 211.107 119.938 211.228 119.574 211.311C119.211 211.395 118.889 211.451 118.609 211.482C118.602 211.535 118.598 211.588 118.598 211.641C118.598 211.686 118.598 211.731 118.598 211.777C118.598 212.261 118.708 212.644 118.927 212.924C119.154 213.196 119.48 213.333 119.904 213.333C120.199 213.333 120.472 213.253 120.722 213.094C120.979 212.928 121.225 212.678 121.46 212.345L121.38 212.822ZM120.245 208.54C119.995 208.54 119.771 208.631 119.574 208.813C119.385 208.994 119.222 209.218 119.086 209.483C118.95 209.74 118.844 210.017 118.768 210.312C118.692 210.6 118.643 210.857 118.621 211.084C118.848 211.061 119.086 211.008 119.336 210.925C119.593 210.834 119.828 210.717 120.04 210.573C120.26 210.422 120.438 210.236 120.574 210.017C120.718 209.789 120.79 209.528 120.79 209.233C120.79 209.036 120.74 208.873 120.642 208.745C120.551 208.608 120.419 208.54 120.245 208.54ZM122.461 210.119H125.107L124.994 210.823H122.336L122.461 210.119ZM126.94 210.755H128.711C128.734 210.566 128.745 210.361 128.745 210.142C128.745 209.642 128.651 209.252 128.462 208.972C128.28 208.684 128.045 208.54 127.757 208.54C127.371 208.54 127.057 208.711 126.815 209.051C126.573 209.392 126.387 209.858 126.258 210.448H125.861L126.111 208.87C126.262 208.695 126.467 208.536 126.724 208.393C126.981 208.249 127.296 208.177 127.667 208.177C127.947 208.177 128.212 208.226 128.462 208.324C128.711 208.415 128.927 208.555 129.109 208.745C129.298 208.926 129.446 209.161 129.552 209.449C129.658 209.729 129.711 210.058 129.711 210.437C129.711 210.914 129.646 211.376 129.518 211.822C129.397 212.261 129.219 212.648 128.984 212.981C128.757 213.314 128.48 213.583 128.155 213.787C127.829 213.984 127.47 214.082 127.076 214.082C126.803 214.082 126.565 214.041 126.361 213.957C126.164 213.874 125.997 213.764 125.861 213.628C125.732 213.484 125.634 213.318 125.566 213.128C125.505 212.939 125.475 212.742 125.475 212.538L125.566 212.049C125.672 212.428 125.823 212.731 126.02 212.958C126.217 213.185 126.512 213.299 126.906 213.299C127.345 213.299 127.72 213.106 128.03 212.72C128.34 212.333 128.549 211.819 128.655 211.175H126.872L126.94 210.755ZM131.279 209.562C131.287 209.524 131.291 209.49 131.291 209.46C131.298 209.422 131.302 209.392 131.302 209.369C131.302 209.233 131.253 209.135 131.154 209.074C131.056 209.006 130.886 208.972 130.643 208.972L130.689 208.688L132.188 208.177H132.426L131.972 210.902H132.37C132.521 210.902 132.642 210.876 132.733 210.823C132.824 210.762 132.919 210.66 133.017 210.516L133.812 209.324C133.941 209.127 134.054 208.96 134.153 208.824C134.251 208.68 134.342 208.567 134.425 208.483C134.509 208.393 134.592 208.328 134.675 208.29C134.758 208.253 134.853 208.234 134.959 208.234C135.118 208.234 135.239 208.298 135.322 208.427C135.413 208.548 135.451 208.711 135.436 208.915L135.345 209.426C135.292 209.328 135.22 209.248 135.129 209.188C135.038 209.127 134.929 209.097 134.8 209.097C134.633 209.097 134.497 209.142 134.391 209.233C134.293 209.324 134.187 209.456 134.073 209.63L133.358 210.687L134.266 212.833C134.319 212.962 134.376 213.06 134.437 213.128C134.505 213.196 134.603 213.231 134.732 213.231C134.868 213.231 134.974 213.185 135.05 213.094C135.133 213.003 135.216 212.901 135.3 212.788L135.209 213.299C135.126 213.48 135.02 213.647 134.891 213.798C134.762 213.95 134.577 214.026 134.334 214.026C134.092 214.026 133.895 213.942 133.744 213.776C133.6 213.609 133.467 213.39 133.346 213.117L132.551 211.277H131.904L131.45 213.969H130.507L131.279 209.562ZM134.975 216.433L135.021 216.161C135.301 216.161 135.502 216.104 135.623 215.99C135.751 215.877 135.835 215.718 135.872 215.513L136.849 209.551C136.857 209.513 136.861 209.479 136.861 209.449C136.868 209.411 136.872 209.381 136.872 209.358C136.872 209.222 136.823 209.123 136.724 209.063C136.626 208.994 136.455 208.96 136.213 208.96L136.259 208.688L137.769 208.177H137.996L137.849 209.097C137.977 208.854 138.167 208.642 138.416 208.461C138.674 208.271 138.973 208.177 139.314 208.177C139.632 208.177 139.9 208.234 140.12 208.347C140.347 208.461 140.533 208.62 140.676 208.824C140.828 209.029 140.938 209.271 141.006 209.551C141.074 209.824 141.108 210.119 141.108 210.437C141.108 210.906 141.044 211.36 140.915 211.8C140.794 212.239 140.62 212.629 140.392 212.969C140.173 213.31 139.908 213.586 139.598 213.798C139.287 214.003 138.946 214.105 138.575 214.105C138.348 214.105 138.151 214.075 137.985 214.014C137.826 213.961 137.69 213.885 137.576 213.787C137.47 213.689 137.387 213.575 137.326 213.446C137.266 213.318 137.22 213.181 137.19 213.037L136.815 215.332C136.808 215.377 136.8 215.434 136.792 215.502C136.785 215.57 136.781 215.627 136.781 215.672C136.781 215.824 136.826 215.941 136.917 216.024C137.016 216.115 137.186 216.161 137.428 216.161L137.383 216.433H134.975ZM137.406 211.822C137.391 211.898 137.379 211.974 137.372 212.049C137.364 212.118 137.36 212.19 137.36 212.265C137.36 212.629 137.436 212.928 137.587 213.162C137.746 213.397 137.996 213.514 138.337 213.514C138.572 213.514 138.791 213.427 138.996 213.253C139.208 213.079 139.393 212.841 139.552 212.538C139.711 212.235 139.836 211.887 139.927 211.493C140.018 211.092 140.063 210.664 140.063 210.21C140.063 209.755 139.98 209.396 139.813 209.131C139.654 208.866 139.393 208.733 139.03 208.733C138.856 208.733 138.689 208.782 138.53 208.881C138.379 208.972 138.242 209.097 138.121 209.256C138 209.407 137.898 209.581 137.815 209.778C137.731 209.975 137.674 210.176 137.644 210.38L137.406 211.822ZM145.56 213.969L145.174 212.981C145.106 213.117 145.019 213.253 144.913 213.39C144.807 213.518 144.686 213.636 144.55 213.742C144.421 213.84 144.273 213.92 144.107 213.98C143.948 214.048 143.777 214.082 143.596 214.082C142.982 214.082 142.532 213.885 142.244 213.492C141.956 213.098 141.813 212.561 141.813 211.879C141.813 211.425 141.873 210.978 141.994 210.539C142.123 210.092 142.301 209.695 142.528 209.347C142.755 208.998 143.024 208.718 143.334 208.506C143.645 208.287 143.989 208.177 144.368 208.177C144.572 208.177 144.75 208.207 144.902 208.268C145.061 208.328 145.193 208.408 145.299 208.506C145.405 208.597 145.488 208.703 145.549 208.824C145.609 208.945 145.655 209.063 145.685 209.176L146.514 208.29H146.764L145.81 213.969H145.56ZM144.527 208.745C144.292 208.745 144.073 208.835 143.868 209.017C143.664 209.199 143.486 209.445 143.334 209.755C143.19 210.066 143.077 210.425 142.994 210.834C142.91 211.236 142.869 211.66 142.869 212.106C142.869 212.545 142.952 212.894 143.119 213.151C143.293 213.408 143.546 213.537 143.879 213.537C144.046 213.537 144.201 213.492 144.345 213.401C144.497 213.302 144.633 213.178 144.754 213.026C144.875 212.867 144.973 212.689 145.049 212.492C145.132 212.296 145.193 212.091 145.231 211.879L145.469 210.471C145.485 210.395 145.492 210.312 145.492 210.221C145.5 210.123 145.503 210.039 145.503 209.971C145.503 209.585 145.42 209.286 145.254 209.074C145.087 208.854 144.845 208.745 144.527 208.745ZM148.245 209.562C148.253 209.524 148.257 209.49 148.257 209.46C148.264 209.422 148.268 209.392 148.268 209.369C148.268 209.233 148.219 209.135 148.12 209.074C148.022 209.006 147.851 208.972 147.609 208.972L147.655 208.688L149.154 208.177H149.392L148.949 210.846H151.13L151.561 208.29H152.47L151.732 212.708C151.724 212.746 151.717 212.795 151.709 212.856C151.709 212.916 151.709 212.966 151.709 213.003C151.709 213.231 151.807 213.344 152.004 213.344C152.156 213.344 152.288 213.295 152.402 213.196C152.515 213.09 152.655 212.939 152.822 212.742L152.72 213.265C152.568 213.499 152.409 213.685 152.243 213.821C152.084 213.957 151.872 214.026 151.607 214.026C151.281 214.026 151.062 213.942 150.948 213.776C150.834 213.602 150.778 213.393 150.778 213.151C150.778 213.068 150.781 212.988 150.789 212.913C150.797 212.837 150.808 212.757 150.823 212.674L151.062 211.243H148.881L148.427 213.969H147.518L148.245 209.562Z" fill="#104A99"/>
</svg>
