<svg width="746" height="638" viewBox="0 0 746 638" fill="none" xmlns="http://www.w3.org/2000/svg">
<rect x="0.903695" y="0.903695" width="744.193" height="635.297" rx="3.36026" fill="white" stroke="#ADBFFD" stroke-width="1.80739"/>
<mask id="mask0_1391_3118" style="mask-type:alpha" maskUnits="userSpaceOnUse" x="0" y="0" width="746" height="638">
<path d="M5.39807e-07 4.26403C2.41682e-07 1.90911 1.90904 4.48073e-05 4.26396 4.47826e-05L741.736 3.70579e-05C744.091 3.70332e-05 746 1.90908 746 4.26399L746 632.841C746 635.196 744.091 637.105 741.736 637.105L4.26401 637.103C1.9091 637.103 8.04136e-05 635.194 8.01155e-05 632.839L5.39807e-07 4.26403Z" fill="#D9D9D9"/>
</mask>
<g mask="url(#mask0_1391_3118)">
<path d="M-98.9551 -105.299L880.759 831.533" stroke="#ADBFFD" stroke-width="0.852791"/>
<path d="M-534.084 193.369L445.631 1130.2" stroke="#ADBFFD" stroke-width="0.852791"/>
<path d="M192.574 -479.938L1172.29 456.894" stroke="#ADBFFD" stroke-width="0.852791"/>
<path d="M-242.555 -181.27L737.16 755.562" stroke="#ADBFFD" stroke-width="0.852791"/>
<path d="M46.8066 -292.617L1026.52 644.215" stroke="#ADBFFD" stroke-width="0.852791"/>
<path d="M-388.32 6.04883L591.394 942.881" stroke="#ADBFFD" stroke-width="0.852791"/>
<path d="M-62.5137 -152.129L917.201 784.703" stroke="#ADBFFD" stroke-width="0.852791"/>
<path d="M-497.643 146.537L482.072 1083.37" stroke="#ADBFFD" stroke-width="0.852791"/>
<path d="M83.25 -339.447L1062.96 597.385" stroke="#ADBFFD" stroke-width="0.852791"/>
<path d="M-351.881 -40.7832L627.834 896.049" stroke="#ADBFFD" stroke-width="0.852791"/>
<path d="M-26.0723 -198.959L953.642 737.873" stroke="#ADBFFD" stroke-width="0.852791"/>
<path d="M-461.203 99.707L518.511 1036.54" stroke="#ADBFFD" stroke-width="0.852791"/>
<path d="M119.691 -386.277L1099.41 550.554" stroke="#ADBFFD" stroke-width="0.852791"/>
<path d="M-315.438 -87.6133L664.277 849.219" stroke="#ADBFFD" stroke-width="0.852791"/>
<path d="M10.3691 -245.789L990.084 691.043" stroke="#ADBFFD" stroke-width="0.852791"/>
<path d="M-424.762 52.8789L554.953 989.711" stroke="#ADBFFD" stroke-width="0.852791"/>
<path d="M156.131 -433.107L1135.85 503.724" stroke="#ADBFFD" stroke-width="0.852791"/>
<path d="M-278.996 -134.439L700.718 802.392" stroke="#ADBFFD" stroke-width="0.852791"/>
<path d="M-89.8438 -117.008L889.871 819.824" stroke="#ADBFFD" stroke-width="0.852791"/>
<path d="M-524.973 181.66L454.742 1118.49" stroke="#ADBFFD" stroke-width="0.852791"/>
<path d="M201.684 -491.645L1181.4 445.187" stroke="#ADBFFD" stroke-width="0.852791"/>
<path d="M-233.445 -192.979L746.269 743.853" stroke="#ADBFFD" stroke-width="0.852791"/>
<path d="M55.918 -304.324L1035.63 632.508" stroke="#ADBFFD" stroke-width="0.852791"/>
<path d="M-379.211 -5.66016L600.504 931.172" stroke="#ADBFFD" stroke-width="0.852791"/>
<path d="M-53.4043 -163.838L926.31 772.994" stroke="#ADBFFD" stroke-width="0.852791"/>
<path d="M-488.533 134.83L491.181 1071.66" stroke="#ADBFFD" stroke-width="0.852791"/>
<path d="M92.3594 -351.154L1072.07 585.678" stroke="#ADBFFD" stroke-width="0.852791"/>
<path d="M-342.768 -52.4902L636.947 884.342" stroke="#ADBFFD" stroke-width="0.852791"/>
<path d="M-16.9629 -210.668L962.752 726.164" stroke="#ADBFFD" stroke-width="0.852791"/>
<path d="M-452.092 88.002L527.623 1024.83" stroke="#ADBFFD" stroke-width="0.852791"/>
<path d="M128.799 -397.982L1108.51 538.849" stroke="#ADBFFD" stroke-width="0.852791"/>
<path d="M-306.326 -99.3184L673.388 837.513" stroke="#ADBFFD" stroke-width="0.852791"/>
<path d="M19.4785 -257.494L999.193 679.338" stroke="#ADBFFD" stroke-width="0.852791"/>
<path d="M-415.65 41.1699L564.064 978.002" stroke="#ADBFFD" stroke-width="0.852791"/>
<path d="M165.24 -444.814L1144.95 492.017" stroke="#ADBFFD" stroke-width="0.852791"/>
<path d="M-269.887 -146.15L709.828 790.681" stroke="#ADBFFD" stroke-width="0.852791"/>
<path d="M-80.7344 -128.715L898.98 808.117" stroke="#ADBFFD" stroke-width="0.852791"/>
<path d="M-515.865 169.951L463.849 1106.78" stroke="#ADBFFD" stroke-width="0.852791"/>
<path d="M210.793 -503.354L1190.51 433.478" stroke="#ADBFFD" stroke-width="0.852791"/>
<path d="M-224.336 -204.684L755.379 732.148" stroke="#ADBFFD" stroke-width="0.852791"/>
<path d="M65.0293 -316.035L1044.74 620.797" stroke="#ADBFFD" stroke-width="0.852791"/>
<path d="M-370.1 -17.3691L609.615 919.463" stroke="#ADBFFD" stroke-width="0.852791"/>
<path d="M-44.291 -175.545L935.424 761.287" stroke="#ADBFFD" stroke-width="0.852791"/>
<path d="M-479.422 123.121L500.293 1059.95" stroke="#ADBFFD" stroke-width="0.852791"/>
<path d="M101.469 -362.863L1081.18 573.969" stroke="#ADBFFD" stroke-width="0.852791"/>
<path d="M-333.654 -64.1973L646.06 872.635" stroke="#ADBFFD" stroke-width="0.852791"/>
<path d="M-7.85352 -222.375L971.861 714.457" stroke="#ADBFFD" stroke-width="0.852791"/>
<path d="M-442.982 76.291L536.732 1013.12" stroke="#ADBFFD" stroke-width="0.852791"/>
<path d="M137.91 -409.691L1117.62 527.14" stroke="#ADBFFD" stroke-width="0.852791"/>
<path d="M-297.219 -111.025L682.496 825.806" stroke="#ADBFFD" stroke-width="0.852791"/>
<path d="M28.5898 -269.203L1008.3 667.629" stroke="#ADBFFD" stroke-width="0.852791"/>
<path d="M-406.541 29.4609L573.174 966.293" stroke="#ADBFFD" stroke-width="0.852791"/>
<path d="M174.354 -456.521L1154.07 480.31" stroke="#ADBFFD" stroke-width="0.852791"/>
<path d="M-260.775 -157.855L718.939 778.976" stroke="#ADBFFD" stroke-width="0.852791"/>
<path d="M-71.623 -140.426L908.091 796.406" stroke="#ADBFFD" stroke-width="0.852791"/>
<path d="M-506.752 158.244L472.963 1095.08" stroke="#ADBFFD" stroke-width="0.852791"/>
<path d="M74.1367 -327.738L1053.85 609.094" stroke="#ADBFFD" stroke-width="0.852791"/>
<path d="M-360.988 -29.0723L618.726 907.76" stroke="#ADBFFD" stroke-width="0.852791"/>
<path d="M-35.1836 -187.252L944.531 749.58" stroke="#ADBFFD" stroke-width="0.852791"/>
<path d="M-470.312 111.414L509.402 1048.25" stroke="#ADBFFD" stroke-width="0.852791"/>
<path d="M110.58 -374.568L1090.29 562.263" stroke="#ADBFFD" stroke-width="0.852791"/>
<path d="M-324.551 -75.9043L655.164 860.928" stroke="#ADBFFD" stroke-width="0.852791"/>
<path d="M1.25781 -234.08L980.972 702.752" stroke="#ADBFFD" stroke-width="0.852791"/>
<path d="M-433.871 64.584L545.843 1001.42" stroke="#ADBFFD" stroke-width="0.852791"/>
<path d="M147.02 -421.398L1126.73 515.433" stroke="#ADBFFD" stroke-width="0.852791"/>
<path d="M-288.105 -122.734L691.609 814.097" stroke="#ADBFFD" stroke-width="0.852791"/>
<path d="M37.6992 -280.91L1017.41 655.922" stroke="#ADBFFD" stroke-width="0.852791"/>
<path d="M-397.432 17.7578L582.283 954.59" stroke="#ADBFFD" stroke-width="0.852791"/>
<path d="M183.465 -468.227L1163.18 468.605" stroke="#ADBFFD" stroke-width="0.852791"/>
<path d="M-251.664 -169.562L728.05 767.269" stroke="#ADBFFD" stroke-width="0.852791"/>
</g>
<path d="M68.5019 566.844L373.003 39.3128L677.504 566.844H68.5019Z" fill="white" stroke="#ADBFFD" stroke-width="1.35554"/>
<path d="M367.313 20.5676L369.589 16.6781L370.174 17.0204L373.003 12.1857L375.832 17.0207L376.417 16.6784L378.693 20.5679L378.108 20.9102L384.936 32.5789L385.521 32.2366L387.797 36.1261L387.212 36.4684L394.04 48.1371L394.625 47.7948L396.901 51.6843L396.316 52.0266L403.144 63.6952L403.729 63.3529L406.005 67.2424L405.42 67.5848L412.248 79.2534L412.833 78.9111L415.109 82.8006L414.524 83.1429L421.352 94.8115L421.937 94.4692L424.213 98.3588L423.628 98.7011L430.456 110.37L431.041 110.027L433.317 113.917L432.732 114.259L439.561 125.928L440.146 125.586L442.422 129.475L441.837 129.817L448.665 141.486L449.25 141.144L451.526 145.033L450.941 145.376L457.769 157.044L458.354 156.702L460.63 160.592L460.045 160.934L466.873 172.602L467.458 172.26L469.734 176.15L469.149 176.492L475.977 188.161L476.562 187.818L478.838 191.708L478.253 192.05L485.081 203.719L485.666 203.377L487.942 207.266L487.357 207.608L494.185 219.277L494.77 218.935L497.046 222.824L496.461 223.167L503.289 234.835L503.874 234.493L506.15 238.382L505.565 238.725L512.393 250.393L512.978 250.051L515.254 253.941L514.669 254.283L521.497 265.952L522.082 265.609L524.359 269.499L523.774 269.841L530.602 281.51L531.187 281.168L533.463 285.057L532.878 285.399L539.706 297.068L540.291 296.726L542.567 300.615L541.982 300.958L548.81 312.626L549.395 312.284L551.671 316.173L551.086 316.516L557.914 328.184L558.499 327.842L560.775 331.732L560.19 332.074L567.018 343.743L567.603 343.4L569.879 347.29L569.294 347.632L576.122 359.301L576.707 358.958L578.983 362.848L578.398 363.19L585.226 374.859L585.811 374.517L588.087 378.406L587.502 378.749L594.33 390.417L594.915 390.075L597.191 393.964L596.606 394.307L603.435 405.975L604.019 405.633L606.296 409.523L605.711 409.865L612.539 421.534L613.124 421.191L615.4 425.081L614.815 425.423L621.643 437.092L622.228 436.75L624.504 440.639L623.919 440.981L630.747 452.65L631.332 452.308L633.608 456.197L633.023 456.54L639.851 468.208L640.436 467.866L642.712 471.756L642.127 472.098L648.955 483.766L649.54 483.424L651.816 487.314L651.231 487.656L658.059 499.325L658.644 498.982L660.92 502.872L660.335 503.214L667.163 514.883L667.748 514.541L670.024 518.43L669.439 518.772L676.267 530.441L676.852 530.099L679.128 533.988L678.543 534.331L685.372 545.999L685.956 545.657L688.233 549.547L687.648 549.889L694.476 561.557L695.061 561.215L697.337 565.105L696.752 565.447L703.58 577.116L704.165 576.773L706.441 580.663L705.856 581.005L708.673 585.82H703.027V586.497H698.475V585.82H684.819V586.497H680.267V585.82H666.61V586.497H662.058V585.82H648.402V586.497H643.85V585.82H630.194V586.497H625.642V585.82H611.986V586.497H607.434V585.82H593.777V586.497H589.225V585.82H575.569V586.497H571.017V585.82H557.361V586.497H552.809V585.82H539.153V586.497H534.601V585.82H520.944V586.497H516.392V585.82H502.736V586.497H498.184V585.82H484.528V586.497H479.976V585.82H466.32V586.497H461.768V585.82H448.112V586.497H443.559V585.82H429.903V586.497H425.351V585.82H411.695V586.497H407.143V585.82H393.487V586.497H388.935V585.82H375.279V586.497H370.727V585.82H357.07V586.497H352.518V585.82H338.862V586.497H334.31V585.82H320.654V586.497H316.102V585.82H302.446V586.497H297.894V585.82H284.238V586.497H279.685V585.82H266.029V586.497H261.477V585.82H247.821V586.497H243.269V585.82H229.613V586.497H225.061V585.82H211.405V586.497H206.853V585.82H193.196V586.497H188.644V585.82H174.988V586.497H170.436V585.82H156.78V586.497H152.228V585.82H138.572V586.497H134.02V585.82H120.363V586.497H115.811V585.82H102.155V586.497H97.6032V585.82H83.947V586.497H79.3949V585.82H65.7388V586.497H61.1867V585.82H47.5305V586.497H42.9785V585.82H37.3323L40.1496 581.005L39.5646 580.663L41.8407 576.773L42.4257 577.115L49.2537 565.447L48.6687 565.104L50.9448 561.215L51.5298 561.557L58.3578 549.889L57.7728 549.546L60.0488 545.657L60.6338 545.999L67.4619 534.33L66.8769 533.988L69.1529 530.099L69.7379 530.441L76.566 518.772L75.981 518.43L78.2571 514.54L78.842 514.883L85.6701 503.214L85.0851 502.872L87.3611 498.982L87.9461 499.324L94.7742 487.656L94.1892 487.314L96.4652 483.424L97.0502 483.766L103.878 472.098L103.293 471.755L105.569 467.866L106.154 468.208L112.982 456.54L112.397 456.197L114.673 452.308L115.258 452.65L122.086 440.981L121.502 440.639L123.778 436.749L124.363 437.092L131.191 425.423L130.606 425.081L132.882 421.191L133.467 421.534L140.295 409.865L139.71 409.523L141.986 405.633L142.571 405.975L149.399 394.307L148.814 393.964L151.09 390.075L151.675 390.417L158.503 378.749L157.918 378.406L160.194 374.517L160.779 374.859L167.607 363.19L167.022 362.848L169.298 358.958L169.883 359.301L176.711 347.632L176.126 347.29L178.402 343.4L178.987 343.743L185.815 332.074L185.23 331.732L187.506 327.842L188.091 328.184L194.919 316.516L194.334 316.173L196.61 312.284L197.195 312.626L204.023 300.958L203.438 300.615L205.715 296.726L206.299 297.068L213.128 285.399L212.543 285.057L214.819 281.168L215.404 281.51L222.232 269.841L221.647 269.499L223.923 265.609L224.508 265.952L231.336 254.283L230.751 253.941L233.027 250.051L233.612 250.393L240.44 238.725L239.855 238.382L242.131 234.493L242.716 234.835L249.544 223.167L248.959 222.824L251.235 218.935L251.82 219.277L258.648 207.608L258.063 207.266L260.339 203.377L260.924 203.719L267.752 192.05L267.167 191.708L269.443 187.818L270.028 188.161L276.856 176.492L276.271 176.15L278.547 172.26L279.132 172.602L285.96 160.934L285.376 160.591L287.652 156.702L288.237 157.044L295.065 145.376L294.48 145.033L296.756 141.144L297.341 141.486L304.169 129.817L303.584 129.475L305.86 125.586L306.445 125.928L313.273 114.259L312.688 113.917L314.964 110.027L315.549 110.37L322.377 98.701L321.792 98.3586L324.068 94.4691L324.653 94.8114L331.481 83.1427L330.896 82.8004L333.172 78.9109L333.757 79.2532L340.585 67.5845L340 67.2422L342.276 63.3527L342.861 63.695L349.689 52.0263L349.104 51.684L351.38 47.7945L351.965 48.1368L358.793 36.4681L358.208 36.1258L360.484 32.2363L361.069 32.5786L367.898 20.9099L367.313 20.5676Z" fill="white" stroke="#ADBFFD" stroke-width="1.35554" stroke-dasharray="13.56 4.52"/>
<path d="M68.5019 566.844L373.003 39.3128L677.504 566.844H68.5019Z" fill="white" stroke="#ADBFFD" stroke-width="1.35554"/>
<path d="M117.934 479.41H626.714" stroke="#ADBFFD" stroke-width="1.35554"/>
<path d="M169.896 390.848L576.107 390.848" stroke="#ADBFFD" stroke-width="1.35554"/>
<path d="M221.41 302.738L525.052 302.738" stroke="#ADBFFD" stroke-width="1.35554"/>
<path d="M272.018 214.627L473.993 214.627" stroke="#ADBFFD" stroke-width="1.35554"/>
<path d="M323.527 126.066L423.386 126.066" stroke="#ADBFFD" stroke-width="1.35554"/>
<path d="M170.125 390.622L221.184 302.512H525.051L575.658 390.622H170.125Z" fill="#ADBFFD"/>
<path d="M310.732 346.078V342.79H312.606C312.883 342.79 313.149 342.81 313.405 342.851C313.661 342.892 313.886 342.974 314.081 343.097C314.275 343.21 314.429 343.374 314.542 343.589C314.665 343.804 314.726 344.086 314.726 344.434C314.726 344.782 314.665 345.064 314.542 345.279C314.429 345.494 314.275 345.663 314.081 345.786C313.886 345.898 313.661 345.975 313.405 346.016C313.149 346.057 312.883 346.078 312.606 346.078H310.732ZM308.32 340.916V351.885H310.732V347.952H313.267C313.953 347.952 314.537 347.855 315.018 347.66C315.499 347.455 315.889 347.189 316.186 346.861C316.493 346.533 316.713 346.16 316.846 345.74C316.99 345.309 317.061 344.874 317.061 344.434C317.061 343.983 316.99 343.548 316.846 343.128C316.713 342.708 316.493 342.334 316.186 342.006C315.889 341.679 315.499 341.418 315.018 341.223C314.537 341.018 313.953 340.916 313.267 340.916H308.32ZM317.875 343.942V351.885H320.057V348.305C320.057 347.947 320.093 347.614 320.164 347.307C320.236 346.999 320.354 346.733 320.518 346.508C320.692 346.272 320.917 346.088 321.194 345.955C321.47 345.822 321.808 345.755 322.208 345.755C322.341 345.755 322.479 345.765 322.622 345.786C322.766 345.796 322.889 345.811 322.991 345.832V343.804C322.817 343.753 322.658 343.727 322.515 343.727C322.238 343.727 321.972 343.768 321.716 343.85C321.46 343.932 321.219 344.05 320.994 344.203C320.769 344.347 320.569 344.526 320.395 344.741C320.221 344.946 320.082 345.171 319.98 345.417H319.949V343.942H317.875ZM325.051 347.921C325.051 347.604 325.082 347.291 325.143 346.984C325.205 346.677 325.307 346.405 325.451 346.17C325.604 345.934 325.804 345.745 326.05 345.601C326.296 345.448 326.603 345.371 326.972 345.371C327.34 345.371 327.648 345.448 327.893 345.601C328.149 345.745 328.349 345.934 328.492 346.17C328.646 346.405 328.754 346.677 328.815 346.984C328.877 347.291 328.907 347.604 328.907 347.921C328.907 348.239 328.877 348.551 328.815 348.858C328.754 349.155 328.646 349.427 328.492 349.673C328.349 349.908 328.149 350.098 327.893 350.241C327.648 350.384 327.34 350.456 326.972 350.456C326.603 350.456 326.296 350.384 326.05 350.241C325.804 350.098 325.604 349.908 325.451 349.673C325.307 349.427 325.205 349.155 325.143 348.858C325.082 348.551 325.051 348.239 325.051 347.921ZM322.87 347.921C322.87 348.556 322.967 349.13 323.162 349.642C323.356 350.154 323.633 350.594 323.991 350.963C324.35 351.321 324.78 351.598 325.282 351.793C325.784 351.987 326.347 352.084 326.972 352.084C327.596 352.084 328.16 351.987 328.661 351.793C329.174 351.598 329.609 351.321 329.967 350.963C330.326 350.594 330.602 350.154 330.797 349.642C330.992 349.13 331.089 348.556 331.089 347.921C331.089 347.286 330.992 346.713 330.797 346.201C330.602 345.678 330.326 345.238 329.967 344.879C329.609 344.511 329.174 344.229 328.661 344.034C328.16 343.83 327.596 343.727 326.972 343.727C326.347 343.727 325.784 343.83 325.282 344.034C324.78 344.229 324.35 344.511 323.991 344.879C323.633 345.238 323.356 345.678 323.162 346.201C322.967 346.713 322.87 347.286 322.87 347.921ZM337.684 347.89C337.684 348.218 337.654 348.536 337.592 348.843C337.531 349.15 337.428 349.427 337.285 349.673C337.142 349.908 336.947 350.098 336.701 350.241C336.466 350.384 336.169 350.456 335.81 350.456C335.472 350.456 335.18 350.384 334.935 350.241C334.699 350.087 334.499 349.893 334.335 349.657C334.182 349.411 334.069 349.135 333.997 348.828C333.926 348.52 333.89 348.213 333.89 347.906C333.89 347.578 333.921 347.266 333.982 346.969C334.054 346.661 334.161 346.39 334.305 346.154C334.458 345.919 334.658 345.729 334.904 345.586C335.15 345.443 335.452 345.371 335.81 345.371C336.169 345.371 336.466 345.443 336.701 345.586C336.937 345.729 337.126 345.919 337.27 346.154C337.423 346.38 337.531 346.646 337.592 346.953C337.654 347.25 337.684 347.563 337.684 347.89ZM337.715 350.871V351.885H339.789V340.916H337.608V344.91H337.577C337.331 344.521 336.993 344.229 336.563 344.034C336.143 343.83 335.698 343.727 335.226 343.727C334.643 343.727 334.131 343.845 333.69 344.08C333.25 344.306 332.881 344.608 332.584 344.987C332.297 345.366 332.077 345.806 331.923 346.308C331.78 346.8 331.708 347.312 331.708 347.844C331.708 348.397 331.78 348.93 331.923 349.442C332.077 349.954 332.297 350.41 332.584 350.809C332.881 351.199 333.255 351.511 333.706 351.747C334.156 351.972 334.679 352.084 335.273 352.084C335.795 352.084 336.261 351.992 336.671 351.808C337.09 351.613 337.428 351.301 337.684 350.871H337.715ZM348.428 351.885V343.942H346.247V348.106C346.247 348.915 346.113 349.498 345.847 349.857C345.581 350.205 345.151 350.379 344.557 350.379C344.034 350.379 343.671 350.22 343.466 349.903C343.261 349.575 343.159 349.084 343.159 348.428V343.942H340.977V348.828C340.977 349.319 341.018 349.77 341.1 350.179C341.192 350.579 341.346 350.922 341.561 351.209C341.776 351.485 342.068 351.7 342.437 351.854C342.816 352.008 343.297 352.084 343.881 352.084C344.342 352.084 344.792 351.982 345.233 351.777C345.673 351.572 346.032 351.24 346.308 350.779H346.354V351.885H348.428ZM355.031 346.738H357.166C357.135 346.226 357.012 345.786 356.797 345.417C356.582 345.038 356.301 344.726 355.952 344.48C355.614 344.224 355.225 344.034 354.785 343.911C354.355 343.789 353.904 343.727 353.433 343.727C352.788 343.727 352.214 343.835 351.712 344.05C351.21 344.265 350.785 344.567 350.437 344.956C350.089 345.335 349.823 345.791 349.638 346.323C349.464 346.846 349.377 347.414 349.377 348.029C349.377 348.623 349.474 349.171 349.669 349.673C349.864 350.164 350.135 350.589 350.483 350.948C350.832 351.306 351.251 351.588 351.743 351.793C352.245 351.987 352.793 352.084 353.387 352.084C354.442 352.084 355.307 351.808 355.983 351.255C356.659 350.702 357.069 349.898 357.212 348.843H355.107C355.036 349.335 354.857 349.729 354.57 350.026C354.293 350.313 353.894 350.456 353.371 350.456C353.034 350.456 352.747 350.379 352.511 350.226C352.276 350.072 352.086 349.877 351.943 349.642C351.81 349.396 351.712 349.125 351.651 348.828C351.589 348.531 351.559 348.239 351.559 347.952C351.559 347.655 351.589 347.358 351.651 347.061C351.712 346.754 351.815 346.477 351.958 346.231C352.112 345.975 352.306 345.77 352.542 345.617C352.777 345.453 353.069 345.371 353.418 345.371C354.35 345.371 354.887 345.827 355.031 346.738ZM360.749 343.942V341.561H358.567V343.942H357.246V345.402H358.567V350.087C358.567 350.487 358.634 350.809 358.767 351.055C358.9 351.301 359.08 351.49 359.305 351.624C359.54 351.757 359.807 351.844 360.104 351.885C360.411 351.936 360.734 351.962 361.072 351.962C361.287 351.962 361.507 351.956 361.732 351.946C361.958 351.936 362.162 351.915 362.347 351.885V350.195C362.244 350.215 362.137 350.231 362.024 350.241C361.911 350.251 361.794 350.256 361.671 350.256C361.302 350.256 361.056 350.195 360.933 350.072C360.81 349.949 360.749 349.703 360.749 349.335V345.402H362.347V343.942H360.749ZM366.8 343.942V351.885H368.982V347.276C368.982 346.887 369.038 346.574 369.151 346.339C369.263 346.093 369.396 345.909 369.55 345.786C369.714 345.653 369.878 345.566 370.042 345.525C370.216 345.473 370.354 345.448 370.456 345.448C370.805 345.448 371.066 345.509 371.24 345.632C371.424 345.745 371.552 345.898 371.624 346.093C371.706 346.288 371.752 346.503 371.762 346.738C371.773 346.964 371.778 347.194 371.778 347.43V351.885H373.959V347.46C373.959 347.214 373.975 346.974 374.005 346.738C374.046 346.492 374.118 346.277 374.22 346.093C374.333 345.898 374.482 345.745 374.666 345.632C374.86 345.509 375.111 345.448 375.419 345.448C375.726 345.448 375.967 345.499 376.141 345.601C376.325 345.704 376.463 345.842 376.556 346.016C376.648 346.19 376.704 346.395 376.725 346.631C376.745 346.866 376.755 347.117 376.755 347.383V351.885H378.937V346.569C378.937 346.057 378.865 345.622 378.722 345.263C378.578 344.895 378.379 344.598 378.123 344.372C377.866 344.147 377.559 343.983 377.201 343.881C376.842 343.778 376.453 343.727 376.033 343.727C375.48 343.727 374.999 343.86 374.589 344.127C374.19 344.393 373.872 344.7 373.637 345.048C373.422 344.557 373.104 344.214 372.684 344.019C372.274 343.824 371.819 343.727 371.317 343.727C370.794 343.727 370.328 343.84 369.919 344.065C369.519 344.29 369.176 344.608 368.889 345.018H368.859V343.942H366.8ZM380.108 346.385C380.139 345.873 380.267 345.448 380.492 345.11C380.718 344.772 381.004 344.5 381.353 344.296C381.701 344.091 382.09 343.947 382.52 343.865C382.961 343.773 383.401 343.727 383.841 343.727C384.241 343.727 384.645 343.758 385.055 343.819C385.465 343.87 385.839 343.978 386.176 344.142C386.514 344.306 386.791 344.536 387.006 344.833C387.221 345.12 387.329 345.504 387.329 345.985V350.118C387.329 350.477 387.349 350.82 387.39 351.147C387.431 351.475 387.503 351.721 387.605 351.885H385.393C385.352 351.762 385.316 351.639 385.285 351.516C385.265 351.383 385.25 351.25 385.239 351.117C384.891 351.475 384.481 351.726 384.01 351.869C383.539 352.013 383.058 352.084 382.566 352.084C382.187 352.084 381.834 352.038 381.506 351.946C381.178 351.854 380.892 351.711 380.646 351.516C380.4 351.321 380.205 351.076 380.062 350.779C379.929 350.482 379.862 350.128 379.862 349.719C379.862 349.268 379.939 348.899 380.093 348.612C380.257 348.315 380.462 348.08 380.707 347.906C380.963 347.732 381.25 347.604 381.568 347.522C381.895 347.43 382.223 347.358 382.551 347.307C382.879 347.255 383.201 347.214 383.519 347.184C383.836 347.153 384.118 347.107 384.364 347.045C384.609 346.984 384.804 346.897 384.947 346.784C385.091 346.661 385.157 346.487 385.147 346.262C385.147 346.026 385.106 345.842 385.024 345.709C384.953 345.566 384.85 345.458 384.717 345.386C384.594 345.304 384.446 345.253 384.272 345.233C384.108 345.202 383.928 345.187 383.734 345.187C383.304 345.187 382.966 345.279 382.72 345.463C382.474 345.647 382.331 345.955 382.29 346.385H380.108ZM385.147 347.998C385.055 348.08 384.937 348.146 384.794 348.198C384.661 348.239 384.512 348.275 384.348 348.305C384.195 348.336 384.031 348.362 383.857 348.382C383.683 348.403 383.508 348.428 383.334 348.459C383.171 348.49 383.007 348.531 382.843 348.582C382.689 348.633 382.551 348.705 382.428 348.797C382.315 348.879 382.223 348.986 382.151 349.119C382.08 349.253 382.044 349.422 382.044 349.626C382.044 349.821 382.08 349.985 382.151 350.118C382.223 350.251 382.32 350.359 382.443 350.441C382.566 350.512 382.71 350.564 382.873 350.594C383.037 350.625 383.206 350.64 383.38 350.64C383.811 350.64 384.143 350.569 384.379 350.425C384.615 350.282 384.789 350.113 384.901 349.918C385.014 349.713 385.081 349.509 385.101 349.304C385.132 349.099 385.147 348.935 385.147 348.812V347.998ZM388.561 343.942V351.885H390.743V348.305C390.743 347.947 390.778 347.614 390.85 347.307C390.922 346.999 391.04 346.733 391.203 346.508C391.378 346.272 391.603 346.088 391.879 345.955C392.156 345.822 392.494 345.755 392.893 345.755C393.027 345.755 393.165 345.765 393.308 345.786C393.452 345.796 393.574 345.811 393.677 345.832V343.804C393.503 343.753 393.344 343.727 393.201 343.727C392.924 343.727 392.658 343.768 392.402 343.85C392.146 343.932 391.905 344.05 391.68 344.203C391.454 344.347 391.255 344.526 391.081 344.741C390.906 344.946 390.768 345.171 390.666 345.417H390.635V343.942H388.561ZM394.271 340.916V351.885H396.453V349.15L397.297 348.336L399.479 351.885H402.121L398.788 346.861L401.783 343.942H399.202L396.453 346.8V340.916H394.271ZM407.778 347.061H404.229C404.24 346.907 404.27 346.733 404.322 346.539C404.383 346.344 404.48 346.16 404.614 345.985C404.757 345.811 404.941 345.668 405.167 345.555C405.402 345.432 405.694 345.371 406.042 345.371C406.575 345.371 406.969 345.514 407.225 345.801C407.492 346.088 407.676 346.508 407.778 347.061ZM404.229 348.443H409.96C410.001 347.829 409.95 347.24 409.806 346.677C409.663 346.113 409.427 345.612 409.099 345.171C408.782 344.731 408.372 344.383 407.87 344.127C407.369 343.86 406.78 343.727 406.104 343.727C405.499 343.727 404.946 343.835 404.445 344.05C403.953 344.265 403.528 344.562 403.169 344.941C402.811 345.309 402.534 345.75 402.34 346.262C402.145 346.774 402.048 347.327 402.048 347.921C402.048 348.536 402.14 349.099 402.324 349.611C402.519 350.123 402.79 350.564 403.139 350.932C403.487 351.301 403.912 351.588 404.414 351.793C404.916 351.987 405.479 352.084 406.104 352.084C407.005 352.084 407.773 351.88 408.408 351.47C409.043 351.06 409.514 350.379 409.822 349.427H407.901C407.829 349.673 407.635 349.908 407.317 350.133C407 350.348 406.621 350.456 406.181 350.456C405.566 350.456 405.095 350.297 404.767 349.98C404.439 349.662 404.26 349.15 404.229 348.443ZM413.558 343.942V341.561H411.377V343.942H410.055V345.402H411.377V350.087C411.377 350.487 411.443 350.809 411.576 351.055C411.709 351.301 411.889 351.49 412.114 351.624C412.35 351.757 412.616 351.844 412.913 351.885C413.22 351.936 413.543 351.962 413.881 351.962C414.096 351.962 414.316 351.956 414.541 351.946C414.767 351.936 414.971 351.915 415.156 351.885V350.195C415.053 350.215 414.946 350.231 414.833 350.241C414.721 350.251 414.603 350.256 414.48 350.256C414.111 350.256 413.865 350.195 413.742 350.072C413.62 349.949 413.558 349.703 413.558 349.335V345.402H415.156V343.942H413.558ZM420.024 345.402V351.885H422.206V345.402H423.711V343.942H422.206V343.466C422.206 343.138 422.267 342.908 422.39 342.775C422.523 342.631 422.738 342.56 423.035 342.56C423.312 342.56 423.578 342.575 423.834 342.606V340.977C423.65 340.967 423.46 340.957 423.266 340.946C423.071 340.926 422.876 340.916 422.682 340.916C421.791 340.916 421.125 341.141 420.685 341.592C420.244 342.042 420.024 342.621 420.024 343.328V343.942H418.718V345.402H420.024ZM425.032 343.942V351.885H427.214V343.942H425.032ZM427.214 342.713V340.916H425.032V342.713H427.214ZM431.244 343.942V341.561H429.062V343.942H427.741V345.402H429.062V350.087C429.062 350.487 429.129 350.809 429.262 351.055C429.395 351.301 429.574 351.49 429.8 351.624C430.035 351.757 430.302 351.844 430.599 351.885C430.906 351.936 431.229 351.962 431.567 351.962C431.782 351.962 432.002 351.956 432.227 351.946C432.452 351.936 432.657 351.915 432.842 351.885V350.195C432.739 350.215 432.632 350.231 432.519 350.241C432.406 350.251 432.289 350.256 432.166 350.256C431.797 350.256 431.551 350.195 431.428 350.072C431.305 349.949 431.244 349.703 431.244 349.335V345.402H432.842V343.942H431.244Z" fill="white"/>
<path d="M372.302 94.2505V87.4294H369.89V94.2505C369.89 95.0698 369.726 95.6741 369.398 96.0633C369.07 96.4422 368.476 96.6317 367.616 96.6317C367.124 96.6317 366.73 96.5651 366.433 96.432C366.146 96.2886 365.921 96.1094 365.757 95.8943C365.593 95.669 365.486 95.4129 365.434 95.1262C365.383 94.8394 365.358 94.5475 365.358 94.2505V87.4294H362.946V94.2505C362.946 95.7458 363.35 96.8519 364.159 97.5688C364.979 98.2858 366.131 98.6442 367.616 98.6442C369.08 98.6442 370.228 98.2858 371.057 97.5688C371.887 96.8417 372.302 95.7356 372.302 94.2505ZM376.606 92.6527L372.781 98.3984H375.485L377.928 94.6038L380.324 98.3984H383.197L379.372 92.6681L382.89 87.4294H380.247L378.02 90.9321L375.869 87.4294H373.073L376.606 92.6527Z" fill="#104A99"/>
<path d="M317.808 164.697H320.22V168.906H324.66V164.697H327.072V175.666H324.66V170.934H320.22V175.666H317.808V164.697ZM330.87 175.866C330.491 175.866 330.137 175.82 329.81 175.727C329.482 175.635 329.195 175.492 328.949 175.297C328.704 175.103 328.509 174.857 328.366 174.56C328.232 174.263 328.166 173.91 328.166 173.5C328.166 173.049 328.243 172.681 328.396 172.394C328.56 172.097 328.765 171.861 329.011 171.687C329.267 171.513 329.554 171.385 329.871 171.303C330.199 171.211 330.527 171.139 330.854 171.088C331.182 171.037 331.505 170.996 331.822 170.965C332.14 170.934 332.421 170.888 332.667 170.827C332.913 170.765 333.108 170.678 333.251 170.566C333.394 170.443 333.461 170.269 333.451 170.043C333.451 169.818 333.41 169.634 333.328 169.49C333.256 169.347 333.154 169.239 333.021 169.168C332.898 169.086 332.749 169.034 332.575 169.014C332.411 168.983 332.232 168.968 332.037 168.968C331.607 168.968 331.269 169.06 331.023 169.244C330.778 169.429 330.634 169.736 330.593 170.166H328.412C328.442 169.664 328.57 169.244 328.796 168.906C329.021 168.558 329.308 168.282 329.656 168.077C330.004 167.872 330.393 167.729 330.824 167.647C331.254 167.554 331.694 167.508 332.145 167.508C332.544 167.508 332.949 167.539 333.358 167.601C333.768 167.652 334.142 167.759 334.48 167.923C334.818 168.087 335.094 168.317 335.31 168.614C335.525 168.911 335.632 169.296 335.632 169.767V173.899C335.632 174.258 335.653 174.601 335.694 174.929C335.735 175.256 335.806 175.502 335.909 175.666H333.696C333.656 175.543 333.62 175.42 333.589 175.297C333.568 175.164 333.553 175.031 333.543 174.898C333.195 175.256 332.785 175.507 332.314 175.651C331.843 175.794 331.361 175.866 330.87 175.866ZM331.684 174.422C332.114 174.422 332.447 174.35 332.683 174.207C332.918 174.063 333.092 173.894 333.205 173.7C333.318 173.495 333.384 173.29 333.405 173.085C333.435 172.88 333.451 172.716 333.451 172.593V171.779C333.358 171.861 333.246 171.928 333.113 171.979C332.98 172.02 332.831 172.056 332.667 172.086C332.503 172.117 332.334 172.143 332.16 172.163C331.986 172.184 331.812 172.209 331.638 172.24C331.464 172.271 331.3 172.312 331.146 172.363C330.993 172.414 330.854 172.486 330.731 172.578C330.619 172.66 330.527 172.768 330.455 172.901C330.383 173.034 330.347 173.203 330.347 173.408C330.347 173.613 330.383 173.782 330.455 173.915C330.527 174.038 330.624 174.14 330.747 174.222C330.87 174.294 331.013 174.345 331.177 174.376C331.341 174.406 331.51 174.422 331.684 174.422ZM340.644 175.866C339.876 175.866 339.241 175.722 338.739 175.436C338.237 175.149 337.838 174.775 337.541 174.314C337.254 173.853 337.054 173.336 336.941 172.762C336.829 172.189 336.772 171.61 336.772 171.026C336.772 170.33 336.803 169.664 336.865 169.029C336.926 168.384 337.069 167.8 337.295 167.278C337.52 166.756 337.843 166.305 338.263 165.926C338.693 165.537 339.271 165.245 339.999 165.05C340.224 164.989 340.485 164.948 340.782 164.927C341.089 164.907 341.381 164.881 341.658 164.851C341.934 164.82 342.165 164.779 342.349 164.728C342.544 164.666 342.646 164.569 342.656 164.436H344.577C344.536 164.927 344.428 165.317 344.254 165.603C344.09 165.89 343.85 166.121 343.532 166.295C343.215 166.459 342.825 166.581 342.364 166.663C341.904 166.735 341.361 166.802 340.736 166.863C340.244 166.914 339.83 167.032 339.492 167.216C339.154 167.401 338.877 167.636 338.662 167.923C338.447 168.2 338.283 168.517 338.17 168.876C338.068 169.224 337.996 169.593 337.955 169.982H338.001C338.094 169.715 338.222 169.449 338.385 169.183C338.56 168.917 338.775 168.676 339.031 168.461C339.287 168.246 339.589 168.072 339.937 167.939C340.285 167.795 340.685 167.723 341.135 167.723C341.637 167.723 342.108 167.821 342.549 168.015C342.999 168.21 343.389 168.486 343.716 168.845C344.044 169.203 344.3 169.634 344.485 170.135C344.679 170.627 344.776 171.18 344.776 171.795C344.776 172.419 344.679 172.983 344.485 173.484C344.3 173.986 344.029 174.417 343.67 174.775C343.312 175.123 342.877 175.395 342.364 175.589C341.852 175.774 341.279 175.866 340.644 175.866ZM340.797 174.237C341.351 174.237 341.786 174.027 342.103 173.607C342.431 173.187 342.595 172.578 342.595 171.779C342.595 171.001 342.436 170.397 342.119 169.966C341.801 169.526 341.351 169.306 340.767 169.306C340.214 169.306 339.778 169.526 339.461 169.966C339.143 170.407 338.985 171.016 338.985 171.795C338.985 172.593 339.143 173.203 339.461 173.623C339.789 174.032 340.234 174.237 340.797 174.237ZM349.591 175.866C348.967 175.866 348.403 175.768 347.902 175.574C347.4 175.379 346.97 175.103 346.611 174.744C346.253 174.376 345.976 173.935 345.781 173.423C345.587 172.911 345.49 172.337 345.49 171.702C345.49 171.067 345.587 170.494 345.781 169.982C345.976 169.459 346.253 169.019 346.611 168.661C346.97 168.292 347.4 168.01 347.902 167.816C348.403 167.611 348.967 167.508 349.591 167.508C350.216 167.508 350.78 167.611 351.281 167.816C351.793 168.01 352.229 168.292 352.587 168.661C352.946 169.019 353.222 169.459 353.417 169.982C353.611 170.494 353.709 171.067 353.709 171.702C353.709 172.337 353.611 172.911 353.417 173.423C353.222 173.935 352.946 174.376 352.587 174.744C352.229 175.103 351.793 175.379 351.281 175.574C350.78 175.768 350.216 175.866 349.591 175.866ZM349.591 174.237C349.96 174.237 350.267 174.166 350.513 174.022C350.769 173.879 350.969 173.689 351.112 173.454C351.266 173.208 351.374 172.937 351.435 172.64C351.496 172.332 351.527 172.02 351.527 171.702C351.527 171.385 351.496 171.073 351.435 170.765C351.374 170.458 351.266 170.187 351.112 169.951C350.969 169.715 350.769 169.526 350.513 169.383C350.267 169.229 349.96 169.152 349.591 169.152C349.223 169.152 348.915 169.229 348.67 169.383C348.424 169.526 348.224 169.715 348.071 169.951C347.927 170.187 347.825 170.458 347.763 170.765C347.702 171.073 347.671 171.385 347.671 171.702C347.671 172.02 347.702 172.332 347.763 172.64C347.825 172.937 347.927 173.208 348.071 173.454C348.224 173.689 348.424 173.879 348.67 174.022C348.915 174.166 349.223 174.237 349.591 174.237ZM354.666 167.723H356.74V168.737H356.771C357.037 168.307 357.375 167.995 357.785 167.8C358.195 167.606 358.645 167.508 359.137 167.508C359.762 167.508 360.299 167.626 360.75 167.862C361.201 168.097 361.574 168.41 361.871 168.799C362.168 169.188 362.389 169.644 362.532 170.166C362.675 170.678 362.747 171.216 362.747 171.779C362.747 172.312 362.675 172.824 362.532 173.316C362.389 173.807 362.168 174.242 361.871 174.621C361.585 175 361.221 175.302 360.781 175.528C360.35 175.753 359.843 175.866 359.26 175.866C358.768 175.866 358.312 175.768 357.892 175.574C357.483 175.369 357.145 175.072 356.878 174.683H356.848V178.447H354.666V167.723ZM358.676 174.237C359.034 174.237 359.331 174.166 359.567 174.022C359.813 173.879 360.007 173.694 360.151 173.469C360.304 173.234 360.412 172.967 360.473 172.67C360.535 172.363 360.566 172.046 360.566 171.718C360.566 171.4 360.53 171.088 360.458 170.781C360.397 170.473 360.289 170.202 360.135 169.966C359.982 169.721 359.782 169.526 359.536 169.383C359.301 169.229 359.009 169.152 358.661 169.152C358.302 169.152 358 169.229 357.754 169.383C357.519 169.526 357.324 169.715 357.17 169.951C357.027 170.187 356.925 170.463 356.863 170.781C356.802 171.088 356.771 171.4 356.771 171.718C356.771 172.046 356.802 172.363 356.863 172.67C356.935 172.967 357.042 173.234 357.186 173.469C357.339 173.694 357.534 173.879 357.77 174.022C358.015 174.166 358.317 174.237 358.676 174.237ZM372.067 175.128H372.021C371.867 175.323 371.637 175.497 371.329 175.651C371.022 175.794 370.705 175.866 370.377 175.866C369.783 175.866 369.281 175.748 368.871 175.512C368.462 175.267 368.129 174.949 367.873 174.56C367.627 174.16 367.448 173.705 367.335 173.193C367.222 172.67 367.166 172.133 367.166 171.58C367.166 170.955 367.238 170.391 367.381 169.89C367.535 169.388 367.745 168.963 368.011 168.614C368.277 168.256 368.6 167.985 368.979 167.8C369.368 167.606 369.798 167.508 370.269 167.508C370.73 167.508 371.109 167.59 371.406 167.754C371.703 167.918 371.908 168.108 372.021 168.323H372.067V164.697H374.248V168.323H374.294C374.407 168.108 374.612 167.918 374.909 167.754C375.206 167.59 375.585 167.508 376.046 167.508C376.517 167.508 376.942 167.606 377.321 167.8C377.71 167.985 378.038 168.256 378.304 168.614C378.57 168.963 378.775 169.388 378.919 169.89C379.072 170.391 379.149 170.955 379.149 171.58C379.149 172.133 379.093 172.67 378.98 173.193C378.867 173.705 378.683 174.16 378.427 174.56C378.181 174.949 377.854 175.267 377.444 175.512C377.034 175.748 376.532 175.866 375.938 175.866C375.611 175.866 375.293 175.794 374.986 175.651C374.679 175.497 374.448 175.323 374.294 175.128H374.248V178.447H372.067V175.128ZM370.884 174.237C371.212 174.237 371.478 174.16 371.683 174.007C371.898 173.853 372.026 173.674 372.067 173.469V169.997C371.964 169.68 371.79 169.459 371.545 169.337C371.299 169.214 371.058 169.152 370.823 169.152C370.3 169.152 369.921 169.372 369.686 169.813C369.46 170.253 369.348 170.857 369.348 171.626C369.348 171.953 369.368 172.276 369.409 172.593C369.46 172.901 369.542 173.177 369.655 173.423C369.778 173.669 369.937 173.869 370.131 174.022C370.326 174.166 370.577 174.237 370.884 174.237ZM375.431 174.237C375.739 174.237 375.99 174.166 376.184 174.022C376.379 173.869 376.532 173.669 376.645 173.423C376.768 173.177 376.85 172.901 376.891 172.593C376.942 172.276 376.968 171.953 376.968 171.626C376.968 170.857 376.85 170.253 376.614 169.813C376.389 169.372 376.015 169.152 375.493 169.152C375.257 169.152 375.017 169.214 374.771 169.337C374.525 169.459 374.351 169.68 374.248 169.997V173.469C374.289 173.674 374.412 173.853 374.617 174.007C374.832 174.16 375.104 174.237 375.431 174.237ZM381.291 178.447C381.066 178.447 380.841 178.436 380.615 178.416C380.4 178.406 380.18 178.39 379.955 178.37V176.572C380.129 176.593 380.308 176.608 380.493 176.619C380.687 176.639 380.877 176.649 381.061 176.649C381.389 176.649 381.64 176.557 381.814 176.373C381.988 176.188 382.075 175.953 382.075 175.666C382.075 175.492 382.044 175.328 381.983 175.174L379.202 167.723H381.522L383.319 173.162H383.35L385.086 167.723H387.344L384.026 176.649C383.79 177.294 383.463 177.755 383.043 178.032C382.623 178.308 382.039 178.447 381.291 178.447ZM387.614 167.723H389.796V170.612H392.883V167.723H395.065V175.666H392.883V172.332H389.796V175.666H387.614V167.723ZM396.26 167.723H398.441V170.965L401.36 167.723H403.926L400.608 171.226L404.356 175.666H401.714L398.902 172.363L398.441 172.87V175.666H396.26V167.723ZM410.858 175.666H404.621V167.723H406.802V174.022H409.736V167.723H411.918V174.022H412.901V177.848H410.858V175.666ZM413.416 167.723H415.506V173.1L418.501 167.723H420.975V175.666H418.886V170.289L415.89 175.666H413.416V167.723ZM422.167 167.723H424.257V173.1L427.252 167.723H429.726V175.666H427.636V170.289L424.641 175.666H422.167V167.723ZM425.931 166.771C425.573 166.771 425.235 166.73 424.917 166.648C424.61 166.566 424.338 166.438 424.103 166.264C423.867 166.08 423.678 165.849 423.534 165.573C423.401 165.296 423.335 164.958 423.335 164.559H424.963C424.984 164.907 425.066 165.163 425.209 165.327C425.352 165.491 425.593 165.573 425.931 165.573C426.259 165.573 426.499 165.496 426.653 165.342C426.807 165.178 426.889 164.917 426.899 164.559H428.527C428.527 164.958 428.456 165.296 428.312 165.573C428.179 165.849 427.995 166.08 427.759 166.264C427.524 166.438 427.247 166.566 426.93 166.648C426.612 166.73 426.279 166.771 425.931 166.771Z" fill="#104A99"/>
<path d="M287.106 264.227H278.949V253.258H281.361V262.199H285.662V253.258H288.074V262.199H289.288V266.731H287.106V264.227ZM293.481 264.426C292.856 264.426 292.293 264.329 291.791 264.134C291.289 263.93 290.864 263.643 290.516 263.274C290.168 262.905 289.897 262.465 289.702 261.953C289.518 261.441 289.425 260.877 289.425 260.263C289.425 259.669 289.523 259.116 289.717 258.604C289.912 258.092 290.188 257.651 290.547 257.283C290.905 256.904 291.33 256.607 291.822 256.392C292.324 256.176 292.877 256.069 293.481 256.069C294.116 256.069 294.674 256.187 295.156 256.422C295.647 256.658 296.052 256.975 296.369 257.375C296.697 257.764 296.943 258.22 297.107 258.742C297.271 259.264 297.353 259.807 297.353 260.37C297.353 260.442 297.353 260.514 297.353 260.586C297.353 260.647 297.348 260.714 297.337 260.785H291.607C291.638 261.492 291.817 262.004 292.145 262.322C292.472 262.639 292.944 262.798 293.558 262.798C293.998 262.798 294.377 262.69 294.695 262.475C295.012 262.25 295.207 262.014 295.279 261.769H297.199C296.892 262.721 296.421 263.402 295.786 263.812C295.151 264.221 294.382 264.426 293.481 264.426ZM295.156 259.403C295.053 258.85 294.869 258.43 294.603 258.143C294.347 257.856 293.952 257.713 293.42 257.713C293.061 257.713 292.769 257.774 292.544 257.897C292.319 258.01 292.134 258.153 291.991 258.327C291.858 258.501 291.761 258.686 291.699 258.88C291.648 259.075 291.617 259.249 291.607 259.403H295.156ZM298.17 256.284H300.352V259.172H303.44V256.284H305.621V264.227H303.44V260.893H300.352V264.227H298.17V256.284ZM306.816 256.284H308.998V259.172H312.085V256.284H314.267V264.227H312.085V260.893H308.998V264.227H306.816V256.284ZM319.318 264.426C318.693 264.426 318.13 264.329 317.628 264.134C317.126 263.94 316.696 263.663 316.337 263.305C315.979 262.936 315.702 262.496 315.508 261.984C315.313 261.471 315.216 260.898 315.216 260.263C315.216 259.628 315.313 259.054 315.508 258.542C315.702 258.02 315.979 257.58 316.337 257.221C316.696 256.852 317.126 256.571 317.628 256.376C318.13 256.171 318.693 256.069 319.318 256.069C319.943 256.069 320.506 256.171 321.008 256.376C321.52 256.571 321.955 256.852 322.314 257.221C322.672 257.58 322.949 258.02 323.143 258.542C323.338 259.054 323.435 259.628 323.435 260.263C323.435 260.898 323.338 261.471 323.143 261.984C322.949 262.496 322.672 262.936 322.314 263.305C321.955 263.663 321.52 263.94 321.008 264.134C320.506 264.329 319.943 264.426 319.318 264.426ZM319.318 262.798C319.687 262.798 319.994 262.726 320.24 262.583C320.496 262.439 320.695 262.25 320.839 262.014C320.992 261.769 321.1 261.497 321.161 261.2C321.223 260.893 321.254 260.58 321.254 260.263C321.254 259.945 321.223 259.633 321.161 259.326C321.1 259.019 320.992 258.747 320.839 258.512C320.695 258.276 320.496 258.087 320.24 257.943C319.994 257.79 319.687 257.713 319.318 257.713C318.949 257.713 318.642 257.79 318.396 257.943C318.15 258.087 317.951 258.276 317.797 258.512C317.654 258.747 317.551 259.019 317.49 259.326C317.428 259.633 317.398 259.945 317.398 260.263C317.398 260.58 317.428 260.893 317.49 261.2C317.551 261.497 317.654 261.769 317.797 262.014C317.951 262.25 318.15 262.439 318.396 262.583C318.642 262.726 318.949 262.798 319.318 262.798ZM328.157 264.426C327.552 264.426 327.004 264.329 326.513 264.134C326.021 263.93 325.601 263.648 325.253 263.289C324.905 262.931 324.633 262.506 324.439 262.014C324.244 261.512 324.147 260.965 324.147 260.37C324.147 259.756 324.234 259.188 324.408 258.665C324.592 258.133 324.859 257.677 325.207 257.298C325.555 256.909 325.98 256.607 326.482 256.392C326.984 256.176 327.557 256.069 328.203 256.069C328.674 256.069 329.124 256.13 329.555 256.253C329.995 256.376 330.384 256.566 330.722 256.822C331.07 257.067 331.352 257.38 331.567 257.759C331.782 258.138 331.905 258.578 331.936 259.08H329.8C329.657 258.168 329.119 257.713 328.187 257.713C327.839 257.713 327.547 257.795 327.312 257.959C327.076 258.112 326.881 258.317 326.728 258.573C326.584 258.819 326.482 259.095 326.421 259.403C326.359 259.71 326.328 260.007 326.328 260.294C326.328 260.58 326.359 260.872 326.421 261.169C326.482 261.466 326.579 261.738 326.712 261.984C326.856 262.219 327.045 262.414 327.281 262.567C327.516 262.721 327.803 262.798 328.141 262.798C328.663 262.798 329.063 262.654 329.339 262.368C329.626 262.071 329.805 261.676 329.877 261.185H331.982C331.838 262.24 331.429 263.044 330.753 263.597C330.077 264.15 329.211 264.426 328.157 264.426ZM334.689 257.928H332.077V256.284H339.482V257.928H336.871V264.227H334.689V257.928ZM340.004 256.284H342.185V259.172H345.273V256.284H347.455V264.227H345.273V260.893H342.185V264.227H340.004V256.284ZM352.506 264.426C351.881 264.426 351.318 264.329 350.816 264.134C350.314 263.94 349.884 263.663 349.525 263.305C349.167 262.936 348.89 262.496 348.696 261.984C348.501 261.471 348.404 260.898 348.404 260.263C348.404 259.628 348.501 259.054 348.696 258.542C348.89 258.02 349.167 257.58 349.525 257.221C349.884 256.852 350.314 256.571 350.816 256.376C351.318 256.171 351.881 256.069 352.506 256.069C353.13 256.069 353.694 256.171 354.196 256.376C354.708 256.571 355.143 256.852 355.501 257.221C355.86 257.58 356.136 258.02 356.331 258.542C356.526 259.054 356.623 259.628 356.623 260.263C356.623 260.898 356.526 261.471 356.331 261.984C356.136 262.496 355.86 262.936 355.501 263.305C355.143 263.663 354.708 263.94 354.196 264.134C353.694 264.329 353.13 264.426 352.506 264.426ZM352.506 262.798C352.874 262.798 353.182 262.726 353.427 262.583C353.684 262.439 353.883 262.25 354.027 262.014C354.18 261.769 354.288 261.497 354.349 261.2C354.411 260.893 354.441 260.58 354.441 260.263C354.441 259.945 354.411 259.633 354.349 259.326C354.288 259.019 354.18 258.747 354.027 258.512C353.883 258.276 353.684 258.087 353.427 257.943C353.182 257.79 352.874 257.713 352.506 257.713C352.137 257.713 351.83 257.79 351.584 257.943C351.338 258.087 351.138 258.276 350.985 258.512C350.841 258.747 350.739 259.019 350.678 259.326C350.616 259.633 350.585 259.945 350.585 260.263C350.585 260.58 350.616 260.893 350.678 261.2C350.739 261.497 350.841 261.769 350.985 262.014C351.138 262.25 351.338 262.439 351.584 262.583C351.83 262.726 352.137 262.798 352.506 262.798ZM361.252 264.426C360.627 264.426 360.064 264.329 359.562 264.134C359.06 263.93 358.635 263.643 358.287 263.274C357.939 262.905 357.668 262.465 357.473 261.953C357.289 261.441 357.196 260.877 357.196 260.263C357.196 259.669 357.294 259.116 357.488 258.604C357.683 258.092 357.959 257.651 358.318 257.283C358.676 256.904 359.101 256.607 359.593 256.392C360.095 256.176 360.648 256.069 361.252 256.069C361.887 256.069 362.445 256.187 362.927 256.422C363.418 256.658 363.823 256.975 364.14 257.375C364.468 257.764 364.714 258.22 364.878 258.742C365.042 259.264 365.124 259.807 365.124 260.37C365.124 260.442 365.124 260.514 365.124 260.586C365.124 260.647 365.119 260.714 365.108 260.785H359.378C359.409 261.492 359.588 262.004 359.916 262.322C360.243 262.639 360.715 262.798 361.329 262.798C361.769 262.798 362.148 262.69 362.466 262.475C362.783 262.25 362.978 262.014 363.05 261.769H364.97C364.663 262.721 364.192 263.402 363.557 263.812C362.922 264.221 362.153 264.426 361.252 264.426ZM362.927 259.403C362.824 258.85 362.64 258.43 362.374 258.143C362.118 257.856 361.723 257.713 361.191 257.713C360.832 257.713 360.54 257.774 360.315 257.897C360.09 258.01 359.905 258.153 359.762 258.327C359.629 258.501 359.532 258.686 359.47 258.88C359.419 259.075 359.388 259.249 359.378 259.403H362.927ZM369.756 256.284H377.053V264.227H374.872V257.928H371.938V264.227H369.756V256.284ZM378.252 256.284H380.326V257.298H380.357C380.623 256.868 380.961 256.555 381.371 256.361C381.78 256.166 382.231 256.069 382.722 256.069C383.347 256.069 383.885 256.187 384.336 256.422C384.786 256.658 385.16 256.97 385.457 257.359C385.754 257.749 385.974 258.204 386.118 258.727C386.261 259.239 386.333 259.776 386.333 260.34C386.333 260.872 386.261 261.384 386.118 261.876C385.974 262.368 385.754 262.803 385.457 263.182C385.17 263.561 384.807 263.863 384.366 264.088C383.936 264.314 383.429 264.426 382.845 264.426C382.354 264.426 381.898 264.329 381.478 264.134C381.068 263.93 380.73 263.633 380.464 263.243H380.433V267.007H378.252V256.284ZM382.262 262.798C382.62 262.798 382.917 262.726 383.153 262.583C383.398 262.439 383.593 262.255 383.736 262.03C383.89 261.794 383.998 261.528 384.059 261.231C384.12 260.924 384.151 260.606 384.151 260.278C384.151 259.961 384.115 259.648 384.044 259.341C383.982 259.034 383.875 258.763 383.721 258.527C383.567 258.281 383.368 258.087 383.122 257.943C382.886 257.79 382.594 257.713 382.246 257.713C381.888 257.713 381.586 257.79 381.34 257.943C381.104 258.087 380.91 258.276 380.756 258.512C380.613 258.747 380.51 259.024 380.449 259.341C380.387 259.648 380.357 259.961 380.357 260.278C380.357 260.606 380.387 260.924 380.449 261.231C380.52 261.528 380.628 261.794 380.771 262.03C380.925 262.255 381.12 262.439 381.355 262.583C381.601 262.726 381.903 262.798 382.262 262.798ZM390.854 264.426C390.23 264.426 389.666 264.329 389.165 264.134C388.663 263.93 388.238 263.643 387.889 263.274C387.541 262.905 387.27 262.465 387.075 261.953C386.891 261.441 386.799 260.877 386.799 260.263C386.799 259.669 386.896 259.116 387.091 258.604C387.285 258.092 387.562 257.651 387.92 257.283C388.279 256.904 388.704 256.607 389.195 256.392C389.697 256.176 390.25 256.069 390.854 256.069C391.489 256.069 392.048 256.187 392.529 256.422C393.021 256.658 393.425 256.975 393.743 257.375C394.07 257.764 394.316 258.22 394.48 258.742C394.644 259.264 394.726 259.807 394.726 260.37C394.726 260.442 394.726 260.514 394.726 260.586C394.726 260.647 394.721 260.714 394.71 260.785H388.98C389.011 261.492 389.19 262.004 389.518 262.322C389.846 262.639 390.317 262.798 390.931 262.798C391.372 262.798 391.751 262.69 392.068 262.475C392.386 262.25 392.58 262.014 392.652 261.769H394.572C394.265 262.721 393.794 263.402 393.159 263.812C392.524 264.221 391.756 264.426 390.854 264.426ZM392.529 259.403C392.427 258.85 392.242 258.43 391.976 258.143C391.72 257.856 391.326 257.713 390.793 257.713C390.435 257.713 390.143 257.774 389.917 257.897C389.692 258.01 389.508 258.153 389.364 258.327C389.231 258.501 389.134 258.686 389.072 258.88C389.021 259.075 388.99 259.249 388.98 259.403H392.529ZM394.821 262.583H395.774C395.887 262.357 395.999 262.076 396.112 261.738C396.235 261.4 396.342 261.021 396.434 260.601C396.537 260.181 396.619 259.725 396.68 259.234C396.742 258.742 396.772 258.225 396.772 257.682V256.284H403.117V262.583H404.147V266.408H402.103V264.227H396.865V266.408H394.821V262.583ZM400.936 262.583V257.912H398.8V258.112C398.8 258.604 398.77 259.075 398.708 259.526C398.657 259.976 398.585 260.396 398.493 260.785C398.401 261.164 398.304 261.507 398.201 261.815C398.099 262.122 398.001 262.378 397.909 262.583H400.936ZM405.007 264.349C404.915 264.349 404.772 264.334 404.577 264.303C404.383 264.273 404.229 264.237 404.116 264.196V262.552C404.178 262.572 404.249 262.588 404.331 262.598C404.413 262.598 404.495 262.598 404.577 262.598C404.761 262.598 404.925 262.542 405.069 262.429C405.222 262.306 405.345 262.076 405.437 261.738C405.54 261.4 405.617 260.918 405.668 260.294C405.729 259.669 405.76 258.85 405.76 257.836V256.284H412.212V264.227H410.031V257.928H407.788C407.747 259.054 407.68 260.022 407.588 260.831C407.496 261.64 407.348 262.306 407.143 262.829C406.948 263.351 406.677 263.735 406.328 263.981C405.991 264.227 405.55 264.349 405.007 264.349ZM417.261 264.426C416.636 264.426 416.073 264.329 415.571 264.134C415.069 263.94 414.639 263.663 414.281 263.305C413.922 262.936 413.646 262.496 413.451 261.984C413.257 261.471 413.159 260.898 413.159 260.263C413.159 259.628 413.257 259.054 413.451 258.542C413.646 258.02 413.922 257.58 414.281 257.221C414.639 256.852 415.069 256.571 415.571 256.376C416.073 256.171 416.636 256.069 417.261 256.069C417.886 256.069 418.449 256.171 418.951 256.376C419.463 256.571 419.898 256.852 420.257 257.221C420.615 257.58 420.892 258.02 421.087 258.542C421.281 259.054 421.378 259.628 421.378 260.263C421.378 260.898 421.281 261.471 421.087 261.984C420.892 262.496 420.615 262.936 420.257 263.305C419.898 263.663 419.463 263.94 418.951 264.134C418.449 264.329 417.886 264.426 417.261 264.426ZM417.261 262.798C417.63 262.798 417.937 262.726 418.183 262.583C418.439 262.439 418.639 262.25 418.782 262.014C418.936 261.769 419.043 261.497 419.105 261.2C419.166 260.893 419.197 260.58 419.197 260.263C419.197 259.945 419.166 259.633 419.105 259.326C419.043 259.019 418.936 258.747 418.782 258.512C418.639 258.276 418.439 258.087 418.183 257.943C417.937 257.79 417.63 257.713 417.261 257.713C416.892 257.713 416.585 257.79 416.339 257.943C416.094 258.087 415.894 258.276 415.74 258.512C415.597 258.747 415.494 259.019 415.433 259.326C415.372 259.633 415.341 259.945 415.341 260.263C415.341 260.58 415.372 260.893 415.433 261.2C415.494 261.497 415.597 261.769 415.74 262.014C415.894 262.25 416.094 262.439 416.339 262.583C416.585 262.726 416.892 262.798 417.261 262.798ZM424.533 259.771L421.737 256.284H424.149L426.714 259.602V256.284H428.773V259.602L431.339 256.284H433.751L430.847 259.695L434.058 264.227H431.538L429.249 260.801L428.773 261.415V264.227H426.714V261.538L426.146 260.801L423.949 264.227H421.43L424.533 259.771ZM438.014 264.426C437.389 264.426 436.826 264.329 436.324 264.134C435.822 263.93 435.397 263.643 435.049 263.274C434.701 262.905 434.429 262.465 434.235 261.953C434.05 261.441 433.958 260.877 433.958 260.263C433.958 259.669 434.056 259.116 434.25 258.604C434.445 258.092 434.721 257.651 435.08 257.283C435.438 256.904 435.863 256.607 436.355 256.392C436.857 256.176 437.41 256.069 438.014 256.069C438.649 256.069 439.207 256.187 439.689 256.422C440.18 256.658 440.585 256.975 440.902 257.375C441.23 257.764 441.476 258.22 441.64 258.742C441.804 259.264 441.885 259.807 441.885 260.37C441.885 260.442 441.885 260.514 441.885 260.586C441.885 260.647 441.88 260.714 441.87 260.785H436.14C436.171 261.492 436.35 262.004 436.677 262.322C437.005 262.639 437.476 262.798 438.091 262.798C438.531 262.798 438.91 262.69 439.228 262.475C439.545 262.25 439.74 262.014 439.812 261.769H441.732C441.425 262.721 440.953 263.402 440.318 263.812C439.683 264.221 438.915 264.426 438.014 264.426ZM439.689 259.403C439.586 258.85 439.402 258.43 439.136 258.143C438.879 257.856 438.485 257.713 437.953 257.713C437.594 257.713 437.302 257.774 437.077 257.897C436.852 258.01 436.667 258.153 436.524 258.327C436.391 258.501 436.293 258.686 436.232 258.88C436.181 259.075 436.15 259.249 436.14 259.403H439.689ZM442.703 256.284H444.885V259.172H447.973V256.284H450.154V264.227H447.973V260.893H444.885V264.227H442.703V256.284ZM451.349 256.284H453.438V261.661L456.434 256.284H458.907V264.227H456.818V258.85L453.822 264.227H451.349V256.284ZM463.771 264.426C463.147 264.426 462.583 264.329 462.081 264.134C461.58 263.93 461.155 263.643 460.806 263.274C460.458 262.905 460.187 262.465 459.992 261.953C459.808 261.441 459.716 260.877 459.716 260.263C459.716 259.669 459.813 259.116 460.007 258.604C460.202 258.092 460.479 257.651 460.837 257.283C461.196 256.904 461.621 256.607 462.112 256.392C462.614 256.176 463.167 256.069 463.771 256.069C464.406 256.069 464.965 256.187 465.446 256.422C465.938 256.658 466.342 256.975 466.66 257.375C466.987 257.764 467.233 258.22 467.397 258.742C467.561 259.264 467.643 259.807 467.643 260.37C467.643 260.442 467.643 260.514 467.643 260.586C467.643 260.647 467.638 260.714 467.627 260.785H461.897C461.928 261.492 462.107 262.004 462.435 262.322C462.763 262.639 463.234 262.798 463.848 262.798C464.289 262.798 464.668 262.69 464.985 262.475C465.303 262.25 465.497 262.014 465.569 261.769H467.489C467.182 262.721 466.711 263.402 466.076 263.812C465.441 264.221 464.673 264.426 463.771 264.426ZM465.446 259.403C465.343 258.85 465.159 258.43 464.893 258.143C464.637 257.856 464.242 257.713 463.71 257.713C463.351 257.713 463.06 257.774 462.834 257.897C462.609 258.01 462.425 258.153 462.281 258.327C462.148 258.501 462.051 258.686 461.989 258.88C461.938 259.075 461.907 259.249 461.897 259.403H465.446Z" fill="#104A99"/>
<path d="M207.105 429.48H209.517V433.69H213.957V429.48H216.369V440.449H213.957V435.717H209.517V440.449H207.105V429.48ZM221.472 440.649C220.848 440.649 220.284 440.552 219.783 440.357C219.281 440.152 218.856 439.865 218.507 439.497C218.159 439.128 217.888 438.688 217.693 438.176C217.509 437.663 217.417 437.1 217.417 436.486C217.417 435.892 217.514 435.339 217.709 434.826C217.903 434.314 218.18 433.874 218.538 433.505C218.897 433.126 219.322 432.829 219.813 432.614C220.315 432.399 220.868 432.292 221.472 432.292C222.107 432.292 222.666 432.409 223.147 432.645C223.639 432.88 224.043 433.198 224.361 433.597C224.688 433.987 224.934 434.442 225.098 434.965C225.262 435.487 225.344 436.03 225.344 436.593C225.344 436.665 225.344 436.737 225.344 436.808C225.344 436.87 225.339 436.936 225.328 437.008H219.598C219.629 437.715 219.808 438.227 220.136 438.544C220.464 438.862 220.935 439.02 221.549 439.02C221.99 439.02 222.369 438.913 222.686 438.698C223.004 438.473 223.198 438.237 223.27 437.991H225.19C224.883 438.944 224.412 439.625 223.777 440.034C223.142 440.444 222.374 440.649 221.472 440.649ZM223.147 435.625C223.045 435.072 222.86 434.652 222.594 434.366C222.338 434.079 221.944 433.935 221.411 433.935C221.053 433.935 220.761 433.997 220.535 434.12C220.31 434.232 220.126 434.376 219.982 434.55C219.849 434.724 219.752 434.908 219.69 435.103C219.639 435.298 219.608 435.472 219.598 435.625H223.147ZM225.439 438.805H226.392C226.505 438.58 226.617 438.298 226.73 437.96C226.853 437.622 226.96 437.244 227.052 436.824C227.155 436.404 227.237 435.948 227.298 435.456C227.36 434.965 227.39 434.447 227.39 433.905V432.507H233.735V438.805H234.765V442.631H232.721V440.449H227.483V442.631H225.439V438.805ZM231.554 438.805V434.135H229.418V434.335C229.418 434.826 229.388 435.298 229.326 435.748C229.275 436.199 229.203 436.619 229.111 437.008C229.019 437.387 228.922 437.73 228.819 438.037C228.717 438.345 228.619 438.601 228.527 438.805H231.554ZM239.143 440.649C238.519 440.649 237.955 440.552 237.453 440.357C236.952 440.162 236.521 439.886 236.163 439.527C235.805 439.159 235.528 438.718 235.333 438.206C235.139 437.694 235.042 437.121 235.042 436.486C235.042 435.851 235.139 435.277 235.333 434.765C235.528 434.243 235.805 433.802 236.163 433.444C236.521 433.075 236.952 432.793 237.453 432.599C237.955 432.394 238.519 432.292 239.143 432.292C239.768 432.292 240.331 432.394 240.833 432.599C241.345 432.793 241.781 433.075 242.139 433.444C242.498 433.802 242.774 434.243 242.969 434.765C243.163 435.277 243.261 435.851 243.261 436.486C243.261 437.121 243.163 437.694 242.969 438.206C242.774 438.718 242.498 439.159 242.139 439.527C241.781 439.886 241.345 440.162 240.833 440.357C240.331 440.552 239.768 440.649 239.143 440.649ZM239.143 439.02C239.512 439.02 239.819 438.949 240.065 438.805C240.321 438.662 240.521 438.473 240.664 438.237C240.818 437.991 240.925 437.72 240.987 437.423C241.048 437.115 241.079 436.803 241.079 436.486C241.079 436.168 241.048 435.856 240.987 435.548C240.925 435.241 240.818 434.97 240.664 434.734C240.521 434.499 240.321 434.309 240.065 434.166C239.819 434.012 239.512 433.935 239.143 433.935C238.775 433.935 238.467 434.012 238.222 434.166C237.976 434.309 237.776 434.499 237.622 434.734C237.479 434.97 237.377 435.241 237.315 435.548C237.254 435.856 237.223 436.168 237.223 436.486C237.223 436.803 237.254 437.115 237.315 437.423C237.377 437.72 237.479 437.991 237.622 438.237C237.776 438.473 237.976 438.662 238.222 438.805C238.467 438.949 238.775 439.02 239.143 439.02ZM247.982 440.649C247.378 440.649 246.83 440.552 246.338 440.357C245.847 440.152 245.427 439.871 245.078 439.512C244.73 439.154 244.459 438.729 244.264 438.237C244.07 437.735 243.972 437.187 243.972 436.593C243.972 435.979 244.059 435.41 244.234 434.888C244.418 434.355 244.684 433.9 245.032 433.521C245.381 433.131 245.806 432.829 246.307 432.614C246.809 432.399 247.383 432.292 248.028 432.292C248.499 432.292 248.95 432.353 249.38 432.476C249.82 432.599 250.21 432.788 250.548 433.044C250.896 433.29 251.178 433.603 251.393 433.981C251.608 434.36 251.731 434.801 251.761 435.303H249.626C249.482 434.391 248.945 433.935 248.013 433.935C247.665 433.935 247.373 434.017 247.137 434.181C246.902 434.335 246.707 434.54 246.553 434.796C246.41 435.042 246.307 435.318 246.246 435.625C246.185 435.933 246.154 436.23 246.154 436.516C246.154 436.803 246.185 437.095 246.246 437.392C246.307 437.689 246.405 437.96 246.538 438.206C246.681 438.442 246.871 438.636 247.106 438.79C247.342 438.944 247.629 439.02 247.967 439.02C248.489 439.02 248.888 438.877 249.165 438.59C249.452 438.293 249.631 437.899 249.703 437.407H251.807C251.664 438.462 251.254 439.266 250.578 439.819C249.902 440.372 249.037 440.649 247.982 440.649ZM254.515 434.15H251.903V432.507H259.308V434.15H256.696V440.449H254.515V434.15ZM262.195 440.649C261.816 440.649 261.463 440.603 261.135 440.511C260.808 440.418 260.521 440.275 260.275 440.081C260.029 439.886 259.835 439.64 259.691 439.343C259.558 439.046 259.491 438.693 259.491 438.283C259.491 437.832 259.568 437.464 259.722 437.177C259.886 436.88 260.091 436.644 260.336 436.47C260.592 436.296 260.879 436.168 261.197 436.086C261.524 435.994 261.852 435.922 262.18 435.871C262.508 435.82 262.83 435.779 263.148 435.748C263.465 435.717 263.747 435.671 263.993 435.61C264.239 435.548 264.433 435.461 264.577 435.349C264.72 435.226 264.786 435.052 264.776 434.826C264.776 434.601 264.735 434.417 264.653 434.273C264.582 434.13 264.479 434.022 264.346 433.951C264.223 433.869 264.075 433.818 263.901 433.797C263.737 433.766 263.557 433.751 263.363 433.751C262.933 433.751 262.595 433.843 262.349 434.028C262.103 434.212 261.96 434.519 261.919 434.949H259.737C259.768 434.447 259.896 434.028 260.121 433.69C260.347 433.341 260.633 433.065 260.982 432.86C261.33 432.655 261.719 432.512 262.149 432.43C262.579 432.338 263.02 432.292 263.47 432.292C263.87 432.292 264.274 432.322 264.684 432.384C265.094 432.435 265.468 432.542 265.806 432.706C266.144 432.87 266.42 433.101 266.635 433.398C266.85 433.695 266.958 434.079 266.958 434.55V438.682C266.958 439.041 266.978 439.384 267.019 439.712C267.06 440.04 267.132 440.285 267.234 440.449H265.022C264.981 440.326 264.945 440.203 264.914 440.081C264.894 439.947 264.879 439.814 264.868 439.681C264.52 440.04 264.111 440.29 263.639 440.434C263.168 440.577 262.687 440.649 262.195 440.649ZM263.01 439.205C263.44 439.205 263.773 439.133 264.008 438.99C264.244 438.846 264.418 438.677 264.53 438.483C264.643 438.278 264.71 438.073 264.73 437.868C264.761 437.663 264.776 437.5 264.776 437.377V436.562C264.684 436.644 264.571 436.711 264.438 436.762C264.305 436.803 264.157 436.839 263.993 436.87C263.829 436.9 263.66 436.926 263.486 436.946C263.312 436.967 263.138 436.993 262.963 437.023C262.789 437.054 262.625 437.095 262.472 437.146C262.318 437.197 262.18 437.269 262.057 437.361C261.944 437.443 261.852 437.551 261.78 437.684C261.709 437.817 261.673 437.986 261.673 438.191C261.673 438.396 261.709 438.565 261.78 438.698C261.852 438.821 261.949 438.923 262.072 439.005C262.195 439.077 262.339 439.128 262.503 439.159C262.666 439.189 262.835 439.205 263.01 439.205ZM270.126 434.15H267.514V432.507H274.919V434.15H272.307V440.449H270.126V434.15ZM279.297 440.649C278.672 440.649 278.109 440.552 277.607 440.357C277.105 440.162 276.675 439.886 276.316 439.527C275.958 439.159 275.681 438.718 275.487 438.206C275.292 437.694 275.195 437.121 275.195 436.486C275.195 435.851 275.292 435.277 275.487 434.765C275.681 434.243 275.958 433.802 276.316 433.444C276.675 433.075 277.105 432.793 277.607 432.599C278.109 432.394 278.672 432.292 279.297 432.292C279.921 432.292 280.485 432.394 280.987 432.599C281.499 432.793 281.934 433.075 282.292 433.444C282.651 433.802 282.927 434.243 283.122 434.765C283.317 435.277 283.414 435.851 283.414 436.486C283.414 437.121 283.317 437.694 283.122 438.206C282.927 438.718 282.651 439.159 282.292 439.527C281.934 439.886 281.499 440.162 280.987 440.357C280.485 440.552 279.921 440.649 279.297 440.649ZM279.297 439.02C279.665 439.02 279.973 438.949 280.218 438.805C280.475 438.662 280.674 438.473 280.818 438.237C280.971 437.991 281.079 437.72 281.14 437.423C281.202 437.115 281.232 436.803 281.232 436.486C281.232 436.168 281.202 435.856 281.14 435.548C281.079 435.241 280.971 434.97 280.818 434.734C280.674 434.499 280.475 434.309 280.218 434.166C279.973 434.012 279.665 433.935 279.297 433.935C278.928 433.935 278.621 434.012 278.375 434.166C278.129 434.309 277.929 434.499 277.776 434.734C277.632 434.97 277.53 435.241 277.469 435.548C277.407 435.856 277.376 436.168 277.376 436.486C277.376 436.803 277.407 437.115 277.469 437.423C277.53 437.72 277.632 437.991 277.776 438.237C277.929 438.473 278.129 438.662 278.375 438.805C278.621 438.949 278.928 439.02 279.297 439.02ZM289.349 437.53C289.144 437.592 288.842 437.669 288.443 437.761C288.043 437.843 287.628 437.884 287.198 437.884C286.113 437.884 285.334 437.633 284.863 437.131C284.392 436.629 284.156 435.948 284.156 435.088V432.507H286.323V434.642C286.323 435.226 286.435 435.63 286.661 435.856C286.886 436.081 287.255 436.194 287.767 436.194C288.084 436.194 288.381 436.168 288.658 436.117C288.934 436.066 289.165 436.014 289.349 435.963V432.507H291.531V440.449H289.349V437.53ZM292.732 432.507H294.914V435.395H298.002V432.507H300.183V440.449H298.002V437.115H294.914V440.449H292.732V432.507ZM305.234 440.649C304.609 440.649 304.046 440.552 303.544 440.357C303.042 440.162 302.612 439.886 302.254 439.527C301.895 439.159 301.619 438.718 301.424 438.206C301.23 437.694 301.132 437.121 301.132 436.486C301.132 435.851 301.23 435.277 301.424 434.765C301.619 434.243 301.895 433.802 302.254 433.444C302.612 433.075 303.042 432.793 303.544 432.599C304.046 432.394 304.609 432.292 305.234 432.292C305.859 432.292 306.422 432.394 306.924 432.599C307.436 432.793 307.871 433.075 308.23 433.444C308.588 433.802 308.865 434.243 309.059 434.765C309.254 435.277 309.351 435.851 309.351 436.486C309.351 437.121 309.254 437.694 309.059 438.206C308.865 438.718 308.588 439.159 308.23 439.527C307.871 439.886 307.436 440.162 306.924 440.357C306.422 440.552 305.859 440.649 305.234 440.649ZM305.234 439.02C305.603 439.02 305.91 438.949 306.156 438.805C306.412 438.662 306.612 438.473 306.755 438.237C306.909 437.991 307.016 437.72 307.078 437.423C307.139 437.115 307.17 436.803 307.17 436.486C307.17 436.168 307.139 435.856 307.078 435.548C307.016 435.241 306.909 434.97 306.755 434.734C306.612 434.499 306.412 434.309 306.156 434.166C305.91 434.012 305.603 433.935 305.234 433.935C304.865 433.935 304.558 434.012 304.312 434.166C304.067 434.309 303.867 434.499 303.713 434.734C303.57 434.97 303.467 435.241 303.406 435.548C303.344 435.856 303.314 436.168 303.314 436.486C303.314 436.803 303.344 437.115 303.406 437.423C303.467 437.72 303.57 437.991 303.713 438.237C303.867 438.473 304.067 438.662 304.312 438.805C304.558 438.949 304.865 439.02 305.234 439.02ZM315.307 443.23C315.081 443.23 314.856 443.22 314.631 443.199C314.416 443.189 314.195 443.174 313.97 443.153V441.356C314.144 441.376 314.323 441.391 314.508 441.402C314.702 441.422 314.892 441.432 315.076 441.432C315.404 441.432 315.655 441.34 315.829 441.156C316.003 440.972 316.09 440.736 316.09 440.449C316.09 440.275 316.059 440.111 315.998 439.958L313.217 432.507H315.537L317.335 437.945H317.365L319.101 432.507H321.36L318.041 441.432C317.806 442.078 317.478 442.539 317.058 442.815C316.638 443.092 316.054 443.23 315.307 443.23ZM320.907 438.805H321.86C321.972 438.58 322.085 438.298 322.198 437.96C322.321 437.622 322.428 437.244 322.52 436.824C322.623 436.404 322.705 435.948 322.766 435.456C322.828 434.965 322.858 434.447 322.858 433.905V432.507H329.203V438.805H330.232V442.631H328.189V440.449H322.951V442.631H320.907V438.805ZM327.022 438.805V434.135H324.886V434.335C324.886 434.826 324.856 435.298 324.794 435.748C324.743 436.199 324.671 436.619 324.579 437.008C324.487 437.387 324.389 437.73 324.287 438.037C324.185 438.345 324.087 438.601 323.995 438.805H327.022ZM334.611 440.649C333.986 440.649 333.423 440.552 332.921 440.357C332.419 440.162 331.989 439.886 331.631 439.527C331.272 439.159 330.996 438.718 330.801 438.206C330.607 437.694 330.509 437.121 330.509 436.486C330.509 435.851 330.607 435.277 330.801 434.765C330.996 434.243 331.272 433.802 331.631 433.444C331.989 433.075 332.419 432.793 332.921 432.599C333.423 432.394 333.986 432.292 334.611 432.292C335.236 432.292 335.799 432.394 336.301 432.599C336.813 432.793 337.249 433.075 337.607 433.444C337.965 433.802 338.242 434.243 338.437 434.765C338.631 435.277 338.728 435.851 338.728 436.486C338.728 437.121 338.631 437.694 338.437 438.206C338.242 438.718 337.965 439.159 337.607 439.527C337.249 439.886 336.813 440.162 336.301 440.357C335.799 440.552 335.236 440.649 334.611 440.649ZM334.611 439.02C334.98 439.02 335.287 438.949 335.533 438.805C335.789 438.662 335.989 438.473 336.132 438.237C336.286 437.991 336.393 437.72 336.455 437.423C336.516 437.115 336.547 436.803 336.547 436.486C336.547 436.168 336.516 435.856 336.455 435.548C336.393 435.241 336.286 434.97 336.132 434.734C335.989 434.499 335.789 434.309 335.533 434.166C335.287 434.012 334.98 433.935 334.611 433.935C334.243 433.935 333.935 434.012 333.689 434.166C333.444 434.309 333.244 434.499 333.09 434.734C332.947 434.97 332.845 435.241 332.783 435.548C332.722 435.856 332.691 436.168 332.691 436.486C332.691 436.803 332.722 437.115 332.783 437.423C332.845 437.72 332.947 437.991 333.09 438.237C333.244 438.473 333.444 438.662 333.689 438.805C333.935 438.949 334.243 439.02 334.611 439.02ZM339.747 432.507H344.31C344.658 432.507 344.986 432.548 345.293 432.63C345.601 432.701 345.867 432.819 346.092 432.983C346.328 433.137 346.512 433.341 346.645 433.597C346.779 433.853 346.845 434.156 346.845 434.504C346.845 434.893 346.748 435.231 346.553 435.518C346.359 435.794 346.097 436.004 345.77 436.148C346.179 436.26 346.522 436.475 346.799 436.793C347.076 437.1 347.214 437.53 347.214 438.083C347.214 438.473 347.142 438.816 346.999 439.113C346.866 439.399 346.676 439.645 346.43 439.85C346.184 440.045 345.898 440.193 345.57 440.296C345.242 440.398 344.894 440.449 344.525 440.449H339.747V432.507ZM343.511 439.036C343.696 439.036 343.875 439.026 344.049 439.005C344.223 438.974 344.377 438.923 344.51 438.851C344.643 438.78 344.751 438.677 344.833 438.544C344.914 438.401 344.955 438.216 344.955 437.991C344.955 437.766 344.909 437.581 344.817 437.438C344.735 437.295 344.623 437.187 344.479 437.115C344.336 437.044 344.172 436.998 343.988 436.977C343.803 436.946 343.614 436.931 343.419 436.931H341.898V439.036H343.511ZM343.342 435.702C343.506 435.702 343.665 435.692 343.819 435.671C343.972 435.651 344.111 435.61 344.233 435.548C344.356 435.477 344.454 435.385 344.525 435.272C344.597 435.149 344.633 434.985 344.633 434.78C344.633 434.586 344.597 434.432 344.525 434.319C344.454 434.197 344.356 434.104 344.233 434.043C344.121 433.981 343.982 433.941 343.819 433.92C343.665 433.9 343.506 433.889 343.342 433.889H341.898V435.702H343.342ZM348.49 440.572C348.398 440.572 348.254 440.557 348.06 440.526C347.865 440.495 347.711 440.459 347.599 440.418V438.775C347.66 438.795 347.732 438.811 347.814 438.821C347.896 438.821 347.978 438.821 348.06 438.821C348.244 438.821 348.408 438.764 348.551 438.652C348.705 438.529 348.828 438.298 348.92 437.96C349.022 437.622 349.099 437.141 349.15 436.516C349.212 435.892 349.243 435.072 349.243 434.058V432.507H355.695V440.449H353.513V434.15H351.27C351.229 435.277 351.163 436.245 351.071 437.054C350.979 437.863 350.83 438.529 350.625 439.051C350.431 439.574 350.159 439.958 349.811 440.203C349.473 440.449 349.033 440.572 348.49 440.572ZM360.559 440.649C359.935 440.649 359.371 440.552 358.869 440.357C358.368 440.152 357.942 439.865 357.594 439.497C357.246 439.128 356.975 438.688 356.78 438.176C356.596 437.663 356.504 437.1 356.504 436.486C356.504 435.892 356.601 435.339 356.795 434.826C356.99 434.314 357.267 433.874 357.625 433.505C357.983 433.126 358.408 432.829 358.9 432.614C359.402 432.399 359.955 432.292 360.559 432.292C361.194 432.292 361.752 432.409 362.234 432.645C362.725 432.88 363.13 433.198 363.447 433.597C363.775 433.987 364.021 434.442 364.185 434.965C364.349 435.487 364.431 436.03 364.431 436.593C364.431 436.665 364.431 436.737 364.431 436.808C364.431 436.87 364.426 436.936 364.415 437.008H358.685C358.716 437.715 358.895 438.227 359.223 438.544C359.55 438.862 360.022 439.02 360.636 439.02C361.077 439.02 361.455 438.913 361.773 438.698C362.09 438.473 362.285 438.237 362.357 437.991H364.277C363.97 438.944 363.499 439.625 362.864 440.034C362.229 440.444 361.461 440.649 360.559 440.649ZM362.234 435.625C362.131 435.072 361.947 434.652 361.681 434.366C361.425 434.079 361.03 433.935 360.498 433.935C360.139 433.935 359.847 433.997 359.622 434.12C359.397 434.232 359.212 434.376 359.069 434.55C358.936 434.724 358.839 434.908 358.777 435.103C358.726 435.298 358.695 435.472 358.685 435.625H362.234ZM367.184 434.15H364.572V432.507H371.977V434.15H369.366V440.449H367.184V434.15ZM372.56 432.507H377.123C377.471 432.507 377.799 432.548 378.106 432.63C378.414 432.701 378.68 432.819 378.905 432.983C379.141 433.137 379.325 433.341 379.458 433.597C379.591 433.853 379.658 434.156 379.658 434.504C379.658 434.893 379.561 435.231 379.366 435.518C379.171 435.794 378.91 436.004 378.583 436.148C378.992 436.26 379.335 436.475 379.612 436.793C379.888 437.1 380.027 437.53 380.027 438.083C380.027 438.473 379.955 438.816 379.812 439.113C379.678 439.399 379.489 439.645 379.243 439.85C378.997 440.045 378.711 440.193 378.383 440.296C378.055 440.398 377.707 440.449 377.338 440.449H372.56V432.507ZM376.324 439.036C376.509 439.036 376.688 439.026 376.862 439.005C377.036 438.974 377.19 438.923 377.323 438.851C377.456 438.78 377.563 438.677 377.645 438.544C377.727 438.401 377.768 438.216 377.768 437.991C377.768 437.766 377.722 437.581 377.63 437.438C377.548 437.295 377.435 437.187 377.292 437.115C377.149 437.044 376.985 436.998 376.8 436.977C376.616 436.946 376.427 436.931 376.232 436.931H374.711V439.036H376.324ZM376.155 435.702C376.319 435.702 376.478 435.692 376.631 435.671C376.785 435.651 376.923 435.61 377.046 435.548C377.169 435.477 377.266 435.385 377.338 435.272C377.41 435.149 377.446 434.985 377.446 434.78C377.446 434.586 377.41 434.432 377.338 434.319C377.266 434.197 377.169 434.104 377.046 434.043C376.934 433.981 376.795 433.941 376.631 433.92C376.478 433.9 376.319 433.889 376.155 433.889H374.711V435.702H376.155ZM384.821 440.649C384.196 440.649 383.633 440.552 383.131 440.357C382.629 440.162 382.199 439.886 381.84 439.527C381.482 439.159 381.205 438.718 381.011 438.206C380.816 437.694 380.719 437.121 380.719 436.486C380.719 435.851 380.816 435.277 381.011 434.765C381.205 434.243 381.482 433.802 381.84 433.444C382.199 433.075 382.629 432.793 383.131 432.599C383.633 432.394 384.196 432.292 384.821 432.292C385.445 432.292 386.009 432.394 386.511 432.599C387.023 432.793 387.458 433.075 387.816 433.444C388.175 433.802 388.451 434.243 388.646 434.765C388.841 435.277 388.938 435.851 388.938 436.486C388.938 437.121 388.841 437.694 388.646 438.206C388.451 438.718 388.175 439.159 387.816 439.527C387.458 439.886 387.023 440.162 386.511 440.357C386.009 440.552 385.445 440.649 384.821 440.649ZM384.821 439.02C385.189 439.02 385.497 438.949 385.742 438.805C385.998 438.662 386.198 438.473 386.342 438.237C386.495 437.991 386.603 437.72 386.664 437.423C386.726 437.115 386.756 436.803 386.756 436.486C386.756 436.168 386.726 435.856 386.664 435.548C386.603 435.241 386.495 434.97 386.342 434.734C386.198 434.499 385.998 434.309 385.742 434.166C385.497 434.012 385.189 433.935 384.821 433.935C384.452 433.935 384.145 434.012 383.899 434.166C383.653 434.309 383.453 434.499 383.3 434.734C383.156 434.97 383.054 435.241 382.992 435.548C382.931 435.856 382.9 436.168 382.9 436.486C382.9 436.803 382.931 437.115 382.992 437.423C383.054 437.72 383.156 437.991 383.3 438.237C383.453 438.473 383.653 438.662 383.899 438.805C384.145 438.949 384.452 439.02 384.821 439.02ZM389.895 432.507H391.969V433.521H392C392.266 433.09 392.604 432.778 393.014 432.583C393.424 432.389 393.874 432.292 394.366 432.292C394.991 432.292 395.528 432.409 395.979 432.645C396.43 432.88 396.804 433.193 397.101 433.582C397.398 433.971 397.618 434.427 397.761 434.949C397.905 435.461 397.976 435.999 397.976 436.562C397.976 437.095 397.905 437.607 397.761 438.099C397.618 438.59 397.398 439.026 397.101 439.405C396.814 439.783 396.45 440.086 396.01 440.311C395.58 440.536 395.073 440.649 394.489 440.649C393.997 440.649 393.542 440.552 393.122 440.357C392.712 440.152 392.374 439.855 392.108 439.466H392.077V443.23H389.895V432.507ZM393.905 439.02C394.264 439.02 394.561 438.949 394.796 438.805C395.042 438.662 395.237 438.478 395.38 438.252C395.534 438.017 395.641 437.75 395.703 437.453C395.764 437.146 395.795 436.829 395.795 436.501C395.795 436.183 395.759 435.871 395.687 435.564C395.626 435.257 395.518 434.985 395.365 434.75C395.211 434.504 395.011 434.309 394.765 434.166C394.53 434.012 394.238 433.935 393.89 433.935C393.531 433.935 393.229 434.012 392.983 434.166C392.748 434.309 392.553 434.499 392.4 434.734C392.256 434.97 392.154 435.246 392.092 435.564C392.031 435.871 392 436.183 392 436.501C392 436.829 392.031 437.146 392.092 437.453C392.164 437.75 392.272 438.017 392.415 438.252C392.569 438.478 392.763 438.662 392.999 438.805C393.244 438.949 393.547 439.02 393.905 439.02ZM402.498 440.649C401.873 440.649 401.31 440.552 400.808 440.357C400.306 440.152 399.881 439.865 399.533 439.497C399.185 439.128 398.913 438.688 398.719 438.176C398.534 437.663 398.442 437.1 398.442 436.486C398.442 435.892 398.539 435.339 398.734 434.826C398.929 434.314 399.205 433.874 399.564 433.505C399.922 433.126 400.347 432.829 400.839 432.614C401.341 432.399 401.894 432.292 402.498 432.292C403.133 432.292 403.691 432.409 404.173 432.645C404.664 432.88 405.069 433.198 405.386 433.597C405.714 433.987 405.96 434.442 406.124 434.965C406.287 435.487 406.369 436.03 406.369 436.593C406.369 436.665 406.369 436.737 406.369 436.808C406.369 436.87 406.364 436.936 406.354 437.008H400.624C400.654 437.715 400.834 438.227 401.161 438.544C401.489 438.862 401.96 439.02 402.575 439.02C403.015 439.02 403.394 438.913 403.712 438.698C404.029 438.473 404.224 438.237 404.295 437.991H406.216C405.909 438.944 405.437 439.625 404.802 440.034C404.167 440.444 403.399 440.649 402.498 440.649ZM404.173 435.625C404.07 435.072 403.886 434.652 403.619 434.366C403.363 434.079 402.969 433.935 402.437 433.935C402.078 433.935 401.786 433.997 401.561 434.12C401.336 434.232 401.151 434.376 401.008 434.55C400.875 434.724 400.777 434.908 400.716 435.103C400.665 435.298 400.634 435.472 400.624 435.625H404.173ZM407.187 432.507H409.368V435.395H412.456V432.507H414.638V440.449H412.456V437.115H409.368V440.449H407.187V432.507ZM415.833 432.507H418.014V435.395H421.102V432.507H423.284V440.449H421.102V437.115H418.014V440.449H415.833V432.507ZM424.479 432.507H426.66V435.241H428.765C429.164 435.241 429.538 435.298 429.886 435.41C430.245 435.513 430.552 435.677 430.808 435.902C431.074 436.117 431.284 436.388 431.438 436.716C431.592 437.034 431.668 437.407 431.668 437.838C431.668 438.278 431.592 438.662 431.438 438.99C431.295 439.317 431.085 439.589 430.808 439.804C430.542 440.019 430.224 440.183 429.856 440.296C429.497 440.398 429.103 440.449 428.673 440.449H424.479V432.507ZM428.15 438.944C428.55 438.944 428.867 438.857 429.103 438.682C429.349 438.508 429.471 438.227 429.471 437.838C429.471 437.448 429.343 437.167 429.087 436.993C428.831 436.808 428.514 436.716 428.135 436.716H426.66V438.944H428.15ZM432.605 432.507H434.772V440.449H432.605V432.507ZM439.647 440.649C439.022 440.649 438.458 440.552 437.957 440.357C437.455 440.152 437.03 439.865 436.682 439.497C436.333 439.128 436.062 438.688 435.867 438.176C435.683 437.663 435.591 437.1 435.591 436.486C435.591 435.892 435.688 435.339 435.883 434.826C436.077 434.314 436.354 433.874 436.712 433.505C437.071 433.126 437.496 432.829 437.987 432.614C438.489 432.399 439.042 432.292 439.647 432.292C440.282 432.292 440.84 432.409 441.321 432.645C441.813 432.88 442.217 433.198 442.535 433.597C442.863 433.987 443.108 434.442 443.272 434.965C443.436 435.487 443.518 436.03 443.518 436.593C443.518 436.665 443.518 436.737 443.518 436.808C443.518 436.87 443.513 436.936 443.503 437.008H437.772C437.803 437.715 437.982 438.227 438.31 438.544C438.638 438.862 439.109 439.02 439.723 439.02C440.164 439.02 440.543 438.913 440.86 438.698C441.178 438.473 441.372 438.237 441.444 437.991H443.364C443.057 438.944 442.586 439.625 441.951 440.034C441.316 440.444 440.548 440.649 439.647 440.649ZM441.321 435.625C441.219 435.072 441.034 434.652 440.768 434.366C440.512 434.079 440.118 433.935 439.585 433.935C439.227 433.935 438.935 433.997 438.709 434.12C438.484 434.232 438.3 434.376 438.156 434.55C438.023 434.724 437.926 434.908 437.864 435.103C437.813 435.298 437.783 435.472 437.772 435.625H441.321ZM448.15 432.507H455.448V440.449H453.266V434.15H450.332V440.449H448.15V432.507ZM460.502 440.649C459.878 440.649 459.314 440.552 458.812 440.357C458.311 440.162 457.88 439.886 457.522 439.527C457.163 439.159 456.887 438.718 456.692 438.206C456.498 437.694 456.4 437.121 456.4 436.486C456.4 435.851 456.498 435.277 456.692 434.765C456.887 434.243 457.163 433.802 457.522 433.444C457.88 433.075 458.311 432.793 458.812 432.599C459.314 432.394 459.878 432.292 460.502 432.292C461.127 432.292 461.69 432.394 462.192 432.599C462.704 432.793 463.14 433.075 463.498 433.444C463.857 433.802 464.133 434.243 464.328 434.765C464.522 435.277 464.62 435.851 464.62 436.486C464.62 437.121 464.522 437.694 464.328 438.206C464.133 438.718 463.857 439.159 463.498 439.527C463.14 439.886 462.704 440.162 462.192 440.357C461.69 440.552 461.127 440.649 460.502 440.649ZM460.502 439.02C460.871 439.02 461.178 438.949 461.424 438.805C461.68 438.662 461.88 438.473 462.023 438.237C462.177 437.991 462.284 437.72 462.346 437.423C462.407 437.115 462.438 436.803 462.438 436.486C462.438 436.168 462.407 435.856 462.346 435.548C462.284 435.241 462.177 434.97 462.023 434.734C461.88 434.499 461.68 434.309 461.424 434.166C461.178 434.012 460.871 433.935 460.502 433.935C460.134 433.935 459.826 434.012 459.581 434.166C459.335 434.309 459.135 434.499 458.981 434.734C458.838 434.97 458.736 435.241 458.674 435.548C458.613 435.856 458.582 436.168 458.582 436.486C458.582 436.803 458.613 437.115 458.674 437.423C458.736 437.72 458.838 437.991 458.981 438.237C459.135 438.473 459.335 438.662 459.581 438.805C459.826 438.949 460.134 439.02 460.502 439.02ZM467.513 434.15H464.901V432.507H472.306V434.15H469.694V440.449H467.513V434.15ZM472.828 432.507H474.902V433.521H474.932C475.199 433.09 475.537 432.778 475.946 432.583C476.356 432.389 476.807 432.292 477.298 432.292C477.923 432.292 478.461 432.409 478.911 432.645C479.362 432.88 479.736 433.193 480.033 433.582C480.33 433.971 480.55 434.427 480.693 434.949C480.837 435.461 480.908 435.999 480.908 436.562C480.908 437.095 480.837 437.607 480.693 438.099C480.55 438.59 480.33 439.026 480.033 439.405C479.746 439.783 479.382 440.086 478.942 440.311C478.512 440.536 478.005 440.649 477.421 440.649C476.929 440.649 476.474 440.552 476.054 440.357C475.644 440.152 475.306 439.855 475.04 439.466H475.009V443.23H472.828V432.507ZM476.837 439.02C477.196 439.02 477.493 438.949 477.728 438.805C477.974 438.662 478.169 438.478 478.312 438.252C478.466 438.017 478.573 437.75 478.635 437.453C478.696 437.146 478.727 436.829 478.727 436.501C478.727 436.183 478.691 435.871 478.619 435.564C478.558 435.257 478.45 434.985 478.297 434.75C478.143 434.504 477.943 434.309 477.698 434.166C477.462 434.012 477.17 433.935 476.822 433.935C476.463 433.935 476.161 434.012 475.916 434.166C475.68 434.309 475.485 434.499 475.332 434.734C475.188 434.97 475.086 435.246 475.024 435.564C474.963 435.871 474.932 436.183 474.932 436.501C474.932 436.829 474.963 437.146 475.024 437.453C475.096 437.75 475.204 438.017 475.347 438.252C475.501 438.478 475.695 438.662 475.931 438.805C476.177 438.949 476.479 439.02 476.837 439.02ZM485.43 440.649C484.805 440.649 484.242 440.552 483.74 440.357C483.238 440.152 482.813 439.865 482.465 439.497C482.117 439.128 481.845 438.688 481.651 438.176C481.467 437.663 481.374 437.1 481.374 436.486C481.374 435.892 481.472 435.339 481.666 434.826C481.861 434.314 482.137 433.874 482.496 433.505C482.854 433.126 483.279 432.829 483.771 432.614C484.273 432.399 484.826 432.292 485.43 432.292C486.065 432.292 486.623 432.409 487.105 432.645C487.596 432.88 488.001 433.198 488.318 433.597C488.646 433.987 488.892 434.442 489.056 434.965C489.22 435.487 489.302 436.03 489.302 436.593C489.302 436.665 489.302 436.737 489.302 436.808C489.302 436.87 489.296 436.936 489.286 437.008H483.556C483.587 437.715 483.766 438.227 484.094 438.544C484.421 438.862 484.892 439.02 485.507 439.02C485.947 439.02 486.326 438.913 486.644 438.698C486.961 438.473 487.156 438.237 487.228 437.991H489.148C488.841 438.944 488.37 439.625 487.735 440.034C487.1 440.444 486.331 440.649 485.43 440.649ZM487.105 435.625C487.002 435.072 486.818 434.652 486.552 434.366C486.296 434.079 485.901 433.935 485.369 433.935C485.01 433.935 484.718 433.997 484.493 434.12C484.268 434.232 484.083 434.376 483.94 434.55C483.807 434.724 483.71 434.908 483.648 435.103C483.597 435.298 483.566 435.472 483.556 435.625H487.105ZM493.898 440.649C493.13 440.649 492.495 440.506 491.993 440.219C491.492 439.932 491.092 439.558 490.795 439.097C490.508 438.636 490.309 438.119 490.196 437.546C490.083 436.972 490.027 436.393 490.027 435.81C490.027 435.113 490.058 434.447 490.119 433.812C490.181 433.167 490.324 432.583 490.549 432.061C490.775 431.539 491.097 431.088 491.517 430.709C491.947 430.32 492.526 430.028 493.253 429.834C493.478 429.772 493.74 429.731 494.037 429.711C494.344 429.69 494.636 429.665 494.912 429.634C495.189 429.603 495.419 429.562 495.604 429.511C495.798 429.449 495.901 429.352 495.911 429.219H497.831C497.79 429.711 497.683 430.1 497.509 430.387C497.345 430.673 497.104 430.904 496.787 431.078C496.469 431.242 496.08 431.365 495.619 431.447C495.158 431.518 494.615 431.585 493.991 431.646C493.499 431.698 493.084 431.815 492.746 432C492.408 432.184 492.132 432.42 491.917 432.706C491.702 432.983 491.538 433.3 491.425 433.659C491.323 434.007 491.251 434.376 491.21 434.765H491.256C491.348 434.499 491.476 434.232 491.64 433.966C491.814 433.7 492.029 433.459 492.285 433.244C492.541 433.029 492.843 432.855 493.192 432.722C493.54 432.578 493.939 432.507 494.39 432.507C494.892 432.507 495.363 432.604 495.803 432.799C496.254 432.993 496.643 433.27 496.971 433.628C497.299 433.987 497.555 434.417 497.739 434.919C497.934 435.41 498.031 435.963 498.031 436.578C498.031 437.203 497.934 437.766 497.739 438.268C497.555 438.77 497.283 439.2 496.925 439.558C496.566 439.906 496.131 440.178 495.619 440.372C495.107 440.557 494.533 440.649 493.898 440.649ZM494.052 439.02C494.605 439.02 495.04 438.811 495.358 438.391C495.686 437.971 495.849 437.361 495.849 436.562C495.849 435.784 495.691 435.18 495.373 434.75C495.056 434.309 494.605 434.089 494.021 434.089C493.468 434.089 493.033 434.309 492.715 434.75C492.398 435.19 492.239 435.799 492.239 436.578C492.239 437.377 492.398 437.986 492.715 438.406C493.043 438.816 493.489 439.02 494.052 439.02ZM498.99 432.507H501.171V435.395H504.259V432.507H506.441V440.449H504.259V437.115H501.171V440.449H498.99V432.507ZM511.492 440.649C510.867 440.649 510.304 440.552 509.802 440.357C509.3 440.162 508.87 439.886 508.511 439.527C508.153 439.159 507.876 438.718 507.682 438.206C507.487 437.694 507.39 437.121 507.39 436.486C507.39 435.851 507.487 435.277 507.682 434.765C507.876 434.243 508.153 433.802 508.511 433.444C508.87 433.075 509.3 432.793 509.802 432.599C510.304 432.394 510.867 432.292 511.492 432.292C512.117 432.292 512.68 432.394 513.182 432.599C513.694 432.793 514.129 433.075 514.488 433.444C514.846 433.802 515.123 434.243 515.317 434.765C515.512 435.277 515.609 435.851 515.609 436.486C515.609 437.121 515.512 437.694 515.317 438.206C515.123 438.718 514.846 439.159 514.488 439.527C514.129 439.886 513.694 440.162 513.182 440.357C512.68 440.552 512.117 440.649 511.492 440.649ZM511.492 439.02C511.861 439.02 512.168 438.949 512.414 438.805C512.67 438.662 512.869 438.473 513.013 438.237C513.166 437.991 513.274 437.72 513.335 437.423C513.397 437.115 513.428 436.803 513.428 436.486C513.428 436.168 513.397 435.856 513.335 435.548C513.274 435.241 513.166 434.97 513.013 434.734C512.869 434.499 512.67 434.309 512.414 434.166C512.168 434.012 511.861 433.935 511.492 433.935C511.123 433.935 510.816 434.012 510.57 434.166C510.324 434.309 510.125 434.499 509.971 434.734C509.828 434.97 509.725 435.241 509.664 435.548C509.602 435.856 509.571 436.168 509.571 436.486C509.571 436.803 509.602 437.115 509.664 437.423C509.725 437.72 509.828 437.991 509.971 438.237C510.125 438.473 510.324 438.662 510.57 438.805C510.816 438.949 511.123 439.02 511.492 439.02ZM520.33 440.649C519.726 440.649 519.178 440.552 518.687 440.357C518.195 440.152 517.775 439.871 517.427 439.512C517.079 439.154 516.807 438.729 516.613 438.237C516.418 437.735 516.321 437.187 516.321 436.593C516.321 435.979 516.408 435.41 516.582 434.888C516.766 434.355 517.033 433.9 517.381 433.521C517.729 433.131 518.154 432.829 518.656 432.614C519.158 432.399 519.731 432.292 520.377 432.292C520.848 432.292 521.298 432.353 521.728 432.476C522.169 432.599 522.558 432.788 522.896 433.044C523.244 433.29 523.526 433.603 523.741 433.981C523.956 434.36 524.079 434.801 524.11 435.303H521.974C521.831 434.391 521.293 433.935 520.361 433.935C520.013 433.935 519.721 434.017 519.486 434.181C519.25 434.335 519.055 434.54 518.902 434.796C518.758 435.042 518.656 435.318 518.594 435.625C518.533 435.933 518.502 436.23 518.502 436.516C518.502 436.803 518.533 437.095 518.594 437.392C518.656 437.689 518.753 437.96 518.886 438.206C519.03 438.442 519.219 438.636 519.455 438.79C519.69 438.944 519.977 439.02 520.315 439.02C520.837 439.02 521.237 438.877 521.513 438.59C521.8 438.293 521.979 437.899 522.051 437.407H524.156C524.012 438.462 523.603 439.266 522.927 439.819C522.251 440.372 521.385 440.649 520.33 440.649ZM526.863 434.15H524.251V432.507H531.656V434.15H529.045V440.449H526.863V434.15ZM532.178 432.507H534.267V437.884L537.263 432.507H539.736V440.449H537.647V435.072L534.651 440.449H532.178V432.507Z" fill="#104A99"/>
<path d="M320.995 529.461H312.837V518.492H315.249V527.433H319.551V518.492H321.963V527.433H323.177V531.965H320.995V529.461ZM327.37 529.661C326.745 529.661 326.182 529.563 325.68 529.369C325.178 529.164 324.753 528.877 324.405 528.508C324.057 528.14 323.785 527.699 323.591 527.187C323.406 526.675 323.314 526.112 323.314 525.497C323.314 524.903 323.411 524.35 323.606 523.838C323.801 523.326 324.077 522.886 324.436 522.517C324.794 522.138 325.219 521.841 325.711 521.626C326.213 521.411 326.766 521.303 327.37 521.303C328.005 521.303 328.563 521.421 329.044 521.657C329.536 521.892 329.941 522.21 330.258 522.609C330.586 522.998 330.832 523.454 330.996 523.976C331.159 524.499 331.241 525.042 331.241 525.605C331.241 525.677 331.241 525.748 331.241 525.82C331.241 525.881 331.236 525.948 331.226 526.02H325.496C325.526 526.726 325.706 527.238 326.033 527.556C326.361 527.873 326.832 528.032 327.447 528.032C327.887 528.032 328.266 527.925 328.584 527.71C328.901 527.484 329.096 527.249 329.167 527.003H331.088C330.78 527.955 330.309 528.636 329.674 529.046C329.039 529.456 328.271 529.661 327.37 529.661ZM329.044 524.637C328.942 524.084 328.758 523.664 328.491 523.377C328.235 523.09 327.841 522.947 327.308 522.947C326.95 522.947 326.658 523.009 326.433 523.131C326.207 523.244 326.023 523.388 325.88 523.562C325.747 523.736 325.649 523.92 325.588 524.115C325.537 524.309 325.506 524.483 325.496 524.637H329.044ZM332.397 529.584C332.305 529.584 332.161 529.568 331.967 529.538C331.772 529.507 331.618 529.471 331.506 529.43V527.786C331.567 527.807 331.639 527.822 331.721 527.832C331.803 527.832 331.885 527.832 331.967 527.832C332.151 527.832 332.315 527.776 332.458 527.663C332.612 527.541 332.735 527.31 332.827 526.972C332.929 526.634 333.006 526.153 333.057 525.528C333.119 524.903 333.15 524.084 333.15 523.07V521.518H339.602V529.461H337.421V523.162H335.178C335.137 524.289 335.07 525.257 334.978 526.066C334.886 526.875 334.737 527.541 334.532 528.063C334.338 528.585 334.066 528.969 333.718 529.215C333.38 529.461 332.94 529.584 332.397 529.584ZM344.466 529.661C343.842 529.661 343.278 529.563 342.776 529.369C342.275 529.164 341.85 528.877 341.501 528.508C341.153 528.14 340.882 527.699 340.687 527.187C340.503 526.675 340.411 526.112 340.411 525.497C340.411 524.903 340.508 524.35 340.703 523.838C340.897 523.326 341.174 522.886 341.532 522.517C341.891 522.138 342.316 521.841 342.807 521.626C343.309 521.411 343.862 521.303 344.466 521.303C345.101 521.303 345.66 521.421 346.141 521.657C346.633 521.892 347.037 522.21 347.355 522.609C347.682 522.998 347.928 523.454 348.092 523.976C348.256 524.499 348.338 525.042 348.338 525.605C348.338 525.677 348.338 525.748 348.338 525.82C348.338 525.881 348.333 525.948 348.322 526.02H342.592C342.623 526.726 342.802 527.238 343.13 527.556C343.458 527.873 343.929 528.032 344.543 528.032C344.984 528.032 345.363 527.925 345.68 527.71C345.998 527.484 346.192 527.249 346.264 527.003H348.184C347.877 527.955 347.406 528.636 346.771 529.046C346.136 529.456 345.368 529.661 344.466 529.661ZM346.141 524.637C346.039 524.084 345.854 523.664 345.588 523.377C345.332 523.09 344.938 522.947 344.405 522.947C344.046 522.947 343.755 523.009 343.529 523.131C343.304 523.244 343.12 523.388 342.976 523.562C342.843 523.736 342.746 523.92 342.684 524.115C342.633 524.309 342.602 524.483 342.592 524.637H346.141ZM349.217 521.518H353.78C354.128 521.518 354.456 521.559 354.763 521.641C355.07 521.713 355.336 521.831 355.562 521.995C355.797 522.148 355.982 522.353 356.115 522.609C356.248 522.865 356.314 523.167 356.314 523.516C356.314 523.905 356.217 524.243 356.023 524.529C355.828 524.806 355.567 525.016 355.239 525.159C355.649 525.272 355.992 525.487 356.268 525.805C356.545 526.112 356.683 526.542 356.683 527.095C356.683 527.484 356.612 527.827 356.468 528.124C356.335 528.411 356.146 528.657 355.9 528.862C355.654 529.056 355.367 529.205 355.039 529.307C354.712 529.41 354.363 529.461 353.995 529.461H349.217V521.518ZM352.981 528.048C353.165 528.048 353.344 528.037 353.518 528.017C353.693 527.986 353.846 527.935 353.979 527.863C354.112 527.792 354.22 527.689 354.302 527.556C354.384 527.413 354.425 527.228 354.425 527.003C354.425 526.778 354.379 526.593 354.287 526.45C354.205 526.306 354.092 526.199 353.949 526.127C353.805 526.056 353.641 526.009 353.457 525.989C353.273 525.958 353.083 525.943 352.889 525.943H351.368V528.048H352.981ZM352.812 524.714C352.976 524.714 353.134 524.704 353.288 524.683C353.442 524.663 353.58 524.622 353.703 524.56C353.826 524.489 353.923 524.396 353.995 524.284C354.066 524.161 354.102 523.997 354.102 523.792C354.102 523.597 354.066 523.444 353.995 523.331C353.923 523.208 353.826 523.116 353.703 523.055C353.59 522.993 353.452 522.952 353.288 522.932C353.134 522.911 352.976 522.901 352.812 522.901H351.368V524.714H352.812ZM361.477 529.661C360.852 529.661 360.289 529.563 359.787 529.369C359.285 529.174 358.855 528.898 358.497 528.539C358.138 528.17 357.862 527.73 357.667 527.218C357.473 526.706 357.375 526.132 357.375 525.497C357.375 524.862 357.473 524.289 357.667 523.777C357.862 523.254 358.138 522.814 358.497 522.455C358.855 522.087 359.285 521.805 359.787 521.611C360.289 521.406 360.852 521.303 361.477 521.303C362.102 521.303 362.665 521.406 363.167 521.611C363.679 521.805 364.115 522.087 364.473 522.455C364.831 522.814 365.108 523.254 365.303 523.777C365.497 524.289 365.594 524.862 365.594 525.497C365.594 526.132 365.497 526.706 365.303 527.218C365.108 527.73 364.831 528.17 364.473 528.539C364.115 528.898 363.679 529.174 363.167 529.369C362.665 529.563 362.102 529.661 361.477 529.661ZM361.477 528.032C361.846 528.032 362.153 527.961 362.399 527.817C362.655 527.674 362.855 527.484 362.998 527.249C363.152 527.003 363.259 526.731 363.321 526.434C363.382 526.127 363.413 525.815 363.413 525.497C363.413 525.18 363.382 524.867 363.321 524.56C363.259 524.253 363.152 523.982 362.998 523.746C362.855 523.51 362.655 523.321 362.399 523.178C362.153 523.024 361.846 522.947 361.477 522.947C361.109 522.947 360.801 523.024 360.555 523.178C360.31 523.321 360.11 523.51 359.956 523.746C359.813 523.982 359.711 524.253 359.649 524.56C359.588 524.867 359.557 525.18 359.557 525.497C359.557 525.815 359.588 526.127 359.649 526.434C359.711 526.731 359.813 527.003 359.956 527.249C360.11 527.484 360.31 527.674 360.555 527.817C360.801 527.961 361.109 528.032 361.477 528.032ZM366.552 521.518H368.641V526.895L371.637 521.518H374.111V529.461H372.021V524.084L369.025 529.461H366.552V521.518ZM370.316 520.566C369.957 520.566 369.619 520.525 369.302 520.443C368.995 520.361 368.723 520.233 368.488 520.059C368.252 519.875 368.063 519.644 367.919 519.368C367.786 519.091 367.72 518.753 367.72 518.354H369.348C369.369 518.702 369.45 518.958 369.594 519.122C369.737 519.286 369.978 519.368 370.316 519.368C370.644 519.368 370.884 519.291 371.038 519.137C371.192 518.973 371.274 518.712 371.284 518.354H372.912C372.912 518.753 372.841 519.091 372.697 519.368C372.564 519.644 372.38 519.875 372.144 520.059C371.909 520.233 371.632 520.361 371.314 520.443C370.997 520.525 370.664 520.566 370.316 520.566ZM379.118 521.518H381.299V524.76L384.218 521.518H386.784L383.465 525.021L387.214 529.461H384.572L381.76 526.158L381.299 526.665V529.461H379.118V521.518ZM387.816 529.584C387.724 529.584 387.581 529.568 387.386 529.538C387.192 529.507 387.038 529.471 386.925 529.43V527.786C386.987 527.807 387.059 527.822 387.14 527.832C387.222 527.832 387.304 527.832 387.386 527.832C387.571 527.832 387.734 527.776 387.878 527.663C388.032 527.541 388.154 527.31 388.247 526.972C388.349 526.634 388.426 526.153 388.477 525.528C388.538 524.903 388.569 524.084 388.569 523.07V521.518H395.022V529.461H392.84V523.162H390.597C390.556 524.289 390.49 525.257 390.397 526.066C390.305 526.875 390.157 527.541 389.952 528.063C389.757 528.585 389.486 528.969 389.138 529.215C388.8 529.461 388.359 529.584 387.816 529.584ZM396.214 521.518H398.304V526.895L401.299 521.518H403.773V529.461H401.683V524.084L398.688 529.461H396.214V521.518ZM408.637 529.661C408.012 529.661 407.449 529.563 406.947 529.369C406.445 529.164 406.02 528.877 405.672 528.508C405.324 528.14 405.052 527.699 404.857 527.187C404.673 526.675 404.581 526.112 404.581 525.497C404.581 524.903 404.678 524.35 404.873 523.838C405.067 523.326 405.344 522.886 405.702 522.517C406.061 522.138 406.486 521.841 406.978 521.626C407.479 521.411 408.032 521.303 408.637 521.303C409.272 521.303 409.83 521.421 410.311 521.657C410.803 521.892 411.207 522.21 411.525 522.609C411.853 522.998 412.099 523.454 412.262 523.976C412.426 524.499 412.508 525.042 412.508 525.605C412.508 525.677 412.508 525.748 412.508 525.82C412.508 525.881 412.503 525.948 412.493 526.02H406.762C406.793 526.726 406.972 527.238 407.3 527.556C407.628 527.873 408.099 528.032 408.714 528.032C409.154 528.032 409.533 527.925 409.85 527.71C410.168 527.484 410.363 527.249 410.434 527.003H412.355C412.047 527.955 411.576 528.636 410.941 529.046C410.306 529.456 409.538 529.661 408.637 529.661ZM410.311 524.637C410.209 524.084 410.025 523.664 409.758 523.377C409.502 523.09 409.108 522.947 408.575 522.947C408.217 522.947 407.925 523.009 407.7 523.131C407.474 523.244 407.29 523.388 407.147 523.562C407.013 523.736 406.916 523.92 406.855 524.115C406.803 524.309 406.773 524.483 406.762 524.637H410.311ZM413.326 521.518H415.507V524.407H418.595V521.518H420.777V529.461H418.595V526.127H415.507V529.461H413.326V521.518ZM423.907 523.162H421.296V521.518H428.7V523.162H426.089V529.461H423.907V523.162Z" fill="#104A99"/>
<path d="M372.781 336.623L372.781 318.097" stroke="white" stroke-width="0.852791"/>
<path d="M372.738 308.606L374.953 318.84L370.522 318.84L372.738 308.606Z" fill="white"/>
<path d="M372.689 359.219L372.689 377.744" stroke="white" stroke-width="0.852791"/>
<path d="M372.733 387.235L370.518 377.002L374.949 377.002L372.733 387.235Z" fill="white"/>
</svg>
