<svg width="672" height="150" viewBox="0 0 672 150" fill="none" xmlns="http://www.w3.org/2000/svg">
<rect x="0.814546" y="1.39658" width="670.372" height="147.026" rx="3.02878" fill="white" stroke="#ADBFFD" stroke-width="1.62909"/>
<mask id="mask0_1866_1351" style="mask-type:alpha" maskUnits="userSpaceOnUse" x="0" y="0" width="672" height="150">
<path d="M1.8274e-06 4.42537C8.18153e-07 2.30276 1.72072 0.582042 3.84332 0.582042L668.157 0.582042C670.28 0.582042 672.001 2.30276 672.001 4.42536L672.001 145.393C672.001 147.516 670.28 149.237 668.157 149.237L3.84341 149.236C1.7208 149.236 6.98629e-05 147.516 6.88537e-05 145.393L1.8274e-06 4.42537Z" fill="#D9D9D9"/>
</mask>
<g mask="url(#mask0_1866_1351)">
<path d="M-29.7305 -172.533L853.336 671.881" stroke="#ADBFFD" stroke-width="0.768664"/>
<path d="M-421.936 96.6699L461.131 941.084" stroke="#ADBFFD" stroke-width="0.768664"/>
<path d="M233.037 -510.213L1116.1 334.202" stroke="#ADBFFD" stroke-width="0.768664"/>
<path d="M-159.166 -241.01L723.901 603.405" stroke="#ADBFFD" stroke-width="0.768664"/>
<path d="M101.652 -341.373L984.719 503.041" stroke="#ADBFFD" stroke-width="0.768664"/>
<path d="M-290.551 -72.1719L592.516 772.243" stroke="#ADBFFD" stroke-width="0.768664"/>
<path d="M3.11523 -214.744L886.182 629.67" stroke="#ADBFFD" stroke-width="0.768664"/>
<path d="M-389.09 54.459L493.977 898.873" stroke="#ADBFFD" stroke-width="0.768664"/>
<path d="M134.5 -383.584L1017.57 460.831" stroke="#ADBFFD" stroke-width="0.768664"/>
<path d="M-257.705 -114.381L625.362 730.034" stroke="#ADBFFD" stroke-width="0.768664"/>
<path d="M35.9609 -256.953L919.028 587.461" stroke="#ADBFFD" stroke-width="0.768664"/>
<path d="M-356.242 12.25L526.825 856.665" stroke="#ADBFFD" stroke-width="0.768664"/>
<path d="M167.346 -425.793L1050.41 418.622" stroke="#ADBFFD" stroke-width="0.768664"/>
<path d="M-224.859 -156.59L658.208 687.825" stroke="#ADBFFD" stroke-width="0.768664"/>
<path d="M68.8086 -299.164L951.875 545.25" stroke="#ADBFFD" stroke-width="0.768664"/>
<path d="M-323.396 -29.9629L559.67 814.452" stroke="#ADBFFD" stroke-width="0.768664"/>
<path d="M200.191 -468.004L1083.26 376.411" stroke="#ADBFFD" stroke-width="0.768664"/>
<path d="M-192.012 -198.801L691.055 645.614" stroke="#ADBFFD" stroke-width="0.768664"/>
<path d="M-21.5195 -183.088L861.547 661.327" stroke="#ADBFFD" stroke-width="0.768664"/>
<path d="M-413.725 86.1152L469.342 930.53" stroke="#ADBFFD" stroke-width="0.768664"/>
<path d="M241.25 -520.766L1124.32 323.649" stroke="#ADBFFD" stroke-width="0.768664"/>
<path d="M-150.953 -251.562L732.114 592.852" stroke="#ADBFFD" stroke-width="0.768664"/>
<path d="M109.865 -351.926L992.932 492.489" stroke="#ADBFFD" stroke-width="0.768664"/>
<path d="M-282.338 -82.7246L600.729 761.69" stroke="#ADBFFD" stroke-width="0.768664"/>
<path d="M11.3262 -225.297L894.393 619.118" stroke="#ADBFFD" stroke-width="0.768664"/>
<path d="M-380.877 43.9062L502.19 888.321" stroke="#ADBFFD" stroke-width="0.768664"/>
<path d="M142.711 -394.137L1025.78 450.278" stroke="#ADBFFD" stroke-width="0.768664"/>
<path d="M-249.492 -124.934L633.575 719.481" stroke="#ADBFFD" stroke-width="0.768664"/>
<path d="M44.1719 -267.506L927.239 576.909" stroke="#ADBFFD" stroke-width="0.768664"/>
<path d="M-348.031 1.69531L535.036 846.11" stroke="#ADBFFD" stroke-width="0.768664"/>
<path d="M175.557 -436.346L1058.62 408.069" stroke="#ADBFFD" stroke-width="0.768664"/>
<path d="M-216.646 -167.143L666.42 677.272" stroke="#ADBFFD" stroke-width="0.768664"/>
<path d="M77.0176 -309.717L960.084 534.698" stroke="#ADBFFD" stroke-width="0.768664"/>
<path d="M-315.184 -40.5137L567.883 803.901" stroke="#ADBFFD" stroke-width="0.768664"/>
<path d="M208.402 -478.557L1091.47 365.858" stroke="#ADBFFD" stroke-width="0.768664"/>
<path d="M-183.801 -209.352L699.266 635.063" stroke="#ADBFFD" stroke-width="0.768664"/>
<path d="M-13.3086 -193.641L869.758 650.774" stroke="#ADBFFD" stroke-width="0.768664"/>
<path d="M-405.512 75.5625L477.555 919.977" stroke="#ADBFFD" stroke-width="0.768664"/>
<path d="M249.461 -531.316L1132.53 313.098" stroke="#ADBFFD" stroke-width="0.768664"/>
<path d="M-142.742 -262.117L740.325 582.297" stroke="#ADBFFD" stroke-width="0.768664"/>
<path d="M118.076 -362.479L1001.14 481.936" stroke="#ADBFFD" stroke-width="0.768664"/>
<path d="M-274.127 -93.2754L608.94 751.139" stroke="#ADBFFD" stroke-width="0.768664"/>
<path d="M19.5371 -235.85L902.604 608.565" stroke="#ADBFFD" stroke-width="0.768664"/>
<path d="M-372.666 33.3535L510.401 877.768" stroke="#ADBFFD" stroke-width="0.768664"/>
<path d="M150.924 -404.689L1033.99 439.725" stroke="#ADBFFD" stroke-width="0.768664"/>
<path d="M-241.283 -135.484L641.784 708.93" stroke="#ADBFFD" stroke-width="0.768664"/>
<path d="M52.3828 -278.061L935.45 566.354" stroke="#ADBFFD" stroke-width="0.768664"/>
<path d="M-339.82 -8.85547L543.247 835.559" stroke="#ADBFFD" stroke-width="0.768664"/>
<path d="M183.77 -446.898L1066.84 397.516" stroke="#ADBFFD" stroke-width="0.768664"/>
<path d="M-208.436 -177.695L674.631 666.719" stroke="#ADBFFD" stroke-width="0.768664"/>
<path d="M85.2305 -320.27L968.297 524.145" stroke="#ADBFFD" stroke-width="0.768664"/>
<path d="M-306.975 -51.0664L576.092 793.348" stroke="#ADBFFD" stroke-width="0.768664"/>
<path d="M216.615 -489.107L1099.68 355.307" stroke="#ADBFFD" stroke-width="0.768664"/>
<path d="M-175.59 -219.906L707.477 624.508" stroke="#ADBFFD" stroke-width="0.768664"/>
<path d="M-5.0957 -204.193L877.971 640.221" stroke="#ADBFFD" stroke-width="0.768664"/>
<path d="M-397.301 65.0117L485.766 909.426" stroke="#ADBFFD" stroke-width="0.768664"/>
<path d="M126.287 -373.031L1009.35 471.383" stroke="#ADBFFD" stroke-width="0.768664"/>
<path d="M-265.916 -103.828L617.151 740.586" stroke="#ADBFFD" stroke-width="0.768664"/>
<path d="M27.75 -246.402L910.817 598.012" stroke="#ADBFFD" stroke-width="0.768664"/>
<path d="M-364.455 22.8008L518.612 867.215" stroke="#ADBFFD" stroke-width="0.768664"/>
<path d="M159.133 -415.242L1042.2 429.172" stroke="#ADBFFD" stroke-width="0.768664"/>
<path d="M-233.068 -146.039L649.999 698.375" stroke="#ADBFFD" stroke-width="0.768664"/>
<path d="M60.5938 -288.611L943.661 555.803" stroke="#ADBFFD" stroke-width="0.768664"/>
<path d="M-331.607 -19.4082L551.459 825.006" stroke="#ADBFFD" stroke-width="0.768664"/>
<path d="M191.98 -457.451L1075.05 386.963" stroke="#ADBFFD" stroke-width="0.768664"/>
<path d="M-200.225 -188.248L682.842 656.166" stroke="#ADBFFD" stroke-width="0.768664"/>
<path d="M93.4414 -330.82L976.508 513.594" stroke="#ADBFFD" stroke-width="0.768664"/>
<path d="M-298.762 -61.6191L584.305 782.795" stroke="#ADBFFD" stroke-width="0.768664"/>
<path d="M224.826 -499.662L1107.89 344.752" stroke="#ADBFFD" stroke-width="0.768664"/>
<path d="M-167.377 -230.459L715.69 613.956" stroke="#ADBFFD" stroke-width="0.768664"/>
</g>
<rect x="12.0133" y="18.7066" width="174.313" height="59.8692" rx="3.46182" fill="white"/>
<path d="M74.1229 44.9168H80.9163V53.6406H79.7555V45.8943H75.2837V53.6406H74.1229V44.9168ZM82.2836 47.3238H83.3222V52.4799L86.3034 47.3238H87.6352V53.6406H86.5967V48.4845L83.6154 53.6406H82.2836V47.3238ZM91.4523 53.775C90.9717 53.775 90.544 53.6976 90.1693 53.5429C89.8028 53.3881 89.4933 53.1682 89.2408 52.8831C88.9964 52.598 88.809 52.26 88.6787 51.869C88.5565 51.478 88.4954 51.0422 88.4954 50.5616C88.4954 50.0892 88.5565 49.6493 88.6787 49.2421C88.8009 48.8267 88.9842 48.4683 89.2285 48.1669C89.4811 47.8573 89.7906 47.6171 90.1571 47.446C90.5318 47.2668 90.9717 47.1772 91.4767 47.1772C91.8351 47.1772 92.1691 47.222 92.4786 47.3116C92.7963 47.3931 93.0732 47.5234 93.3094 47.7026C93.5538 47.8818 93.7533 48.1099 93.9081 48.3868C94.0629 48.6556 94.1606 48.9773 94.2013 49.352H93.1261C93.0447 48.9529 92.8736 48.6434 92.613 48.4235C92.3523 48.2035 92.0021 48.0936 91.5622 48.0936C91.1875 48.0936 90.8739 48.1628 90.6214 48.3013C90.3689 48.4397 90.1653 48.623 90.0105 48.8511C89.8639 49.0792 89.758 49.3439 89.6928 49.6453C89.6277 49.9385 89.5951 50.244 89.5951 50.5616C89.5951 50.8549 89.6277 51.14 89.6928 51.4169C89.7661 51.6939 89.8761 51.9423 90.0227 52.1622C90.1693 52.374 90.3567 52.5451 90.5848 52.6754C90.821 52.8057 91.1061 52.8709 91.44 52.8709C91.9532 52.8709 92.3523 52.7365 92.6374 52.4677C92.9307 52.1989 93.1099 51.8201 93.175 51.3314H94.238C94.124 52.1215 93.8348 52.7283 93.3705 53.1519C92.9062 53.5673 92.2668 53.775 91.4523 53.775ZM96.7807 53.775C96.4956 53.775 96.2268 53.7424 95.9743 53.6773C95.7218 53.6203 95.4978 53.5225 95.3023 53.384C95.115 53.2374 94.9643 53.0542 94.8502 52.8342C94.7444 52.6062 94.6914 52.3333 94.6914 52.0156C94.6914 51.6572 94.7525 51.364 94.8747 51.1359C94.9969 50.9078 95.1557 50.7245 95.3512 50.5861C95.5548 50.4395 95.7829 50.3295 96.0354 50.2562C96.2961 50.1829 96.5608 50.1218 96.8296 50.0729C97.1147 50.0159 97.3835 49.9752 97.636 49.9507C97.8966 49.9181 98.1247 49.8774 98.3202 49.8285C98.5157 49.7715 98.6705 49.6941 98.7845 49.5964C98.8985 49.4905 98.9556 49.3398 98.9556 49.1443C98.9556 48.9163 98.9108 48.733 98.8212 48.5945C98.7397 48.456 98.6297 48.3501 98.4913 48.2768C98.3609 48.2035 98.2102 48.1547 98.0392 48.1302C97.8763 48.1058 97.7134 48.0936 97.5505 48.0936C97.1106 48.0936 96.7441 48.1791 96.4508 48.3501C96.1576 48.5131 95.9988 48.8267 95.9743 49.2909H94.9358C94.9521 48.9 95.0335 48.5701 95.1801 48.3013C95.3268 48.0325 95.5222 47.8166 95.7666 47.6537C96.011 47.4827 96.2879 47.3605 96.5974 47.2872C96.9151 47.2139 97.2532 47.1772 97.6116 47.1772C97.8966 47.1772 98.1777 47.1976 98.4546 47.2383C98.7397 47.279 98.9963 47.3645 99.2244 47.4949C99.4524 47.6171 99.6357 47.7922 99.7742 48.0203C99.9127 48.2483 99.9819 48.5456 99.9819 48.9122V52.1622C99.9819 52.4066 99.9941 52.5858 100.019 52.6998C100.051 52.8139 100.149 52.8709 100.312 52.8709C100.385 52.8709 100.491 52.8505 100.629 52.8098V53.6162C100.45 53.7221 100.202 53.775 99.8841 53.775C99.6153 53.775 99.3995 53.7017 99.2366 53.5551C99.0818 53.4003 99.0044 53.1519 99.0044 52.8098C98.7193 53.1519 98.3854 53.4003 98.0025 53.5551C97.6278 53.7017 97.2206 53.775 96.7807 53.775ZM97.0129 52.8709C97.355 52.8709 97.6482 52.8261 97.8926 52.7365C98.1369 52.6387 98.3365 52.5206 98.4913 52.3822C98.646 52.2355 98.7601 52.0808 98.8334 51.9179C98.9067 51.7468 98.9433 51.588 98.9433 51.4414V50.3784C98.813 50.4843 98.642 50.5576 98.4302 50.5983C98.2184 50.639 97.9944 50.6757 97.7582 50.7083C97.5301 50.7408 97.298 50.7734 97.0617 50.806C96.8255 50.8386 96.6137 50.8956 96.4264 50.9771C96.239 51.0585 96.0843 51.1766 95.9621 51.3314C95.8481 51.478 95.791 51.6816 95.791 51.9423C95.791 52.1134 95.8236 52.26 95.8888 52.3822C95.9621 52.4962 96.0517 52.5899 96.1576 52.6632C96.2716 52.7365 96.402 52.7894 96.5486 52.822C96.6952 52.8546 96.85 52.8709 97.0129 52.8709ZM102.757 48.2402H100.496V47.3238H106.056V48.2402H103.795V53.6406H102.757V48.2402ZM109.207 53.775C108.702 53.775 108.258 53.6936 107.875 53.5307C107.5 53.3678 107.187 53.1397 106.934 52.8464C106.682 52.5532 106.49 52.203 106.36 51.7957C106.238 51.3884 106.177 50.9445 106.177 50.4639C106.177 49.9915 106.25 49.5557 106.396 49.1565C106.543 48.7493 106.747 48.399 107.007 48.1058C107.276 47.8125 107.59 47.5845 107.948 47.4216C108.315 47.2587 108.714 47.1772 109.146 47.1772C109.708 47.1772 110.172 47.2953 110.538 47.5315C110.913 47.7596 111.21 48.0528 111.43 48.4112C111.658 48.7696 111.813 49.1606 111.895 49.5842C111.984 50.0077 112.021 50.4109 112.005 50.7938H107.276C107.268 51.0707 107.301 51.3355 107.374 51.588C107.447 51.8323 107.565 52.0523 107.728 52.2478C107.891 52.4351 108.099 52.5858 108.351 52.6998C108.604 52.8139 108.901 52.8709 109.243 52.8709C109.683 52.8709 110.042 52.7691 110.318 52.5654C110.604 52.3618 110.791 52.0523 110.881 51.6368H111.907C111.768 52.3536 111.463 52.8912 110.99 53.2496C110.518 53.5999 109.923 53.775 109.207 53.775ZM110.905 49.8774C110.889 49.6331 110.832 49.4009 110.734 49.181C110.644 48.9611 110.518 48.7737 110.355 48.6189C110.2 48.456 110.013 48.3298 109.793 48.2402C109.581 48.1424 109.345 48.0936 109.084 48.0936C108.816 48.0936 108.571 48.1424 108.351 48.2402C108.14 48.3298 107.956 48.456 107.802 48.6189C107.647 48.7819 107.525 48.9733 107.435 49.1932C107.345 49.405 107.292 49.6331 107.276 49.8774H110.905ZM112.666 53.7139C112.56 53.7139 112.45 53.7017 112.336 53.6773C112.222 53.661 112.128 53.6447 112.055 53.6284V52.712C112.136 52.7365 112.21 52.7528 112.275 52.7609C112.348 52.7691 112.417 52.7731 112.482 52.7731C112.751 52.7731 112.955 52.6672 113.093 52.4555C113.24 52.2437 113.346 51.9179 113.411 51.478C113.484 51.0381 113.529 50.4761 113.545 49.7919C113.562 49.0995 113.578 48.2768 113.594 47.3238H118.029V53.6406H116.991V48.2402H114.596C114.572 48.9814 114.543 49.686 114.511 50.3539C114.486 51.0137 114.417 51.592 114.303 52.0889C114.189 52.5858 114.006 52.9808 113.753 53.2741C113.501 53.5673 113.138 53.7139 112.666 53.7139ZM119.294 47.3238H120.332V49.743H122.58C123.2 49.743 123.696 49.9141 124.071 50.2562C124.446 50.5901 124.633 51.0626 124.633 51.6735C124.633 52.2681 124.454 52.7446 124.096 53.103C123.737 53.4614 123.248 53.6406 122.629 53.6406H119.294V47.3238ZM122.251 52.7243C123.122 52.7243 123.558 52.374 123.558 51.6735C123.558 50.9811 123.122 50.6349 122.251 50.6349H120.332V52.7243H122.251Z" fill="#104A99"/>
<rect x="12.0133" y="18.7066" width="174.313" height="59.8692" rx="3.46182" stroke="#ADBFFD" stroke-width="1.22182" stroke-dasharray="12.22 4.07"/>
<rect x="12.0133" y="87.9429" width="174.313" height="46.8364" rx="3.46182" fill="white"/>
<path d="M76.6268 111.828L79.2537 109.008C79.3487 108.906 79.4234 108.808 79.4777 108.713C79.5388 108.618 79.5693 108.526 79.5693 108.438C79.5693 108.227 79.3826 108.122 79.0093 108.122L79.05 107.878H81.402L81.3613 108.122C81.0694 108.122 80.8217 108.176 80.618 108.285C80.4144 108.394 80.2175 108.55 80.0275 108.753L78.1948 110.739L79.6915 114.537C79.7594 114.713 79.8578 114.856 79.9868 114.964C80.1157 115.066 80.2922 115.117 80.5162 115.117L80.4755 115.361H78.9991L77.5126 111.472L76.5046 112.541L76.2195 114.302C76.2127 114.336 76.2059 114.384 76.1991 114.445C76.1923 114.506 76.1889 114.557 76.1889 114.598C76.1889 114.754 76.2365 114.879 76.3315 114.974C76.4333 115.069 76.6064 115.117 76.8508 115.117L76.81 115.361H74.3664L74.4071 115.117C74.6922 115.117 74.8992 115.056 75.0282 114.934C75.1572 114.805 75.2386 114.642 75.2726 114.445L76.1889 108.937C76.1957 108.903 76.2025 108.855 76.2093 108.794C76.2161 108.733 76.2195 108.682 76.2195 108.641C76.2195 108.485 76.1686 108.36 76.0668 108.265C75.9649 108.17 75.7885 108.122 75.5373 108.122L75.578 107.878H78.042L78.0013 108.122C77.7094 108.122 77.499 108.187 77.37 108.316C77.2411 108.444 77.1596 108.604 77.1257 108.794L76.6268 111.828ZM84.5927 110.606H83.2996L83.0858 111.625C83.0383 111.855 82.9806 112.11 82.9127 112.388C82.8448 112.66 82.7667 112.938 82.6785 113.223C82.597 113.508 82.502 113.787 82.3934 114.058C82.2916 114.323 82.1796 114.56 82.0574 114.771C81.9352 114.981 81.8029 115.151 81.6603 115.28C81.5246 115.402 81.3786 115.463 81.2225 115.463C81.0257 115.463 80.8899 115.412 80.8152 115.31C80.7406 115.209 80.6863 115.093 80.6523 114.964L80.744 114.445C80.8186 114.533 80.8865 114.594 80.9476 114.628C81.0155 114.662 81.1071 114.679 81.2225 114.679C81.5687 114.679 81.864 114.387 82.1083 113.804C82.3527 113.22 82.5869 112.358 82.8109 111.217C82.8177 111.19 82.8244 111.153 82.8312 111.105C82.838 111.051 82.8414 111.007 82.8414 110.973C82.8414 110.844 82.7973 110.742 82.709 110.668C82.6276 110.593 82.4783 110.556 82.261 110.556L82.3221 110.27H85.4683L84.8065 114.231C84.7997 114.265 84.7929 114.309 84.7861 114.364C84.7794 114.418 84.776 114.462 84.776 114.496C84.776 114.7 84.8676 114.801 85.0509 114.801C85.1866 114.801 85.3054 114.757 85.4072 114.669C85.5091 114.574 85.6312 114.438 85.7738 114.262L85.6923 114.73C85.5566 114.94 85.414 115.107 85.2647 115.229C85.1221 115.351 84.9321 115.412 84.6945 115.412C84.4026 115.412 84.2058 115.338 84.104 115.188C84.0021 115.032 83.9512 114.845 83.9512 114.628C83.9512 114.554 83.9546 114.482 83.9614 114.414C83.9682 114.347 83.9784 114.275 83.992 114.201L84.5927 110.606ZM86.9861 111.411C86.9928 111.377 86.9962 111.346 86.9962 111.319C87.003 111.285 87.0064 111.258 87.0064 111.238C87.0064 111.116 86.9623 111.027 86.8741 110.973C86.7858 110.912 86.6331 110.881 86.4159 110.881L86.4566 110.627L87.7904 110.169H88.0042L87.4341 113.63C87.4205 113.692 87.4103 113.759 87.4035 113.834C87.4035 113.909 87.4035 113.97 87.4035 114.017C87.4035 114.126 87.4137 114.231 87.4341 114.333C87.4544 114.435 87.4917 114.526 87.5461 114.608C87.6071 114.689 87.6852 114.754 87.7802 114.801C87.8753 114.849 87.9974 114.873 88.1468 114.873C88.2893 114.873 88.4319 114.832 88.5744 114.75C88.717 114.662 88.8459 114.554 88.9613 114.425C89.0767 114.289 89.1751 114.136 89.2566 113.966C89.3448 113.797 89.4059 113.624 89.4399 113.447L89.9795 110.27H90.7941L90.1424 114.231C90.1356 114.265 90.1288 114.309 90.1221 114.364C90.1153 114.418 90.1119 114.462 90.1119 114.496C90.1119 114.7 90.2001 114.801 90.3766 114.801C90.5124 114.801 90.6311 114.757 90.733 114.669C90.8348 114.574 90.9604 114.438 91.1097 114.262L91.0181 114.73C90.8823 114.94 90.7398 115.107 90.5904 115.229C90.4479 115.351 90.2578 115.412 90.0202 115.412C89.7284 115.412 89.5315 115.338 89.4297 115.188C89.3279 115.032 89.277 114.845 89.277 114.628C89.277 114.588 89.277 114.55 89.277 114.516C89.277 114.482 89.2804 114.445 89.2871 114.404C89.2261 114.52 89.148 114.642 89.053 114.771C88.9579 114.893 88.8425 115.005 88.7068 115.107C88.5778 115.209 88.4319 115.293 88.269 115.361C88.1061 115.429 87.9296 115.463 87.7395 115.463C87.5223 115.463 87.3356 115.429 87.1795 115.361C87.0302 115.293 86.908 115.205 86.813 115.097C86.7247 114.981 86.6602 114.849 86.6195 114.7C86.5788 114.543 86.5584 114.38 86.5584 114.211C86.5584 114.143 86.5618 114.061 86.5686 113.966C86.5754 113.871 86.5856 113.79 86.5991 113.722L86.9861 111.411ZM95.0268 114.333C94.891 114.679 94.6874 114.954 94.4158 115.158C94.1511 115.361 93.8253 115.463 93.4384 115.463C93.1601 115.463 92.9055 115.412 92.6748 115.31C92.4508 115.209 92.2573 115.066 92.0944 114.883C91.9383 114.7 91.8161 114.482 91.7278 114.231C91.6396 113.973 91.5955 113.692 91.5955 113.386C91.5955 113.006 91.6464 112.626 91.7482 112.246C91.85 111.859 92.0061 111.513 92.2166 111.207C92.427 110.902 92.6917 110.654 93.0108 110.464C93.3298 110.267 93.7065 110.169 94.1409 110.169C94.5278 110.169 94.8299 110.26 95.0471 110.444C95.2711 110.627 95.3831 110.878 95.3831 111.197C95.3831 111.55 95.2813 111.845 95.0777 112.083C94.874 112.314 94.6263 112.504 94.3344 112.653C94.0425 112.796 93.7337 112.904 93.4078 112.979C93.082 113.053 92.7935 113.104 92.5424 113.132C92.5356 113.179 92.5322 113.227 92.5322 113.274C92.5322 113.315 92.5322 113.356 92.5322 113.396C92.5322 113.831 92.6306 114.173 92.8275 114.425C93.0311 114.669 93.323 114.791 93.7031 114.791C93.9678 114.791 94.2122 114.72 94.4362 114.577C94.667 114.428 94.8876 114.204 95.098 113.905L95.0268 114.333ZM94.0086 110.494C93.7846 110.494 93.5843 110.576 93.4078 110.739C93.2381 110.902 93.0922 111.102 92.97 111.34C92.8478 111.57 92.7528 111.818 92.6849 112.083C92.6171 112.341 92.5729 112.572 92.5526 112.775C92.7562 112.755 92.97 112.707 93.194 112.633C93.4248 112.551 93.6352 112.446 93.8253 112.317C94.0221 112.181 94.1817 112.015 94.3038 111.818C94.4328 111.614 94.4973 111.38 94.4973 111.116C94.4973 110.939 94.4532 110.793 94.3649 110.678C94.2835 110.556 94.1647 110.494 94.0086 110.494ZM96.6069 111.411C96.6137 111.377 96.6171 111.346 96.6171 111.319C96.6239 111.285 96.6273 111.258 96.6273 111.238C96.6273 111.116 96.5832 111.027 96.4949 110.973C96.4067 110.912 96.254 110.881 96.0367 110.881L96.0775 110.627L97.4215 110.169H97.6353L97.2382 112.561H99.1931L99.58 110.27H100.395L99.7327 114.231C99.726 114.265 99.7192 114.309 99.7124 114.364C99.7124 114.418 99.7124 114.462 99.7124 114.496C99.7124 114.7 99.8006 114.801 99.9771 114.801C100.113 114.801 100.232 114.757 100.333 114.669C100.435 114.574 100.561 114.438 100.71 114.262L100.619 114.73C100.483 114.94 100.34 115.107 100.191 115.229C100.048 115.351 99.8583 115.412 99.6207 115.412C99.3289 115.412 99.132 115.338 99.0302 115.188C98.9284 115.032 98.8775 114.845 98.8775 114.628C98.8775 114.554 98.8809 114.482 98.8877 114.414C98.8944 114.347 98.9046 114.275 98.9182 114.201L99.132 112.918H97.1771L96.7698 115.361H95.9553L96.6069 111.411ZM107.224 111.93C107.244 111.808 107.254 111.679 107.254 111.543C107.254 111.34 107.204 111.16 107.102 111.004C107 110.841 106.82 110.759 106.562 110.759C106.406 110.759 106.257 110.803 106.114 110.892C105.972 110.973 105.843 111.082 105.727 111.217C105.612 111.346 105.513 111.496 105.432 111.665C105.357 111.828 105.306 111.991 105.279 112.154L104.74 115.361H103.925L104.505 111.91C104.512 111.849 104.516 111.788 104.516 111.726C104.522 111.659 104.526 111.597 104.526 111.543C104.526 111.441 104.516 111.343 104.495 111.248C104.475 111.153 104.437 111.071 104.383 111.004C104.336 110.929 104.268 110.871 104.18 110.83C104.091 110.783 103.976 110.759 103.833 110.759C103.684 110.759 103.538 110.803 103.396 110.892C103.26 110.973 103.134 111.082 103.019 111.217C102.903 111.353 102.805 111.506 102.724 111.676C102.649 111.838 102.598 112.001 102.571 112.164L102.031 115.361H101.217L102.062 110.27H102.286L102.734 111.207C102.795 111.092 102.869 110.973 102.958 110.851C103.053 110.729 103.165 110.617 103.294 110.515C103.423 110.413 103.565 110.332 103.721 110.27C103.884 110.203 104.057 110.169 104.241 110.169C104.451 110.169 104.624 110.199 104.76 110.26C104.902 110.315 105.018 110.393 105.106 110.494C105.194 110.596 105.259 110.715 105.3 110.851C105.34 110.987 105.367 111.132 105.381 111.289C105.442 111.153 105.524 111.02 105.625 110.892C105.727 110.756 105.843 110.634 105.972 110.525C106.107 110.416 106.257 110.332 106.42 110.27C106.582 110.203 106.756 110.169 106.939 110.169C107.156 110.169 107.336 110.203 107.478 110.27C107.628 110.332 107.747 110.42 107.835 110.535C107.93 110.644 107.994 110.773 108.028 110.922C108.069 111.071 108.089 111.228 108.089 111.39C108.089 111.533 108.079 111.676 108.059 111.818L107.662 114.231C107.655 114.265 107.648 114.309 107.641 114.364C107.635 114.418 107.631 114.462 107.631 114.496C107.631 114.598 107.655 114.676 107.702 114.73C107.757 114.778 107.825 114.801 107.906 114.801C108.042 114.801 108.161 114.757 108.262 114.669C108.364 114.574 108.486 114.438 108.629 114.262L108.548 114.73C108.412 114.94 108.269 115.107 108.12 115.229C107.971 115.351 107.777 115.412 107.54 115.412C107.254 115.412 107.061 115.338 106.959 115.188C106.857 115.032 106.806 114.845 106.806 114.628C106.806 114.554 106.81 114.482 106.817 114.414C106.823 114.347 106.834 114.275 106.847 114.201L107.224 111.93ZM117.809 112.429H120.303L120.222 112.897H117.727L117.809 112.429ZM119.234 111.849C118.827 111.849 118.515 111.72 118.298 111.462C118.087 111.197 117.982 110.82 117.982 110.332C117.982 109.924 118.026 109.561 118.114 109.242C118.209 108.916 118.335 108.645 118.491 108.428C118.654 108.21 118.837 108.044 119.041 107.929C119.251 107.813 119.472 107.756 119.703 107.756C120.103 107.756 120.412 107.895 120.629 108.173C120.846 108.444 120.955 108.831 120.955 109.334C120.955 109.707 120.908 110.05 120.813 110.362C120.724 110.668 120.599 110.932 120.436 111.156C120.28 111.373 120.096 111.543 119.886 111.665C119.682 111.788 119.465 111.849 119.234 111.849ZM118.735 110.678C118.735 110.983 118.776 111.2 118.858 111.329C118.946 111.452 119.068 111.513 119.224 111.513C119.36 111.513 119.486 111.441 119.601 111.299C119.723 111.149 119.828 110.956 119.917 110.718C120.005 110.481 120.073 110.213 120.12 109.914C120.174 109.615 120.202 109.31 120.202 108.998C120.202 108.679 120.158 108.448 120.069 108.305C119.988 108.163 119.869 108.092 119.713 108.092C119.584 108.092 119.458 108.163 119.336 108.305C119.221 108.448 119.119 108.638 119.031 108.876C118.942 109.113 118.871 109.388 118.817 109.7C118.763 110.012 118.735 110.338 118.735 110.678ZM112.789 108.947L111.914 114.302C111.907 114.336 111.9 114.384 111.893 114.445C111.886 114.506 111.883 114.557 111.883 114.598C111.883 114.754 111.931 114.879 112.026 114.974C112.127 115.069 112.301 115.117 112.545 115.117L112.504 115.361H110.549L110.59 115.117C110.875 115.117 111.082 115.056 111.211 114.934C111.34 114.805 111.422 114.642 111.455 114.445L112.372 108.937C112.379 108.903 112.385 108.855 112.392 108.794C112.399 108.733 112.402 108.682 112.402 108.641C112.402 108.485 112.351 108.36 112.25 108.265C112.148 108.17 111.971 108.122 111.72 108.122L111.761 107.878H113.421L115.864 113.305L116.587 108.937C116.594 108.903 116.601 108.855 116.607 108.794C116.614 108.733 116.618 108.682 116.618 108.641C116.618 108.485 116.567 108.36 116.465 108.265C116.37 108.17 116.2 108.122 115.956 108.122L115.997 107.878H117.951L117.911 108.122C117.626 108.122 117.419 108.187 117.29 108.316C117.161 108.438 117.079 108.597 117.045 108.794L115.925 115.463H115.722L112.789 108.947ZM120.628 115.361L120.669 115.117C121.036 115.117 121.304 115.049 121.473 114.913C121.643 114.778 121.745 114.601 121.779 114.384L122.685 108.855L121.382 109.822L121.463 109.303L123.428 107.756H123.734L122.685 114.211C122.678 114.245 122.668 114.306 122.655 114.394C122.641 114.482 122.634 114.547 122.634 114.588C122.634 114.764 122.699 114.896 122.828 114.985C122.963 115.073 123.194 115.117 123.52 115.117L123.469 115.361H120.628Z" fill="#104A99"/>
<rect x="12.0133" y="87.9429" width="174.313" height="46.8364" rx="3.46182" stroke="#ADBFFD" stroke-width="1.22182"/>
<rect x="195.693" y="18.7066" width="180.015" height="59.8692" rx="3.46182" fill="white"/>
<path d="M260.154 44.9168H263.978C264.866 44.9168 265.534 45.1449 265.982 45.6011C266.43 46.0491 266.654 46.6803 266.654 47.4949C266.654 48.3094 266.43 48.9448 265.982 49.4009C265.534 49.8489 264.866 50.0729 263.978 50.0729H261.315V53.6406H260.154V44.9168ZM263.588 49.0955C264.247 49.0955 264.728 48.9611 265.029 48.6923C265.339 48.4153 265.494 48.0162 265.494 47.4949C265.494 46.9736 265.339 46.5785 265.029 46.3097C264.728 46.0328 264.247 45.8943 263.588 45.8943H261.315V49.0955H263.588ZM270.227 53.775C269.722 53.775 269.278 53.6936 268.896 53.5307C268.521 53.3678 268.207 53.1397 267.955 52.8464C267.702 52.5532 267.511 52.203 267.38 51.7957C267.258 51.3884 267.197 50.9445 267.197 50.4639C267.197 49.9915 267.271 49.5557 267.417 49.1565C267.564 48.7493 267.767 48.399 268.028 48.1058C268.297 47.8125 268.61 47.5845 268.969 47.4216C269.335 47.2587 269.735 47.1772 270.166 47.1772C270.728 47.1772 271.193 47.2953 271.559 47.5315C271.934 47.7596 272.231 48.0528 272.451 48.4112C272.679 48.7696 272.834 49.1606 272.915 49.5842C273.005 50.0077 273.042 50.4109 273.025 50.7938H268.297C268.289 51.0707 268.321 51.3355 268.395 51.588C268.468 51.8323 268.586 52.0523 268.749 52.2478C268.912 52.4351 269.12 52.5858 269.372 52.6998C269.625 52.8139 269.922 52.8709 270.264 52.8709C270.704 52.8709 271.062 52.7691 271.339 52.5654C271.624 52.3618 271.812 52.0523 271.901 51.6368H272.928C272.789 52.3536 272.484 52.8912 272.011 53.2496C271.539 53.5999 270.944 53.775 270.227 53.775ZM271.926 49.8774C271.909 49.6331 271.852 49.4009 271.755 49.181C271.665 48.9611 271.539 48.7737 271.376 48.6189C271.221 48.456 271.034 48.3298 270.814 48.2402C270.602 48.1424 270.366 48.0936 270.105 48.0936C269.836 48.0936 269.592 48.1424 269.372 48.2402C269.16 48.3298 268.977 48.456 268.822 48.6189C268.667 48.7819 268.545 48.9733 268.456 49.1932C268.366 49.405 268.313 49.6331 268.297 49.8774H271.926ZM272.99 52.7243H273.735C273.825 52.5532 273.914 52.3211 274.004 52.0278C274.102 51.7264 274.187 51.3966 274.261 51.0381C274.342 50.6716 274.407 50.2847 274.456 49.8774C274.505 49.4701 274.529 49.071 274.529 48.68V47.3238H279.099V52.7243H279.954V55.5589H278.965V53.6406H273.98V55.5589H272.99V52.7243ZM278.061 52.7243V48.2402H275.544V48.7778C275.544 49.1769 275.519 49.576 275.47 49.9752C275.43 50.3661 275.373 50.7368 275.299 51.087C275.226 51.4373 275.144 51.755 275.055 52.04C274.973 52.3251 274.892 52.5532 274.81 52.7243H278.061ZM282.311 53.775C282.026 53.775 281.757 53.7424 281.504 53.6773C281.252 53.6203 281.028 53.5225 280.832 53.384C280.645 53.2374 280.494 53.0542 280.38 52.8342C280.274 52.6062 280.222 52.3333 280.222 52.0156C280.222 51.6572 280.283 51.364 280.405 51.1359C280.527 50.9078 280.686 50.7245 280.881 50.5861C281.085 50.4395 281.313 50.3295 281.566 50.2562C281.826 50.1829 282.091 50.1218 282.36 50.0729C282.645 50.0159 282.914 49.9752 283.166 49.9507C283.427 49.9181 283.655 49.8774 283.85 49.8285C284.046 49.7715 284.201 49.6941 284.315 49.5964C284.429 49.4905 284.486 49.3398 284.486 49.1443C284.486 48.9163 284.441 48.733 284.351 48.5945C284.27 48.456 284.16 48.3501 284.021 48.2768C283.891 48.2035 283.74 48.1547 283.569 48.1302C283.406 48.1058 283.243 48.0936 283.081 48.0936C282.641 48.0936 282.274 48.1791 281.981 48.3501C281.688 48.5131 281.529 48.8267 281.504 49.2909H280.466C280.482 48.9 280.564 48.5701 280.71 48.3013C280.857 48.0325 281.052 47.8166 281.297 47.6537C281.541 47.4827 281.818 47.3605 282.128 47.2872C282.445 47.2139 282.783 47.1772 283.142 47.1772C283.427 47.1772 283.708 47.1976 283.985 47.2383C284.27 47.279 284.526 47.3645 284.754 47.4949C284.983 47.6171 285.166 47.7922 285.304 48.0203C285.443 48.2483 285.512 48.5456 285.512 48.9122V52.1622C285.512 52.4066 285.524 52.5858 285.549 52.6998C285.581 52.8139 285.679 52.8709 285.842 52.8709C285.915 52.8709 286.021 52.8505 286.16 52.8098V53.6162C285.98 53.7221 285.732 53.775 285.414 53.775C285.145 53.775 284.93 53.7017 284.767 53.5551C284.612 53.4003 284.535 53.1519 284.535 52.8098C284.249 53.1519 283.915 53.4003 283.533 53.5551C283.158 53.7017 282.751 53.775 282.311 53.775ZM282.543 52.8709C282.885 52.8709 283.178 52.8261 283.423 52.7365C283.667 52.6387 283.867 52.5206 284.021 52.3822C284.176 52.2355 284.29 52.0808 284.363 51.9179C284.437 51.7468 284.473 51.588 284.473 51.4414V50.3784C284.343 50.4843 284.172 50.5576 283.96 50.5983C283.749 50.639 283.525 50.6757 283.288 50.7083C283.06 50.7408 282.828 50.7734 282.592 50.806C282.356 50.8386 282.144 50.8956 281.957 50.9771C281.769 51.0585 281.614 51.1766 281.492 51.3314C281.378 51.478 281.321 51.6816 281.321 51.9423C281.321 52.1134 281.354 52.26 281.419 52.3822C281.492 52.4962 281.582 52.5899 281.688 52.6632C281.802 52.7365 281.932 52.7894 282.079 52.822C282.225 52.8546 282.38 52.8709 282.543 52.8709ZM286.76 47.3238H287.798V50.3417L290.694 47.3238H292.075L289.277 50.0607L292.404 53.6406H291.073L288.433 50.6349L287.798 51.2581V53.6406H286.76V47.3238ZM294.352 48.2402H292.091V47.3238H297.65V48.2402H295.39V53.6406H294.352V48.2402ZM300.838 53.775C300.333 53.775 299.889 53.6936 299.506 53.5307C299.132 53.3596 298.814 53.1275 298.553 52.8342C298.293 52.5328 298.097 52.1826 297.967 51.7835C297.836 51.3843 297.771 50.9526 297.771 50.4883C297.771 50.024 297.836 49.5923 297.967 49.1932C298.097 48.7859 298.293 48.4357 298.553 48.1424C298.814 47.8411 299.132 47.6048 299.506 47.4338C299.889 47.2627 300.333 47.1772 300.838 47.1772C301.335 47.1772 301.775 47.2627 302.158 47.4338C302.541 47.6048 302.862 47.8411 303.123 48.1424C303.384 48.4357 303.579 48.7859 303.709 49.1932C303.84 49.5923 303.905 50.024 303.905 50.4883C303.905 50.9526 303.84 51.3843 303.709 51.7835C303.579 52.1826 303.384 52.5328 303.123 52.8342C302.862 53.1275 302.541 53.3596 302.158 53.5307C301.775 53.6936 301.335 53.775 300.838 53.775ZM300.838 52.8709C301.107 52.8709 301.359 52.8179 301.596 52.712C301.84 52.6062 302.052 52.4555 302.231 52.26C302.41 52.0563 302.549 51.8079 302.646 51.5147C302.752 51.2133 302.805 50.8712 302.805 50.4883C302.805 50.1055 302.752 49.7675 302.646 49.4742C302.549 49.1728 302.41 48.9203 302.231 48.7167C302.052 48.5131 301.84 48.3583 301.596 48.2524C301.359 48.1465 301.107 48.0936 300.838 48.0936C300.569 48.0936 300.313 48.1465 300.068 48.2524C299.832 48.3583 299.624 48.5131 299.445 48.7167C299.266 48.9203 299.123 49.1728 299.018 49.4742C298.92 49.7675 298.871 50.1055 298.871 50.4883C298.871 50.8712 298.92 51.2133 299.018 51.5147C299.123 51.8079 299.266 52.0563 299.445 52.26C299.624 52.4555 299.832 52.6062 300.068 52.712C300.313 52.8179 300.569 52.8709 300.838 52.8709ZM304.799 47.3238H305.838V48.1791H305.862C306.034 47.8288 306.302 47.5763 306.669 47.4216C307.035 47.2587 307.439 47.1772 307.878 47.1772C308.367 47.1772 308.791 47.2668 309.149 47.446C309.516 47.6252 309.817 47.8696 310.053 48.1791C310.298 48.4805 310.481 48.8307 310.603 49.2299C310.725 49.629 310.786 50.0525 310.786 50.5005C310.786 50.9567 310.725 51.3843 310.603 51.7835C310.489 52.1744 310.31 52.5206 310.066 52.822C309.829 53.1152 309.528 53.3474 309.161 53.5184C308.803 53.6895 308.383 53.775 307.903 53.775C307.74 53.775 307.565 53.7587 307.378 53.7262C307.19 53.6936 307.003 53.6406 306.815 53.5673C306.628 53.494 306.449 53.3963 306.278 53.2741C306.115 53.1438 305.976 52.9849 305.862 52.7976H305.838V56.0476H304.799V47.3238ZM307.793 52.8709C308.143 52.8709 308.44 52.8016 308.685 52.6632C308.929 52.5247 309.125 52.3414 309.271 52.1134C309.418 51.8853 309.524 51.6246 309.589 51.3314C309.654 51.0381 309.687 50.7368 309.687 50.4272C309.687 50.134 309.646 49.8489 309.565 49.572C309.491 49.2869 309.373 49.0344 309.21 48.8144C309.055 48.5945 308.852 48.4194 308.599 48.2891C308.355 48.1587 308.066 48.0936 307.732 48.0936C307.382 48.0936 307.084 48.1628 306.84 48.3013C306.596 48.4397 306.396 48.623 306.241 48.8511C306.086 49.071 305.972 49.3235 305.899 49.6086C305.834 49.8937 305.801 50.1829 305.801 50.4761C305.801 50.7856 305.838 51.087 305.911 51.3803C305.985 51.6654 306.099 51.9179 306.253 52.1378C306.416 52.3577 306.624 52.5369 306.877 52.6754C307.129 52.8057 307.435 52.8709 307.793 52.8709Z" fill="#104A99"/>
<rect x="195.693" y="18.7066" width="180.015" height="59.8692" rx="3.46182" stroke="#ADBFFD" stroke-width="1.22182" stroke-dasharray="12.22 4.07"/>
<rect x="195.693" y="87.9429" width="180.015" height="46.4291" rx="3.46182" fill="white"/>
<path d="M262.542 111.625L265.168 108.805C265.263 108.703 265.338 108.604 265.392 108.509C265.454 108.414 265.484 108.323 265.484 108.235C265.484 108.024 265.297 107.919 264.924 107.919L264.965 107.675H267.317L267.276 107.919C266.984 107.919 266.736 107.973 266.533 108.082C266.329 108.19 266.132 108.347 265.942 108.55L264.11 110.536L265.606 114.333C265.674 114.51 265.773 114.653 265.902 114.761C266.031 114.863 266.207 114.914 266.431 114.914L266.39 115.158H264.914L263.427 111.269L262.419 112.338L262.134 114.099C262.127 114.133 262.121 114.181 262.114 114.242C262.107 114.303 262.104 114.354 262.104 114.395C262.104 114.551 262.151 114.676 262.246 114.771C262.348 114.866 262.521 114.914 262.766 114.914L262.725 115.158H260.281L260.322 114.914C260.607 114.914 260.814 114.853 260.943 114.731C261.072 114.602 261.153 114.439 261.187 114.242L262.104 108.733C262.11 108.7 262.117 108.652 262.124 108.591C262.131 108.53 262.134 108.479 262.134 108.438C262.134 108.282 262.083 108.156 261.982 108.061C261.88 107.966 261.703 107.919 261.452 107.919L261.493 107.675H263.957L263.916 107.919C263.624 107.919 263.414 107.983 263.285 108.112C263.156 108.241 263.074 108.401 263.04 108.591L262.542 111.625ZM270.507 110.403H269.214L269.001 111.421C268.953 111.652 268.895 111.907 268.827 112.185C268.76 112.457 268.682 112.735 268.593 113.02C268.512 113.305 268.417 113.583 268.308 113.855C268.206 114.12 268.094 114.357 267.972 114.568C267.85 114.778 267.718 114.948 267.575 115.077C267.439 115.199 267.293 115.26 267.137 115.26C266.94 115.26 266.805 115.209 266.73 115.107C266.655 115.005 266.601 114.89 266.567 114.761L266.659 114.242C266.733 114.33 266.801 114.391 266.862 114.425C266.93 114.459 267.022 114.476 267.137 114.476C267.483 114.476 267.779 114.184 268.023 113.6C268.267 113.017 268.502 112.155 268.726 111.014C268.732 110.987 268.739 110.95 268.746 110.902C268.753 110.848 268.756 110.804 268.756 110.77C268.756 110.641 268.712 110.539 268.624 110.464C268.542 110.39 268.393 110.352 268.176 110.352L268.237 110.067H271.383L270.721 114.028C270.714 114.062 270.708 114.106 270.701 114.16C270.694 114.215 270.691 114.259 270.691 114.293C270.691 114.496 270.782 114.598 270.966 114.598C271.101 114.598 271.22 114.554 271.322 114.466C271.424 114.371 271.546 114.235 271.689 114.059L271.607 114.527C271.471 114.737 271.329 114.904 271.179 115.026C271.037 115.148 270.847 115.209 270.609 115.209C270.317 115.209 270.121 115.134 270.019 114.985C269.917 114.829 269.866 114.642 269.866 114.425C269.866 114.35 269.869 114.279 269.876 114.211C269.883 114.143 269.893 114.072 269.907 113.997L270.507 110.403ZM272.901 111.208C272.908 111.174 272.911 111.143 272.911 111.116C272.918 111.082 272.921 111.055 272.921 111.035C272.921 110.912 272.877 110.824 272.789 110.77C272.701 110.709 272.548 110.678 272.331 110.678L272.371 110.424L273.705 109.965H273.919L273.349 113.427C273.335 113.488 273.325 113.556 273.318 113.631C273.318 113.706 273.318 113.767 273.318 113.814C273.318 113.923 273.328 114.028 273.349 114.13C273.369 114.232 273.407 114.323 273.461 114.405C273.522 114.486 273.6 114.551 273.695 114.598C273.79 114.646 273.912 114.669 274.062 114.669C274.204 114.669 274.347 114.629 274.489 114.547C274.632 114.459 274.761 114.35 274.876 114.221C274.991 114.086 275.09 113.933 275.171 113.763C275.26 113.594 275.321 113.421 275.355 113.244L275.894 110.067H276.709L276.057 114.028C276.05 114.062 276.044 114.106 276.037 114.16C276.03 114.215 276.027 114.259 276.027 114.293C276.027 114.496 276.115 114.598 276.291 114.598C276.427 114.598 276.546 114.554 276.648 114.466C276.75 114.371 276.875 114.235 277.024 114.059L276.933 114.527C276.797 114.737 276.655 114.904 276.505 115.026C276.363 115.148 276.173 115.209 275.935 115.209C275.643 115.209 275.446 115.134 275.344 114.985C275.243 114.829 275.192 114.642 275.192 114.425C275.192 114.384 275.192 114.347 275.192 114.313C275.192 114.279 275.195 114.242 275.202 114.201C275.141 114.317 275.063 114.439 274.968 114.568C274.873 114.69 274.757 114.802 274.622 114.904C274.493 115.005 274.347 115.09 274.184 115.158C274.021 115.226 273.844 115.26 273.654 115.26C273.437 115.26 273.25 115.226 273.094 115.158C272.945 115.09 272.823 115.002 272.728 114.893C272.639 114.778 272.575 114.646 272.534 114.496C272.494 114.34 272.473 114.177 272.473 114.008C272.473 113.94 272.477 113.858 272.483 113.763C272.49 113.668 272.5 113.587 272.514 113.519L272.901 111.208ZM280.942 114.13C280.806 114.476 280.602 114.751 280.331 114.955C280.066 115.158 279.74 115.26 279.353 115.26C279.075 115.26 278.82 115.209 278.59 115.107C278.366 115.005 278.172 114.863 278.009 114.68C277.853 114.496 277.731 114.279 277.643 114.028C277.554 113.77 277.51 113.488 277.51 113.183C277.51 112.803 277.561 112.423 277.663 112.043C277.765 111.656 277.921 111.309 278.131 111.004C278.342 110.699 278.606 110.451 278.926 110.261C279.245 110.064 279.621 109.965 280.056 109.965C280.443 109.965 280.745 110.057 280.962 110.24C281.186 110.424 281.298 110.675 281.298 110.994C281.298 111.347 281.196 111.642 280.992 111.88C280.789 112.11 280.541 112.301 280.249 112.45C279.957 112.592 279.648 112.701 279.323 112.776C278.997 112.85 278.708 112.901 278.457 112.928C278.45 112.976 278.447 113.023 278.447 113.071C278.447 113.112 278.447 113.152 278.447 113.193C278.447 113.628 278.545 113.97 278.742 114.221C278.946 114.466 279.238 114.588 279.618 114.588C279.883 114.588 280.127 114.517 280.351 114.374C280.582 114.225 280.802 114.001 281.013 113.702L280.942 114.13ZM279.923 110.291C279.699 110.291 279.499 110.373 279.323 110.536C279.153 110.699 279.007 110.899 278.885 111.136C278.763 111.367 278.668 111.615 278.6 111.88C278.532 112.138 278.488 112.368 278.467 112.572C278.671 112.552 278.885 112.504 279.109 112.429C279.34 112.348 279.55 112.243 279.74 112.114C279.937 111.978 280.096 111.812 280.219 111.615C280.348 111.411 280.412 111.177 280.412 110.912C280.412 110.736 280.368 110.59 280.28 110.475C280.198 110.352 280.079 110.291 279.923 110.291ZM282.522 111.208C282.528 111.174 282.532 111.143 282.532 111.116C282.539 111.082 282.542 111.055 282.542 111.035C282.542 110.912 282.498 110.824 282.41 110.77C282.321 110.709 282.169 110.678 281.952 110.678L281.992 110.424L283.336 109.965H283.55L283.153 112.358H285.108L285.495 110.067H286.309L285.648 114.028C285.641 114.062 285.634 114.106 285.627 114.16C285.627 114.215 285.627 114.259 285.627 114.293C285.627 114.496 285.715 114.598 285.892 114.598C286.028 114.598 286.146 114.554 286.248 114.466C286.35 114.371 286.476 114.235 286.625 114.059L286.533 114.527C286.398 114.737 286.255 114.904 286.106 115.026C285.963 115.148 285.773 115.209 285.536 115.209C285.244 115.209 285.047 115.134 284.945 114.985C284.843 114.829 284.792 114.642 284.792 114.425C284.792 114.35 284.796 114.279 284.802 114.211C284.809 114.143 284.819 114.072 284.833 113.997L285.047 112.715H283.092L282.685 115.158H281.87L282.522 111.208ZM293.139 111.727C293.159 111.605 293.169 111.476 293.169 111.34C293.169 111.136 293.118 110.957 293.016 110.8C292.915 110.637 292.735 110.556 292.477 110.556C292.321 110.556 292.171 110.6 292.029 110.688C291.886 110.77 291.757 110.878 291.642 111.014C291.527 111.143 291.428 111.293 291.347 111.462C291.272 111.625 291.221 111.788 291.194 111.951L290.654 115.158H289.84L290.42 111.707C290.427 111.645 290.43 111.584 290.43 111.523C290.437 111.455 290.44 111.394 290.44 111.34C290.44 111.238 290.43 111.14 290.41 111.045C290.39 110.95 290.352 110.868 290.298 110.8C290.25 110.726 290.183 110.668 290.094 110.627C290.006 110.58 289.891 110.556 289.748 110.556C289.599 110.556 289.453 110.6 289.31 110.688C289.175 110.77 289.049 110.878 288.934 111.014C288.818 111.15 288.72 111.303 288.638 111.472C288.564 111.635 288.513 111.798 288.486 111.961L287.946 115.158H287.131L287.976 110.067H288.2L288.648 111.004C288.71 110.889 288.784 110.77 288.872 110.648C288.967 110.525 289.079 110.413 289.208 110.312C289.337 110.21 289.48 110.128 289.636 110.067C289.799 109.999 289.972 109.965 290.155 109.965C290.366 109.965 290.539 109.996 290.675 110.057C290.817 110.111 290.933 110.189 291.021 110.291C291.109 110.393 291.174 110.512 291.214 110.648C291.255 110.783 291.282 110.929 291.296 111.085C291.357 110.95 291.438 110.817 291.54 110.688C291.642 110.553 291.757 110.43 291.886 110.322C292.022 110.213 292.171 110.128 292.334 110.067C292.497 109.999 292.67 109.965 292.854 109.965C293.071 109.965 293.251 109.999 293.393 110.067C293.543 110.128 293.661 110.217 293.75 110.332C293.845 110.441 293.909 110.57 293.943 110.719C293.984 110.868 294.004 111.024 294.004 111.187C294.004 111.33 293.994 111.472 293.974 111.615L293.576 114.028C293.57 114.062 293.563 114.106 293.556 114.16C293.549 114.215 293.546 114.259 293.546 114.293C293.546 114.395 293.57 114.473 293.617 114.527C293.671 114.574 293.739 114.598 293.821 114.598C293.957 114.598 294.075 114.554 294.177 114.466C294.279 114.371 294.401 114.235 294.544 114.059L294.462 114.527C294.327 114.737 294.184 114.904 294.035 115.026C293.885 115.148 293.692 115.209 293.454 115.209C293.169 115.209 292.976 115.134 292.874 114.985C292.772 114.829 292.721 114.642 292.721 114.425C292.721 114.35 292.725 114.279 292.731 114.211C292.738 114.143 292.748 114.072 292.762 113.997L293.139 111.727ZM303.724 112.226H306.218L306.137 112.694H303.642L303.724 112.226ZM305.149 111.645C304.742 111.645 304.43 111.517 304.212 111.259C304.002 110.994 303.897 110.617 303.897 110.128C303.897 109.721 303.941 109.358 304.029 109.039C304.124 108.713 304.25 108.442 304.406 108.224C304.569 108.007 304.752 107.841 304.956 107.725C305.166 107.61 305.387 107.552 305.618 107.552C306.018 107.552 306.327 107.692 306.544 107.97C306.761 108.241 306.87 108.628 306.87 109.131C306.87 109.504 306.822 109.847 306.727 110.159C306.639 110.464 306.514 110.729 306.351 110.953C306.194 111.17 306.011 111.34 305.801 111.462C305.597 111.584 305.38 111.645 305.149 111.645ZM304.65 110.475C304.65 110.78 304.691 110.997 304.772 111.126C304.861 111.248 304.983 111.309 305.139 111.309C305.275 111.309 305.4 111.238 305.516 111.096C305.638 110.946 305.743 110.753 305.831 110.515C305.92 110.278 305.987 110.01 306.035 109.711C306.089 109.412 306.116 109.107 306.116 108.795C306.116 108.476 306.072 108.245 305.984 108.102C305.903 107.96 305.784 107.888 305.628 107.888C305.499 107.888 305.373 107.96 305.251 108.102C305.136 108.245 305.034 108.435 304.946 108.672C304.857 108.91 304.786 109.185 304.732 109.497C304.677 109.809 304.65 110.135 304.65 110.475ZM298.704 108.744L297.828 114.099C297.822 114.133 297.815 114.181 297.808 114.242C297.801 114.303 297.798 114.354 297.798 114.395C297.798 114.551 297.845 114.676 297.94 114.771C298.042 114.866 298.215 114.914 298.46 114.914L298.419 115.158H296.464L296.505 114.914C296.79 114.914 296.997 114.853 297.126 114.731C297.255 114.602 297.336 114.439 297.37 114.242L298.287 108.733C298.293 108.7 298.3 108.652 298.307 108.591C298.314 108.53 298.317 108.479 298.317 108.438C298.317 108.282 298.266 108.156 298.164 108.061C298.063 107.966 297.886 107.919 297.635 107.919L297.676 107.675H299.335L301.779 113.101L302.502 108.733C302.509 108.7 302.515 108.652 302.522 108.591C302.529 108.53 302.532 108.479 302.532 108.438C302.532 108.282 302.482 108.156 302.38 108.061C302.285 107.966 302.115 107.919 301.871 107.919L301.911 107.675H303.866L303.826 107.919C303.54 107.919 303.333 107.983 303.204 108.112C303.075 108.235 302.994 108.394 302.96 108.591L301.84 115.26H301.636L298.704 108.744ZM308.386 112.704C308.909 112.127 309.323 111.578 309.628 111.055C309.934 110.532 310.086 110.02 310.086 109.517C310.086 109.178 309.995 108.903 309.811 108.693C309.635 108.482 309.374 108.377 309.027 108.377C308.831 108.377 308.647 108.414 308.478 108.489C308.315 108.564 308.165 108.662 308.03 108.784C307.894 108.9 307.772 109.032 307.663 109.181C307.561 109.331 307.473 109.48 307.398 109.629L307.48 108.988C307.548 108.798 307.639 108.615 307.755 108.438C307.87 108.262 308.006 108.109 308.162 107.98C308.325 107.851 308.508 107.749 308.712 107.675C308.915 107.593 309.146 107.552 309.404 107.552C309.662 107.552 309.89 107.596 310.086 107.685C310.29 107.773 310.46 107.895 310.595 108.051C310.731 108.207 310.833 108.391 310.901 108.601C310.976 108.812 311.013 109.039 311.013 109.283C311.013 109.568 310.976 109.843 310.901 110.108C310.826 110.366 310.714 110.624 310.565 110.882C310.422 111.133 310.242 111.388 310.025 111.645C309.808 111.903 309.557 112.172 309.272 112.45L307.439 114.242H309.16C309.33 114.242 309.482 114.211 309.618 114.15C309.754 114.089 309.873 114.011 309.974 113.916C310.083 113.814 310.175 113.702 310.249 113.58C310.324 113.451 310.385 113.319 310.433 113.183H310.677L310.086 115.158H306.38L306.431 114.853L308.386 112.704Z" fill="#104A99"/>
<rect x="195.693" y="87.9429" width="180.015" height="46.4291" rx="3.46182" stroke="#ADBFFD" stroke-width="1.22182"/>
<rect x="385.076" y="18.7066" width="131.957" height="59.8692" rx="3.46182" fill="white"/>
<path d="M433.112 53.8361C432.436 53.8361 431.845 53.7221 431.34 53.494C430.835 53.2578 430.416 52.936 430.082 52.5288C429.748 52.1215 429.495 51.6409 429.324 51.087C429.162 50.5331 429.08 49.9385 429.08 49.3032C429.08 48.6678 429.17 48.0732 429.349 47.5193C429.528 46.9573 429.789 46.4685 430.131 46.0531C430.481 45.6377 430.913 45.3119 431.426 45.0757C431.939 44.8313 432.534 44.7091 433.21 44.7091C433.666 44.7091 434.098 44.7702 434.505 44.8924C434.912 45.0146 435.275 45.1938 435.592 45.43C435.91 45.6662 436.175 45.9635 436.387 46.3219C436.598 46.6722 436.737 47.0795 436.802 47.5437H435.641C435.511 46.9247 435.222 46.4604 434.774 46.1509C434.334 45.8413 433.809 45.6866 433.198 45.6866C432.676 45.6866 432.228 45.7843 431.854 45.9798C431.487 46.1753 431.182 46.44 430.937 46.774C430.701 47.0998 430.526 47.4745 430.412 47.8981C430.298 48.3216 430.241 48.7615 430.241 49.2176C430.241 49.7145 430.298 50.1869 430.412 50.6349C430.526 51.0748 430.701 51.4617 430.937 51.7957C431.182 52.1215 431.491 52.3822 431.866 52.5776C432.241 52.7731 432.689 52.8709 433.21 52.8709C433.585 52.8709 433.923 52.8098 434.224 52.6876C434.525 52.5573 434.782 52.3822 434.994 52.1622C435.214 51.9342 435.385 51.6654 435.507 51.3558C435.629 51.0463 435.702 50.7123 435.727 50.3539H436.887C436.773 51.4617 436.395 52.3211 435.751 52.932C435.116 53.5347 434.236 53.8361 433.112 53.8361ZM439.315 48.2402H437.055V47.3238H442.614V48.2402H440.354V53.6406H439.315V48.2402ZM443.724 56.1576C443.602 56.1576 443.48 56.1494 443.358 56.1331C443.236 56.1168 443.118 56.0883 443.004 56.0476V55.0946C443.101 55.1272 443.199 55.1598 443.297 55.1923C443.403 55.2249 443.509 55.2412 443.614 55.2412C443.826 55.2412 443.997 55.1923 444.128 55.0946C444.258 54.9968 444.372 54.8543 444.47 54.667L444.897 53.604L442.393 47.3238H443.566L445.411 52.4921H445.435L447.207 47.3238H448.306L445.557 54.4715C445.435 54.781 445.313 55.0416 445.191 55.2534C445.077 55.4652 444.946 55.6363 444.8 55.7666C444.661 55.9051 444.502 56.0028 444.323 56.0598C444.152 56.125 443.953 56.1576 443.724 56.1576ZM448.074 52.7243H448.819C448.909 52.5532 448.999 52.3211 449.088 52.0278C449.186 51.7264 449.271 51.3966 449.345 51.0381C449.426 50.6716 449.491 50.2847 449.54 49.8774C449.589 49.4701 449.614 49.071 449.614 48.68V47.3238H454.183V52.7243H455.038V55.5589H454.049V53.6406H449.064V55.5589H448.074V52.7243ZM453.145 52.7243V48.2402H450.628V48.7778C450.628 49.1769 450.603 49.576 450.554 49.9752C450.514 50.3661 450.457 50.7368 450.383 51.087C450.31 51.4373 450.229 51.755 450.139 52.04C450.058 52.3251 449.976 52.5532 449.895 52.7243H453.145ZM458.336 53.775C457.831 53.775 457.387 53.6936 457.004 53.5307C456.629 53.3678 456.316 53.1397 456.063 52.8464C455.811 52.5532 455.619 52.203 455.489 51.7957C455.367 51.3884 455.306 50.9445 455.306 50.4639C455.306 49.9915 455.379 49.5557 455.526 49.1565C455.672 48.7493 455.876 48.399 456.136 48.1058C456.405 47.8125 456.719 47.5845 457.077 47.4216C457.444 47.2587 457.843 47.1772 458.275 47.1772C458.837 47.1772 459.301 47.2953 459.668 47.5315C460.042 47.7596 460.34 48.0528 460.559 48.4112C460.788 48.7696 460.942 49.1606 461.024 49.5842C461.113 50.0077 461.15 50.4109 461.134 50.7938H456.405C456.397 51.0707 456.43 51.3355 456.503 51.588C456.576 51.8323 456.694 52.0523 456.857 52.2478C457.02 52.4351 457.228 52.5858 457.48 52.6998C457.733 52.8139 458.03 52.8709 458.372 52.8709C458.812 52.8709 459.171 52.7691 459.448 52.5654C459.733 52.3618 459.92 52.0523 460.01 51.6368H461.036C460.898 52.3536 460.592 52.8912 460.12 53.2496C459.647 53.5999 459.053 53.775 458.336 53.775ZM460.034 49.8774C460.018 49.6331 459.961 49.4009 459.863 49.181C459.773 48.9611 459.647 48.7737 459.484 48.6189C459.33 48.456 459.142 48.3298 458.922 48.2402C458.71 48.1424 458.474 48.0936 458.214 48.0936C457.945 48.0936 457.7 48.1424 457.48 48.2402C457.269 48.3298 457.085 48.456 456.931 48.6189C456.776 48.7819 456.654 48.9733 456.564 49.1932C456.475 49.405 456.422 49.6331 456.405 49.8774H460.034ZM461.844 47.3238H462.882V49.8408H466.083V47.3238H467.122V53.6406H466.083V50.7327H462.882V53.6406H461.844V47.3238ZM469.841 48.2402H467.581V47.3238H473.14V48.2402H470.88V53.6406H469.841V48.2402Z" fill="#104A99"/>
<rect x="385.076" y="18.7066" width="131.957" height="59.8692" rx="3.46182" stroke="#ADBFFD" stroke-width="1.22182" stroke-dasharray="12.22 4.07"/>
<rect x="385.076" y="87.9429" width="131.957" height="46.8364" rx="3.46182" fill="white"/>
<path d="M427.975 111.828L430.602 109.008C430.697 108.906 430.771 108.808 430.826 108.713C430.887 108.618 430.917 108.526 430.917 108.438C430.917 108.227 430.73 108.122 430.357 108.122L430.398 107.878H432.75L432.709 108.122C432.417 108.122 432.17 108.176 431.966 108.285C431.762 108.394 431.565 108.55 431.375 108.753L429.543 110.739L431.039 114.537C431.107 114.713 431.206 114.856 431.335 114.964C431.464 115.066 431.64 115.117 431.864 115.117L431.823 115.361H430.347L428.86 111.472L427.852 112.541L427.567 114.302C427.561 114.336 427.554 114.384 427.547 114.445C427.54 114.506 427.537 114.557 427.537 114.598C427.537 114.754 427.584 114.879 427.679 114.974C427.781 115.069 427.954 115.117 428.199 115.117L428.158 115.361H425.714L425.755 115.117C426.04 115.117 426.247 115.056 426.376 114.934C426.505 114.805 426.586 114.642 426.62 114.445L427.537 108.937C427.544 108.903 427.55 108.855 427.557 108.794C427.564 108.733 427.567 108.682 427.567 108.641C427.567 108.485 427.516 108.36 427.415 108.265C427.313 108.17 427.136 108.122 426.885 108.122L426.926 107.878H429.39L429.349 108.122C429.057 108.122 428.847 108.187 428.718 108.316C428.589 108.444 428.507 108.604 428.473 108.794L427.975 111.828ZM435.941 110.606H434.647L434.434 111.625C434.386 111.855 434.328 112.11 434.261 112.388C434.193 112.66 434.115 112.938 434.026 113.223C433.945 113.508 433.85 113.787 433.741 114.058C433.639 114.323 433.527 114.56 433.405 114.771C433.283 114.981 433.151 115.151 433.008 115.28C432.872 115.402 432.726 115.463 432.57 115.463C432.373 115.463 432.238 115.412 432.163 115.31C432.088 115.209 432.034 115.093 432 114.964L432.092 114.445C432.166 114.533 432.234 114.594 432.295 114.628C432.363 114.662 432.455 114.679 432.57 114.679C432.917 114.679 433.212 114.387 433.456 113.804C433.701 113.22 433.935 112.358 434.159 111.217C434.165 111.19 434.172 111.153 434.179 111.105C434.186 111.051 434.189 111.007 434.189 110.973C434.189 110.844 434.145 110.742 434.057 110.668C433.975 110.593 433.826 110.556 433.609 110.556L433.67 110.27H436.816L436.154 114.231C436.148 114.265 436.141 114.309 436.134 114.364C436.127 114.418 436.124 114.462 436.124 114.496C436.124 114.7 436.215 114.801 436.399 114.801C436.534 114.801 436.653 114.757 436.755 114.669C436.857 114.574 436.979 114.438 437.122 114.262L437.04 114.73C436.904 114.94 436.762 115.107 436.613 115.229C436.47 115.351 436.28 115.412 436.042 115.412C435.75 115.412 435.554 115.338 435.452 115.188C435.35 115.032 435.299 114.845 435.299 114.628C435.299 114.554 435.302 114.482 435.309 114.414C435.316 114.347 435.326 114.275 435.34 114.201L435.941 110.606ZM438.334 111.411C438.341 111.377 438.344 111.346 438.344 111.319C438.351 111.285 438.354 111.258 438.354 111.238C438.354 111.116 438.31 111.027 438.222 110.973C438.134 110.912 437.981 110.881 437.764 110.881L437.804 110.627L439.138 110.169H439.352L438.782 113.63C438.768 113.692 438.758 113.759 438.751 113.834C438.751 113.909 438.751 113.97 438.751 114.017C438.751 114.126 438.762 114.231 438.782 114.333C438.802 114.435 438.84 114.526 438.894 114.608C438.955 114.689 439.033 114.754 439.128 114.801C439.223 114.849 439.345 114.873 439.495 114.873C439.637 114.873 439.78 114.832 439.922 114.75C440.065 114.662 440.194 114.554 440.309 114.425C440.425 114.289 440.523 114.136 440.604 113.966C440.693 113.797 440.754 113.624 440.788 113.447L441.327 110.27H442.142L441.49 114.231C441.483 114.265 441.477 114.309 441.47 114.364C441.463 114.418 441.46 114.462 441.46 114.496C441.46 114.7 441.548 114.801 441.724 114.801C441.86 114.801 441.979 114.757 442.081 114.669C442.183 114.574 442.308 114.438 442.458 114.262L442.366 114.73C442.23 114.94 442.088 115.107 441.938 115.229C441.796 115.351 441.606 115.412 441.368 115.412C441.076 115.412 440.879 115.338 440.778 115.188C440.676 115.032 440.625 114.845 440.625 114.628C440.625 114.588 440.625 114.55 440.625 114.516C440.625 114.482 440.628 114.445 440.635 114.404C440.574 114.52 440.496 114.642 440.401 114.771C440.306 114.893 440.19 115.005 440.055 115.107C439.926 115.209 439.78 115.293 439.617 115.361C439.454 115.429 439.277 115.463 439.087 115.463C438.87 115.463 438.683 115.429 438.527 115.361C438.378 115.293 438.256 115.205 438.161 115.097C438.073 114.981 438.008 114.849 437.967 114.7C437.927 114.543 437.906 114.38 437.906 114.211C437.906 114.143 437.91 114.061 437.916 113.966C437.923 113.871 437.933 113.79 437.947 113.722L438.334 111.411ZM446.375 114.333C446.239 114.679 446.035 114.954 445.764 115.158C445.499 115.361 445.173 115.463 444.786 115.463C444.508 115.463 444.253 115.412 444.023 115.31C443.799 115.209 443.605 115.066 443.442 114.883C443.286 114.7 443.164 114.482 443.076 114.231C442.987 113.973 442.943 113.692 442.943 113.386C442.943 113.006 442.994 112.626 443.096 112.246C443.198 111.859 443.354 111.513 443.564 111.207C443.775 110.902 444.04 110.654 444.359 110.464C444.678 110.267 445.054 110.169 445.489 110.169C445.876 110.169 446.178 110.26 446.395 110.444C446.619 110.627 446.731 110.878 446.731 111.197C446.731 111.55 446.629 111.845 446.425 112.083C446.222 112.314 445.974 112.504 445.682 112.653C445.39 112.796 445.081 112.904 444.756 112.979C444.43 113.053 444.141 113.104 443.89 113.132C443.883 113.179 443.88 113.227 443.88 113.274C443.88 113.315 443.88 113.356 443.88 113.396C443.88 113.831 443.978 114.173 444.175 114.425C444.379 114.669 444.671 114.791 445.051 114.791C445.316 114.791 445.56 114.72 445.784 114.577C446.015 114.428 446.235 114.204 446.446 113.905L446.375 114.333ZM445.356 110.494C445.132 110.494 444.932 110.576 444.756 110.739C444.586 110.902 444.44 111.102 444.318 111.34C444.196 111.57 444.101 111.818 444.033 112.083C443.965 112.341 443.921 112.572 443.9 112.775C444.104 112.755 444.318 112.707 444.542 112.633C444.773 112.551 444.983 112.446 445.173 112.317C445.37 112.181 445.529 112.015 445.652 111.818C445.781 111.614 445.845 111.38 445.845 111.116C445.845 110.939 445.801 110.793 445.713 110.678C445.631 110.556 445.513 110.494 445.356 110.494ZM447.955 111.411C447.962 111.377 447.965 111.346 447.965 111.319C447.972 111.285 447.975 111.258 447.975 111.238C447.975 111.116 447.931 111.027 447.843 110.973C447.755 110.912 447.602 110.881 447.385 110.881L447.425 110.627L448.769 110.169H448.983L448.586 112.561H450.541L450.928 110.27H451.742L451.081 114.231C451.074 114.265 451.067 114.309 451.06 114.364C451.06 114.418 451.06 114.462 451.06 114.496C451.06 114.7 451.148 114.801 451.325 114.801C451.461 114.801 451.579 114.757 451.681 114.669C451.783 114.574 451.909 114.438 452.058 114.262L451.966 114.73C451.831 114.94 451.688 115.107 451.539 115.229C451.396 115.351 451.206 115.412 450.969 115.412C450.677 115.412 450.48 115.338 450.378 115.188C450.276 115.032 450.225 114.845 450.225 114.628C450.225 114.554 450.229 114.482 450.235 114.414C450.242 114.347 450.252 114.275 450.266 114.201L450.48 112.918H448.525L448.118 115.361H447.303L447.955 111.411ZM458.572 111.93C458.592 111.808 458.602 111.679 458.602 111.543C458.602 111.34 458.551 111.16 458.45 111.004C458.348 110.841 458.168 110.759 457.91 110.759C457.754 110.759 457.604 110.803 457.462 110.892C457.319 110.973 457.19 111.082 457.075 111.217C456.96 111.346 456.861 111.496 456.78 111.665C456.705 111.828 456.654 111.991 456.627 112.154L456.087 115.361H455.273L455.853 111.91C455.86 111.849 455.863 111.788 455.863 111.726C455.87 111.659 455.874 111.597 455.874 111.543C455.874 111.441 455.863 111.343 455.843 111.248C455.823 111.153 455.785 111.071 455.731 111.004C455.683 110.929 455.616 110.871 455.527 110.83C455.439 110.783 455.324 110.759 455.181 110.759C455.032 110.759 454.886 110.803 454.743 110.892C454.608 110.973 454.482 111.082 454.367 111.217C454.251 111.353 454.153 111.506 454.071 111.676C453.997 111.838 453.946 112.001 453.919 112.164L453.379 115.361H452.564L453.41 110.27H453.634L454.082 111.207C454.143 111.092 454.217 110.973 454.306 110.851C454.401 110.729 454.513 110.617 454.642 110.515C454.77 110.413 454.913 110.332 455.069 110.27C455.232 110.203 455.405 110.169 455.588 110.169C455.799 110.169 455.972 110.199 456.108 110.26C456.25 110.315 456.366 110.393 456.454 110.494C456.542 110.596 456.607 110.715 456.647 110.851C456.688 110.987 456.715 111.132 456.729 111.289C456.79 111.153 456.871 111.02 456.973 110.892C457.075 110.756 457.19 110.634 457.319 110.525C457.455 110.416 457.604 110.332 457.767 110.27C457.93 110.203 458.103 110.169 458.287 110.169C458.504 110.169 458.684 110.203 458.826 110.27C458.976 110.332 459.094 110.42 459.183 110.535C459.278 110.644 459.342 110.773 459.376 110.922C459.417 111.071 459.437 111.228 459.437 111.39C459.437 111.533 459.427 111.676 459.407 111.818L459.01 114.231C459.003 114.265 458.996 114.309 458.989 114.364C458.982 114.418 458.979 114.462 458.979 114.496C458.979 114.598 459.003 114.676 459.05 114.73C459.105 114.778 459.172 114.801 459.254 114.801C459.39 114.801 459.508 114.757 459.61 114.669C459.712 114.574 459.834 114.438 459.977 114.262L459.895 114.73C459.76 114.94 459.617 115.107 459.468 115.229C459.318 115.351 459.125 115.412 458.887 115.412C458.602 115.412 458.409 115.338 458.307 115.188C458.205 115.032 458.154 114.845 458.154 114.628C458.154 114.554 458.158 114.482 458.164 114.414C458.171 114.347 458.181 114.275 458.195 114.201L458.572 111.93ZM469.157 112.429H471.651L471.57 112.897H469.075L469.157 112.429ZM470.582 111.849C470.175 111.849 469.863 111.72 469.645 111.462C469.435 111.197 469.33 110.82 469.33 110.332C469.33 109.924 469.374 109.561 469.462 109.242C469.557 108.916 469.683 108.645 469.839 108.428C470.002 108.21 470.185 108.044 470.389 107.929C470.599 107.813 470.82 107.756 471.051 107.756C471.451 107.756 471.76 107.895 471.977 108.173C472.194 108.444 472.303 108.831 472.303 109.334C472.303 109.707 472.255 110.05 472.16 110.362C472.072 110.668 471.947 110.932 471.784 111.156C471.628 111.373 471.444 111.543 471.234 111.665C471.03 111.788 470.813 111.849 470.582 111.849ZM470.083 110.678C470.083 110.983 470.124 111.2 470.205 111.329C470.294 111.452 470.416 111.513 470.572 111.513C470.708 111.513 470.833 111.441 470.949 111.299C471.071 111.149 471.176 110.956 471.264 110.718C471.353 110.481 471.421 110.213 471.468 109.914C471.522 109.615 471.549 109.31 471.549 108.998C471.549 108.679 471.505 108.448 471.417 108.305C471.336 108.163 471.217 108.092 471.061 108.092C470.932 108.092 470.806 108.163 470.684 108.305C470.569 108.448 470.467 108.638 470.379 108.876C470.29 109.113 470.219 109.388 470.165 109.7C470.11 110.012 470.083 110.338 470.083 110.678ZM464.137 108.947L463.261 114.302C463.255 114.336 463.248 114.384 463.241 114.445C463.234 114.506 463.231 114.557 463.231 114.598C463.231 114.754 463.278 114.879 463.373 114.974C463.475 115.069 463.648 115.117 463.893 115.117L463.852 115.361H461.897L461.938 115.117C462.223 115.117 462.43 115.056 462.559 114.934C462.688 114.805 462.769 114.642 462.803 114.445L463.72 108.937C463.726 108.903 463.733 108.855 463.74 108.794C463.747 108.733 463.75 108.682 463.75 108.641C463.75 108.485 463.699 108.36 463.597 108.265C463.496 108.17 463.319 108.122 463.068 108.122L463.109 107.878H464.768L467.212 113.305L467.935 108.937C467.942 108.903 467.949 108.855 467.955 108.794C467.962 108.733 467.965 108.682 467.965 108.641C467.965 108.485 467.915 108.36 467.813 108.265C467.718 108.17 467.548 108.122 467.304 108.122L467.344 107.878H469.299L469.259 108.122C468.973 108.122 468.766 108.187 468.637 108.316C468.509 108.438 468.427 108.597 468.393 108.794L467.273 115.463H467.069L464.137 108.947ZM475.428 108.784H474.349C474.097 108.784 473.87 108.855 473.666 108.998C473.469 109.133 473.313 109.33 473.198 109.588H472.954L473.463 107.878H476.68L476.65 108.112L473.931 110.912C474.08 110.817 474.308 110.769 474.613 110.769C474.817 110.769 475.007 110.817 475.183 110.912C475.367 111.007 475.526 111.139 475.662 111.309C475.805 111.479 475.913 111.682 475.988 111.92C476.069 112.151 476.11 112.402 476.11 112.673C476.11 113.074 476.042 113.447 475.906 113.793C475.777 114.133 475.601 114.428 475.377 114.679C475.153 114.93 474.892 115.127 474.593 115.27C474.294 115.412 473.982 115.484 473.656 115.484C473.371 115.484 473.123 115.443 472.913 115.361C472.709 115.273 472.543 115.161 472.414 115.025C472.285 114.883 472.19 114.723 472.129 114.547C472.068 114.37 472.037 114.187 472.037 113.997L472.129 113.427C472.204 113.834 472.356 114.156 472.587 114.394C472.825 114.625 473.147 114.74 473.554 114.74C473.792 114.74 474.009 114.679 474.206 114.557C474.41 114.435 474.583 114.272 474.725 114.068C474.875 113.865 474.99 113.63 475.071 113.366C475.153 113.101 475.194 112.826 475.194 112.541C475.194 112.324 475.163 112.137 475.102 111.981C475.048 111.818 474.97 111.682 474.868 111.574C474.766 111.465 474.647 111.387 474.511 111.34C474.382 111.285 474.243 111.258 474.094 111.258C473.87 111.258 473.67 111.316 473.493 111.431C473.324 111.54 473.178 111.662 473.055 111.798L473.157 111.146L475.428 108.784Z" fill="#104A99"/>
<rect x="385.076" y="87.9429" width="131.957" height="46.8364" rx="3.46182" stroke="#ADBFFD" stroke-width="1.22182"/>
<rect x="526.4" y="18.7066" width="133.178" height="59.8692" rx="3.46182" fill="white"/>
<path d="M574.212 53.775C574.074 53.775 573.935 53.7587 573.797 53.7262C573.666 53.7017 573.556 53.6691 573.467 53.6284V52.5899C573.573 52.6387 573.678 52.6795 573.784 52.712C573.898 52.7365 574.025 52.7487 574.163 52.7487C574.383 52.7487 574.591 52.6713 574.786 52.5166C574.982 52.3618 575.153 52.1296 575.299 51.8201L575.446 51.5147L572 44.9168H573.259L576.057 50.3784L578.232 44.9168H579.466L576.533 51.6613C576.362 52.0686 576.187 52.4066 576.008 52.6754C575.829 52.9442 575.646 53.16 575.458 53.323C575.271 53.4859 575.071 53.5999 574.86 53.6651C574.656 53.7384 574.44 53.775 574.212 53.775ZM583.661 51.0748C583.473 51.1563 583.213 51.2336 582.879 51.3069C582.545 51.3803 582.194 51.4169 581.828 51.4169C581.046 51.4169 580.488 51.2499 580.154 50.916C579.82 50.5739 579.653 50.0973 579.653 49.4864V47.3238H580.692V49.3154C580.692 49.7308 580.785 50.0403 580.973 50.244C581.168 50.4395 581.518 50.5372 582.023 50.5372C582.333 50.5372 582.638 50.5046 582.94 50.4395C583.241 50.3743 583.481 50.301 583.661 50.2195V47.3238H584.699V53.6406H583.661V51.0748ZM588.59 53.775C588.085 53.775 587.641 53.6936 587.258 53.5307C586.883 53.3678 586.57 53.1397 586.317 52.8464C586.065 52.5532 585.873 52.203 585.743 51.7957C585.621 51.3884 585.56 50.9445 585.56 50.4639C585.56 49.9915 585.633 49.5557 585.78 49.1565C585.926 48.7493 586.13 48.399 586.391 48.1058C586.659 47.8125 586.973 47.5845 587.331 47.4216C587.698 47.2587 588.097 47.1772 588.529 47.1772C589.091 47.1772 589.555 47.2953 589.922 47.5315C590.296 47.7596 590.594 48.0528 590.814 48.4112C591.042 48.7696 591.196 49.1606 591.278 49.5842C591.368 50.0077 591.404 50.4109 591.388 50.7938H586.659C586.651 51.0707 586.684 51.3355 586.757 51.588C586.831 51.8323 586.949 52.0523 587.112 52.2478C587.274 52.4351 587.482 52.5858 587.735 52.6998C587.987 52.8139 588.284 52.8709 588.627 52.8709C589.066 52.8709 589.425 52.7691 589.702 52.5654C589.987 52.3618 590.174 52.0523 590.264 51.6368H591.29C591.152 52.3536 590.846 52.8912 590.374 53.2496C589.901 53.5999 589.307 53.775 588.59 53.775ZM590.288 49.8774C590.272 49.6331 590.215 49.4009 590.117 49.181C590.028 48.9611 589.901 48.7737 589.738 48.6189C589.584 48.456 589.396 48.3298 589.176 48.2402C588.965 48.1424 588.728 48.0936 588.468 48.0936C588.199 48.0936 587.955 48.1424 587.735 48.2402C587.523 48.3298 587.34 48.456 587.185 48.6189C587.03 48.7819 586.908 48.9733 586.818 49.1932C586.729 49.405 586.676 49.6331 586.659 49.8774H590.288ZM592.098 47.3238H593.136V49.8408H596.338V47.3238H597.376V53.6406H596.338V50.7327H593.136V53.6406H592.098V47.3238ZM598.568 47.3238H599.607V49.743H601.562C602.181 49.743 602.678 49.9141 603.052 50.2562C603.427 50.5901 603.614 51.0626 603.614 51.6735C603.614 52.2681 603.435 52.7446 603.077 53.103C602.718 53.4614 602.23 53.6406 601.611 53.6406H598.568V47.3238ZM601.232 52.7243C602.103 52.7243 602.539 52.374 602.539 51.6735C602.539 50.9811 602.103 50.6349 601.232 50.6349H599.607V52.7243H601.232ZM604.616 47.3238H605.655V53.6406H604.616V47.3238ZM606.852 47.3238H607.891V52.4799L610.872 47.3238H612.204V53.6406H611.165V48.4845L608.184 53.6406H606.852V47.3238ZM609.528 46.3952C609.284 46.3952 609.056 46.3586 608.844 46.2853C608.632 46.212 608.445 46.1061 608.282 45.9676C608.127 45.8291 608.001 45.6621 607.903 45.4667C607.813 45.263 607.769 45.0309 607.769 44.7702H608.636C608.652 45.373 608.946 45.6744 609.516 45.6744C609.801 45.6744 610.017 45.597 610.163 45.4422C610.318 45.2793 610.396 45.0553 610.396 44.7702H611.263C611.263 45.0146 611.218 45.2386 611.129 45.4422C611.039 45.6459 610.917 45.8169 610.762 45.9554C610.607 46.0939 610.424 46.2038 610.212 46.2853C610.001 46.3586 609.772 46.3952 609.528 46.3952Z" fill="#104A99"/>
<rect x="526.4" y="18.7066" width="133.178" height="59.8692" rx="3.46182" stroke="#ADBFFD" stroke-width="1.22182" stroke-dasharray="12.22 4.07"/>
<rect x="526.4" y="87.9429" width="133.178" height="46.4291" rx="3.46182" fill="white"/>
<path d="M569.804 111.625L572.431 108.805C572.526 108.703 572.6 108.604 572.655 108.509C572.716 108.414 572.746 108.323 572.746 108.235C572.746 108.024 572.56 107.919 572.186 107.919L572.227 107.675H574.579L574.538 107.919C574.246 107.919 573.999 107.973 573.795 108.082C573.591 108.19 573.395 108.347 573.205 108.55L571.372 110.536L572.869 114.333C572.936 114.51 573.035 114.653 573.164 114.761C573.293 114.863 573.469 114.914 573.693 114.914L573.653 115.158H572.176L570.69 111.269L569.682 112.338L569.397 114.099C569.39 114.133 569.383 114.181 569.376 114.242C569.369 114.303 569.366 114.354 569.366 114.395C569.366 114.551 569.413 114.676 569.509 114.771C569.61 114.866 569.783 114.914 570.028 114.914L569.987 115.158H567.543L567.584 114.914C567.869 114.914 568.076 114.853 568.205 114.731C568.334 114.602 568.416 114.439 568.45 114.242L569.366 108.733C569.373 108.7 569.38 108.652 569.386 108.591C569.393 108.53 569.397 108.479 569.397 108.438C569.397 108.282 569.346 108.156 569.244 108.061C569.142 107.966 568.965 107.919 568.714 107.919L568.755 107.675H571.219L571.178 107.919C570.886 107.919 570.676 107.983 570.547 108.112C570.418 108.241 570.337 108.401 570.303 108.591L569.804 111.625ZM577.77 110.403H576.477L576.263 111.421C576.215 111.652 576.158 111.907 576.09 112.185C576.022 112.457 575.944 112.735 575.856 113.02C575.774 113.305 575.679 113.583 575.57 113.855C575.469 114.12 575.357 114.357 575.234 114.568C575.112 114.778 574.98 114.948 574.837 115.077C574.702 115.199 574.556 115.26 574.4 115.26C574.203 115.26 574.067 115.209 573.992 115.107C573.918 115.005 573.863 114.89 573.829 114.761L573.921 114.242C573.996 114.33 574.064 114.391 574.125 114.425C574.192 114.459 574.284 114.476 574.4 114.476C574.746 114.476 575.041 114.184 575.285 113.6C575.53 113.017 575.764 112.155 575.988 111.014C575.995 110.987 576.001 110.95 576.008 110.902C576.015 110.848 576.018 110.804 576.018 110.77C576.018 110.641 575.974 110.539 575.886 110.464C575.805 110.39 575.655 110.352 575.438 110.352L575.499 110.067H578.645L577.984 114.028C577.977 114.062 577.97 114.106 577.963 114.16C577.956 114.215 577.953 114.259 577.953 114.293C577.953 114.496 578.045 114.598 578.228 114.598C578.364 114.598 578.482 114.554 578.584 114.466C578.686 114.371 578.808 114.235 578.951 114.059L578.869 114.527C578.734 114.737 578.591 114.904 578.442 115.026C578.299 115.148 578.109 115.209 577.872 115.209C577.58 115.209 577.383 115.134 577.281 114.985C577.179 114.829 577.128 114.642 577.128 114.425C577.128 114.35 577.132 114.279 577.138 114.211C577.145 114.143 577.155 114.072 577.169 113.997L577.77 110.403ZM580.163 111.208C580.17 111.174 580.173 111.143 580.173 111.116C580.18 111.082 580.183 111.055 580.183 111.035C580.183 110.912 580.139 110.824 580.051 110.77C579.963 110.709 579.81 110.678 579.593 110.678L579.634 110.424L580.967 109.965H581.181L580.611 113.427C580.597 113.488 580.587 113.556 580.581 113.631C580.581 113.706 580.581 113.767 580.581 113.814C580.581 113.923 580.591 114.028 580.611 114.13C580.631 114.232 580.669 114.323 580.723 114.405C580.784 114.486 580.862 114.551 580.957 114.598C581.052 114.646 581.174 114.669 581.324 114.669C581.466 114.669 581.609 114.629 581.751 114.547C581.894 114.459 582.023 114.35 582.138 114.221C582.254 114.086 582.352 113.933 582.434 113.763C582.522 113.594 582.583 113.421 582.617 113.244L583.157 110.067H583.971L583.319 114.028C583.313 114.062 583.306 114.106 583.299 114.16C583.292 114.215 583.289 114.259 583.289 114.293C583.289 114.496 583.377 114.598 583.554 114.598C583.689 114.598 583.808 114.554 583.91 114.466C584.012 114.371 584.137 114.235 584.287 114.059L584.195 114.527C584.059 114.737 583.917 114.904 583.767 115.026C583.625 115.148 583.435 115.209 583.197 115.209C582.905 115.209 582.709 115.134 582.607 114.985C582.505 114.829 582.454 114.642 582.454 114.425C582.454 114.384 582.454 114.347 582.454 114.313C582.454 114.279 582.457 114.242 582.464 114.201C582.403 114.317 582.325 114.439 582.23 114.568C582.135 114.69 582.02 114.802 581.884 114.904C581.755 115.005 581.609 115.09 581.446 115.158C581.283 115.226 581.107 115.26 580.917 115.26C580.699 115.26 580.513 115.226 580.357 115.158C580.207 115.09 580.085 115.002 579.99 114.893C579.902 114.778 579.837 114.646 579.797 114.496C579.756 114.34 579.735 114.177 579.735 114.008C579.735 113.94 579.739 113.858 579.746 113.763C579.752 113.668 579.763 113.587 579.776 113.519L580.163 111.208ZM588.204 114.13C588.068 114.476 587.864 114.751 587.593 114.955C587.328 115.158 587.002 115.26 586.615 115.26C586.337 115.26 586.083 115.209 585.852 115.107C585.628 115.005 585.434 114.863 585.271 114.68C585.115 114.496 584.993 114.279 584.905 114.028C584.817 113.77 584.773 113.488 584.773 113.183C584.773 112.803 584.823 112.423 584.925 112.043C585.027 111.656 585.183 111.309 585.394 111.004C585.604 110.699 585.869 110.451 586.188 110.261C586.507 110.064 586.884 109.965 587.318 109.965C587.705 109.965 588.007 110.057 588.224 110.24C588.448 110.424 588.56 110.675 588.56 110.994C588.56 111.347 588.458 111.642 588.255 111.88C588.051 112.11 587.803 112.301 587.511 112.45C587.22 112.592 586.911 112.701 586.585 112.776C586.259 112.85 585.971 112.901 585.719 112.928C585.713 112.976 585.709 113.023 585.709 113.071C585.709 113.112 585.709 113.152 585.709 113.193C585.709 113.628 585.808 113.97 586.005 114.221C586.208 114.466 586.5 114.588 586.88 114.588C587.145 114.588 587.389 114.517 587.613 114.374C587.844 114.225 588.065 114.001 588.275 113.702L588.204 114.13ZM587.186 110.291C586.962 110.291 586.761 110.373 586.585 110.536C586.415 110.699 586.269 110.899 586.147 111.136C586.025 111.367 585.93 111.615 585.862 111.88C585.794 112.138 585.75 112.368 585.73 112.572C585.933 112.552 586.147 112.504 586.371 112.429C586.602 112.348 586.812 112.243 587.002 112.114C587.199 111.978 587.359 111.812 587.481 111.615C587.61 111.411 587.674 111.177 587.674 110.912C587.674 110.736 587.63 110.59 587.542 110.475C587.461 110.352 587.342 110.291 587.186 110.291ZM589.784 111.208C589.791 111.174 589.794 111.143 589.794 111.116C589.801 111.082 589.804 111.055 589.804 111.035C589.804 110.912 589.76 110.824 589.672 110.77C589.584 110.709 589.431 110.678 589.214 110.678L589.254 110.424L590.598 109.965H590.812L590.415 112.358H592.37L592.757 110.067H593.572L592.91 114.028C592.903 114.062 592.896 114.106 592.889 114.16C592.889 114.215 592.889 114.259 592.889 114.293C592.889 114.496 592.978 114.598 593.154 114.598C593.29 114.598 593.409 114.554 593.51 114.466C593.612 114.371 593.738 114.235 593.887 114.059L593.796 114.527C593.66 114.737 593.517 114.904 593.368 115.026C593.225 115.148 593.035 115.209 592.798 115.209C592.506 115.209 592.309 115.134 592.207 114.985C592.105 114.829 592.054 114.642 592.054 114.425C592.054 114.35 592.058 114.279 592.065 114.211C592.071 114.143 592.082 114.072 592.095 113.997L592.309 112.715H590.354L589.947 115.158H589.132L589.784 111.208ZM600.401 111.727C600.421 111.605 600.431 111.476 600.431 111.34C600.431 111.136 600.381 110.957 600.279 110.8C600.177 110.637 599.997 110.556 599.739 110.556C599.583 110.556 599.434 110.6 599.291 110.688C599.149 110.77 599.02 110.878 598.904 111.014C598.789 111.143 598.69 111.293 598.609 111.462C598.534 111.625 598.483 111.788 598.456 111.951L597.917 115.158H597.102L597.682 111.707C597.689 111.645 597.693 111.584 597.693 111.523C597.699 111.455 597.703 111.394 597.703 111.34C597.703 111.238 597.693 111.14 597.672 111.045C597.652 110.95 597.614 110.868 597.56 110.8C597.513 110.726 597.445 110.668 597.357 110.627C597.268 110.58 597.153 110.556 597.01 110.556C596.861 110.556 596.715 110.6 596.573 110.688C596.437 110.77 596.311 110.878 596.196 111.014C596.08 111.15 595.982 111.303 595.901 111.472C595.826 111.635 595.775 111.798 595.748 111.961L595.208 115.158H594.394L595.239 110.067H595.463L595.911 111.004C595.972 110.889 596.046 110.77 596.135 110.648C596.23 110.525 596.342 110.413 596.471 110.312C596.6 110.21 596.742 110.128 596.898 110.067C597.061 109.999 597.234 109.965 597.418 109.965C597.628 109.965 597.801 109.996 597.937 110.057C598.079 110.111 598.195 110.189 598.283 110.291C598.371 110.393 598.436 110.512 598.477 110.648C598.517 110.783 598.544 110.929 598.558 111.085C598.619 110.95 598.701 110.817 598.802 110.688C598.904 110.553 599.02 110.43 599.149 110.322C599.284 110.213 599.434 110.128 599.597 110.067C599.759 109.999 599.933 109.965 600.116 109.965C600.333 109.965 600.513 109.999 600.655 110.067C600.805 110.128 600.924 110.217 601.012 110.332C601.107 110.441 601.171 110.57 601.205 110.719C601.246 110.868 601.266 111.024 601.266 111.187C601.266 111.33 601.256 111.472 601.236 111.615L600.839 114.028C600.832 114.062 600.825 114.106 600.818 114.16C600.812 114.215 600.808 114.259 600.808 114.293C600.808 114.395 600.832 114.473 600.879 114.527C600.934 114.574 601.002 114.598 601.083 114.598C601.219 114.598 601.338 114.554 601.439 114.466C601.541 114.371 601.663 114.235 601.806 114.059L601.725 114.527C601.589 114.737 601.446 114.904 601.297 115.026C601.148 115.148 600.954 115.209 600.717 115.209C600.431 115.209 600.238 115.134 600.136 114.985C600.034 114.829 599.983 114.642 599.983 114.425C599.983 114.35 599.987 114.279 599.994 114.211C600 114.143 600.011 114.072 600.024 113.997L600.401 111.727ZM610.986 112.226H613.48L613.399 112.694H610.904L610.986 112.226ZM612.411 111.645C612.004 111.645 611.692 111.517 611.475 111.259C611.264 110.994 611.159 110.617 611.159 110.128C611.159 109.721 611.203 109.358 611.291 109.039C611.386 108.713 611.512 108.442 611.668 108.224C611.831 108.007 612.014 107.841 612.218 107.725C612.428 107.61 612.649 107.552 612.88 107.552C613.28 107.552 613.589 107.692 613.806 107.97C614.024 108.241 614.132 108.628 614.132 109.131C614.132 109.504 614.085 109.847 613.99 110.159C613.901 110.464 613.776 110.729 613.613 110.953C613.457 111.17 613.273 111.34 613.063 111.462C612.859 111.584 612.642 111.645 612.411 111.645ZM611.912 110.475C611.912 110.78 611.953 110.997 612.035 111.126C612.123 111.248 612.245 111.309 612.401 111.309C612.537 111.309 612.663 111.238 612.778 111.096C612.9 110.946 613.005 110.753 613.094 110.515C613.182 110.278 613.25 110.01 613.297 109.711C613.352 109.412 613.379 109.107 613.379 108.795C613.379 108.476 613.335 108.245 613.246 108.102C613.165 107.96 613.046 107.888 612.89 107.888C612.761 107.888 612.635 107.96 612.513 108.102C612.398 108.245 612.296 108.435 612.208 108.672C612.12 108.91 612.048 109.185 611.994 109.497C611.94 109.809 611.912 110.135 611.912 110.475ZM605.966 108.744L605.091 114.099C605.084 114.133 605.077 114.181 605.07 114.242C605.064 114.303 605.06 114.354 605.06 114.395C605.06 114.551 605.108 114.676 605.203 114.771C605.304 114.866 605.478 114.914 605.722 114.914L605.681 115.158H603.726L603.767 114.914C604.052 114.914 604.259 114.853 604.388 114.731C604.517 114.602 604.599 114.439 604.632 114.242L605.549 108.733C605.556 108.7 605.562 108.652 605.569 108.591C605.576 108.53 605.579 108.479 605.579 108.438C605.579 108.282 605.528 108.156 605.427 108.061C605.325 107.966 605.148 107.919 604.897 107.919L604.938 107.675H606.598L609.041 113.101L609.764 108.733C609.771 108.7 609.778 108.652 609.784 108.591C609.791 108.53 609.795 108.479 609.795 108.438C609.795 108.282 609.744 108.156 609.642 108.061C609.547 107.966 609.377 107.919 609.133 107.919L609.174 107.675H611.128L611.088 107.919C610.803 107.919 610.596 107.983 610.467 108.112C610.338 108.235 610.256 108.394 610.222 108.591L609.102 115.26H608.899L605.966 108.744ZM617.288 112.959L617.104 114.099C617.097 114.133 617.091 114.181 617.084 114.242C617.077 114.303 617.074 114.354 617.074 114.395C617.074 114.551 617.121 114.676 617.216 114.771C617.318 114.866 617.491 114.914 617.736 114.914L617.695 115.158H615.282L615.322 114.914C615.608 114.914 615.815 114.853 615.944 114.731C616.073 114.602 616.154 114.439 616.188 114.242L616.402 112.959H613.653L613.693 112.684C613.972 112.392 614.264 112.063 614.569 111.696C614.874 111.33 615.173 110.936 615.465 110.515C615.757 110.088 616.032 109.636 616.29 109.161C616.554 108.679 616.789 108.184 616.992 107.675H617.949C617.712 108.279 617.423 108.842 617.084 109.365C616.745 109.881 616.398 110.349 616.045 110.77C615.699 111.184 615.363 111.544 615.037 111.849C614.718 112.155 614.46 112.399 614.264 112.582H616.463L616.646 111.371L617.542 110.556H617.674L617.359 112.582H618.479L618.418 112.959H617.288Z" fill="#104A99"/>
<rect x="526.4" y="87.9429" width="133.178" height="46.4291" rx="3.46182" stroke="#ADBFFD" stroke-width="1.22182"/>
</svg>
