<svg width="443" height="233" viewBox="0 0 443 233" fill="none" xmlns="http://www.w3.org/2000/svg">
<rect x="0.927827" y="0.814546" width="440.262" height="230.517" rx="3.02878" fill="white" stroke="#ADBFFD" stroke-width="1.62909"/>
<mask id="mask0_1866_1448" style="mask-type:alpha" maskUnits="userSpaceOnUse" x="0" y="0" width="443" height="233">
<path d="M0.113282 3.84335C0.113282 1.72074 1.834 1.63263e-05 3.9566 1.63169e-05L438.161 1.43869e-05C440.284 1.43774e-05 442.005 1.72073 442.005 3.84334L442.005 228.302C442.005 230.425 440.284 232.146 438.161 232.146L3.95666 232.145C1.83405 232.145 0.113328 230.424 0.113328 228.302L0.113282 3.84335Z" fill="#D9D9D9"/>
</mask>
<g mask="url(#mask0_1866_1448)">
<path d="M-259.727 -173.111L623.34 671.303" stroke="#ADBFFD" stroke-width="0.768664"/>
<path d="M-651.932 96.0918L231.135 940.506" stroke="#ADBFFD" stroke-width="0.768664"/>
<path d="M3.04102 -510.791L886.108 333.623" stroke="#ADBFFD" stroke-width="0.768664"/>
<path d="M-389.162 -241.588L493.905 602.827" stroke="#ADBFFD" stroke-width="0.768664"/>
<path d="M-128.344 -341.949L754.723 502.465" stroke="#ADBFFD" stroke-width="0.768664"/>
<path d="M-520.547 -72.748L362.52 771.666" stroke="#ADBFFD" stroke-width="0.768664"/>
<path d="M-226.881 -215.322L656.186 629.092" stroke="#ADBFFD" stroke-width="0.768664"/>
<path d="M-619.086 53.8809L263.981 898.295" stroke="#ADBFFD" stroke-width="0.768664"/>
<path d="M-95.4961 -384.162L787.571 460.252" stroke="#ADBFFD" stroke-width="0.768664"/>
<path d="M-487.701 -114.959L395.366 729.456" stroke="#ADBFFD" stroke-width="0.768664"/>
<path d="M-194.035 -257.531L689.032 586.883" stroke="#ADBFFD" stroke-width="0.768664"/>
<path d="M-586.238 11.6719L296.829 856.086" stroke="#ADBFFD" stroke-width="0.768664"/>
<path d="M-62.6504 -426.371L820.417 418.043" stroke="#ADBFFD" stroke-width="0.768664"/>
<path d="M-454.855 -157.168L428.211 687.247" stroke="#ADBFFD" stroke-width="0.768664"/>
<path d="M-161.188 -299.74L721.879 544.674" stroke="#ADBFFD" stroke-width="0.768664"/>
<path d="M-553.393 -30.5391L329.674 813.875" stroke="#ADBFFD" stroke-width="0.768664"/>
<path d="M-29.8047 -468.582L853.262 375.832" stroke="#ADBFFD" stroke-width="0.768664"/>
<path d="M-422.008 -199.379L461.059 645.036" stroke="#ADBFFD" stroke-width="0.768664"/>
<path d="M-251.516 -183.664L631.551 660.75" stroke="#ADBFFD" stroke-width="0.768664"/>
<path d="M-643.721 85.5391L239.346 929.954" stroke="#ADBFFD" stroke-width="0.768664"/>
<path d="M11.2539 -521.344L894.321 323.071" stroke="#ADBFFD" stroke-width="0.768664"/>
<path d="M-380.949 -252.141L502.118 592.274" stroke="#ADBFFD" stroke-width="0.768664"/>
<path d="M-120.131 -352.504L762.936 491.911" stroke="#ADBFFD" stroke-width="0.768664"/>
<path d="M-512.334 -83.3008L370.733 761.114" stroke="#ADBFFD" stroke-width="0.768664"/>
<path d="M-218.67 -225.875L664.397 618.54" stroke="#ADBFFD" stroke-width="0.768664"/>
<path d="M-610.873 43.3281L272.194 887.743" stroke="#ADBFFD" stroke-width="0.768664"/>
<path d="M-87.2852 -394.715L795.782 449.7" stroke="#ADBFFD" stroke-width="0.768664"/>
<path d="M-479.488 -125.512L403.579 718.903" stroke="#ADBFFD" stroke-width="0.768664"/>
<path d="M-185.824 -268.084L697.243 576.331" stroke="#ADBFFD" stroke-width="0.768664"/>
<path d="M-578.027 1.11719L305.04 845.532" stroke="#ADBFFD" stroke-width="0.768664"/>
<path d="M-54.4395 -436.924L828.627 407.491" stroke="#ADBFFD" stroke-width="0.768664"/>
<path d="M-446.643 -167.721L436.424 676.694" stroke="#ADBFFD" stroke-width="0.768664"/>
<path d="M-152.979 -310.293L730.088 534.122" stroke="#ADBFFD" stroke-width="0.768664"/>
<path d="M-545.18 -41.0918L337.887 803.323" stroke="#ADBFFD" stroke-width="0.768664"/>
<path d="M-21.5938 -479.133L861.473 365.282" stroke="#ADBFFD" stroke-width="0.768664"/>
<path d="M-413.797 -209.93L469.27 634.485" stroke="#ADBFFD" stroke-width="0.768664"/>
<path d="M-243.305 -194.217L639.762 650.198" stroke="#ADBFFD" stroke-width="0.768664"/>
<path d="M-635.508 74.9863L247.559 919.401" stroke="#ADBFFD" stroke-width="0.768664"/>
<path d="M19.4648 -531.895L902.532 312.52" stroke="#ADBFFD" stroke-width="0.768664"/>
<path d="M-372.738 -262.693L510.329 581.721" stroke="#ADBFFD" stroke-width="0.768664"/>
<path d="M-111.92 -363.057L771.147 481.358" stroke="#ADBFFD" stroke-width="0.768664"/>
<path d="M-504.123 -93.8535L378.944 750.561" stroke="#ADBFFD" stroke-width="0.768664"/>
<path d="M-210.459 -236.428L672.608 607.987" stroke="#ADBFFD" stroke-width="0.768664"/>
<path d="M-602.662 32.7754L280.405 877.19" stroke="#ADBFFD" stroke-width="0.768664"/>
<path d="M-79.0723 -405.266L803.995 439.149" stroke="#ADBFFD" stroke-width="0.768664"/>
<path d="M-471.279 -136.062L411.788 708.352" stroke="#ADBFFD" stroke-width="0.768664"/>
<path d="M-177.613 -278.637L705.454 565.778" stroke="#ADBFFD" stroke-width="0.768664"/>
<path d="M-569.816 -9.43359L313.25 834.981" stroke="#ADBFFD" stroke-width="0.768664"/>
<path d="M-46.2266 -447.477L836.84 396.938" stroke="#ADBFFD" stroke-width="0.768664"/>
<path d="M-438.432 -178.273L444.635 666.141" stroke="#ADBFFD" stroke-width="0.768664"/>
<path d="M-144.766 -320.846L738.301 523.569" stroke="#ADBFFD" stroke-width="0.768664"/>
<path d="M-536.971 -51.6426L346.096 792.772" stroke="#ADBFFD" stroke-width="0.768664"/>
<path d="M-13.3809 -489.686L869.686 354.729" stroke="#ADBFFD" stroke-width="0.768664"/>
<path d="M-405.586 -220.484L477.481 623.93" stroke="#ADBFFD" stroke-width="0.768664"/>
<path d="M-235.092 -204.77L647.975 639.645" stroke="#ADBFFD" stroke-width="0.768664"/>
<path d="M-627.297 64.4336L255.77 908.848" stroke="#ADBFFD" stroke-width="0.768664"/>
<path d="M-103.709 -373.609L779.358 470.805" stroke="#ADBFFD" stroke-width="0.768664"/>
<path d="M-495.912 -104.406L387.155 740.008" stroke="#ADBFFD" stroke-width="0.768664"/>
<path d="M-202.246 -246.98L680.821 597.434" stroke="#ADBFFD" stroke-width="0.768664"/>
<path d="M-594.451 22.2246L288.616 866.639" stroke="#ADBFFD" stroke-width="0.768664"/>
<path d="M-70.8633 -415.818L812.204 428.596" stroke="#ADBFFD" stroke-width="0.768664"/>
<path d="M-463.064 -146.615L420.002 697.799" stroke="#ADBFFD" stroke-width="0.768664"/>
<path d="M-169.402 -289.189L713.665 555.225" stroke="#ADBFFD" stroke-width="0.768664"/>
<path d="M-561.604 -19.9863L321.463 824.428" stroke="#ADBFFD" stroke-width="0.768664"/>
<path d="M-38.0176 -458.027L845.049 386.387" stroke="#ADBFFD" stroke-width="0.768664"/>
<path d="M-430.221 -188.826L452.846 655.588" stroke="#ADBFFD" stroke-width="0.768664"/>
<path d="M-136.555 -331.398L746.512 513.016" stroke="#ADBFFD" stroke-width="0.768664"/>
<path d="M-528.758 -62.1953L354.309 782.219" stroke="#ADBFFD" stroke-width="0.768664"/>
<path d="M-5.16992 -500.238L877.897 344.176" stroke="#ADBFFD" stroke-width="0.768664"/>
<path d="M-397.373 -231.037L485.694 613.377" stroke="#ADBFFD" stroke-width="0.768664"/>
</g>
<rect x="12.941" y="13.2379" width="133.993" height="99.3747" rx="3.46182" fill="white"/>
<path d="M62.5804 68.1213C61.888 68.1213 61.2812 67.9991 60.7599 67.7547C60.2386 67.5022 59.8028 67.1642 59.4526 66.7406C59.1023 66.3171 58.8376 65.8324 58.6584 65.2867C58.4873 64.7409 58.4018 64.1667 58.4018 63.5639C58.4018 62.9693 58.4873 62.3991 58.6584 61.8533C58.8376 61.2994 59.1023 60.8107 59.4526 60.3872C59.8028 59.9636 60.2386 59.6256 60.7599 59.373C61.2812 59.1205 61.888 58.9943 62.5804 58.9943C63.2728 58.9943 63.8796 59.1205 64.4009 59.373C64.9222 59.6256 65.358 59.9636 65.7083 60.3872C66.0585 60.8107 66.3192 61.2994 66.4902 61.8533C66.6694 62.3991 66.759 62.9693 66.759 63.5639C66.759 64.1667 66.6694 64.7409 66.4902 65.2867C66.3192 65.8324 66.0585 66.3171 65.7083 66.7406C65.358 67.1642 64.9222 67.5022 64.4009 67.7547C63.8796 67.9991 63.2728 68.1213 62.5804 68.1213ZM62.5804 67.156C63.1099 67.156 63.566 67.0542 63.9489 66.8506C64.3317 66.6388 64.6453 66.3619 64.8897 66.0197C65.134 65.6776 65.3132 65.2948 65.4273 64.8712C65.5413 64.4395 65.5983 64.0037 65.5983 63.5639C65.5983 63.124 65.5413 62.6923 65.4273 62.2688C65.3132 61.837 65.134 61.4501 64.8897 61.108C64.6453 60.7659 64.3317 60.493 63.9489 60.2894C63.566 60.0776 63.1099 59.9717 62.5804 59.9717C62.051 59.9717 61.5948 60.0776 61.212 60.2894C60.8291 60.493 60.5155 60.7659 60.2712 61.108C60.0268 61.4501 59.8476 61.837 59.7336 62.2688C59.6195 62.6923 59.5625 63.124 59.5625 63.5639C59.5625 64.0037 59.6195 64.4395 59.7336 64.8712C59.8476 65.2948 60.0268 65.6776 60.2712 66.0197C60.5155 66.3619 60.8291 66.6388 61.212 66.8506C61.5948 67.0542 62.051 67.156 62.5804 67.156ZM67.6359 61.609H72.792V67.9258H71.7534V62.5253H68.6744V67.9258H67.6359V61.609ZM74.0236 61.609H75.0622V62.4642H75.0866C75.2576 62.114 75.5264 61.8615 75.893 61.7067C76.2595 61.5438 76.6627 61.4624 77.1026 61.4624C77.5913 61.4624 78.0149 61.552 78.3733 61.7312C78.7398 61.9104 79.0412 62.1547 79.2774 62.4642C79.5218 62.7656 79.7051 63.1159 79.8273 63.515C79.9494 63.9141 80.0105 64.3377 80.0105 64.7857C80.0105 65.2419 79.9494 65.6695 79.8273 66.0686C79.7132 66.4596 79.534 66.8058 79.2897 67.1072C79.0534 67.4004 78.7521 67.6325 78.3855 67.8036C78.0271 67.9747 77.6076 68.0602 77.127 68.0602C76.9641 68.0602 76.789 68.0439 76.6016 68.0113C76.4143 67.9787 76.227 67.9258 76.0396 67.8525C75.8523 67.7792 75.6731 67.6814 75.502 67.5592C75.3391 67.4289 75.2006 67.2701 75.0866 67.0827H75.0622V70.3328H74.0236V61.609ZM77.0171 67.156C77.3673 67.156 77.6646 67.0868 77.909 66.9483C78.1534 66.8099 78.3489 66.6266 78.4955 66.3985C78.6421 66.1704 78.748 65.9098 78.8131 65.6165C78.8783 65.3233 78.9109 65.0219 78.9109 64.7124C78.9109 64.4192 78.8702 64.1341 78.7887 63.8571C78.7154 63.572 78.5973 63.3195 78.4344 63.0996C78.2796 62.8797 78.076 62.7045 77.8235 62.5742C77.5791 62.4439 77.2899 62.3787 76.956 62.3787C76.6057 62.3787 76.3084 62.448 76.064 62.5864C75.8197 62.7249 75.6201 62.9082 75.4654 63.1362C75.3106 63.3562 75.1966 63.6087 75.1232 63.8938C75.0581 64.1789 75.0255 64.468 75.0255 64.7613C75.0255 65.0708 75.0622 65.3722 75.1355 65.6654C75.2088 65.9505 75.3228 66.203 75.4776 66.4229C75.6405 66.6429 75.8482 66.8221 76.1007 66.9605C76.3532 67.0909 76.6587 67.156 77.0171 67.156ZM83.5877 68.0602C83.0827 68.0602 82.6387 67.9787 82.2559 67.8158C81.8812 67.6448 81.5635 67.4126 81.3029 67.1194C81.0422 66.818 80.8467 66.4677 80.7164 66.0686C80.5861 65.6695 80.5209 65.2378 80.5209 64.7735C80.5209 64.3092 80.5861 63.8775 80.7164 63.4784C80.8467 63.0711 81.0422 62.7208 81.3029 62.4276C81.5635 62.1262 81.8812 61.89 82.2559 61.7189C82.6387 61.5479 83.0827 61.4624 83.5877 61.4624C84.0846 61.4624 84.5244 61.5479 84.9073 61.7189C85.2901 61.89 85.6118 62.1262 85.8725 62.4276C86.1331 62.7208 86.3286 63.0711 86.459 63.4784C86.5893 63.8775 86.6545 64.3092 86.6545 64.7735C86.6545 65.2378 86.5893 65.6695 86.459 66.0686C86.3286 66.4677 86.1331 66.818 85.8725 67.1194C85.6118 67.4126 85.2901 67.6448 84.9073 67.8158C84.5244 67.9787 84.0846 68.0602 83.5877 68.0602ZM83.5877 67.156C83.8565 67.156 84.109 67.1031 84.3452 66.9972C84.5896 66.8913 84.8014 66.7406 84.9806 66.5451C85.1598 66.3415 85.2982 66.0931 85.396 65.7998C85.5019 65.4984 85.5548 65.1563 85.5548 64.7735C85.5548 64.3907 85.5019 64.0526 85.396 63.7594C85.2982 63.458 85.1598 63.2055 84.9806 63.0018C84.8014 62.7982 84.5896 62.6434 84.3452 62.5376C84.109 62.4317 83.8565 62.3787 83.5877 62.3787C83.3189 62.3787 83.0623 62.4317 82.8179 62.5376C82.5817 62.6434 82.374 62.7982 82.1948 63.0018C82.0156 63.2055 81.8731 63.458 81.7672 63.7594C81.6694 64.0526 81.6206 64.3907 81.6206 64.7735C81.6206 65.1563 81.6694 65.4984 81.7672 65.7998C81.8731 66.0931 82.0156 66.3415 82.1948 66.5451C82.374 66.7406 82.5817 66.8913 82.8179 66.9972C83.0623 67.1031 83.3189 67.156 83.5877 67.156ZM90.1271 68.0602C89.6465 68.0602 89.2189 67.9828 88.8442 67.828C88.4776 67.6733 88.1681 67.4533 87.9156 67.1683C87.6712 66.8832 87.4839 66.5451 87.3536 66.1541C87.2314 65.7632 87.1703 65.3274 87.1703 64.8468C87.1703 64.3744 87.2314 63.9345 87.3536 63.5272C87.4757 63.1118 87.659 62.7534 87.9034 62.452C88.1559 62.1425 88.4654 61.9022 88.832 61.7312C89.2067 61.552 89.6465 61.4624 90.1515 61.4624C90.5099 61.4624 90.8439 61.5072 91.1534 61.5968C91.4711 61.6782 91.748 61.8085 91.9843 61.9877C92.2286 62.1669 92.4282 62.395 92.5829 62.672C92.7377 62.9408 92.8355 63.2625 92.8762 63.6372H91.801C91.7195 63.2381 91.5485 62.9285 91.2878 62.7086C91.0272 62.4887 90.6769 62.3787 90.2371 62.3787C89.8624 62.3787 89.5488 62.448 89.2963 62.5864C89.0437 62.7249 88.8401 62.9082 88.6853 63.1362C88.5387 63.3643 88.4328 63.629 88.3677 63.9304C88.3025 64.2237 88.2699 64.5291 88.2699 64.8468C88.2699 65.14 88.3025 65.4251 88.3677 65.7021C88.441 65.979 88.5509 66.2275 88.6976 66.4474C88.8442 66.6592 89.0315 66.8302 89.2596 66.9605C89.4958 67.0909 89.7809 67.156 90.1149 67.156C90.628 67.156 91.0272 67.0216 91.3123 66.7528C91.6055 66.484 91.7847 66.1053 91.8499 65.6165H92.9128C92.7988 66.4067 92.5096 67.0135 92.0453 67.4371C91.5811 67.8525 90.9416 68.0602 90.1271 68.0602ZM93.7084 61.609H94.7469V64.0282H96.7018C97.3209 64.0282 97.8177 64.1992 98.1924 64.5413C98.5671 64.8753 98.7545 65.3477 98.7545 65.9587C98.7545 66.5533 98.5753 67.0298 98.2169 67.3882C97.8585 67.7466 97.3697 67.9258 96.7507 67.9258H93.7084V61.609ZM96.3719 67.0094C97.2435 67.0094 97.6793 66.6592 97.6793 65.9587C97.6793 65.2663 97.2435 64.9201 96.3719 64.9201H94.7469V67.0094H96.3719ZM99.7564 61.609H100.795V67.9258H99.7564V61.609Z" fill="#104A99"/>
<rect x="12.941" y="13.2379" width="133.993" height="99.3747" rx="3.46182" stroke="#ADBFFD" stroke-width="1.22182"/>
<rect x="12.941" y="119.535" width="133.993" height="99.3747" rx="3.46182" fill="white"/>
<path d="M33.5804 174.418C32.888 174.418 32.2812 174.296 31.7599 174.052C31.2386 173.799 30.8028 173.461 30.4526 173.037C30.1023 172.614 29.8376 172.129 29.6584 171.584C29.4873 171.038 29.4018 170.464 29.4018 169.861C29.4018 169.266 29.4873 168.696 29.6584 168.15C29.8376 167.596 30.1023 167.108 30.4526 166.684C30.8028 166.26 31.2386 165.922 31.7599 165.67C32.2812 165.417 32.888 165.291 33.5804 165.291C34.2728 165.291 34.8796 165.417 35.4009 165.67C35.9222 165.922 36.358 166.26 36.7083 166.684C37.0585 167.108 37.3192 167.596 37.4902 168.15C37.6694 168.696 37.759 169.266 37.759 169.861C37.759 170.464 37.6694 171.038 37.4902 171.584C37.3192 172.129 37.0585 172.614 36.7083 173.037C36.358 173.461 35.9222 173.799 35.4009 174.052C34.8796 174.296 34.2728 174.418 33.5804 174.418ZM33.5804 173.453C34.1099 173.453 34.566 173.351 34.9489 173.147C35.3317 172.936 35.6453 172.659 35.8897 172.317C36.134 171.975 36.3132 171.592 36.4273 171.168C36.5413 170.736 36.5983 170.301 36.5983 169.861C36.5983 169.421 36.5413 168.989 36.4273 168.566C36.3132 168.134 36.134 167.747 35.8897 167.405C35.6453 167.063 35.3317 166.79 34.9489 166.586C34.566 166.375 34.1099 166.269 33.5804 166.269C33.051 166.269 32.5948 166.375 32.212 166.586C31.8291 166.79 31.5155 167.063 31.2712 167.405C31.0268 167.747 30.8476 168.134 30.7336 168.566C30.6195 168.989 30.5625 169.421 30.5625 169.861C30.5625 170.301 30.6195 170.736 30.7336 171.168C30.8476 171.592 31.0268 171.975 31.2712 172.317C31.5155 172.659 31.8291 172.936 32.212 173.147C32.5948 173.351 33.051 173.453 33.5804 173.453ZM40.1632 168.822H37.9028V167.906H43.4621V168.822H41.2017V174.223H40.1632V168.822ZM43.9617 167.906H45.0002V168.761H45.0247C45.1957 168.411 45.4645 168.158 45.8311 168.004C46.1976 167.841 46.6008 167.759 47.0407 167.759C47.5294 167.759 47.953 167.849 48.3114 168.028C48.6779 168.207 48.9793 168.452 49.2155 168.761C49.4599 169.063 49.6431 169.413 49.7653 169.812C49.8875 170.211 49.9486 170.635 49.9486 171.083C49.9486 171.539 49.8875 171.966 49.7653 172.365C49.6513 172.756 49.4721 173.103 49.2277 173.404C48.9915 173.697 48.6901 173.929 48.3236 174.1C47.9652 174.272 47.5457 174.357 47.0651 174.357C46.9022 174.357 46.7271 174.341 46.5397 174.308C46.3524 174.276 46.165 174.223 45.9777 174.149C45.7903 174.076 45.6111 173.978 45.4401 173.856C45.2772 173.726 45.1387 173.567 45.0247 173.38H45.0002V176.63H43.9617V167.906ZM46.9551 173.453C47.3054 173.453 47.6027 173.384 47.8471 173.245C48.0914 173.107 48.2869 172.923 48.4335 172.695C48.5802 172.467 48.686 172.207 48.7512 171.913C48.8164 171.62 48.849 171.319 48.849 171.009C48.849 170.716 48.8082 170.431 48.7268 170.154C48.6535 169.869 48.5354 169.616 48.3724 169.396C48.2177 169.177 48.014 169.001 47.7615 168.871C47.5172 168.741 47.228 168.676 46.894 168.676C46.5438 168.676 46.2465 168.745 46.0021 168.883C45.7578 169.022 45.5582 169.205 45.4034 169.433C45.2487 169.653 45.1346 169.906 45.0613 170.191C44.9962 170.476 44.9636 170.765 44.9636 171.058C44.9636 171.368 45.0002 171.669 45.0735 171.962C45.1468 172.247 45.2609 172.5 45.4156 172.72C45.5786 172.94 45.7863 173.119 46.0388 173.257C46.2913 173.388 46.5967 173.453 46.9551 173.453ZM52.5483 174.357C52.2632 174.357 51.9944 174.324 51.7419 174.259C51.4894 174.202 51.2654 174.105 51.0699 173.966C50.8826 173.819 50.7319 173.636 50.6178 173.416C50.5119 173.188 50.459 172.915 50.459 172.598C50.459 172.239 50.5201 171.946 50.6423 171.718C50.7644 171.49 50.9233 171.307 51.1188 171.168C51.3224 171.021 51.5505 170.912 51.803 170.838C52.0636 170.765 52.3284 170.704 52.5972 170.655C52.8823 170.598 53.1511 170.557 53.4036 170.533C53.6642 170.5 53.8923 170.459 54.0878 170.411C54.2833 170.354 54.438 170.276 54.5521 170.178C54.6661 170.073 54.7231 169.922 54.7231 169.726C54.7231 169.498 54.6783 169.315 54.5887 169.177C54.5073 169.038 54.3973 168.932 54.2588 168.859C54.1285 168.786 53.9778 168.737 53.8068 168.712C53.6439 168.688 53.481 168.676 53.318 168.676C52.8782 168.676 52.5116 168.761 52.2184 168.932C51.9252 169.095 51.7663 169.409 51.7419 169.873H50.7034C50.7196 169.482 50.8011 169.152 50.9477 168.883C51.0943 168.615 51.2898 168.399 51.5342 168.236C51.7786 168.065 52.0555 167.943 52.365 167.869C52.6827 167.796 53.0207 167.759 53.3791 167.759C53.6642 167.759 53.9452 167.78 54.2222 167.82C54.5073 167.861 54.7639 167.947 54.9919 168.077C55.22 168.199 55.4033 168.374 55.5418 168.602C55.6802 168.83 55.7495 169.128 55.7495 169.494V172.744C55.7495 172.989 55.7617 173.168 55.7861 173.282C55.8187 173.396 55.9164 173.453 56.0794 173.453C56.1527 173.453 56.2586 173.433 56.397 173.392V174.198C56.2178 174.304 55.9694 174.357 55.6517 174.357C55.3829 174.357 55.1671 174.284 55.0042 174.137C54.8494 173.982 54.772 173.734 54.772 173.392C54.4869 173.734 54.153 173.982 53.7701 174.137C53.3954 174.284 52.9882 174.357 52.5483 174.357ZM52.7804 173.453C53.1226 173.453 53.4158 173.408 53.6602 173.319C53.9045 173.221 54.1041 173.103 54.2588 172.964C54.4136 172.818 54.5276 172.663 54.601 172.5C54.6743 172.329 54.7109 172.17 54.7109 172.023V170.96C54.5806 171.066 54.4095 171.14 54.1978 171.18C53.986 171.221 53.762 171.258 53.5258 171.29C53.2977 171.323 53.0655 171.355 52.8293 171.388C52.5931 171.421 52.3813 171.478 52.194 171.559C52.0066 171.641 51.8519 171.759 51.7297 171.913C51.6156 172.06 51.5586 172.264 51.5586 172.524C51.5586 172.695 51.5912 172.842 51.6564 172.964C51.7297 173.078 51.8193 173.172 51.9252 173.245C52.0392 173.319 52.1695 173.371 52.3162 173.404C52.4628 173.437 52.6175 173.453 52.7804 173.453ZM59.6118 174.357C59.1312 174.357 58.7035 174.28 58.3288 174.125C57.9623 173.97 57.6528 173.75 57.4003 173.465C57.1559 173.18 56.9685 172.842 56.8382 172.451C56.716 172.06 56.6549 171.624 56.6549 171.144C56.6549 170.671 56.716 170.231 56.8382 169.824C56.9604 169.409 57.1437 169.05 57.388 168.749C57.6405 168.439 57.9501 168.199 58.3166 168.028C58.6913 167.849 59.1312 167.759 59.6362 167.759C59.9946 167.759 60.3286 167.804 60.6381 167.894C60.9558 167.975 61.2327 168.105 61.4689 168.285C61.7133 168.464 61.9128 168.692 62.0676 168.969C62.2224 169.238 62.3201 169.559 62.3608 169.934H61.2856C61.2042 169.535 61.0331 169.225 60.7725 169.005C60.5118 168.786 60.1616 168.676 59.7217 168.676C59.347 168.676 59.0334 168.745 58.7809 168.883C58.5284 169.022 58.3248 169.205 58.17 169.433C58.0234 169.661 57.9175 169.926 57.8523 170.227C57.7872 170.521 57.7546 170.826 57.7546 171.144C57.7546 171.437 57.7872 171.722 57.8523 171.999C57.9256 172.276 58.0356 172.524 58.1822 172.744C58.3288 172.956 58.5162 173.127 58.7443 173.257C58.9805 173.388 59.2656 173.453 59.5995 173.453C60.1127 173.453 60.5118 173.319 60.7969 173.05C61.0902 172.781 61.2694 172.402 61.3345 171.913H62.3975C62.2835 172.704 61.9943 173.31 61.53 173.734C61.0657 174.149 60.4263 174.357 59.6118 174.357ZM63.1441 174.296C63.0383 174.296 62.9283 174.284 62.8143 174.259C62.7002 174.243 62.6065 174.227 62.5332 174.21V173.294C62.6147 173.319 62.688 173.335 62.7532 173.343C62.8265 173.351 62.8957 173.355 62.9609 173.355C63.2297 173.355 63.4333 173.249 63.5718 173.037C63.7184 172.826 63.8243 172.5 63.8895 172.06C63.9628 171.62 64.0076 171.058 64.0239 170.374C64.0401 169.682 64.0564 168.859 64.0727 167.906H68.5079V174.223H67.4694V168.822H65.0746C65.0502 169.563 65.0217 170.268 64.9891 170.936C64.9647 171.596 64.8954 172.174 64.7814 172.671C64.6673 173.168 64.4841 173.563 64.2316 173.856C63.9791 174.149 63.6166 174.296 63.1441 174.296ZM72.3991 174.357C71.8941 174.357 71.4502 174.276 71.0674 174.113C70.6927 173.95 70.3791 173.722 70.1266 173.428C69.874 173.135 69.6826 172.785 69.5523 172.378C69.4301 171.97 69.369 171.527 69.369 171.046C69.369 170.573 69.4423 170.138 69.589 169.739C69.7356 169.331 69.9392 168.981 70.1999 168.688C70.4687 168.395 70.7823 168.167 71.1407 168.004C71.5072 167.841 71.9063 167.759 72.338 167.759C72.9001 167.759 73.3644 167.877 73.7309 168.114C74.1056 168.342 74.4029 168.635 74.6229 168.993C74.8509 169.352 75.0057 169.743 75.0871 170.166C75.1767 170.59 75.2134 170.993 75.1971 171.376H70.4687C70.4605 171.653 70.4931 171.917 70.5664 172.17C70.6397 172.414 70.7578 172.634 70.9207 172.83C71.0836 173.017 71.2914 173.168 71.5439 173.282C71.7964 173.396 72.0937 173.453 72.4358 173.453C72.8756 173.453 73.234 173.351 73.511 173.147C73.7961 172.944 73.9834 172.634 74.073 172.219H75.0994C74.9609 172.936 74.6554 173.473 74.183 173.832C73.7106 174.182 73.1159 174.357 72.3991 174.357ZM74.0975 170.459C74.0812 170.215 74.0242 169.983 73.9264 169.763C73.8368 169.543 73.7106 169.356 73.5476 169.201C73.3929 169.038 73.2055 168.912 72.9856 168.822C72.7738 168.724 72.5376 168.676 72.277 168.676C72.0082 168.676 71.7638 168.724 71.5439 168.822C71.3321 168.912 71.1488 169.038 70.994 169.201C70.8393 169.364 70.7171 169.555 70.6275 169.775C70.5379 169.987 70.485 170.215 70.4687 170.459H74.0975ZM75.9071 167.906H78.8272C79.1042 167.906 79.3689 167.926 79.6214 167.967C79.8821 168.008 80.1142 168.085 80.3179 168.199C80.5215 168.305 80.6844 168.46 80.8066 168.663C80.9288 168.867 80.9899 169.128 80.9899 169.445C80.9899 169.787 80.9084 170.064 80.7455 170.276C80.5826 170.488 80.3545 170.663 80.0613 170.802V170.814C80.4278 170.887 80.717 171.058 80.9288 171.327C81.1487 171.596 81.2587 171.942 81.2587 172.365C81.2587 172.634 81.2098 172.883 81.112 173.111C81.0224 173.339 80.8921 173.534 80.7211 173.697C80.55 173.86 80.3464 173.991 80.1102 174.088C79.8739 174.178 79.6174 174.223 79.3404 174.223H75.9071V167.906ZM79.1449 173.343C79.487 173.343 79.7436 173.245 79.9147 173.05C80.0939 172.846 80.1835 172.594 80.1835 172.292C80.1835 172.007 80.0898 171.779 79.9024 171.608C79.7151 171.437 79.4015 171.351 78.9616 171.351H76.9334V173.343H79.1449ZM78.7173 170.496C79.1653 170.496 79.4748 170.415 79.6459 170.252C79.8251 170.089 79.9147 169.873 79.9147 169.604C79.9147 169.344 79.8291 169.144 79.6581 169.005C79.487 168.859 79.1734 168.786 78.7173 168.786H76.9334V170.496H78.7173ZM82.1389 167.906H83.1774V170.325H85.1323C85.7514 170.325 86.2482 170.496 86.6229 170.838C86.9976 171.172 87.185 171.645 87.185 172.256C87.185 172.85 87.0058 173.327 86.6474 173.685C86.289 174.043 85.8002 174.223 85.1812 174.223H82.1389V167.906ZM84.8024 173.306C85.674 173.306 86.1098 172.956 86.1098 172.256C86.1098 171.563 85.674 171.217 84.8024 171.217H83.1774V173.306H84.8024ZM88.1869 167.906H89.2254V174.223H88.1869V167.906ZM93.1109 174.357C92.6059 174.357 92.1619 174.276 91.7791 174.113C91.4044 173.95 91.0908 173.722 90.8383 173.428C90.5858 173.135 90.3944 172.785 90.264 172.378C90.1419 171.97 90.0808 171.527 90.0808 171.046C90.0808 170.573 90.1541 170.138 90.3007 169.739C90.4473 169.331 90.651 168.981 90.9116 168.688C91.1804 168.395 91.494 168.167 91.8524 168.004C92.219 167.841 92.6181 167.759 93.0498 167.759C93.6118 167.759 94.0761 167.877 94.4427 168.114C94.8174 168.342 95.1147 168.635 95.3346 168.993C95.5627 169.352 95.7174 169.743 95.7989 170.166C95.8885 170.59 95.9251 170.993 95.9089 171.376H91.1804C91.1723 171.653 91.2048 171.917 91.2782 172.17C91.3515 172.414 91.4696 172.634 91.6325 172.83C91.7954 173.017 92.0031 173.168 92.2556 173.282C92.5081 173.396 92.8054 173.453 93.1475 173.453C93.5874 173.453 93.9458 173.351 94.2227 173.147C94.5078 172.944 94.6952 172.634 94.7848 172.219H95.8111C95.6726 172.936 95.3672 173.473 94.8947 173.832C94.4223 174.182 93.8277 174.357 93.1109 174.357ZM94.8092 170.459C94.7929 170.215 94.7359 169.983 94.6382 169.763C94.5486 169.543 94.4223 169.356 94.2594 169.201C94.1046 169.038 93.9173 168.912 93.6974 168.822C93.4856 168.724 93.2494 168.676 92.9887 168.676C92.7199 168.676 92.4755 168.724 92.2556 168.822C92.0438 168.912 91.8606 169.038 91.7058 169.201C91.551 169.364 91.4288 169.555 91.3392 169.775C91.2496 169.987 91.1967 170.215 91.1804 170.459H94.8092ZM102.475 174.357C101.661 174.357 101.001 174.149 100.496 173.734C99.999 173.319 99.6854 172.675 99.5551 171.803C99.5062 171.461 99.4818 171.079 99.4818 170.655C99.4818 170.354 99.49 170.04 99.5062 169.714C99.5307 169.388 99.5673 169.067 99.6162 168.749C99.6732 168.431 99.7465 168.126 99.8361 167.833C99.9339 167.539 100.06 167.275 100.215 167.038C100.492 166.607 100.83 166.289 101.229 166.085C101.628 165.874 102.129 165.747 102.732 165.707C103.131 165.674 103.465 165.637 103.734 165.597C104.003 165.556 104.153 165.454 104.186 165.291H105.224C105.208 165.609 105.139 165.853 105.017 166.024C104.894 166.195 104.723 166.326 104.503 166.415C104.284 166.497 104.015 166.554 103.697 166.586C103.379 166.611 103.009 166.639 102.585 166.672C102.235 166.696 101.93 166.778 101.669 166.916C101.408 167.055 101.184 167.242 100.997 167.478C100.818 167.706 100.671 167.979 100.557 168.297C100.443 168.606 100.362 168.948 100.313 169.323H100.349C100.529 168.908 100.805 168.566 101.18 168.297C101.563 168.028 102.023 167.894 102.561 167.894C103.449 167.894 104.149 168.171 104.662 168.724C105.175 169.278 105.432 170.077 105.432 171.119C105.432 171.649 105.359 172.117 105.212 172.524C105.074 172.923 104.874 173.261 104.613 173.538C104.353 173.807 104.039 174.011 103.673 174.149C103.314 174.288 102.915 174.357 102.475 174.357ZM102.487 173.477C102.732 173.477 102.968 173.428 103.196 173.331C103.424 173.225 103.624 173.074 103.795 172.879C103.966 172.683 104.104 172.443 104.21 172.158C104.316 171.865 104.369 171.527 104.369 171.144C104.369 170.402 104.198 169.82 103.856 169.396C103.514 168.973 103.05 168.761 102.463 168.761C101.877 168.761 101.408 168.977 101.058 169.409C100.716 169.832 100.545 170.415 100.545 171.156C100.545 171.873 100.716 172.439 101.058 172.854C101.4 173.27 101.877 173.477 102.487 173.477ZM106.241 174.296C106.136 174.296 106.026 174.284 105.912 174.259C105.798 174.243 105.704 174.227 105.631 174.21V173.294C105.712 173.319 105.785 173.335 105.85 173.343C105.924 173.351 105.993 173.355 106.058 173.355C106.327 173.355 106.531 173.249 106.669 173.037C106.816 172.826 106.922 172.5 106.987 172.06C107.06 171.62 107.105 171.058 107.121 170.374C107.137 169.682 107.154 168.859 107.17 167.906H111.605V174.223H110.567V168.822H108.172C108.147 169.563 108.119 170.268 108.086 170.936C108.062 171.596 107.993 172.174 107.879 172.671C107.765 173.168 107.581 173.563 107.329 173.856C107.076 174.149 106.714 174.296 106.241 174.296ZM115.533 174.357C115.028 174.357 114.584 174.276 114.201 174.113C113.827 173.942 113.509 173.709 113.248 173.416C112.988 173.115 112.792 172.765 112.662 172.365C112.531 171.966 112.466 171.535 112.466 171.07C112.466 170.606 112.531 170.174 112.662 169.775C112.792 169.368 112.988 169.018 113.248 168.724C113.509 168.423 113.827 168.187 114.201 168.016C114.584 167.845 115.028 167.759 115.533 167.759C116.03 167.759 116.47 167.845 116.853 168.016C117.235 168.187 117.557 168.423 117.818 168.724C118.079 169.018 118.274 169.368 118.404 169.775C118.535 170.174 118.6 170.606 118.6 171.07C118.6 171.535 118.535 171.966 118.404 172.365C118.274 172.765 118.079 173.115 117.818 173.416C117.557 173.709 117.235 173.942 116.853 174.113C116.47 174.276 116.03 174.357 115.533 174.357ZM115.533 173.453C115.802 173.453 116.054 173.4 116.291 173.294C116.535 173.188 116.747 173.037 116.926 172.842C117.105 172.638 117.244 172.39 117.341 172.097C117.447 171.795 117.5 171.453 117.5 171.07C117.5 170.688 117.447 170.349 117.341 170.056C117.244 169.755 117.105 169.502 116.926 169.299C116.747 169.095 116.535 168.94 116.291 168.834C116.054 168.729 115.802 168.676 115.533 168.676C115.264 168.676 115.008 168.729 114.763 168.834C114.527 168.94 114.319 169.095 114.14 169.299C113.961 169.502 113.818 169.755 113.713 170.056C113.615 170.349 113.566 170.688 113.566 171.07C113.566 171.453 113.615 171.795 113.713 172.097C113.818 172.39 113.961 172.638 114.14 172.842C114.319 173.037 114.527 173.188 114.763 173.294C115.008 173.4 115.264 173.453 115.533 173.453ZM119.482 167.906H123.807V168.822H120.521V174.223H119.482V167.906ZM124.27 167.906H125.308V173.062L128.289 167.906H129.621V174.223H128.583V169.067L125.601 174.223H124.27V167.906Z" fill="#104A99"/>
<rect x="12.941" y="119.535" width="133.993" height="99.3747" rx="3.46182" stroke="#ADBFFD" stroke-width="1.22182"/>
<rect x="153.857" y="13.2379" width="134.4" height="99.3747" rx="3.46182" fill="white"/>
<path d="M177.614 68.1213C176.938 68.1213 176.347 68.0072 175.842 67.7792C175.337 67.5429 174.918 67.2212 174.584 66.8139C174.25 66.4067 173.997 65.9261 173.826 65.3722C173.663 64.8183 173.582 64.2237 173.582 63.5883C173.582 62.953 173.672 62.3584 173.851 61.8045C174.03 61.2424 174.291 60.7537 174.633 60.3383C174.983 59.9229 175.415 59.597 175.928 59.3608C176.441 59.1165 177.036 58.9943 177.712 58.9943C178.168 58.9943 178.6 59.0554 179.007 59.1776C179.414 59.2997 179.777 59.4789 180.094 59.7152C180.412 59.9514 180.677 60.2487 180.889 60.6071C181.1 60.9573 181.239 61.3646 181.304 61.8289H180.143C180.013 61.2098 179.724 60.7456 179.276 60.436C178.836 60.1265 178.31 59.9717 177.7 59.9717C177.178 59.9717 176.73 60.0695 176.356 60.265C175.989 60.4605 175.684 60.7252 175.439 61.0592C175.203 61.385 175.028 61.7597 174.914 62.1832C174.8 62.6068 174.743 63.0466 174.743 63.5028C174.743 63.9997 174.8 64.4721 174.914 64.9201C175.028 65.36 175.203 65.7469 175.439 66.0808C175.684 66.4067 175.993 66.6673 176.368 66.8628C176.742 67.0583 177.19 67.156 177.712 67.156C178.086 67.156 178.425 67.0949 178.726 66.9728C179.027 66.8424 179.284 66.6673 179.496 66.4474C179.716 66.2193 179.887 65.9505 180.009 65.641C180.131 65.3315 180.204 64.9975 180.229 64.6391H181.389C181.275 65.7469 180.897 66.6062 180.253 67.2171C179.618 67.8199 178.738 68.1213 177.614 68.1213ZM185.014 68.0602C184.509 68.0602 184.065 67.9787 183.683 67.8158C183.308 67.6448 182.99 67.4126 182.73 67.1194C182.469 66.818 182.273 66.4677 182.143 66.0686C182.013 65.6695 181.948 65.2378 181.948 64.7735C181.948 64.3092 182.013 63.8775 182.143 63.4784C182.273 63.0711 182.469 62.7208 182.73 62.4276C182.99 62.1262 183.308 61.89 183.683 61.7189C184.065 61.5479 184.509 61.4624 185.014 61.4624C185.511 61.4624 185.951 61.5479 186.334 61.7189C186.717 61.89 187.038 62.1262 187.299 62.4276C187.56 62.7208 187.755 63.0711 187.886 63.4784C188.016 63.8775 188.081 64.3092 188.081 64.7735C188.081 65.2378 188.016 65.6695 187.886 66.0686C187.755 66.4677 187.56 66.818 187.299 67.1194C187.038 67.4126 186.717 67.6448 186.334 67.8158C185.951 67.9787 185.511 68.0602 185.014 68.0602ZM185.014 67.156C185.283 67.156 185.536 67.1031 185.772 66.9972C186.016 66.8913 186.228 66.7406 186.407 66.5451C186.586 66.3415 186.725 66.0931 186.823 65.7998C186.929 65.4984 186.981 65.1563 186.981 64.7735C186.981 64.3907 186.929 64.0526 186.823 63.7594C186.725 63.458 186.586 63.2055 186.407 63.0018C186.228 62.7982 186.016 62.6434 185.772 62.5376C185.536 62.4317 185.283 62.3787 185.014 62.3787C184.746 62.3787 184.489 62.4317 184.245 62.5376C184.008 62.6434 183.801 62.7982 183.621 63.0018C183.442 63.2055 183.3 63.458 183.194 63.7594C183.096 64.0526 183.047 64.3907 183.047 64.7735C183.047 65.1563 183.096 65.4984 183.194 65.7998C183.3 66.0931 183.442 66.3415 183.621 66.5451C183.801 66.7406 184.008 66.8913 184.245 66.9972C184.489 67.1031 184.746 67.156 185.014 67.156ZM193.863 67.9258H188.939V61.609H189.978V67.0094H192.959V61.609H193.997V67.0094H194.853V69.844H193.863V67.9258ZM195.469 61.609H196.508V66.7651L199.489 61.609H200.821V67.9258H199.782V62.7697L196.801 67.9258H195.469V61.609ZM203.77 68.0602C203.485 68.0602 203.216 68.0276 202.964 67.9624C202.711 67.9054 202.487 67.8077 202.292 67.6692C202.104 67.5226 201.954 67.3393 201.84 67.1194C201.734 66.8913 201.681 66.6184 201.681 66.3008C201.681 65.9424 201.742 65.6491 201.864 65.4211C201.986 65.193 202.145 65.0097 202.341 64.8712C202.544 64.7246 202.772 64.6147 203.025 64.5413C203.286 64.468 203.55 64.4069 203.819 64.3581C204.104 64.3011 204.373 64.2603 204.625 64.2359C204.886 64.2033 205.114 64.1626 205.31 64.1137C205.505 64.0567 205.66 63.9793 205.774 63.8816C205.888 63.7757 205.945 63.625 205.945 63.4295C205.945 63.2014 205.9 63.0181 205.811 62.8797C205.729 62.7412 205.619 62.6353 205.481 62.562C205.35 62.4887 205.2 62.4398 205.029 62.4154C204.866 62.3909 204.703 62.3787 204.54 62.3787C204.1 62.3787 203.734 62.4642 203.44 62.6353C203.147 62.7982 202.988 63.1118 202.964 63.5761H201.925C201.942 63.1851 202.023 62.8552 202.17 62.5864C202.316 62.3176 202.512 62.1018 202.756 61.9389C203 61.7678 203.277 61.6456 203.587 61.5723C203.905 61.499 204.243 61.4624 204.601 61.4624C204.886 61.4624 205.167 61.4827 205.444 61.5234C205.729 61.5642 205.986 61.6497 206.214 61.78C206.442 61.9022 206.625 62.0773 206.764 62.3054C206.902 62.5335 206.971 62.8308 206.971 63.1973V66.4474C206.971 66.6917 206.984 66.8709 207.008 66.985C207.041 67.099 207.138 67.156 207.301 67.156C207.375 67.156 207.48 67.1357 207.619 67.0949V67.9013C207.44 68.0072 207.191 68.0602 206.874 68.0602C206.605 68.0602 206.389 67.9869 206.226 67.8403C206.071 67.6855 205.994 67.4371 205.994 67.0949C205.709 67.4371 205.375 67.6855 204.992 67.8403C204.617 67.9869 204.21 68.0602 203.77 68.0602ZM204.002 67.156C204.344 67.156 204.638 67.1112 204.882 67.0216C205.126 66.9239 205.326 66.8058 205.481 66.6673C205.636 66.5207 205.75 66.3659 205.823 66.203C205.896 66.032 205.933 65.8731 205.933 65.7265V64.6635C205.803 64.7694 205.631 64.8427 205.42 64.8835C205.208 64.9242 204.984 64.9608 204.748 64.9934C204.52 65.026 204.287 65.0586 204.051 65.0912C203.815 65.1237 203.603 65.1808 203.416 65.2622C203.229 65.3437 203.074 65.4618 202.952 65.6165C202.838 65.7632 202.781 65.9668 202.781 66.2275C202.781 66.3985 202.813 66.5451 202.878 66.6673C202.952 66.7813 203.041 66.875 203.147 66.9483C203.261 67.0216 203.391 67.0746 203.538 67.1072C203.685 67.1397 203.839 67.156 204.002 67.156ZM208.17 67.9991C208.064 67.9991 207.954 67.9869 207.84 67.9624C207.726 67.9461 207.633 67.9299 207.559 67.9136V66.9972C207.641 67.0216 207.714 67.0379 207.779 67.0461C207.852 67.0542 207.922 67.0583 207.987 67.0583C208.256 67.0583 208.459 66.9524 208.598 66.7406C208.744 66.5288 208.85 66.203 208.915 65.7632C208.989 65.3233 209.034 64.7613 209.05 64.0771C209.066 63.3847 209.082 62.562 209.099 61.609H213.534V67.9258H212.495V62.5253H210.101C210.076 63.2666 210.048 63.9712 210.015 64.6391C209.991 65.2989 209.921 65.8772 209.807 66.3741C209.693 66.8709 209.51 67.266 209.258 67.5592C209.005 67.8525 208.643 67.9991 208.17 67.9991ZM214.798 61.609H215.837V64.0282H218.085C218.704 64.0282 219.201 64.1992 219.576 64.5413C219.95 64.8753 220.138 65.3477 220.138 65.9587C220.138 66.5533 219.958 67.0298 219.6 67.3882C219.242 67.7466 218.753 67.9258 218.134 67.9258H214.798V61.609ZM217.755 67.0094C218.627 67.0094 219.062 66.6592 219.062 65.9587C219.062 65.2663 218.627 64.9201 217.755 64.9201H215.837V67.0094H217.755ZM220.897 61.609H221.936V64.1259H225.137V61.609H226.176V67.9258H225.137V65.0179H221.936V67.9258H220.897V61.609ZM227.368 61.609H228.406V64.0282H230.361C230.98 64.0282 231.477 64.1992 231.852 64.5413C232.226 64.8753 232.414 65.3477 232.414 65.9587C232.414 66.5533 232.235 67.0298 231.876 67.3882C231.518 67.7466 231.029 67.9258 230.41 67.9258H227.368V61.609ZM230.031 67.0094C230.903 67.0094 231.339 66.6592 231.339 65.9587C231.339 65.2663 230.903 64.9201 230.031 64.9201H228.406V67.0094H230.031ZM233.416 61.609H234.454V67.9258H233.416V61.609ZM238.34 68.0602C237.835 68.0602 237.391 67.9787 237.008 67.8158C236.633 67.6529 236.32 67.4248 236.067 67.1316C235.815 66.8384 235.623 66.4881 235.493 66.0808C235.371 65.6736 235.31 65.2296 235.31 64.7491C235.31 64.2766 235.383 63.8408 235.53 63.4417C235.676 63.0344 235.88 62.6842 236.14 62.3909C236.409 62.0977 236.723 61.8696 237.081 61.7067C237.448 61.5438 237.847 61.4624 238.279 61.4624C238.841 61.4624 239.305 61.5805 239.671 61.8167C240.046 62.0448 240.343 62.338 240.563 62.6964C240.791 63.0548 240.946 63.4458 241.028 63.8693C241.117 64.2929 241.154 64.6961 241.138 65.0789H236.409C236.401 65.3559 236.434 65.6206 236.507 65.8731C236.58 66.1175 236.698 66.3374 236.861 66.5329C237.024 66.7203 237.232 66.8709 237.484 66.985C237.737 67.099 238.034 67.156 238.376 67.156C238.816 67.156 239.175 67.0542 239.452 66.8506C239.737 66.6469 239.924 66.3374 240.014 65.922H241.04C240.901 66.6388 240.596 67.1764 240.124 67.5348C239.651 67.8851 239.056 68.0602 238.34 68.0602ZM240.038 64.1626C240.022 63.9182 239.965 63.6861 239.867 63.4661C239.777 63.2462 239.651 63.0589 239.488 62.9041C239.333 62.7412 239.146 62.6149 238.926 62.5253C238.714 62.4276 238.478 62.3787 238.218 62.3787C237.949 62.3787 237.704 62.4276 237.484 62.5253C237.273 62.6149 237.089 62.7412 236.935 62.9041C236.78 63.067 236.658 63.2584 236.568 63.4784C236.478 63.6901 236.426 63.9182 236.409 64.1626H240.038ZM247.496 68.0602C247.016 68.0602 246.588 67.9828 246.213 67.828C245.847 67.6733 245.537 67.4533 245.285 67.1683C245.041 66.8832 244.853 66.5451 244.723 66.1541C244.601 65.7632 244.54 65.3274 244.54 64.8468C244.54 64.3744 244.601 63.9345 244.723 63.5272C244.845 63.1118 245.028 62.7534 245.273 62.452C245.525 62.1425 245.835 61.9022 246.201 61.7312C246.576 61.552 247.016 61.4624 247.521 61.4624C247.879 61.4624 248.213 61.5072 248.523 61.5968C248.84 61.6782 249.117 61.8085 249.354 61.9877C249.598 62.1669 249.797 62.395 249.952 62.672C250.107 62.9408 250.205 63.2625 250.245 63.6372H249.17C249.089 63.2381 248.918 62.9285 248.657 62.7086C248.396 62.4887 248.046 62.3787 247.606 62.3787C247.232 62.3787 246.918 62.448 246.666 62.5864C246.413 62.7249 246.209 62.9082 246.055 63.1362C245.908 63.3643 245.802 63.629 245.737 63.9304C245.672 64.2237 245.639 64.5291 245.639 64.8468C245.639 65.14 245.672 65.4251 245.737 65.7021C245.81 65.979 245.92 66.2275 246.067 66.4474C246.213 66.6592 246.401 66.8302 246.629 66.9605C246.865 67.0909 247.15 67.156 247.484 67.156C247.997 67.156 248.396 67.0216 248.682 66.7528C248.975 66.484 249.154 66.1053 249.219 65.6165H250.282C250.168 66.4067 249.879 67.0135 249.415 67.4371C248.95 67.8525 248.311 68.0602 247.496 68.0602ZM253.766 68.0602C253.261 68.0602 252.817 67.9787 252.434 67.8158C252.059 67.6529 251.746 67.4248 251.493 67.1316C251.241 66.8384 251.049 66.4881 250.919 66.0808C250.797 65.6736 250.736 65.2296 250.736 64.7491C250.736 64.2766 250.809 63.8408 250.955 63.4417C251.102 63.0344 251.306 62.6842 251.566 62.3909C251.835 62.0977 252.149 61.8696 252.507 61.7067C252.874 61.5438 253.273 61.4624 253.705 61.4624C254.267 61.4624 254.731 61.5805 255.097 61.8167C255.472 62.0448 255.769 62.338 255.989 62.6964C256.217 63.0548 256.372 63.4458 256.454 63.8693C256.543 64.2929 256.58 64.6961 256.564 65.0789H251.835C251.827 65.3559 251.86 65.6206 251.933 65.8731C252.006 66.1175 252.124 66.3374 252.287 66.5329C252.45 66.7203 252.658 66.8709 252.91 66.985C253.163 67.099 253.46 67.156 253.802 67.156C254.242 67.156 254.601 67.0542 254.877 66.8506C255.163 66.6469 255.35 66.3374 255.44 65.922H256.466C256.327 66.6388 256.022 67.1764 255.549 67.5348C255.077 67.8851 254.482 68.0602 253.766 68.0602ZM255.464 64.1626C255.448 63.9182 255.391 63.6861 255.293 63.4661C255.203 63.2462 255.077 63.0589 254.914 62.9041C254.759 62.7412 254.572 62.6149 254.352 62.5253C254.14 62.4276 253.904 62.3787 253.643 62.3787C253.375 62.3787 253.13 62.4276 252.91 62.5253C252.699 62.6149 252.515 62.7412 252.361 62.9041C252.206 63.067 252.084 63.2584 251.994 63.4784C251.904 63.6901 251.851 63.9182 251.835 64.1626H255.464ZM258.801 62.5253H256.541V61.609H262.1V62.5253H259.839V67.9258H258.801V62.5253ZM262.563 61.609H263.601V66.7651L266.583 61.609H267.914V67.9258H266.876V62.7697L263.895 67.9258H262.563V61.609Z" fill="#104A99"/>
<rect x="153.857" y="13.2379" width="134.4" height="99.3747" rx="3.46182" stroke="#ADBFFD" stroke-width="1.22182"/>
<rect x="153.857" y="119.535" width="134.4" height="99.3747" rx="3.46182" fill="white"/>
<path d="M187.512 159.499H194.305V168.223H193.144V160.476H188.672V168.223H187.512V159.499ZM195.623 168.296C195.518 168.296 195.408 168.284 195.294 168.259C195.18 168.243 195.086 168.227 195.013 168.21V167.294C195.094 167.319 195.167 167.335 195.232 167.343C195.306 167.351 195.375 167.355 195.44 167.355C195.709 167.355 195.913 167.249 196.051 167.037C196.198 166.826 196.304 166.5 196.369 166.06C196.442 165.62 196.487 165.058 196.503 164.374C196.519 163.682 196.536 162.859 196.552 161.906H200.987V168.223H199.949V162.822H197.554C197.53 163.563 197.501 164.268 197.468 164.936C197.444 165.596 197.375 166.174 197.261 166.671C197.147 167.168 196.963 167.563 196.711 167.856C196.458 168.149 196.096 168.296 195.623 168.296ZM203.938 168.357C203.653 168.357 203.384 168.324 203.131 168.259C202.879 168.202 202.655 168.105 202.459 167.966C202.272 167.819 202.121 167.636 202.007 167.416C201.901 167.188 201.848 166.915 201.848 166.598C201.848 166.239 201.909 165.946 202.032 165.718C202.154 165.49 202.313 165.307 202.508 165.168C202.712 165.021 202.94 164.912 203.192 164.838C203.453 164.765 203.718 164.704 203.987 164.655C204.272 164.598 204.54 164.557 204.793 164.533C205.054 164.5 205.282 164.459 205.477 164.411C205.673 164.354 205.827 164.276 205.941 164.178C206.055 164.073 206.113 163.922 206.113 163.726C206.113 163.498 206.068 163.315 205.978 163.177C205.897 163.038 205.787 162.932 205.648 162.859C205.518 162.786 205.367 162.737 205.196 162.712C205.033 162.688 204.87 162.676 204.707 162.676C204.268 162.676 203.901 162.761 203.608 162.932C203.315 163.095 203.156 163.409 203.131 163.873H202.093C202.109 163.482 202.19 163.152 202.337 162.883C202.484 162.615 202.679 162.399 202.924 162.236C203.168 162.065 203.445 161.943 203.754 161.869C204.072 161.796 204.41 161.759 204.769 161.759C205.054 161.759 205.335 161.78 205.612 161.82C205.897 161.861 206.153 161.947 206.381 162.077C206.609 162.199 206.793 162.374 206.931 162.602C207.07 162.83 207.139 163.128 207.139 163.494V166.744C207.139 166.989 207.151 167.168 207.175 167.282C207.208 167.396 207.306 167.453 207.469 167.453C207.542 167.453 207.648 167.433 207.786 167.392V168.198C207.607 168.304 207.359 168.357 207.041 168.357C206.772 168.357 206.556 168.284 206.394 168.137C206.239 167.982 206.161 167.734 206.161 167.392C205.876 167.734 205.542 167.982 205.159 168.137C204.785 168.284 204.378 168.357 203.938 168.357ZM204.17 167.453C204.512 167.453 204.805 167.408 205.05 167.319C205.294 167.221 205.493 167.103 205.648 166.964C205.803 166.818 205.917 166.663 205.99 166.5C206.064 166.329 206.1 166.17 206.1 166.023V164.96C205.97 165.066 205.799 165.14 205.587 165.18C205.375 165.221 205.151 165.258 204.915 165.29C204.687 165.323 204.455 165.355 204.219 165.388C203.982 165.421 203.771 165.478 203.583 165.559C203.396 165.641 203.241 165.759 203.119 165.913C203.005 166.06 202.948 166.264 202.948 166.524C202.948 166.695 202.981 166.842 203.046 166.964C203.119 167.078 203.209 167.172 203.315 167.245C203.429 167.319 203.559 167.371 203.706 167.404C203.852 167.437 204.007 167.453 204.17 167.453ZM211.979 167.746C211.905 167.819 211.816 167.893 211.71 167.966C211.604 168.039 211.49 168.105 211.368 168.162C211.254 168.219 211.131 168.263 211.001 168.296C210.879 168.337 210.757 168.357 210.635 168.357C210.162 168.357 209.763 168.263 209.437 168.076C209.12 167.889 208.859 167.64 208.655 167.331C208.46 167.013 208.317 166.651 208.228 166.243C208.138 165.836 208.093 165.412 208.093 164.973C208.093 163.963 208.313 163.177 208.753 162.615C209.193 162.044 209.792 161.759 210.549 161.759C210.679 161.759 210.814 161.78 210.952 161.82C211.099 161.861 211.233 161.914 211.355 161.979C211.486 162.044 211.604 162.118 211.71 162.199C211.824 162.281 211.913 162.362 211.979 162.443V159.499H213.005V162.443C213.07 162.362 213.156 162.281 213.261 162.199C213.367 162.118 213.485 162.044 213.616 161.979C213.746 161.914 213.881 161.861 214.019 161.82C214.157 161.78 214.296 161.759 214.434 161.759C215.192 161.759 215.791 162.044 216.231 162.615C216.67 163.177 216.89 163.963 216.89 164.973C216.89 165.412 216.845 165.836 216.756 166.243C216.666 166.651 216.52 167.013 216.316 167.331C216.121 167.64 215.86 167.889 215.534 168.076C215.216 168.263 214.821 168.357 214.349 168.357C214.113 168.357 213.86 168.296 213.591 168.174C213.331 168.043 213.135 167.901 213.005 167.746V170.63H211.979V167.746ZM210.757 167.502C211.074 167.502 211.347 167.424 211.575 167.27C211.803 167.107 211.938 166.911 211.979 166.683V163.506C211.93 163.335 211.856 163.197 211.759 163.091C211.661 162.977 211.551 162.887 211.429 162.822C211.315 162.749 211.193 162.7 211.062 162.676C210.932 162.643 210.81 162.627 210.696 162.627C210.427 162.627 210.195 162.688 209.999 162.81C209.812 162.924 209.653 163.087 209.523 163.299C209.401 163.502 209.311 163.751 209.254 164.044C209.197 164.337 209.168 164.655 209.168 164.997C209.168 165.29 209.193 165.588 209.242 165.889C209.291 166.182 209.372 166.451 209.486 166.695C209.608 166.932 209.771 167.127 209.975 167.282C210.178 167.428 210.439 167.502 210.757 167.502ZM214.227 167.502C214.544 167.502 214.805 167.428 215.009 167.282C215.212 167.127 215.371 166.932 215.485 166.695C215.607 166.451 215.693 166.182 215.742 165.889C215.791 165.588 215.815 165.29 215.815 164.997C215.815 164.655 215.787 164.337 215.73 164.044C215.673 163.751 215.579 163.502 215.449 163.299C215.326 163.087 215.168 162.924 214.972 162.81C214.785 162.688 214.557 162.627 214.288 162.627C214.174 162.627 214.052 162.643 213.921 162.676C213.791 162.7 213.665 162.749 213.543 162.822C213.428 162.887 213.323 162.977 213.225 163.091C213.127 163.197 213.054 163.335 213.005 163.506V166.683C213.046 166.911 213.18 167.107 213.408 167.27C213.636 167.424 213.909 167.502 214.227 167.502ZM219.319 162.822H217.059V161.906H222.618V162.822H220.358V168.223H219.319V162.822ZM225.806 168.357C225.301 168.357 224.857 168.276 224.474 168.113C224.099 167.942 223.782 167.709 223.521 167.416C223.26 167.115 223.065 166.765 222.935 166.365C222.804 165.966 222.739 165.535 222.739 165.07C222.739 164.606 222.804 164.174 222.935 163.775C223.065 163.368 223.26 163.018 223.521 162.724C223.782 162.423 224.099 162.187 224.474 162.016C224.857 161.845 225.301 161.759 225.806 161.759C226.303 161.759 226.743 161.845 227.125 162.016C227.508 162.187 227.83 162.423 228.091 162.724C228.351 163.018 228.547 163.368 228.677 163.775C228.807 164.174 228.873 164.606 228.873 165.07C228.873 165.535 228.807 165.966 228.677 166.365C228.547 166.765 228.351 167.115 228.091 167.416C227.83 167.709 227.508 167.942 227.125 168.113C226.743 168.276 226.303 168.357 225.806 168.357ZM225.806 167.453C226.075 167.453 226.327 167.4 226.563 167.294C226.808 167.188 227.02 167.037 227.199 166.842C227.378 166.638 227.516 166.39 227.614 166.097C227.72 165.795 227.773 165.453 227.773 165.07C227.773 164.688 227.72 164.349 227.614 164.056C227.516 163.755 227.378 163.502 227.199 163.299C227.02 163.095 226.808 162.94 226.563 162.834C226.327 162.729 226.075 162.676 225.806 162.676C225.537 162.676 225.28 162.729 225.036 162.834C224.8 162.94 224.592 163.095 224.413 163.299C224.234 163.502 224.091 163.755 223.985 164.056C223.888 164.349 223.839 164.688 223.839 165.07C223.839 165.453 223.888 165.795 223.985 166.097C224.091 166.39 224.234 166.638 224.413 166.842C224.592 167.037 224.8 167.188 225.036 167.294C225.28 167.4 225.537 167.453 225.806 167.453ZM229.767 161.906H230.806V162.761H230.83C231.001 162.411 231.27 162.158 231.637 162.004C232.003 161.841 232.406 161.759 232.846 161.759C233.335 161.759 233.758 161.849 234.117 162.028C234.483 162.207 234.785 162.452 235.021 162.761C235.265 163.063 235.449 163.413 235.571 163.812C235.693 164.211 235.754 164.635 235.754 165.083C235.754 165.539 235.693 165.966 235.571 166.365C235.457 166.756 235.278 167.103 235.033 167.404C234.797 167.697 234.496 167.929 234.129 168.1C233.771 168.272 233.351 168.357 232.871 168.357C232.708 168.357 232.533 168.341 232.345 168.308C232.158 168.276 231.971 168.223 231.783 168.149C231.596 168.076 231.417 167.978 231.246 167.856C231.083 167.726 230.944 167.567 230.83 167.38H230.806V170.63H229.767V161.906ZM232.761 167.453C233.111 167.453 233.408 167.384 233.653 167.245C233.897 167.107 234.092 166.923 234.239 166.695C234.386 166.467 234.492 166.207 234.557 165.913C234.622 165.62 234.654 165.319 234.654 165.009C234.654 164.716 234.614 164.431 234.532 164.154C234.459 163.869 234.341 163.616 234.178 163.396C234.023 163.177 233.82 163.001 233.567 162.871C233.323 162.741 233.034 162.676 232.7 162.676C232.349 162.676 232.052 162.745 231.808 162.883C231.563 163.022 231.364 163.205 231.209 163.433C231.054 163.653 230.94 163.906 230.867 164.191C230.802 164.476 230.769 164.765 230.769 165.058C230.769 165.368 230.806 165.669 230.879 165.962C230.952 166.247 231.066 166.5 231.221 166.72C231.384 166.94 231.592 167.119 231.844 167.257C232.097 167.388 232.402 167.453 232.761 167.453ZM236.607 161.906H238.097L240.016 167.025H240.04L241.958 161.906H243.449V168.223H242.41V163.213L240.504 168.223H239.551L237.645 163.213V168.223H236.607V161.906ZM244.652 161.906H245.691V164.325H247.645C248.265 164.325 248.761 164.496 249.136 164.838C249.511 165.172 249.698 165.645 249.698 166.256C249.698 166.85 249.519 167.327 249.161 167.685C248.802 168.043 248.313 168.223 247.694 168.223H244.652V161.906ZM247.316 167.306C248.187 167.306 248.623 166.956 248.623 166.256C248.623 165.563 248.187 165.217 247.316 165.217H245.691V167.306H247.316ZM250.7 161.906H251.739V168.223H250.7V161.906ZM183.265 173.906H188.421V180.223H187.383V174.822H184.304V180.223H183.265V173.906ZM192.341 180.357C191.836 180.357 191.392 180.276 191.009 180.113C190.634 179.942 190.317 179.709 190.056 179.416C189.795 179.115 189.6 178.765 189.47 178.365C189.339 177.966 189.274 177.535 189.274 177.07C189.274 176.606 189.339 176.174 189.47 175.775C189.6 175.368 189.795 175.018 190.056 174.724C190.317 174.423 190.634 174.187 191.009 174.016C191.392 173.845 191.836 173.759 192.341 173.759C192.838 173.759 193.278 173.845 193.66 174.016C194.043 174.187 194.365 174.423 194.626 174.724C194.886 175.018 195.082 175.368 195.212 175.775C195.342 176.174 195.408 176.606 195.408 177.07C195.408 177.535 195.342 177.966 195.212 178.365C195.082 178.765 194.886 179.115 194.626 179.416C194.365 179.709 194.043 179.942 193.66 180.113C193.278 180.276 192.838 180.357 192.341 180.357ZM192.341 179.453C192.61 179.453 192.862 179.4 193.098 179.294C193.343 179.188 193.555 179.037 193.734 178.842C193.913 178.638 194.051 178.39 194.149 178.097C194.255 177.795 194.308 177.453 194.308 177.07C194.308 176.688 194.255 176.349 194.149 176.056C194.051 175.755 193.913 175.502 193.734 175.299C193.555 175.095 193.343 174.94 193.098 174.834C192.862 174.729 192.61 174.676 192.341 174.676C192.072 174.676 191.815 174.729 191.571 174.834C191.335 174.94 191.127 175.095 190.948 175.299C190.769 175.502 190.626 175.755 190.52 176.056C190.423 176.349 190.374 176.688 190.374 177.07C190.374 177.453 190.423 177.795 190.52 178.097C190.626 178.39 190.769 178.638 190.948 178.842C191.127 179.037 191.335 179.188 191.571 179.294C191.815 179.4 192.072 179.453 192.341 179.453ZM200.827 174.822H198.567V173.906H204.126V174.822H201.865V180.223H200.827V174.822ZM204.589 173.906H205.627V179.062L208.609 173.906H209.94V180.223H208.902V175.067L205.921 180.223H204.589V173.906ZM211.143 173.906H216.299V180.223H215.26V174.822H212.181V180.223H211.143V173.906ZM218.141 182.74C218.019 182.74 217.897 182.731 217.775 182.715C217.653 182.699 217.534 182.67 217.42 182.63V181.677C217.518 181.709 217.616 181.742 217.714 181.774C217.82 181.807 217.925 181.823 218.031 181.823C218.243 181.823 218.414 181.774 218.545 181.677C218.675 181.579 218.789 181.436 218.887 181.249L219.314 180.186L216.81 173.906H217.982L219.827 179.074H219.852L221.623 173.906H222.723L219.974 181.053C219.852 181.363 219.73 181.624 219.607 181.835C219.493 182.047 219.363 182.218 219.217 182.349C219.078 182.487 218.919 182.585 218.74 182.642C218.569 182.707 218.369 182.74 218.141 182.74ZM226.441 171.499H230.547C231.378 171.499 232.025 171.703 232.489 172.11C232.962 172.517 233.198 173.075 233.198 173.784C233.198 174.313 233.076 174.777 232.831 175.177C232.595 175.576 232.212 175.849 231.683 175.995V176.02C231.935 176.068 232.139 176.15 232.294 176.264C232.457 176.378 232.583 176.516 232.673 176.679C232.77 176.834 232.84 177.009 232.88 177.205C232.929 177.4 232.966 177.604 232.99 177.816C233.007 178.027 233.019 178.243 233.027 178.463C233.035 178.683 233.055 178.899 233.088 179.111C233.121 179.323 233.165 179.526 233.222 179.722C233.288 179.909 233.381 180.076 233.503 180.223H232.208C232.127 180.133 232.07 180.011 232.037 179.856C232.013 179.701 231.997 179.53 231.988 179.343C231.98 179.147 231.972 178.94 231.964 178.72C231.956 178.5 231.931 178.284 231.891 178.072C231.858 177.86 231.817 177.661 231.769 177.474C231.72 177.278 231.642 177.111 231.536 176.973C231.43 176.826 231.292 176.712 231.121 176.631C230.95 176.541 230.722 176.496 230.437 176.496H227.602V180.223H226.441V171.499ZM230.021 175.519C230.29 175.519 230.547 175.498 230.791 175.458C231.035 175.417 231.247 175.339 231.426 175.225C231.614 175.103 231.76 174.944 231.866 174.749C231.98 174.545 232.037 174.285 232.037 173.967C232.037 173.527 231.915 173.169 231.671 172.892C231.426 172.615 231.031 172.476 230.486 172.476H227.602V175.519H230.021ZM238.654 176.459C238.638 176.215 238.581 175.983 238.483 175.763C238.394 175.543 238.267 175.356 238.105 175.201C237.95 175.038 237.762 174.912 237.542 174.822C237.331 174.724 237.094 174.676 236.834 174.676C236.565 174.676 236.321 174.724 236.101 174.822C235.889 174.912 235.706 175.038 235.551 175.201C235.396 175.364 235.274 175.555 235.184 175.775C235.095 175.987 235.042 176.215 235.026 176.459H238.654ZM239.656 178.219C239.518 178.928 239.212 179.461 238.74 179.819C238.267 180.178 237.673 180.357 236.956 180.357C236.451 180.357 236.011 180.276 235.636 180.113C235.27 179.95 234.96 179.722 234.708 179.428C234.455 179.135 234.264 178.785 234.134 178.378C234.011 177.97 233.942 177.527 233.926 177.046C233.926 176.565 233.999 176.125 234.146 175.726C234.292 175.327 234.496 174.981 234.757 174.688C235.026 174.395 235.339 174.167 235.698 174.004C236.064 173.841 236.463 173.759 236.895 173.759C237.457 173.759 237.921 173.877 238.288 174.114C238.662 174.342 238.96 174.635 239.18 174.993C239.408 175.352 239.563 175.743 239.644 176.166C239.734 176.59 239.77 176.993 239.754 177.376H235.026C235.017 177.653 235.05 177.917 235.123 178.17C235.197 178.414 235.315 178.634 235.478 178.83C235.641 179.017 235.848 179.168 236.101 179.282C236.353 179.396 236.651 179.453 236.993 179.453C237.433 179.453 237.791 179.351 238.068 179.147C238.353 178.944 238.54 178.634 238.63 178.219H239.656ZM241.221 177.119C241.221 177.412 241.258 177.702 241.331 177.987C241.413 178.264 241.531 178.512 241.686 178.732C241.849 178.952 242.052 179.127 242.297 179.257C242.549 179.388 242.842 179.453 243.176 179.453C243.527 179.453 243.824 179.384 244.068 179.245C244.313 179.107 244.512 178.928 244.667 178.708C244.822 178.48 244.932 178.223 244.997 177.938C245.07 177.653 245.107 177.364 245.107 177.07C245.107 176.761 245.07 176.464 244.997 176.178C244.924 175.885 244.805 175.629 244.643 175.409C244.488 175.189 244.284 175.014 244.032 174.883C243.779 174.745 243.474 174.676 243.115 174.676C242.765 174.676 242.468 174.745 242.223 174.883C241.979 175.022 241.784 175.205 241.637 175.433C241.49 175.661 241.384 175.922 241.319 176.215C241.254 176.508 241.221 176.81 241.221 177.119ZM246.109 180.223H245.07V179.367H245.046C244.875 179.718 244.606 179.97 244.239 180.125C243.873 180.28 243.47 180.357 243.03 180.357C242.541 180.357 242.113 180.267 241.747 180.088C241.388 179.909 241.087 179.669 240.843 179.367C240.606 179.066 240.427 178.716 240.305 178.317C240.183 177.917 240.122 177.494 240.122 177.046C240.122 176.598 240.179 176.174 240.293 175.775C240.415 175.376 240.594 175.03 240.83 174.737C241.075 174.435 241.376 174.199 241.735 174.028C242.101 173.849 242.525 173.759 243.005 173.759C243.168 173.759 243.343 173.776 243.531 173.808C243.718 173.841 243.905 173.898 244.093 173.979C244.28 174.052 244.455 174.154 244.618 174.285C244.789 174.407 244.932 174.562 245.046 174.749H245.07V171.499H246.109V180.223ZM248.098 177.119C248.098 177.412 248.134 177.702 248.208 177.987C248.289 178.264 248.407 178.512 248.562 178.732C248.725 178.952 248.928 179.127 249.173 179.257C249.425 179.388 249.718 179.453 250.052 179.453C250.403 179.453 250.7 179.384 250.944 179.245C251.189 179.107 251.388 178.928 251.543 178.708C251.698 178.48 251.808 178.223 251.873 177.938C251.946 177.653 251.983 177.364 251.983 177.07C251.983 176.761 251.946 176.464 251.873 176.178C251.8 175.885 251.682 175.629 251.519 175.409C251.364 175.189 251.16 175.014 250.908 174.883C250.655 174.745 250.35 174.676 249.991 174.676C249.641 174.676 249.344 174.745 249.099 174.883C248.855 175.022 248.66 175.205 248.513 175.433C248.366 175.661 248.26 175.922 248.195 176.215C248.13 176.508 248.098 176.81 248.098 177.119ZM252.985 180.223H251.946V179.367H251.922C251.751 179.718 251.482 179.97 251.115 180.125C250.749 180.28 250.346 180.357 249.906 180.357C249.417 180.357 248.989 180.267 248.623 180.088C248.265 179.909 247.963 179.669 247.719 179.367C247.483 179.066 247.303 178.716 247.181 178.317C247.059 177.917 246.998 177.494 246.998 177.046C246.998 176.598 247.055 176.174 247.169 175.775C247.291 175.376 247.47 175.03 247.707 174.737C247.951 174.435 248.252 174.199 248.611 174.028C248.977 173.849 249.401 173.759 249.881 173.759C250.044 173.759 250.219 173.776 250.407 173.808C250.594 173.841 250.781 173.898 250.969 173.979C251.156 174.052 251.331 174.154 251.494 174.285C251.665 174.407 251.808 174.562 251.922 174.749H251.946V171.499H252.985V180.223ZM255.316 172.77H254.277V171.499H255.316V172.77ZM254.277 173.906H255.316V180.223H254.277V173.906ZM258 173.906H259.258V174.822H258V178.744C258 178.866 258.008 178.964 258.024 179.037C258.049 179.111 258.089 179.168 258.146 179.209C258.203 179.249 258.281 179.278 258.379 179.294C258.484 179.302 258.619 179.306 258.782 179.306H259.258V180.223H258.464C258.195 180.223 257.963 180.206 257.768 180.174C257.58 180.133 257.426 180.064 257.303 179.966C257.189 179.868 257.104 179.73 257.047 179.551C256.99 179.371 256.961 179.135 256.961 178.842V174.822H255.886V173.906H256.961V172.012H258V173.906Z" fill="#104A99"/>
<rect x="153.857" y="119.535" width="134.4" height="99.3747" rx="3.46182" stroke="#ADBFFD" stroke-width="1.22182"/>
<rect x="295.179" y="13.2379" width="134.4" height="99.3747" rx="3.46182" fill="white"/>
<path d="M335.332 59.202H336.493V66.594L340.879 59.202H342.345V67.9258H341.184V60.5093L336.786 67.9258H335.332V59.202ZM343.719 61.609H344.758V64.1259H347.959V61.609H348.998V67.9258H347.959V65.0179H344.758V67.9258H343.719V61.609ZM351.717 62.5253H349.457V61.609H355.016V62.5253H352.756V67.9258H351.717V62.5253ZM358.167 68.0602C357.662 68.0602 357.218 67.9787 356.835 67.8158C356.46 67.6529 356.147 67.4248 355.894 67.1316C355.642 66.8384 355.45 66.4881 355.32 66.0808C355.198 65.6736 355.137 65.2296 355.137 64.7491C355.137 64.2766 355.21 63.8408 355.357 63.4417C355.503 63.0344 355.707 62.6842 355.968 62.3909C356.236 62.0977 356.55 61.8696 356.908 61.7067C357.275 61.5438 357.674 61.4624 358.106 61.4624C358.668 61.4624 359.132 61.5805 359.499 61.8167C359.873 62.0448 360.171 62.338 360.391 62.6964C360.619 63.0548 360.773 63.4458 360.855 63.8693C360.944 64.2929 360.981 64.6961 360.965 65.0789H356.236C356.228 65.3559 356.261 65.6206 356.334 65.8731C356.407 66.1175 356.526 66.3374 356.688 66.5329C356.851 66.7203 357.059 66.8709 357.312 66.985C357.564 67.099 357.861 67.156 358.204 67.156C358.643 67.156 359.002 67.0542 359.279 66.8506C359.564 66.6469 359.751 66.3374 359.841 65.922H360.867C360.729 66.6388 360.423 67.1764 359.951 67.5348C359.478 67.8851 358.884 68.0602 358.167 68.0602ZM359.865 64.1626C359.849 63.9182 359.792 63.6861 359.694 63.4661C359.605 63.2462 359.478 63.0589 359.315 62.9041C359.161 62.7412 358.973 62.6149 358.753 62.5253C358.542 62.4276 358.305 62.3787 358.045 62.3787C357.776 62.3787 357.532 62.4276 357.312 62.5253C357.1 62.6149 356.917 62.7412 356.762 62.9041C356.607 63.067 356.485 63.2584 356.395 63.4784C356.306 63.6901 356.253 63.9182 356.236 64.1626H359.865ZM361.711 61.609H362.75V62.4642H362.774C362.946 62.114 363.214 61.8615 363.581 61.7067C363.947 61.5438 364.351 61.4624 364.79 61.4624C365.279 61.4624 365.703 61.552 366.061 61.7312C366.428 61.9104 366.729 62.1547 366.965 62.4642C367.21 62.7656 367.393 63.1159 367.515 63.515C367.637 63.9141 367.698 64.3377 367.698 64.7857C367.698 65.2419 367.637 65.6695 367.515 66.0686C367.401 66.4596 367.222 66.8058 366.978 67.1072C366.741 67.4004 366.44 67.6325 366.073 67.8036C365.715 67.9747 365.295 68.0602 364.815 68.0602C364.652 68.0602 364.477 68.0439 364.29 68.0113C364.102 67.9787 363.915 67.9258 363.727 67.8525C363.54 67.7792 363.361 67.6814 363.19 67.5592C363.027 67.4289 362.889 67.2701 362.774 67.0827H362.75V70.3328H361.711V61.609ZM364.705 67.156C365.055 67.156 365.353 67.0868 365.597 66.9483C365.841 66.8099 366.037 66.6266 366.183 66.3985C366.33 66.1704 366.436 65.9098 366.501 65.6165C366.566 65.3233 366.599 65.0219 366.599 64.7124C366.599 64.4192 366.558 64.1341 366.477 63.8571C366.403 63.572 366.285 63.3195 366.122 63.0996C365.967 62.8797 365.764 62.7045 365.511 62.5742C365.267 62.4439 364.978 62.3787 364.644 62.3787C364.294 62.3787 363.996 62.448 363.752 62.5864C363.508 62.7249 363.308 62.9082 363.153 63.1362C362.998 63.3562 362.884 63.6087 362.811 63.8938C362.746 64.1789 362.713 64.468 362.713 64.7613C362.713 65.0708 362.75 65.3722 362.823 65.6654C362.897 65.9505 363.011 66.203 363.165 66.4229C363.328 66.6429 363.536 66.8221 363.789 66.9605C364.041 67.0909 364.347 67.156 364.705 67.156ZM368.551 61.609H371.471C371.748 61.609 372.013 61.6293 372.265 61.6701C372.526 61.7108 372.758 61.7882 372.962 61.9022C373.165 62.0081 373.328 62.1629 373.45 62.3665C373.573 62.5701 373.634 62.8308 373.634 63.1485C373.634 63.4906 373.552 63.7675 373.389 63.9793C373.226 64.1911 372.998 64.3662 372.705 64.5047V64.5169C373.072 64.5902 373.361 64.7613 373.573 65.0301C373.793 65.2989 373.902 65.6451 373.902 66.0686C373.902 66.3374 373.854 66.5859 373.756 66.8139C373.666 67.042 373.536 67.2375 373.365 67.4004C373.194 67.5633 372.99 67.6936 372.754 67.7914C372.518 67.881 372.261 67.9258 371.984 67.9258H368.551V61.609ZM371.789 67.0461C372.131 67.0461 372.387 66.9483 372.558 66.7528C372.738 66.5492 372.827 66.2967 372.827 65.9953C372.827 65.7102 372.734 65.4821 372.546 65.3111C372.359 65.14 372.045 65.0545 371.605 65.0545H369.577V67.0461H371.789ZM371.361 64.1992C371.809 64.1992 372.119 64.1178 372.29 63.9549C372.469 63.792 372.558 63.5761 372.558 63.3073C372.558 63.0466 372.473 62.8471 372.302 62.7086C372.131 62.562 371.817 62.4887 371.361 62.4887H369.577V64.1992H371.361ZM374.844 61.609H375.882V64.0282H378.13C378.749 64.0282 379.246 64.1992 379.621 64.5413C379.996 64.8753 380.183 65.3477 380.183 65.9587C380.183 66.5533 380.004 67.0298 379.645 67.3882C379.287 67.7466 378.798 67.9258 378.179 67.9258H374.844V61.609ZM377.801 67.0094C378.672 67.0094 379.108 66.6592 379.108 65.9587C379.108 65.2663 378.672 64.9201 377.801 64.9201H375.882V67.0094H377.801ZM386.233 68.0602C385.785 68.0602 385.386 67.9869 385.036 67.8403C384.686 67.6855 384.384 67.4778 384.132 67.2171C383.879 66.9483 383.68 66.6347 383.533 66.2763C383.395 65.9098 383.313 65.5107 383.289 65.0789H381.981V67.9258H380.943V61.609H381.981V64.187H383.325C383.374 63.796 383.472 63.4336 383.619 63.0996C383.773 62.7656 383.973 62.4805 384.217 62.2443C384.462 62 384.751 61.8085 385.085 61.6701C385.427 61.5316 385.81 61.4624 386.233 61.4624C386.706 61.4624 387.121 61.5479 387.48 61.7189C387.846 61.89 388.156 62.1262 388.408 62.4276C388.661 62.7208 388.852 63.0711 388.982 63.4784C389.113 63.8775 389.178 64.3092 389.178 64.7735C389.178 65.2378 389.113 65.6695 388.982 66.0686C388.852 66.4677 388.661 66.818 388.408 67.1194C388.156 67.4126 387.846 67.6448 387.48 67.8158C387.121 67.9787 386.706 68.0602 386.233 68.0602ZM386.233 67.156C386.486 67.156 386.726 67.1031 386.954 66.9972C387.182 66.8913 387.378 66.7406 387.541 66.5451C387.704 66.3415 387.834 66.0931 387.932 65.7998C388.029 65.4984 388.078 65.1563 388.078 64.7735C388.078 64.3907 388.029 64.0526 387.932 63.7594C387.834 63.458 387.704 63.2055 387.541 63.0018C387.378 62.7982 387.182 62.6434 386.954 62.5376C386.726 62.4317 386.486 62.3787 386.233 62.3787C385.973 62.3787 385.728 62.4317 385.5 62.5376C385.28 62.6434 385.089 62.7982 384.926 63.0018C384.763 63.2055 384.633 63.458 384.535 63.7594C384.437 64.0526 384.388 64.3907 384.388 64.7735C384.388 65.5392 384.559 66.1297 384.902 66.5451C385.244 66.9524 385.688 67.156 386.233 67.156Z" fill="#104A99"/>
<rect x="295.179" y="13.2379" width="134.4" height="99.3747" rx="3.46182" stroke="#ADBFFD" stroke-width="1.22182"/>
<rect x="295.179" y="119.535" width="133.993" height="99.3747" rx="3.46182" fill="white"/>
<path d="M313.129 165.499H314.29V169.25H318.884V165.499H320.044V174.223H318.884V170.227H314.29V174.223H313.129V165.499ZM321.409 167.906H322.447V173.062L325.429 167.906H326.76V174.223H325.722V169.067L322.741 174.223H321.409V167.906ZM327.963 167.906H329.001V173.306H331.359V167.906H332.398V173.306H334.756V167.906H335.795V174.223H327.963V167.906ZM339.675 174.357C339.17 174.357 338.726 174.276 338.343 174.113C337.968 173.95 337.654 173.722 337.402 173.428C337.149 173.135 336.958 172.785 336.828 172.378C336.706 171.97 336.644 171.527 336.644 171.046C336.644 170.573 336.718 170.138 336.864 169.739C337.011 169.331 337.215 168.981 337.475 168.688C337.744 168.395 338.058 168.167 338.416 168.004C338.783 167.841 339.182 167.759 339.613 167.759C340.175 167.759 340.64 167.877 341.006 168.114C341.381 168.342 341.678 168.635 341.898 168.993C342.126 169.352 342.281 169.743 342.363 170.166C342.452 170.59 342.489 170.993 342.473 171.376H337.744C337.736 171.653 337.769 171.917 337.842 172.17C337.915 172.414 338.033 172.634 338.196 172.83C338.359 173.017 338.567 173.168 338.819 173.282C339.072 173.396 339.369 173.453 339.711 173.453C340.151 173.453 340.509 173.351 340.786 173.147C341.071 172.944 341.259 172.634 341.348 172.219H342.375C342.236 172.936 341.931 173.473 341.458 173.832C340.986 174.182 340.391 174.357 339.675 174.357ZM341.373 170.459C341.357 170.215 341.3 169.983 341.202 169.763C341.112 169.543 340.986 169.356 340.823 169.201C340.668 169.038 340.481 168.912 340.261 168.822C340.049 168.724 339.813 168.676 339.552 168.676C339.284 168.676 339.039 168.724 338.819 168.822C338.607 168.912 338.424 169.038 338.269 169.201C338.115 169.364 337.993 169.555 337.903 169.775C337.813 169.987 337.76 170.215 337.744 170.459H341.373ZM343.182 167.906H346.103C346.38 167.906 346.644 167.926 346.897 167.967C347.157 168.008 347.39 168.085 347.593 168.199C347.797 168.305 347.96 168.46 348.082 168.663C348.204 168.867 348.265 169.128 348.265 169.445C348.265 169.787 348.184 170.064 348.021 170.276C347.858 170.488 347.63 170.663 347.337 170.802V170.814C347.703 170.887 347.992 171.058 348.204 171.327C348.424 171.596 348.534 171.942 348.534 172.365C348.534 172.634 348.485 172.883 348.387 173.111C348.298 173.339 348.168 173.534 347.996 173.697C347.825 173.86 347.622 173.991 347.386 174.088C347.149 174.178 346.893 174.223 346.616 174.223H343.182V167.906ZM346.42 173.343C346.762 173.343 347.019 173.245 347.19 173.05C347.369 172.846 347.459 172.594 347.459 172.292C347.459 172.007 347.365 171.779 347.178 171.608C346.991 171.437 346.677 171.351 346.237 171.351H344.209V173.343H346.42ZM345.993 170.496C346.441 170.496 346.75 170.415 346.921 170.252C347.1 170.089 347.19 169.873 347.19 169.604C347.19 169.344 347.105 169.144 346.933 169.005C346.762 168.859 346.449 168.786 345.993 168.786H344.209V170.496H345.993ZM349.414 167.906H350.453V170.325H352.408C353.027 170.325 353.524 170.496 353.898 170.838C354.273 171.172 354.46 171.645 354.46 172.256C354.46 172.85 354.281 173.327 353.923 173.685C353.564 174.043 353.076 174.223 352.457 174.223H349.414V167.906ZM352.078 173.306C352.949 173.306 353.385 172.956 353.385 172.256C353.385 171.563 352.949 171.217 352.078 171.217H350.453V173.306H352.078ZM355.462 167.906H356.501V174.223H355.462V167.906ZM360.386 174.357C359.881 174.357 359.437 174.276 359.055 174.113C358.68 173.95 358.366 173.722 358.114 173.428C357.861 173.135 357.67 172.785 357.539 172.378C357.417 171.97 357.356 171.527 357.356 171.046C357.356 170.573 357.429 170.138 357.576 169.739C357.723 169.331 357.926 168.981 358.187 168.688C358.456 168.395 358.769 168.167 359.128 168.004C359.494 167.841 359.893 167.759 360.325 167.759C360.887 167.759 361.352 167.877 361.718 168.114C362.093 168.342 362.39 168.635 362.61 168.993C362.838 169.352 362.993 169.743 363.074 170.166C363.164 170.59 363.201 170.993 363.184 171.376H358.456C358.448 171.653 358.48 171.917 358.554 172.17C358.627 172.414 358.745 172.634 358.908 172.83C359.071 173.017 359.279 173.168 359.531 173.282C359.784 173.396 360.081 173.453 360.423 173.453C360.863 173.453 361.221 173.351 361.498 173.147C361.783 172.944 361.971 172.634 362.06 172.219H363.087C362.948 172.936 362.643 173.473 362.17 173.832C361.698 174.182 361.103 174.357 360.386 174.357ZM362.085 170.459C362.068 170.215 362.011 169.983 361.914 169.763C361.824 169.543 361.698 169.356 361.535 169.201C361.38 169.038 361.193 168.912 360.973 168.822C360.761 168.724 360.525 168.676 360.264 168.676C359.995 168.676 359.751 168.724 359.531 168.822C359.319 168.912 359.136 169.038 358.981 169.201C358.826 169.364 358.704 169.555 358.615 169.775C358.525 169.987 358.472 170.215 358.456 170.459H362.085ZM370.52 173.746C370.447 173.819 370.358 173.893 370.252 173.966C370.146 174.039 370.032 174.105 369.91 174.162C369.795 174.219 369.673 174.263 369.543 174.296C369.421 174.337 369.299 174.357 369.176 174.357C368.704 174.357 368.305 174.263 367.979 174.076C367.661 173.889 367.401 173.64 367.197 173.331C367.002 173.013 366.859 172.651 366.769 172.243C366.68 171.836 366.635 171.412 366.635 170.973C366.635 169.963 366.855 169.177 367.295 168.615C367.735 168.044 368.333 167.759 369.091 167.759C369.221 167.759 369.356 167.78 369.494 167.82C369.641 167.861 369.775 167.914 369.897 167.979C370.028 168.044 370.146 168.118 370.252 168.199C370.366 168.281 370.455 168.362 370.52 168.443V165.499H371.547V168.443C371.612 168.362 371.697 168.281 371.803 168.199C371.909 168.118 372.027 168.044 372.158 167.979C372.288 167.914 372.422 167.861 372.561 167.82C372.699 167.78 372.838 167.759 372.976 167.759C373.734 167.759 374.332 168.044 374.772 168.615C375.212 169.177 375.432 169.963 375.432 170.973C375.432 171.412 375.387 171.836 375.298 172.243C375.208 172.651 375.062 173.013 374.858 173.331C374.662 173.64 374.402 173.889 374.076 174.076C373.758 174.263 373.363 174.357 372.891 174.357C372.655 174.357 372.402 174.296 372.133 174.174C371.873 174.043 371.677 173.901 371.547 173.746V176.63H370.52V173.746ZM369.299 173.502C369.616 173.502 369.889 173.424 370.117 173.27C370.345 173.107 370.48 172.911 370.52 172.683V169.506C370.472 169.335 370.398 169.197 370.3 169.091C370.203 168.977 370.093 168.887 369.971 168.822C369.857 168.749 369.734 168.7 369.604 168.676C369.474 168.643 369.352 168.627 369.238 168.627C368.969 168.627 368.737 168.688 368.541 168.81C368.354 168.924 368.195 169.087 368.065 169.299C367.942 169.502 367.853 169.751 367.796 170.044C367.739 170.337 367.71 170.655 367.71 170.997C367.71 171.29 367.735 171.588 367.784 171.889C367.832 172.182 367.914 172.451 368.028 172.695C368.15 172.932 368.313 173.127 368.517 173.282C368.72 173.428 368.981 173.502 369.299 173.502ZM372.769 173.502C373.086 173.502 373.347 173.428 373.551 173.282C373.754 173.127 373.913 172.932 374.027 172.695C374.149 172.451 374.235 172.182 374.284 171.889C374.332 171.588 374.357 171.29 374.357 170.997C374.357 170.655 374.328 170.337 374.271 170.044C374.214 169.751 374.121 169.502 373.99 169.299C373.868 169.087 373.709 168.924 373.514 168.81C373.327 168.688 373.098 168.627 372.83 168.627C372.716 168.627 372.593 168.643 372.463 168.676C372.333 168.7 372.207 168.749 372.084 168.822C371.97 168.887 371.864 168.977 371.767 169.091C371.669 169.197 371.596 169.335 371.547 169.506V172.683C371.587 172.911 371.722 173.107 371.95 173.27C372.178 173.424 372.451 173.502 372.769 173.502ZM379.059 174.357C378.554 174.357 378.11 174.276 377.727 174.113C377.352 173.942 377.034 173.709 376.774 173.416C376.513 173.115 376.318 172.765 376.187 172.365C376.057 171.966 375.992 171.535 375.992 171.07C375.992 170.606 376.057 170.174 376.187 169.775C376.318 169.368 376.513 169.018 376.774 168.724C377.034 168.423 377.352 168.187 377.727 168.016C378.11 167.845 378.554 167.759 379.059 167.759C379.555 167.759 379.995 167.845 380.378 168.016C380.761 168.187 381.083 168.423 381.343 168.724C381.604 169.018 381.799 169.368 381.93 169.775C382.06 170.174 382.125 170.606 382.125 171.07C382.125 171.535 382.06 171.966 381.93 172.365C381.799 172.765 381.604 173.115 381.343 173.416C381.083 173.709 380.761 173.942 380.378 174.113C379.995 174.276 379.555 174.357 379.059 174.357ZM379.059 173.453C379.327 173.453 379.58 173.4 379.816 173.294C380.06 173.188 380.272 173.037 380.451 172.842C380.631 172.638 380.769 172.39 380.867 172.097C380.973 171.795 381.026 171.453 381.026 171.07C381.026 170.688 380.973 170.349 380.867 170.056C380.769 169.755 380.631 169.502 380.451 169.299C380.272 169.095 380.06 168.94 379.816 168.834C379.58 168.729 379.327 168.676 379.059 168.676C378.79 168.676 378.533 168.729 378.289 168.834C378.053 168.94 377.845 169.095 377.666 169.299C377.486 169.502 377.344 169.755 377.238 170.056C377.14 170.349 377.091 170.688 377.091 171.07C377.091 171.453 377.14 171.795 377.238 172.097C377.344 172.39 377.486 172.638 377.666 172.842C377.845 173.037 378.053 173.188 378.289 173.294C378.533 173.4 378.79 173.453 379.059 173.453ZM383.02 167.906H384.058V168.761H384.083C384.254 168.411 384.523 168.158 384.889 168.004C385.256 167.841 385.659 167.759 386.099 167.759C386.588 167.759 387.011 167.849 387.37 168.028C387.736 168.207 388.038 168.452 388.274 168.761C388.518 169.063 388.701 169.413 388.824 169.812C388.946 170.211 389.007 170.635 389.007 171.083C389.007 171.539 388.946 171.966 388.824 172.365C388.71 172.756 388.53 173.103 388.286 173.404C388.05 173.697 387.748 173.929 387.382 174.1C387.023 174.272 386.604 174.357 386.123 174.357C385.96 174.357 385.785 174.341 385.598 174.308C385.411 174.276 385.223 174.223 385.036 174.149C384.849 174.076 384.669 173.978 384.498 173.856C384.335 173.726 384.197 173.567 384.083 173.38H384.058V176.63H383.02V167.906ZM386.013 173.453C386.364 173.453 386.661 173.384 386.905 173.245C387.15 173.107 387.345 172.923 387.492 172.695C387.638 172.467 387.744 172.207 387.809 171.913C387.875 171.62 387.907 171.319 387.907 171.009C387.907 170.716 387.866 170.431 387.785 170.154C387.712 169.869 387.594 169.616 387.431 169.396C387.276 169.177 387.072 169.001 386.82 168.871C386.575 168.741 386.286 168.676 385.952 168.676C385.602 168.676 385.305 168.745 385.06 168.883C384.816 169.022 384.616 169.205 384.462 169.433C384.307 169.653 384.193 169.906 384.12 170.191C384.054 170.476 384.022 170.765 384.022 171.058C384.022 171.368 384.058 171.669 384.132 171.962C384.205 172.247 384.319 172.5 384.474 172.72C384.637 172.94 384.845 173.119 385.097 173.257C385.35 173.388 385.655 173.453 386.013 173.453ZM390.507 176.74C390.385 176.74 390.263 176.731 390.14 176.715C390.018 176.699 389.9 176.67 389.786 176.63V175.677C389.884 175.709 389.982 175.742 390.079 175.774C390.185 175.807 390.291 175.823 390.397 175.823C390.609 175.823 390.78 175.774 390.91 175.677C391.04 175.579 391.154 175.436 391.252 175.249L391.68 174.186L389.175 167.906H390.348L392.193 173.074H392.217L393.989 167.906H395.089L392.34 175.053C392.217 175.363 392.095 175.624 391.973 175.835C391.859 176.047 391.729 176.218 391.582 176.349C391.444 176.487 391.285 176.585 391.106 176.642C390.935 176.707 390.735 176.74 390.507 176.74ZM395.602 167.906H397.093L399.011 173.025H399.035L400.953 167.906H402.444V174.223H401.406V169.213L399.499 174.223H398.546L396.64 169.213V174.223H395.602V167.906ZM403.647 167.906H404.686V170.325H406.641C407.26 170.325 407.757 170.496 408.131 170.838C408.506 171.172 408.693 171.645 408.693 172.256C408.693 172.85 408.514 173.327 408.156 173.685C407.797 174.043 407.309 174.223 406.69 174.223H403.647V167.906ZM406.311 173.306C407.182 173.306 407.618 172.956 407.618 172.256C407.618 171.563 407.182 171.217 406.311 171.217H404.686V173.306H406.311ZM409.695 167.906H410.734V174.223H409.695V167.906Z" fill="#104A99"/>
<rect x="295.179" y="119.535" width="133.993" height="99.3747" rx="3.46182" stroke="#ADBFFD" stroke-width="1.22182"/>
</svg>
