<svg width="237" height="280" viewBox="0 0 237 280" fill="none" xmlns="http://www.w3.org/2000/svg">
<rect x="0.90854" y="1.08823" width="234.858" height="277.105" rx="3.37828" fill="white" stroke="#ADBFFD" stroke-width="1.81708"/>
<mask id="mask0_1910_3106" style="mask-type:alpha" maskUnits="userSpaceOnUse" x="0" y="0" width="237" height="280">
<path d="M3.98758e-07 4.46654C1.78531e-07 2.099 1.91927 0.179707 4.28682 0.179707L232.388 0.179703C234.755 0.179703 236.675 2.09898 236.675 4.46652L236.675 274.815C236.675 277.182 234.755 279.102 232.388 279.102L4.28683 279.101C1.9193 279.101 2.57664e-05 277.181 2.55462e-05 274.814L3.98758e-07 4.46654Z" fill="#D9D9D9"/>
</mask>
<g mask="url(#mask0_1910_3106)">
<path d="M-99.4844 -105.688L885.483 836.168" stroke="#ADBFFD" stroke-width="0.857364"/>
<path d="M-536.947 194.58L448.02 1136.44" stroke="#ADBFFD" stroke-width="0.857364"/>
<path d="M193.605 -482.332L1178.57 459.523" stroke="#ADBFFD" stroke-width="0.857364"/>
<path d="M-243.855 -182.066L741.112 759.789" stroke="#ADBFFD" stroke-width="0.857364"/>
<path d="M47.0605 -294.01L1032.03 647.845" stroke="#ADBFFD" stroke-width="0.857364"/>
<path d="M-390.4 6.25781L594.567 948.113" stroke="#ADBFFD" stroke-width="0.857364"/>
<path d="M-62.8477 -152.77L922.12 789.086" stroke="#ADBFFD" stroke-width="0.857364"/>
<path d="M-500.311 147.498L484.657 1089.35" stroke="#ADBFFD" stroke-width="0.857364"/>
<path d="M83.6973 -341.092L1068.66 600.763" stroke="#ADBFFD" stroke-width="0.857364"/>
<path d="M-353.764 -40.8242L631.204 901.031" stroke="#ADBFFD" stroke-width="0.857364"/>
<path d="M-26.2109 -199.848L958.757 742.007" stroke="#ADBFFD" stroke-width="0.857364"/>
<path d="M-463.674 100.418L521.294 1042.27" stroke="#ADBFFD" stroke-width="0.857364"/>
<path d="M120.334 -388.172L1105.3 553.683" stroke="#ADBFFD" stroke-width="0.857364"/>
<path d="M-317.129 -87.9043L667.839 853.951" stroke="#ADBFFD" stroke-width="0.857364"/>
<path d="M10.4258 -246.93L995.393 694.925" stroke="#ADBFFD" stroke-width="0.857364"/>
<path d="M-427.037 53.3379L557.931 995.193" stroke="#ADBFFD" stroke-width="0.857364"/>
<path d="M156.971 -435.252L1141.94 506.603" stroke="#ADBFFD" stroke-width="0.857364"/>
<path d="M-280.492 -134.986L704.476 806.869" stroke="#ADBFFD" stroke-width="0.857364"/>
<path d="M-90.3262 -117.457L894.642 824.398" stroke="#ADBFFD" stroke-width="0.857364"/>
<path d="M-527.789 182.809L457.179 1124.66" stroke="#ADBFFD" stroke-width="0.857364"/>
<path d="M202.766 -494.104L1187.73 447.752" stroke="#ADBFFD" stroke-width="0.857364"/>
<path d="M-234.695 -193.836L750.272 748.019" stroke="#ADBFFD" stroke-width="0.857364"/>
<path d="M56.2207 -305.781L1041.19 636.074" stroke="#ADBFFD" stroke-width="0.857364"/>
<path d="M-381.242 -5.51367L603.726 936.341" stroke="#ADBFFD" stroke-width="0.857364"/>
<path d="M-53.6895 -164.539L931.278 777.316" stroke="#ADBFFD" stroke-width="0.857364"/>
<path d="M-491.152 135.729L493.815 1077.58" stroke="#ADBFFD" stroke-width="0.857364"/>
<path d="M92.8574 -352.861L1077.83 588.994" stroke="#ADBFFD" stroke-width="0.857364"/>
<path d="M-344.605 -52.5938L640.362 889.261" stroke="#ADBFFD" stroke-width="0.857364"/>
<path d="M-17.0527 -211.619L967.915 730.236" stroke="#ADBFFD" stroke-width="0.857364"/>
<path d="M-454.516 88.6484L530.452 1030.5" stroke="#ADBFFD" stroke-width="0.857364"/>
<path d="M129.492 -399.941L1114.46 541.914" stroke="#ADBFFD" stroke-width="0.857364"/>
<path d="M-307.969 -99.6738L676.999 842.181" stroke="#ADBFFD" stroke-width="0.857364"/>
<path d="M19.584 -258.699L1004.55 683.156" stroke="#ADBFFD" stroke-width="0.857364"/>
<path d="M-417.879 41.5684L567.089 983.423" stroke="#ADBFFD" stroke-width="0.857364"/>
<path d="M166.129 -447.021L1151.1 494.834" stroke="#ADBFFD" stroke-width="0.857364"/>
<path d="M-271.332 -146.754L713.636 795.101" stroke="#ADBFFD" stroke-width="0.857364"/>
<path d="M-81.166 -129.229L903.802 812.627" stroke="#ADBFFD" stroke-width="0.857364"/>
<path d="M-518.629 171.039L466.339 1112.89" stroke="#ADBFFD" stroke-width="0.857364"/>
<path d="M211.924 -505.873L1196.89 435.982" stroke="#ADBFFD" stroke-width="0.857364"/>
<path d="M-225.537 -205.605L759.431 736.25" stroke="#ADBFFD" stroke-width="0.857364"/>
<path d="M65.3789 -317.551L1050.35 624.304" stroke="#ADBFFD" stroke-width="0.857364"/>
<path d="M-372.082 -17.2832L612.886 924.572" stroke="#ADBFFD" stroke-width="0.857364"/>
<path d="M-44.5293 -176.309L940.438 765.546" stroke="#ADBFFD" stroke-width="0.857364"/>
<path d="M-481.992 123.959L502.976 1065.81" stroke="#ADBFFD" stroke-width="0.857364"/>
<path d="M102.016 -364.631L1086.98 577.224" stroke="#ADBFFD" stroke-width="0.857364"/>
<path d="M-335.447 -64.3633L649.52 877.492" stroke="#ADBFFD" stroke-width="0.857364"/>
<path d="M-7.89453 -223.391L977.073 718.464" stroke="#ADBFFD" stroke-width="0.857364"/>
<path d="M-445.357 76.877L539.61 1018.73" stroke="#ADBFFD" stroke-width="0.857364"/>
<path d="M138.652 -411.713L1123.62 530.142" stroke="#ADBFFD" stroke-width="0.857364"/>
<path d="M-298.811 -111.445L686.157 830.41" stroke="#ADBFFD" stroke-width="0.857364"/>
<path d="M28.7422 -270.471L1013.71 671.384" stroke="#ADBFFD" stroke-width="0.857364"/>
<path d="M-408.721 29.7969L576.247 971.652" stroke="#ADBFFD" stroke-width="0.857364"/>
<path d="M175.287 -458.793L1160.25 483.062" stroke="#ADBFFD" stroke-width="0.857364"/>
<path d="M-262.174 -158.525L722.794 783.33" stroke="#ADBFFD" stroke-width="0.857364"/>
<path d="M-72.0078 -140.998L912.96 800.857" stroke="#ADBFFD" stroke-width="0.857364"/>
<path d="M-509.469 159.27L475.499 1101.12" stroke="#ADBFFD" stroke-width="0.857364"/>
<path d="M74.5391 -329.32L1059.51 612.535" stroke="#ADBFFD" stroke-width="0.857364"/>
<path d="M-362.924 -29.0527L622.044 912.802" stroke="#ADBFFD" stroke-width="0.857364"/>
<path d="M-35.3711 -188.08L949.597 753.775" stroke="#ADBFFD" stroke-width="0.857364"/>
<path d="M-472.834 112.188L512.134 1054.04" stroke="#ADBFFD" stroke-width="0.857364"/>
<path d="M111.174 -376.402L1096.14 565.453" stroke="#ADBFFD" stroke-width="0.857364"/>
<path d="M-326.287 -76.1348L658.681 865.72" stroke="#ADBFFD" stroke-width="0.857364"/>
<path d="M1.26562 -235.158L986.233 706.697" stroke="#ADBFFD" stroke-width="0.857364"/>
<path d="M-436.197 65.1074L548.77 1006.96" stroke="#ADBFFD" stroke-width="0.857364"/>
<path d="M147.811 -423.482L1132.78 518.373" stroke="#ADBFFD" stroke-width="0.857364"/>
<path d="M-289.65 -123.215L695.317 818.64" stroke="#ADBFFD" stroke-width="0.857364"/>
<path d="M37.9004 -282.24L1022.87 659.615" stroke="#ADBFFD" stroke-width="0.857364"/>
<path d="M-399.561 18.0273L585.407 959.882" stroke="#ADBFFD" stroke-width="0.857364"/>
<path d="M184.447 -470.562L1169.41 471.293" stroke="#ADBFFD" stroke-width="0.857364"/>
<path d="M-253.014 -170.297L731.954 771.558" stroke="#ADBFFD" stroke-width="0.857364"/>
</g>
<path d="M110.385 135.551L110.385 165.078" stroke="#ADBFFD" stroke-width="0.857364"/>
<path d="M110.341 174.618L108.113 164.33L112.568 164.33L110.341 174.618Z" fill="#ADBFFD"/>
<path d="M138.568 104.932C148.453 120.496 143.849 141.126 128.285 151.011C112.721 160.896 92.0905 156.292 82.2055 140.728C72.3206 125.164 76.9243 104.534 92.4883 94.6489C108.052 84.7639 128.683 89.3677 138.568 104.932Z" fill="white" stroke="#ADBFFD" stroke-width="1.36281"/>
<path d="M98.9388 117.296H101.256L105.009 124.169V117.296H107.187V128.107H104.916L101.132 121.219V128.107H98.9388V117.296ZM108.654 124.262H113.303V125.775H108.654V124.262ZM110.893 123.783C110.121 123.783 109.503 123.561 109.04 123.119C108.587 122.666 108.36 122.053 108.36 121.281C108.36 120.91 108.422 120.57 108.546 120.261C108.669 119.952 108.839 119.69 109.055 119.474C109.282 119.257 109.55 119.093 109.859 118.979C110.178 118.856 110.528 118.794 110.909 118.794C111.681 118.794 112.289 119.021 112.731 119.474C113.184 119.927 113.411 120.529 113.411 121.281C113.411 122.053 113.184 122.666 112.731 123.119C112.278 123.561 111.666 123.783 110.893 123.783ZM110.893 122.64C111.192 122.64 111.434 122.532 111.619 122.315C111.805 122.089 111.897 121.744 111.897 121.281C111.897 120.817 111.799 120.478 111.604 120.261C111.418 120.045 111.177 119.937 110.878 119.937C110.579 119.937 110.337 120.05 110.152 120.277C109.977 120.503 109.889 120.838 109.889 121.281C109.889 121.744 109.977 122.089 110.152 122.315C110.337 122.532 110.584 122.64 110.893 122.64ZM119.935 128.107H117.742V121.095H115.023V119.443C115.404 119.453 115.77 119.427 116.12 119.365C116.48 119.293 116.8 119.175 117.078 119.01C117.366 118.835 117.608 118.609 117.804 118.331C117.999 118.053 118.128 117.708 118.19 117.296H119.935V128.107Z" fill="#104A99"/>
<path d="M110.385 49.6934L110.385 79.2209" stroke="#ADBFFD" stroke-width="0.857364"/>
<path d="M110.341 88.761L108.113 78.4727L112.568 78.4727L110.341 88.761Z" fill="#ADBFFD"/>
<rect x="27.4822" y="12.6697" width="165.354" height="54.5124" fill="white"/>
<path d="M71.0305 39.9966C71.2197 40.0118 71.4128 40.0648 71.6097 40.1556C71.8065 40.2465 71.9806 40.3714 72.1321 40.5304C72.2911 40.6894 72.4198 40.8825 72.5182 41.1096C72.6166 41.3292 72.6658 41.5752 72.6658 41.8478C72.6658 42.2945 72.5863 42.6806 72.4273 43.0062C72.2759 43.3242 72.0526 43.5892 71.7573 43.8012C71.4696 44.0132 71.1175 44.1721 70.7011 44.2781C70.2847 44.3766 69.8191 44.4258 69.3042 44.4258H66.4537L66.4991 44.1532C66.8171 44.1532 67.048 44.0851 67.1919 43.9488C67.3357 43.8049 67.4266 43.6232 67.4644 43.4037L68.4866 37.2597C68.4941 37.2218 68.5017 37.1688 68.5093 37.1007C68.5168 37.0325 68.5206 36.9758 68.5206 36.9303C68.5206 36.7562 68.4638 36.6161 68.3503 36.5101C68.2367 36.4041 68.0399 36.3511 67.7597 36.3511L67.8051 36.0786H70.5648C71.322 36.0786 71.9125 36.2224 72.3365 36.5101C72.7605 36.7978 72.9725 37.2483 72.9725 37.8616C72.9725 38.1796 72.9119 38.4673 72.7908 38.7247C72.6772 38.9745 72.5258 39.1903 72.3365 39.372C72.1472 39.5462 71.939 39.6862 71.7119 39.7922C71.4847 39.8907 71.2614 39.9512 71.0418 39.9739L71.0305 39.9966ZM69.0657 39.8717H69.8153C70.0727 39.8717 70.3226 39.8377 70.5648 39.7695C70.8071 39.7014 71.0191 39.5916 71.2008 39.4402C71.3901 39.2812 71.5377 39.0768 71.6437 38.8269C71.7573 38.5771 71.8141 38.2704 71.8141 37.907C71.8141 37.43 71.6664 37.078 71.3712 36.8508C71.0759 36.6161 70.7011 36.4988 70.2468 36.4988H69.6336L69.0657 39.8717ZM68.3957 44.0056H69.1566C69.467 44.0056 69.7623 43.9715 70.0424 43.9034C70.3301 43.8277 70.58 43.7065 70.792 43.54C71.004 43.3734 71.1705 43.1538 71.2917 42.8813C71.4204 42.6087 71.4847 42.2718 71.4847 41.8705C71.4847 41.3557 71.322 40.9658 70.9964 40.7008C70.6784 40.4282 70.2658 40.2919 69.7585 40.2919H68.9976L68.3957 44.0056ZM79.3933 38.7474H80.3018L79.575 43.1652C79.5674 43.203 79.5599 43.2523 79.5523 43.3128C79.5447 43.3734 79.5409 43.4226 79.5409 43.4605C79.5409 43.6876 79.6394 43.8012 79.8362 43.8012C79.9876 43.8012 80.1201 43.7519 80.2337 43.6535C80.3473 43.5475 80.4873 43.3961 80.6539 43.1993L80.5517 43.7217C80.4003 43.9564 80.2413 44.1419 80.0747 44.2781C79.9157 44.4144 79.7037 44.4826 79.4387 44.4826C79.1132 44.4826 78.8936 44.3993 78.78 44.2327C78.6665 44.0586 78.6097 43.8504 78.6097 43.6081C78.6097 43.5248 78.6135 43.4453 78.621 43.3696C78.6286 43.2939 78.64 43.2144 78.6551 43.1311L79.3933 38.7474ZM74.9074 41.5639C74.8695 41.8213 74.8392 42.0333 74.8165 42.1999C74.8014 42.3589 74.7862 42.4913 74.7711 42.5973C74.7635 42.6958 74.756 42.7715 74.7484 42.8245C74.7484 42.8775 74.7484 42.9267 74.7484 42.9721C74.7484 43.3582 74.8089 43.6573 74.9301 43.8693C75.0588 44.0737 75.267 44.1759 75.5547 44.1759C75.7364 44.1759 75.9068 44.1267 76.0658 44.0283C76.2323 43.9299 76.3762 43.7936 76.4973 43.6195C76.626 43.4377 76.7245 43.2258 76.7926 42.9835C76.8683 42.7336 76.9062 42.4611 76.9062 42.1658C76.9062 41.8251 76.8342 41.5563 76.6904 41.3595C76.5465 41.1626 76.327 41.0642 76.0317 41.0642C75.8803 41.0642 75.6986 41.102 75.4866 41.1777C75.2821 41.2459 75.0891 41.3746 74.9074 41.5639ZM74.226 40.0194C74.2335 39.9815 74.2373 39.9474 74.2373 39.9172C74.2449 39.8793 74.2487 39.849 74.2487 39.8263C74.2487 39.69 74.1995 39.5916 74.101 39.531C74.0026 39.4629 73.8323 39.4288 73.59 39.4288L73.6354 39.1449L75.1459 38.6338H75.373L74.9642 41.1664C75.1913 40.9923 75.4109 40.8598 75.6229 40.7689C75.8348 40.6781 76.0998 40.6326 76.4178 40.6326C76.9024 40.6326 77.2734 40.7727 77.5308 41.0528C77.7882 41.3254 77.9169 41.7002 77.9169 42.1771C77.9169 42.5027 77.8526 42.8093 77.7238 43.097C77.5951 43.3772 77.421 43.627 77.2014 43.8466C76.9894 44.0586 76.7396 44.2289 76.4519 44.3576C76.1718 44.4788 75.8727 44.5393 75.5547 44.5393C75.2216 44.5393 74.9452 44.4939 74.7257 44.4031C74.5061 44.3122 74.3282 44.1911 74.1919 44.0397C74.0632 43.8807 73.9723 43.6952 73.9193 43.4832C73.8663 43.2712 73.8398 43.044 73.8398 42.8018C73.8398 42.6352 73.8474 42.4686 73.8626 42.3021C73.8853 42.1279 73.9118 41.9538 73.9421 41.7797L74.226 40.0194ZM83.958 38.9745C84.2457 38.9745 84.5107 39.02 84.753 39.1108C84.9952 39.1941 85.2035 39.3228 85.3776 39.497C85.5517 39.6711 85.6842 39.8869 85.7751 40.1443C85.8735 40.4017 85.9227 40.7008 85.9227 41.0415C85.9227 41.5109 85.8546 41.9576 85.7183 42.3816C85.582 42.8056 85.3927 43.1765 85.1505 43.4945C84.9158 43.8125 84.6394 44.0662 84.3214 44.2554C84.0034 44.4447 83.6627 44.5393 83.2993 44.5393C82.6709 44.5393 82.1788 44.3274 81.8229 43.9034C81.4671 43.4794 81.2892 42.9078 81.2892 42.1885C81.2892 41.8099 81.327 41.3784 81.4027 40.8938C81.4784 40.4017 81.592 39.9172 81.7434 39.4402C81.9024 38.9632 82.0993 38.5203 82.334 38.1114C82.5687 37.7026 82.8488 37.3846 83.1744 37.1575C83.4697 36.953 83.7914 36.8168 84.1397 36.7486C84.488 36.6805 84.8476 36.6313 85.2186 36.601C85.4003 36.5858 85.5593 36.5593 85.6956 36.5215C85.8394 36.4761 85.9719 36.3776 86.0931 36.2262L86.2748 35.9082L86.5473 35.9196L86.0136 37.589C85.3397 37.6269 84.7719 37.6685 84.3101 37.7139C83.8558 37.7594 83.4772 37.8654 83.1744 38.0319C82.8715 38.1909 82.633 38.437 82.4589 38.7701C82.2923 39.0957 82.1636 39.5651 82.0728 40.1784C82.2848 39.7468 82.5535 39.4402 82.8791 39.2585C83.2122 39.0692 83.5719 38.9745 83.958 38.9745ZM82.2545 42.6201C82.2545 42.7715 82.2658 42.938 82.2886 43.1198C82.3113 43.2939 82.3567 43.4605 82.4248 43.6195C82.5005 43.7709 82.6028 43.8996 82.7315 44.0056C82.8602 44.1116 83.0343 44.1646 83.2539 44.1646C83.4583 44.1646 83.64 44.1078 83.799 43.9942C83.958 43.8731 84.0981 43.7217 84.2192 43.54C84.3479 43.3507 84.4539 43.1387 84.5372 42.904C84.628 42.6617 84.7 42.4194 84.753 42.1771C84.806 41.9273 84.8438 41.6888 84.8665 41.4617C84.8968 41.227 84.912 41.0225 84.912 40.8484C84.912 40.5683 84.8817 40.3336 84.8211 40.1443C84.7681 39.9474 84.6924 39.7922 84.594 39.6787C84.4956 39.5575 84.382 39.4742 84.2533 39.4288C84.1246 39.3758 83.9883 39.3493 83.8444 39.3493C83.534 39.3493 83.2766 39.4705 83.0722 39.7127C82.8677 39.955 82.705 40.2503 82.5838 40.5986C82.4703 40.9393 82.387 41.2989 82.334 41.6774C82.281 42.0484 82.2545 42.3626 82.2545 42.6201ZM90.3946 44.4258L90.0085 43.4377C89.9403 43.574 89.8533 43.7103 89.7473 43.8466C89.6413 43.9753 89.5201 44.0926 89.3839 44.1986C89.2552 44.2971 89.1075 44.3766 88.941 44.4371C88.782 44.5053 88.6116 44.5393 88.4299 44.5393C87.8166 44.5393 87.3661 44.3425 87.0784 43.9488C86.7907 43.5551 86.6469 43.0175 86.6469 42.3361C86.6469 41.8819 86.7075 41.4352 86.8286 40.996C86.9573 40.5493 87.1352 40.1519 87.3624 39.8036C87.5895 39.4553 87.8583 39.1752 88.1687 38.9632C88.4791 38.7436 88.8236 38.6338 89.2022 38.6338C89.4066 38.6338 89.5845 38.6641 89.7359 38.7247C89.8949 38.7853 90.0274 38.8648 90.1334 38.9632C90.2394 39.054 90.3227 39.16 90.3833 39.2812C90.4438 39.4023 90.4893 39.5197 90.5195 39.6332L91.3486 38.7474H91.5984L90.6445 44.4258H90.3946ZM89.3612 39.2017C89.1264 39.2017 88.9069 39.2925 88.7025 39.4742C88.498 39.6559 88.3201 39.902 88.1687 40.2124C88.0248 40.5228 87.9113 40.8825 87.828 41.2913C87.7447 41.6926 87.7031 42.1166 87.7031 42.5633C87.7031 43.0024 87.7863 43.3507 87.9529 43.6081C88.1271 43.8655 88.3807 43.9942 88.7138 43.9942C88.8804 43.9942 89.0356 43.9488 89.1794 43.8579C89.3309 43.7595 89.4671 43.6346 89.5883 43.4832C89.7094 43.3242 89.8078 43.1463 89.8836 42.9494C89.9668 42.7526 90.0274 42.5481 90.0653 42.3361L90.3038 40.9279C90.3189 40.8522 90.3265 40.7689 90.3265 40.6781C90.334 40.5796 90.3378 40.4963 90.3378 40.4282C90.3378 40.0421 90.2545 39.743 90.088 39.531C89.9214 39.3115 89.6791 39.2017 89.3612 39.2017ZM98.985 40.5986C99.0077 40.4623 99.0191 40.3184 99.0191 40.167C99.0191 39.9399 98.9623 39.7392 98.8487 39.5651C98.7352 39.3834 98.5345 39.2925 98.2468 39.2925C98.0727 39.2925 97.9061 39.3417 97.7471 39.4402C97.5881 39.531 97.4443 39.6522 97.3156 39.8036C97.1869 39.9474 97.0771 40.114 96.9862 40.3033C96.903 40.485 96.8462 40.6667 96.8159 40.8484L96.214 44.4258H95.3054L95.9528 40.5758C95.9603 40.5077 95.9641 40.4396 95.9641 40.3714C95.9717 40.2957 95.9755 40.2276 95.9755 40.167C95.9755 40.0534 95.9641 39.9436 95.9414 39.8377C95.9187 39.7317 95.8771 39.6408 95.8165 39.5651C95.7635 39.4818 95.6878 39.4175 95.5894 39.372C95.4909 39.319 95.3622 39.2925 95.2032 39.2925C95.0367 39.2925 94.8739 39.3417 94.7149 39.4402C94.5635 39.531 94.4234 39.6522 94.2947 39.8036C94.166 39.955 94.0562 40.1254 93.9653 40.3146C93.8821 40.4963 93.8253 40.6781 93.795 40.8598L93.1931 44.4258H92.2845L93.2271 38.7474H93.477L93.9767 39.7922C94.0448 39.6635 94.1281 39.531 94.2265 39.3947C94.3325 39.2585 94.4575 39.1335 94.6013 39.02C94.7452 38.9064 94.9042 38.8155 95.0783 38.7474C95.26 38.6717 95.4531 38.6338 95.6575 38.6338C95.8922 38.6338 96.0853 38.6679 96.2367 38.736C96.3957 38.7966 96.5244 38.8837 96.6228 38.9973C96.7212 39.1108 96.7932 39.2433 96.8386 39.3947C96.884 39.5462 96.9143 39.7089 96.9295 39.8831C96.9976 39.7317 97.0884 39.584 97.202 39.4402C97.3156 39.2887 97.4443 39.1525 97.5881 39.0313C97.7396 38.9102 97.9061 38.8155 98.0878 38.7474C98.2695 38.6717 98.4626 38.6338 98.667 38.6338C98.9093 38.6338 99.1099 38.6717 99.2689 38.7474C99.4355 38.8155 99.568 38.914 99.6664 39.0427C99.7724 39.1638 99.8444 39.3077 99.8822 39.4742C99.9276 39.6408 99.9503 39.8149 99.9503 39.9966C99.9503 40.1556 99.939 40.3146 99.9163 40.4736L99.4734 43.1652C99.4658 43.203 99.4582 43.2523 99.4507 43.3128C99.4431 43.3734 99.4393 43.4226 99.4393 43.4605C99.4393 43.574 99.4658 43.6611 99.5188 43.7217C99.5794 43.7747 99.6551 43.8012 99.7459 43.8012C99.8973 43.8012 100.03 43.7519 100.143 43.6535C100.257 43.5475 100.393 43.3961 100.552 43.1993L100.461 43.7217C100.31 43.9564 100.151 44.1419 99.9844 44.2781C99.8179 44.4144 99.6021 44.4826 99.3371 44.4826C99.0191 44.4826 98.8033 44.3993 98.6897 44.2327C98.5762 44.0586 98.5194 43.8504 98.5194 43.6081C98.5194 43.5248 98.5232 43.4453 98.5308 43.3696C98.5383 43.2939 98.5497 43.2144 98.5648 43.1311L98.985 40.5986ZM102.469 41.5639C102.431 41.8213 102.401 42.0333 102.378 42.1999C102.363 42.3589 102.348 42.4913 102.333 42.5973C102.325 42.6958 102.317 42.7715 102.31 42.8245C102.31 42.8775 102.31 42.9267 102.31 42.9721C102.31 43.3582 102.37 43.6573 102.492 43.8693C102.62 44.0737 102.828 44.1759 103.116 44.1759C103.298 44.1759 103.468 44.1267 103.627 44.0283C103.794 43.9299 103.938 43.7936 104.059 43.6195C104.187 43.4377 104.286 43.2258 104.354 42.9835C104.43 42.7336 104.468 42.4611 104.468 42.1658C104.468 41.8251 104.396 41.5563 104.252 41.3595C104.108 41.1626 103.888 41.0642 103.593 41.0642C103.442 41.0642 103.26 41.102 103.048 41.1777C102.844 41.2459 102.651 41.3746 102.469 41.5639ZM101.787 40.0194C101.795 39.9815 101.799 39.9474 101.799 39.9172C101.806 39.8793 101.81 39.849 101.81 39.8263C101.81 39.69 101.761 39.5916 101.662 39.531C101.564 39.4629 101.394 39.4288 101.151 39.4288L101.197 39.1449L102.707 38.6338H102.934L102.526 41.1664C102.753 40.9923 102.972 40.8598 103.184 40.7689C103.396 40.6781 103.661 40.6326 103.979 40.6326C104.464 40.6326 104.835 40.7727 105.092 41.0528C105.35 41.3254 105.478 41.7002 105.478 42.1771C105.478 42.5027 105.414 42.8093 105.285 43.097C105.157 43.3772 104.982 43.627 104.763 43.8466C104.551 44.0586 104.301 44.2289 104.013 44.3576C103.733 44.4788 103.434 44.5393 103.116 44.5393C102.783 44.5393 102.507 44.4939 102.287 44.4031C102.068 44.3122 101.89 44.1911 101.753 44.0397C101.625 43.8807 101.534 43.6952 101.481 43.4832C101.428 43.2712 101.401 43.044 101.401 42.8018C101.401 42.6352 101.409 42.4686 101.424 42.3021C101.447 42.1279 101.473 41.9538 101.503 41.7797L101.787 40.0194ZM109.638 36.8054C109.683 36.6994 109.751 36.5972 109.842 36.4988C109.941 36.4003 110.05 36.3171 110.171 36.2489C110.293 36.1732 110.421 36.1126 110.558 36.0672C110.701 36.0218 110.845 35.9991 110.989 35.9991C111.655 35.9991 112.166 36.283 112.522 36.8508C112.878 37.4111 113.056 38.2893 113.056 39.4856C113.056 39.743 113.041 40.0459 113.011 40.3941C112.988 40.7424 112.939 41.1058 112.863 41.4844C112.787 41.8554 112.685 42.2226 112.556 42.586C112.428 42.9494 112.257 43.2787 112.045 43.574C111.841 43.8617 111.591 44.0964 111.296 44.2781C111 44.4523 110.652 44.5393 110.251 44.5393C109.933 44.5393 109.649 44.4864 109.399 44.3804C109.157 44.2668 108.952 44.1078 108.786 43.9034C108.619 43.6989 108.491 43.4529 108.4 43.1652C108.316 42.8775 108.275 42.5595 108.275 42.2112C108.275 41.6812 108.343 41.2005 108.479 40.7689C108.623 40.3298 108.812 39.9588 109.047 39.6559C109.289 39.3455 109.566 39.107 109.876 38.9405C110.194 38.7739 110.531 38.6906 110.887 38.6906C111.175 38.6906 111.417 38.7512 111.614 38.8723C111.818 38.9859 111.996 39.1449 112.147 39.3493C112.147 38.9708 112.121 38.6187 112.068 38.2931C112.015 37.96 111.932 37.6723 111.818 37.43C111.705 37.1877 111.561 36.9985 111.387 36.8622C111.212 36.7259 111.004 36.6578 110.762 36.6578C110.52 36.6578 110.293 36.7183 110.081 36.8395C109.869 36.953 109.698 37.0855 109.57 37.237L109.638 36.8054ZM110.262 44.1759C110.565 44.1759 110.823 44.051 111.035 43.8012C111.247 43.5437 111.417 43.2371 111.546 42.8813C111.674 42.5178 111.765 42.1431 111.818 41.7569C111.879 41.3632 111.909 41.0263 111.909 40.7462C111.909 40.1481 111.818 39.7203 111.636 39.4629C111.455 39.1979 111.212 39.0654 110.91 39.0654C110.592 39.0654 110.327 39.1941 110.115 39.4515C109.91 39.7014 109.744 40.008 109.615 40.3714C109.486 40.7273 109.395 41.102 109.342 41.4957C109.289 41.8894 109.263 42.2264 109.263 42.5065C109.263 43.1122 109.354 43.5437 109.535 43.8012C109.725 44.051 109.967 44.1759 110.262 44.1759ZM117.573 43.2787C117.421 43.6649 117.194 43.9715 116.891 44.1986C116.596 44.4258 116.233 44.5393 115.801 44.5393C115.491 44.5393 115.207 44.4826 114.949 44.369C114.7 44.2554 114.484 44.0964 114.302 43.892C114.128 43.6876 113.992 43.4453 113.893 43.1652C113.795 42.8775 113.746 42.5633 113.746 42.2226C113.746 41.7986 113.802 41.3746 113.916 40.9506C114.03 40.5191 114.204 40.1329 114.438 39.7922C114.673 39.4515 114.968 39.1752 115.324 38.9632C115.68 38.7436 116.1 38.6338 116.585 38.6338C117.016 38.6338 117.353 38.736 117.596 38.9405C117.845 39.1449 117.97 39.425 117.97 39.7809C117.97 40.1746 117.857 40.5039 117.63 40.7689C117.402 41.0263 117.126 41.2383 116.801 41.4049C116.475 41.5639 116.131 41.685 115.767 41.7683C115.404 41.8516 115.082 41.9084 114.802 41.9387C114.794 41.9917 114.79 42.0446 114.79 42.0976C114.79 42.1431 114.79 42.1885 114.79 42.2339C114.79 42.7185 114.9 43.1008 115.12 43.381C115.347 43.6535 115.672 43.7898 116.096 43.7898C116.392 43.7898 116.664 43.7103 116.914 43.5513C117.172 43.3847 117.418 43.1349 117.652 42.8018L117.573 43.2787ZM116.437 38.9973C116.187 38.9973 115.964 39.0881 115.767 39.2698C115.578 39.4515 115.415 39.6749 115.279 39.9399C115.142 40.1973 115.036 40.4736 114.961 40.7689C114.885 41.0566 114.836 41.314 114.813 41.5412C115.04 41.5185 115.279 41.4655 115.529 41.3822C115.786 41.2913 116.021 41.174 116.233 41.0301C116.452 40.8787 116.63 40.6932 116.767 40.4736C116.91 40.2465 116.982 39.9853 116.982 39.69C116.982 39.4932 116.933 39.3304 116.835 39.2017C116.744 39.0654 116.611 38.9973 116.437 38.9973ZM121.641 37.6912C121.807 37.6912 121.951 37.6572 122.072 37.589C122.201 37.5133 122.307 37.4187 122.39 37.3051C122.474 37.1915 122.534 37.0666 122.572 36.9303C122.61 36.794 122.629 36.6578 122.629 36.5215C122.629 36.4533 122.625 36.4003 122.617 36.3625H123.026C123.132 36.3928 123.216 36.4571 123.276 36.5556C123.344 36.6464 123.378 36.7486 123.378 36.8622C123.378 37.0439 123.329 37.2105 123.231 37.3619C123.132 37.5057 123 37.6307 122.833 37.7367C122.674 37.8426 122.485 37.9259 122.265 37.9865C122.046 38.0395 121.815 38.066 121.573 38.066C121.126 38.066 120.774 37.9827 120.516 37.8162C120.259 37.642 120.13 37.4111 120.13 37.1234C120.13 36.9644 120.176 36.8092 120.267 36.6578C120.365 36.5063 120.501 36.4079 120.675 36.3625H121.107C121.054 36.4685 121.012 36.5707 120.982 36.6691C120.959 36.76 120.948 36.8584 120.948 36.9644C120.948 37.1612 120.997 37.3316 121.096 37.4754C121.202 37.6193 121.383 37.6912 121.641 37.6912ZM119.324 40.0194C119.332 39.9815 119.335 39.9474 119.335 39.9172C119.343 39.8793 119.347 39.849 119.347 39.8263C119.347 39.69 119.297 39.5916 119.199 39.531C119.101 39.4629 118.93 39.4288 118.688 39.4288L118.733 39.1449L120.221 38.6338H120.46L119.824 42.4951C119.809 42.5633 119.797 42.639 119.79 42.7223C119.79 42.8056 119.79 42.8737 119.79 42.9267C119.79 43.0478 119.801 43.1652 119.824 43.2787C119.846 43.3923 119.888 43.4945 119.949 43.5854C120.017 43.6762 120.104 43.7482 120.21 43.8012C120.316 43.8542 120.452 43.8807 120.619 43.8807C120.778 43.8807 120.937 43.8352 121.096 43.7444C121.255 43.646 121.398 43.5248 121.527 43.381C121.656 43.2295 121.766 43.0592 121.857 42.8699C121.955 42.6806 122.023 42.4876 122.061 42.2907L122.663 38.7474H123.571L122.845 43.1652C122.837 43.203 122.829 43.2523 122.822 43.3128C122.814 43.3734 122.811 43.4226 122.811 43.4605C122.811 43.6876 122.909 43.8012 123.106 43.8012C123.257 43.8012 123.39 43.7519 123.503 43.6535C123.617 43.5475 123.757 43.3961 123.923 43.1993L123.821 43.7217C123.67 43.9564 123.511 44.1419 123.344 44.2781C123.185 44.4144 122.973 44.4826 122.708 44.4826C122.383 44.4826 122.163 44.3993 122.05 44.2327C121.936 44.0586 121.879 43.8504 121.879 43.6081C121.879 43.5627 121.879 43.521 121.879 43.4832C121.879 43.4453 121.883 43.4037 121.891 43.3582C121.822 43.487 121.735 43.6232 121.629 43.7671C121.523 43.9034 121.395 44.0283 121.243 44.1419C121.099 44.2554 120.937 44.3501 120.755 44.4258C120.573 44.5015 120.376 44.5393 120.164 44.5393C119.922 44.5393 119.714 44.5015 119.54 44.4258C119.373 44.3501 119.237 44.2516 119.131 44.1305C119.033 44.0018 118.961 43.8542 118.915 43.6876C118.87 43.5135 118.847 43.3317 118.847 43.1425C118.847 43.0668 118.851 42.9759 118.858 42.8699C118.866 42.7639 118.877 42.6731 118.892 42.5973L119.324 40.0194ZM128.077 41.0301C128.084 40.9544 128.088 40.8749 128.088 40.7916C128.096 40.7008 128.099 40.6099 128.099 40.5191C128.099 40.3373 128.084 40.1594 128.054 39.9853C128.031 39.8036 127.986 39.6408 127.918 39.497C127.85 39.3455 127.759 39.2244 127.645 39.1335C127.532 39.0427 127.388 38.9973 127.214 38.9973C127.047 38.9973 126.865 39.0578 126.669 39.179C126.479 39.2925 126.301 39.4742 126.135 39.7241C125.976 39.9664 125.843 40.2806 125.737 40.6667C125.631 41.0528 125.578 41.5109 125.578 42.0409C125.578 42.5481 125.677 42.9608 125.874 43.2787C126.07 43.5892 126.385 43.7444 126.816 43.7444C127.134 43.7444 127.395 43.6649 127.6 43.5059C127.812 43.3469 128.031 43.1084 128.258 42.7904L128.19 43.256C128.062 43.6195 127.857 43.9261 127.577 44.1759C127.305 44.4182 126.952 44.5393 126.521 44.5393C126.173 44.5393 125.87 44.4788 125.612 44.3576C125.363 44.2365 125.154 44.0737 124.988 43.8693C124.821 43.6573 124.696 43.4112 124.613 43.1311C124.537 42.8434 124.499 42.533 124.499 42.1999C124.499 41.632 124.579 41.1285 124.738 40.6894C124.897 40.2427 125.101 39.8679 125.351 39.5651C125.601 39.2622 125.881 39.0313 126.192 38.8723C126.502 38.7133 126.812 38.6338 127.123 38.6338C127.358 38.6338 127.558 38.6603 127.725 38.7133C127.899 38.7588 128.046 38.8231 128.168 38.9064C128.296 38.9897 128.402 39.0843 128.486 39.1903C128.576 39.2963 128.652 39.4023 128.713 39.5083L128.463 41.0301H128.077ZM135.961 40.5986C135.983 40.4623 135.995 40.3184 135.995 40.167C135.995 39.9399 135.938 39.7392 135.824 39.5651C135.711 39.3834 135.51 39.2925 135.222 39.2925C135.048 39.2925 134.882 39.3417 134.723 39.4402C134.564 39.531 134.42 39.6522 134.291 39.8036C134.162 39.9474 134.053 40.114 133.962 40.3033C133.879 40.485 133.822 40.6667 133.791 40.8484L133.19 44.4258H132.281L132.928 40.5758C132.936 40.5077 132.94 40.4396 132.94 40.3714C132.947 40.2957 132.951 40.2276 132.951 40.167C132.951 40.0534 132.94 39.9436 132.917 39.8377C132.894 39.7317 132.853 39.6408 132.792 39.5651C132.739 39.4818 132.663 39.4175 132.565 39.372C132.466 39.319 132.338 39.2925 132.179 39.2925C132.012 39.2925 131.849 39.3417 131.69 39.4402C131.539 39.531 131.399 39.6522 131.27 39.8036C131.142 39.955 131.032 40.1254 130.941 40.3146C130.858 40.4963 130.801 40.6781 130.771 40.8598L130.169 44.4258H129.26L130.203 38.7474H130.453L130.952 39.7922C131.02 39.6635 131.104 39.531 131.202 39.3947C131.308 39.2585 131.433 39.1335 131.577 39.02C131.721 38.9064 131.88 38.8155 132.054 38.7474C132.236 38.6717 132.429 38.6338 132.633 38.6338C132.868 38.6338 133.061 38.6679 133.212 38.736C133.371 38.7966 133.5 38.8837 133.598 38.9973C133.697 39.1108 133.769 39.2433 133.814 39.3947C133.86 39.5462 133.89 39.7089 133.905 39.8831C133.973 39.7317 134.064 39.584 134.178 39.4402C134.291 39.2887 134.42 39.1525 134.564 39.0313C134.715 38.9102 134.882 38.8155 135.063 38.7474C135.245 38.6717 135.438 38.6338 135.643 38.6338C135.885 38.6338 136.085 38.6717 136.244 38.7474C136.411 38.8155 136.544 38.914 136.642 39.0427C136.748 39.1638 136.82 39.3077 136.858 39.4742C136.903 39.6408 136.926 39.8149 136.926 39.9966C136.926 40.1556 136.915 40.3146 136.892 40.4736L136.449 43.1652C136.441 43.203 136.434 43.2523 136.426 43.3128C136.419 43.3734 136.415 43.4226 136.415 43.4605C136.415 43.574 136.441 43.6611 136.494 43.7217C136.555 43.7747 136.631 43.8012 136.721 43.8012C136.873 43.8012 137.005 43.7519 137.119 43.6535C137.233 43.5475 137.369 43.3961 137.528 43.1993L137.437 43.7217C137.286 43.9564 137.127 44.1419 136.96 44.2781C136.793 44.4144 136.578 44.4826 136.313 44.4826C135.995 44.4826 135.779 44.3993 135.665 44.2327C135.552 44.0586 135.495 43.8504 135.495 43.6081C135.495 43.5248 135.499 43.4453 135.506 43.3696C135.514 43.2939 135.525 43.2144 135.54 43.1311L135.961 40.5986ZM141.33 41.3595C141.443 41.3822 141.557 41.42 141.67 41.473C141.791 41.526 141.897 41.6017 141.988 41.7002C142.087 41.791 142.166 41.9046 142.227 42.0409C142.295 42.1696 142.329 42.321 142.329 42.4951C142.329 42.8585 142.257 43.169 142.113 43.4264C141.969 43.6838 141.784 43.8958 141.557 44.0624C141.33 44.2289 141.08 44.3501 140.807 44.4258C140.535 44.5015 140.27 44.5393 140.012 44.5393C139.724 44.5393 139.456 44.4977 139.206 44.4144C138.964 44.3311 138.752 44.2024 138.57 44.0283C138.396 43.8542 138.256 43.6384 138.15 43.381C138.051 43.1235 138.002 42.8169 138.002 42.4611C138.002 41.8251 138.089 41.2686 138.263 40.7916C138.437 40.3146 138.665 39.9172 138.945 39.5992C139.232 39.2812 139.554 39.0427 139.91 38.8837C140.273 38.7171 140.641 38.6338 141.012 38.6338C141.489 38.6338 141.852 38.736 142.102 38.9405C142.359 39.1373 142.488 39.4175 142.488 39.7809C142.488 40.0004 142.446 40.1973 142.363 40.3714C142.287 40.538 142.189 40.6894 142.068 40.8257C141.954 40.9544 141.829 41.0642 141.693 41.155C141.564 41.2383 141.443 41.3065 141.33 41.3595ZM140.909 39.02C140.713 39.02 140.523 39.0805 140.342 39.2017C140.16 39.3228 139.993 39.4894 139.842 39.7014C139.698 39.9134 139.569 40.1632 139.456 40.4509C139.35 40.7386 139.27 41.0453 139.217 41.3708C139.459 41.3481 139.717 41.314 139.989 41.2686C140.262 41.2156 140.516 41.1323 140.75 41.0188C140.985 40.9052 141.178 40.7462 141.33 40.5418C141.481 40.3373 141.557 40.061 141.557 39.7127C141.557 39.5159 141.5 39.3531 141.386 39.2244C141.28 39.0881 141.121 39.02 140.909 39.02ZM140.148 44.1759C140.3 44.1759 140.448 44.1494 140.591 44.0964C140.735 44.0359 140.86 43.9488 140.966 43.8352C141.08 43.7141 141.167 43.5627 141.227 43.381C141.295 43.1993 141.33 42.9873 141.33 42.745C141.33 42.3967 141.258 42.1279 141.114 41.9387C140.97 41.7418 140.72 41.6434 140.364 41.6434C140.122 41.6434 139.887 41.6623 139.66 41.7002C139.441 41.7304 139.266 41.7645 139.138 41.8024C139.123 41.9159 139.107 42.056 139.092 42.2226C139.077 42.3816 139.07 42.5368 139.07 42.6882C139.07 43.1803 139.164 43.5513 139.353 43.8012C139.55 44.051 139.815 44.1759 140.148 44.1759ZM144.135 40.0194C144.143 39.9815 144.146 39.9474 144.146 39.9172C144.154 39.8793 144.158 39.849 144.158 39.8263C144.158 39.69 144.108 39.5916 144.01 39.531C143.912 39.4629 143.741 39.4288 143.499 39.4288L143.544 39.1449L145.032 38.6338H145.271L144.635 42.4951C144.62 42.5633 144.608 42.639 144.601 42.7223C144.601 42.8056 144.601 42.8737 144.601 42.9267C144.601 43.0478 144.612 43.1652 144.635 43.2787C144.657 43.3923 144.699 43.4945 144.76 43.5854C144.828 43.6762 144.915 43.7482 145.021 43.8012C145.127 43.8542 145.263 43.8807 145.43 43.8807C145.589 43.8807 145.748 43.8352 145.907 43.7444C146.066 43.646 146.209 43.5248 146.338 43.381C146.467 43.2295 146.577 43.0592 146.668 42.8699C146.766 42.6806 146.834 42.4876 146.872 42.2907L147.474 38.7474H148.382L147.656 43.1652C147.648 43.203 147.64 43.2523 147.633 43.3128C147.625 43.3734 147.621 43.4226 147.621 43.4605C147.621 43.6876 147.72 43.8012 147.917 43.8012C148.068 43.8012 148.201 43.7519 148.314 43.6535C148.428 43.5475 148.568 43.3961 148.734 43.1993L148.632 43.7217C148.481 43.9564 148.322 44.1419 148.155 44.2781C147.996 44.4144 147.784 44.4826 147.519 44.4826C147.194 44.4826 146.974 44.3993 146.861 44.2327C146.747 44.0586 146.69 43.8504 146.69 43.6081C146.69 43.5627 146.69 43.521 146.69 43.4832C146.69 43.4453 146.694 43.4037 146.702 43.3582C146.633 43.487 146.546 43.6232 146.44 43.7671C146.334 43.9034 146.206 44.0283 146.054 44.1419C145.91 44.2554 145.748 44.3501 145.566 44.4258C145.384 44.5015 145.187 44.5393 144.975 44.5393C144.733 44.5393 144.525 44.5015 144.351 44.4258C144.184 44.3501 144.048 44.2516 143.942 44.1305C143.843 44.0018 143.772 43.8542 143.726 43.6876C143.681 43.5135 143.658 43.3317 143.658 43.1425C143.658 43.0668 143.662 42.9759 143.669 42.8699C143.677 42.7639 143.688 42.6731 143.703 42.5973L144.135 40.0194ZM153.104 43.2787C152.952 43.6649 152.725 43.9715 152.422 44.1986C152.127 44.4258 151.763 44.5393 151.332 44.5393C151.021 44.5393 150.738 44.4826 150.48 44.369C150.23 44.2554 150.014 44.0964 149.833 43.892C149.659 43.6876 149.522 43.4453 149.424 43.1652C149.325 42.8775 149.276 42.5633 149.276 42.2226C149.276 41.7986 149.333 41.3746 149.447 40.9506C149.56 40.5191 149.734 40.1329 149.969 39.7922C150.204 39.4515 150.499 39.1752 150.855 38.9632C151.211 38.7436 151.631 38.6338 152.115 38.6338C152.547 38.6338 152.884 38.736 153.126 38.9405C153.376 39.1449 153.501 39.425 153.501 39.7809C153.501 40.1746 153.387 40.5039 153.16 40.7689C152.933 41.0263 152.657 41.2383 152.331 41.4049C152.006 41.5639 151.661 41.685 151.298 41.7683C150.934 41.8516 150.613 41.9084 150.332 41.9387C150.325 41.9917 150.321 42.0446 150.321 42.0976C150.321 42.1431 150.321 42.1885 150.321 42.2339C150.321 42.7185 150.431 43.1008 150.65 43.381C150.878 43.6535 151.203 43.7898 151.627 43.7898C151.922 43.7898 152.195 43.7103 152.445 43.5513C152.702 43.3847 152.948 43.1349 153.183 42.8018L153.104 43.2787ZM151.968 38.9973C151.718 38.9973 151.495 39.0881 151.298 39.2698C151.109 39.4515 150.946 39.6749 150.809 39.9399C150.673 40.1973 150.567 40.4736 150.491 40.7689C150.416 41.0566 150.367 41.314 150.344 41.5412C150.571 41.5185 150.809 41.4655 151.059 41.3822C151.317 41.2913 151.551 41.174 151.763 41.0301C151.983 40.8787 152.161 40.6932 152.297 40.4736C152.441 40.2465 152.513 39.9853 152.513 39.69C152.513 39.4932 152.464 39.3304 152.365 39.2017C152.274 39.0654 152.142 38.9973 151.968 38.9973Z" fill="#104A99"/>
<rect x="27.4822" y="12.6697" width="165.354" height="54.5124" stroke="#ADBFFD" stroke-width="1.36281"/>
<rect x="110.439" y="175.581" width="64.4786" height="64.24" transform="rotate(45 110.439 175.581)" fill="white"/>
<path d="M98.624 221.161C98.8133 221.176 99.0063 221.229 99.2032 221.32C99.4 221.411 99.5742 221.535 99.7256 221.694C99.8846 221.853 100.013 222.047 100.112 222.274C100.21 222.493 100.259 222.739 100.259 223.012C100.259 223.459 100.18 223.845 100.021 224.17C99.8695 224.488 99.6461 224.753 99.3508 224.965C99.0631 225.177 98.7111 225.336 98.2947 225.442C97.8782 225.541 97.4126 225.59 96.8978 225.59H94.0472L94.0927 225.317C94.4106 225.317 94.6416 225.249 94.7854 225.113C94.9293 224.969 95.0201 224.787 95.058 224.568L96.0801 218.424C96.0877 218.386 96.0952 218.333 96.1028 218.265C96.1104 218.197 96.1142 218.14 96.1142 218.094C96.1142 217.92 96.0574 217.78 95.9438 217.674C95.8302 217.568 95.6334 217.515 95.3533 217.515L95.3987 217.243H98.1584C98.9155 217.243 99.506 217.386 99.93 217.674C100.354 217.962 100.566 218.412 100.566 219.026C100.566 219.344 100.505 219.631 100.384 219.889C100.271 220.139 100.119 220.354 99.93 220.536C99.7407 220.71 99.5325 220.85 99.3054 220.956C99.0783 221.055 98.8549 221.115 98.6354 221.138L98.624 221.161ZM96.6593 221.036H97.4088C97.6662 221.036 97.9161 221.002 98.1584 220.934C98.4006 220.865 98.6126 220.756 98.7944 220.604C98.9836 220.445 99.1313 220.241 99.2373 219.991C99.3508 219.741 99.4076 219.434 99.4076 219.071C99.4076 218.594 99.26 218.242 98.9647 218.015C98.6694 217.78 98.2947 217.663 97.8404 217.663H97.2271L96.6593 221.036ZM95.9892 225.17H96.7501C97.0606 225.17 97.3558 225.136 97.636 225.067C97.9237 224.992 98.1735 224.871 98.3855 224.704C98.5975 224.537 98.7641 224.318 98.8852 224.045C99.0139 223.773 99.0783 223.436 99.0783 223.035C99.0783 222.52 98.9155 222.13 98.5899 221.865C98.2719 221.592 97.8593 221.456 97.352 221.456H96.5911L95.9892 225.17ZM104.952 224.443C104.801 224.829 104.574 225.136 104.271 225.363C103.976 225.59 103.612 225.703 103.181 225.703C102.87 225.703 102.586 225.647 102.329 225.533C102.079 225.419 101.863 225.26 101.682 225.056C101.507 224.852 101.371 224.609 101.273 224.329C101.174 224.042 101.125 223.727 101.125 223.387C101.125 222.963 101.182 222.539 101.295 222.115C101.409 221.683 101.583 221.297 101.818 220.956C102.053 220.616 102.348 220.339 102.704 220.127C103.06 219.908 103.48 219.798 103.964 219.798C104.396 219.798 104.733 219.9 104.975 220.105C105.225 220.309 105.35 220.589 105.35 220.945C105.35 221.339 105.236 221.668 105.009 221.933C104.782 222.19 104.506 222.402 104.18 222.569C103.855 222.728 103.51 222.849 103.147 222.932C102.783 223.016 102.461 223.072 102.181 223.103C102.174 223.156 102.17 223.209 102.17 223.262C102.17 223.307 102.17 223.353 102.17 223.398C102.17 223.883 102.28 224.265 102.499 224.545C102.726 224.818 103.052 224.954 103.476 224.954C103.771 224.954 104.044 224.874 104.294 224.715C104.551 224.549 104.797 224.299 105.032 223.966L104.952 224.443ZM103.817 220.161C103.567 220.161 103.343 220.252 103.147 220.434C102.957 220.616 102.795 220.839 102.658 221.104C102.522 221.361 102.416 221.638 102.34 221.933C102.265 222.221 102.215 222.478 102.193 222.705C102.42 222.683 102.658 222.63 102.908 222.546C103.166 222.455 103.4 222.338 103.612 222.194C103.832 222.043 104.01 221.857 104.146 221.638C104.29 221.411 104.362 221.149 104.362 220.854C104.362 220.657 104.313 220.494 104.214 220.366C104.123 220.229 103.991 220.161 103.817 220.161ZM104.852 228.054L104.898 227.782C105.178 227.782 105.379 227.725 105.5 227.611C105.628 227.498 105.712 227.339 105.75 227.134L106.726 221.172C106.734 221.134 106.738 221.1 106.738 221.07C106.745 221.032 106.749 221.002 106.749 220.979C106.749 220.843 106.7 220.744 106.601 220.684C106.503 220.616 106.333 220.582 106.09 220.582L106.136 220.309L107.646 219.798H107.873L107.726 220.718C107.854 220.476 108.044 220.264 108.293 220.082C108.551 219.893 108.85 219.798 109.191 219.798C109.509 219.798 109.777 219.855 109.997 219.968C110.224 220.082 110.41 220.241 110.553 220.445C110.705 220.65 110.815 220.892 110.883 221.172C110.951 221.445 110.985 221.74 110.985 222.058C110.985 222.527 110.921 222.982 110.792 223.421C110.671 223.86 110.497 224.25 110.27 224.59C110.05 224.931 109.785 225.207 109.475 225.419C109.164 225.624 108.823 225.726 108.452 225.726C108.225 225.726 108.028 225.696 107.862 225.635C107.703 225.582 107.567 225.507 107.453 225.408C107.347 225.31 107.264 225.196 107.203 225.067C107.143 224.939 107.097 224.802 107.067 224.659L106.692 226.953C106.685 226.998 106.677 227.055 106.669 227.123C106.662 227.191 106.658 227.248 106.658 227.293C106.658 227.445 106.704 227.562 106.794 227.645C106.893 227.736 107.063 227.782 107.305 227.782L107.26 228.054H104.852ZM107.283 223.443C107.268 223.519 107.256 223.595 107.249 223.671C107.241 223.739 107.237 223.811 107.237 223.886C107.237 224.25 107.313 224.549 107.464 224.784C107.623 225.018 107.873 225.136 108.214 225.136C108.449 225.136 108.668 225.049 108.873 224.874C109.085 224.7 109.27 224.462 109.429 224.159C109.588 223.856 109.713 223.508 109.804 223.114C109.895 222.713 109.94 222.285 109.94 221.831C109.94 221.376 109.857 221.017 109.69 220.752C109.531 220.487 109.27 220.354 108.907 220.354C108.733 220.354 108.566 220.404 108.407 220.502C108.256 220.593 108.119 220.718 107.998 220.877C107.877 221.028 107.775 221.202 107.692 221.399C107.608 221.596 107.552 221.797 107.521 222.001L107.283 223.443ZM112.507 221.183C112.515 221.146 112.519 221.111 112.519 221.081C112.526 221.043 112.53 221.013 112.53 220.99C112.53 220.854 112.481 220.756 112.382 220.695C112.284 220.627 112.114 220.593 111.871 220.593L111.917 220.309L113.416 219.798H113.654L113.211 222.467H115.392L115.823 219.911H116.732L115.994 224.329C115.986 224.367 115.979 224.416 115.971 224.477C115.971 224.537 115.971 224.587 115.971 224.625C115.971 224.852 116.07 224.965 116.266 224.965C116.418 224.965 116.55 224.916 116.664 224.818C116.777 224.712 116.917 224.56 117.084 224.363L116.982 224.886C116.83 225.12 116.671 225.306 116.505 225.442C116.346 225.578 116.134 225.647 115.869 225.647C115.543 225.647 115.324 225.563 115.21 225.397C115.097 225.223 115.04 225.014 115.04 224.772C115.04 224.689 115.044 224.609 115.051 224.534C115.059 224.458 115.07 224.378 115.085 224.295L115.324 222.864H113.143L112.689 225.59H111.78L112.507 221.183ZM120.272 219.798C120.605 219.798 120.901 219.858 121.158 219.98C121.416 220.101 121.628 220.267 121.794 220.479C121.968 220.691 122.097 220.941 122.18 221.229C122.271 221.517 122.316 221.823 122.316 222.149C122.316 222.641 122.252 223.103 122.123 223.534C121.995 223.966 121.813 224.344 121.578 224.67C121.344 224.988 121.063 225.242 120.738 225.431C120.412 225.613 120.053 225.703 119.659 225.703C119.349 225.703 119.065 225.647 118.807 225.533C118.557 225.419 118.345 225.26 118.171 225.056C117.997 224.852 117.861 224.609 117.762 224.329C117.672 224.042 117.626 223.724 117.626 223.375C117.626 222.83 117.691 222.338 117.819 221.899C117.955 221.46 118.141 221.085 118.376 220.775C118.61 220.464 118.887 220.226 119.205 220.059C119.53 219.885 119.886 219.798 120.272 219.798ZM119.648 225.34C119.958 225.34 120.219 225.215 120.431 224.965C120.643 224.708 120.814 224.397 120.942 224.034C121.071 223.671 121.162 223.292 121.215 222.898C121.275 222.497 121.306 222.156 121.306 221.876C121.306 221.263 121.215 220.828 121.033 220.57C120.851 220.305 120.605 220.173 120.295 220.173C120.083 220.173 119.894 220.233 119.727 220.354C119.568 220.468 119.424 220.623 119.296 220.82C119.174 221.017 119.072 221.24 118.989 221.49C118.906 221.732 118.838 221.982 118.785 222.24C118.732 222.497 118.694 222.751 118.671 223.001C118.648 223.243 118.637 223.459 118.637 223.648C118.637 224.261 118.728 224.696 118.909 224.954C119.099 225.211 119.345 225.34 119.648 225.34ZM123.746 225.067C123.746 224.848 123.814 224.662 123.951 224.511C124.094 224.36 124.257 224.284 124.439 224.284C124.613 224.284 124.757 224.348 124.87 224.477C124.984 224.598 125.041 224.749 125.041 224.931C125.041 225.143 124.965 225.325 124.814 225.476C124.67 225.62 124.511 225.692 124.337 225.692C124.163 225.692 124.019 225.631 123.905 225.51C123.799 225.389 123.746 225.242 123.746 225.067ZM125.472 217.129C126.04 217.129 126.483 217.28 126.801 217.583C127.127 217.886 127.289 218.287 127.289 218.787C127.289 219.128 127.225 219.427 127.096 219.684C126.975 219.934 126.816 220.165 126.619 220.377C126.43 220.589 126.226 220.79 126.006 220.979C125.787 221.168 125.578 221.365 125.381 221.57C125.192 221.766 125.033 221.982 124.905 222.217C124.783 222.452 124.723 222.72 124.723 223.023C124.723 223.061 124.723 223.106 124.723 223.159C124.723 223.212 124.727 223.262 124.734 223.307H124.416C124.386 223.163 124.371 223.019 124.371 222.876C124.371 222.565 124.416 222.285 124.507 222.035C124.605 221.785 124.727 221.558 124.87 221.354C125.014 221.142 125.169 220.945 125.336 220.763C125.503 220.582 125.658 220.4 125.802 220.218C125.946 220.029 126.063 219.836 126.154 219.639C126.252 219.442 126.301 219.222 126.301 218.98C126.301 218.723 126.203 218.496 126.006 218.299C125.817 218.094 125.544 217.992 125.188 217.992C124.78 217.992 124.435 218.102 124.155 218.322C123.882 218.541 123.659 218.806 123.485 219.116L123.564 218.537C123.633 218.348 123.723 218.166 123.837 217.992C123.958 217.818 124.098 217.67 124.257 217.549C124.424 217.421 124.605 217.318 124.802 217.243C125.007 217.167 125.23 217.129 125.472 217.129Z" fill="#104A99"/>
<rect x="110.439" y="175.581" width="64.4786" height="64.24" transform="rotate(45 110.439 175.581)" stroke="#ADBFFD" stroke-width="1.36281"/>
<path d="M155.586 220.951H209.871V39.6453H194.806M194.806 39.6453L202.339 32.4297M194.806 39.6453L202.339 46.8609" stroke="#ADBFFD" stroke-width="0.45427" stroke-dasharray="13.63 4.54"/>
</svg>
