<svg width="748" height="309" viewBox="0 0 748 309" fill="none" xmlns="http://www.w3.org/2000/svg">
<rect x="0.906667" y="0.906667" width="746.187" height="306.453" rx="3.37131" fill="white" stroke="#ADBFFD" stroke-width="1.81333"/>
<mask id="mask0_1887_1312" style="mask-type:alpha" maskUnits="userSpaceOnUse" x="0" y="0" width="748" height="309">
<path d="M1.10101e-06 4.278C4.92939e-07 1.91534 1.91532 2.16854e-05 4.27798 2.16798e-05L743.722 1.99289e-05C746.085 1.99233e-05 748 1.91534 748 4.278L748 303.989C748 306.351 746.085 308.267 743.722 308.267L4.27803 308.266C1.91537 308.266 7.88445e-05 306.35 7.82364e-05 303.988L1.10101e-06 4.278Z" fill="#D9D9D9"/>
</mask>
<g mask="url(#mask0_1887_1312)">
<path d="M45.334 -0.0195312L1028.27 939.893" stroke="#ADBFFD" stroke-width="0.855596"/>
<path d="M-391.227 299.629L591.71 1239.54" stroke="#ADBFFD" stroke-width="0.855596"/>
<path d="M-561.68 299.627L421.257 1239.54" stroke="#ADBFFD" stroke-width="0.855596"/>
<path d="M-646.908 299.623L336.028 1239.54" stroke="#ADBFFD" stroke-width="0.855596"/>
<path d="M337.822 -375.887L1320.76 564.026" stroke="#ADBFFD" stroke-width="0.855596"/>
<path d="M-98.7402 -76.2383L884.196 863.674" stroke="#ADBFFD" stroke-width="0.855596"/>
<path d="M191.574 -187.951L1174.51 751.962" stroke="#ADBFFD" stroke-width="0.855596"/>
<path d="M-244.982 111.695L737.954 1051.61" stroke="#ADBFFD" stroke-width="0.855596"/>
<path d="M81.8926 -47.0039L1064.83 892.909" stroke="#ADBFFD" stroke-width="0.855596"/>
<path d="M-354.666 252.645L628.27 1192.56" stroke="#ADBFFD" stroke-width="0.855596"/>
<path d="M-525.119 252.643L457.817 1192.56" stroke="#ADBFFD" stroke-width="0.855596"/>
<path d="M228.135 -234.936L1211.07 704.977" stroke="#ADBFFD" stroke-width="0.855596"/>
<path d="M-208.42 64.7129L774.517 1004.63" stroke="#ADBFFD" stroke-width="0.855596"/>
<path d="M118.455 -93.9844L1101.39 845.928" stroke="#ADBFFD" stroke-width="0.855596"/>
<path d="M-318.104 205.664L664.833 1145.58" stroke="#ADBFFD" stroke-width="0.855596"/>
<path d="M264.697 -281.92L1247.63 657.993" stroke="#ADBFFD" stroke-width="0.855596"/>
<path d="M-171.861 17.7285L811.075 957.641" stroke="#ADBFFD" stroke-width="0.855596"/>
<path d="M155.014 -140.967L1137.95 798.946" stroke="#ADBFFD" stroke-width="0.855596"/>
<path d="M-281.541 158.68L701.395 1098.59" stroke="#ADBFFD" stroke-width="0.855596"/>
<path d="M301.26 -328.904L1284.2 611.008" stroke="#ADBFFD" stroke-width="0.855596"/>
<path d="M-135.299 -29.2559L847.638 910.657" stroke="#ADBFFD" stroke-width="0.855596"/>
<path d="M54.4746 -11.7656L1037.41 928.147" stroke="#ADBFFD" stroke-width="0.855596"/>
<path d="M-382.088 287.881L600.849 1227.79" stroke="#ADBFFD" stroke-width="0.855596"/>
<path d="M-552.543 287.881L430.393 1227.79" stroke="#ADBFFD" stroke-width="0.855596"/>
<path d="M-637.768 287.879L345.169 1227.79" stroke="#ADBFFD" stroke-width="0.855596"/>
<path d="M346.959 -387.633L1329.9 552.28" stroke="#ADBFFD" stroke-width="0.855596"/>
<path d="M-89.5996 -87.9844L893.337 851.928" stroke="#ADBFFD" stroke-width="0.855596"/>
<path d="M200.717 -199.697L1183.65 740.215" stroke="#ADBFFD" stroke-width="0.855596"/>
<path d="M-235.842 99.9492L747.095 1039.86" stroke="#ADBFFD" stroke-width="0.855596"/>
<path d="M91.0332 -58.75L1073.97 881.163" stroke="#ADBFFD" stroke-width="0.855596"/>
<path d="M-345.527 240.9L637.409 1180.81" stroke="#ADBFFD" stroke-width="0.855596"/>
<path d="M-515.979 240.896L466.958 1180.81" stroke="#ADBFFD" stroke-width="0.855596"/>
<path d="M237.275 -246.682L1220.21 693.231" stroke="#ADBFFD" stroke-width="0.855596"/>
<path d="M-199.279 52.9648L783.657 992.878" stroke="#ADBFFD" stroke-width="0.855596"/>
<path d="M127.592 -105.73L1110.53 834.182" stroke="#ADBFFD" stroke-width="0.855596"/>
<path d="M-308.963 193.918L673.974 1133.83" stroke="#ADBFFD" stroke-width="0.855596"/>
<path d="M273.836 -293.666L1256.77 646.247" stroke="#ADBFFD" stroke-width="0.855596"/>
<path d="M-162.721 5.98242L820.216 945.895" stroke="#ADBFFD" stroke-width="0.855596"/>
<path d="M164.154 -152.715L1147.09 787.198" stroke="#ADBFFD" stroke-width="0.855596"/>
<path d="M-272.4 146.934L710.536 1086.85" stroke="#ADBFFD" stroke-width="0.855596"/>
<path d="M310.4 -340.65L1293.34 599.262" stroke="#ADBFFD" stroke-width="0.855596"/>
<path d="M-126.158 -41L856.778 898.913" stroke="#ADBFFD" stroke-width="0.855596"/>
<path d="M63.6152 -23.5098L1046.55 916.403" stroke="#ADBFFD" stroke-width="0.855596"/>
<path d="M-372.947 276.137L609.989 1216.05" stroke="#ADBFFD" stroke-width="0.855596"/>
<path d="M-543.4 276.133L439.536 1216.05" stroke="#ADBFFD" stroke-width="0.855596"/>
<path d="M-628.627 276.131L354.31 1216.04" stroke="#ADBFFD" stroke-width="0.855596"/>
<path d="M356.104 -399.379L1339.04 540.534" stroke="#ADBFFD" stroke-width="0.855596"/>
<path d="M-80.459 -99.7305L902.477 840.182" stroke="#ADBFFD" stroke-width="0.855596"/>
<path d="M209.857 -211.445L1192.79 728.467" stroke="#ADBFFD" stroke-width="0.855596"/>
<path d="M-226.701 88.2051L756.235 1028.12" stroke="#ADBFFD" stroke-width="0.855596"/>
<path d="M100.174 -70.4941L1083.11 869.419" stroke="#ADBFFD" stroke-width="0.855596"/>
<path d="M-336.385 229.152L646.552 1169.07" stroke="#ADBFFD" stroke-width="0.855596"/>
<path d="M-506.838 229.15L476.099 1169.06" stroke="#ADBFFD" stroke-width="0.855596"/>
<path d="M246.416 -258.428L1229.35 681.485" stroke="#ADBFFD" stroke-width="0.855596"/>
<path d="M-190.143 41.2207L792.794 981.133" stroke="#ADBFFD" stroke-width="0.855596"/>
<path d="M136.732 -117.479L1119.67 822.434" stroke="#ADBFFD" stroke-width="0.855596"/>
<path d="M-299.822 182.17L683.114 1122.08" stroke="#ADBFFD" stroke-width="0.855596"/>
<path d="M282.979 -305.41L1265.91 634.503" stroke="#ADBFFD" stroke-width="0.855596"/>
<path d="M-153.58 -5.76367L829.356 934.149" stroke="#ADBFFD" stroke-width="0.855596"/>
<path d="M173.293 -164.461L1156.23 775.452" stroke="#ADBFFD" stroke-width="0.855596"/>
<path d="M-263.264 135.188L719.673 1075.1" stroke="#ADBFFD" stroke-width="0.855596"/>
<path d="M319.541 -352.395L1302.48 587.518" stroke="#ADBFFD" stroke-width="0.855596"/>
<path d="M-117.018 -52.748L865.919 887.165" stroke="#ADBFFD" stroke-width="0.855596"/>
<path d="M72.752 -35.2578L1055.69 904.655" stroke="#ADBFFD" stroke-width="0.855596"/>
<path d="M-363.807 264.391L619.13 1204.3" stroke="#ADBFFD" stroke-width="0.855596"/>
<path d="M-534.26 264.389L448.677 1204.3" stroke="#ADBFFD" stroke-width="0.855596"/>
<path d="M-619.486 264.385L363.45 1204.3" stroke="#ADBFFD" stroke-width="0.855596"/>
<path d="M218.998 -223.189L1201.93 716.723" stroke="#ADBFFD" stroke-width="0.855596"/>
<path d="M-217.561 76.459L765.376 1016.37" stroke="#ADBFFD" stroke-width="0.855596"/>
<path d="M109.314 -82.2402L1092.25 857.672" stroke="#ADBFFD" stroke-width="0.855596"/>
<path d="M-327.246 217.406L655.69 1157.32" stroke="#ADBFFD" stroke-width="0.855596"/>
<path d="M-497.697 217.404L485.239 1157.32" stroke="#ADBFFD" stroke-width="0.855596"/>
<path d="M255.557 -270.174L1238.49 669.739" stroke="#ADBFFD" stroke-width="0.855596"/>
<path d="M-181.002 29.4746L801.935 969.387" stroke="#ADBFFD" stroke-width="0.855596"/>
<path d="M145.873 -129.223L1128.81 810.69" stroke="#ADBFFD" stroke-width="0.855596"/>
<path d="M-290.682 170.426L692.255 1110.34" stroke="#ADBFFD" stroke-width="0.855596"/>
<path d="M292.119 -317.156L1275.06 622.756" stroke="#ADBFFD" stroke-width="0.855596"/>
<path d="M-144.439 -17.5098L838.497 922.403" stroke="#ADBFFD" stroke-width="0.855596"/>
<path d="M182.434 -176.205L1165.37 763.708" stroke="#ADBFFD" stroke-width="0.855596"/>
<path d="M-254.123 123.441L728.813 1063.35" stroke="#ADBFFD" stroke-width="0.855596"/>
<path d="M328.682 -364.141L1311.62 575.772" stroke="#ADBFFD" stroke-width="0.855596"/>
<path d="M-107.881 -64.4941L875.056 875.419" stroke="#ADBFFD" stroke-width="0.855596"/>
</g>
<rect x="18.3597" y="18.8167" width="348.16" height="127.84" rx="3.85333" fill="white"/>
<path d="M35.9157 41.8091C35.0628 41.8091 34.3024 41.6653 33.6345 41.3775C32.9666 41.0795 32.4015 40.6737 31.9391 40.1599C31.4767 39.6461 31.1222 39.045 30.8755 38.3565C30.6289 37.6578 30.5056 36.9077 30.5056 36.1062C30.5056 35.2944 30.6289 34.534 30.8755 33.825C31.1222 33.116 31.4767 32.4995 31.9391 31.9754C32.4015 31.4514 32.9666 31.0403 33.6345 30.7423C34.3024 30.4443 35.0628 30.2954 35.9157 30.2954C36.5117 30.2954 37.082 30.3827 37.6266 30.5574C38.1712 30.7321 38.6541 30.989 39.0754 31.328C39.507 31.6569 39.8615 32.0679 40.139 32.5611C40.4164 33.0543 40.5911 33.6195 40.663 34.2566H38.3202C38.2791 33.9791 38.1866 33.7274 38.0427 33.5013C37.8989 33.265 37.7191 33.0595 37.5033 32.8848C37.2875 32.7101 37.0409 32.5765 36.7634 32.484C36.4963 32.3813 36.2137 32.3299 35.9157 32.3299C35.3711 32.3299 34.9087 32.4378 34.5285 32.6536C34.1483 32.8591 33.84 33.1417 33.6037 33.5013C33.3674 33.8507 33.1927 34.2514 33.0797 34.7036C32.9769 35.1557 32.9255 35.6232 32.9255 36.1062C32.9255 36.5686 32.9769 37.0207 33.0797 37.4626C33.1927 37.8941 33.3674 38.2846 33.6037 38.634C33.84 38.9833 34.1483 39.2659 34.5285 39.4817C34.9087 39.6872 35.3711 39.79 35.9157 39.79C36.6555 39.79 37.231 39.5639 37.642 39.1118C38.0633 38.6597 38.3202 38.0637 38.4127 37.3238H40.7555C40.6938 38.0226 40.5346 38.6494 40.2777 39.2043C40.0208 39.7489 39.6817 40.2164 39.2604 40.6069C38.8391 40.9973 38.3459 41.2953 37.7807 41.5008C37.2156 41.7064 36.5939 41.8091 35.9157 41.8091ZM41.7144 33.5938H43.8106V38.9885L46.8162 33.5938H49.2977V41.5625H47.2015V36.1678L44.1959 41.5625H41.7144V33.5938ZM50.833 41.6858C50.7406 41.6858 50.5967 41.6704 50.4015 41.6396C50.2062 41.6087 50.0521 41.5728 49.9391 41.5317V39.8824C50.0007 39.903 50.0727 39.9184 50.1549 39.9287C50.2371 39.9287 50.3193 39.9287 50.4015 39.9287C50.5864 39.9287 50.7508 39.8722 50.8947 39.7591C51.0488 39.6358 51.1721 39.4046 51.2646 39.0655C51.3674 38.7264 51.4444 38.2435 51.4958 37.6167C51.5575 36.9899 51.5883 36.1678 51.5883 35.1506V33.5938H58.0619V41.5625H55.8732V35.243H53.6229C53.5818 36.3733 53.515 37.3444 53.4225 38.1562C53.33 38.9679 53.181 39.6358 52.9755 40.1599C52.7803 40.6839 52.508 41.0693 52.1586 41.3159C51.8195 41.5625 51.3776 41.6858 50.833 41.6858ZM59.2585 33.5938H61.4472V36.3374H63.5588C63.9595 36.3374 64.3346 36.3939 64.684 36.5069C65.0436 36.6097 65.3519 36.7741 65.6088 37.0002C65.8759 37.2159 66.0866 37.4882 66.2407 37.8171C66.3949 38.1356 66.4719 38.5107 66.4719 38.9422C66.4719 39.3841 66.3949 39.7694 66.2407 40.0982C66.0969 40.4271 65.8862 40.6994 65.6088 40.9151C65.3416 41.1309 65.0231 41.2953 64.6531 41.4084C64.2935 41.5111 63.8979 41.5625 63.4663 41.5625H59.2585V33.5938ZM62.9423 40.052C63.343 40.052 63.6616 39.9647 63.8979 39.79C64.1445 39.6153 64.2678 39.3327 64.2678 38.9422C64.2678 38.5518 64.1394 38.2692 63.8825 38.0945C63.6256 37.9095 63.307 37.8171 62.9269 37.8171H61.4472V40.052H62.9423ZM67.2403 33.5938H69.429V36.4915H72.5271V33.5938H74.7158V41.5625H72.5271V38.2178H69.429V41.5625H67.2403V33.5938ZM75.9145 33.5938H78.1032V36.3374H80.2148C80.6156 36.3374 80.9906 36.3939 81.34 36.5069C81.6996 36.6097 82.0079 36.7741 82.2648 37.0002C82.532 37.2159 82.7426 37.4882 82.8968 37.8171C83.0509 38.1356 83.128 38.5107 83.128 38.9422C83.128 39.3841 83.0509 39.7694 82.8968 40.0982C82.7529 40.4271 82.5422 40.6994 82.2648 40.9151C81.9976 41.1309 81.6791 41.2953 81.3092 41.4084C80.9495 41.5111 80.5539 41.5625 80.1224 41.5625H75.9145V33.5938ZM79.5983 40.052C79.999 40.052 80.3176 39.9647 80.5539 39.79C80.8005 39.6153 80.9238 39.3327 80.9238 38.9422C80.9238 38.5518 80.7954 38.2692 80.5385 38.0945C80.2816 37.9095 79.9631 37.8171 79.5829 37.8171H78.1032V40.052H79.5983ZM84.0682 33.5938H86.2414V41.5625H84.0682V33.5938ZM91.1324 41.7629C90.5056 41.7629 89.9404 41.6653 89.4369 41.47C88.9334 41.2645 88.507 40.9768 88.1576 40.6069C87.8083 40.237 87.536 39.7951 87.3407 39.2813C87.1558 38.7675 87.0633 38.2024 87.0633 37.5859C87.0633 36.9899 87.1609 36.435 87.3561 35.9212C87.5514 35.4074 87.8288 34.9656 88.1885 34.5957C88.5481 34.2155 88.9745 33.9175 89.4678 33.7017C89.9713 33.4859 90.5262 33.378 91.1324 33.378C91.7695 33.378 92.3295 33.4962 92.8125 33.7325C93.3057 33.9689 93.7116 34.2874 94.0301 34.6882C94.3589 35.0786 94.6055 35.5359 94.77 36.0599C94.9344 36.584 95.0166 37.1286 95.0166 37.6938C95.0166 37.7657 95.0166 37.8376 95.0166 37.9095C95.0166 37.9712 95.0114 38.038 95.0012 38.1099H89.252C89.2828 38.8189 89.4626 39.3327 89.7914 39.6512C90.1203 39.9698 90.5929 40.1291 91.2095 40.1291C91.6513 40.1291 92.0315 40.0212 92.3501 39.8054C92.6686 39.5793 92.8638 39.343 92.9358 39.0964H94.8624C94.5542 40.052 94.0815 40.7353 93.4444 41.1463C92.8073 41.5574 92.0367 41.7629 91.1324 41.7629ZM92.8125 36.7227C92.7097 36.1678 92.5247 35.7465 92.2576 35.4588C92.0007 35.1711 91.6051 35.0272 91.0708 35.0272C90.7111 35.0272 90.4183 35.0889 90.1922 35.2122C89.9661 35.3252 89.7812 35.4691 89.6373 35.6438C89.5037 35.8185 89.4061 36.0034 89.3445 36.1987C89.2931 36.3939 89.2623 36.5686 89.252 36.7227H92.8125ZM103.441 41.7629C102.834 41.7629 102.285 41.6653 101.791 41.47C101.298 41.2645 100.877 40.9819 100.527 40.6223C100.178 40.2626 99.9058 39.8362 99.7105 39.343C99.5153 38.8395 99.4177 38.2897 99.4177 37.6938C99.4177 37.0772 99.505 36.5069 99.6797 35.9829C99.8647 35.4485 100.132 34.9913 100.481 34.6111C100.831 34.2206 101.257 33.9175 101.761 33.7017C102.264 33.4859 102.839 33.378 103.487 33.378C103.959 33.378 104.412 33.4397 104.843 33.563C105.285 33.6863 105.675 33.8764 106.015 34.1333C106.364 34.3799 106.647 34.6933 106.862 35.0735C107.078 35.4537 107.201 35.8955 107.232 36.399H105.09C104.946 35.4845 104.406 35.0272 103.471 35.0272C103.122 35.0272 102.829 35.1095 102.593 35.2739C102.356 35.428 102.161 35.6335 102.007 35.8904C101.863 36.137 101.761 36.4144 101.699 36.7227C101.637 37.031 101.606 37.329 101.606 37.6167C101.606 37.9044 101.637 38.1973 101.699 38.4952C101.761 38.7932 101.858 39.0655 101.992 39.3122C102.136 39.5485 102.326 39.7437 102.562 39.8979C102.798 40.052 103.086 40.1291 103.425 40.1291C103.949 40.1291 104.35 39.9852 104.627 39.6975C104.915 39.3995 105.095 39.0039 105.167 38.5107H107.278C107.135 39.569 106.724 40.3757 106.045 40.9306C105.367 41.4854 104.499 41.7629 103.441 41.7629ZM109.995 35.243H107.374V33.5938H114.804V35.243H112.183V41.5625H109.995V35.243ZM119.196 41.7629C118.569 41.7629 118.004 41.6653 117.5 41.47C116.997 41.2748 116.565 40.9973 116.205 40.6377C115.846 40.2678 115.568 39.8259 115.373 39.3122C115.178 38.7984 115.08 38.2229 115.08 37.5859C115.08 36.9488 115.178 36.3733 115.373 35.8596C115.568 35.3355 115.846 34.8937 116.205 34.534C116.565 34.1641 116.997 33.8815 117.5 33.6863C118.004 33.4808 118.569 33.378 119.196 33.378C119.822 33.378 120.388 33.4808 120.891 33.6863C121.405 33.8815 121.842 34.1641 122.201 34.534C122.561 34.8937 122.838 35.3355 123.034 35.8596C123.229 36.3733 123.326 36.9488 123.326 37.5859C123.326 38.2229 123.229 38.7984 123.034 39.3122C122.838 39.8259 122.561 40.2678 122.201 40.6377C121.842 40.9973 121.405 41.2748 120.891 41.47C120.388 41.6653 119.822 41.7629 119.196 41.7629ZM119.196 40.1291C119.566 40.1291 119.874 40.0571 120.12 39.9133C120.377 39.7694 120.578 39.5793 120.722 39.343C120.876 39.0964 120.984 38.8241 121.045 38.5261C121.107 38.2178 121.138 37.9044 121.138 37.5859C121.138 37.2673 121.107 36.9539 121.045 36.6456C120.984 36.3374 120.876 36.0651 120.722 35.8287C120.578 35.5924 120.377 35.4023 120.12 35.2584C119.874 35.1043 119.566 35.0272 119.196 35.0272C118.826 35.0272 118.517 35.1043 118.271 35.2584C118.024 35.4023 117.824 35.5924 117.67 35.8287C117.526 36.0651 117.423 36.3374 117.361 36.6456C117.3 36.9539 117.269 37.2673 117.269 37.5859C117.269 37.9044 117.3 38.2178 117.361 38.5261C117.423 38.8241 117.526 39.0964 117.67 39.343C117.824 39.5793 118.024 39.7694 118.271 39.9133C118.517 40.0571 118.826 40.1291 119.196 40.1291ZM124.287 33.5938H126.368V34.6111H126.399C126.666 34.1795 127.005 33.8661 127.416 33.6709C127.827 33.4756 128.279 33.378 128.772 33.378C129.399 33.378 129.939 33.4962 130.391 33.7325C130.843 33.9689 131.218 34.2823 131.516 34.6727C131.814 35.0632 132.035 35.5205 132.179 36.0445C132.323 36.5583 132.395 37.0978 132.395 37.6629C132.395 38.1973 132.323 38.711 132.179 39.2043C132.035 39.6975 131.814 40.1342 131.516 40.5144C131.228 40.8946 130.863 41.1977 130.422 41.4238C129.99 41.6498 129.481 41.7629 128.896 41.7629C128.402 41.7629 127.945 41.6653 127.524 41.47C127.113 41.2645 126.774 40.9665 126.507 40.576H126.476V44.3523H124.287V33.5938ZM128.31 40.1291C128.67 40.1291 128.968 40.0571 129.204 39.9133C129.451 39.7694 129.646 39.5845 129.79 39.3584C129.944 39.1221 130.052 38.8549 130.113 38.5569C130.175 38.2486 130.206 37.9301 130.206 37.6013C130.206 37.2827 130.17 36.9693 130.098 36.6611C130.036 36.3528 129.928 36.0805 129.774 35.8442C129.62 35.5975 129.42 35.4023 129.173 35.2584C128.937 35.1043 128.644 35.0272 128.295 35.0272C127.935 35.0272 127.632 35.1043 127.385 35.2584C127.149 35.4023 126.954 35.5924 126.799 35.8287C126.656 36.0651 126.553 36.3425 126.491 36.6611C126.43 36.9693 126.399 37.2827 126.399 37.6013C126.399 37.9301 126.43 38.2486 126.491 38.5569C126.563 38.8549 126.671 39.1221 126.815 39.3584C126.969 39.5845 127.164 39.7694 127.401 39.9133C127.647 40.0571 127.95 40.1291 128.31 40.1291ZM137.116 41.7629C136.489 41.7629 135.924 41.6653 135.421 41.47C134.917 41.2748 134.485 40.9973 134.126 40.6377C133.766 40.2678 133.489 39.8259 133.294 39.3122C133.098 38.7984 133.001 38.2229 133.001 37.5859C133.001 36.9488 133.098 36.3733 133.294 35.8596C133.489 35.3355 133.766 34.8937 134.126 34.534C134.485 34.1641 134.917 33.8815 135.421 33.6863C135.924 33.4808 136.489 33.378 137.116 33.378C137.743 33.378 138.308 33.4808 138.812 33.6863C139.325 33.8815 139.762 34.1641 140.122 34.534C140.481 34.8937 140.759 35.3355 140.954 35.8596C141.149 36.3733 141.247 36.9488 141.247 37.5859C141.247 38.2229 141.149 38.7984 140.954 39.3122C140.759 39.8259 140.481 40.2678 140.122 40.6377C139.762 40.9973 139.325 41.2748 138.812 41.47C138.308 41.6653 137.743 41.7629 137.116 41.7629ZM137.116 40.1291C137.486 40.1291 137.794 40.0571 138.041 39.9133C138.298 39.7694 138.498 39.5793 138.642 39.343C138.796 39.0964 138.904 38.8241 138.966 38.5261C139.027 38.2178 139.058 37.9044 139.058 37.5859C139.058 37.2673 139.027 36.9539 138.966 36.6456C138.904 36.3374 138.796 36.0651 138.642 35.8287C138.498 35.5924 138.298 35.4023 138.041 35.2584C137.794 35.1043 137.486 35.0272 137.116 35.0272C136.746 35.0272 136.438 35.1043 136.191 35.2584C135.945 35.4023 135.744 35.5924 135.59 35.8287C135.446 36.0651 135.344 36.3374 135.282 36.6456C135.22 36.9539 135.189 37.2673 135.189 37.5859C135.189 37.9044 135.22 38.2178 135.282 38.5261C135.344 38.8241 135.446 39.0964 135.59 39.343C135.744 39.5793 135.945 39.7694 136.191 39.9133C136.438 40.0571 136.746 40.1291 137.116 40.1291ZM142.207 33.5938H144.396V36.4915H147.494V33.5938H149.683V41.5625H147.494V38.2178H144.396V41.5625H142.207V33.5938ZM150.882 33.5938H153.07V36.3374H155.182C155.583 36.3374 155.958 36.3939 156.307 36.5069C156.667 36.6097 156.975 36.7741 157.232 37.0002C157.499 37.2159 157.71 37.4882 157.864 37.8171C158.018 38.1356 158.095 38.5107 158.095 38.9422C158.095 39.3841 158.018 39.7694 157.864 40.0982C157.72 40.4271 157.509 40.6994 157.232 40.9151C156.965 41.1309 156.646 41.2953 156.276 41.4084C155.917 41.5111 155.521 41.5625 155.09 41.5625H150.882V33.5938ZM154.565 40.052C154.966 40.052 155.285 39.9647 155.521 39.79C155.768 39.6153 155.891 39.3327 155.891 38.9422C155.891 38.5518 155.763 38.2692 155.506 38.0945C155.249 37.9095 154.93 37.8171 154.55 37.8171H153.07V40.052H154.565ZM159.035 33.5938H161.209V41.5625H159.035V33.5938Z" fill="#104A99"/>
<path d="M39.213 86.4766L39.2583 86.2046C39.6663 86.2046 39.9648 86.129 40.1537 85.9779C40.3426 85.8268 40.4559 85.6303 40.4937 85.3886L41.5023 79.2346L40.0517 80.3112L40.1423 79.7332L42.3297 78.0106H42.6697L41.5023 85.1959C41.4948 85.2337 41.4834 85.3017 41.4683 85.3999C41.4532 85.4981 41.4457 85.5699 41.4457 85.6152C41.4457 85.8117 41.5174 85.959 41.661 86.0572C41.8121 86.1555 42.069 86.2046 42.4317 86.2046L42.375 86.4766H39.213ZM42.9364 85.9552C42.9364 85.7361 43.0044 85.551 43.1404 85.3999C43.2764 85.2488 43.4389 85.1732 43.6278 85.1732C43.8015 85.1732 43.9413 85.2375 44.0471 85.3659C44.1604 85.4868 44.2171 85.6379 44.2171 85.8192C44.2171 86.0308 44.1453 86.2121 44.0018 86.3632C43.8582 86.5068 43.6995 86.5786 43.5258 86.5786C43.3444 86.5786 43.2009 86.5181 43.0951 86.3972C42.9893 86.2763 42.9364 86.129 42.9364 85.9552ZM41.2643 94.7452C41.8461 94.103 42.307 93.491 42.647 92.9092C42.987 92.3275 43.157 91.757 43.157 91.1979C43.157 90.8201 43.055 90.5141 42.851 90.2799C42.6546 90.0457 42.3637 89.9286 41.9783 89.9286C41.7592 89.9286 41.5552 89.9701 41.3663 90.0532C41.185 90.1363 41.0188 90.2459 40.8677 90.3819C40.7166 90.5103 40.5806 90.6577 40.4597 90.8239C40.3463 90.9901 40.2481 91.1563 40.165 91.3226L40.2557 90.6086C40.3312 90.397 40.4332 90.193 40.5617 89.9966C40.6901 89.8001 40.8412 89.6301 41.015 89.4866C41.1963 89.343 41.4003 89.2297 41.627 89.1466C41.8537 89.0559 42.1106 89.0106 42.3977 89.0106C42.6848 89.0106 42.9379 89.0597 43.157 89.1579C43.3837 89.2561 43.5726 89.3921 43.7237 89.5659C43.8748 89.7397 43.9881 89.9437 44.0637 90.1779C44.1468 90.4121 44.1883 90.6652 44.1883 90.9372C44.1883 91.2546 44.1468 91.5606 44.0637 91.8552C43.9806 92.1423 43.8559 92.4295 43.6897 92.7166C43.531 92.9961 43.3308 93.2795 43.089 93.5666C42.8472 93.8537 42.5677 94.1521 42.2503 94.4619L40.2103 96.4566H42.1257C42.3146 96.4566 42.4846 96.4226 42.6357 96.3546C42.7868 96.2866 42.919 96.1997 43.0323 96.0939C43.1532 95.9806 43.2552 95.8559 43.3383 95.7199C43.4214 95.5763 43.4894 95.429 43.5423 95.2779H43.8143L43.157 97.4766H39.0317L39.0883 97.1366L41.2643 94.7452ZM44.3088 96.9552C44.3088 96.7361 44.3768 96.551 44.5128 96.3999C44.6488 96.2488 44.8113 96.1732 45.0002 96.1732C45.1739 96.1732 45.3137 96.2375 45.4195 96.3659C45.5328 96.4868 45.5895 96.6379 45.5895 96.8192C45.5895 97.0308 45.5177 97.2121 45.3742 97.3632C45.2306 97.5068 45.0719 97.5786 44.8982 97.5786C44.7168 97.5786 44.5733 97.5181 44.4675 97.3972C44.3617 97.2763 44.3088 97.129 44.3088 96.9552ZM43.055 101.155H41.8537C41.5741 101.155 41.321 101.235 41.0943 101.393C40.8752 101.544 40.7014 101.763 40.573 102.051H40.301L40.8677 100.147H44.449L44.415 100.407L41.389 103.524C41.5552 103.418 41.8083 103.365 42.1483 103.365C42.375 103.365 42.5866 103.418 42.783 103.524C42.987 103.63 43.1646 103.777 43.3157 103.966C43.4743 104.155 43.5952 104.381 43.6783 104.646C43.769 104.903 43.8143 105.182 43.8143 105.485C43.8143 105.93 43.7388 106.346 43.5877 106.731C43.4441 107.109 43.2477 107.438 42.9983 107.717C42.749 107.997 42.4581 108.216 42.1257 108.375C41.7932 108.533 41.4457 108.613 41.083 108.613C40.7657 108.613 40.4899 108.567 40.2557 108.477C40.029 108.378 39.8439 108.254 39.7003 108.103C39.5568 107.944 39.451 107.766 39.383 107.57C39.315 107.373 39.281 107.169 39.281 106.958L39.383 106.323C39.4661 106.777 39.6361 107.135 39.893 107.4C40.1574 107.657 40.5163 107.785 40.9697 107.785C41.2341 107.785 41.4759 107.717 41.695 107.581C41.9217 107.445 42.1143 107.264 42.273 107.037C42.4392 106.811 42.5677 106.55 42.6583 106.255C42.749 105.961 42.7943 105.655 42.7943 105.337C42.7943 105.095 42.7603 104.888 42.6923 104.714C42.6319 104.533 42.545 104.381 42.4317 104.261C42.3183 104.14 42.1861 104.053 42.035 104C41.8914 103.939 41.7366 103.909 41.5703 103.909C41.321 103.909 41.0981 103.973 40.9017 104.102C40.7128 104.223 40.5503 104.359 40.4143 104.51L40.5277 103.785L43.055 101.155ZM44.1317 107.955C44.1317 107.736 44.1997 107.551 44.3357 107.4C44.4717 107.249 44.6342 107.173 44.8231 107.173C44.9969 107.173 45.1366 107.237 45.2424 107.366C45.3557 107.487 45.4124 107.638 45.4124 107.819C45.4124 108.031 45.3406 108.212 45.1971 108.363C45.0535 108.507 44.8949 108.579 44.7211 108.579C44.5397 108.579 44.3962 108.518 44.2904 108.397C44.1846 108.276 44.1317 108.129 44.1317 107.955Z" fill="#104A99"/>
<rect x="30.5999" y="53.3109" width="323.68" height="79.3333" rx="3.85333" stroke="#ADBFFD" stroke-width="1.36"/>
<rect x="18.3597" y="18.8167" width="348.16" height="127.84" rx="3.85333" stroke="#ADBFFD" stroke-width="1.36" stroke-dasharray="13.6 4.53"/>
<rect x="381.481" y="18.8167" width="348.16" height="127.84" rx="3.85333" fill="white"/>
<path d="M394.105 30.5574H399.283C399.807 30.5574 400.285 30.6036 400.717 30.6961C401.148 30.7886 401.518 30.9427 401.827 31.1585C402.135 31.364 402.371 31.6415 402.536 31.9908C402.71 32.3402 402.798 32.7718 402.798 33.2855C402.798 33.8404 402.669 34.3028 402.412 34.6727C402.166 35.0427 401.796 35.3458 401.303 35.5821C401.981 35.7774 402.484 36.1216 402.813 36.6148C403.152 37.0978 403.322 37.6835 403.322 38.3719C403.322 38.9268 403.214 39.4098 402.998 39.8208C402.782 40.2215 402.489 40.5504 402.119 40.8072C401.76 41.0641 401.344 41.2542 400.871 41.3775C400.409 41.5008 399.931 41.5625 399.438 41.5625H394.105V30.5574ZM399.114 39.6821C399.35 39.6821 399.576 39.6615 399.792 39.6204C400.008 39.569 400.198 39.492 400.362 39.3892C400.527 39.2762 400.655 39.1272 400.748 38.9422C400.85 38.7573 400.902 38.5209 400.902 38.2332C400.902 37.6681 400.743 37.2673 400.424 37.031C400.105 36.7844 399.684 36.6611 399.16 36.6611H396.524V39.6821H399.114ZM398.975 35.0118C399.407 35.0118 399.761 34.9091 400.039 34.7036C400.316 34.4981 400.455 34.1641 400.455 33.7017C400.455 33.4448 400.409 33.2342 400.316 33.0698C400.224 32.9053 400.1 32.7769 399.946 32.6844C399.792 32.5919 399.612 32.5303 399.407 32.4995C399.211 32.4584 399.006 32.4378 398.79 32.4378H396.524V35.0118H398.975ZM408.132 41.7629C407.505 41.7629 406.94 41.6653 406.437 41.47C405.933 41.2748 405.502 40.9973 405.142 40.6377C404.782 40.2678 404.505 39.8259 404.31 39.3122C404.114 38.7984 404.017 38.2229 404.017 37.5859C404.017 36.9488 404.114 36.3733 404.31 35.8596C404.505 35.3355 404.782 34.8937 405.142 34.534C405.502 34.1641 405.933 33.8815 406.437 33.6863C406.94 33.4808 407.505 33.378 408.132 33.378C408.759 33.378 409.324 33.4808 409.828 33.6863C410.341 33.8815 410.778 34.1641 411.138 34.534C411.497 34.8937 411.775 35.3355 411.97 35.8596C412.165 36.3733 412.263 36.9488 412.263 37.5859C412.263 38.2229 412.165 38.7984 411.97 39.3122C411.775 39.8259 411.497 40.2678 411.138 40.6377C410.778 40.9973 410.341 41.2748 409.828 41.47C409.324 41.6653 408.759 41.7629 408.132 41.7629ZM408.132 40.1291C408.502 40.1291 408.81 40.0571 409.057 39.9133C409.314 39.7694 409.514 39.5793 409.658 39.343C409.812 39.0964 409.92 38.8241 409.982 38.5261C410.043 38.2178 410.074 37.9044 410.074 37.5859C410.074 37.2673 410.043 36.9539 409.982 36.6456C409.92 36.3374 409.812 36.0651 409.658 35.8287C409.514 35.5924 409.314 35.4023 409.057 35.2584C408.81 35.1043 408.502 35.0272 408.132 35.0272C407.762 35.0272 407.454 35.1043 407.207 35.2584C406.961 35.4023 406.76 35.5924 406.606 35.8287C406.462 36.0651 406.36 36.3374 406.298 36.6456C406.236 36.9539 406.206 37.2673 406.206 37.5859C406.206 37.9044 406.236 38.2178 406.298 38.5261C406.36 38.8241 406.462 39.0964 406.606 39.343C406.76 39.5793 406.961 39.7694 407.207 39.9133C407.454 40.0571 407.762 40.1291 408.132 40.1291ZM416.46 41.7629C415.957 41.7629 415.479 41.7115 415.027 41.6087C414.585 41.5163 414.195 41.357 413.856 41.1309C413.517 40.9049 413.244 40.6171 413.039 40.2678C412.843 39.9184 412.741 39.4868 412.73 38.9731H414.811C414.852 39.4046 415.017 39.7335 415.304 39.9595C415.602 40.1856 416.003 40.2986 416.507 40.2986C417 40.2986 417.36 40.1959 417.586 39.9903C417.812 39.7848 417.925 39.5331 417.925 39.2351C417.925 38.9063 417.817 38.6391 417.601 38.4336C417.396 38.2281 417.046 38.1253 416.553 38.1253H415.705V36.7535H416.276C416.738 36.7535 417.103 36.6816 417.37 36.5378C417.647 36.3939 417.786 36.1216 417.786 35.7208C417.786 35.4845 417.683 35.279 417.478 35.1043C417.283 34.9194 416.969 34.8269 416.538 34.8269C416.096 34.8269 415.746 34.9039 415.489 35.0581C415.243 35.2019 415.089 35.4896 415.027 35.9212H412.992C413.034 35.4588 413.157 35.0683 413.362 34.7498C413.578 34.421 413.845 34.159 414.164 33.9637C414.493 33.7582 414.863 33.6092 415.274 33.5167C415.695 33.4243 416.132 33.378 416.584 33.378C417.642 33.378 418.459 33.5527 419.035 33.9021C419.62 34.2412 419.913 34.7806 419.913 35.5205C419.913 35.7568 419.867 35.9777 419.774 36.1832C419.692 36.3785 419.584 36.5532 419.451 36.7073C419.317 36.8614 419.163 36.9899 418.988 37.0926C418.814 37.1851 418.644 37.2468 418.48 37.2776V37.3084C418.665 37.329 418.855 37.3752 419.05 37.4471C419.255 37.5088 419.44 37.6167 419.605 37.7708C419.769 37.9147 419.903 38.1048 420.006 38.3411C420.119 38.5672 420.175 38.8549 420.175 39.2043C420.175 39.6358 420.083 40.0109 419.898 40.3294C419.723 40.648 419.471 40.9151 419.142 41.1309C418.824 41.3467 418.433 41.506 417.971 41.6087C417.519 41.7115 417.015 41.7629 416.46 41.7629ZM421.115 33.5938H424.29L425.94 39.3892H426.001L427.65 33.5938H430.826V41.5625H428.76V35.5051H428.714L427.003 41.5625H424.938L423.227 35.5051H423.181V41.5625H421.115V33.5938ZM435.901 41.7629C435.274 41.7629 434.709 41.6653 434.205 41.47C433.702 41.2748 433.27 40.9973 432.911 40.6377C432.551 40.2678 432.274 39.8259 432.078 39.3122C431.883 38.7984 431.786 38.2229 431.786 37.5859C431.786 36.9488 431.883 36.3733 432.078 35.8596C432.274 35.3355 432.551 34.8937 432.911 34.534C433.27 34.1641 433.702 33.8815 434.205 33.6863C434.709 33.4808 435.274 33.378 435.901 33.378C436.528 33.378 437.093 33.4808 437.596 33.6863C438.11 33.8815 438.547 34.1641 438.907 34.534C439.266 34.8937 439.544 35.3355 439.739 35.8596C439.934 36.3733 440.032 36.9488 440.032 37.5859C440.032 38.2229 439.934 38.7984 439.739 39.3122C439.544 39.8259 439.266 40.2678 438.907 40.6377C438.547 40.9973 438.11 41.2748 437.596 41.47C437.093 41.6653 436.528 41.7629 435.901 41.7629ZM435.901 40.1291C436.271 40.1291 436.579 40.0571 436.826 39.9133C437.083 39.7694 437.283 39.5793 437.427 39.343C437.581 39.0964 437.689 38.8241 437.751 38.5261C437.812 38.2178 437.843 37.9044 437.843 37.5859C437.843 37.2673 437.812 36.9539 437.751 36.6456C437.689 36.3374 437.581 36.0651 437.427 35.8287C437.283 35.5924 437.083 35.4023 436.826 35.2584C436.579 35.1043 436.271 35.0272 435.901 35.0272C435.531 35.0272 435.223 35.1043 434.976 35.2584C434.73 35.4023 434.529 35.5924 434.375 35.8287C434.231 36.0651 434.128 36.3374 434.067 36.6456C434.005 36.9539 433.974 37.2673 433.974 37.5859C433.974 37.9044 434.005 38.2178 434.067 38.5261C434.128 38.8241 434.231 39.0964 434.375 39.343C434.529 39.5793 434.73 39.7694 434.976 39.9133C435.223 40.0571 435.531 40.1291 435.901 40.1291ZM443.196 37.0926L440.391 33.5938H442.811L445.385 36.9231V33.5938H447.451V36.9231L450.025 33.5938H452.444L449.531 37.0156L452.753 41.5625H450.225L447.928 38.1253L447.451 38.7419V41.5625H445.385V38.8652L444.815 38.1253L442.611 41.5625H440.083L443.196 37.0926ZM453.038 33.5938H455.227V36.4915H458.325V33.5938H460.514V41.5625H458.325V38.2178H455.227V41.5625H453.038V33.5938ZM465.581 41.7629C464.954 41.7629 464.389 41.6653 463.886 41.47C463.382 41.2748 462.951 40.9973 462.591 40.6377C462.231 40.2678 461.954 39.8259 461.759 39.3122C461.563 38.7984 461.466 38.2229 461.466 37.5859C461.466 36.9488 461.563 36.3733 461.759 35.8596C461.954 35.3355 462.231 34.8937 462.591 34.534C462.951 34.1641 463.382 33.8815 463.886 33.6863C464.389 33.4808 464.954 33.378 465.581 33.378C466.208 33.378 466.773 33.4808 467.277 33.6863C467.79 33.8815 468.227 34.1641 468.587 34.534C468.946 34.8937 469.224 35.3355 469.419 35.8596C469.614 36.3733 469.712 36.9488 469.712 37.5859C469.712 38.2229 469.614 38.7984 469.419 39.3122C469.224 39.8259 468.946 40.2678 468.587 40.6377C468.227 40.9973 467.79 41.2748 467.277 41.47C466.773 41.6653 466.208 41.7629 465.581 41.7629ZM465.581 40.1291C465.951 40.1291 466.259 40.0571 466.506 39.9133C466.763 39.7694 466.963 39.5793 467.107 39.343C467.261 39.0964 467.369 38.8241 467.431 38.5261C467.492 38.2178 467.523 37.9044 467.523 37.5859C467.523 37.2673 467.492 36.9539 467.431 36.6456C467.369 36.3374 467.261 36.0651 467.107 35.8287C466.963 35.5924 466.763 35.4023 466.506 35.2584C466.259 35.1043 465.951 35.0272 465.581 35.0272C465.211 35.0272 464.903 35.1043 464.656 35.2584C464.41 35.4023 464.209 35.5924 464.055 35.8287C463.911 36.0651 463.809 36.3374 463.747 36.6456C463.685 36.9539 463.655 37.2673 463.655 37.5859C463.655 37.9044 463.685 38.2178 463.747 38.5261C463.809 38.8241 463.911 39.0964 464.055 39.343C464.209 39.5793 464.41 39.7694 464.656 39.9133C464.903 40.0571 465.211 40.1291 465.581 40.1291ZM474.449 41.7629C473.843 41.7629 473.293 41.6653 472.8 41.47C472.306 41.2645 471.885 40.9819 471.536 40.6223C471.186 40.2626 470.914 39.8362 470.719 39.343C470.524 38.8395 470.426 38.2897 470.426 37.6938C470.426 37.0772 470.513 36.5069 470.688 35.9829C470.873 35.4485 471.14 34.9913 471.49 34.6111C471.839 34.2206 472.265 33.9175 472.769 33.7017C473.272 33.4859 473.848 33.378 474.495 33.378C474.968 33.378 475.42 33.4397 475.852 33.563C476.293 33.6863 476.684 33.8764 477.023 34.1333C477.372 34.3799 477.655 34.6933 477.871 35.0735C478.086 35.4537 478.21 35.8955 478.241 36.399H476.098C475.954 35.4845 475.415 35.0272 474.48 35.0272C474.13 35.0272 473.838 35.1095 473.601 35.2739C473.365 35.428 473.17 35.6335 473.016 35.8904C472.872 36.137 472.769 36.4144 472.707 36.7227C472.646 37.031 472.615 37.329 472.615 37.6167C472.615 37.9044 472.646 38.1973 472.707 38.4952C472.769 38.7932 472.867 39.0655 473 39.3122C473.144 39.5485 473.334 39.7437 473.57 39.8979C473.807 40.052 474.094 40.1291 474.434 40.1291C474.958 40.1291 475.358 39.9852 475.636 39.6975C475.923 39.3995 476.103 39.0039 476.175 38.5107H478.287C478.143 39.569 477.732 40.3757 477.054 40.9306C476.376 41.4854 475.507 41.7629 474.449 41.7629ZM481.003 35.243H478.383V33.5938H485.812V35.243H483.192V41.5625H481.003V35.243ZM486.335 33.5938H488.431V38.9885L491.437 33.5938H493.919V41.5625H491.822V36.1678L488.817 41.5625H486.335V33.5938Z" fill="#104A99"/>
<path d="M402.334 86.4766L402.379 86.2046C402.787 86.2046 403.086 86.129 403.275 85.9779C403.464 85.8268 403.577 85.6303 403.615 85.3886L404.623 79.2346L403.173 80.3112L403.263 79.7332L405.451 78.0106H405.791L404.623 85.1959C404.616 85.2337 404.605 85.3017 404.589 85.3999C404.574 85.4981 404.567 85.5699 404.567 85.6152C404.567 85.8117 404.639 85.959 404.782 86.0572C404.933 86.1555 405.19 86.2046 405.553 86.2046L405.496 86.4766H402.334ZM406.058 85.9552C406.058 85.7361 406.126 85.551 406.262 85.3999C406.398 85.2488 406.56 85.1732 406.749 85.1732C406.923 85.1732 407.062 85.2375 407.168 85.3659C407.282 85.4868 407.338 85.6379 407.338 85.8192C407.338 86.0308 407.266 86.2121 407.123 86.3632C406.979 86.5068 406.821 86.5786 406.647 86.5786C406.466 86.5786 406.322 86.5181 406.216 86.3972C406.11 86.2763 406.058 86.129 406.058 85.9552ZM404.385 94.7452C404.967 94.103 405.428 93.491 405.768 92.9092C406.108 92.3275 406.278 91.757 406.278 91.1979C406.278 90.8201 406.176 90.5141 405.972 90.2799C405.776 90.0457 405.485 89.9286 405.099 89.9286C404.88 89.9286 404.676 89.9701 404.487 90.0532C404.306 90.1363 404.14 90.2459 403.989 90.3819C403.838 90.5103 403.702 90.6577 403.581 90.8239C403.467 90.9901 403.369 91.1563 403.286 91.3226L403.377 90.6086C403.452 90.397 403.554 90.193 403.683 89.9966C403.811 89.8001 403.962 89.6301 404.136 89.4866C404.317 89.343 404.521 89.2297 404.748 89.1466C404.975 89.0559 405.232 89.0106 405.519 89.0106C405.806 89.0106 406.059 89.0597 406.278 89.1579C406.505 89.2561 406.694 89.3921 406.845 89.5659C406.996 89.7397 407.109 89.9437 407.185 90.1779C407.268 90.4121 407.309 90.6652 407.309 90.9372C407.309 91.2546 407.268 91.5606 407.185 91.8552C407.102 92.1423 406.977 92.4295 406.811 92.7166C406.652 92.9961 406.452 93.2795 406.21 93.5666C405.968 93.8537 405.689 94.1521 405.371 94.4619L403.331 96.4566H405.247C405.436 96.4566 405.606 96.4226 405.757 96.3546C405.908 96.2866 406.04 96.1997 406.153 96.0939C406.274 95.9806 406.376 95.8559 406.459 95.7199C406.543 95.5763 406.611 95.429 406.663 95.2779H406.935L406.278 97.4766H402.153L402.209 97.1366L404.385 94.7452ZM407.43 96.9552C407.43 96.7361 407.498 96.551 407.634 96.3999C407.77 96.2488 407.932 96.1732 408.121 96.1732C408.295 96.1732 408.435 96.2375 408.541 96.3659C408.654 96.4868 408.711 96.6379 408.711 96.8192C408.711 97.0308 408.639 97.2121 408.495 97.3632C408.352 97.5068 408.193 97.5786 408.019 97.5786C407.838 97.5786 407.694 97.5181 407.589 97.3972C407.483 97.2763 407.43 97.129 407.43 96.9552ZM406.176 101.155H404.975C404.695 101.155 404.442 101.235 404.215 101.393C403.996 101.544 403.823 101.763 403.694 102.051H403.422L403.989 100.147H407.57L407.536 100.407L404.51 103.524C404.676 103.418 404.929 103.365 405.269 103.365C405.496 103.365 405.708 103.418 405.904 103.524C406.108 103.63 406.286 103.777 406.437 103.966C406.595 104.155 406.716 104.381 406.799 104.646C406.89 104.903 406.935 105.182 406.935 105.485C406.935 105.93 406.86 106.346 406.709 106.731C406.565 107.109 406.369 107.438 406.119 107.717C405.87 107.997 405.579 108.216 405.247 108.375C404.914 108.533 404.567 108.613 404.204 108.613C403.887 108.613 403.611 108.567 403.377 108.477C403.15 108.378 402.965 108.254 402.821 108.103C402.678 107.944 402.572 107.766 402.504 107.57C402.436 107.373 402.402 107.169 402.402 106.958L402.504 106.323C402.587 106.777 402.757 107.135 403.014 107.4C403.279 107.657 403.637 107.785 404.091 107.785C404.355 107.785 404.597 107.717 404.816 107.581C405.043 107.445 405.235 107.264 405.394 107.037C405.56 106.811 405.689 106.55 405.779 106.255C405.87 105.961 405.915 105.655 405.915 105.337C405.915 105.095 405.881 104.888 405.813 104.714C405.753 104.533 405.666 104.381 405.553 104.261C405.439 104.14 405.307 104.053 405.156 104C405.013 103.939 404.858 103.909 404.691 103.909C404.442 103.909 404.219 103.973 404.023 104.102C403.834 104.223 403.671 104.359 403.535 104.51L403.649 103.785L406.176 101.155ZM407.253 107.955C407.253 107.736 407.321 107.551 407.457 107.4C407.593 107.249 407.755 107.173 407.944 107.173C408.118 107.173 408.258 107.237 408.364 107.366C408.477 107.487 408.534 107.638 408.534 107.819C408.534 108.031 408.462 108.212 408.318 108.363C408.175 108.507 408.016 108.579 407.842 108.579C407.661 108.579 407.517 108.518 407.412 108.397C407.306 108.276 407.253 108.129 407.253 107.955Z" fill="#104A99"/>
<rect x="393.721" y="53.3109" width="323.68" height="79.3333" rx="3.85333" stroke="#ADBFFD" stroke-width="1.36"/>
<rect x="381.481" y="18.8167" width="348.16" height="127.84" rx="3.85333" stroke="#ADBFFD" stroke-width="1.36" stroke-dasharray="13.6 4.53"/>
<rect x="18.3597" y="161.616" width="348.16" height="127.84" rx="3.85333" fill="white"/>
<path d="M35.9157 184.608C35.0628 184.608 34.3024 184.464 33.6345 184.176C32.9666 183.878 32.4015 183.472 31.9391 182.959C31.4767 182.445 31.1222 181.844 30.8755 181.155C30.6289 180.457 30.5056 179.707 30.5056 178.905C30.5056 178.093 30.6289 177.333 30.8755 176.624C31.1222 175.915 31.4767 175.298 31.9391 174.774C32.4015 174.25 32.9666 173.839 33.6345 173.541C34.3024 173.243 35.0628 173.094 35.9157 173.094C36.5117 173.094 37.082 173.182 37.6266 173.356C38.1712 173.531 38.6541 173.788 39.0754 174.127C39.507 174.456 39.8615 174.867 40.139 175.36C40.4164 175.853 40.5911 176.418 40.663 177.055H38.3202C38.2791 176.778 38.1866 176.526 38.0427 176.3C37.8989 176.064 37.7191 175.858 37.5033 175.684C37.2875 175.509 37.0409 175.375 36.7634 175.283C36.4963 175.18 36.2137 175.129 35.9157 175.129C35.3711 175.129 34.9087 175.237 34.5285 175.452C34.1483 175.658 33.84 175.941 33.6037 176.3C33.3674 176.65 33.1927 177.05 33.0797 177.502C32.9769 177.955 32.9255 178.422 32.9255 178.905C32.9255 179.367 32.9769 179.82 33.0797 180.261C33.1927 180.693 33.3674 181.083 33.6037 181.433C33.84 181.782 34.1483 182.065 34.5285 182.281C34.9087 182.486 35.3711 182.589 35.9157 182.589C36.6555 182.589 37.231 182.363 37.642 181.911C38.0633 181.458 38.3202 180.863 38.4127 180.123H40.7555C40.6938 180.821 40.5346 181.448 40.2777 182.003C40.0208 182.548 39.6817 183.015 39.2604 183.406C38.8391 183.796 38.3459 184.094 37.7807 184.3C37.2156 184.505 36.5939 184.608 35.9157 184.608ZM42.0535 184.485C41.961 184.485 41.8171 184.469 41.6219 184.438C41.4267 184.408 41.2725 184.372 41.1595 184.331V182.681C41.2211 182.702 41.2931 182.717 41.3753 182.728C41.4575 182.728 41.5397 182.728 41.6219 182.728C41.8069 182.728 41.9713 182.671 42.1151 182.558C42.2693 182.435 42.3926 182.203 42.485 181.864C42.5878 181.525 42.6649 181.042 42.7162 180.416C42.7779 179.789 42.8087 178.967 42.8087 177.949V176.393H49.2823V184.361H47.0936V178.042H44.8433C44.8022 179.172 44.7354 180.143 44.6429 180.955C44.5504 181.767 44.4014 182.435 44.1959 182.959C44.0007 183.483 43.7284 183.868 43.379 184.115C43.0399 184.361 42.5981 184.485 42.0535 184.485ZM52.8526 184.562C52.4724 184.562 52.1179 184.515 51.789 184.423C51.4602 184.331 51.1725 184.187 50.9259 183.991C50.6793 183.796 50.484 183.55 50.3402 183.252C50.2066 182.954 50.1398 182.599 50.1398 182.188C50.1398 181.736 50.2169 181.366 50.371 181.078C50.5354 180.78 50.7409 180.544 50.9875 180.369C51.2444 180.195 51.5321 180.066 51.8507 179.984C52.1795 179.891 52.5083 179.82 52.8371 179.768C53.166 179.717 53.4896 179.676 53.8082 179.645C54.1267 179.614 54.4093 179.568 54.6559 179.506C54.9025 179.444 55.0978 179.357 55.2416 179.244C55.3855 179.121 55.4523 178.946 55.442 178.72C55.442 178.494 55.4009 178.309 55.3187 178.165C55.2468 178.021 55.144 177.913 55.0104 177.841C54.8871 177.759 54.7381 177.708 54.5634 177.687C54.399 177.657 54.2192 177.641 54.024 177.641C53.5924 177.641 53.2533 177.734 53.0067 177.919C52.7601 178.104 52.6162 178.412 52.5751 178.843H50.3864C50.4172 178.34 50.5457 177.919 50.7718 177.579C50.9978 177.23 51.2855 176.953 51.6349 176.747C51.9843 176.542 52.3747 176.398 52.8063 176.316C53.2379 176.223 53.6797 176.177 54.1319 176.177C54.5326 176.177 54.9385 176.208 55.3495 176.269C55.7605 176.321 56.1356 176.429 56.4747 176.593C56.8138 176.757 57.0912 176.989 57.307 177.287C57.5228 177.585 57.6307 177.97 57.6307 178.443V182.589C57.6307 182.948 57.6512 183.293 57.6923 183.621C57.7334 183.95 57.8054 184.197 57.9081 184.361H55.6886C55.6475 184.238 55.6115 184.115 55.5807 183.991C55.5602 183.858 55.5447 183.724 55.5345 183.591C55.1851 183.95 54.7741 184.202 54.3014 184.346C53.8287 184.49 53.3458 184.562 52.8526 184.562ZM53.6695 183.113C54.101 183.113 54.435 183.041 54.6713 182.897C54.9077 182.753 55.0823 182.584 55.1954 182.388C55.3084 182.183 55.3752 181.977 55.3958 181.772C55.4266 181.566 55.442 181.402 55.442 181.279V180.462C55.3495 180.544 55.2365 180.611 55.1029 180.662C54.9693 180.703 54.8203 180.739 54.6559 180.77C54.4915 180.801 54.322 180.827 54.1473 180.847C53.9726 180.868 53.7979 180.893 53.6232 180.924C53.4485 180.955 53.2841 180.996 53.13 181.047C52.9759 181.099 52.8371 181.171 52.7138 181.263C52.6008 181.345 52.5083 181.453 52.4364 181.587C52.3645 181.721 52.3285 181.89 52.3285 182.096C52.3285 182.301 52.3645 182.471 52.4364 182.604C52.5083 182.728 52.6059 182.83 52.7292 182.912C52.8526 182.984 52.9964 183.036 53.1608 183.067C53.3252 183.097 53.4948 183.113 53.6695 183.113ZM62.6588 184.562C61.8881 184.562 61.2511 184.418 60.7476 184.13C60.244 183.842 59.8433 183.467 59.5453 183.005C59.2576 182.543 59.0572 182.024 58.9442 181.448C58.8312 180.873 58.7746 180.292 58.7746 179.707C58.7746 179.008 58.8055 178.34 58.8671 177.703C58.9288 177.055 59.0726 176.47 59.2987 175.946C59.5248 175.422 59.8484 174.969 60.2697 174.589C60.7013 174.199 61.2819 173.906 62.0114 173.711C62.2375 173.649 62.4995 173.608 62.7975 173.587C63.1058 173.567 63.3986 173.541 63.6761 173.51C63.9535 173.48 64.1847 173.438 64.3697 173.387C64.5649 173.325 64.6677 173.228 64.678 173.094H66.6046C66.5635 173.587 66.4556 173.978 66.2809 174.266C66.1165 174.553 65.8751 174.785 65.5565 174.959C65.238 175.124 64.8475 175.247 64.3851 175.329C63.9227 175.401 63.3781 175.468 62.7513 175.529C62.2581 175.581 61.8419 175.699 61.5028 175.884C61.1637 176.069 60.8863 176.305 60.6705 176.593C60.4547 176.87 60.2903 177.189 60.1773 177.549C60.0745 177.898 60.0026 178.268 59.9615 178.658H60.0077C60.1002 178.391 60.2286 178.124 60.393 177.857C60.5677 177.59 60.7835 177.348 61.0404 177.132C61.2973 176.917 61.6004 176.742 61.9498 176.608C62.2992 176.465 62.6999 176.393 63.152 176.393C63.6555 176.393 64.1282 176.49 64.5701 176.685C65.0222 176.881 65.4127 177.158 65.7415 177.518C66.0703 177.877 66.3272 178.309 66.5121 178.813C66.7074 179.306 66.805 179.861 66.805 180.477C66.805 181.104 66.7074 181.669 66.5121 182.173C66.3272 182.676 66.0549 183.108 65.6952 183.467C65.3356 183.817 64.8989 184.089 64.3851 184.284C63.8713 184.469 63.2959 184.562 62.6588 184.562ZM62.8129 182.928C63.3678 182.928 63.8045 182.717 64.1231 182.296C64.4519 181.875 64.6163 181.263 64.6163 180.462C64.6163 179.681 64.457 179.075 64.1385 178.643C63.8199 178.201 63.3678 177.98 62.7821 177.98C62.2272 177.98 61.7905 178.201 61.472 178.643C61.1534 179.085 60.9942 179.696 60.9942 180.477C60.9942 181.279 61.1534 181.89 61.472 182.311C61.8008 182.722 62.2478 182.928 62.8129 182.928ZM71.6359 184.562C71.0091 184.562 70.4439 184.464 69.9404 184.269C69.4369 184.074 69.0053 183.796 68.6457 183.437C68.286 183.067 68.0086 182.625 67.8134 182.111C67.6181 181.597 67.5205 181.022 67.5205 180.385C67.5205 179.748 67.6181 179.172 67.8134 178.658C68.0086 178.134 68.286 177.692 68.6457 177.333C69.0053 176.963 69.4369 176.68 69.9404 176.485C70.4439 176.28 71.0091 176.177 71.6359 176.177C72.2627 176.177 72.8278 176.28 73.3313 176.485C73.8451 176.68 74.2818 176.963 74.6415 177.333C75.0011 177.692 75.2786 178.134 75.4738 178.658C75.669 179.172 75.7666 179.748 75.7666 180.385C75.7666 181.022 75.669 181.597 75.4738 182.111C75.2786 182.625 75.0011 183.067 74.6415 183.437C74.2818 183.796 73.8451 184.074 73.3313 184.269C72.8278 184.464 72.2627 184.562 71.6359 184.562ZM71.6359 182.928C72.0058 182.928 72.3141 182.856 72.5607 182.712C72.8176 182.568 73.0179 182.378 73.1618 182.142C73.3159 181.895 73.4238 181.623 73.4855 181.325C73.5471 181.017 73.5779 180.703 73.5779 180.385C73.5779 180.066 73.5471 179.753 73.4855 179.444C73.4238 179.136 73.3159 178.864 73.1618 178.628C73.0179 178.391 72.8176 178.201 72.5607 178.057C72.3141 177.903 72.0058 177.826 71.6359 177.826C71.2659 177.826 70.9577 177.903 70.7111 178.057C70.4645 178.201 70.2641 178.391 70.1099 178.628C69.9661 178.864 69.8633 179.136 69.8017 179.444C69.74 179.753 69.7092 180.066 69.7092 180.385C69.7092 180.703 69.74 181.017 69.8017 181.325C69.8633 181.623 69.9661 181.895 70.1099 182.142C70.2641 182.378 70.4645 182.568 70.7111 182.712C70.9577 182.856 71.2659 182.928 71.6359 182.928ZM80.5036 184.562C79.8973 184.562 79.3476 184.464 78.8544 184.269C78.3611 184.063 77.9398 183.781 77.5905 183.421C77.2411 183.061 76.9688 182.635 76.7736 182.142C76.5783 181.638 76.4807 181.089 76.4807 180.493C76.4807 179.876 76.5681 179.306 76.7427 178.782C76.9277 178.247 77.1949 177.79 77.5442 177.41C77.8936 177.019 78.32 176.716 78.8235 176.501C79.327 176.285 79.9025 176.177 80.5498 176.177C81.0225 176.177 81.4746 176.239 81.9062 176.362C82.3481 176.485 82.7385 176.675 83.0776 176.932C83.427 177.179 83.7096 177.492 83.9254 177.872C84.1411 178.253 84.2644 178.694 84.2953 179.198H82.1528C82.009 178.283 81.4695 177.826 80.5344 177.826C80.185 177.826 79.8922 177.908 79.6559 178.073C79.4195 178.227 79.2243 178.432 79.0702 178.689C78.9263 178.936 78.8235 179.213 78.7619 179.522C78.7002 179.83 78.6694 180.128 78.6694 180.416C78.6694 180.703 78.7002 180.996 78.7619 181.294C78.8235 181.592 78.9212 181.864 79.0547 182.111C79.1986 182.347 79.3887 182.543 79.625 182.697C79.8614 182.851 80.1491 182.928 80.4882 182.928C81.0122 182.928 81.413 182.784 81.6904 182.496C81.9781 182.198 82.158 181.803 82.2299 181.309H84.3415C84.1977 182.368 83.7866 183.175 83.1084 183.729C82.4303 184.284 81.562 184.562 80.5036 184.562ZM87.0576 178.042H84.4374V176.393H91.8666V178.042H89.2463V184.361H87.0576V178.042ZM92.3899 176.393H94.4861V181.787L97.4917 176.393H99.9733V184.361H97.8771V178.967L94.8715 184.361H92.3899V176.393Z" fill="#104A99"/>
<path d="M39.213 229.275L39.2583 229.003C39.6663 229.003 39.9648 228.928 40.1537 228.777C40.3426 228.626 40.4559 228.429 40.4937 228.187L41.5023 222.033L40.0517 223.11L40.1423 222.532L42.3297 220.809H42.6697L41.5023 227.995C41.4948 228.033 41.4834 228.101 41.4683 228.199C41.4532 228.297 41.4457 228.369 41.4457 228.414C41.4457 228.611 41.5174 228.758 41.661 228.856C41.8121 228.954 42.069 229.003 42.4317 229.003L42.375 229.275H39.213ZM42.9364 228.754C42.9364 228.535 43.0044 228.35 43.1404 228.199C43.2764 228.048 43.4389 227.972 43.6278 227.972C43.8015 227.972 43.9413 228.036 44.0471 228.165C44.1604 228.286 44.2171 228.437 44.2171 228.618C44.2171 228.83 44.1453 229.011 44.0018 229.162C43.8582 229.306 43.6995 229.377 43.5258 229.377C43.3444 229.377 43.2009 229.317 43.0951 229.196C42.9893 229.075 42.9364 228.928 42.9364 228.754ZM41.2643 237.544C41.8461 236.902 42.307 236.29 42.647 235.708C42.987 235.126 43.157 234.556 43.157 233.997C43.157 233.619 43.055 233.313 42.851 233.079C42.6546 232.845 42.3637 232.727 41.9783 232.727C41.7592 232.727 41.5552 232.769 41.3663 232.852C41.185 232.935 41.0188 233.045 40.8677 233.181C40.7166 233.309 40.5806 233.457 40.4597 233.623C40.3463 233.789 40.2481 233.955 40.165 234.121L40.2557 233.407C40.3312 233.196 40.4332 232.992 40.5617 232.795C40.6901 232.599 40.8412 232.429 41.015 232.285C41.1963 232.142 41.4003 232.029 41.627 231.945C41.8537 231.855 42.1106 231.809 42.3977 231.809C42.6848 231.809 42.9379 231.859 43.157 231.957C43.3837 232.055 43.5726 232.191 43.7237 232.365C43.8748 232.539 43.9881 232.743 44.0637 232.977C44.1468 233.211 44.1883 233.464 44.1883 233.736C44.1883 234.053 44.1468 234.359 44.0637 234.654C43.9806 234.941 43.8559 235.228 43.6897 235.515C43.531 235.795 43.3308 236.078 43.089 236.365C42.8472 236.653 42.5677 236.951 42.2503 237.261L40.2103 239.255H42.1257C42.3146 239.255 42.4846 239.221 42.6357 239.153C42.7868 239.085 42.919 238.999 43.0323 238.893C43.1532 238.779 43.2552 238.655 43.3383 238.519C43.4214 238.375 43.4894 238.228 43.5423 238.077H43.8143L43.157 240.275H39.0317L39.0883 239.935L41.2643 237.544ZM44.3088 239.754C44.3088 239.535 44.3768 239.35 44.5128 239.199C44.6488 239.048 44.8113 238.972 45.0002 238.972C45.1739 238.972 45.3137 239.036 45.4195 239.165C45.5328 239.286 45.5895 239.437 45.5895 239.618C45.5895 239.83 45.5177 240.011 45.3742 240.162C45.2306 240.306 45.0719 240.377 44.8982 240.377C44.7168 240.377 44.5733 240.317 44.4675 240.196C44.3617 240.075 44.3088 239.928 44.3088 239.754ZM43.055 243.954H41.8537C41.5741 243.954 41.321 244.033 41.0943 244.192C40.8752 244.343 40.7014 244.562 40.573 244.849H40.301L40.8677 242.945H44.449L44.415 243.206L41.389 246.323C41.5552 246.217 41.8083 246.164 42.1483 246.164C42.375 246.164 42.5866 246.217 42.783 246.323C42.987 246.429 43.1646 246.576 43.3157 246.765C43.4743 246.954 43.5952 247.18 43.6783 247.445C43.769 247.702 43.8143 247.981 43.8143 248.283C43.8143 248.729 43.7388 249.145 43.5877 249.53C43.4441 249.908 43.2477 250.237 42.9983 250.516C42.749 250.796 42.4581 251.015 42.1257 251.173C41.7932 251.332 41.4457 251.411 41.083 251.411C40.7657 251.411 40.4899 251.366 40.2557 251.275C40.029 251.177 39.8439 251.053 39.7003 250.901C39.5568 250.743 39.451 250.565 39.383 250.369C39.315 250.172 39.281 249.968 39.281 249.757L39.383 249.122C39.4661 249.575 39.6361 249.934 39.893 250.199C40.1574 250.456 40.5163 250.584 40.9697 250.584C41.2341 250.584 41.4759 250.516 41.695 250.38C41.9217 250.244 42.1143 250.063 42.273 249.836C42.4392 249.609 42.5677 249.349 42.6583 249.054C42.749 248.759 42.7943 248.453 42.7943 248.136C42.7943 247.894 42.7603 247.687 42.6923 247.513C42.6319 247.331 42.545 247.18 42.4317 247.059C42.3183 246.939 42.1861 246.852 42.035 246.799C41.8914 246.738 41.7366 246.708 41.5703 246.708C41.321 246.708 41.0981 246.772 40.9017 246.901C40.7128 247.022 40.5503 247.158 40.4143 247.309L40.5277 246.583L43.055 243.954ZM44.1317 250.754C44.1317 250.535 44.1997 250.35 44.3357 250.199C44.4717 250.048 44.6342 249.972 44.8231 249.972C44.9969 249.972 45.1366 250.036 45.2424 250.165C45.3557 250.286 45.4124 250.437 45.4124 250.618C45.4124 250.83 45.3406 251.011 45.1971 251.162C45.0535 251.306 44.8949 251.377 44.7211 251.377C44.5397 251.377 44.3962 251.317 44.2904 251.196C44.1846 251.075 44.1317 250.928 44.1317 250.754Z" fill="#104A99"/>
<rect x="30.5999" y="196.11" width="323.68" height="79.3333" rx="3.85333" stroke="#ADBFFD" stroke-width="1.36"/>
<rect x="18.3597" y="161.616" width="348.16" height="127.84" rx="3.85333" stroke="#ADBFFD" stroke-width="1.36" stroke-dasharray="13.6 4.53"/>
<rect x="381.481" y="161.616" width="348.16" height="127.84" rx="3.85333" fill="white"/>
<path d="M396.232 184.562C395.964 184.562 395.723 184.526 395.507 184.454C395.302 184.382 395.148 184.315 395.045 184.253V182.296C395.158 182.358 395.291 182.414 395.445 182.465C395.61 182.507 395.81 182.527 396.047 182.527C396.776 182.527 397.218 182.224 397.372 181.618L392.964 173.356H395.677L398.667 179.09L400.902 173.356H403.43L399.992 181.433C399.746 181.998 399.494 182.481 399.237 182.882C398.991 183.272 398.713 183.596 398.405 183.853C398.107 184.099 397.778 184.279 397.418 184.392C397.069 184.505 396.673 184.562 396.232 184.562ZM403.468 176.393H409.479V178.042H405.656V184.361H403.468V176.393ZM409.912 176.393H411.993V177.41H412.024C412.291 176.978 412.63 176.665 413.041 176.47C413.452 176.274 413.904 176.177 414.398 176.177C415.024 176.177 415.564 176.295 416.016 176.531C416.468 176.768 416.843 177.081 417.141 177.472C417.439 177.862 417.66 178.319 417.804 178.843C417.948 179.357 418.02 179.897 418.02 180.462C418.02 180.996 417.948 181.51 417.804 182.003C417.66 182.496 417.439 182.933 417.141 183.313C416.853 183.693 416.489 183.997 416.047 184.223C415.615 184.449 415.107 184.562 414.521 184.562C414.028 184.562 413.57 184.464 413.149 184.269C412.738 184.063 412.399 183.765 412.132 183.375H412.101V187.151H409.912V176.393ZM413.935 182.928C414.295 182.928 414.593 182.856 414.829 182.712C415.076 182.568 415.271 182.383 415.415 182.157C415.569 181.921 415.677 181.654 415.738 181.356C415.8 181.047 415.831 180.729 415.831 180.4C415.831 180.082 415.795 179.768 415.723 179.46C415.661 179.152 415.554 178.879 415.399 178.643C415.245 178.396 415.045 178.201 414.798 178.057C414.562 177.903 414.269 177.826 413.92 177.826C413.56 177.826 413.257 177.903 413.01 178.057C412.774 178.201 412.579 178.391 412.425 178.628C412.281 178.864 412.178 179.141 412.116 179.46C412.055 179.768 412.024 180.082 412.024 180.4C412.024 180.729 412.055 181.047 412.116 181.356C412.188 181.654 412.296 181.921 412.44 182.157C412.594 182.383 412.789 182.568 413.026 182.712C413.272 182.856 413.575 182.928 413.935 182.928ZM422.741 184.562C422.114 184.562 421.549 184.464 421.046 184.269C420.542 184.074 420.111 183.796 419.751 183.437C419.391 183.067 419.114 182.625 418.919 182.111C418.723 181.597 418.626 181.022 418.626 180.385C418.626 179.748 418.723 179.172 418.919 178.658C419.114 178.134 419.391 177.692 419.751 177.333C420.111 176.963 420.542 176.68 421.046 176.485C421.549 176.28 422.114 176.177 422.741 176.177C423.368 176.177 423.933 176.28 424.437 176.485C424.95 176.68 425.387 176.963 425.747 177.333C426.106 177.692 426.384 178.134 426.579 178.658C426.774 179.172 426.872 179.748 426.872 180.385C426.872 181.022 426.774 181.597 426.579 182.111C426.384 182.625 426.106 183.067 425.747 183.437C425.387 183.796 424.95 184.074 424.437 184.269C423.933 184.464 423.368 184.562 422.741 184.562ZM422.741 182.928C423.111 182.928 423.419 182.856 423.666 182.712C423.923 182.568 424.123 182.378 424.267 182.142C424.421 181.895 424.529 181.623 424.591 181.325C424.652 181.017 424.683 180.703 424.683 180.385C424.683 180.066 424.652 179.753 424.591 179.444C424.529 179.136 424.421 178.864 424.267 178.628C424.123 178.391 423.923 178.201 423.666 178.057C423.419 177.903 423.111 177.826 422.741 177.826C422.371 177.826 422.063 177.903 421.816 178.057C421.57 178.201 421.369 178.391 421.215 178.628C421.071 178.864 420.969 179.136 420.907 179.444C420.845 179.753 420.815 180.066 420.815 180.385C420.815 180.703 420.845 181.017 420.907 181.325C420.969 181.623 421.071 181.895 421.215 182.142C421.369 182.378 421.57 182.568 421.816 182.712C422.063 182.856 422.371 182.928 422.741 182.928ZM431.069 184.562C430.566 184.562 430.088 184.51 429.636 184.408C429.194 184.315 428.804 184.156 428.465 183.93C428.125 183.704 427.853 183.416 427.648 183.067C427.452 182.717 427.35 182.286 427.339 181.772H429.42C429.461 182.203 429.626 182.532 429.913 182.758C430.211 182.984 430.612 183.097 431.116 183.097C431.609 183.097 431.969 182.995 432.195 182.789C432.421 182.584 432.534 182.332 432.534 182.034C432.534 181.705 432.426 181.438 432.21 181.232C432.005 181.027 431.655 180.924 431.162 180.924H430.314V179.552H430.884C431.347 179.552 431.712 179.48 431.979 179.337C432.256 179.193 432.395 178.92 432.395 178.52C432.395 178.283 432.292 178.078 432.087 177.903C431.891 177.718 431.578 177.626 431.147 177.626C430.705 177.626 430.355 177.703 430.098 177.857C429.852 178.001 429.698 178.288 429.636 178.72H427.601C427.643 178.258 427.766 177.867 427.971 177.549C428.187 177.22 428.454 176.958 428.773 176.763C429.102 176.557 429.472 176.408 429.883 176.316C430.304 176.223 430.741 176.177 431.193 176.177C432.251 176.177 433.068 176.352 433.643 176.701C434.229 177.04 434.522 177.579 434.522 178.319C434.522 178.556 434.476 178.777 434.383 178.982C434.301 179.177 434.193 179.352 434.06 179.506C433.926 179.66 433.772 179.789 433.597 179.891C433.423 179.984 433.253 180.046 433.089 180.076V180.107C433.274 180.128 433.464 180.174 433.659 180.246C433.864 180.308 434.049 180.416 434.214 180.57C434.378 180.714 434.512 180.904 434.615 181.14C434.728 181.366 434.784 181.654 434.784 182.003C434.784 182.435 434.692 182.81 434.507 183.128C434.332 183.447 434.08 183.714 433.751 183.93C433.433 184.146 433.042 184.305 432.58 184.408C432.128 184.51 431.624 184.562 431.069 184.562ZM435.724 176.393H437.913V179.136H440.024C440.425 179.136 440.8 179.193 441.15 179.306C441.509 179.409 441.818 179.573 442.074 179.799C442.342 180.015 442.552 180.287 442.706 180.616C442.861 180.934 442.938 181.309 442.938 181.741C442.938 182.183 442.861 182.568 442.706 182.897C442.563 183.226 442.352 183.498 442.074 183.714C441.807 183.93 441.489 184.094 441.119 184.207C440.759 184.31 440.364 184.361 439.932 184.361H435.724V176.393ZM439.408 182.851C439.809 182.851 440.127 182.763 440.364 182.589C440.61 182.414 440.733 182.132 440.733 181.741C440.733 181.351 440.605 181.068 440.348 180.893C440.091 180.708 439.773 180.616 439.393 180.616H437.913V182.851H439.408ZM443.878 176.393H446.051V184.361H443.878V176.393Z" fill="#104A99"/>
<path d="M402.334 229.275L402.379 229.003C402.787 229.003 403.086 228.928 403.275 228.777C403.464 228.626 403.577 228.429 403.615 228.187L404.623 222.033L403.173 223.11L403.263 222.532L405.451 220.809H405.791L404.623 227.995C404.616 228.033 404.605 228.101 404.589 228.199C404.574 228.297 404.567 228.369 404.567 228.414C404.567 228.611 404.639 228.758 404.782 228.856C404.933 228.954 405.19 229.003 405.553 229.003L405.496 229.275H402.334ZM406.058 228.754C406.058 228.535 406.126 228.35 406.262 228.199C406.398 228.048 406.56 227.972 406.749 227.972C406.923 227.972 407.062 228.036 407.168 228.165C407.282 228.286 407.338 228.437 407.338 228.618C407.338 228.83 407.266 229.011 407.123 229.162C406.979 229.306 406.821 229.377 406.647 229.377C406.466 229.377 406.322 229.317 406.216 229.196C406.11 229.075 406.058 228.928 406.058 228.754ZM404.385 237.544C404.967 236.902 405.428 236.29 405.768 235.708C406.108 235.126 406.278 234.556 406.278 233.997C406.278 233.619 406.176 233.313 405.972 233.079C405.776 232.845 405.485 232.727 405.099 232.727C404.88 232.727 404.676 232.769 404.487 232.852C404.306 232.935 404.14 233.045 403.989 233.181C403.838 233.309 403.702 233.457 403.581 233.623C403.467 233.789 403.369 233.955 403.286 234.121L403.377 233.407C403.452 233.196 403.554 232.992 403.683 232.795C403.811 232.599 403.962 232.429 404.136 232.285C404.317 232.142 404.521 232.029 404.748 231.945C404.975 231.855 405.232 231.809 405.519 231.809C405.806 231.809 406.059 231.859 406.278 231.957C406.505 232.055 406.694 232.191 406.845 232.365C406.996 232.539 407.109 232.743 407.185 232.977C407.268 233.211 407.309 233.464 407.309 233.736C407.309 234.053 407.268 234.359 407.185 234.654C407.102 234.941 406.977 235.228 406.811 235.515C406.652 235.795 406.452 236.078 406.21 236.365C405.968 236.653 405.689 236.951 405.371 237.261L403.331 239.255H405.247C405.436 239.255 405.606 239.221 405.757 239.153C405.908 239.085 406.04 238.999 406.153 238.893C406.274 238.779 406.376 238.655 406.459 238.519C406.543 238.375 406.611 238.228 406.663 238.077H406.935L406.278 240.275H402.153L402.209 239.935L404.385 237.544ZM407.43 239.754C407.43 239.535 407.498 239.35 407.634 239.199C407.77 239.048 407.932 238.972 408.121 238.972C408.295 238.972 408.435 239.036 408.541 239.165C408.654 239.286 408.711 239.437 408.711 239.618C408.711 239.83 408.639 240.011 408.495 240.162C408.352 240.306 408.193 240.377 408.019 240.377C407.838 240.377 407.694 240.317 407.589 240.196C407.483 240.075 407.43 239.928 407.43 239.754ZM406.176 243.954H404.975C404.695 243.954 404.442 244.033 404.215 244.192C403.996 244.343 403.823 244.562 403.694 244.849H403.422L403.989 242.945H407.57L407.536 243.206L404.51 246.323C404.676 246.217 404.929 246.164 405.269 246.164C405.496 246.164 405.708 246.217 405.904 246.323C406.108 246.429 406.286 246.576 406.437 246.765C406.595 246.954 406.716 247.18 406.799 247.445C406.89 247.702 406.935 247.981 406.935 248.283C406.935 248.729 406.86 249.145 406.709 249.53C406.565 249.908 406.369 250.237 406.119 250.516C405.87 250.796 405.579 251.015 405.247 251.173C404.914 251.332 404.567 251.411 404.204 251.411C403.887 251.411 403.611 251.366 403.377 251.275C403.15 251.177 402.965 251.053 402.821 250.901C402.678 250.743 402.572 250.565 402.504 250.369C402.436 250.172 402.402 249.968 402.402 249.757L402.504 249.122C402.587 249.575 402.757 249.934 403.014 250.199C403.279 250.456 403.637 250.584 404.091 250.584C404.355 250.584 404.597 250.516 404.816 250.38C405.043 250.244 405.235 250.063 405.394 249.836C405.56 249.609 405.689 249.349 405.779 249.054C405.87 248.759 405.915 248.453 405.915 248.136C405.915 247.894 405.881 247.687 405.813 247.513C405.753 247.331 405.666 247.18 405.553 247.059C405.439 246.939 405.307 246.852 405.156 246.799C405.013 246.738 404.858 246.708 404.691 246.708C404.442 246.708 404.219 246.772 404.023 246.901C403.834 247.022 403.671 247.158 403.535 247.309L403.649 246.583L406.176 243.954ZM407.253 250.754C407.253 250.535 407.321 250.35 407.457 250.199C407.593 250.048 407.755 249.972 407.944 249.972C408.118 249.972 408.258 250.036 408.364 250.165C408.477 250.286 408.534 250.437 408.534 250.618C408.534 250.83 408.462 251.011 408.318 251.162C408.175 251.306 408.016 251.377 407.842 251.377C407.661 251.377 407.517 251.317 407.412 251.196C407.306 251.075 407.253 250.928 407.253 250.754Z" fill="#104A99"/>
<rect x="393.721" y="196.11" width="323.68" height="79.3333" rx="3.85333" stroke="#ADBFFD" stroke-width="1.36"/>
<rect x="381.481" y="161.616" width="348.16" height="127.84" rx="3.85333" stroke="#ADBFFD" stroke-width="1.36" stroke-dasharray="13.6 4.53"/>
</svg>
