<svg width="748" height="464" viewBox="0 0 748 464" fill="none" xmlns="http://www.w3.org/2000/svg">
<rect x="0.906118" y="0.906118" width="746.188" height="462.12" rx="3.36927" fill="white" stroke="#ADBFFD" stroke-width="1.81223"/>
<mask id="mask0_1908_2915" style="mask-type:alpha" maskUnits="userSpaceOnUse" x="0" y="0" width="748" height="464">
<path d="M7.37799e-07 4.27934C3.30325e-07 1.9181 1.91416 0.00393888 4.27539 0.00393887L743.725 0.00393429C746.086 0.00393428 748 1.91809 748 4.27932L748 459.661C748 462.022 746.086 463.936 743.725 463.936L4.27549 463.935C1.91426 463.935 7.97296e-05 462.021 7.93221e-05 459.659L7.37799e-07 4.27934Z" fill="#D9D9D9"/>
</mask>
<g mask="url(#mask0_1908_2915)">
<path d="M-99.2188 -134.123L883.122 805.22" stroke="#ADBFFD" stroke-width="0.855078"/>
<path d="M-535.516 165.344L446.825 1104.69" stroke="#ADBFFD" stroke-width="0.855078"/>
<path d="M193.088 -509.766L1175.43 429.578" stroke="#ADBFFD" stroke-width="0.855078"/>
<path d="M-243.205 -210.297L739.136 729.047" stroke="#ADBFFD" stroke-width="0.855078"/>
<path d="M46.9336 -321.945L1029.27 617.398" stroke="#ADBFFD" stroke-width="0.855078"/>
<path d="M-389.359 -22.4785L592.982 916.865" stroke="#ADBFFD" stroke-width="0.855078"/>
<path d="M-62.6797 -181.078L919.661 758.265" stroke="#ADBFFD" stroke-width="0.855078"/>
<path d="M-498.977 118.387L483.365 1057.73" stroke="#ADBFFD" stroke-width="0.855078"/>
<path d="M83.4746 -368.898L1065.82 570.445" stroke="#ADBFFD" stroke-width="0.855078"/>
<path d="M-352.822 -69.4336L629.519 869.91" stroke="#ADBFFD" stroke-width="0.855078"/>
<path d="M-26.1426 -228.035L956.199 711.308" stroke="#ADBFFD" stroke-width="0.855078"/>
<path d="M-462.438 71.4336L519.904 1010.78" stroke="#ADBFFD" stroke-width="0.855078"/>
<path d="M120.012 -415.854L1102.35 523.49" stroke="#ADBFFD" stroke-width="0.855078"/>
<path d="M-316.283 -116.387L666.058 822.957" stroke="#ADBFFD" stroke-width="0.855078"/>
<path d="M10.3984 -274.99L992.74 664.353" stroke="#ADBFFD" stroke-width="0.855078"/>
<path d="M-425.898 24.4785L556.443 963.822" stroke="#ADBFFD" stroke-width="0.855078"/>
<path d="M156.551 -462.811L1138.89 476.533" stroke="#ADBFFD" stroke-width="0.855078"/>
<path d="M-279.744 -163.344L702.597 776" stroke="#ADBFFD" stroke-width="0.855078"/>
<path d="M-90.084 -145.863L892.257 793.48" stroke="#ADBFFD" stroke-width="0.855078"/>
<path d="M-526.381 153.604L455.96 1092.95" stroke="#ADBFFD" stroke-width="0.855078"/>
<path d="M202.223 -521.504L1184.56 417.84" stroke="#ADBFFD" stroke-width="0.855078"/>
<path d="M-234.07 -222.037L748.271 717.306" stroke="#ADBFFD" stroke-width="0.855078"/>
<path d="M56.0703 -333.684L1038.41 605.66" stroke="#ADBFFD" stroke-width="0.855078"/>
<path d="M-380.225 -34.2168L602.117 905.127" stroke="#ADBFFD" stroke-width="0.855078"/>
<path d="M-53.5469 -192.818L928.794 746.525" stroke="#ADBFFD" stroke-width="0.855078"/>
<path d="M-489.842 106.648L492.499 1045.99" stroke="#ADBFFD" stroke-width="0.855078"/>
<path d="M92.6094 -380.637L1074.95 558.707" stroke="#ADBFFD" stroke-width="0.855078"/>
<path d="M-343.688 -81.1719L638.654 858.172" stroke="#ADBFFD" stroke-width="0.855078"/>
<path d="M-17.0059 -239.773L965.335 699.57" stroke="#ADBFFD" stroke-width="0.855078"/>
<path d="M-453.303 59.6934L529.038 999.037" stroke="#ADBFFD" stroke-width="0.855078"/>
<path d="M129.146 -427.594L1111.49 511.75" stroke="#ADBFFD" stroke-width="0.855078"/>
<path d="M-307.148 -128.125L675.193 811.218" stroke="#ADBFFD" stroke-width="0.855078"/>
<path d="M19.5293 -286.729L1001.87 652.615" stroke="#ADBFFD" stroke-width="0.855078"/>
<path d="M-416.764 12.7383L565.577 952.082" stroke="#ADBFFD" stroke-width="0.855078"/>
<path d="M165.686 -474.549L1148.03 464.795" stroke="#ADBFFD" stroke-width="0.855078"/>
<path d="M-270.609 -175.082L711.732 764.261" stroke="#ADBFFD" stroke-width="0.855078"/>
<path d="M-80.9492 -157.602L901.392 781.742" stroke="#ADBFFD" stroke-width="0.855078"/>
<path d="M-517.246 141.865L465.095 1081.21" stroke="#ADBFFD" stroke-width="0.855078"/>
<path d="M211.357 -533.242L1193.7 406.101" stroke="#ADBFFD" stroke-width="0.855078"/>
<path d="M-224.936 -233.775L757.406 705.568" stroke="#ADBFFD" stroke-width="0.855078"/>
<path d="M65.2031 -345.422L1047.54 593.922" stroke="#ADBFFD" stroke-width="0.855078"/>
<path d="M-371.092 -45.9551L611.249 893.388" stroke="#ADBFFD" stroke-width="0.855078"/>
<path d="M-44.4121 -204.557L937.929 734.787" stroke="#ADBFFD" stroke-width="0.855078"/>
<path d="M-480.707 94.9082L501.634 1034.25" stroke="#ADBFFD" stroke-width="0.855078"/>
<path d="M101.744 -392.377L1084.09 546.966" stroke="#ADBFFD" stroke-width="0.855078"/>
<path d="M-334.553 -92.9082L647.788 846.435" stroke="#ADBFFD" stroke-width="0.855078"/>
<path d="M-7.87305 -251.512L974.468 687.832" stroke="#ADBFFD" stroke-width="0.855078"/>
<path d="M-444.17 47.9531L538.171 987.297" stroke="#ADBFFD" stroke-width="0.855078"/>
<path d="M138.281 -439.332L1120.62 500.011" stroke="#ADBFFD" stroke-width="0.855078"/>
<path d="M-298.014 -139.867L684.327 799.476" stroke="#ADBFFD" stroke-width="0.855078"/>
<path d="M28.6641 -298.467L1011.01 640.877" stroke="#ADBFFD" stroke-width="0.855078"/>
<path d="M-407.631 1L574.71 940.343" stroke="#ADBFFD" stroke-width="0.855078"/>
<path d="M174.82 -486.287L1157.16 453.056" stroke="#ADBFFD" stroke-width="0.855078"/>
<path d="M-261.477 -186.822L720.865 752.521" stroke="#ADBFFD" stroke-width="0.855078"/>
<path d="M-71.8145 -169.34L910.527 770.004" stroke="#ADBFFD" stroke-width="0.855078"/>
<path d="M-508.111 130.125L474.23 1069.47" stroke="#ADBFFD" stroke-width="0.855078"/>
<path d="M74.3398 -357.16L1056.68 582.183" stroke="#ADBFFD" stroke-width="0.855078"/>
<path d="M-361.957 -57.6953L620.384 881.648" stroke="#ADBFFD" stroke-width="0.855078"/>
<path d="M-35.2773 -216.295L947.064 723.049" stroke="#ADBFFD" stroke-width="0.855078"/>
<path d="M-471.572 83.1699L510.769 1022.51" stroke="#ADBFFD" stroke-width="0.855078"/>
<path d="M110.879 -404.115L1093.22 535.228" stroke="#ADBFFD" stroke-width="0.855078"/>
<path d="M-325.418 -104.65L656.923 834.693" stroke="#ADBFFD" stroke-width="0.855078"/>
<path d="M1.26172 -263.25L983.603 676.093" stroke="#ADBFFD" stroke-width="0.855078"/>
<path d="M-435.035 36.2168L547.306 975.56" stroke="#ADBFFD" stroke-width="0.855078"/>
<path d="M147.416 -451.07L1129.76 488.273" stroke="#ADBFFD" stroke-width="0.855078"/>
<path d="M-288.879 -151.604L693.462 787.74" stroke="#ADBFFD" stroke-width="0.855078"/>
<path d="M37.7988 -310.207L1020.14 629.136" stroke="#ADBFFD" stroke-width="0.855078"/>
<path d="M-398.496 -10.7383L583.845 928.605" stroke="#ADBFFD" stroke-width="0.855078"/>
<path d="M183.955 -498.025L1166.3 441.318" stroke="#ADBFFD" stroke-width="0.855078"/>
<path d="M-252.34 -198.561L730.001 740.783" stroke="#ADBFFD" stroke-width="0.855078"/>
</g>
<rect x="15.1776" y="13.8202" width="718.098" height="436.296" rx="3.851" fill="white"/>
<path d="M202.381 388.084L295.424 388.084" stroke="#ADBFFD" stroke-width="0.970192"/>
<path d="M306.172 388.034L294.529 390.555L294.529 385.513L306.172 388.034Z" fill="#ADBFFD"/>
<path d="M491.275 388.084L584.319 388.084" stroke="#ADBFFD" stroke-width="0.970192"/>
<path d="M595.066 388.034L583.424 390.555L583.424 385.513L595.066 388.034Z" fill="#ADBFFD"/>
<path d="M205.021 47.3717C220.011 70.9745 213.03 102.261 189.427 117.251C165.824 132.242 134.538 125.26 119.547 101.657C104.557 78.0546 111.538 46.7685 135.141 31.7779C158.744 16.7874 190.03 23.7689 205.021 47.3717Z" fill="#ADBFFD" stroke="#ADBFFD" stroke-width="1.54215"/>
<path d="M144.333 81.055C143.365 81.055 142.503 80.8919 141.746 80.5657C140.988 80.2278 140.348 79.7675 139.823 79.1849C139.299 78.6023 138.897 77.9207 138.617 77.14C138.338 76.3477 138.198 75.4971 138.198 74.5883C138.198 73.6678 138.338 72.8055 138.617 72.0016C138.897 71.1976 139.299 70.4985 139.823 69.9042C140.348 69.31 140.988 68.8439 141.746 68.506C142.503 68.1681 143.365 67.9992 144.333 67.9992C145.008 67.9992 145.655 68.0982 146.273 68.2963C146.89 68.4944 147.438 68.7856 147.915 69.1702C148.405 69.543 148.807 70.0091 149.121 70.5684C149.436 71.1277 149.634 71.7685 149.716 72.4909H147.059C147.012 72.1763 146.908 71.8909 146.744 71.6345C146.581 71.3665 146.377 71.1335 146.133 70.9354C145.888 70.7373 145.608 70.5859 145.294 70.481C144.991 70.3645 144.67 70.3062 144.333 70.3062C143.715 70.3062 143.191 70.4286 142.76 70.6732C142.328 70.9063 141.979 71.2267 141.711 71.6345C141.443 72.0307 141.245 72.4851 141.117 72.9978C141 73.5105 140.942 74.0406 140.942 74.5883C140.942 75.1126 141 75.6253 141.117 76.1263C141.245 76.6157 141.443 77.0585 141.711 77.4546C141.979 77.8508 142.328 78.1712 142.76 78.4159C143.191 78.6489 143.715 78.7654 144.333 78.7654C145.171 78.7654 145.824 78.5091 146.29 77.9964C146.768 77.4837 147.059 76.8079 147.164 75.969H149.821C149.751 76.7613 149.57 77.4721 149.279 78.1013C148.987 78.7188 148.603 79.249 148.125 79.6918C147.647 80.1345 147.088 80.4724 146.447 80.7055C145.806 80.9385 145.102 81.055 144.333 81.055ZM153.11 73.6095H150.139V71.7394H158.563V73.6095H155.592V80.7754H153.11V73.6095ZM161.848 81.0026C161.417 81.0026 161.015 80.9502 160.642 80.8453C160.269 80.7404 159.943 80.5773 159.663 80.3559C159.384 80.1345 159.162 79.8549 158.999 79.517C158.848 79.1791 158.772 78.7771 158.772 78.311C158.772 77.7983 158.859 77.3789 159.034 77.0526C159.221 76.7147 159.454 76.4467 159.733 76.2487C160.025 76.0506 160.351 75.9049 160.712 75.8117C161.085 75.7068 161.458 75.6253 161.831 75.567C162.203 75.5088 162.57 75.4622 162.932 75.4272C163.293 75.3922 163.613 75.3398 163.893 75.2699C164.173 75.2 164.394 75.1009 164.557 74.9728C164.72 74.833 164.796 74.6349 164.784 74.3785C164.784 74.1222 164.738 73.9125 164.645 73.7493C164.563 73.5862 164.446 73.4639 164.295 73.3823C164.155 73.2891 163.986 73.2308 163.788 73.2075C163.602 73.1726 163.398 73.1551 163.176 73.1551C162.687 73.1551 162.303 73.26 162.023 73.4697C161.743 73.6794 161.58 74.029 161.533 74.5184H159.052C159.087 73.9474 159.232 73.4697 159.489 73.0852C159.745 72.689 160.071 72.3744 160.467 72.1414C160.863 71.9083 161.306 71.7452 161.796 71.652C162.285 71.5471 162.786 71.4947 163.299 71.4947C163.753 71.4947 164.213 71.5297 164.679 71.5996C165.146 71.6578 165.571 71.7802 165.955 71.9666C166.34 72.153 166.654 72.4152 166.899 72.7531C167.144 73.091 167.266 73.5279 167.266 74.0639V78.7654C167.266 79.1733 167.289 79.5636 167.336 79.9365C167.383 80.3093 167.464 80.589 167.581 80.7754H165.064C165.017 80.6356 164.977 80.4957 164.942 80.3559C164.918 80.2045 164.901 80.053 164.889 79.9015C164.493 80.3093 164.027 80.5948 163.491 80.7579C162.955 80.921 162.407 81.0026 161.848 81.0026ZM162.774 79.3597C163.264 79.3597 163.642 79.2781 163.91 79.115C164.178 78.9519 164.377 78.7596 164.505 78.5382C164.633 78.3052 164.709 78.0722 164.732 77.8391C164.767 77.6061 164.784 77.4197 164.784 77.2798V76.3535C164.679 76.4467 164.551 76.5225 164.4 76.5807C164.248 76.6273 164.079 76.6681 163.893 76.7031C163.707 76.738 163.514 76.7672 163.316 76.7905C163.118 76.8138 162.92 76.8429 162.722 76.8779C162.524 76.9128 162.337 76.9594 162.163 77.0177C161.988 77.0759 161.831 77.1575 161.691 77.2624C161.563 77.3556 161.458 77.4779 161.376 77.6294C161.295 77.7809 161.254 77.9731 161.254 78.2062C161.254 78.4392 161.295 78.6315 161.376 78.7829C161.458 78.9227 161.568 79.0393 161.708 79.1325C161.848 79.214 162.011 79.2723 162.198 79.3073C162.384 79.3422 162.576 79.3597 162.774 79.3597ZM168.668 71.7394H171.028V72.8929H171.063C171.366 72.4035 171.75 72.0482 172.216 71.8268C172.682 71.6054 173.195 71.4947 173.754 71.4947C174.465 71.4947 175.077 71.6287 175.589 71.8967C176.102 72.1647 176.527 72.5201 176.865 72.9628C177.203 73.4056 177.454 73.9241 177.617 74.5184C177.78 75.1009 177.862 75.7127 177.862 76.3535C177.862 76.9594 177.78 77.542 177.617 78.1013C177.454 78.6606 177.203 79.1558 176.865 79.5869C176.539 80.018 176.125 80.3618 175.624 80.6181C175.135 80.8744 174.558 81.0026 173.894 81.0026C173.335 81.0026 172.816 80.8919 172.339 80.6705C171.872 80.4375 171.488 80.0996 171.185 79.6568H171.15V83.9389H168.668V71.7394ZM173.23 79.15C173.638 79.15 173.976 79.0684 174.244 78.9053C174.523 78.7421 174.745 78.5324 174.908 78.2761C175.083 78.0081 175.205 77.7051 175.275 77.3672C175.345 77.0177 175.38 76.6565 175.38 76.2836C175.38 75.9224 175.339 75.567 175.257 75.2175C175.187 74.8679 175.065 74.5591 174.89 74.2911C174.716 74.0115 174.488 73.7901 174.209 73.627C173.941 73.4522 173.609 73.3648 173.212 73.3648C172.805 73.3648 172.461 73.4522 172.181 73.627C171.913 73.7901 171.692 74.0057 171.517 74.2737C171.354 74.5417 171.237 74.8563 171.168 75.2175C171.098 75.567 171.063 75.9224 171.063 76.2836C171.063 76.6565 171.098 77.0177 171.168 77.3672C171.249 77.7051 171.371 78.0081 171.535 78.2761C171.709 78.5324 171.931 78.7421 172.199 78.9053C172.478 79.0684 172.822 79.15 173.23 79.15ZM181.031 73.6095H178.06V71.7394H186.484V73.6095H183.513V80.7754H181.031V73.6095Z" fill="white"/>
<rect x="73.609" y="196.086" width="187.115" height="61.6862" fill="white"/>
<rect x="73.609" y="196.086" width="187.115" height="61.6862" stroke="#ADBFFD" stroke-width="1.54215"/>
<rect x="306.988" y="356.986" width="187.115" height="61.6862" fill="white"/>
<rect x="306.988" y="356.986" width="187.115" height="61.6862" stroke="#ADBFFD" stroke-width="1.54215"/>
<path d="M72.4474 227.602H48.1641V388.086H112.163M72.4474 227.602L64.353 235.728M72.4474 227.602L64.353 219.477" stroke="#ADBFFD" stroke-width="1.54215" stroke-dasharray="15.42 5.14"/>
<path d="M689.85 117.557C704.688 140.92 697.778 171.889 674.415 186.727C651.051 201.565 620.083 194.655 605.245 171.292C590.406 147.928 597.317 116.96 620.68 102.122C644.043 87.2832 675.012 94.1939 689.85 117.557Z" fill="white" stroke="#ADBFFD" stroke-width="1.54215"/>
<path d="M622.005 138.206H624.749V143.205L629.626 138.206H633.051L627.668 143.432L633.523 150.686H630.08L625.676 145.145L624.749 146.141V150.686H622.005V138.206ZM638.219 150.913C637.508 150.913 636.867 150.802 636.296 150.581C635.725 150.359 635.236 150.045 634.828 149.637C634.42 149.217 634.106 148.716 633.884 148.134C633.663 147.551 633.552 146.899 633.552 146.176C633.552 145.454 633.663 144.801 633.884 144.219C634.106 143.625 634.42 143.124 634.828 142.716C635.236 142.296 635.725 141.976 636.296 141.754C636.867 141.521 637.508 141.405 638.219 141.405C638.93 141.405 639.571 141.521 640.142 141.754C640.724 141.976 641.219 142.296 641.627 142.716C642.035 143.124 642.35 143.625 642.571 144.219C642.792 144.801 642.903 145.454 642.903 146.176C642.903 146.899 642.792 147.551 642.571 148.134C642.35 148.716 642.035 149.217 641.627 149.637C641.219 150.045 640.724 150.359 640.142 150.581C639.571 150.802 638.93 150.913 638.219 150.913ZM638.219 149.06C638.638 149.06 638.988 148.979 639.268 148.815C639.559 148.652 639.786 148.437 639.949 148.169C640.124 147.889 640.246 147.58 640.316 147.242C640.386 146.893 640.421 146.537 640.421 146.176C640.421 145.815 640.386 145.46 640.316 145.11C640.246 144.761 640.124 144.452 639.949 144.184C639.786 143.916 639.559 143.7 639.268 143.537C638.988 143.362 638.638 143.275 638.219 143.275C637.799 143.275 637.45 143.362 637.17 143.537C636.891 143.7 636.663 143.916 636.489 144.184C636.326 144.452 636.209 144.761 636.139 145.11C636.069 145.46 636.034 145.815 636.034 146.176C636.034 146.537 636.069 146.893 636.139 147.242C636.209 147.58 636.326 147.889 636.489 148.169C636.663 148.437 636.891 148.652 637.17 148.815C637.45 148.979 637.799 149.06 638.219 149.06ZM643.992 141.65H646.474V144.935H649.987V141.65H652.469V150.686H649.987V146.893H646.474V150.686H643.992V141.65ZM658.006 150.913C657.295 150.913 656.654 150.802 656.083 150.581C655.512 150.348 655.029 150.021 654.632 149.602C654.236 149.182 653.927 148.681 653.706 148.099C653.496 147.516 653.391 146.875 653.391 146.176C653.391 145.5 653.502 144.871 653.724 144.289C653.945 143.706 654.259 143.205 654.667 142.786C655.075 142.354 655.559 142.017 656.118 141.772C656.689 141.527 657.318 141.405 658.006 141.405C658.728 141.405 659.363 141.539 659.911 141.807C660.47 142.075 660.93 142.436 661.291 142.89C661.664 143.333 661.944 143.852 662.13 144.446C662.317 145.04 662.41 145.658 662.41 146.299C662.41 146.38 662.41 146.462 662.41 146.543C662.41 146.613 662.404 146.689 662.392 146.771H655.873C655.908 147.575 656.112 148.157 656.485 148.518C656.858 148.88 657.394 149.06 658.093 149.06C658.594 149.06 659.025 148.938 659.386 148.693C659.748 148.437 659.969 148.169 660.05 147.889H662.235C661.886 148.973 661.35 149.748 660.627 150.214C659.905 150.68 659.031 150.913 658.006 150.913ZM659.911 145.198C659.794 144.568 659.584 144.091 659.281 143.764C658.99 143.438 658.542 143.275 657.936 143.275C657.528 143.275 657.196 143.345 656.939 143.485C656.683 143.613 656.473 143.776 656.31 143.974C656.159 144.172 656.048 144.382 655.978 144.603C655.92 144.825 655.885 145.023 655.873 145.198H659.911ZM670.436 150.686H663.34V141.65H665.822V148.815H669.16V141.65H671.642V148.815H672.761V153.167H670.436V150.686Z" fill="#104A99"/>
<path d="M647.035 367.523L647.035 206.111" stroke="#ADBFFD" stroke-width="0.970192"/>
<path d="M646.985 195.315L649.506 206.957L644.465 206.957L646.985 195.315Z" fill="#ADBFFD"/>
<rect x="162.344" y="336.741" width="72.9639" height="72.694" transform="rotate(45 162.344 336.741)" fill="white"/>
<rect x="162.344" y="336.741" width="72.9639" height="72.694" transform="rotate(45 162.344 336.741)" stroke="#ADBFFD" stroke-width="1.54215"/>
<rect x="647.607" y="336.741" width="72.9639" height="72.694" transform="rotate(45 647.607 336.741)" fill="white"/>
<rect x="647.607" y="336.741" width="72.9639" height="72.694" transform="rotate(45 647.607 336.741)" stroke="#ADBFFD" stroke-width="1.54215"/>
<path d="M162.283 118.209L162.283 184.522" stroke="#ADBFFD" stroke-width="0.970192"/>
<path d="M162.234 195.265L159.713 183.623L164.754 183.623L162.234 195.265Z" fill="#ADBFFD"/>
<path d="M162.283 258.543L162.283 324.856" stroke="#ADBFFD" stroke-width="0.970192"/>
<path d="M162.234 335.599L159.713 323.957L164.754 323.957L162.234 335.599Z" fill="#ADBFFD"/>
<path d="M620.819 361.612L483.053 228.729H260.982M260.982 228.729L270.235 219.477M260.982 228.729L270.235 237.982" stroke="#ADBFFD" stroke-width="1.54215" stroke-dasharray="15.42 5.14"/>
<rect x="15.1776" y="13.8202" width="718.098" height="436.296" rx="3.851" stroke="#ADBFFD" stroke-width="1.35918"/>
</svg>
