<svg width="146" height="18" viewBox="0 0 146 18" fill="none" xmlns="http://www.w3.org/2000/svg">
<path d="M3.474 12.186C4.65 12.186 5.58 11.736 6.264 10.836C6.948 9.936 7.314 8.622 7.362 6.894H5.328C4.728 6.894 4.284 7.05 3.996 7.362C3.72 7.674 3.582 8.154 3.582 8.802H3.042V4.338H3.582C3.582 4.986 3.72 5.466 3.996 5.778C4.272 6.078 4.716 6.228 5.328 6.228H7.362C7.314 4.476 6.936 3.114 6.228 2.142C5.532 1.158 4.704 0.666 3.744 0.666C2.112 0.666 1.104 2.13 0.72 5.058H0.108V1.854C0.864 0.618 2.1 0 3.816 0C5.364 0 6.66 0.552 7.704 1.656C8.76 2.76 9.288 4.35 9.288 6.426C9.288 8.586 8.826 10.332 7.902 11.664C6.978 12.996 5.658 13.662 3.942 13.662C2.886 13.662 2.01 13.38 1.314 12.816C0.63 12.24 0.192 11.568 0 10.8V10.08C0.372 10.728 0.858 11.244 1.458 11.628C2.058 12 2.73 12.186 3.474 12.186Z" fill="#1C2229"/>
<path d="M13.677 1.836V6.246H19.365V1.836C19.365 1.044 18.879 0.648 17.907 0.648V0.216H22.569V0.648C21.597 0.648 21.111 1.044 21.111 1.836V11.826C21.111 12.618 21.597 13.014 22.569 13.014V13.446H17.907V13.014C18.879 13.014 19.365 12.618 19.365 11.826V6.948H13.677V11.826C13.677 12.618 14.163 13.014 15.135 13.014V13.446H10.473V13.014C11.445 13.014 11.931 12.618 11.931 11.826V1.836C11.931 1.044 11.445 0.648 10.473 0.648V0.216H15.135V0.648C14.163 0.648 13.677 1.044 13.677 1.836Z" fill="#1C2229"/>
<path d="M34.1062 1.836V11.484C34.1062 12.276 34.5922 12.672 35.5642 12.672H35.8162V17.118H35.2042C35.0122 15.822 34.8202 14.982 34.6282 14.598C34.3042 13.95 33.6862 13.578 32.7742 13.482C32.5702 13.458 32.3482 13.446 32.1082 13.446H23.4682V13.014C24.4402 13.014 24.9262 12.618 24.9262 11.826V1.836C24.9262 1.044 24.4402 0.648 23.4682 0.648V0.216H28.1302V0.648C27.1582 0.648 26.6722 1.044 26.6722 1.836V12.672H32.3602V1.836C32.3602 1.044 31.8742 0.648 30.9022 0.648V0.216H35.5642V0.648C34.5922 0.648 34.1062 1.044 34.1062 1.836Z" fill="#1C2229"/>
<path d="M39.931 1.836V9.864L45.853 1.836C45.853 1.044 45.367 0.648 44.395 0.648V0.216H49.057V0.648C48.085 0.648 47.599 1.044 47.599 1.836V11.826C47.599 12.618 48.085 13.014 49.057 13.014V13.446H44.395V13.014C45.367 13.014 45.853 12.618 45.853 11.826V3.186L39.931 11.178V11.826C39.931 12.618 40.417 13.014 41.389 13.014V13.446H36.727V13.014C37.699 13.014 38.185 12.618 38.185 11.826V1.836C38.185 1.044 37.699 0.648 36.727 0.648V0.216H41.389V0.648C40.417 0.648 39.931 1.044 39.931 1.836Z" fill="#1C2229"/>
<path d="M53.1547 8.514V11.88C53.1547 12.636 53.6407 13.014 54.6127 13.014V13.446H49.9507V13.014C50.9227 13.014 51.4087 12.618 51.4087 11.826V1.836C51.4087 1.044 50.9227 0.648 49.9507 0.648V0.216H54.6127V0.648C53.6407 0.648 53.1547 1.062 53.1547 1.89V7.272L57.2767 2.196C57.5887 1.8 57.7447 1.488 57.7447 1.26C57.7447 0.852 57.3547 0.648 56.5747 0.648V0.216H61.0207V0.648C60.0127 0.648 59.2147 1.014 58.6267 1.746L55.8007 5.22L59.7607 11.952C60.1567 12.636 60.7327 12.978 61.4887 12.978V13.446H58.6267L54.6667 6.642L53.1547 8.514Z" fill="#1C2229"/>
<path d="M66.2756 0.882L66.1676 3.438C65.8916 10.254 64.8236 13.662 62.9636 13.662C62.2316 13.662 61.7516 13.302 61.5236 12.582V11.556C61.8716 11.904 62.3276 12.078 62.8916 12.078C63.6716 12.078 64.2596 11.256 64.6556 9.612C65.0636 7.956 65.3156 5.364 65.4116 1.836C65.4236 1.464 65.3096 1.176 65.0696 0.972C64.8416 0.756 64.4696 0.648 63.9536 0.648V0.216H72.9716V0.648C71.9996 0.648 71.5136 1.044 71.5136 1.836V11.826C71.5136 12.618 71.9996 13.014 72.9716 13.014V13.446H68.3096V13.014C69.2816 13.014 69.7676 12.618 69.7676 11.826V0.882H66.2756Z" fill="#1C2229"/>
<path d="M83.1908 11.844C82.1828 13.056 80.9288 13.662 79.4288 13.662C77.9288 13.662 76.6688 13.056 75.6488 11.844C74.6408 10.632 74.1368 8.916 74.1368 6.696C74.1368 4.5 74.6408 2.838 75.6488 1.71C76.6568 0.57 77.9168 0 79.4288 0C80.9408 0 82.2008 0.57 83.2088 1.71C84.2168 2.838 84.7208 4.5 84.7208 6.696C84.7208 8.916 84.2108 10.632 83.1908 11.844ZM76.9268 11.358C77.4908 12.45 78.3248 12.996 79.4288 12.996C80.5328 12.996 81.3608 12.45 81.9128 11.358C82.4768 10.254 82.7588 8.694 82.7588 6.678C82.7588 2.67 81.6488 0.666 79.4288 0.666C77.2088 0.666 76.0988 2.67 76.0988 6.678C76.0988 8.694 76.3748 10.254 76.9268 11.358Z" fill="#1C2229"/>
<path d="M85.8952 0.216H97.9192V0.648C96.9472 0.648 96.4612 1.044 96.4612 1.836V11.826C96.4612 12.618 96.9472 13.014 97.9192 13.014V13.446H93.2572V13.014C94.2292 13.014 94.7152 12.618 94.7152 11.826V0.882H89.0992V11.826C89.0992 12.618 89.5852 13.014 90.5572 13.014V13.446H85.8952V13.014C86.8672 13.014 87.3532 12.618 87.3532 11.826V1.836C87.3532 1.044 86.8672 0.648 85.8952 0.648V0.216Z" fill="#1C2229"/>
<path d="M107.766 9.504H108.288V13.446H98.82V13.014C99.792 13.014 100.278 12.618 100.278 11.826V1.836C100.278 1.044 99.792 0.648 98.82 0.648V0.216H107.91V3.942H107.388C107.292 3.342 107.19 2.874 107.082 2.538C106.986 2.202 106.824 1.896 106.596 1.62C106.38 1.344 106.086 1.152 105.714 1.044C105.354 0.936 104.88 0.882 104.292 0.882H102.024V6.228H103.086C104.286 6.228 104.886 5.568 104.886 4.248H105.426V8.892H104.886C104.886 7.56 104.286 6.894 103.086 6.894H102.024V12.78H104.544C105.168 12.78 105.672 12.726 106.056 12.618C106.452 12.498 106.764 12.288 106.992 11.988C107.22 11.688 107.382 11.358 107.478 10.998C107.586 10.638 107.682 10.14 107.766 9.504Z" fill="#1C2229"/>
<path d="M120.815 17.118H120.203C120.011 15.822 119.819 14.982 119.627 14.598C119.303 13.95 118.685 13.578 117.773 13.482C117.569 13.458 117.347 13.446 117.107 13.446H112.751C112.391 13.446 112.073 13.47 111.797 13.518C111.521 13.578 111.281 13.644 111.077 13.716C110.885 13.8 110.711 13.932 110.555 14.112C110.411 14.304 110.297 14.472 110.213 14.616C110.129 14.772 110.045 15.006 109.961 15.318C109.889 15.63 109.835 15.894 109.799 16.11C109.763 16.338 109.715 16.674 109.655 17.118H109.043V12.78C109.655 12.732 110.225 12.33 110.753 11.574C111.281 10.806 111.695 9.888 111.995 8.82C112.307 7.74 112.547 6.654 112.715 5.562C112.895 4.458 112.985 3.48 112.985 2.628V1.836C112.985 1.044 112.499 0.648 111.527 0.648V0.216H120.563V0.648C119.591 0.648 119.105 1.044 119.105 1.836V11.592C119.105 12.384 119.591 12.78 120.563 12.78H120.815V17.118ZM117.359 12.78V0.882H113.723V2.466C113.723 4.482 113.423 6.522 112.823 8.586C112.235 10.65 111.575 12.048 110.843 12.78H117.359Z" fill="#1C2229"/>
<path d="M124.938 1.836V9.864L130.86 1.836C130.86 1.044 130.374 0.648 129.402 0.648V0.216H134.064V0.648C133.092 0.648 132.606 1.044 132.606 1.836V11.826C132.606 12.618 133.092 13.014 134.064 13.014V13.446H129.402V13.014C130.374 13.014 130.86 12.618 130.86 11.826V3.186L124.938 11.178V11.826C124.938 12.618 125.424 13.014 126.396 13.014V13.446H121.734V13.014C122.706 13.014 123.192 12.618 123.192 11.826V1.836C123.192 1.044 122.706 0.648 121.734 0.648V0.216H126.396V0.648C125.424 0.648 124.938 1.044 124.938 1.836Z" fill="#1C2229"/>
<path d="M141.24 0.216H145.47V0.648C144.498 0.648 144.012 1.044 144.012 1.836V11.826C144.012 12.618 144.498 13.014 145.47 13.014V13.446H140.808V13.014C141.78 13.014 142.266 12.618 142.266 11.826V7.488H141.546C141.162 7.488 140.892 7.56 140.736 7.704C140.58 7.836 140.352 8.172 140.052 8.712L137.352 13.446H134.418V13.032C134.85 13.032 135.192 12.966 135.444 12.834C135.696 12.702 135.918 12.474 136.11 12.15L138.918 7.236C138.006 7.032 137.31 6.63 136.83 6.03C136.362 5.418 136.128 4.716 136.128 3.924C136.128 3.24 136.266 2.652 136.542 2.16C136.818 1.668 137.202 1.284 137.694 1.008C138.186 0.732 138.72 0.534 139.296 0.414C139.884 0.282 140.532 0.216 141.24 0.216ZM141.402 6.822H142.266V0.882H141.474C139.218 0.882 138.09 1.836 138.09 3.744C138.09 5.796 139.194 6.822 141.402 6.822Z" fill="#1C2229"/>
</svg>
