<svg width="748" height="463" viewBox="0 0 748 463" fill="none" xmlns="http://www.w3.org/2000/svg">
<rect x="0.906667" y="1.04339" width="746.187" height="460.587" rx="3.37132" fill="white" stroke="#ADBFFD" stroke-width="1.81333"/>
<mask id="mask0_1896_2575" style="mask-type:alpha" maskUnits="userSpaceOnUse" x="0" y="1" width="748" height="462">
<path d="M7.4589e-07 5.32099C3.33947e-07 2.95832 1.91532 1.043 4.27798 1.043L743.723 1.043C746.085 1.043 748.001 2.95831 748.001 5.32098L748.001 458.259C748.001 460.621 746.085 462.537 743.723 462.537L4.27803 462.535C1.91537 462.535 8.01298e-05 460.62 7.97178e-05 458.257L7.4589e-07 5.32099Z" fill="#D9D9D9"/>
</mask>
<g mask="url(#mask0_1896_2575)">
<path d="M-70.2637 -89.207L912.674 698.117" stroke="#ADBFFD" stroke-width="0.855597"/>
<path d="M-506.826 161.797L476.111 949.121" stroke="#ADBFFD" stroke-width="0.855597"/>
<path d="M222.223 -404.055L1205.16 383.27" stroke="#ADBFFD" stroke-width="0.855597"/>
<path d="M-214.338 -153.053L768.6 634.272" stroke="#ADBFFD" stroke-width="0.855597"/>
<path d="M75.9766 -246.631L1058.91 540.693" stroke="#ADBFFD" stroke-width="0.855597"/>
<path d="M-360.582 4.37109L622.355 791.695" stroke="#ADBFFD" stroke-width="0.855597"/>
<path d="M-33.7051 -128.562L949.232 658.762" stroke="#ADBFFD" stroke-width="0.855597"/>
<path d="M-470.264 122.439L512.674 909.764" stroke="#ADBFFD" stroke-width="0.855597"/>
<path d="M112.539 -285.988L1095.48 501.336" stroke="#ADBFFD" stroke-width="0.855597"/>
<path d="M-324.023 -34.9844L658.914 752.34" stroke="#ADBFFD" stroke-width="0.855597"/>
<path d="M2.85547 -167.92L985.793 619.404" stroke="#ADBFFD" stroke-width="0.855597"/>
<path d="M-433.703 83.084L549.234 870.408" stroke="#ADBFFD" stroke-width="0.855597"/>
<path d="M149.1 -325.344L1132.04 461.981" stroke="#ADBFFD" stroke-width="0.855597"/>
<path d="M-287.461 -74.3398L695.477 712.984" stroke="#ADBFFD" stroke-width="0.855597"/>
<path d="M39.418 -207.275L1022.36 580.049" stroke="#ADBFFD" stroke-width="0.855597"/>
<path d="M-397.141 43.7285L585.797 831.053" stroke="#ADBFFD" stroke-width="0.855597"/>
<path d="M185.66 -364.699L1168.6 422.625" stroke="#ADBFFD" stroke-width="0.855597"/>
<path d="M-250.898 -113.697L732.039 673.627" stroke="#ADBFFD" stroke-width="0.855597"/>
<path d="M-61.125 -99.0469L921.812 688.277" stroke="#ADBFFD" stroke-width="0.855597"/>
<path d="M-497.686 151.957L485.252 939.281" stroke="#ADBFFD" stroke-width="0.855597"/>
<path d="M231.361 -413.893L1214.3 373.432" stroke="#ADBFFD" stroke-width="0.855597"/>
<path d="M-205.197 -162.893L777.74 624.432" stroke="#ADBFFD" stroke-width="0.855597"/>
<path d="M85.1191 -256.471L1068.06 530.854" stroke="#ADBFFD" stroke-width="0.855597"/>
<path d="M-351.443 -5.4668L631.494 781.857" stroke="#ADBFFD" stroke-width="0.855597"/>
<path d="M-24.5645 -138.402L958.373 648.922" stroke="#ADBFFD" stroke-width="0.855597"/>
<path d="M-461.125 112.602L521.812 899.926" stroke="#ADBFFD" stroke-width="0.855597"/>
<path d="M121.68 -295.824L1104.62 491.5" stroke="#ADBFFD" stroke-width="0.855597"/>
<path d="M-314.881 -44.8223L668.057 742.502" stroke="#ADBFFD" stroke-width="0.855597"/>
<path d="M11.998 -177.756L994.936 609.568" stroke="#ADBFFD" stroke-width="0.855597"/>
<path d="M-424.564 73.2441L558.373 860.568" stroke="#ADBFFD" stroke-width="0.855597"/>
<path d="M158.24 -335.18L1141.18 452.145" stroke="#ADBFFD" stroke-width="0.855597"/>
<path d="M-278.32 -84.1777L704.617 703.147" stroke="#ADBFFD" stroke-width="0.855597"/>
<path d="M48.5586 -217.115L1031.5 570.209" stroke="#ADBFFD" stroke-width="0.855597"/>
<path d="M-388.004 33.8887L594.934 821.213" stroke="#ADBFFD" stroke-width="0.855597"/>
<path d="M194.799 -374.539L1177.74 412.785" stroke="#ADBFFD" stroke-width="0.855597"/>
<path d="M-241.758 -123.537L741.18 663.787" stroke="#ADBFFD" stroke-width="0.855597"/>
<path d="M-51.9844 -108.883L930.953 678.441" stroke="#ADBFFD" stroke-width="0.855597"/>
<path d="M-488.547 142.115L494.391 929.44" stroke="#ADBFFD" stroke-width="0.855597"/>
<path d="M240.502 -423.734L1223.44 363.59" stroke="#ADBFFD" stroke-width="0.855597"/>
<path d="M-196.057 -172.732L786.881 614.592" stroke="#ADBFFD" stroke-width="0.855597"/>
<path d="M94.2559 -266.307L1077.19 521.018" stroke="#ADBFFD" stroke-width="0.855597"/>
<path d="M-342.303 -15.3086L640.635 772.016" stroke="#ADBFFD" stroke-width="0.855597"/>
<path d="M-15.4238 -148.24L967.514 639.084" stroke="#ADBFFD" stroke-width="0.855597"/>
<path d="M-451.984 102.76L530.953 890.084" stroke="#ADBFFD" stroke-width="0.855597"/>
<path d="M130.816 -305.664L1113.75 481.66" stroke="#ADBFFD" stroke-width="0.855597"/>
<path d="M-305.74 -54.6641L677.197 732.66" stroke="#ADBFFD" stroke-width="0.855597"/>
<path d="M21.1367 -187.596L1004.07 599.729" stroke="#ADBFFD" stroke-width="0.855597"/>
<path d="M-415.424 63.4023L567.514 850.727" stroke="#ADBFFD" stroke-width="0.855597"/>
<path d="M167.379 -345.021L1150.32 442.303" stroke="#ADBFFD" stroke-width="0.855597"/>
<path d="M-269.18 -94.0195L713.758 693.305" stroke="#ADBFFD" stroke-width="0.855597"/>
<path d="M57.6973 -226.951L1040.63 560.373" stroke="#ADBFFD" stroke-width="0.855597"/>
<path d="M-378.863 24.0488L604.074 811.373" stroke="#ADBFFD" stroke-width="0.855597"/>
<path d="M203.941 -384.377L1186.88 402.947" stroke="#ADBFFD" stroke-width="0.855597"/>
<path d="M-232.619 -133.377L750.318 653.947" stroke="#ADBFFD" stroke-width="0.855597"/>
<path d="M-42.8438 -118.725L940.094 668.6" stroke="#ADBFFD" stroke-width="0.855597"/>
<path d="M-479.404 132.277L503.533 919.602" stroke="#ADBFFD" stroke-width="0.855597"/>
<path d="M103.398 -276.148L1086.34 511.176" stroke="#ADBFFD" stroke-width="0.855597"/>
<path d="M-333.162 -25.1445L649.775 762.18" stroke="#ADBFFD" stroke-width="0.855597"/>
<path d="M-6.28516 -158.08L976.652 629.244" stroke="#ADBFFD" stroke-width="0.855597"/>
<path d="M-442.844 92.9219L540.094 880.246" stroke="#ADBFFD" stroke-width="0.855597"/>
<path d="M139.959 -315.504L1122.9 471.82" stroke="#ADBFFD" stroke-width="0.855597"/>
<path d="M-296.602 -64.502L686.336 722.822" stroke="#ADBFFD" stroke-width="0.855597"/>
<path d="M30.2793 -197.436L1013.22 589.889" stroke="#ADBFFD" stroke-width="0.855597"/>
<path d="M-406.283 53.5664L576.654 840.891" stroke="#ADBFFD" stroke-width="0.855597"/>
<path d="M176.52 -354.859L1159.46 432.465" stroke="#ADBFFD" stroke-width="0.855597"/>
<path d="M-260.039 -103.857L722.898 683.467" stroke="#ADBFFD" stroke-width="0.855597"/>
<path d="M66.8359 -236.793L1049.77 550.531" stroke="#ADBFFD" stroke-width="0.855597"/>
<path d="M-369.723 14.2109L613.215 801.535" stroke="#ADBFFD" stroke-width="0.855597"/>
<path d="M213.082 -394.217L1196.02 393.107" stroke="#ADBFFD" stroke-width="0.855597"/>
<path d="M-223.479 -143.213L759.459 644.111" stroke="#ADBFFD" stroke-width="0.855597"/>
</g>
<rect x="8.84406" y="11.6976" width="729.414" height="441.547" rx="3.85334" fill="white" stroke="#ADBFFD" stroke-width="1.36" stroke-dasharray="13.6 4.53"/>
<rect x="731.459" y="21.2171" width="415.707" height="714.907" transform="rotate(90 731.459 21.2171)" fill="white" stroke="#ADBFFD" stroke-width="1.36"/>
<rect x="731.459" y="21.2171" width="33.5467" height="707.654" transform="rotate(90 731.459 21.2171)" fill="white" stroke="#ADBFFD" stroke-width="1.36"/>
<path d="M223.193 40.1301C223.398 39.8526 223.562 39.5084 223.686 39.0974C223.809 38.6863 223.871 38.188 223.871 37.6023C223.871 37.1193 223.814 36.6518 223.701 36.1997C223.598 35.7475 223.429 35.3468 223.193 34.9974C222.956 34.6378 222.648 34.3552 222.268 34.1497C221.888 33.9339 221.425 33.826 220.881 33.826C220.336 33.826 219.874 33.9339 219.493 34.1497C219.113 34.3552 218.805 34.6378 218.569 34.9974C218.332 35.3468 218.158 35.7475 218.045 36.1997C217.942 36.6518 217.89 37.1193 217.89 37.6023C217.89 38.0647 217.942 38.5168 218.045 38.9586C218.158 39.3902 218.332 39.7807 218.569 40.1301C218.805 40.4794 219.113 40.762 219.493 40.9778C219.874 41.1833 220.336 41.2861 220.881 41.2861C221.137 41.2861 221.333 41.2758 221.466 41.2552C221.6 41.2347 221.728 41.1936 221.852 41.1319L220.819 40.1917L221.944 38.9895L223.193 40.1301ZM223.547 42.6733C222.818 43.0946 221.929 43.3052 220.881 43.3052C220.038 43.3052 219.278 43.1613 218.599 42.8736C217.931 42.5756 217.366 42.1698 216.904 41.656C216.442 41.1422 216.087 40.5411 215.84 39.8526C215.594 39.1539 215.47 38.4038 215.47 37.6023C215.47 36.7802 215.594 36.0198 215.84 35.3211C216.087 34.6121 216.442 33.9955 216.904 33.4715C217.366 32.9474 217.931 32.5364 218.599 32.2384C219.278 31.9404 220.038 31.7914 220.881 31.7914C221.733 31.7914 222.494 31.9404 223.162 32.2384C223.83 32.5364 224.395 32.9474 224.857 33.4715C225.32 33.9955 225.674 34.6121 225.921 35.3211C226.167 36.0198 226.291 36.7802 226.291 37.6023C226.291 38.4038 226.167 39.1487 225.921 39.8372C225.674 40.5257 225.32 41.1319 224.857 41.656L226.229 42.9045L225.104 44.0759L223.547 42.6733ZM232.461 43.0586H230.272V36.0609H227.559V34.4117C227.94 34.422 228.304 34.3963 228.654 34.3346C229.013 34.2627 229.332 34.1445 229.609 33.9801C229.897 33.8054 230.139 33.5794 230.334 33.3019C230.529 33.0245 230.658 32.6803 230.719 32.2693H232.461V43.0586Z" fill="#104A99"/>
<path d="M361.456 40.1301C361.662 39.8526 361.826 39.5084 361.949 39.0974C362.073 38.6863 362.134 38.188 362.134 37.6023C362.134 37.1193 362.078 36.6518 361.965 36.1997C361.862 35.7475 361.693 35.3468 361.456 34.9974C361.22 34.6378 360.912 34.3552 360.531 34.1497C360.151 33.9339 359.689 33.826 359.144 33.826C358.6 33.826 358.137 33.9339 357.757 34.1497C357.377 34.3552 357.069 34.6378 356.832 34.9974C356.596 35.3468 356.421 35.7475 356.308 36.1997C356.205 36.6518 356.154 37.1193 356.154 37.6023C356.154 38.0647 356.205 38.5168 356.308 38.9586C356.421 39.3902 356.596 39.7807 356.832 40.1301C357.069 40.4794 357.377 40.762 357.757 40.9778C358.137 41.1833 358.6 41.2861 359.144 41.2861C359.401 41.2861 359.596 41.2758 359.73 41.2552C359.864 41.2347 359.992 41.1936 360.115 41.1319L359.083 40.1917L360.208 38.9895L361.456 40.1301ZM361.811 42.6733C361.081 43.0946 360.192 43.3052 359.144 43.3052C358.302 43.3052 357.541 43.1613 356.863 42.8736C356.195 42.5756 355.63 42.1698 355.168 41.656C354.705 41.1422 354.351 40.5411 354.104 39.8526C353.857 39.1539 353.734 38.4038 353.734 37.6023C353.734 36.7802 353.857 36.0198 354.104 35.3211C354.351 34.6121 354.705 33.9955 355.168 33.4715C355.63 32.9474 356.195 32.5364 356.863 32.2384C357.541 31.9404 358.302 31.7914 359.144 31.7914C359.997 31.7914 360.757 31.9404 361.425 32.2384C362.093 32.5364 362.658 32.9474 363.121 33.4715C363.583 33.9955 363.938 34.6121 364.184 35.3211C364.431 36.0198 364.554 36.7802 364.554 37.6023C364.554 38.4038 364.431 39.1487 364.184 39.8372C363.938 40.5257 363.583 41.1319 363.121 41.656L364.493 42.9045L363.367 44.0759L361.811 42.6733ZM365.253 36.4154C365.232 35.7989 365.304 35.2286 365.469 34.7046C365.633 34.1702 365.88 33.7078 366.208 33.3174C366.537 32.9166 366.948 32.6083 367.442 32.3926C367.945 32.1665 368.52 32.0535 369.168 32.0535C369.661 32.0535 370.129 32.1305 370.57 32.2847C371.023 32.4388 371.418 32.6597 371.757 32.9474C372.096 33.2352 372.364 33.5897 372.559 34.011C372.764 34.4323 372.867 34.9049 372.867 35.429C372.867 35.9736 372.78 36.4411 372.605 36.8316C372.43 37.2221 372.199 37.5714 371.911 37.8797C371.624 38.1777 371.295 38.45 370.925 38.6966C370.565 38.9432 370.201 39.1898 369.831 39.4365C369.461 39.6728 369.101 39.9297 368.752 40.2071C368.402 40.4846 368.094 40.8082 367.827 41.1782H372.929V43.0586H365.006C365.006 42.4318 365.094 41.8872 365.268 41.4248C365.453 40.9624 365.7 40.5514 366.008 40.1917C366.316 39.8218 366.676 39.4827 367.087 39.1744C367.508 38.8662 367.95 38.5528 368.413 38.2342C368.649 38.0698 368.901 37.9054 369.168 37.741C369.435 37.5663 369.676 37.3762 369.892 37.1707C370.118 36.9652 370.303 36.734 370.447 36.4771C370.601 36.2202 370.678 35.9274 370.678 35.5985C370.678 35.0745 370.524 34.6686 370.216 34.3809C369.918 34.0829 369.533 33.9339 369.06 33.9339C368.741 33.9339 368.469 34.011 368.243 34.1651C368.027 34.309 367.853 34.5042 367.719 34.7508C367.585 34.9871 367.488 35.2543 367.426 35.5523C367.375 35.84 367.349 36.1277 367.349 36.4154H365.253Z" fill="#104A99"/>
<path d="M499.724 40.1301C499.929 39.8526 500.094 39.5084 500.217 39.0974C500.34 38.6863 500.402 38.188 500.402 37.6023C500.402 37.1193 500.345 36.6518 500.232 36.1997C500.13 35.7475 499.96 35.3468 499.724 34.9974C499.487 34.6378 499.179 34.3552 498.799 34.1497C498.419 33.9339 497.956 33.826 497.412 33.826C496.867 33.826 496.405 33.9339 496.025 34.1497C495.644 34.3552 495.336 34.6378 495.1 34.9974C494.863 35.3468 494.689 35.7475 494.576 36.1997C494.473 36.6518 494.422 37.1193 494.422 37.6023C494.422 38.0647 494.473 38.5168 494.576 38.9586C494.689 39.3902 494.863 39.7807 495.1 40.1301C495.336 40.4794 495.644 40.762 496.025 40.9778C496.405 41.1833 496.867 41.2861 497.412 41.2861C497.669 41.2861 497.864 41.2758 497.998 41.2552C498.131 41.2347 498.26 41.1936 498.383 41.1319L497.35 40.1917L498.475 38.9895L499.724 40.1301ZM500.078 42.6733C499.349 43.0946 498.46 43.3052 497.412 43.3052C496.569 43.3052 495.809 43.1613 495.131 42.8736C494.463 42.5756 493.898 42.1698 493.435 41.656C492.973 41.1422 492.618 40.5411 492.372 39.8526C492.125 39.1539 492.002 38.4038 492.002 37.6023C492.002 36.7802 492.125 36.0198 492.372 35.3211C492.618 34.6121 492.973 33.9955 493.435 33.4715C493.898 32.9474 494.463 32.5364 495.131 32.2384C495.809 31.9404 496.569 31.7914 497.412 31.7914C498.265 31.7914 499.025 31.9404 499.693 32.2384C500.361 32.5364 500.926 32.9474 501.388 33.4715C501.851 33.9955 502.205 34.6121 502.452 35.3211C502.699 36.0198 502.822 36.7802 502.822 37.6023C502.822 38.4038 502.699 39.1487 502.452 39.8372C502.205 40.5257 501.851 41.1319 501.388 41.656L502.76 42.9045L501.635 44.0759L500.078 42.6733ZM506.464 36.6312C506.701 36.6518 506.952 36.6518 507.22 36.6312C507.487 36.6107 507.733 36.5542 507.959 36.4617C508.196 36.3589 508.386 36.2151 508.53 36.0301C508.684 35.8451 508.761 35.5985 508.761 35.2903C508.761 34.8279 508.607 34.4734 508.299 34.2267C507.99 33.9801 507.636 33.8568 507.235 33.8568C506.68 33.8568 506.259 34.0418 505.971 34.4117C505.694 34.7714 505.56 35.2286 505.57 35.7835H503.49C503.51 35.2286 503.608 34.7251 503.782 34.273C503.967 33.8106 504.219 33.415 504.538 33.0862C504.867 32.7573 505.257 32.5056 505.709 32.3309C506.161 32.1459 506.665 32.0535 507.22 32.0535C507.651 32.0535 508.083 32.1203 508.514 32.2538C508.946 32.3771 509.331 32.5672 509.67 32.8241C510.02 33.081 510.302 33.3944 510.518 33.7643C510.734 34.1343 510.842 34.5607 510.842 35.0437C510.842 35.5677 510.713 36.0301 510.456 36.4309C510.21 36.8316 509.835 37.1039 509.331 37.2478V37.2786C509.927 37.4122 510.395 37.6999 510.734 38.1417C511.073 38.5836 511.243 39.1128 511.243 39.7293C511.243 40.2945 511.129 40.798 510.903 41.2398C510.688 41.6817 510.395 42.0516 510.025 42.3496C509.655 42.6476 509.229 42.8736 508.746 43.0278C508.263 43.1819 507.759 43.259 507.235 43.259C506.629 43.259 506.074 43.1716 505.57 42.9969C505.077 42.8223 504.656 42.5705 504.307 42.2417C503.957 41.9026 503.685 41.4916 503.49 41.0086C503.305 40.5257 503.217 39.9708 503.228 39.344H505.308C505.319 39.6317 505.365 39.9091 505.447 40.1763C505.529 40.4332 505.647 40.6592 505.802 40.8545C505.956 41.0394 506.146 41.1884 506.372 41.3015C506.608 41.4145 506.886 41.471 507.204 41.471C507.697 41.471 508.114 41.322 508.453 41.024C508.792 40.7158 508.961 40.2996 508.961 39.7756C508.961 39.3645 508.879 39.0511 508.715 38.8353C508.561 38.6195 508.36 38.4654 508.114 38.3729C507.867 38.2702 507.595 38.2137 507.297 38.2034C507.009 38.1828 506.732 38.1726 506.464 38.1726V36.6312Z" fill="#104A99"/>
<path d="M637.987 40.1301C638.193 39.8526 638.357 39.5084 638.481 39.0974C638.604 38.6863 638.666 38.188 638.666 37.6023C638.666 37.1193 638.609 36.6518 638.496 36.1997C638.393 35.7475 638.224 35.3468 637.987 34.9974C637.751 34.6378 637.443 34.3552 637.063 34.1497C636.682 33.9339 636.22 33.826 635.675 33.826C635.131 33.826 634.668 33.9339 634.288 34.1497C633.908 34.3552 633.6 34.6378 633.363 34.9974C633.127 35.3468 632.952 35.7475 632.839 36.1997C632.737 36.6518 632.685 37.1193 632.685 37.6023C632.685 38.0647 632.737 38.5168 632.839 38.9586C632.952 39.3902 633.127 39.7807 633.363 40.1301C633.6 40.4794 633.908 40.762 634.288 40.9778C634.668 41.1833 635.131 41.2861 635.675 41.2861C635.932 41.2861 636.128 41.2758 636.261 41.2552C636.395 41.2347 636.523 41.1936 636.647 41.1319L635.614 40.1917L636.739 38.9895L637.987 40.1301ZM638.342 42.6733C637.612 43.0946 636.724 43.3052 635.675 43.3052C634.833 43.3052 634.072 43.1613 633.394 42.8736C632.726 42.5756 632.161 42.1698 631.699 41.656C631.236 41.1422 630.882 40.5411 630.635 39.8526C630.389 39.1539 630.265 38.4038 630.265 37.6023C630.265 36.7802 630.389 36.0198 630.635 35.3211C630.882 34.6121 631.236 33.9955 631.699 33.4715C632.161 32.9474 632.726 32.5364 633.394 32.2384C634.072 31.9404 634.833 31.7914 635.675 31.7914C636.528 31.7914 637.289 31.9404 637.957 32.2384C638.625 32.5364 639.19 32.9474 639.652 33.4715C640.115 33.9955 640.469 34.6121 640.716 35.3211C640.962 36.0198 641.086 36.7802 641.086 37.6023C641.086 38.4038 640.962 39.1487 640.716 39.8372C640.469 40.5257 640.115 41.1319 639.652 41.656L641.024 42.9045L639.899 44.0759L638.342 42.6733ZM646.023 35.0128H645.977L643.187 38.7583H646.023V35.0128ZM646.023 40.5616H641.46V38.5579L646.146 32.2693H648.104V38.7583H649.537V40.5616H648.104V43.0586H646.023V40.5616Z" fill="#104A99"/>
<rect x="150.057" y="237.733" width="154.587" height="17.2267" rx="4.08" fill="white" stroke="#ADBFFD" stroke-width="0.906667" stroke-dasharray="13.6 4.53"/>
<rect x="150.057" y="156.133" width="154.587" height="17.2267" rx="4.08" fill="white" stroke="#ADBFFD" stroke-width="0.906667" stroke-dasharray="13.6 4.53"/>
<rect x="150.057" y="74.5315" width="154.587" height="17.2267" rx="4.08" fill="white" stroke="#ADBFFD" stroke-width="0.906667" stroke-dasharray="13.6 4.53"/>
<rect x="172.725" y="280.346" width="109.253" height="17.2267" rx="4.08" fill="white" stroke="#ADBFFD" stroke-width="0.906667" stroke-dasharray="13.6 4.53"/>
<rect x="353.602" y="177.44" width="154.587" height="17.2267" rx="4.08" fill="white" stroke="#ADBFFD" stroke-width="0.906667" stroke-dasharray="13.6 4.53"/>
<rect x="407.549" y="280.346" width="154.587" height="17.2267" rx="4.08" fill="white" stroke="#ADBFFD" stroke-width="0.906667" stroke-dasharray="13.6 4.53"/>
<rect x="407.549" y="198.746" width="154.587" height="17.2267" rx="4.08" fill="white" stroke="#ADBFFD" stroke-width="0.906667" stroke-dasharray="13.6 4.53"/>
<rect x="439.283" y="117.145" width="154.587" height="17.2267" rx="4.08" fill="white" stroke="#ADBFFD" stroke-width="0.906667" stroke-dasharray="13.6 4.53"/>
<rect x="552.619" y="259.041" width="105.173" height="17.2267" rx="4.08" fill="white" stroke="#ADBFFD" stroke-width="0.906667" stroke-dasharray="13.6 4.53"/>
<rect x="580.725" y="177.44" width="53.9467" height="17.2267" rx="4.08" fill="white" stroke="#ADBFFD" stroke-width="0.906667" stroke-dasharray="13.6 4.53"/>
<rect x="577.098" y="95.8401" width="105.173" height="17.2267" rx="4.08" fill="white" stroke="#ADBFFD" stroke-width="0.906667" stroke-dasharray="13.6 4.53"/>
<rect x="612.457" y="280.346" width="105.173" height="17.2267" rx="4.08" fill="white" stroke="#ADBFFD" stroke-width="0.906667" stroke-dasharray="13.6 4.53"/>
<rect x="612.457" y="198.746" width="105.173" height="17.2267" rx="4.08" fill="white" stroke="#ADBFFD" stroke-width="0.906667" stroke-dasharray="13.6 4.53"/>
<rect x="612.457" y="117.145" width="105.173" height="17.2267" rx="4.08" fill="white" stroke="#ADBFFD" stroke-width="0.906667" stroke-dasharray="13.6 4.53"/>
<rect x="469.203" y="237.733" width="165.467" height="17.2267" rx="4.08" fill="white" stroke="#ADBFFD" stroke-width="0.906667" stroke-dasharray="13.6 4.53"/>
<rect x="469.203" y="156.133" width="165.467" height="17.2267" rx="4.08" fill="white" stroke="#ADBFFD" stroke-width="0.906667" stroke-dasharray="13.6 4.53"/>
<rect x="469.203" y="74.5315" width="165.467" height="17.2267" rx="4.08" fill="white" stroke="#ADBFFD" stroke-width="0.906667" stroke-dasharray="13.6 4.53"/>
<rect x="236.19" y="259.041" width="154.587" height="17.2267" rx="4.08" fill="white" stroke="#ADBFFD" stroke-width="0.906667" stroke-dasharray="13.6 4.53"/>
<rect x="236.19" y="95.8401" width="154.587" height="17.2267" rx="4.08" fill="white" stroke="#ADBFFD" stroke-width="0.906667" stroke-dasharray="13.6 4.53"/>
<rect x="236.19" y="198.746" width="154.587" height="17.2267" rx="4.08" fill="white" stroke="#ADBFFD" stroke-width="0.906667" stroke-dasharray="13.6 4.53"/>
<rect x="267.92" y="117.145" width="154.587" height="17.2267" rx="4.08" fill="white" stroke="#ADBFFD" stroke-width="0.906667" stroke-dasharray="13.6 4.53"/>
<rect x="-0.680062" y="0.67972" width="72.5902" height="115.796" transform="matrix(-9.0638e-05 1 -1 -0.000412137 140.084 68.6394)" fill="#ADBFFD" stroke="#ADBFFD" stroke-width="1.36" stroke-dasharray="13.6 4.53"/>
<rect x="-0.680062" y="0.67972" width="72.5902" height="115.796" transform="matrix(-9.0638e-05 1 -1 -0.000412137 140.084 150.239)" fill="#ADBFFD" stroke="#ADBFFD" stroke-width="1.36" stroke-dasharray="13.6 4.53"/>
<rect x="-0.680062" y="0.67972" width="72.5902" height="115.796" transform="matrix(-9.0638e-05 1 -1 -0.000412137 140.084 231.839)" fill="#ADBFFD" stroke="#ADBFFD" stroke-width="1.36" stroke-dasharray="13.6 4.53"/>
<rect x="-0.680307" y="0.679944" width="72.5902" height="601.277" transform="matrix(-0.000450941 1 -1 -8.28384e-05 722.986 68.6396)" stroke="#ADBFFD" stroke-width="1.36"/>
<rect x="-0.680307" y="0.679944" width="72.5902" height="598.109" transform="matrix(-0.000450941 1 -1 -8.28384e-05 722.986 150.239)" stroke="#ADBFFD" stroke-width="1.36"/>
<rect x="-0.680307" y="0.679944" width="72.5902" height="598.207" transform="matrix(-0.000450941 1 -1 -8.28384e-05 722.986 231.839)" stroke="#ADBFFD" stroke-width="1.36"/>
<rect x="173.834" y="341.543" width="109.253" height="17.2267" rx="4.08" fill="white" stroke="#ADBFFD" stroke-width="0.906667" stroke-dasharray="13.6 4.53"/>
<rect x="408.658" y="341.543" width="154.587" height="17.2267" rx="4.08" fill="white" stroke="#ADBFFD" stroke-width="0.906667" stroke-dasharray="13.6 4.53"/>
<rect x="553.725" y="320.238" width="105.173" height="17.2267" rx="4.08" fill="white" stroke="#ADBFFD" stroke-width="0.906667" stroke-dasharray="13.6 4.53"/>
<rect x="613.565" y="341.543" width="105.173" height="17.2267" rx="4.08" fill="white" stroke="#ADBFFD" stroke-width="0.906667" stroke-dasharray="13.6 4.53"/>
<rect x="237.301" y="320.238" width="154.587" height="17.2267" rx="4.08" fill="white" stroke="#ADBFFD" stroke-width="0.906667" stroke-dasharray="13.6 4.53"/>
<rect x="-0.680086" y="0.679798" width="52.2038" height="115.796" transform="matrix(-0.000125135 1 -1 -0.00029852 141.193 313.423)" fill="#ADBFFD" stroke="#ADBFFD" stroke-width="1.36" stroke-dasharray="13.6 4.53"/>
<rect x="-0.680424" y="0.67996" width="52.2038" height="598.207" transform="matrix(-0.000622569 1 -1 -6.00018e-05 724.093 313.423)" stroke="#ADBFFD" stroke-width="1.36"/>
<rect x="173.834" y="402.742" width="109.253" height="17.2267" rx="4.08" fill="white" stroke="#ADBFFD" stroke-width="0.906667" stroke-dasharray="13.6 4.53"/>
<rect x="408.656" y="402.742" width="154.587" height="17.2267" rx="4.08" fill="white" stroke="#ADBFFD" stroke-width="0.906667" stroke-dasharray="13.6 4.53"/>
<rect x="553.725" y="381.438" width="105.173" height="17.2267" rx="4.08" fill="white" stroke="#ADBFFD" stroke-width="0.906667" stroke-dasharray="13.6 4.53"/>
<rect x="613.565" y="402.742" width="105.173" height="17.2267" rx="4.08" fill="white" stroke="#ADBFFD" stroke-width="0.906667" stroke-dasharray="13.6 4.53"/>
<rect x="237.299" y="381.438" width="154.587" height="17.2267" rx="4.08" fill="white" stroke="#ADBFFD" stroke-width="0.906667" stroke-dasharray="13.6 4.53"/>
<rect x="-0.680086" y="0.679798" width="52.2038" height="115.796" transform="matrix(-0.000125135 1 -1 -0.00029852 141.193 374.622)" fill="#ADBFFD" stroke="#ADBFFD" stroke-width="1.36" stroke-dasharray="13.6 4.53"/>
<rect x="-0.680424" y="0.67996" width="52.2038" height="598.207" transform="matrix(-0.000622569 1 -1 -6.00018e-05 724.093 374.622)" stroke="#ADBFFD" stroke-width="1.36"/>
<rect x="-0.680062" y="0.67972" width="32.8907" height="122.693" transform="matrix(-9.0638e-05 1 -1 -0.000412137 140.084 22.5964)" fill="#ADBFFD" stroke="#ADBFFD" stroke-width="1.36" stroke-dasharray="13.6 4.53"/>
<path d="M61.1846 32.5027H66.3635C66.8876 32.5027 67.3654 32.5489 67.797 32.6414C68.2285 32.7339 68.5985 32.888 68.9067 33.1038C69.215 33.3093 69.4513 33.5868 69.6157 33.9361C69.7904 34.2855 69.8778 34.7171 69.8778 35.2308C69.8778 35.7857 69.7493 36.2481 69.4924 36.618C69.2458 36.988 68.8759 37.2911 68.3827 37.5274C69.0609 37.7227 69.5644 38.0669 69.8932 38.5601C70.2323 39.0431 70.4018 39.6288 70.4018 40.3172C70.4018 40.8721 70.2939 41.3551 70.0781 41.7661C69.8623 42.1669 69.5695 42.4957 69.1996 42.7526C68.8399 43.0094 68.4238 43.1995 67.9511 43.3229C67.4887 43.4462 67.0109 43.5078 66.5176 43.5078H61.1846V32.5027ZM66.194 41.6274C66.4303 41.6274 66.6564 41.6068 66.8722 41.5657C67.0879 41.5144 67.278 41.4373 67.4425 41.3345C67.6069 41.2215 67.7353 41.0725 67.8278 40.8875C67.9305 40.7026 67.9819 40.4662 67.9819 40.1785C67.9819 39.6134 67.8226 39.2126 67.5041 38.9763C67.1856 38.7297 66.7643 38.6064 66.2402 38.6064H63.6045V41.6274H66.194ZM66.0552 36.9571C66.4868 36.9571 66.8413 36.8544 67.1188 36.6489C67.3962 36.4434 67.5349 36.1094 67.5349 35.647C67.5349 35.3901 67.4887 35.1795 67.3962 35.0151C67.3037 34.8506 67.1804 34.7222 67.0263 34.6297C66.8722 34.5372 66.6923 34.4756 66.4868 34.4448C66.2916 34.4037 66.0861 34.3831 65.8703 34.3831H63.6045V36.9571H66.0552ZM75.0274 43.7082C74.4006 43.7082 73.8354 43.6106 73.3319 43.4153C72.8284 43.2098 72.402 42.9221 72.0526 42.5522C71.7032 42.1823 71.4309 41.7404 71.2357 41.2266C71.0507 40.7129 70.9583 40.1477 70.9583 39.5312C70.9583 38.9352 71.0559 38.3803 71.2511 37.8665C71.4463 37.3527 71.7238 36.9109 72.0834 36.541C72.4431 36.1608 72.8695 35.8628 73.3627 35.647C73.8662 35.4312 74.4211 35.3233 75.0274 35.3233C75.6645 35.3233 76.2245 35.4415 76.7074 35.6778C77.2007 35.9142 77.6065 36.2327 77.9251 36.6335C78.2539 37.0239 78.5005 37.4812 78.6649 38.0052C78.8293 38.5293 78.9115 39.0739 78.9115 39.6391C78.9115 39.711 78.9115 39.7829 78.9115 39.8548C78.9115 39.9165 78.9064 39.9833 78.8961 40.0552H73.147C73.1778 40.7642 73.3576 41.278 73.6864 41.5966C74.0152 41.9151 74.4879 42.0744 75.1044 42.0744C75.5463 42.0744 75.9265 41.9665 76.245 41.7507C76.5636 41.5246 76.7588 41.2883 76.8307 41.0417H78.7574C78.4491 41.9973 77.9765 42.6806 77.3394 43.0917C76.7023 43.5027 75.9316 43.7082 75.0274 43.7082ZM76.7074 38.668C76.6047 38.1131 76.4197 37.6918 76.1526 37.4041C75.8957 37.1164 75.5001 36.9726 74.9657 36.9726C74.6061 36.9726 74.3132 37.0342 74.0872 37.1575C73.8611 37.2705 73.6761 37.4144 73.5323 37.5891C73.3987 37.7638 73.3011 37.9487 73.2394 38.144C73.1881 38.3392 73.1572 38.5139 73.147 38.668H76.7074ZM81.7664 39.3154L79.1461 35.5391H81.6431L83.0457 37.6199L84.4329 35.5391H86.8528L84.2325 39.2691L87.1765 43.5078H84.6795L83.0149 40.9954L81.3502 43.5078H78.8995L81.7664 39.3154ZM89.9217 43.7082C89.5415 43.7082 89.187 43.6619 88.8582 43.5695C88.5294 43.477 88.2417 43.3331 87.9951 43.1379C87.7485 42.9427 87.5532 42.696 87.4094 42.3981C87.2758 42.1001 87.209 41.7456 87.209 41.3345C87.209 40.8824 87.2861 40.5125 87.4402 40.2248C87.6046 39.9268 87.8101 39.6904 88.0567 39.5158C88.3136 39.3411 88.6013 39.2126 88.9199 39.1304C89.2487 39.0379 89.5775 38.966 89.9063 38.9146C90.2351 38.8633 90.5588 38.8222 90.8774 38.7913C91.1959 38.7605 91.4785 38.7143 91.7251 38.6526C91.9717 38.591 92.1669 38.5036 92.3108 38.3906C92.4547 38.2673 92.5215 38.0926 92.5112 37.8665C92.5112 37.6405 92.4701 37.4555 92.3879 37.3116C92.3159 37.1678 92.2132 37.0599 92.0796 36.988C91.9563 36.9058 91.8073 36.8544 91.6326 36.8338C91.4682 36.803 91.2884 36.7876 91.0931 36.7876C90.6616 36.7876 90.3225 36.8801 90.0759 37.065C89.8293 37.25 89.6854 37.5583 89.6443 37.9898H87.4556C87.4864 37.4863 87.6149 37.065 87.8409 36.7259C88.067 36.3766 88.3547 36.0991 88.7041 35.8936C89.0534 35.6881 89.4439 35.5443 89.8755 35.462C90.3071 35.3696 90.7489 35.3233 91.201 35.3233C91.6018 35.3233 92.0077 35.3542 92.4187 35.4158C92.8297 35.4672 93.2048 35.5751 93.5439 35.7395C93.883 35.9039 94.1604 36.1351 94.3762 36.4331C94.592 36.7311 94.6999 37.1164 94.6999 37.5891V41.7353C94.6999 42.0949 94.7204 42.4392 94.7615 42.768C94.8026 43.0968 94.8746 43.3434 94.9773 43.5078H92.7578C92.7167 43.3845 92.6807 43.2612 92.6499 43.1379C92.6293 43.0043 92.6139 42.8707 92.6037 42.7371C92.2543 43.0968 91.8433 43.3485 91.3706 43.4924C90.8979 43.6363 90.415 43.7082 89.9217 43.7082ZM90.7386 42.2593C91.1702 42.2593 91.5042 42.1874 91.7405 42.0435C91.9768 41.8997 92.1515 41.7301 92.2646 41.5349C92.3776 41.3294 92.4444 41.1239 92.4649 40.9184C92.4958 40.7129 92.5112 40.5484 92.5112 40.4251V39.6082C92.4187 39.6904 92.3057 39.7572 92.1721 39.8086C92.0385 39.8497 91.8895 39.8857 91.7251 39.9165C91.5607 39.9473 91.3911 39.973 91.2165 39.9936C91.0418 40.0141 90.8671 40.0398 90.6924 40.0706C90.5177 40.1015 90.3533 40.1426 90.1992 40.1939C90.045 40.2453 89.9063 40.3172 89.783 40.4097C89.67 40.4919 89.5775 40.5998 89.5056 40.7334C89.4336 40.867 89.3977 41.0365 89.3977 41.2421C89.3977 41.4476 89.4336 41.6171 89.5056 41.7507C89.5775 41.874 89.6751 41.9768 89.7984 42.059C89.9217 42.1309 90.0656 42.1823 90.23 42.2131C90.3944 42.2439 90.564 42.2593 90.7386 42.2593Z" fill="white"/>
</svg>
