<svg width="748" height="309" viewBox="0 0 748 309" fill="none" xmlns="http://www.w3.org/2000/svg">
<rect x="0.906667" y="0.906667" width="746.187" height="306.453" rx="3.37131" fill="white" stroke="#ADBFFD" stroke-width="1.81333"/>
<mask id="mask0_1890_1941" style="mask-type:alpha" maskUnits="userSpaceOnUse" x="0" y="0" width="748" height="309">
<path d="M1.10101e-06 4.278C4.92939e-07 1.91534 1.91532 2.16854e-05 4.27798 2.16798e-05L743.722 1.99289e-05C746.085 1.99233e-05 748 1.91534 748 4.278L748 303.989C748 306.351 746.085 308.267 743.722 308.267L4.27803 308.266C1.91537 308.266 7.88445e-05 306.35 7.82364e-05 303.988L1.10101e-06 4.278Z" fill="#D9D9D9"/>
</mask>
<g mask="url(#mask0_1890_1941)">
<path d="M45.334 -0.0214844L1028.27 939.891" stroke="#ADBFFD" stroke-width="0.855596"/>
<path d="M-391.225 299.627L591.712 1239.54" stroke="#ADBFFD" stroke-width="0.855596"/>
<path d="M-561.68 299.623L421.257 1239.54" stroke="#ADBFFD" stroke-width="0.855596"/>
<path d="M-646.906 299.619L336.03 1239.53" stroke="#ADBFFD" stroke-width="0.855596"/>
<path d="M337.822 -375.891L1320.76 564.022" stroke="#ADBFFD" stroke-width="0.855596"/>
<path d="M-98.7383 -76.2422L884.198 863.671" stroke="#ADBFFD" stroke-width="0.855596"/>
<path d="M191.576 -187.955L1174.51 751.958" stroke="#ADBFFD" stroke-width="0.855596"/>
<path d="M-244.979 111.691L737.958 1051.6" stroke="#ADBFFD" stroke-width="0.855596"/>
<path d="M81.8945 -47.0059L1064.83 892.907" stroke="#ADBFFD" stroke-width="0.855596"/>
<path d="M-354.662 252.643L628.274 1192.56" stroke="#ADBFFD" stroke-width="0.855596"/>
<path d="M-525.117 252.641L457.819 1192.55" stroke="#ADBFFD" stroke-width="0.855596"/>
<path d="M228.137 -234.939L1211.07 704.973" stroke="#ADBFFD" stroke-width="0.855596"/>
<path d="M-208.418 64.709L774.518 1004.62" stroke="#ADBFFD" stroke-width="0.855596"/>
<path d="M118.455 -93.9883L1101.39 845.924" stroke="#ADBFFD" stroke-width="0.855596"/>
<path d="M-318.102 205.66L664.835 1145.57" stroke="#ADBFFD" stroke-width="0.855596"/>
<path d="M264.699 -281.922L1247.64 657.991" stroke="#ADBFFD" stroke-width="0.855596"/>
<path d="M-171.859 17.7246L811.077 957.637" stroke="#ADBFFD" stroke-width="0.855596"/>
<path d="M155.016 -140.973L1137.95 798.94" stroke="#ADBFFD" stroke-width="0.855596"/>
<path d="M-281.539 158.676L701.397 1098.59" stroke="#ADBFFD" stroke-width="0.855596"/>
<path d="M301.262 -328.906L1284.2 611.006" stroke="#ADBFFD" stroke-width="0.855596"/>
<path d="M-135.297 -29.2598L847.64 910.653" stroke="#ADBFFD" stroke-width="0.855596"/>
<path d="M54.4746 -11.7676L1037.41 928.145" stroke="#ADBFFD" stroke-width="0.855596"/>
<path d="M-382.084 287.881L600.852 1227.79" stroke="#ADBFFD" stroke-width="0.855596"/>
<path d="M-552.539 287.877L430.397 1227.79" stroke="#ADBFFD" stroke-width="0.855596"/>
<path d="M-637.766 287.875L345.171 1227.79" stroke="#ADBFFD" stroke-width="0.855596"/>
<path d="M346.963 -387.637L1329.9 552.276" stroke="#ADBFFD" stroke-width="0.855596"/>
<path d="M-89.5977 -87.9883L893.339 851.924" stroke="#ADBFFD" stroke-width="0.855596"/>
<path d="M200.717 -199.701L1183.65 740.212" stroke="#ADBFFD" stroke-width="0.855596"/>
<path d="M-235.84 99.9453L747.097 1039.86" stroke="#ADBFFD" stroke-width="0.855596"/>
<path d="M91.0352 -58.752L1073.97 881.161" stroke="#ADBFFD" stroke-width="0.855596"/>
<path d="M-345.523 240.896L637.413 1180.81" stroke="#ADBFFD" stroke-width="0.855596"/>
<path d="M-515.979 240.895L466.958 1180.81" stroke="#ADBFFD" stroke-width="0.855596"/>
<path d="M237.277 -246.686L1220.21 693.227" stroke="#ADBFFD" stroke-width="0.855596"/>
<path d="M-199.279 52.9629L783.657 992.876" stroke="#ADBFFD" stroke-width="0.855596"/>
<path d="M127.596 -105.734L1110.53 834.178" stroke="#ADBFFD" stroke-width="0.855596"/>
<path d="M-308.961 193.914L673.976 1133.83" stroke="#ADBFFD" stroke-width="0.855596"/>
<path d="M273.838 -293.668L1256.77 646.245" stroke="#ADBFFD" stroke-width="0.855596"/>
<path d="M-162.719 5.98047L820.218 945.893" stroke="#ADBFFD" stroke-width="0.855596"/>
<path d="M164.156 -152.719L1147.09 787.194" stroke="#ADBFFD" stroke-width="0.855596"/>
<path d="M-272.4 146.93L710.536 1086.84" stroke="#ADBFFD" stroke-width="0.855596"/>
<path d="M310.402 -340.652L1293.34 599.26" stroke="#ADBFFD" stroke-width="0.855596"/>
<path d="M-126.158 -41.0039L856.778 898.909" stroke="#ADBFFD" stroke-width="0.855596"/>
<path d="M63.6152 -23.5137L1046.55 916.399" stroke="#ADBFFD" stroke-width="0.855596"/>
<path d="M-372.943 276.135L609.993 1216.05" stroke="#ADBFFD" stroke-width="0.855596"/>
<path d="M-543.398 276.131L439.538 1216.04" stroke="#ADBFFD" stroke-width="0.855596"/>
<path d="M-628.627 276.129L354.31 1216.04" stroke="#ADBFFD" stroke-width="0.855596"/>
<path d="M356.104 -399.383L1339.04 540.53" stroke="#ADBFFD" stroke-width="0.855596"/>
<path d="M-80.457 -99.7344L902.479 840.178" stroke="#ADBFFD" stroke-width="0.855596"/>
<path d="M209.857 -211.447L1192.79 728.465" stroke="#ADBFFD" stroke-width="0.855596"/>
<path d="M-226.699 88.2012L756.237 1028.11" stroke="#ADBFFD" stroke-width="0.855596"/>
<path d="M100.176 -70.498L1083.11 869.415" stroke="#ADBFFD" stroke-width="0.855596"/>
<path d="M-336.383 229.15L646.554 1169.06" stroke="#ADBFFD" stroke-width="0.855596"/>
<path d="M-506.836 229.148L476.101 1169.06" stroke="#ADBFFD" stroke-width="0.855596"/>
<path d="M246.418 -258.43L1229.35 681.483" stroke="#ADBFFD" stroke-width="0.855596"/>
<path d="M-190.139 41.2168L792.798 981.13" stroke="#ADBFFD" stroke-width="0.855596"/>
<path d="M136.734 -117.48L1119.67 822.432" stroke="#ADBFFD" stroke-width="0.855596"/>
<path d="M-299.822 182.166L683.114 1122.08" stroke="#ADBFFD" stroke-width="0.855596"/>
<path d="M282.98 -305.416L1265.92 634.497" stroke="#ADBFFD" stroke-width="0.855596"/>
<path d="M-153.578 -5.76758L829.358 934.145" stroke="#ADBFFD" stroke-width="0.855596"/>
<path d="M173.297 -164.465L1156.23 775.448" stroke="#ADBFFD" stroke-width="0.855596"/>
<path d="M-263.26 135.184L719.677 1075.1" stroke="#ADBFFD" stroke-width="0.855596"/>
<path d="M319.541 -352.398L1302.48 587.514" stroke="#ADBFFD" stroke-width="0.855596"/>
<path d="M-117.018 -52.752L865.919 887.161" stroke="#ADBFFD" stroke-width="0.855596"/>
<path d="M72.7559 -35.2598L1055.69 904.653" stroke="#ADBFFD" stroke-width="0.855596"/>
<path d="M-363.803 264.389L619.134 1204.3" stroke="#ADBFFD" stroke-width="0.855596"/>
<path d="M-534.258 264.385L448.679 1204.3" stroke="#ADBFFD" stroke-width="0.855596"/>
<path d="M-619.484 264.383L363.452 1204.3" stroke="#ADBFFD" stroke-width="0.855596"/>
<path d="M218.998 -223.193L1201.93 716.719" stroke="#ADBFFD" stroke-width="0.855596"/>
<path d="M-217.559 76.4551L765.378 1016.37" stroke="#ADBFFD" stroke-width="0.855596"/>
<path d="M109.316 -82.2441L1092.25 857.669" stroke="#ADBFFD" stroke-width="0.855596"/>
<path d="M-327.242 217.404L655.694 1157.32" stroke="#ADBFFD" stroke-width="0.855596"/>
<path d="M-497.697 217.402L485.239 1157.32" stroke="#ADBFFD" stroke-width="0.855596"/>
<path d="M255.559 -270.178L1238.5 669.735" stroke="#ADBFFD" stroke-width="0.855596"/>
<path d="M-180.998 29.4707L801.938 969.383" stroke="#ADBFFD" stroke-width="0.855596"/>
<path d="M145.877 -129.227L1128.81 810.686" stroke="#ADBFFD" stroke-width="0.855596"/>
<path d="M-290.682 170.422L692.255 1110.33" stroke="#ADBFFD" stroke-width="0.855596"/>
<path d="M292.121 -317.16L1275.06 622.753" stroke="#ADBFFD" stroke-width="0.855596"/>
<path d="M-144.438 -17.5117L838.499 922.401" stroke="#ADBFFD" stroke-width="0.855596"/>
<path d="M182.438 -176.211L1165.37 763.702" stroke="#ADBFFD" stroke-width="0.855596"/>
<path d="M-254.121 123.438L728.815 1063.35" stroke="#ADBFFD" stroke-width="0.855596"/>
<path d="M328.684 -364.145L1311.62 575.768" stroke="#ADBFFD" stroke-width="0.855596"/>
<path d="M-107.877 -64.4961L875.06 875.417" stroke="#ADBFFD" stroke-width="0.855596"/>
</g>
<rect x="19.68" y="20.68" width="709.467" height="267.467" rx="3.85333" fill="white"/>
<path d="M85.3428 44.6628H94.4983V55.668H92.0784V46.6974H87.7627V55.668H85.3428V44.6628ZM99.807 55.8683C99.1802 55.8683 98.6151 55.7707 98.1116 55.5755C97.6081 55.3803 97.1765 55.1028 96.8168 54.7432C96.4572 54.3732 96.1798 53.9314 95.9845 53.4176C95.7893 52.9038 95.6917 52.3284 95.6917 51.6913C95.6917 51.0542 95.7893 50.4788 95.9845 49.965C96.1798 49.441 96.4572 48.9991 96.8168 48.6395C97.1765 48.2696 97.6081 47.987 98.1116 47.7918C98.6151 47.5862 99.1802 47.4835 99.807 47.4835C100.434 47.4835 100.999 47.5862 101.502 47.7918C102.016 47.987 102.453 48.2696 102.813 48.6395C103.172 48.9991 103.45 49.441 103.645 49.965C103.84 50.4788 103.938 51.0542 103.938 51.6913C103.938 52.3284 103.84 52.9038 103.645 53.4176C103.45 53.9314 103.172 54.3732 102.813 54.7432C102.453 55.1028 102.016 55.3803 101.502 55.5755C100.999 55.7707 100.434 55.8683 99.807 55.8683ZM99.807 54.2345C100.177 54.2345 100.485 54.1626 100.732 54.0187C100.989 53.8749 101.189 53.6848 101.333 53.4484C101.487 53.2018 101.595 52.9295 101.657 52.6315C101.718 52.3233 101.749 52.0099 101.749 51.6913C101.749 51.3728 101.718 51.0594 101.657 50.7511C101.595 50.4428 101.487 50.1705 101.333 49.9342C101.189 49.6979 100.989 49.5078 100.732 49.3639C100.485 49.2098 100.177 49.1327 99.807 49.1327C99.4371 49.1327 99.1288 49.2098 98.8822 49.3639C98.6356 49.5078 98.4352 49.6979 98.2811 49.9342C98.1372 50.1705 98.0345 50.4428 97.9728 50.7511C97.9112 51.0594 97.8804 51.3728 97.8804 51.6913C97.8804 52.0099 97.9112 52.3233 97.9728 52.6315C98.0345 52.9295 98.1372 53.2018 98.2811 53.4484C98.4352 53.6848 98.6356 53.8749 98.8822 54.0187C99.1288 54.1626 99.4371 54.2345 99.807 54.2345ZM105.238 55.7913C105.145 55.7913 105.001 55.7759 104.806 55.745C104.611 55.7142 104.457 55.6782 104.344 55.6371V53.9879C104.405 54.0085 104.477 54.0239 104.559 54.0342C104.642 54.0342 104.724 54.0342 104.806 54.0342C104.991 54.0342 105.155 53.9776 105.299 53.8646C105.453 53.7413 105.577 53.5101 105.669 53.171C105.772 52.8319 105.849 52.349 105.9 51.7222C105.962 51.0953 105.993 50.2733 105.993 49.256V47.6993H112.466V55.668H110.278V49.3485H108.027C107.986 50.4788 107.919 51.4499 107.827 52.2616C107.735 53.0734 107.586 53.7413 107.38 54.2654C107.185 54.7894 106.912 55.1747 106.563 55.4214C106.224 55.668 105.782 55.7913 105.238 55.7913ZM113.663 47.6993H115.852V50.4428H117.963C118.364 50.4428 118.739 50.4994 119.089 50.6124C119.448 50.7152 119.756 50.8796 120.013 51.1056C120.28 51.3214 120.491 51.5937 120.645 51.9225C120.799 52.2411 120.876 52.6161 120.876 53.0477C120.876 53.4896 120.799 53.8749 120.645 54.2037C120.501 54.5325 120.291 54.8048 120.013 55.0206C119.746 55.2364 119.428 55.4008 119.058 55.5138C118.698 55.6166 118.302 55.668 117.871 55.668H113.663V47.6993ZM117.347 54.1575C117.748 54.1575 118.066 54.0701 118.302 53.8954C118.549 53.7208 118.672 53.4382 118.672 53.0477C118.672 52.6572 118.544 52.3747 118.287 52.2C118.03 52.015 117.712 51.9225 117.331 51.9225H115.852V54.1575H117.347ZM124.882 55.8683C124.378 55.8683 123.9 55.817 123.448 55.7142C123.006 55.6217 122.616 55.4625 122.277 55.2364C121.938 55.0103 121.665 54.7226 121.46 54.3732C121.265 54.0239 121.162 53.5923 121.152 53.0785H123.232C123.274 53.5101 123.438 53.8389 123.726 54.065C124.024 54.291 124.424 54.4041 124.928 54.4041C125.421 54.4041 125.781 54.3013 126.007 54.0958C126.233 53.8903 126.346 53.6385 126.346 53.3406C126.346 53.0117 126.238 52.7446 126.022 52.5391C125.817 52.3336 125.467 52.2308 124.974 52.2308H124.126V50.859H124.697C125.159 50.859 125.524 50.7871 125.791 50.6432C126.068 50.4994 126.207 50.2271 126.207 49.8263C126.207 49.59 126.104 49.3845 125.899 49.2098C125.704 49.0248 125.39 48.9323 124.959 48.9323C124.517 48.9323 124.167 49.0094 123.911 49.1635C123.664 49.3074 123.51 49.5951 123.448 50.0267H121.414C121.455 49.5643 121.578 49.1738 121.784 48.8553C121.999 48.5265 122.266 48.2644 122.585 48.0692C122.914 47.8637 123.284 47.7147 123.695 47.6222C124.116 47.5297 124.553 47.4835 125.005 47.4835C126.063 47.4835 126.88 47.6582 127.456 48.0075C128.041 48.3466 128.334 48.8861 128.334 49.6259C128.334 49.8623 128.288 50.0832 128.195 50.2887C128.113 50.484 128.005 50.6586 127.872 50.8128C127.738 50.9669 127.584 51.0953 127.409 51.1981C127.235 51.2906 127.065 51.3522 126.901 51.3831V51.4139C127.086 51.4344 127.276 51.4807 127.471 51.5526C127.677 51.6143 127.862 51.7222 128.026 51.8763C128.19 52.0201 128.324 52.2102 128.427 52.4466C128.54 52.6726 128.596 52.9604 128.596 53.3097C128.596 53.7413 128.504 54.1164 128.319 54.4349C128.144 54.7534 127.892 55.0206 127.564 55.2364C127.245 55.4522 126.855 55.6115 126.392 55.7142C125.94 55.817 125.437 55.8683 124.882 55.8683ZM133.405 55.8683C132.778 55.8683 132.213 55.7707 131.71 55.5755C131.206 55.3803 130.775 55.1028 130.415 54.7432C130.055 54.3732 129.778 53.9314 129.583 53.4176C129.387 52.9038 129.29 52.3284 129.29 51.6913C129.29 51.0542 129.387 50.4788 129.583 49.965C129.778 49.441 130.055 48.9991 130.415 48.6395C130.775 48.2696 131.206 47.987 131.71 47.7918C132.213 47.5862 132.778 47.4835 133.405 47.4835C134.032 47.4835 134.597 47.5862 135.101 47.7918C135.614 47.987 136.051 48.2696 136.411 48.6395C136.77 48.9991 137.048 49.441 137.243 49.965C137.438 50.4788 137.536 51.0542 137.536 51.6913C137.536 52.3284 137.438 52.9038 137.243 53.4176C137.048 53.9314 136.77 54.3732 136.411 54.7432C136.051 55.1028 135.614 55.3803 135.101 55.5755C134.597 55.7707 134.032 55.8683 133.405 55.8683ZM133.405 54.2345C133.775 54.2345 134.083 54.1626 134.33 54.0187C134.587 53.8749 134.787 53.6848 134.931 53.4484C135.085 53.2018 135.193 52.9295 135.255 52.6315C135.316 52.3233 135.347 52.0099 135.347 51.6913C135.347 51.3728 135.316 51.0594 135.255 50.7511C135.193 50.4428 135.085 50.1705 134.931 49.9342C134.787 49.6979 134.587 49.5078 134.33 49.3639C134.083 49.2098 133.775 49.1327 133.405 49.1327C133.035 49.1327 132.727 49.2098 132.48 49.3639C132.234 49.5078 132.033 49.6979 131.879 49.9342C131.735 50.1705 131.633 50.4428 131.571 50.7511C131.509 51.0594 131.478 51.3728 131.478 51.6913C131.478 52.0099 131.509 52.3233 131.571 52.6315C131.633 52.9295 131.735 53.2018 131.879 53.4484C132.033 53.6848 132.234 53.8749 132.48 54.0187C132.727 54.1626 133.035 54.2345 133.405 54.2345ZM138.558 47.6993H143.136C143.485 47.6993 143.814 47.7404 144.122 47.8226C144.431 47.8945 144.698 48.0127 144.924 48.1771C145.16 48.3312 145.345 48.5367 145.479 48.7936C145.612 49.0505 145.679 49.3536 145.679 49.703C145.679 50.0935 145.582 50.4326 145.386 50.7203C145.191 50.9977 144.929 51.2084 144.6 51.3522C145.011 51.4653 145.355 51.6811 145.633 51.9996C145.91 52.3079 146.049 52.7394 146.049 53.2943C146.049 53.6848 145.977 54.029 145.833 54.327C145.7 54.6147 145.51 54.8613 145.263 55.0668C145.016 55.2621 144.729 55.4111 144.4 55.5138C144.071 55.6166 143.722 55.668 143.352 55.668H138.558V47.6993ZM142.334 54.2499C142.519 54.2499 142.699 54.2397 142.874 54.2191C143.049 54.1883 143.203 54.1369 143.336 54.065C143.47 53.9931 143.578 53.8903 143.66 53.7567C143.742 53.6129 143.783 53.4279 143.783 53.2018C143.783 52.9758 143.737 52.7908 143.645 52.647C143.562 52.5031 143.449 52.3952 143.305 52.3233C143.162 52.2513 142.997 52.2051 142.812 52.1846C142.627 52.1537 142.437 52.1383 142.242 52.1383H140.716V54.2499H142.334ZM142.165 50.9052C142.329 50.9052 142.489 50.895 142.643 50.8744C142.797 50.8539 142.936 50.8128 143.059 50.7511C143.182 50.6792 143.28 50.5867 143.352 50.4737C143.424 50.3504 143.46 50.186 143.46 49.9804C143.46 49.7852 143.424 49.6311 143.352 49.518C143.28 49.3947 143.182 49.3023 143.059 49.2406C142.946 49.179 142.807 49.1379 142.643 49.1173C142.489 49.0968 142.329 49.0865 142.165 49.0865H140.716V50.9052H142.165ZM149.364 55.8683C148.984 55.8683 148.629 55.8221 148.3 55.7296C147.971 55.6371 147.684 55.4933 147.437 55.298C147.19 55.1028 146.995 54.8562 146.851 54.5582C146.718 54.2602 146.651 53.9057 146.651 53.4947C146.651 53.0426 146.728 52.6726 146.882 52.3849C147.047 52.0869 147.252 51.8506 147.499 51.6759C147.756 51.5012 148.043 51.3728 148.362 51.2906C148.691 51.1981 149.02 51.1262 149.348 51.0748C149.677 51.0234 150.001 50.9823 150.319 50.9515C150.638 50.9207 150.921 50.8744 151.167 50.8128C151.414 50.7511 151.609 50.6638 151.753 50.5507C151.897 50.4274 151.963 50.2528 151.953 50.0267C151.953 49.8006 151.912 49.6157 151.83 49.4718C151.758 49.328 151.655 49.2201 151.522 49.1481C151.398 49.0659 151.249 49.0145 151.075 48.994C150.91 48.9632 150.73 48.9478 150.535 48.9478C150.104 48.9478 149.765 49.0402 149.518 49.2252C149.271 49.4102 149.127 49.7184 149.086 50.15H146.898C146.928 49.6465 147.057 49.2252 147.283 48.8861C147.509 48.5367 147.797 48.2593 148.146 48.0538C148.495 47.8483 148.886 47.7044 149.318 47.6222C149.749 47.5297 150.191 47.4835 150.643 47.4835C151.044 47.4835 151.45 47.5143 151.861 47.576C152.272 47.6273 152.647 47.7352 152.986 47.8996C153.325 48.0641 153.602 48.2953 153.818 48.5932C154.034 48.8912 154.142 49.2766 154.142 49.7492V53.8954C154.142 54.2551 154.162 54.5993 154.204 54.9281C154.245 55.2569 154.317 55.5036 154.419 55.668H152.2C152.159 55.5447 152.123 55.4214 152.092 55.298C152.071 55.1645 152.056 55.0309 152.046 54.8973C151.696 55.2569 151.285 55.5087 150.813 55.6526C150.34 55.7964 149.857 55.8683 149.364 55.8683ZM150.181 54.4195C150.612 54.4195 150.946 54.3476 151.183 54.2037C151.419 54.0598 151.594 53.8903 151.707 53.6951C151.82 53.4896 151.886 53.284 151.907 53.0785C151.938 52.873 151.953 52.7086 151.953 52.5853V51.7684C151.861 51.8506 151.748 51.9174 151.614 51.9688C151.481 52.0099 151.332 52.0458 151.167 52.0767C151.003 52.1075 150.833 52.1332 150.659 52.1537C150.484 52.1743 150.309 52.2 150.134 52.2308C149.96 52.2616 149.795 52.3027 149.641 52.3541C149.487 52.4055 149.348 52.4774 149.225 52.5699C149.112 52.6521 149.02 52.76 148.948 52.8936C148.876 53.0272 148.84 53.1967 148.84 53.4022C148.84 53.6077 148.876 53.7773 148.948 53.9108C149.02 54.0342 149.117 54.1369 149.24 54.2191C149.364 54.291 149.508 54.3424 149.672 54.3732C149.836 54.4041 150.006 54.4195 150.181 54.4195ZM157.32 49.3485H154.7V47.6993H162.129V49.3485H159.509V55.668H157.32V49.3485ZM166.337 55.8683C165.71 55.8683 165.145 55.7707 164.641 55.5755C164.138 55.37 163.711 55.0823 163.362 54.7123C163.012 54.3424 162.74 53.9006 162.545 53.3868C162.36 52.873 162.267 52.3079 162.267 51.6913C162.267 51.0953 162.365 50.5405 162.56 50.0267C162.755 49.5129 163.033 49.0711 163.393 48.7011C163.752 48.3209 164.179 48.023 164.672 47.8072C165.175 47.5914 165.73 47.4835 166.337 47.4835C166.974 47.4835 167.534 47.6017 168.017 47.838C168.51 48.0743 168.916 48.3929 169.234 48.7936C169.563 49.1841 169.81 49.6414 169.974 50.1654C170.138 50.6895 170.221 51.2341 170.221 51.7992C170.221 51.8712 170.221 51.9431 170.221 52.015C170.221 52.0767 170.216 52.1435 170.205 52.2154H164.456C164.487 52.9244 164.667 53.4382 164.996 53.7567C165.324 54.0753 165.797 54.2345 166.414 54.2345C166.855 54.2345 167.236 54.1266 167.554 53.9108C167.873 53.6848 168.068 53.4484 168.14 53.2018H170.067C169.758 54.1575 169.286 54.8408 168.649 55.2518C168.011 55.6628 167.241 55.8683 166.337 55.8683ZM168.017 50.8282C167.914 50.2733 167.729 49.852 167.462 49.5643C167.205 49.2766 166.809 49.1327 166.275 49.1327C165.915 49.1327 165.622 49.1944 165.396 49.3177C165.17 49.4307 164.985 49.5746 164.841 49.7492C164.708 49.9239 164.61 50.1089 164.549 50.3041C164.497 50.4994 164.466 50.674 164.456 50.8282H168.017ZM171.38 55.7913C171.288 55.7913 171.144 55.7759 170.948 55.745C170.753 55.7142 170.599 55.6782 170.486 55.6371V53.9879C170.548 54.0085 170.62 54.0239 170.702 54.0342C170.784 54.0342 170.866 54.0342 170.948 54.0342C171.133 54.0342 171.298 53.9776 171.442 53.8646C171.596 53.7413 171.719 53.5101 171.812 53.171C171.914 52.8319 171.991 52.349 172.043 51.7222C172.104 51.0953 172.135 50.2733 172.135 49.256V47.6993H178.609V55.668H176.42V49.3485H174.17C174.129 50.4788 174.062 51.4499 173.969 52.2616C173.877 53.0734 173.728 53.7413 173.522 54.2654C173.327 54.7894 173.055 55.1747 172.706 55.4214C172.366 55.668 171.925 55.7913 171.38 55.7913ZM179.805 47.6993H181.994V50.4428H184.106C184.507 50.4428 184.882 50.4994 185.231 50.6124C185.591 50.7152 185.899 50.8796 186.156 51.1056C186.423 51.3214 186.634 51.5937 186.788 51.9225C186.942 52.2411 187.019 52.6161 187.019 53.0477C187.019 53.4896 186.942 53.8749 186.788 54.2037C186.644 54.5325 186.433 54.8048 186.156 55.0206C185.889 55.2364 185.57 55.4008 185.2 55.5138C184.84 55.6166 184.445 55.668 184.013 55.668H179.805V47.6993ZM183.489 54.1575C183.89 54.1575 184.209 54.0701 184.445 53.8954C184.691 53.7208 184.815 53.4382 184.815 53.0477C184.815 52.6572 184.686 52.3747 184.429 52.2C184.173 52.015 183.854 51.9225 183.474 51.9225H181.994V54.1575H183.489ZM193.649 51.4755L191.029 47.6993H193.526L194.929 49.7801L196.316 47.6993H198.736L196.115 51.4293L199.059 55.668H196.562L194.898 53.1556L193.233 55.668H190.782L193.649 51.4755ZM203.3 55.8683C202.673 55.8683 202.108 55.7707 201.604 55.5755C201.101 55.3803 200.669 55.1028 200.31 54.7432C199.95 54.3732 199.672 53.9314 199.477 53.4176C199.282 52.9038 199.184 52.3284 199.184 51.6913C199.184 51.0542 199.282 50.4788 199.477 49.965C199.672 49.441 199.95 48.9991 200.31 48.6395C200.669 48.2696 201.101 47.987 201.604 47.7918C202.108 47.5862 202.673 47.4835 203.3 47.4835C203.927 47.4835 204.492 47.5862 204.995 47.7918C205.509 47.987 205.946 48.2696 206.305 48.6395C206.665 48.9991 206.942 49.441 207.138 49.965C207.333 50.4788 207.431 51.0542 207.431 51.6913C207.431 52.3284 207.333 52.9038 207.138 53.4176C206.942 53.9314 206.665 54.3732 206.305 54.7432C205.946 55.1028 205.509 55.3803 204.995 55.5755C204.492 55.7707 203.927 55.8683 203.3 55.8683ZM203.3 54.2345C203.67 54.2345 203.978 54.1626 204.225 54.0187C204.481 53.8749 204.682 53.6848 204.826 53.4484C204.98 53.2018 205.088 52.9295 205.149 52.6315C205.211 52.3233 205.242 52.0099 205.242 51.6913C205.242 51.3728 205.211 51.0594 205.149 50.7511C205.088 50.4428 204.98 50.1705 204.826 49.9342C204.682 49.6979 204.481 49.5078 204.225 49.3639C203.978 49.2098 203.67 49.1327 203.3 49.1327C202.93 49.1327 202.622 49.2098 202.375 49.3639C202.128 49.5078 201.928 49.6979 201.774 49.9342C201.63 50.1705 201.527 50.4428 201.466 50.7511C201.404 51.0594 201.373 51.3728 201.373 51.6913C201.373 52.0099 201.404 52.3233 201.466 52.6315C201.527 52.9295 201.63 53.2018 201.774 53.4484C201.928 53.6848 202.128 53.8749 202.375 54.0187C202.622 54.1626 202.93 54.2345 203.3 54.2345ZM213.385 52.7394C213.18 52.8011 212.876 52.8782 212.476 52.9706C212.075 53.0528 211.659 53.0939 211.227 53.0939C210.138 53.0939 209.357 52.8422 208.884 52.3387C208.412 51.8352 208.175 51.1519 208.175 50.2887V47.6993H210.349V49.8417C210.349 50.4274 210.462 50.8333 210.688 51.0594C210.914 51.2854 211.284 51.3985 211.798 51.3985C212.116 51.3985 212.414 51.3728 212.692 51.3214C212.969 51.27 213.2 51.2187 213.385 51.1673V47.6993H215.574V55.668H213.385V52.7394ZM220.463 55.8683C219.836 55.8683 219.271 55.7707 218.768 55.5755C218.264 55.37 217.838 55.0823 217.488 54.7123C217.139 54.3424 216.867 53.9006 216.672 53.3868C216.487 52.873 216.394 52.3079 216.394 51.6913C216.394 51.0953 216.492 50.5405 216.687 50.0267C216.882 49.5129 217.16 49.0711 217.519 48.7011C217.879 48.3209 218.305 48.023 218.799 47.8072C219.302 47.5914 219.857 47.4835 220.463 47.4835C221.1 47.4835 221.66 47.6017 222.143 47.838C222.636 48.0743 223.042 48.3929 223.361 48.7936C223.69 49.1841 223.936 49.6414 224.101 50.1654C224.265 50.6895 224.347 51.2341 224.347 51.7992C224.347 51.8712 224.347 51.9431 224.347 52.015C224.347 52.0767 224.342 52.1435 224.332 52.2154H218.583C218.614 52.9244 218.793 53.4382 219.122 53.7567C219.451 54.0753 219.924 54.2345 220.54 54.2345C220.982 54.2345 221.362 54.1266 221.681 53.9108C221.999 53.6848 222.195 53.4484 222.267 53.2018H224.193C223.885 54.1575 223.412 54.8408 222.775 55.2518C222.138 55.6628 221.367 55.8683 220.463 55.8683ZM222.143 50.8282C222.041 50.2733 221.856 49.852 221.588 49.5643C221.331 49.2766 220.936 49.1327 220.402 49.1327C220.042 49.1327 219.749 49.1944 219.523 49.3177C219.297 49.4307 219.112 49.5746 218.968 49.7492C218.835 49.9239 218.737 50.1089 218.675 50.3041C218.624 50.4994 218.593 50.674 218.583 50.8282H222.143ZM227.11 49.3485H224.489V47.6993H231.919V49.3485H229.298V55.668H227.11V49.3485ZM236.347 47.6993H242.358V49.3485H238.535V55.668H236.347V47.6993ZM246.66 55.8683C246.033 55.8683 245.468 55.7707 244.964 55.5755C244.461 55.3803 244.029 55.1028 243.67 54.7432C243.31 54.3732 243.033 53.9314 242.837 53.4176C242.642 52.9038 242.545 52.3284 242.545 51.6913C242.545 51.0542 242.642 50.4788 242.837 49.965C243.033 49.441 243.31 48.9991 243.67 48.6395C244.029 48.2696 244.461 47.987 244.964 47.7918C245.468 47.5862 246.033 47.4835 246.66 47.4835C247.287 47.4835 247.852 47.5862 248.355 47.7918C248.869 47.987 249.306 48.2696 249.666 48.6395C250.025 48.9991 250.303 49.441 250.498 49.965C250.693 50.4788 250.791 51.0542 250.791 51.6913C250.791 52.3284 250.693 52.9038 250.498 53.4176C250.303 53.9314 250.025 54.3732 249.666 54.7432C249.306 55.1028 248.869 55.3803 248.355 55.5755C247.852 55.7707 247.287 55.8683 246.66 55.8683ZM246.66 54.2345C247.03 54.2345 247.338 54.1626 247.585 54.0187C247.842 53.8749 248.042 53.6848 248.186 53.4484C248.34 53.2018 248.448 52.9295 248.51 52.6315C248.571 52.3233 248.602 52.0099 248.602 51.6913C248.602 51.3728 248.571 51.0594 248.51 50.7511C248.448 50.4428 248.34 50.1705 248.186 49.9342C248.042 49.6979 247.842 49.5078 247.585 49.3639C247.338 49.2098 247.03 49.1327 246.66 49.1327C246.29 49.1327 245.982 49.2098 245.735 49.3639C245.489 49.5078 245.288 49.6979 245.134 49.9342C244.99 50.1705 244.887 50.4428 244.826 50.7511C244.764 51.0594 244.733 51.3728 244.733 51.6913C244.733 52.0099 244.764 52.3233 244.826 52.6315C244.887 52.9295 244.99 53.2018 245.134 53.4484C245.288 53.6848 245.489 53.8749 245.735 54.0187C245.982 54.1626 246.29 54.2345 246.66 54.2345ZM251.751 47.6993H253.94V50.597H257.038V47.6993H259.227V55.668H257.038V52.3233H253.94V55.668H251.751V47.6993ZM262.121 52.6778C261.556 52.5853 261.094 52.313 260.734 51.8609C260.385 51.4088 260.21 50.8539 260.21 50.1962C260.21 49.8469 260.271 49.5232 260.395 49.2252C260.528 48.9169 260.713 48.6498 260.95 48.4237C261.186 48.1976 261.463 48.023 261.782 47.8996C262.101 47.7661 262.455 47.6993 262.846 47.6993H267.67V55.668H265.481V52.8627H264.449L262.275 55.668H259.593L262.121 52.6778ZM265.481 49.2868H263.739C263.236 49.2868 262.892 49.3793 262.707 49.5643C262.522 49.739 262.429 49.9753 262.429 50.2733C262.429 50.5816 262.517 50.8282 262.691 51.0131C262.876 51.1981 263.226 51.2906 263.739 51.2906H265.481V49.2868ZM270.816 49.3485H268.196V47.6993H275.625V49.3485H273.005V55.668H270.816V49.3485ZM276.148 47.6993H278.337V50.4428H280.449C280.85 50.4428 281.225 50.4994 281.574 50.6124C281.934 50.7152 282.242 50.8796 282.499 51.1056C282.766 51.3214 282.977 51.5937 283.131 51.9225C283.285 52.2411 283.362 52.6161 283.362 53.0477C283.362 53.4896 283.285 53.8749 283.131 54.2037C282.987 54.5325 282.776 54.8048 282.499 55.0206C282.232 55.2364 281.913 55.4008 281.543 55.5138C281.183 55.6166 280.788 55.668 280.356 55.668H276.148V47.6993ZM279.832 54.1575C280.233 54.1575 280.552 54.0701 280.788 53.8954C281.034 53.7208 281.158 53.4382 281.158 53.0477C281.158 52.6572 281.029 52.3747 280.772 52.2C280.516 52.015 280.197 51.9225 279.817 51.9225H278.337V54.1575H279.832ZM85.1116 62.6993H87.3003V65.597H90.3984V62.6993H92.5871V70.668H90.3984V67.3233H87.3003V70.668H85.1116V62.6993ZM96.1595 70.8683C95.7793 70.8683 95.4248 70.8221 95.096 70.7296C94.7671 70.6371 94.4794 70.4933 94.2328 70.298C93.9862 70.1028 93.791 69.8562 93.6471 69.5582C93.5135 69.2602 93.4467 68.9057 93.4467 68.4947C93.4467 68.0426 93.5238 67.6726 93.6779 67.3849C93.8423 67.0869 94.0479 66.8506 94.2945 66.6759C94.5514 66.5012 94.8391 66.3728 95.1576 66.2906C95.4864 66.1981 95.8153 66.1262 96.1441 66.0748C96.4729 66.0234 96.7966 65.9823 97.1151 65.9515C97.4337 65.9207 97.7162 65.8744 97.9628 65.8128C98.2095 65.7511 98.4047 65.6638 98.5486 65.5507C98.6924 65.4274 98.7592 65.2528 98.7489 65.0267C98.7489 64.8006 98.7078 64.6157 98.6256 64.4718C98.5537 64.328 98.4509 64.2201 98.3174 64.1481C98.194 64.0659 98.045 64.0145 97.8704 63.994C97.706 63.9632 97.5261 63.9478 97.3309 63.9478C96.8993 63.9478 96.5602 64.0402 96.3136 64.2252C96.067 64.4102 95.9231 64.7184 95.882 65.15H93.6934C93.7242 64.6465 93.8526 64.2252 94.0787 63.8861C94.3047 63.5367 94.5925 63.2593 94.9418 63.0538C95.2912 62.8483 95.6817 62.7044 96.1132 62.6222C96.5448 62.5297 96.9867 62.4835 97.4388 62.4835C97.8395 62.4835 98.2454 62.5143 98.6564 62.576C99.0675 62.6273 99.4425 62.7352 99.7816 62.8996C100.121 63.0641 100.398 63.2953 100.614 63.5932C100.83 63.8912 100.938 64.2766 100.938 64.7492V68.8954C100.938 69.2551 100.958 69.5993 100.999 69.9281C101.04 70.2569 101.112 70.5036 101.215 70.668H98.9955C98.9544 70.5447 98.9185 70.4214 98.8876 70.298C98.8671 70.1645 98.8517 70.0309 98.8414 69.8973C98.492 70.2569 98.081 70.5087 97.6083 70.6526C97.1357 70.7964 96.6527 70.8683 96.1595 70.8683ZM96.9764 69.4195C97.408 69.4195 97.7419 69.3476 97.9783 69.2037C98.2146 69.0598 98.3893 68.8903 98.5023 68.6951C98.6153 68.4896 98.6821 68.284 98.7027 68.0785C98.7335 67.873 98.7489 67.7086 98.7489 67.5853V66.7684C98.6564 66.8506 98.5434 66.9174 98.4098 66.9688C98.2762 67.0099 98.1273 67.0458 97.9628 67.0767C97.7984 67.1075 97.6289 67.1332 97.4542 67.1537C97.2795 67.1743 97.1048 67.2 96.9302 67.2308C96.7555 67.2616 96.5911 67.3027 96.4369 67.3541C96.2828 67.4055 96.1441 67.4774 96.0208 67.5699C95.9077 67.6521 95.8153 67.76 95.7433 67.8936C95.6714 68.0272 95.6354 68.1967 95.6354 68.4022C95.6354 68.6077 95.6714 68.7773 95.7433 68.9108C95.8153 69.0342 95.9129 69.1369 96.0362 69.2191C96.1595 69.291 96.3033 69.3424 96.4678 69.3732C96.6322 69.4041 96.8017 69.4195 96.9764 69.4195ZM109.778 70.8683C109.172 70.8683 108.622 70.7707 108.129 70.5755C107.635 70.37 107.214 70.0874 106.865 69.7278C106.515 69.3681 106.243 68.9417 106.048 68.4484C105.853 67.9449 105.755 67.3952 105.755 66.7992C105.755 66.1827 105.842 65.6124 106.017 65.0883C106.202 64.554 106.469 64.0968 106.818 63.7166C107.168 63.3261 107.594 63.023 108.098 62.8072C108.601 62.5914 109.177 62.4835 109.824 62.4835C110.297 62.4835 110.749 62.5451 111.18 62.6684C111.622 62.7918 112.013 62.9819 112.352 63.2387C112.701 63.4854 112.984 63.7988 113.2 64.179C113.415 64.5592 113.539 65.001 113.569 65.5045H111.427C111.283 64.59 110.744 64.1327 109.809 64.1327C109.459 64.1327 109.166 64.2149 108.93 64.3793C108.694 64.5335 108.498 64.739 108.344 64.9959C108.2 65.2425 108.098 65.5199 108.036 65.8282C107.974 66.1364 107.944 66.4344 107.944 66.7222C107.944 67.0099 107.974 67.3027 108.036 67.6007C108.098 67.8987 108.195 68.171 108.329 68.4176C108.473 68.654 108.663 68.8492 108.899 69.0033C109.136 69.1575 109.423 69.2345 109.762 69.2345C110.286 69.2345 110.687 69.0907 110.965 68.803C111.252 68.505 111.432 68.1094 111.504 67.6161H113.616C113.472 68.6745 113.061 69.4811 112.383 70.036C111.704 70.5909 110.836 70.8683 109.778 70.8683ZM114.39 62.6993H116.578V65.9515L119.507 62.6993H122.081L118.752 66.2135L122.513 70.668H119.861L117.041 67.3541L116.578 67.8627V70.668H114.39V62.6993ZM126.462 70.8683C125.835 70.8683 125.27 70.7707 124.766 70.5755C124.263 70.37 123.836 70.0823 123.487 69.7123C123.138 69.3424 122.865 68.9006 122.67 68.3868C122.485 67.873 122.393 67.3079 122.393 66.6913C122.393 66.0953 122.49 65.5405 122.685 65.0267C122.881 64.5129 123.158 64.0711 123.518 63.7011C123.877 63.3209 124.304 63.023 124.797 62.8072C125.301 62.5914 125.855 62.4835 126.462 62.4835C127.099 62.4835 127.659 62.6017 128.142 62.838C128.635 63.0743 129.041 63.3929 129.359 63.7936C129.688 64.1841 129.935 64.6414 130.099 65.1654C130.264 65.6895 130.346 66.2341 130.346 66.7992C130.346 66.8712 130.346 66.9431 130.346 67.015C130.346 67.0767 130.341 67.1435 130.33 67.2154H124.581C124.612 67.9244 124.792 68.4382 125.121 68.7567C125.45 69.0753 125.922 69.2345 126.539 69.2345C126.981 69.2345 127.361 69.1266 127.679 68.9108C127.998 68.6848 128.193 68.4484 128.265 68.2018H130.192C129.883 69.1575 129.411 69.8408 128.774 70.2518C128.137 70.6628 127.366 70.8683 126.462 70.8683ZM128.142 65.8282C128.039 65.2733 127.854 64.852 127.587 64.5643C127.33 64.2766 126.934 64.1327 126.4 64.1327C126.04 64.1327 125.748 64.1944 125.522 64.3177C125.295 64.4307 125.111 64.5746 124.967 64.7492C124.833 64.9239 124.735 65.1089 124.674 65.3041C124.622 65.4994 124.592 65.674 124.581 65.8282H128.142ZM131.166 62.6993H133.262V68.0939L136.268 62.6993H138.75V70.668H136.653V65.2733L133.648 70.668H131.166V62.6993ZM134.942 61.7436C134.583 61.7436 134.244 61.7025 133.925 61.6203C133.617 61.5381 133.345 61.4097 133.108 61.235C132.872 61.05 132.682 60.8188 132.538 60.5414C132.404 60.264 132.338 59.9249 132.338 59.5241H133.971C133.992 59.8735 134.074 60.1304 134.218 60.2948C134.362 60.4592 134.603 60.5414 134.942 60.5414C135.271 60.5414 135.513 60.4643 135.667 60.3102C135.821 60.1458 135.903 59.8838 135.913 59.5241H137.547C137.547 59.9249 137.475 60.264 137.332 60.5414C137.198 60.8188 137.013 61.05 136.777 61.235C136.54 61.4097 136.263 61.5381 135.944 61.6203C135.626 61.7025 135.292 61.7436 134.942 61.7436ZM141.888 64.3485H139.268V62.6993H146.697V64.3485H144.077V70.668H141.888V64.3485ZM150.904 70.8683C150.277 70.8683 149.712 70.7707 149.208 70.5755C148.705 70.37 148.279 70.0823 147.929 69.7123C147.58 69.3424 147.307 68.9006 147.112 68.3868C146.927 67.873 146.835 67.3079 146.835 66.6913C146.835 66.0953 146.932 65.5405 147.128 65.0267C147.323 64.5129 147.6 64.0711 147.96 63.7011C148.32 63.3209 148.746 63.023 149.239 62.8072C149.743 62.5914 150.298 62.4835 150.904 62.4835C151.541 62.4835 152.101 62.6017 152.584 62.838C153.077 63.0743 153.483 63.3929 153.802 63.7936C154.13 64.1841 154.377 64.6414 154.541 65.1654C154.706 65.6895 154.788 66.2341 154.788 66.7992C154.788 66.8712 154.788 66.9431 154.788 67.015C154.788 67.0767 154.783 67.1435 154.773 67.2154H149.023C149.054 67.9244 149.234 68.4382 149.563 68.7567C149.892 69.0753 150.364 69.2345 150.981 69.2345C151.423 69.2345 151.803 69.1266 152.122 68.9108C152.44 68.6848 152.635 68.4484 152.707 68.2018H154.634C154.326 69.1575 153.853 69.8408 153.216 70.2518C152.579 70.6628 151.808 70.8683 150.904 70.8683ZM152.584 65.8282C152.481 65.2733 152.296 64.852 152.029 64.5643C151.772 64.2766 151.377 64.1327 150.842 64.1327C150.483 64.1327 150.19 64.1944 149.964 64.3177C149.738 64.4307 149.553 64.5746 149.409 64.7492C149.275 64.9239 149.178 65.1089 149.116 65.3041C149.065 65.4994 149.034 65.674 149.023 65.8282H152.584ZM159.775 70.7913C159.682 70.7913 159.539 70.7759 159.343 70.745C159.148 70.7142 158.994 70.6782 158.881 70.6371V68.9879C158.943 69.0085 159.014 69.0239 159.097 69.0342C159.179 69.0342 159.261 69.0342 159.343 69.0342C159.528 69.0342 159.693 68.9776 159.837 68.8646C159.991 68.7413 160.114 68.5101 160.206 68.171C160.309 67.8319 160.386 67.349 160.438 66.7222C160.499 66.0953 160.53 65.2733 160.53 64.256V62.6993H167.004V70.668H164.815V64.3485H162.565C162.524 65.4788 162.457 66.4499 162.364 67.2616C162.272 68.0734 162.123 68.7413 161.917 69.2654C161.722 69.7894 161.45 70.1747 161.1 70.4214C160.761 70.668 160.319 70.7913 159.775 70.7913ZM171.884 70.8683C171.257 70.8683 170.692 70.7707 170.189 70.5755C169.685 70.37 169.259 70.0823 168.909 69.7123C168.56 69.3424 168.288 68.9006 168.092 68.3868C167.907 67.873 167.815 67.3079 167.815 66.6913C167.815 66.0953 167.913 65.5405 168.108 65.0267C168.303 64.5129 168.581 64.0711 168.94 63.7011C169.3 63.3209 169.726 63.023 170.219 62.8072C170.723 62.5914 171.278 62.4835 171.884 62.4835C172.521 62.4835 173.081 62.6017 173.564 62.838C174.057 63.0743 174.463 63.3929 174.782 63.7936C175.111 64.1841 175.357 64.6414 175.522 65.1654C175.686 65.6895 175.768 66.2341 175.768 66.7992C175.768 66.8712 175.768 66.9431 175.768 67.015C175.768 67.0767 175.763 67.1435 175.753 67.2154H170.004C170.035 67.9244 170.214 68.4382 170.543 68.7567C170.872 69.0753 171.345 69.2345 171.961 69.2345C172.403 69.2345 172.783 69.1266 173.102 68.9108C173.42 68.6848 173.616 68.4484 173.687 68.2018H175.614C175.306 69.1575 174.833 69.8408 174.196 70.2518C173.559 70.6628 172.788 70.8683 171.884 70.8683ZM173.564 65.8282C173.461 65.2733 173.276 64.852 173.009 64.5643C172.752 64.2766 172.357 64.1327 171.822 64.1327C171.463 64.1327 171.17 64.1944 170.944 64.3177C170.718 64.4307 170.533 64.5746 170.389 64.7492C170.255 64.9239 170.158 65.1089 170.096 65.3041C170.045 65.4994 170.014 65.674 170.004 65.8282H173.564ZM178.531 64.3485H175.91V62.6993H183.34V64.3485H180.719V70.668H178.531V64.3485ZM187.732 70.8683C187.105 70.8683 186.54 70.7707 186.036 70.5755C185.533 70.3803 185.101 70.1028 184.741 69.7432C184.382 69.3732 184.104 68.9314 183.909 68.4176C183.714 67.9038 183.616 67.3284 183.616 66.6913C183.616 66.0542 183.714 65.4788 183.909 64.965C184.104 64.441 184.382 63.9991 184.741 63.6395C185.101 63.2696 185.533 62.987 186.036 62.7918C186.54 62.5862 187.105 62.4835 187.732 62.4835C188.358 62.4835 188.924 62.5862 189.427 62.7918C189.941 62.987 190.378 63.2696 190.737 63.6395C191.097 63.9991 191.374 64.441 191.57 64.965C191.765 65.4788 191.862 66.0542 191.862 66.6913C191.862 67.3284 191.765 67.9038 191.57 68.4176C191.374 68.9314 191.097 69.3732 190.737 69.7432C190.378 70.1028 189.941 70.3803 189.427 70.5755C188.924 70.7707 188.358 70.8683 187.732 70.8683ZM187.732 69.2345C188.102 69.2345 188.41 69.1626 188.656 69.0187C188.913 68.8749 189.114 68.6848 189.258 68.4484C189.412 68.2018 189.52 67.9295 189.581 67.6315C189.643 67.3233 189.674 67.0099 189.674 66.6913C189.674 66.3728 189.643 66.0594 189.581 65.7511C189.52 65.4428 189.412 65.1705 189.258 64.9342C189.114 64.6979 188.913 64.5078 188.656 64.3639C188.41 64.2098 188.102 64.1327 187.732 64.1327C187.362 64.1327 187.053 64.2098 186.807 64.3639C186.56 64.5078 186.36 64.6979 186.206 64.9342C186.062 65.1705 185.959 65.4428 185.897 65.7511C185.836 66.0594 185.805 66.3728 185.805 66.6913C185.805 67.0099 185.836 67.3233 185.897 67.6315C185.959 67.9295 186.062 68.2018 186.206 68.4484C186.36 68.6848 186.56 68.8749 186.807 69.0187C187.053 69.1626 187.362 69.2345 187.732 69.2345ZM192.823 62.6993H195.998L197.647 68.4947H197.709L199.358 62.6993H202.534V70.668H200.468V64.6105H200.422L198.711 70.668H196.646L194.935 64.6105H194.889V70.668H192.823V62.6993ZM203.833 68.2943H206.252V70.668H203.833V68.2943ZM207.66 68.2943H210.08V70.668H207.66V68.2943ZM211.487 68.2943H213.907V70.668H211.487V68.2943Z" fill="#104A99"/>
<rect x="19.68" y="20.68" width="709.467" height="267.467" rx="3.85333" stroke="#ADBFFD" stroke-width="1.36" stroke-dasharray="13.6 4.53"/>
<path d="M311.364 172.583L300.725 174.754C292.242 176.486 283.488 176.398 275.042 174.496L202.775 158.223C190.945 155.559 180.173 149.441 171.826 140.645L170.61 139.363" stroke="#ADBFFD" stroke-width="1.36"/>
<circle cx="266.5" cy="180.038" r="4.73008" transform="rotate(-167.31 266.5 180.038)" fill="white" stroke="#ADBFFD" stroke-width="1.36"/>
<circle cx="211.217" cy="167.59" r="4.73008" transform="rotate(-167.31 211.217 167.59)" fill="white" stroke="#ADBFFD" stroke-width="1.36"/>
<path d="M108.307 155.66H132.412C133.106 155.66 133.79 155.82 134.413 156.126L289.6 232.488C290.223 232.794 290.908 232.953 291.602 232.953H351.747" stroke="#ADBFFD" stroke-width="1.36"/>
<rect x="84.9593" y="91.8538" width="290.133" height="170.453" rx="3.85333" stroke="#ADBFFD" stroke-width="1.36"/>
<path d="M425.657 53.2924H428.077V55.666H425.657V53.2924ZM429.485 53.2924H431.905V55.666H429.485V53.2924ZM433.312 53.2924H435.732V55.666H433.312V53.2924ZM439.421 55.8664C439.041 55.8664 438.686 55.8201 438.357 55.7277C438.028 55.6352 437.741 55.4913 437.494 55.2961C437.247 55.1009 437.052 54.8542 436.908 54.5563C436.775 54.2583 436.708 53.9038 436.708 53.4927C436.708 53.0406 436.785 52.6707 436.939 52.383C437.104 52.085 437.309 51.8486 437.556 51.674C437.813 51.4993 438.1 51.3708 438.419 51.2886C438.748 51.1961 439.076 51.1242 439.405 51.0728C439.734 51.0215 440.058 50.9804 440.376 50.9495C440.695 50.9187 440.977 50.8725 441.224 50.8108C441.471 50.7492 441.666 50.6618 441.81 50.5488C441.954 50.4255 442.02 50.2508 442.01 50.0247C442.01 49.7987 441.969 49.6137 441.887 49.4699C441.815 49.326 441.712 49.2181 441.579 49.1462C441.455 49.064 441.306 49.0126 441.132 48.992C440.967 48.9612 440.787 48.9458 440.592 48.9458C440.161 48.9458 439.821 49.0383 439.575 49.2232C439.328 49.4082 439.184 49.7165 439.143 50.148H436.955C436.985 49.6445 437.114 49.2232 437.34 48.8841C437.566 48.5348 437.854 48.2573 438.203 48.0518C438.552 47.8463 438.943 47.7025 439.374 47.6203C439.806 47.5278 440.248 47.4815 440.7 47.4815C441.101 47.4815 441.507 47.5124 441.918 47.574C442.329 47.6254 442.704 47.7333 443.043 47.8977C443.382 48.0621 443.659 48.2933 443.875 48.5913C444.091 48.8893 444.199 49.2746 444.199 49.7473V53.8935C444.199 54.2531 444.219 54.5974 444.261 54.9262C444.302 55.255 444.374 55.5016 444.476 55.666H442.257C442.216 55.5427 442.18 55.4194 442.149 55.2961C442.128 55.1625 442.113 55.0289 442.103 54.8953C441.753 55.255 441.342 55.5067 440.87 55.6506C440.397 55.7945 439.914 55.8664 439.421 55.8664ZM440.238 54.4175C440.669 54.4175 441.003 54.3456 441.239 54.2017C441.476 54.0579 441.651 53.8883 441.764 53.6931C441.877 53.4876 441.943 53.2821 441.964 53.0766C441.995 52.8711 442.01 52.7067 442.01 52.5833V51.7664C441.918 51.8486 441.805 51.9154 441.671 51.9668C441.537 52.0079 441.388 52.0439 441.224 52.0747C441.06 52.1055 440.89 52.1312 440.715 52.1518C440.541 52.1723 440.366 52.198 440.191 52.2288C440.017 52.2597 439.852 52.3008 439.698 52.3521C439.544 52.4035 439.405 52.4755 439.282 52.5679C439.169 52.6501 439.076 52.758 439.005 52.8916C438.933 53.0252 438.897 53.1947 438.897 53.4003C438.897 53.6058 438.933 53.7753 439.005 53.9089C439.076 54.0322 439.174 54.135 439.297 54.2172C439.421 54.2891 439.565 54.3405 439.729 54.3713C439.893 54.4021 440.063 54.4175 440.238 54.4175ZM449.263 47.6973H451.451V50.595H454.55V47.6973H456.738V55.666H454.55V52.3213H451.451V55.666H449.263V47.6973ZM461.621 55.8664C460.994 55.8664 460.429 55.7688 459.925 55.5735C459.422 55.368 458.995 55.0803 458.646 54.7104C458.297 54.3405 458.024 53.8986 457.829 53.3848C457.644 52.8711 457.552 52.3059 457.552 51.6894C457.552 51.0934 457.649 50.5385 457.844 50.0247C458.04 49.511 458.317 49.0691 458.677 48.6992C459.036 48.319 459.463 48.021 459.956 47.8052C460.46 47.5894 461.014 47.4815 461.621 47.4815C462.258 47.4815 462.818 47.5997 463.301 47.836C463.794 48.0724 464.2 48.3909 464.518 48.7917C464.847 49.1821 465.094 49.6394 465.258 50.1635C465.423 50.6875 465.505 51.2321 465.505 51.7973C465.505 51.8692 465.505 51.9411 465.505 52.0131C465.505 52.0747 465.5 52.1415 465.489 52.2134H459.74C459.771 52.9224 459.951 53.4362 460.28 53.7548C460.609 54.0733 461.081 54.2326 461.698 54.2326C462.14 54.2326 462.52 54.1247 462.838 53.9089C463.157 53.6828 463.352 53.4465 463.424 53.1999H465.351C465.043 54.1555 464.57 54.8388 463.933 55.2499C463.296 55.6609 462.525 55.8664 461.621 55.8664ZM463.301 50.8262C463.198 50.2713 463.013 49.8501 462.746 49.5623C462.489 49.2746 462.093 49.1308 461.559 49.1308C461.199 49.1308 460.907 49.1924 460.681 49.3157C460.454 49.4288 460.27 49.5726 460.126 49.7473C459.992 49.922 459.894 50.1069 459.833 50.3022C459.781 50.4974 459.751 50.6721 459.74 50.8262H463.301ZM473.929 55.8664C473.323 55.8664 472.773 55.7688 472.28 55.5735C471.786 55.368 471.365 55.0854 471.016 54.7258C470.666 54.3662 470.394 53.9397 470.199 53.4465C470.004 52.943 469.906 52.3933 469.906 51.7973C469.906 51.1807 469.993 50.6104 470.168 50.0864C470.353 49.5521 470.62 49.0948 470.97 48.7146C471.319 48.3241 471.745 48.021 472.249 47.8052C472.752 47.5894 473.328 47.4815 473.975 47.4815C474.448 47.4815 474.9 47.5432 475.332 47.6665C475.773 47.7898 476.164 47.9799 476.503 48.2368C476.852 48.4834 477.135 48.7968 477.351 49.177C477.566 49.5572 477.69 49.999 477.721 50.5025H475.578C475.434 49.588 474.895 49.1308 473.96 49.1308C473.61 49.1308 473.317 49.213 473.081 49.3774C472.845 49.5315 472.65 49.737 472.495 49.9939C472.352 50.2405 472.249 50.518 472.187 50.8262C472.126 51.1345 472.095 51.4325 472.095 51.7202C472.095 52.0079 472.126 52.3008 472.187 52.5988C472.249 52.8968 472.346 53.1691 472.48 53.4157C472.624 53.652 472.814 53.8472 473.05 54.0014C473.287 54.1555 473.574 54.2326 473.913 54.2326C474.438 54.2326 474.838 54.0887 475.116 53.801C475.403 53.503 475.583 53.1074 475.655 52.6142H477.767C477.623 53.6726 477.212 54.4792 476.534 55.0341C475.856 55.5889 474.987 55.8664 473.929 55.8664ZM480.915 55.8664C480.534 55.8664 480.18 55.8201 479.851 55.7277C479.522 55.6352 479.234 55.4913 478.988 55.2961C478.741 55.1009 478.546 54.8542 478.402 54.5563C478.269 54.2583 478.202 53.9038 478.202 53.4927C478.202 53.0406 478.279 52.6707 478.433 52.383C478.597 52.085 478.803 51.8486 479.049 51.674C479.306 51.4993 479.594 51.3708 479.913 51.2886C480.241 51.1961 480.57 51.1242 480.899 51.0728C481.228 51.0215 481.552 50.9804 481.87 50.9495C482.189 50.9187 482.471 50.8725 482.718 50.8108C482.964 50.7492 483.16 50.6618 483.304 50.5488C483.447 50.4255 483.514 50.2508 483.504 50.0247C483.504 49.7987 483.463 49.6137 483.381 49.4699C483.309 49.326 483.206 49.2181 483.072 49.1462C482.949 49.064 482.8 49.0126 482.625 48.992C482.461 48.9612 482.281 48.9458 482.086 48.9458C481.654 48.9458 481.315 49.0383 481.069 49.2232C480.822 49.4082 480.678 49.7165 480.637 50.148H478.448C478.479 49.6445 478.608 49.2232 478.834 48.8841C479.06 48.5348 479.347 48.2573 479.697 48.0518C480.046 47.8463 480.437 47.7025 480.868 47.6203C481.3 47.5278 481.742 47.4815 482.194 47.4815C482.595 47.4815 483 47.5124 483.411 47.574C483.822 47.6254 484.198 47.7333 484.537 47.8977C484.876 48.0621 485.153 48.2933 485.369 48.5913C485.585 48.8893 485.693 49.2746 485.693 49.7473V53.8935C485.693 54.2531 485.713 54.5974 485.754 54.9262C485.795 55.255 485.867 55.5016 485.97 55.666H483.751C483.709 55.5427 483.673 55.4194 483.643 55.2961C483.622 55.1625 483.607 55.0289 483.596 54.8953C483.247 55.255 482.836 55.5067 482.363 55.6506C481.891 55.7945 481.408 55.8664 480.915 55.8664ZM481.731 54.4175C482.163 54.4175 482.497 54.3456 482.733 54.2017C482.97 54.0579 483.144 53.8883 483.257 53.6931C483.37 53.4876 483.437 53.2821 483.458 53.0766C483.489 52.8711 483.504 52.7067 483.504 52.5833V51.7664C483.411 51.8486 483.298 51.9154 483.165 51.9668C483.031 52.0079 482.882 52.0439 482.718 52.0747C482.553 52.1055 482.384 52.1312 482.209 52.1518C482.035 52.1723 481.86 52.198 481.685 52.2288C481.51 52.2597 481.346 52.3008 481.192 52.3521C481.038 52.4035 480.899 52.4755 480.776 52.5679C480.663 52.6501 480.57 52.758 480.498 52.8916C480.426 53.0252 480.39 53.1947 480.39 53.4003C480.39 53.6058 480.426 53.7753 480.498 53.9089C480.57 54.0322 480.668 54.135 480.791 54.2172C480.915 54.2891 481.058 54.3405 481.223 54.3713C481.387 54.4021 481.557 54.4175 481.731 54.4175ZM486.929 47.6973H490.104L491.753 53.4927H491.815L493.464 47.6973H496.639V55.666H494.574V49.6086H494.528L492.817 55.666H490.752L489.041 49.6086H488.994V55.666H486.929V47.6973ZM505.45 55.8664C504.844 55.8664 504.294 55.7688 503.801 55.5735C503.307 55.368 502.886 55.0854 502.537 54.7258C502.187 54.3662 501.915 53.9397 501.72 53.4465C501.524 52.943 501.427 52.3933 501.427 51.7973C501.427 51.1807 501.514 50.6104 501.689 50.0864C501.874 49.5521 502.141 49.0948 502.49 48.7146C502.84 48.3241 503.266 48.021 503.77 47.8052C504.273 47.5894 504.849 47.4815 505.496 47.4815C505.969 47.4815 506.421 47.5432 506.852 47.6665C507.294 47.7898 507.685 47.9799 508.024 48.2368C508.373 48.4834 508.656 48.7968 508.872 49.177C509.087 49.5572 509.211 49.999 509.241 50.5025H507.099C506.955 49.588 506.416 49.1308 505.481 49.1308C505.131 49.1308 504.838 49.213 504.602 49.3774C504.366 49.5315 504.17 49.737 504.016 49.9939C503.872 50.2405 503.77 50.518 503.708 50.8262C503.646 51.1345 503.616 51.4325 503.616 51.7202C503.616 52.0079 503.646 52.3008 503.708 52.5988C503.77 52.8968 503.867 53.1691 504.001 53.4157C504.145 53.652 504.335 53.8472 504.571 54.0014C504.808 54.1555 505.095 54.2326 505.434 54.2326C505.958 54.2326 506.359 54.0887 506.637 53.801C506.924 53.503 507.104 53.1074 507.176 52.6142H509.288C509.144 53.6726 508.733 54.4792 508.055 55.0341C507.376 55.5889 506.508 55.8664 505.45 55.8664ZM510.062 47.6973H512.25V50.9495L515.179 47.6973H517.753L514.424 51.2116L518.185 55.666H515.533L512.713 52.3521L512.25 52.8608V55.666H510.062V47.6973ZM522.134 55.8664C521.507 55.8664 520.942 55.7688 520.438 55.5735C519.935 55.368 519.508 55.0803 519.159 54.7104C518.81 54.3405 518.537 53.8986 518.342 53.3848C518.157 52.8711 518.065 52.3059 518.065 51.6894C518.065 51.0934 518.162 50.5385 518.357 50.0247C518.553 49.511 518.83 49.0691 519.19 48.6992C519.549 48.319 519.976 48.021 520.469 47.8052C520.973 47.5894 521.527 47.4815 522.134 47.4815C522.771 47.4815 523.331 47.5997 523.814 47.836C524.307 48.0724 524.713 48.3909 525.031 48.7917C525.36 49.1821 525.607 49.6394 525.771 50.1635C525.936 50.6875 526.018 51.2321 526.018 51.7973C526.018 51.8692 526.018 51.9411 526.018 52.0131C526.018 52.0747 526.013 52.1415 526.002 52.2134H520.253C520.284 52.9224 520.464 53.4362 520.793 53.7548C521.122 54.0733 521.594 54.2326 522.211 54.2326C522.653 54.2326 523.033 54.1247 523.351 53.9089C523.67 53.6828 523.865 53.4465 523.937 53.1999H525.864C525.555 54.1555 525.083 54.8388 524.446 55.2499C523.809 55.6609 523.038 55.8664 522.134 55.8664ZM523.814 50.8262C523.711 50.2713 523.526 49.8501 523.259 49.5623C523.002 49.2746 522.606 49.1308 522.072 49.1308C521.712 49.1308 521.42 49.1924 521.194 49.3157C520.967 49.4288 520.782 49.5726 520.639 49.7473C520.505 49.922 520.407 50.1069 520.346 50.3022C520.294 50.4974 520.264 50.6721 520.253 50.8262H523.814ZM526.838 47.6973H528.934V53.092L531.94 47.6973H534.422V55.666H532.325V50.2713L529.32 55.666H526.838V47.6973ZM530.614 46.7417C530.255 46.7417 529.916 46.7006 529.597 46.6184C529.289 46.5362 529.017 46.4077 528.78 46.2331C528.544 46.0481 528.354 45.8169 528.21 45.5395C528.076 45.262 528.01 44.9229 528.01 44.5222H529.643C529.664 44.8715 529.746 45.1284 529.89 45.2928C530.034 45.4573 530.275 45.5395 530.614 45.5395C530.943 45.5395 531.185 45.4624 531.339 45.3083C531.493 45.1438 531.575 44.8818 531.585 44.5222H533.219C533.219 44.9229 533.147 45.262 533.004 45.5395C532.87 45.8169 532.685 46.0481 532.449 46.2331C532.212 46.4077 531.935 46.5362 531.616 46.6184C531.298 46.7006 530.964 46.7417 530.614 46.7417ZM537.56 49.3465H534.94V47.6973H542.369V49.3465H539.749V55.666H537.56V49.3465ZM550.496 55.8664C549.89 55.8664 549.34 55.7688 548.847 55.5735C548.353 55.368 547.932 55.0854 547.583 54.7258C547.233 54.3662 546.961 53.9397 546.766 53.4465C546.571 52.943 546.473 52.3933 546.473 51.7973C546.473 51.1807 546.56 50.6104 546.735 50.0864C546.92 49.5521 547.187 49.0948 547.536 48.7146C547.886 48.3241 548.312 48.021 548.816 47.8052C549.319 47.5894 549.895 47.4815 550.542 47.4815C551.015 47.4815 551.467 47.5432 551.898 47.6665C552.34 47.7898 552.731 47.9799 553.07 48.2368C553.419 48.4834 553.702 48.7968 553.918 49.177C554.133 49.5572 554.257 49.999 554.288 50.5025H552.145C552.001 49.588 551.462 49.1308 550.527 49.1308C550.177 49.1308 549.884 49.213 549.648 49.3774C549.412 49.5315 549.217 49.737 549.062 49.9939C548.919 50.2405 548.816 50.518 548.754 50.8262C548.692 51.1345 548.662 51.4325 548.662 51.7202C548.662 52.0079 548.692 52.3008 548.754 52.5988C548.816 52.8968 548.913 53.1691 549.047 53.4157C549.191 53.652 549.381 53.8472 549.617 54.0014C549.854 54.1555 550.141 54.2326 550.48 54.2326C551.004 54.2326 551.405 54.0887 551.683 53.801C551.97 53.503 552.15 53.1074 552.222 52.6142H554.334C554.19 53.6726 553.779 54.4792 553.101 55.0341C552.422 55.5889 551.554 55.8664 550.496 55.8664ZM558.935 47.6973H561.124V50.9495L564.052 47.6973H566.626L563.297 51.2116L567.058 55.666H564.407L561.586 52.3521L561.124 52.8608V55.666H558.935V47.6973ZM568.51 58.4558C568.284 58.4558 568.058 58.4456 567.832 58.425C567.616 58.4147 567.395 58.3993 567.169 58.3788V56.5754C567.344 56.596 567.524 56.6114 567.709 56.6216C567.904 56.6422 568.094 56.6525 568.279 56.6525C568.608 56.6525 568.86 56.56 569.034 56.375C569.209 56.1901 569.296 55.9537 569.296 55.666C569.296 55.4913 569.266 55.3269 569.204 55.1728L566.414 47.6973H568.741L570.545 53.1536H570.576L572.317 47.6973H574.583L571.254 56.6525C571.018 57.2998 570.689 57.7622 570.267 58.0397C569.846 58.3171 569.26 58.4558 568.51 58.4558ZM579.848 52.7375C579.642 52.7991 579.339 52.8762 578.938 52.9687C578.537 53.0509 578.121 53.092 577.69 53.092C576.601 53.092 575.82 52.8402 575.347 52.3367C574.874 51.8332 574.638 51.1499 574.638 50.2868V47.6973H576.811V49.8398C576.811 50.4255 576.924 50.8314 577.15 51.0574C577.376 51.2835 577.746 51.3965 578.26 51.3965C578.579 51.3965 578.877 51.3708 579.154 51.3195C579.431 51.2681 579.663 51.2167 579.848 51.1653V47.6973H582.036V55.666H579.848V52.7375ZM586.926 55.8664C586.299 55.8664 585.734 55.7688 585.23 55.5735C584.727 55.368 584.3 55.0803 583.951 54.7104C583.602 54.3405 583.329 53.8986 583.134 53.3848C582.949 52.8711 582.857 52.3059 582.857 51.6894C582.857 51.0934 582.954 50.5385 583.149 50.0247C583.345 49.511 583.622 49.0691 583.982 48.6992C584.341 48.319 584.768 48.021 585.261 47.8052C585.765 47.5894 586.319 47.4815 586.926 47.4815C587.563 47.4815 588.123 47.5997 588.606 47.836C589.099 48.0724 589.505 48.3909 589.823 48.7917C590.152 49.1821 590.399 49.6394 590.563 50.1635C590.728 50.6875 590.81 51.2321 590.81 51.7973C590.81 51.8692 590.81 51.9411 590.81 52.0131C590.81 52.0747 590.805 52.1415 590.794 52.2134H585.045C585.076 52.9224 585.256 53.4362 585.585 53.7548C585.914 54.0733 586.386 54.2326 587.003 54.2326C587.445 54.2326 587.825 54.1247 588.143 53.9089C588.462 53.6828 588.657 53.4465 588.729 53.1999H590.656C590.347 54.1555 589.875 54.8388 589.238 55.2499C588.601 55.6609 587.83 55.8664 586.926 55.8664ZM588.606 50.8262C588.503 50.2713 588.318 49.8501 588.051 49.5623C587.794 49.2746 587.398 49.1308 586.864 49.1308C586.504 49.1308 586.212 49.1924 585.986 49.3157C585.759 49.4288 585.574 49.5726 585.431 49.7473C585.297 49.922 585.199 50.1069 585.138 50.3022C585.086 50.4974 585.056 50.6721 585.045 50.8262H588.606ZM591.63 47.6973H593.726V53.092L596.732 47.6973H599.214V55.666H597.117V50.2713L594.112 55.666H591.63V47.6973ZM595.406 46.7417C595.047 46.7417 594.708 46.7006 594.389 46.6184C594.081 46.5362 593.809 46.4077 593.572 46.2331C593.336 46.0481 593.146 45.8169 593.002 45.5395C592.868 45.262 592.802 44.9229 592.802 44.5222H594.435C594.456 44.8715 594.538 45.1284 594.682 45.2928C594.826 45.4573 595.067 45.5395 595.406 45.5395C595.735 45.5395 595.977 45.4624 596.131 45.3083C596.285 45.1438 596.367 44.8818 596.377 44.5222H598.011C598.011 44.9229 597.939 45.262 597.795 45.5395C597.662 45.8169 597.477 46.0481 597.241 46.2331C597.004 46.4077 596.727 46.5362 596.408 46.6184C596.09 46.7006 595.756 46.7417 595.406 46.7417ZM425.565 62.6973H427.646V63.7146H427.676C427.944 63.283 428.283 62.9696 428.694 62.7744C429.105 62.5792 429.557 62.4815 430.05 62.4815C430.677 62.4815 431.216 62.5997 431.668 62.836C432.121 63.0724 432.496 63.3858 432.794 63.7763C433.092 64.1667 433.313 64.624 433.456 65.148C433.6 65.6618 433.672 66.2013 433.672 66.7664C433.672 67.3008 433.6 67.8145 433.456 68.3078C433.313 68.801 433.092 69.2377 432.794 69.6179C432.506 69.9981 432.141 70.3012 431.699 70.5273C431.268 70.7534 430.759 70.8664 430.173 70.8664C429.68 70.8664 429.223 70.7688 428.802 70.5735C428.391 70.368 428.051 70.07 427.784 69.6796H427.753V73.4558H425.565V62.6973ZM429.588 69.2326C429.947 69.2326 430.245 69.1606 430.482 69.0168C430.728 68.8729 430.923 68.688 431.067 68.4619C431.221 68.2256 431.329 67.9584 431.391 67.6604C431.453 67.3521 431.483 67.0336 431.483 66.7048C431.483 66.3862 431.447 66.0728 431.376 65.7646C431.314 65.4563 431.206 65.184 431.052 64.9477C430.898 64.7011 430.697 64.5058 430.451 64.362C430.214 64.2078 429.922 64.1308 429.572 64.1308C429.213 64.1308 428.909 64.2078 428.663 64.362C428.426 64.5058 428.231 64.6959 428.077 64.9323C427.933 65.1686 427.831 65.446 427.769 65.7646C427.707 66.0728 427.676 66.3862 427.676 66.7048C427.676 67.0336 427.707 67.3521 427.769 67.6604C427.841 67.9584 427.949 68.2256 428.093 68.4619C428.247 68.688 428.442 68.8729 428.678 69.0168C428.925 69.1606 429.228 69.2326 429.588 69.2326ZM436.899 70.8664C436.518 70.8664 436.164 70.8201 435.835 70.7277C435.506 70.6352 435.219 70.4913 434.972 70.2961C434.725 70.1009 434.53 69.8542 434.386 69.5563C434.253 69.2583 434.186 68.9038 434.186 68.4927C434.186 68.0406 434.263 67.6707 434.417 67.383C434.581 67.085 434.787 66.8486 435.034 66.674C435.29 66.4993 435.578 66.3708 435.897 66.2886C436.226 66.1961 436.554 66.1242 436.883 66.0728C437.212 66.0215 437.536 65.9804 437.854 65.9495C438.173 65.9187 438.455 65.8725 438.702 65.8108C438.949 65.7492 439.144 65.6618 439.288 65.5488C439.432 65.4255 439.498 65.2508 439.488 65.0247C439.488 64.7987 439.447 64.6137 439.365 64.4699C439.293 64.326 439.19 64.2181 439.056 64.1462C438.933 64.064 438.784 64.0126 438.609 63.992C438.445 63.9612 438.265 63.9458 438.07 63.9458C437.638 63.9458 437.299 64.0383 437.053 64.2232C436.806 64.4082 436.662 64.7165 436.621 65.148H434.432C434.463 64.6445 434.592 64.2232 434.818 63.8841C435.044 63.5348 435.332 63.2573 435.681 63.0518C436.03 62.8463 436.421 62.7025 436.852 62.6203C437.284 62.5278 437.726 62.4815 438.178 62.4815C438.579 62.4815 438.985 62.5124 439.396 62.574C439.807 62.6254 440.182 62.7333 440.521 62.8977C440.86 63.0621 441.137 63.2933 441.353 63.5913C441.569 63.8893 441.677 64.2746 441.677 64.7473V68.8935C441.677 69.2531 441.697 69.5974 441.738 69.9262C441.779 70.255 441.851 70.5016 441.954 70.666H439.735C439.694 70.5427 439.658 70.4194 439.627 70.2961C439.606 70.1625 439.591 70.0289 439.581 69.8953C439.231 70.255 438.82 70.5067 438.347 70.6506C437.875 70.7945 437.392 70.8664 436.899 70.8664ZM437.716 69.4175C438.147 69.4175 438.481 69.3456 438.717 69.2017C438.954 69.0579 439.128 68.8883 439.241 68.6931C439.354 68.4876 439.421 68.2821 439.442 68.0766C439.473 67.8711 439.488 67.7067 439.488 67.5833V66.7664C439.396 66.8486 439.283 66.9154 439.149 66.9668C439.015 67.0079 438.866 67.0439 438.702 67.0747C438.538 67.1055 438.368 67.1312 438.193 67.1518C438.019 67.1723 437.844 67.198 437.669 67.2288C437.495 67.2597 437.33 67.3008 437.176 67.3521C437.022 67.4035 436.883 67.4755 436.76 67.5679C436.647 67.6501 436.554 67.758 436.482 67.8916C436.411 68.0252 436.375 68.1947 436.375 68.4003C436.375 68.6058 436.411 68.7753 436.482 68.9089C436.554 69.0322 436.652 69.135 436.775 69.2172C436.899 69.2891 437.042 69.3405 437.207 69.3713C437.371 69.4021 437.541 69.4175 437.716 69.4175ZM446.15 70.8664C445.646 70.8664 445.169 70.815 444.717 70.7123C444.275 70.6198 443.884 70.4605 443.545 70.2344C443.206 70.0084 442.934 69.7207 442.728 69.3713C442.533 69.0219 442.43 68.5904 442.42 68.0766H444.501C444.542 68.5081 444.706 68.837 444.994 69.063C445.292 69.2891 445.693 69.4021 446.196 69.4021C446.689 69.4021 447.049 69.2994 447.275 69.0939C447.501 68.8883 447.614 68.6366 447.614 68.3386C447.614 68.0098 447.506 67.7426 447.291 67.5371C447.085 67.3316 446.736 67.2288 446.242 67.2288H445.395V65.8571H445.965C446.427 65.8571 446.792 65.7851 447.059 65.6413C447.337 65.4974 447.476 65.2251 447.476 64.8244C447.476 64.588 447.373 64.3825 447.167 64.2078C446.972 64.0229 446.659 63.9304 446.227 63.9304C445.785 63.9304 445.436 64.0075 445.179 64.1616C444.932 64.3054 444.778 64.5932 444.717 65.0247H442.682C442.723 64.5623 442.846 64.1719 443.052 63.8533C443.268 63.5245 443.535 63.2625 443.853 63.0672C444.182 62.8617 444.552 62.7127 444.963 62.6203C445.384 62.5278 445.821 62.4815 446.273 62.4815C447.332 62.4815 448.149 62.6562 448.724 63.0056C449.31 63.3447 449.603 63.8841 449.603 64.624C449.603 64.8603 449.556 65.0813 449.464 65.2868C449.382 65.482 449.274 65.6567 449.14 65.8108C449.007 65.9649 448.852 66.0934 448.678 66.1961C448.503 66.2886 448.334 66.3503 448.169 66.3811V66.4119C448.354 66.4325 448.544 66.4787 448.739 66.5507C448.945 66.6123 449.13 66.7202 449.294 66.8743C449.459 67.0182 449.592 67.2083 449.695 67.4446C449.808 67.6707 449.865 67.9584 449.865 68.3078C449.865 68.7393 449.772 69.1144 449.587 69.4329C449.412 69.7515 449.161 70.0187 448.832 70.2344C448.513 70.4502 448.123 70.6095 447.66 70.7123C447.208 70.815 446.705 70.8664 446.15 70.8664ZM450.805 62.6973H452.993V65.595H456.091V62.6973H458.28V70.666H456.091V67.3213H452.993V70.666H450.805V62.6973ZM459.479 62.6973H461.668V65.4409H463.779C464.18 65.4409 464.555 65.4974 464.904 65.6104C465.264 65.7132 465.572 65.8776 465.829 66.1037C466.096 66.3195 466.307 66.5918 466.461 66.9206C466.615 67.2391 466.692 67.6142 466.692 68.0457C466.692 68.4876 466.615 68.8729 466.461 69.2017C466.317 69.5306 466.107 69.8029 465.829 70.0187C465.562 70.2344 465.243 70.3989 464.874 70.5119C464.514 70.6146 464.118 70.666 463.687 70.666H459.479V62.6973ZM463.163 69.1555C463.563 69.1555 463.882 69.0682 464.118 68.8935C464.365 68.7188 464.488 68.4362 464.488 68.0457C464.488 67.6553 464.36 67.3727 464.103 67.198C463.846 67.0131 463.527 66.9206 463.147 66.9206H461.668V69.1555H463.163ZM467.633 62.6973H469.806V70.666H467.633V62.6973ZM473.048 66.4736L470.427 62.6973H472.924L474.327 64.7781L475.714 62.6973H478.134L475.514 66.4273L478.458 70.666H475.961L474.296 68.1536L472.631 70.666H470.181L473.048 66.4736ZM481.932 69.0168H482.888C483.001 68.7907 483.114 68.5081 483.227 68.1691C483.35 67.83 483.458 67.4498 483.551 67.0285C483.653 66.6072 483.736 66.1499 483.797 65.6567C483.859 65.1635 483.89 64.6445 483.89 64.0999V62.6973H490.255V69.0168H491.288V72.8547H489.238V70.666H483.982V72.8547H481.932V69.0168ZM488.067 69.0168V64.3311H485.924V64.5315C485.924 65.0247 485.893 65.4974 485.832 65.9495C485.78 66.4017 485.709 66.823 485.616 67.2134C485.524 67.5936 485.426 67.9379 485.323 68.2461C485.22 68.5544 485.123 68.8113 485.03 69.0168H488.067ZM495.496 70.8664C494.87 70.8664 494.304 70.7688 493.801 70.5735C493.297 70.368 492.871 70.0803 492.522 69.7104C492.172 69.3405 491.9 68.8986 491.705 68.3848C491.52 67.8711 491.427 67.3059 491.427 66.6894C491.427 66.0934 491.525 65.5385 491.72 65.0247C491.915 64.511 492.193 64.0691 492.552 63.6992C492.912 63.319 493.338 63.021 493.832 62.8052C494.335 62.5894 494.89 62.4815 495.496 62.4815C496.133 62.4815 496.693 62.5997 497.176 62.836C497.67 63.0724 498.076 63.3909 498.394 63.7917C498.723 64.1821 498.969 64.6394 499.134 65.1635C499.298 65.6875 499.381 66.2321 499.381 66.7973C499.381 66.8692 499.381 66.9411 499.381 67.0131C499.381 67.0747 499.375 67.1415 499.365 67.2134H493.616C493.647 67.9224 493.827 68.4362 494.155 68.7548C494.484 69.0733 494.957 69.2326 495.573 69.2326C496.015 69.2326 496.395 69.1247 496.714 68.9089C497.033 68.6828 497.228 68.4465 497.3 68.1999H499.226C498.918 69.1555 498.445 69.8388 497.808 70.2499C497.171 70.6609 496.401 70.8664 495.496 70.8664ZM497.176 65.8262C497.074 65.2713 496.889 64.8501 496.622 64.5623C496.365 64.2746 495.969 64.1308 495.435 64.1308C495.075 64.1308 494.782 64.1924 494.556 64.3157C494.33 64.4288 494.145 64.5726 494.001 64.7473C493.868 64.922 493.77 65.1069 493.708 65.3022C493.657 65.4974 493.626 65.6721 493.616 65.8262H497.176ZM502.143 64.3465H499.523V62.6973H506.952V64.3465H504.332V70.666H502.143V64.3465ZM509.849 70.8664C509.469 70.8664 509.114 70.8201 508.785 70.7277C508.456 70.6352 508.169 70.4913 507.922 70.2961C507.676 70.1009 507.48 69.8542 507.336 69.5563C507.203 69.2583 507.136 68.9038 507.136 68.4927C507.136 68.0406 507.213 67.6707 507.367 67.383C507.532 67.085 507.737 66.8486 507.984 66.674C508.241 66.4993 508.528 66.3708 508.847 66.2886C509.176 66.1961 509.505 66.1242 509.833 66.0728C510.162 66.0215 510.486 65.9804 510.804 65.9495C511.123 65.9187 511.406 65.8725 511.652 65.8108C511.899 65.7492 512.094 65.6618 512.238 65.5488C512.382 65.4255 512.449 65.2508 512.438 65.0247C512.438 64.7987 512.397 64.6137 512.315 64.4699C512.243 64.326 512.14 64.2181 512.007 64.1462C511.883 64.064 511.734 64.0126 511.56 63.992C511.395 63.9612 511.215 63.9458 511.02 63.9458C510.589 63.9458 510.25 64.0383 510.003 64.2232C509.756 64.4082 509.612 64.7165 509.571 65.148H507.383C507.414 64.6445 507.542 64.2232 507.768 63.8841C507.994 63.5348 508.282 63.2573 508.631 63.0518C508.981 62.8463 509.371 62.7025 509.803 62.6203C510.234 62.5278 510.676 62.4815 511.128 62.4815C511.529 62.4815 511.935 62.5124 512.346 62.574C512.757 62.6254 513.132 62.7333 513.471 62.8977C513.81 63.0621 514.087 63.2933 514.303 63.5913C514.519 63.8893 514.627 64.2746 514.627 64.7473V68.8935C514.627 69.2531 514.648 69.5974 514.689 69.9262C514.73 70.255 514.802 70.5016 514.904 70.666H512.685C512.644 70.5427 512.608 70.4194 512.577 70.2961C512.556 70.1625 512.541 70.0289 512.531 69.8953C512.181 70.255 511.77 70.5067 511.298 70.6506C510.825 70.7945 510.342 70.8664 509.849 70.8664ZM510.666 69.4175C511.097 69.4175 511.431 69.3456 511.668 69.2017C511.904 69.0579 512.079 68.8883 512.192 68.6931C512.305 68.4876 512.371 68.2821 512.392 68.0766C512.423 67.8711 512.438 67.7067 512.438 67.5833V66.7664C512.346 66.8486 512.233 66.9154 512.099 66.9668C511.966 67.0079 511.817 67.0439 511.652 67.0747C511.488 67.1055 511.318 67.1312 511.144 67.1518C510.969 67.1723 510.794 67.198 510.619 67.2288C510.445 67.2597 510.28 67.3008 510.126 67.3521C509.972 67.4035 509.833 67.4755 509.71 67.5679C509.597 67.6501 509.505 67.758 509.433 67.8916C509.361 68.0252 509.325 68.1947 509.325 68.4003C509.325 68.6058 509.361 68.7753 509.433 68.9089C509.505 69.0322 509.602 69.135 509.726 69.2172C509.849 69.2891 509.993 69.3405 510.157 69.3713C510.321 69.4021 510.491 69.4175 510.666 69.4175ZM516.202 70.7893C516.11 70.7893 515.966 70.7739 515.771 70.7431C515.576 70.7123 515.422 70.6763 515.309 70.6352V68.986C515.37 69.0065 515.442 69.0219 515.524 69.0322C515.607 69.0322 515.689 69.0322 515.771 69.0322C515.956 69.0322 516.12 68.9757 516.264 68.8627C516.418 68.7393 516.542 68.5081 516.634 68.1691C516.737 67.83 516.814 67.347 516.865 66.7202C516.927 66.0934 516.958 65.2713 516.958 64.2541V62.6973H523.431V70.666H521.243V64.3465H518.992C518.951 65.4769 518.884 66.4479 518.792 67.2597C518.699 68.0714 518.55 68.7393 518.345 69.2634C518.15 69.7875 517.877 70.1728 517.528 70.4194C517.189 70.666 516.747 70.7893 516.202 70.7893ZM528.312 70.8664C527.685 70.8664 527.12 70.7688 526.616 70.5735C526.113 70.368 525.686 70.0803 525.337 69.7104C524.988 69.3405 524.715 68.8986 524.52 68.3848C524.335 67.8711 524.243 67.3059 524.243 66.6894C524.243 66.0934 524.34 65.5385 524.535 65.0247C524.731 64.511 525.008 64.0691 525.368 63.6992C525.727 63.319 526.154 63.021 526.647 62.8052C527.151 62.5894 527.705 62.4815 528.312 62.4815C528.949 62.4815 529.509 62.5997 529.992 62.836C530.485 63.0724 530.891 63.3909 531.209 63.7917C531.538 64.1821 531.785 64.6394 531.949 65.1635C532.114 65.6875 532.196 66.2321 532.196 66.7973C532.196 66.8692 532.196 66.9411 532.196 67.0131C532.196 67.0747 532.191 67.1415 532.18 67.2134H526.431C526.462 67.9224 526.642 68.4362 526.971 68.7548C527.3 69.0733 527.772 69.2326 528.389 69.2326C528.831 69.2326 529.211 69.1247 529.529 68.9089C529.848 68.6828 530.043 68.4465 530.115 68.1999H532.042C531.733 69.1555 531.261 69.8388 530.624 70.2499C529.987 70.6609 529.216 70.8664 528.312 70.8664ZM529.992 65.8262C529.889 65.2713 529.704 64.8501 529.437 64.5623C529.18 64.2746 528.784 64.1308 528.25 64.1308C527.89 64.1308 527.598 64.1924 527.371 64.3157C527.145 64.4288 526.96 64.5726 526.817 64.7473C526.683 64.922 526.585 65.1069 526.524 65.3022C526.472 65.4974 526.442 65.6721 526.431 65.8262H529.992ZM533.016 62.6973H535.112V68.092L538.118 62.6973H540.6V70.666H538.503V65.2713L535.498 70.666H533.016V62.6973ZM536.792 61.7417C536.433 61.7417 536.094 61.7006 535.775 61.6184C535.467 61.5362 535.195 61.4077 534.958 61.2331C534.722 61.0481 534.532 60.8169 534.388 60.5395C534.254 60.262 534.188 59.9229 534.188 59.5222H535.821C535.842 59.8715 535.924 60.1284 536.068 60.2928C536.212 60.4573 536.453 60.5395 536.792 60.5395C537.121 60.5395 537.363 60.4624 537.517 60.3083C537.671 60.1438 537.753 59.8818 537.763 59.5222H539.397C539.397 59.9229 539.325 60.262 539.181 60.5395C539.048 60.8169 538.863 61.0481 538.627 61.2331C538.39 61.4077 538.113 61.5362 537.794 61.6184C537.476 61.7006 537.142 61.7417 536.792 61.7417Z" fill="#104A99"/>
<path d="M616.661 124.619L606.816 129.198C598.966 132.85 590.43 134.795 581.773 134.904L507.703 135.837C495.578 135.989 483.681 132.537 473.521 125.916L472.041 124.952" stroke="#ADBFFD" stroke-width="1.36"/>
<path d="M584.986 188.867L584.986 163.027C584.986 160.524 582.957 158.494 580.453 158.494L577.733 158.494C575.229 158.494 573.2 160.524 573.2 163.027L573.2 188.867C573.2 191.371 575.229 193.401 577.733 193.401L580.453 193.401C582.957 193.401 584.986 191.371 584.986 188.867Z" stroke="#ADBFFD" stroke-width="1.36"/>
<path d="M584.986 241.907L584.986 216.067C584.986 213.563 582.957 211.533 580.453 211.533L577.733 211.533C575.229 211.533 573.2 213.563 573.2 216.067L573.2 241.907C573.2 244.41 575.229 246.44 577.733 246.44L580.453 246.44C582.957 246.44 584.986 244.41 584.986 241.907Z" stroke="#ADBFFD" stroke-width="1.36"/>
<path d="M617.626 158.494H540.332C537.828 158.494 535.799 160.524 535.799 163.027V165.521C535.799 168.024 537.828 170.054 540.332 170.054H617.625C620.129 170.054 622.159 168.024 622.159 165.521V163.027C622.159 160.524 620.129 158.494 617.626 158.494Z" fill="white" stroke="#ADBFFD" stroke-width="1.36"/>
<path d="M617.626 211.533H540.332C537.828 211.533 535.799 213.563 535.799 216.067V218.56C535.799 221.064 537.828 223.093 540.332 223.093H617.625C620.129 223.093 622.159 221.064 622.159 218.56V216.067C622.159 213.563 620.129 211.533 617.626 211.533Z" fill="white" stroke="#ADBFFD" stroke-width="1.36"/>
<path d="M536.025 164.84H528.545" stroke="#ADBFFD" stroke-width="1.36"/>
<path d="M536.025 217.881H528.545" stroke="#ADBFFD" stroke-width="1.36"/>
<path d="M629.865 164.84H622.385" stroke="#ADBFFD" stroke-width="1.36"/>
<path d="M629.865 217.881H622.385" stroke="#ADBFFD" stroke-width="1.36"/>
<path d="M511.091 164.84H503.611" stroke="#ADBFFD" stroke-width="1.36"/>
<path d="M511.091 200.201H503.611" stroke="#ADBFFD" stroke-width="1.36"/>
<path d="M511.091 172.094H503.611" stroke="#ADBFFD" stroke-width="1.36"/>
<path d="M511.091 207.453H503.611" stroke="#ADBFFD" stroke-width="1.36"/>
<path d="M511.091 179.348H503.611" stroke="#ADBFFD" stroke-width="1.36"/>
<path d="M511.091 214.707H503.611" stroke="#ADBFFD" stroke-width="1.36"/>
<path d="M511.091 186.602H503.611" stroke="#ADBFFD" stroke-width="1.36"/>
<path d="M511.091 221.961H503.611" stroke="#ADBFFD" stroke-width="1.36"/>
<path d="M511.091 193.854H503.611" stroke="#ADBFFD" stroke-width="1.36"/>
<path d="M511.091 229.215H503.611" stroke="#ADBFFD" stroke-width="1.36"/>
<path d="M480.728 170.702L480.728 170.702L480.728 170.711C480.761 173.323 478.67 175.467 476.058 175.5C473.447 175.533 471.304 173.444 471.269 170.834L471.269 167.333L480.728 167.333L480.728 170.702Z" stroke="#ADBFFD" stroke-width="1.36"/>
<circle cx="475.997" cy="167.143" r="4.73008" transform="rotate(179.278 475.997 167.143)" fill="white" stroke="#ADBFFD" stroke-width="1.36"/>
<path d="M493.42 170.702L493.42 170.702L493.42 170.711C493.453 173.323 491.362 175.467 488.75 175.5C486.139 175.533 483.995 173.444 483.96 170.834L483.96 167.333L493.42 167.333L493.42 170.702Z" stroke="#ADBFFD" stroke-width="1.36"/>
<circle cx="488.688" cy="167.143" r="4.73008" transform="rotate(179.278 488.688 167.143)" fill="white" stroke="#ADBFFD" stroke-width="1.36"/>
<path d="M493.42 188.837L493.42 188.837L493.42 188.846C493.453 191.458 491.362 193.602 488.75 193.635C486.139 193.668 483.995 191.579 483.96 188.969L483.96 185.467L493.42 185.467L493.42 188.837Z" stroke="#ADBFFD" stroke-width="1.36"/>
<circle cx="488.688" cy="185.278" r="4.73008" transform="rotate(179.278 488.688 185.278)" fill="white" stroke="#ADBFFD" stroke-width="1.36"/>
<path d="M480.728 188.837L480.728 188.837L480.728 188.846C480.761 191.458 478.67 193.602 476.058 193.635C473.447 193.668 471.304 191.579 471.269 188.969L471.269 185.467L480.728 185.467L480.728 188.837Z" stroke="#ADBFFD" stroke-width="1.36"/>
<circle cx="475.997" cy="185.278" r="4.73008" transform="rotate(179.278 475.997 185.278)" fill="white" stroke="#ADBFFD" stroke-width="1.36"/>
<rect x="425.412" y="91.8538" width="238" height="170.453" rx="3.85333" stroke="#ADBFFD" stroke-width="1.36"/>
</svg>
