<svg width="238" height="158" viewBox="0 0 238 158" fill="none" xmlns="http://www.w3.org/2000/svg">
<rect x="1.57065" y="1.05893" width="234.858" height="155.815" rx="3.37828" fill="white" stroke="#ADBFFD" stroke-width="1.81708"/>
<mask id="mask0_1910_3454" style="mask-type:alpha" maskUnits="userSpaceOnUse" x="0" y="0" width="238" height="158">
<path d="M0.66211 4.43721C0.66211 2.06966 2.58138 0.150394 4.94893 0.150393L233.05 0.150392C235.418 0.150392 237.337 2.06967 237.337 4.43721L237.337 153.495C237.337 155.863 235.418 157.782 233.05 157.782L4.94894 157.782C2.5814 157.782 0.662134 155.862 0.662134 153.495L0.66211 4.43721Z" fill="#D9D9D9"/>
</mask>
<g mask="url(#mask0_1910_3454)">
<path d="M-98.8223 -105.717L886.145 836.138" stroke="#ADBFFD" stroke-width="0.857364"/>
<path d="M194.268 -482.361L1179.24 459.494" stroke="#ADBFFD" stroke-width="0.857364"/>
<path d="M-243.193 -182.096L741.774 759.759" stroke="#ADBFFD" stroke-width="0.857364"/>
<path d="M47.7227 -294.039L1032.69 647.816" stroke="#ADBFFD" stroke-width="0.857364"/>
<path d="M-389.738 6.22852L595.229 948.084" stroke="#ADBFFD" stroke-width="0.857364"/>
<path d="M-62.1855 -152.799L922.782 789.056" stroke="#ADBFFD" stroke-width="0.857364"/>
<path d="M-499.648 147.469L485.319 1089.32" stroke="#ADBFFD" stroke-width="0.857364"/>
<path d="M84.3594 -341.121L1069.33 600.734" stroke="#ADBFFD" stroke-width="0.857364"/>
<path d="M-353.102 -40.8535L631.866 901.002" stroke="#ADBFFD" stroke-width="0.857364"/>
<path d="M-25.5488 -199.877L959.419 741.978" stroke="#ADBFFD" stroke-width="0.857364"/>
<path d="M-463.012 100.389L521.956 1042.24" stroke="#ADBFFD" stroke-width="0.857364"/>
<path d="M120.996 -388.201L1105.96 553.654" stroke="#ADBFFD" stroke-width="0.857364"/>
<path d="M-316.467 -87.9336L668.501 853.921" stroke="#ADBFFD" stroke-width="0.857364"/>
<path d="M11.0879 -246.959L996.056 694.896" stroke="#ADBFFD" stroke-width="0.857364"/>
<path d="M-426.375 53.3086L558.593 995.164" stroke="#ADBFFD" stroke-width="0.857364"/>
<path d="M157.633 -435.281L1142.6 506.574" stroke="#ADBFFD" stroke-width="0.857364"/>
<path d="M-279.83 -135.016L705.138 806.839" stroke="#ADBFFD" stroke-width="0.857364"/>
<path d="M-89.6641 -117.486L895.304 824.369" stroke="#ADBFFD" stroke-width="0.857364"/>
<path d="M203.428 -494.133L1188.4 447.722" stroke="#ADBFFD" stroke-width="0.857364"/>
<path d="M-234.033 -193.865L750.935 747.99" stroke="#ADBFFD" stroke-width="0.857364"/>
<path d="M56.8828 -305.811L1041.85 636.045" stroke="#ADBFFD" stroke-width="0.857364"/>
<path d="M-380.58 -5.54297L604.388 936.312" stroke="#ADBFFD" stroke-width="0.857364"/>
<path d="M-53.0273 -164.568L931.94 777.287" stroke="#ADBFFD" stroke-width="0.857364"/>
<path d="M-490.49 135.699L494.477 1077.55" stroke="#ADBFFD" stroke-width="0.857364"/>
<path d="M93.5195 -352.891L1078.49 588.964" stroke="#ADBFFD" stroke-width="0.857364"/>
<path d="M-343.943 -52.623L641.024 889.232" stroke="#ADBFFD" stroke-width="0.857364"/>
<path d="M-16.3906 -211.648L968.577 730.207" stroke="#ADBFFD" stroke-width="0.857364"/>
<path d="M-453.854 88.6191L531.114 1030.47" stroke="#ADBFFD" stroke-width="0.857364"/>
<path d="M130.154 -399.971L1115.12 541.884" stroke="#ADBFFD" stroke-width="0.857364"/>
<path d="M-307.307 -99.7031L677.661 842.152" stroke="#ADBFFD" stroke-width="0.857364"/>
<path d="M20.2461 -258.729L1005.21 683.127" stroke="#ADBFFD" stroke-width="0.857364"/>
<path d="M-417.217 41.5391L567.751 983.394" stroke="#ADBFFD" stroke-width="0.857364"/>
<path d="M166.791 -447.051L1151.76 494.804" stroke="#ADBFFD" stroke-width="0.857364"/>
<path d="M-270.67 -146.783L714.298 795.072" stroke="#ADBFFD" stroke-width="0.857364"/>
<path d="M-80.5039 -129.258L904.464 812.597" stroke="#ADBFFD" stroke-width="0.857364"/>
<path d="M212.586 -505.902L1197.55 435.953" stroke="#ADBFFD" stroke-width="0.857364"/>
<path d="M-224.875 -205.635L760.093 736.22" stroke="#ADBFFD" stroke-width="0.857364"/>
<path d="M66.041 -317.58L1051.01 624.275" stroke="#ADBFFD" stroke-width="0.857364"/>
<path d="M-371.42 -17.3125L613.548 924.543" stroke="#ADBFFD" stroke-width="0.857364"/>
<path d="M-43.8672 -176.338L941.101 765.517" stroke="#ADBFFD" stroke-width="0.857364"/>
<path d="M-481.33 123.93L503.638 1065.78" stroke="#ADBFFD" stroke-width="0.857364"/>
<path d="M102.678 -364.66L1087.65 577.195" stroke="#ADBFFD" stroke-width="0.857364"/>
<path d="M-334.785 -64.3926L650.183 877.462" stroke="#ADBFFD" stroke-width="0.857364"/>
<path d="M-7.23242 -223.42L977.735 718.435" stroke="#ADBFFD" stroke-width="0.857364"/>
<path d="M-444.695 76.8477L540.272 1018.7" stroke="#ADBFFD" stroke-width="0.857364"/>
<path d="M139.314 -411.742L1124.28 530.113" stroke="#ADBFFD" stroke-width="0.857364"/>
<path d="M-298.148 -111.475L686.819 830.38" stroke="#ADBFFD" stroke-width="0.857364"/>
<path d="M29.4043 -270.5L1014.37 671.355" stroke="#ADBFFD" stroke-width="0.857364"/>
<path d="M-408.059 29.7676L576.909 971.623" stroke="#ADBFFD" stroke-width="0.857364"/>
<path d="M175.949 -458.822L1160.92 483.033" stroke="#ADBFFD" stroke-width="0.857364"/>
<path d="M-261.512 -158.555L723.456 783.3" stroke="#ADBFFD" stroke-width="0.857364"/>
<path d="M-71.3457 -141.027L913.622 800.828" stroke="#ADBFFD" stroke-width="0.857364"/>
<path d="M75.2012 -329.35L1060.17 612.505" stroke="#ADBFFD" stroke-width="0.857364"/>
<path d="M-362.262 -29.082L622.706 912.773" stroke="#ADBFFD" stroke-width="0.857364"/>
<path d="M-34.709 -188.109L950.259 753.746" stroke="#ADBFFD" stroke-width="0.857364"/>
<path d="M-472.172 112.158L512.796 1054.01" stroke="#ADBFFD" stroke-width="0.857364"/>
<path d="M111.836 -376.432L1096.8 565.423" stroke="#ADBFFD" stroke-width="0.857364"/>
<path d="M-325.625 -76.1641L659.343 865.691" stroke="#ADBFFD" stroke-width="0.857364"/>
<path d="M1.92773 -235.188L986.895 706.668" stroke="#ADBFFD" stroke-width="0.857364"/>
<path d="M-435.535 65.0781L549.433 1006.93" stroke="#ADBFFD" stroke-width="0.857364"/>
<path d="M148.473 -423.512L1133.44 518.343" stroke="#ADBFFD" stroke-width="0.857364"/>
<path d="M-288.988 -123.244L695.979 818.611" stroke="#ADBFFD" stroke-width="0.857364"/>
<path d="M38.5625 -282.27L1023.53 659.586" stroke="#ADBFFD" stroke-width="0.857364"/>
<path d="M-398.898 17.998L586.069 959.853" stroke="#ADBFFD" stroke-width="0.857364"/>
<path d="M185.109 -470.592L1170.08 471.263" stroke="#ADBFFD" stroke-width="0.857364"/>
<path d="M-252.352 -170.326L732.616 771.529" stroke="#ADBFFD" stroke-width="0.857364"/>
</g>
<path d="M101.525 22.6817C111.41 38.2457 106.806 58.8762 91.2421 68.7611C75.678 78.6461 55.0476 74.0424 45.1626 58.4784C35.2776 42.9144 39.8813 22.2839 55.4453 12.3989C71.0093 2.51391 91.6398 7.11767 101.525 22.6817Z" fill="white" stroke="#ADBFFD" stroke-width="1.36281"/>
<path d="M61.8958 35.0458H64.2126L67.9658 41.9189V35.0458H70.1435V45.8574H67.8731L64.089 38.9689V45.8574H61.8958V35.0458ZM71.6108 42.0116H76.2598V43.5252H71.6108V42.0116ZM73.8504 41.5328C73.0781 41.5328 72.4603 41.3114 71.997 40.8686C71.5439 40.4156 71.3174 39.8029 71.3174 39.0306C71.3174 38.66 71.3792 38.3202 71.5027 38.0113C71.6263 37.7024 71.7962 37.4398 72.0124 37.2236C72.2389 37.0073 72.5066 36.8426 72.8156 36.7293C73.1348 36.6058 73.4848 36.544 73.8658 36.544C74.6381 36.544 75.2456 36.7705 75.6884 37.2236C76.1414 37.6766 76.3679 38.279 76.3679 39.0306C76.3679 39.8029 76.1414 40.4156 75.6884 40.8686C75.2353 41.3114 74.6226 41.5328 73.8504 41.5328ZM73.8504 40.3898C74.149 40.3898 74.391 40.2817 74.5763 40.0655C74.7616 39.8389 74.8543 39.494 74.8543 39.0306C74.8543 38.5673 74.7565 38.2275 74.5609 38.0113C74.3755 37.795 74.1335 37.6869 73.8349 37.6869C73.5363 37.6869 73.2944 37.8002 73.109 38.0267C72.934 38.2532 72.8464 38.5879 72.8464 39.0306C72.8464 39.494 72.934 39.8389 73.109 40.0655C73.2944 40.2817 73.5415 40.3898 73.8504 40.3898ZM82.8921 45.8574H80.6989V38.8453H77.9805V37.1927C78.3615 37.203 78.727 37.1772 79.0771 37.1154C79.4375 37.0434 79.7567 36.925 80.0347 36.7602C80.323 36.5852 80.565 36.3586 80.7607 36.0806C80.9563 35.8026 81.085 35.4577 81.1468 35.0458H82.8921V45.8574Z" fill="#104A99"/>
<path d="M199.694 50.6654C212.941 71.5233 206.771 99.1709 185.913 112.418C165.055 125.665 137.408 119.496 124.16 98.6379C110.913 77.78 117.083 50.1323 137.941 36.8851C158.799 23.6378 186.446 29.8075 199.694 50.6654Z" fill="#ADBFFD" stroke="#ADBFFD" stroke-width="1.36281"/>
<path d="M132.444 80.1768C130.93 80.1768 129.761 79.8319 128.938 79.142C128.114 78.4418 127.692 77.4688 127.671 76.2228H130.065C130.075 76.5935 130.142 76.9127 130.266 77.1804C130.4 77.4482 130.57 77.6695 130.776 77.8446C130.992 78.0093 131.239 78.1329 131.517 78.2153C131.805 78.2873 132.114 78.3234 132.444 78.3234C133.01 78.3234 133.468 78.1535 133.818 77.8137C134.168 77.4636 134.343 77.0363 134.343 76.5317C134.343 76.2228 134.287 75.9706 134.174 75.7749C134.06 75.569 133.906 75.4094 133.71 75.2961C133.515 75.1726 133.293 75.0902 133.046 75.049C132.799 75.0078 132.541 74.9872 132.274 74.9872H131.44V73.35C131.532 73.3603 131.646 73.3655 131.78 73.3655C131.913 73.3655 132.016 73.3655 132.088 73.3655C133.417 73.3655 134.081 72.8661 134.081 71.8673C134.081 71.4348 133.926 71.1002 133.617 70.8634C133.319 70.6265 132.922 70.5081 132.428 70.5081C131.831 70.5081 131.352 70.6523 130.992 70.9406C130.642 71.2289 130.441 71.6408 130.389 72.1762H128.104C128.114 71.5584 128.237 71.0281 128.474 70.5854C128.711 70.1426 129.025 69.7771 129.416 69.4887C129.818 69.2004 130.276 68.9893 130.791 68.8555C131.316 68.7113 131.867 68.6393 132.444 68.6393C133 68.6393 133.515 68.7165 133.988 68.8709C134.472 69.0151 134.884 69.221 135.224 69.4887C135.574 69.7565 135.847 70.0808 136.042 70.4618C136.248 70.8325 136.351 71.2495 136.351 71.7128C136.351 72.2689 136.197 72.7477 135.888 73.1493C135.579 73.5508 135.177 73.8082 134.683 73.9215C134.972 73.973 135.244 74.0708 135.502 74.215C135.759 74.3591 135.981 74.5445 136.166 74.771C136.351 74.9872 136.495 75.2446 136.598 75.5433C136.712 75.8419 136.768 76.1662 136.768 76.5163C136.768 77.0517 136.655 77.546 136.429 77.999C136.212 78.4418 135.909 78.8279 135.517 79.1574C135.136 79.4766 134.683 79.7289 134.158 79.9142C133.633 80.0893 133.061 80.1768 132.444 80.1768ZM140.096 80.1305C139.715 80.1305 139.36 80.0841 139.03 79.9915C138.701 79.8988 138.413 79.7546 138.165 79.559C137.918 79.3634 137.723 79.1162 137.579 78.8176C137.445 78.519 137.378 78.1638 137.378 77.7519C137.378 77.2989 137.455 76.9282 137.609 76.6399C137.774 76.3413 137.98 76.1044 138.227 75.9294C138.485 75.7543 138.773 75.6256 139.092 75.5433C139.422 75.4506 139.751 75.3785 140.081 75.327C140.41 75.2755 140.735 75.2344 141.054 75.2035C141.373 75.1726 141.656 75.1262 141.903 75.0645C142.15 75.0027 142.346 74.9152 142.49 74.8019C142.634 74.6783 142.701 74.5033 142.691 74.2767C142.691 74.0502 142.65 73.8649 142.567 73.7207C142.495 73.5766 142.392 73.4685 142.258 73.3964C142.135 73.314 141.986 73.2625 141.811 73.2419C141.646 73.211 141.466 73.1956 141.27 73.1956C140.837 73.1956 140.498 73.2883 140.251 73.4736C140.003 73.6589 139.859 73.9678 139.818 74.4003H137.625C137.656 73.8958 137.785 73.4736 138.011 73.1338C138.238 72.7837 138.526 72.5057 138.876 72.2998C139.226 72.0938 139.617 71.9497 140.05 71.8673C140.482 71.7746 140.925 71.7283 141.378 71.7283C141.78 71.7283 142.186 71.7592 142.598 71.821C143.01 71.8724 143.386 71.9806 143.726 72.1453C144.066 72.3101 144.344 72.5417 144.56 72.8403C144.776 73.139 144.884 73.5251 144.884 73.9987V78.1535C144.884 78.5139 144.905 78.8588 144.946 79.1883C144.987 79.5178 145.059 79.7649 145.162 79.9297H142.938C142.897 79.8061 142.861 79.6826 142.83 79.559C142.809 79.4251 142.794 79.2913 142.784 79.1574C142.434 79.5178 142.022 79.7701 141.548 79.9142C141.074 80.0584 140.59 80.1305 140.096 80.1305ZM140.915 78.6786C141.347 78.6786 141.682 78.6065 141.919 78.4624C142.155 78.3182 142.331 78.1483 142.444 77.9527C142.557 77.7468 142.624 77.5408 142.645 77.3349C142.675 77.129 142.691 76.9642 142.691 76.8407V76.0221C142.598 76.1044 142.485 76.1714 142.351 76.2228C142.217 76.264 142.068 76.3001 141.903 76.331C141.738 76.3618 141.569 76.3876 141.394 76.4082C141.218 76.4288 141.043 76.4545 140.868 76.4854C140.693 76.5163 140.529 76.5575 140.374 76.609C140.22 76.6605 140.081 76.7325 139.957 76.8252C139.844 76.9076 139.751 77.0157 139.679 77.1496C139.607 77.2834 139.571 77.4533 139.571 77.6592C139.571 77.8652 139.607 78.0351 139.679 78.1689C139.751 78.2925 139.849 78.3955 139.973 78.4778C140.096 78.5499 140.24 78.6014 140.405 78.6323C140.57 78.6632 140.74 78.6786 140.915 78.6786ZM146.123 71.9445H148.316V75.2035L151.251 71.9445H153.83L150.494 75.466L154.263 79.9297H151.606L148.78 76.609L148.316 77.1187V79.9297H146.123V71.9445ZM156.907 80.1305C156.526 80.1305 156.171 80.0841 155.842 79.9915C155.512 79.8988 155.224 79.7546 154.977 79.559C154.729 79.3634 154.534 79.1162 154.39 78.8176C154.256 78.519 154.189 78.1638 154.189 77.7519C154.189 77.2989 154.266 76.9282 154.421 76.6399C154.585 76.3413 154.791 76.1044 155.038 75.9294C155.296 75.7543 155.584 75.6256 155.903 75.5433C156.233 75.4506 156.562 75.3785 156.892 75.327C157.221 75.2755 157.546 75.2344 157.865 75.2035C158.184 75.1726 158.467 75.1262 158.714 75.0645C158.961 75.0027 159.157 74.9152 159.301 74.8019C159.445 74.6783 159.512 74.5033 159.502 74.2767C159.502 74.0502 159.461 73.8649 159.378 73.7207C159.306 73.5766 159.203 73.4685 159.07 73.3964C158.946 73.314 158.797 73.2625 158.622 73.2419C158.457 73.211 158.277 73.1956 158.081 73.1956C157.649 73.1956 157.309 73.2883 157.062 73.4736C156.815 73.6589 156.67 73.9678 156.629 74.4003H154.436C154.467 73.8958 154.596 73.4736 154.822 73.1338C155.049 72.7837 155.337 72.5057 155.687 72.2998C156.037 72.0938 156.428 71.9497 156.861 71.8673C157.293 71.7746 157.736 71.7283 158.189 71.7283C158.591 71.7283 158.997 71.7592 159.409 71.821C159.821 71.8724 160.197 71.9806 160.537 72.1453C160.877 72.3101 161.155 72.5417 161.371 72.8403C161.587 73.139 161.695 73.5251 161.695 73.9987V78.1535C161.695 78.5139 161.716 78.8588 161.757 79.1883C161.798 79.5178 161.87 79.7649 161.973 79.9297H159.749C159.708 79.8061 159.672 79.6826 159.641 79.559C159.62 79.4251 159.605 79.2913 159.595 79.1574C159.245 79.5178 158.833 79.7701 158.359 79.9142C157.885 80.0584 157.401 80.1305 156.907 80.1305ZM157.726 78.6786C158.158 78.6786 158.493 78.6065 158.73 78.4624C158.967 78.3182 159.142 78.1483 159.255 77.9527C159.368 77.7468 159.435 77.5408 159.456 77.3349C159.487 77.129 159.502 76.9642 159.502 76.8407V76.0221C159.409 76.1044 159.296 76.1714 159.162 76.2228C159.028 76.264 158.879 76.3001 158.714 76.331C158.55 76.3618 158.38 76.3876 158.205 76.4082C158.03 76.4288 157.855 76.4545 157.68 76.4854C157.504 76.5163 157.34 76.5575 157.185 76.609C157.031 76.6605 156.892 76.7325 156.768 76.8252C156.655 76.9076 156.562 77.0157 156.49 77.1496C156.418 77.2834 156.382 77.4533 156.382 77.6592C156.382 77.8652 156.418 78.0351 156.49 78.1689C156.562 78.2925 156.66 78.3955 156.784 78.4778C156.907 78.5499 157.051 78.6014 157.216 78.6323C157.381 78.6632 157.551 78.6786 157.726 78.6786ZM166.178 80.1305C165.673 80.1305 165.194 80.079 164.741 79.976C164.299 79.8834 163.907 79.7238 163.568 79.4972C163.228 79.2707 162.955 78.9824 162.749 78.6323C162.553 78.2822 162.45 77.8497 162.44 77.3349H164.525C164.566 77.7674 164.731 78.0969 165.019 78.3234C165.318 78.5499 165.72 78.6632 166.224 78.6632C166.718 78.6632 167.079 78.5602 167.305 78.3543C167.532 78.1483 167.645 77.8961 167.645 77.5975C167.645 77.268 167.537 77.0003 167.321 76.7943C167.115 76.5884 166.765 76.4854 166.27 76.4854H165.421V75.1108H165.992C166.456 75.1108 166.821 75.0387 167.089 74.8946C167.367 74.7504 167.506 74.4775 167.506 74.076C167.506 73.8391 167.403 73.6332 167.197 73.4582C167.001 73.2728 166.687 73.1801 166.255 73.1801C165.812 73.1801 165.462 73.2574 165.205 73.4118C164.958 73.556 164.803 73.8443 164.741 74.2767H162.703C162.744 73.8134 162.867 73.4221 163.073 73.1029C163.289 72.7734 163.557 72.5108 163.876 72.3152C164.206 72.1093 164.577 71.96 164.988 71.8673C165.411 71.7746 165.848 71.7283 166.301 71.7283C167.362 71.7283 168.18 71.9033 168.757 72.2534C169.344 72.5932 169.637 73.1338 169.637 73.8752C169.637 74.112 169.591 74.3334 169.498 74.5393C169.416 74.735 169.308 74.91 169.174 75.0645C169.04 75.2189 168.886 75.3476 168.711 75.4506C168.536 75.5433 168.366 75.605 168.201 75.6359V75.6668C168.386 75.6874 168.577 75.7337 168.773 75.8058C168.978 75.8676 169.164 75.9757 169.329 76.1302C169.493 76.2743 169.627 76.4648 169.73 76.7016C169.843 76.9282 169.9 77.2165 169.9 77.5666C169.9 77.999 169.807 78.3749 169.622 78.6941C169.447 79.0133 169.195 79.281 168.865 79.4972C168.546 79.7135 168.155 79.8731 167.691 79.976C167.238 80.079 166.734 80.1305 166.178 80.1305ZM173.221 80.1305C172.84 80.1305 172.484 80.0841 172.155 79.9915C171.825 79.8988 171.537 79.7546 171.29 79.559C171.043 79.3634 170.847 79.1162 170.703 78.8176C170.569 78.519 170.502 78.1638 170.502 77.7519C170.502 77.2989 170.579 76.9282 170.734 76.6399C170.899 76.3413 171.105 76.1044 171.352 75.9294C171.609 75.7543 171.897 75.6256 172.217 75.5433C172.546 75.4506 172.876 75.3785 173.205 75.327C173.535 75.2755 173.859 75.2344 174.178 75.2035C174.497 75.1726 174.781 75.1262 175.028 75.0645C175.275 75.0027 175.47 74.9152 175.615 74.8019C175.759 74.6783 175.826 74.5033 175.815 74.2767C175.815 74.0502 175.774 73.8649 175.692 73.7207C175.62 73.5766 175.517 73.4685 175.383 73.3964C175.259 73.314 175.11 73.2625 174.935 73.2419C174.77 73.211 174.59 73.1956 174.394 73.1956C173.962 73.1956 173.622 73.2883 173.375 73.4736C173.128 73.6589 172.984 73.9678 172.943 74.4003H170.749C170.78 73.8958 170.909 73.4736 171.136 73.1338C171.362 72.7837 171.65 72.5057 172 72.2998C172.351 72.0938 172.742 71.9497 173.174 71.8673C173.607 71.7746 174.05 71.7283 174.503 71.7283C174.904 71.7283 175.311 71.7592 175.723 71.821C176.135 71.8724 176.51 71.9806 176.85 72.1453C177.19 72.3101 177.468 72.5417 177.684 72.8403C177.901 73.139 178.009 73.5251 178.009 73.9987V78.1535C178.009 78.5139 178.029 78.8588 178.07 79.1883C178.112 79.5178 178.184 79.7649 178.287 79.9297H176.063C176.021 79.8061 175.985 79.6826 175.954 79.559C175.934 79.4251 175.918 79.2913 175.908 79.1574C175.558 79.5178 175.146 79.7701 174.672 79.9142C174.199 80.0584 173.715 80.1305 173.221 80.1305ZM174.039 78.6786C174.472 78.6786 174.806 78.6065 175.043 78.4624C175.28 78.3182 175.455 78.1483 175.568 77.9527C175.682 77.7468 175.748 77.5408 175.769 77.3349C175.8 77.129 175.815 76.9642 175.815 76.8407V76.0221C175.723 76.1044 175.609 76.1714 175.476 76.2228C175.342 76.264 175.192 76.3001 175.028 76.331C174.863 76.3618 174.693 76.3876 174.518 76.4082C174.343 76.4288 174.168 76.4545 173.993 76.4854C173.818 76.5163 173.653 76.5575 173.499 76.609C173.344 76.6605 173.205 76.7325 173.082 76.8252C172.968 76.9076 172.876 77.0157 172.804 77.1496C172.732 77.2834 172.695 77.4533 172.695 77.6592C172.695 77.8652 172.732 78.0351 172.804 78.1689C172.876 78.2925 172.973 78.3955 173.097 78.4778C173.221 78.5499 173.365 78.6014 173.53 78.6323C173.694 78.6632 173.864 78.6786 174.039 78.6786ZM179.248 71.9445H181.441V74.8482H184.545V71.9445H186.739V79.9297H184.545V76.5781H181.441V79.9297H179.248V71.9445ZM191.817 80.1305C191.188 80.1305 190.622 80.0327 190.118 79.837C189.613 79.6414 189.181 79.3634 188.82 79.003C188.46 78.6323 188.182 78.1895 187.986 77.6747C187.79 77.1599 187.693 76.5832 187.693 75.9448C187.693 75.3064 187.79 74.7298 187.986 74.215C188.182 73.6898 188.46 73.2471 188.82 72.8867C189.181 72.516 189.613 72.2328 190.118 72.0372C190.622 71.8313 191.188 71.7283 191.817 71.7283C192.445 71.7283 193.011 71.8313 193.515 72.0372C194.03 72.2328 194.468 72.516 194.828 72.8867C195.189 73.2471 195.467 73.6898 195.662 74.215C195.858 74.7298 195.956 75.3064 195.956 75.9448C195.956 76.5832 195.858 77.1599 195.662 77.6747C195.467 78.1895 195.189 78.6323 194.828 79.003C194.468 79.3634 194.03 79.6414 193.515 79.837C193.011 80.0327 192.445 80.1305 191.817 80.1305ZM191.817 78.4933C192.187 78.4933 192.496 78.4212 192.743 78.2771C193.001 78.1329 193.201 77.9424 193.346 77.7056C193.5 77.4585 193.608 77.1856 193.67 76.887C193.732 76.5781 193.763 76.264 193.763 75.9448C193.763 75.6256 193.732 75.3116 193.67 75.0027C193.608 74.6938 193.5 74.4209 193.346 74.1841C193.201 73.9473 193.001 73.7568 192.743 73.6126C192.496 73.4582 192.187 73.3809 191.817 73.3809C191.446 73.3809 191.137 73.4582 190.89 73.6126C190.643 73.7568 190.442 73.9473 190.287 74.1841C190.143 74.4209 190.04 74.6938 189.979 75.0027C189.917 75.3116 189.886 75.6256 189.886 75.9448C189.886 76.264 189.917 76.5781 189.979 76.887C190.04 77.1856 190.143 77.4585 190.287 77.7056C190.442 77.9424 190.643 78.1329 190.89 78.2771C191.137 78.4212 191.446 78.4933 191.817 78.4933Z" fill="white"/>
<path d="M101.525 99.9082C111.41 115.472 106.806 136.103 91.2421 145.988C75.678 155.873 55.0476 151.269 45.1626 135.705C35.2776 120.141 39.8813 99.5105 55.4453 89.6255C71.0093 79.7405 91.6398 84.3442 101.525 99.9082Z" fill="white" stroke="#ADBFFD" stroke-width="1.36281"/>
<path d="M54.7856 117.426C55.2247 117.555 55.5579 117.782 55.785 118.107C56.0122 118.425 56.1257 118.8 56.1257 119.232C56.1257 119.656 56.05 120.042 55.8986 120.39C55.7472 120.731 55.5427 121.022 55.2853 121.264C55.0279 121.507 54.7288 121.692 54.3881 121.821C54.0474 121.95 53.6916 122.014 53.3206 122.014C52.9118 122.014 52.5597 121.957 52.2644 121.844C51.9691 121.722 51.7269 121.567 51.5376 121.378C51.3559 121.181 51.2196 120.965 51.1287 120.731C51.0455 120.488 51.0038 120.242 51.0038 119.992L51.0606 119.527C51.1439 119.815 51.2537 120.057 51.39 120.254C51.5262 120.451 51.6814 120.61 51.8556 120.731C52.0373 120.852 52.2304 120.939 52.4348 120.992C52.6392 121.045 52.8512 121.071 53.0708 121.071C53.3206 121.071 53.5629 121.03 53.7976 120.946C54.0323 120.856 54.2367 120.731 54.4108 120.572C54.585 120.413 54.7251 120.22 54.831 119.992C54.937 119.758 54.99 119.497 54.99 119.209C54.99 119.012 54.956 118.823 54.8878 118.641C54.8197 118.459 54.7213 118.3 54.5926 118.164C54.4714 118.028 54.3162 117.918 54.1269 117.835C53.9452 117.751 53.737 117.71 53.5023 117.71H52.7982L52.8777 117.233H53.7294C53.9869 117.233 54.2178 117.176 54.4222 117.062C54.6266 116.949 54.8008 116.797 54.9446 116.608C55.0885 116.411 55.1983 116.192 55.274 115.949C55.3497 115.7 55.3875 115.438 55.3875 115.166C55.3875 114.757 55.274 114.443 55.0468 114.223C54.8273 113.996 54.5396 113.883 54.1837 113.883C53.7219 113.883 53.3244 114.095 52.9913 114.519C52.6581 114.942 52.4121 115.537 52.2531 116.302H51.8896L52.219 114.189C52.4386 114.007 52.7187 113.833 53.0594 113.667C53.4001 113.5 53.7824 113.417 54.2064 113.417C54.5471 113.417 54.8575 113.462 55.1377 113.553C55.4254 113.636 55.6677 113.761 55.8645 113.928C56.0689 114.087 56.2279 114.28 56.3415 114.507C56.4551 114.734 56.5118 114.988 56.5118 115.268C56.5118 115.578 56.4664 115.859 56.3756 116.108C56.2847 116.358 56.1598 116.574 56.0008 116.756C55.8418 116.937 55.6563 117.085 55.4443 117.199C55.2399 117.305 55.0203 117.377 54.7856 117.414V117.426ZM60.8244 121.9L60.4383 120.912C60.3701 121.049 60.2831 121.185 60.1771 121.321C60.0711 121.45 59.9499 121.567 59.8136 121.673C59.6849 121.772 59.5373 121.851 59.3707 121.912C59.2117 121.98 59.0414 122.014 58.8597 122.014C58.2464 122.014 57.7959 121.817 57.5082 121.423C57.2205 121.03 57.0767 120.492 57.0767 119.811C57.0767 119.356 57.1372 118.91 57.2584 118.471C57.3871 118.024 57.565 117.626 57.7921 117.278C58.0193 116.93 58.2881 116.65 58.5985 116.438C58.9089 116.218 59.2534 116.108 59.6319 116.108C59.8364 116.108 60.0143 116.139 60.1657 116.199C60.3247 116.26 60.4572 116.339 60.5632 116.438C60.6692 116.529 60.7525 116.635 60.813 116.756C60.8736 116.877 60.919 116.994 60.9493 117.108L61.7784 116.222H62.0282L61.0742 121.9H60.8244ZM59.7909 116.676C59.5562 116.676 59.3367 116.767 59.1322 116.949C58.9278 117.131 58.7499 117.377 58.5985 117.687C58.4546 117.997 58.3411 118.357 58.2578 118.766C58.1745 119.167 58.1328 119.591 58.1328 120.038C58.1328 120.477 58.2161 120.825 58.3827 121.083C58.5568 121.34 58.8105 121.469 59.1436 121.469C59.3102 121.469 59.4654 121.423 59.6092 121.333C59.7606 121.234 59.8969 121.109 60.0181 120.958C60.1392 120.799 60.2376 120.621 60.3133 120.424C60.3966 120.227 60.4572 120.023 60.4951 119.811L60.7335 118.403C60.7487 118.327 60.7563 118.244 60.7563 118.153C60.7638 118.054 60.7676 117.971 60.7676 117.903C60.7676 117.517 60.6843 117.218 60.5178 117.006C60.3512 116.786 60.1089 116.676 59.7909 116.676ZM63.5547 117.494C63.5623 117.456 63.5661 117.422 63.5661 117.392C63.5736 117.354 63.5774 117.324 63.5774 117.301C63.5774 117.165 63.5282 117.066 63.4298 117.006C63.3314 116.937 63.161 116.903 62.9187 116.903L62.9642 116.619L64.4633 116.108H64.7018L64.2475 118.834H64.645C64.7964 118.834 64.9175 118.808 65.0084 118.755C65.0992 118.694 65.1939 118.592 65.2923 118.448L66.0873 117.255C66.216 117.059 66.3296 116.892 66.428 116.756C66.5264 116.612 66.6173 116.498 66.7005 116.415C66.7838 116.324 66.8671 116.26 66.9504 116.222C67.0337 116.184 67.1283 116.165 67.2343 116.165C67.3933 116.165 67.5144 116.23 67.5977 116.358C67.6886 116.479 67.7264 116.642 67.7113 116.847L67.6204 117.358C67.5674 117.259 67.4955 117.18 67.4047 117.119C67.3138 117.059 67.204 117.028 67.0753 117.028C66.9087 117.028 66.7725 117.074 66.6665 117.165C66.568 117.255 66.462 117.388 66.3485 117.562L65.633 118.618L66.5415 120.765C66.5945 120.893 66.6513 120.992 66.7119 121.06C66.78 121.128 66.8785 121.162 67.0072 121.162C67.1435 121.162 67.2495 121.117 67.3252 121.026C67.4084 120.935 67.4917 120.833 67.575 120.719L67.4842 121.23C67.4009 121.412 67.2949 121.579 67.1662 121.73C67.0375 121.881 66.852 121.957 66.6097 121.957C66.3674 121.957 66.1706 121.874 66.0191 121.707C65.8753 121.541 65.7428 121.321 65.6216 121.049L64.8267 119.209H64.1793L63.7251 121.9H62.7825L63.5547 117.494ZM67.2506 124.365L67.2961 124.092C67.5762 124.092 67.7768 124.035 67.898 123.922C68.0267 123.808 68.11 123.649 68.1478 123.445L69.1245 117.483C69.1321 117.445 69.1359 117.411 69.1359 117.38C69.1434 117.343 69.1472 117.312 69.1472 117.29C69.1472 117.153 69.098 117.055 68.9996 116.994C68.9011 116.926 68.7308 116.892 68.4885 116.892L68.5339 116.619L70.0444 116.108H70.2715L70.1239 117.028C70.2526 116.786 70.4419 116.574 70.6917 116.392C70.9491 116.203 71.2482 116.108 71.5889 116.108C71.9069 116.108 72.1757 116.165 72.3952 116.279C72.6224 116.392 72.8079 116.551 72.9517 116.756C73.1031 116.96 73.2129 117.202 73.2811 117.483C73.3492 117.755 73.3833 118.05 73.3833 118.368C73.3833 118.838 73.3189 119.292 73.1902 119.731C73.0691 120.17 72.8949 120.56 72.6678 120.901C72.4482 121.242 72.1832 121.518 71.8728 121.73C71.5624 121.934 71.2217 122.037 70.8507 122.037C70.6236 122.037 70.4267 122.006 70.2602 121.946C70.1012 121.893 69.9649 121.817 69.8513 121.719C69.7453 121.62 69.6621 121.507 69.6015 121.378C69.5409 121.249 69.4955 121.113 69.4652 120.969L69.0904 123.263C69.0829 123.309 69.0753 123.365 69.0677 123.434C69.0601 123.502 69.0564 123.558 69.0564 123.604C69.0564 123.755 69.1018 123.873 69.1926 123.956C69.2911 124.047 69.4614 124.092 69.7037 124.092L69.6583 124.365H67.2506ZM69.681 119.754C69.6658 119.83 69.6545 119.905 69.6469 119.981C69.6393 120.049 69.6356 120.121 69.6356 120.197C69.6356 120.56 69.7113 120.859 69.8627 121.094C70.0217 121.329 70.2715 121.446 70.6122 121.446C70.8469 121.446 71.0665 121.359 71.2709 121.185C71.4829 121.011 71.6684 120.772 71.8274 120.469C71.9864 120.167 72.1113 119.818 72.2022 119.425C72.293 119.023 72.3385 118.596 72.3385 118.141C72.3385 117.687 72.2552 117.327 72.0886 117.062C71.9296 116.797 71.6684 116.665 71.305 116.665C71.1309 116.665 70.9643 116.714 70.8053 116.813C70.6539 116.903 70.5176 117.028 70.3965 117.187C70.2753 117.339 70.1731 117.513 70.0898 117.71C70.0065 117.907 69.9498 118.107 69.9195 118.312L69.681 119.754ZM80.0161 116.222H80.9246L80.1978 120.64C80.1902 120.678 80.1826 120.727 80.1751 120.787C80.1675 120.848 80.1637 120.897 80.1637 120.935C80.1637 121.162 80.2621 121.276 80.459 121.276C80.6104 121.276 80.7429 121.227 80.8565 121.128C80.97 121.022 81.1101 120.871 81.2767 120.674L81.1745 121.196C81.023 121.431 80.864 121.616 80.6975 121.753C80.5385 121.889 80.3265 121.957 80.0615 121.957C79.7359 121.957 79.5164 121.874 79.4028 121.707C79.2892 121.533 79.2325 121.325 79.2325 121.083C79.2325 120.999 79.2362 120.92 79.2438 120.844C79.2514 120.769 79.2627 120.689 79.2779 120.606L80.0161 116.222ZM75.5302 119.038C75.4923 119.296 75.462 119.508 75.4393 119.674C75.4242 119.833 75.409 119.966 75.3939 120.072C75.3863 120.17 75.3787 120.246 75.3712 120.299C75.3712 120.352 75.3712 120.401 75.3712 120.447C75.3712 120.833 75.4317 121.132 75.5529 121.344C75.6816 121.548 75.8898 121.651 76.1775 121.651C76.3592 121.651 76.5295 121.601 76.6885 121.503C76.8551 121.404 76.999 121.268 77.1201 121.094C77.2488 120.912 77.3472 120.7 77.4154 120.458C77.4911 120.208 77.5289 119.936 77.5289 119.64C77.5289 119.3 77.457 119.031 77.3132 118.834C77.1693 118.637 76.9497 118.539 76.6545 118.539C76.503 118.539 76.3213 118.577 76.1093 118.652C75.9049 118.72 75.7119 118.849 75.5302 119.038ZM74.8487 117.494C74.8563 117.456 74.8601 117.422 74.8601 117.392C74.8677 117.354 74.8715 117.324 74.8715 117.301C74.8715 117.165 74.8222 117.066 74.7238 117.006C74.6254 116.937 74.455 116.903 74.2128 116.903L74.2582 116.619L75.7686 116.108H75.9958L75.5869 118.641C75.8141 118.467 76.0336 118.334 76.2456 118.244C76.4576 118.153 76.7226 118.107 77.0406 118.107C77.5252 118.107 77.8961 118.247 78.1536 118.527C78.411 118.8 78.5397 119.175 78.5397 119.652C78.5397 119.977 78.4753 120.284 78.3466 120.572C78.2179 120.852 78.0438 121.102 77.8242 121.321C77.6122 121.533 77.3624 121.704 77.0747 121.832C76.7945 121.953 76.4955 122.014 76.1775 122.014C75.8444 122.014 75.568 121.969 75.3484 121.878C75.1289 121.787 74.951 121.666 74.8147 121.514C74.686 121.355 74.5951 121.17 74.5421 120.958C74.4891 120.746 74.4626 120.519 74.4626 120.276C74.4626 120.11 74.4702 119.943 74.4853 119.777C74.508 119.603 74.5345 119.428 74.5648 119.254L74.8487 117.494ZM88.5443 118.073C88.567 117.937 88.5783 117.793 88.5783 117.642C88.5783 117.414 88.5216 117.214 88.408 117.04C88.2944 116.858 88.0938 116.767 87.8061 116.767C87.632 116.767 87.4654 116.816 87.3064 116.915C87.1474 117.006 87.0035 117.127 86.8748 117.278C86.7461 117.422 86.6363 117.589 86.5455 117.778C86.4622 117.96 86.4054 118.141 86.3751 118.323L85.7732 121.9H84.8647L85.512 118.05C85.5196 117.982 85.5234 117.914 85.5234 117.846C85.531 117.77 85.5347 117.702 85.5347 117.642C85.5347 117.528 85.5234 117.418 85.5007 117.312C85.478 117.206 85.4363 117.115 85.3757 117.04C85.3227 116.956 85.247 116.892 85.1486 116.847C85.0502 116.794 84.9215 116.767 84.7625 116.767C84.5959 116.767 84.4331 116.816 84.2741 116.915C84.1227 117.006 83.9826 117.127 83.8539 117.278C83.7252 117.43 83.6154 117.6 83.5246 117.789C83.4413 117.971 83.3845 118.153 83.3542 118.334L82.7523 121.9H81.8438L82.7864 116.222H83.0363L83.536 117.267C83.6041 117.138 83.6874 117.006 83.7858 116.869C83.8918 116.733 84.0167 116.608 84.1606 116.495C84.3044 116.381 84.4634 116.29 84.6376 116.222C84.8193 116.146 85.0123 116.108 85.2168 116.108C85.4515 116.108 85.6445 116.143 85.7959 116.211C85.9549 116.271 86.0836 116.358 86.1821 116.472C86.2805 116.585 86.3524 116.718 86.3979 116.869C86.4433 117.021 86.4736 117.184 86.4887 117.358C86.5568 117.206 86.6477 117.059 86.7613 116.915C86.8748 116.763 87.0035 116.627 87.1474 116.506C87.2988 116.385 87.4654 116.29 87.6471 116.222C87.8288 116.146 88.0219 116.108 88.2263 116.108C88.4686 116.108 88.6692 116.146 88.8282 116.222C88.9948 116.29 89.1273 116.389 89.2257 116.517C89.3317 116.638 89.4036 116.782 89.4415 116.949C89.4869 117.115 89.5096 117.29 89.5096 117.471C89.5096 117.63 89.4982 117.789 89.4755 117.948L89.0326 120.64C89.025 120.678 89.0175 120.727 89.0099 120.787C89.0023 120.848 88.9985 120.897 88.9985 120.935C88.9985 121.049 89.025 121.136 89.078 121.196C89.1386 121.249 89.2143 121.276 89.3052 121.276C89.4566 121.276 89.5891 121.227 89.7027 121.128C89.8162 121.022 89.9525 120.871 90.1115 120.674L90.0207 121.196C89.8692 121.431 89.7102 121.616 89.5437 121.753C89.3771 121.889 89.1613 121.957 88.8963 121.957C88.5783 121.957 88.3626 121.874 88.249 121.707C88.1354 121.533 88.0787 121.325 88.0787 121.083C88.0787 120.999 88.0824 120.92 88.09 120.844C88.0976 120.769 88.1089 120.689 88.1241 120.606L88.5443 118.073ZM92.0281 119.038C91.9902 119.296 91.9599 119.508 91.9372 119.674C91.9221 119.833 91.9069 119.966 91.8918 120.072C91.8842 120.17 91.8766 120.246 91.8691 120.299C91.8691 120.352 91.8691 120.401 91.8691 120.447C91.8691 120.833 91.9296 121.132 92.0508 121.344C92.1795 121.548 92.3877 121.651 92.6754 121.651C92.8571 121.651 93.0274 121.601 93.1864 121.503C93.353 121.404 93.4969 121.268 93.618 121.094C93.7467 120.912 93.8451 120.7 93.9133 120.458C93.989 120.208 94.0268 119.936 94.0268 119.64C94.0268 119.3 93.9549 119.031 93.8111 118.834C93.6672 118.637 93.4476 118.539 93.1524 118.539C93.0009 118.539 92.8192 118.577 92.6072 118.652C92.4028 118.72 92.2098 118.849 92.0281 119.038ZM91.3466 117.494C91.3542 117.456 91.358 117.422 91.358 117.392C91.3656 117.354 91.3694 117.324 91.3694 117.301C91.3694 117.165 91.3201 117.066 91.2217 117.006C91.1233 116.937 90.9529 116.903 90.7107 116.903L90.7561 116.619L92.2665 116.108H92.4937L92.0848 118.641C92.312 118.467 92.5315 118.334 92.7435 118.244C92.9555 118.153 93.2205 118.107 93.5385 118.107C94.0231 118.107 94.394 118.247 94.6515 118.527C94.9089 118.8 95.0376 119.175 95.0376 119.652C95.0376 119.977 94.9732 120.284 94.8445 120.572C94.7158 120.852 94.5417 121.102 94.3221 121.321C94.1101 121.533 93.8603 121.704 93.5726 121.832C93.2924 121.953 92.9934 122.014 92.6754 122.014C92.3423 122.014 92.0659 121.969 91.8463 121.878C91.6268 121.787 91.4489 121.666 91.3126 121.514C91.1839 121.355 91.093 121.17 91.04 120.958C90.987 120.746 90.9605 120.519 90.9605 120.276C90.9605 120.11 90.9681 119.943 90.9832 119.777C91.0059 119.603 91.0324 119.428 91.0627 119.254L91.3466 117.494Z" fill="#104A99"/>
</svg>
