<svg width="238" height="158" viewBox="0 0 238 158" fill="none" xmlns="http://www.w3.org/2000/svg">
<rect x="1.57065" y="0.978853" width="234.858" height="155.815" rx="3.37828" fill="white" stroke="#ADBFFD" stroke-width="1.81708"/>
<mask id="mask0_1910_3370" style="mask-type:alpha" maskUnits="userSpaceOnUse" x="0" y="0" width="238" height="158">
<path d="M0.66211 4.35713C0.66211 1.98959 2.58138 0.0703154 4.94893 0.0703154L233.05 0.0703138C235.418 0.0703137 237.337 1.98959 237.337 4.35713L237.337 153.415C237.337 155.783 235.418 157.702 233.05 157.702L4.94894 157.702C2.5814 157.702 0.662134 155.782 0.662134 153.415L0.66211 4.35713Z" fill="#D9D9D9"/>
</mask>
<g mask="url(#mask0_1910_3370)">
<path d="M-98.8223 -105.797L886.145 836.058" stroke="#ADBFFD" stroke-width="0.857364"/>
<path d="M194.268 -482.441L1179.24 459.414" stroke="#ADBFFD" stroke-width="0.857364"/>
<path d="M-243.193 -182.176L741.774 759.679" stroke="#ADBFFD" stroke-width="0.857364"/>
<path d="M47.7227 -294.119L1032.69 647.736" stroke="#ADBFFD" stroke-width="0.857364"/>
<path d="M-389.738 6.14844L595.229 948.003" stroke="#ADBFFD" stroke-width="0.857364"/>
<path d="M-62.1855 -152.879L922.782 788.976" stroke="#ADBFFD" stroke-width="0.857364"/>
<path d="M-499.648 147.389L485.319 1089.24" stroke="#ADBFFD" stroke-width="0.857364"/>
<path d="M84.3594 -341.201L1069.33 600.654" stroke="#ADBFFD" stroke-width="0.857364"/>
<path d="M-353.102 -40.9336L631.866 900.921" stroke="#ADBFFD" stroke-width="0.857364"/>
<path d="M-25.5488 -199.957L959.419 741.898" stroke="#ADBFFD" stroke-width="0.857364"/>
<path d="M-463.012 100.309L521.956 1042.16" stroke="#ADBFFD" stroke-width="0.857364"/>
<path d="M120.996 -388.281L1105.96 553.574" stroke="#ADBFFD" stroke-width="0.857364"/>
<path d="M-316.467 -88.0137L668.501 853.841" stroke="#ADBFFD" stroke-width="0.857364"/>
<path d="M11.0879 -247.039L996.056 694.816" stroke="#ADBFFD" stroke-width="0.857364"/>
<path d="M-426.375 53.2285L558.593 995.084" stroke="#ADBFFD" stroke-width="0.857364"/>
<path d="M157.633 -435.361L1142.6 506.494" stroke="#ADBFFD" stroke-width="0.857364"/>
<path d="M-279.83 -135.096L705.138 806.759" stroke="#ADBFFD" stroke-width="0.857364"/>
<path d="M-89.6641 -117.566L895.304 824.289" stroke="#ADBFFD" stroke-width="0.857364"/>
<path d="M203.428 -494.213L1188.4 447.642" stroke="#ADBFFD" stroke-width="0.857364"/>
<path d="M-234.033 -193.945L750.935 747.91" stroke="#ADBFFD" stroke-width="0.857364"/>
<path d="M56.8828 -305.891L1041.85 635.964" stroke="#ADBFFD" stroke-width="0.857364"/>
<path d="M-380.58 -5.62305L604.388 936.232" stroke="#ADBFFD" stroke-width="0.857364"/>
<path d="M-53.0273 -164.648L931.94 777.207" stroke="#ADBFFD" stroke-width="0.857364"/>
<path d="M-490.49 135.619L494.477 1077.47" stroke="#ADBFFD" stroke-width="0.857364"/>
<path d="M93.5195 -352.971L1078.49 588.884" stroke="#ADBFFD" stroke-width="0.857364"/>
<path d="M-343.943 -52.7031L641.024 889.152" stroke="#ADBFFD" stroke-width="0.857364"/>
<path d="M-16.3906 -211.729L968.577 730.127" stroke="#ADBFFD" stroke-width="0.857364"/>
<path d="M-453.854 88.5391L531.114 1030.39" stroke="#ADBFFD" stroke-width="0.857364"/>
<path d="M130.154 -400.051L1115.12 541.804" stroke="#ADBFFD" stroke-width="0.857364"/>
<path d="M-307.307 -99.7832L677.661 842.072" stroke="#ADBFFD" stroke-width="0.857364"/>
<path d="M20.2461 -258.809L1005.21 683.046" stroke="#ADBFFD" stroke-width="0.857364"/>
<path d="M-417.217 41.459L567.751 983.314" stroke="#ADBFFD" stroke-width="0.857364"/>
<path d="M166.791 -447.131L1151.76 494.724" stroke="#ADBFFD" stroke-width="0.857364"/>
<path d="M-270.67 -146.863L714.298 794.992" stroke="#ADBFFD" stroke-width="0.857364"/>
<path d="M-80.5039 -129.338L904.464 812.517" stroke="#ADBFFD" stroke-width="0.857364"/>
<path d="M212.586 -505.982L1197.55 435.873" stroke="#ADBFFD" stroke-width="0.857364"/>
<path d="M-224.875 -205.715L760.093 736.14" stroke="#ADBFFD" stroke-width="0.857364"/>
<path d="M66.041 -317.66L1051.01 624.195" stroke="#ADBFFD" stroke-width="0.857364"/>
<path d="M-371.42 -17.3926L613.548 924.462" stroke="#ADBFFD" stroke-width="0.857364"/>
<path d="M-43.8672 -176.418L941.101 765.437" stroke="#ADBFFD" stroke-width="0.857364"/>
<path d="M-481.33 123.85L503.638 1065.7" stroke="#ADBFFD" stroke-width="0.857364"/>
<path d="M102.678 -364.74L1087.65 577.115" stroke="#ADBFFD" stroke-width="0.857364"/>
<path d="M-334.785 -64.4727L650.183 877.382" stroke="#ADBFFD" stroke-width="0.857364"/>
<path d="M-7.23242 -223.5L977.735 718.355" stroke="#ADBFFD" stroke-width="0.857364"/>
<path d="M-444.695 76.7676L540.272 1018.62" stroke="#ADBFFD" stroke-width="0.857364"/>
<path d="M139.314 -411.822L1124.28 530.033" stroke="#ADBFFD" stroke-width="0.857364"/>
<path d="M-298.148 -111.555L686.819 830.3" stroke="#ADBFFD" stroke-width="0.857364"/>
<path d="M29.4043 -270.58L1014.37 671.275" stroke="#ADBFFD" stroke-width="0.857364"/>
<path d="M-408.059 29.6875L576.909 971.543" stroke="#ADBFFD" stroke-width="0.857364"/>
<path d="M175.949 -458.902L1160.92 482.953" stroke="#ADBFFD" stroke-width="0.857364"/>
<path d="M-261.512 -158.635L723.456 783.22" stroke="#ADBFFD" stroke-width="0.857364"/>
<path d="M-71.3457 -141.107L913.622 800.748" stroke="#ADBFFD" stroke-width="0.857364"/>
<path d="M75.2012 -329.43L1060.17 612.425" stroke="#ADBFFD" stroke-width="0.857364"/>
<path d="M-362.262 -29.1621L622.706 912.693" stroke="#ADBFFD" stroke-width="0.857364"/>
<path d="M-34.709 -188.189L950.259 753.666" stroke="#ADBFFD" stroke-width="0.857364"/>
<path d="M-472.172 112.078L512.796 1053.93" stroke="#ADBFFD" stroke-width="0.857364"/>
<path d="M111.836 -376.512L1096.8 565.343" stroke="#ADBFFD" stroke-width="0.857364"/>
<path d="M-325.625 -76.2441L659.343 865.611" stroke="#ADBFFD" stroke-width="0.857364"/>
<path d="M1.92773 -235.268L986.895 706.587" stroke="#ADBFFD" stroke-width="0.857364"/>
<path d="M-435.535 64.998L549.433 1006.85" stroke="#ADBFFD" stroke-width="0.857364"/>
<path d="M148.473 -423.592L1133.44 518.263" stroke="#ADBFFD" stroke-width="0.857364"/>
<path d="M-288.988 -123.324L695.979 818.531" stroke="#ADBFFD" stroke-width="0.857364"/>
<path d="M38.5625 -282.35L1023.53 659.505" stroke="#ADBFFD" stroke-width="0.857364"/>
<path d="M-398.898 17.918L586.069 959.773" stroke="#ADBFFD" stroke-width="0.857364"/>
<path d="M185.109 -470.672L1170.08 471.183" stroke="#ADBFFD" stroke-width="0.857364"/>
<path d="M-252.352 -170.406L732.616 771.449" stroke="#ADBFFD" stroke-width="0.857364"/>
</g>
<path d="M96.9648 55.9473L96.9648 80.9321" stroke="#ADBFFD" stroke-width="0.857364"/>
<path d="M96.9209 90.472L94.6934 80.1836L99.1484 80.1836L96.9209 90.472Z" fill="#ADBFFD"/>
<rect x="26.3259" y="24.3748" width="140.824" height="42.7014" fill="white"/>
<path d="M79.5338 45.75C79.9729 45.8788 80.3061 46.1059 80.5332 46.4315C80.7603 46.7494 80.8739 47.1242 80.8739 47.5558C80.8739 47.9798 80.7982 48.3659 80.6468 48.7142C80.4954 49.0549 80.2909 49.3464 80.0335 49.5886C79.7761 49.8309 79.477 50.0164 79.1363 50.1451C78.7956 50.2738 78.4398 50.3382 78.0688 50.3382C77.66 50.3382 77.3079 50.2814 77.0126 50.1678C76.7173 50.0467 76.4751 49.8915 76.2858 49.7022C76.1041 49.5053 75.9678 49.2896 75.8769 49.0549C75.7937 48.8126 75.752 48.5665 75.752 48.3167L75.8088 47.851C75.8921 48.1388 76.0019 48.381 76.1382 48.5779C76.2744 48.7747 76.4296 48.9337 76.6038 49.0549C76.7855 49.176 76.9785 49.2631 77.183 49.3161C77.3874 49.3691 77.5994 49.3956 77.8189 49.3956C78.0688 49.3956 78.3111 49.3539 78.5458 49.2706C78.7805 49.1798 78.9849 49.0549 79.159 48.8959C79.3332 48.7369 79.4733 48.5438 79.5792 48.3167C79.6852 48.082 79.7382 47.8208 79.7382 47.5331C79.7382 47.3362 79.7042 47.1469 79.636 46.9652C79.5679 46.7835 79.4695 46.6245 79.3408 46.4882C79.2196 46.352 79.0644 46.2422 78.8751 46.1589C78.6934 46.0756 78.4852 46.034 78.2505 46.034H77.5464L77.6259 45.557H78.4776C78.7351 45.557 78.966 45.5002 79.1704 45.3866C79.3748 45.2731 79.549 45.1216 79.6928 44.9324C79.8367 44.7355 79.9464 44.5159 80.0222 44.2737C80.0979 44.0238 80.1357 43.7626 80.1357 43.4901C80.1357 43.0812 80.0222 42.767 79.795 42.5474C79.5755 42.3203 79.2878 42.2067 78.9319 42.2067C78.4701 42.2067 78.0726 42.4187 77.7395 42.8427C77.4063 43.2667 77.1603 43.861 77.0013 44.6257H76.6378L76.9672 42.5134C77.1868 42.3317 77.4669 42.1575 77.8076 41.991C78.1483 41.8244 78.5306 41.7411 78.9546 41.7411C79.2953 41.7411 79.6057 41.7865 79.8859 41.8774C80.1736 41.9607 80.4159 42.0856 80.6127 42.2522C80.8171 42.4112 80.9761 42.6042 81.0897 42.8314C81.2033 43.0585 81.26 43.3121 81.26 43.5923C81.26 43.9027 81.2146 44.1828 81.1238 44.4327C81.0329 44.6825 80.908 44.8983 80.749 45.08C80.59 45.2617 80.4045 45.4093 80.1925 45.5229C79.9881 45.6289 79.7685 45.7008 79.5338 45.7387V45.75ZM85.5726 50.2246L85.1865 49.2366C85.1183 49.3729 85.0313 49.5091 84.9253 49.6454C84.8193 49.7741 84.6981 49.8915 84.5618 49.9975C84.4331 50.0959 84.2855 50.1754 84.1189 50.236C83.9599 50.3041 83.7896 50.3382 83.6079 50.3382C82.9946 50.3382 82.5441 50.1413 82.2564 49.7476C81.9687 49.3539 81.8249 48.8164 81.8249 48.135C81.8249 47.6807 81.8854 47.234 82.0066 46.7949C82.1353 46.3482 82.3132 45.9507 82.5403 45.6024C82.7675 45.2541 83.0363 44.974 83.3467 44.762C83.6571 44.5424 84.0016 44.4327 84.3801 44.4327C84.5846 44.4327 84.7625 44.4629 84.9139 44.5235C85.0729 44.5841 85.2054 44.6636 85.3114 44.762C85.4174 44.8529 85.5007 44.9589 85.5612 45.08C85.6218 45.2011 85.6672 45.3185 85.6975 45.4321L86.5266 44.5462H86.7764L85.8224 50.2246H85.5726ZM84.5391 45.0005C84.3044 45.0005 84.0849 45.0914 83.8804 45.2731C83.676 45.4548 83.4981 45.7008 83.3467 46.0113C83.2028 46.3217 83.0893 46.6813 83.006 47.0901C82.9227 47.4914 82.881 47.9154 82.881 48.3621C82.881 48.8012 82.9643 49.1495 83.1309 49.4069C83.305 49.6643 83.5587 49.7931 83.8918 49.7931C84.0584 49.7931 84.2136 49.7476 84.3574 49.6568C84.5088 49.5583 84.6451 49.4334 84.7663 49.282C84.8874 49.123 84.9858 48.9451 85.0615 48.7482C85.1448 48.5514 85.2054 48.347 85.2432 48.135L85.4817 46.7267C85.4969 46.651 85.5045 46.5677 85.5045 46.4769C85.512 46.3785 85.5158 46.2952 85.5158 46.227C85.5158 45.8409 85.4325 45.5418 85.266 45.3298C85.0994 45.1103 84.8571 45.0005 84.5391 45.0005ZM89.3972 45.2163C89.0792 45.2163 88.7877 45.292 88.5227 45.4434C88.2577 45.5948 87.9965 45.8371 87.7391 46.1702L87.8299 45.6933C87.9814 45.3071 88.2161 45.0005 88.534 44.7734C88.8596 44.5462 89.2495 44.4327 89.7038 44.4327C90.2262 44.4327 90.6123 44.5576 90.8622 44.8074C91.1196 45.0573 91.2483 45.3677 91.2483 45.7387C91.2483 45.9658 91.2029 46.1589 91.112 46.3179C91.0212 46.4693 90.9 46.6018 90.7486 46.7154C90.5972 46.8289 90.4268 46.9349 90.2376 47.0334C90.0483 47.1242 89.8552 47.2226 89.6584 47.3286L89.1246 47.6239C88.8899 47.7526 88.6893 47.904 88.5227 48.0782C88.3561 48.2447 88.2728 48.4719 88.2728 48.7596C88.2728 48.9716 88.3523 49.1571 88.5113 49.3161C88.6779 49.4751 88.9202 49.5546 89.2382 49.5546C89.5789 49.5546 89.8855 49.4788 90.1581 49.3274C90.4382 49.176 90.7032 48.9337 90.953 48.6006L90.8622 49.0776C90.7108 49.4637 90.4685 49.7703 90.1353 49.9975C89.8098 50.2246 89.4161 50.3382 88.9542 50.3382C88.7271 50.3382 88.5113 50.3079 88.3069 50.2473C88.1101 50.1868 87.9359 50.1035 87.7845 49.9975C87.6406 49.8839 87.5233 49.7476 87.4324 49.5886C87.3492 49.4221 87.3075 49.2366 87.3075 49.0322C87.3075 48.7823 87.3492 48.5665 87.4324 48.3848C87.5233 48.2031 87.6369 48.0441 87.7731 47.9078C87.917 47.7716 88.0798 47.6504 88.2615 47.5444C88.4508 47.4384 88.6476 47.3286 88.852 47.2151L89.4085 46.9084C89.6811 46.757 89.8855 46.6094 90.0218 46.4655C90.1656 46.3217 90.2376 46.1362 90.2376 45.909C90.2376 45.7425 90.1732 45.5873 90.0445 45.4434C89.9158 45.292 89.7 45.2163 89.3972 45.2163ZM90.79 52.689L90.8354 52.4165C91.1155 52.4165 91.3162 52.3597 91.4373 52.2461C91.566 52.1325 91.6493 51.9735 91.6871 51.7691L92.6638 45.8068C92.6714 45.769 92.6752 45.7349 92.6752 45.7046C92.6828 45.6668 92.6865 45.6365 92.6865 45.6138C92.6865 45.4775 92.6373 45.3791 92.5389 45.3185C92.4405 45.2504 92.2701 45.2163 92.0278 45.2163L92.0733 44.9437L93.5837 44.4327H93.8109L93.6632 45.3526C93.7919 45.1103 93.9812 44.8983 94.2311 44.7166C94.4885 44.5273 94.7875 44.4327 95.1282 44.4327C95.4462 44.4327 95.715 44.4894 95.9346 44.603C96.1617 44.7166 96.3472 44.8756 96.491 45.08C96.6425 45.2844 96.7523 45.5267 96.8204 45.8068C96.8885 46.0794 96.9226 46.3747 96.9226 46.6927C96.9226 47.1621 96.8583 47.6163 96.7295 48.0555C96.6084 48.4946 96.4343 48.8845 96.2071 49.2252C95.9876 49.5659 95.7226 49.8423 95.4122 50.0543C95.1017 50.2587 94.761 50.3609 94.39 50.3609C94.1629 50.3609 93.9661 50.3306 93.7995 50.27C93.6405 50.217 93.5042 50.1413 93.3907 50.0429C93.2847 49.9445 93.2014 49.8309 93.1408 49.7022C93.0802 49.5735 93.0348 49.4372 93.0045 49.2934L92.6298 51.5874C92.6222 51.6328 92.6146 51.6896 92.607 51.7578C92.5995 51.8259 92.5957 51.8827 92.5957 51.9281C92.5957 52.0795 92.6411 52.1969 92.732 52.2802C92.8304 52.371 93.0007 52.4165 93.243 52.4165L93.1976 52.689H90.79ZM93.2203 48.0782C93.2052 48.1539 93.1938 48.2296 93.1862 48.3053C93.1787 48.3735 93.1749 48.4454 93.1749 48.5211C93.1749 48.8845 93.2506 49.1836 93.402 49.4183C93.561 49.653 93.8109 49.7703 94.1516 49.7703C94.3863 49.7703 94.6058 49.6833 94.8102 49.5091C95.0222 49.335 95.2077 49.0965 95.3667 48.7937C95.5257 48.4908 95.6506 48.1425 95.7415 47.7488C95.8324 47.3476 95.8778 46.9198 95.8778 46.4655C95.8778 46.0113 95.7945 45.6516 95.6279 45.3866C95.4689 45.1216 95.2077 44.9891 94.8443 44.9891C94.6702 44.9891 94.5036 45.0384 94.3446 45.1368C94.1932 45.2276 94.0569 45.3526 93.9358 45.5116C93.8146 45.663 93.7124 45.8371 93.6291 46.034C93.5459 46.2308 93.4891 46.4315 93.4588 46.6359L93.2203 48.0782ZM101.261 46.2157C101.36 46.0113 101.435 45.8371 101.488 45.6933C101.541 45.5494 101.568 45.4245 101.568 45.3185C101.568 45.1974 101.526 45.0838 101.443 44.9778C101.36 44.8718 101.186 44.8188 100.921 44.8188L100.977 44.5462H102.465L102.408 44.8188L99.2398 51.3035C99.149 51.4852 99.0543 51.6631 98.9559 51.8373C98.8651 52.019 98.7666 52.178 98.6606 52.3143C98.5546 52.4505 98.4411 52.5603 98.3199 52.6436C98.1988 52.7269 98.0701 52.7685 97.9338 52.7685C97.7294 52.7685 97.5742 52.708 97.4682 52.5868C97.3697 52.4732 97.3016 52.3408 97.2638 52.1893L97.3432 51.6556C97.4265 51.754 97.5212 51.8297 97.6272 51.8827C97.7407 51.9357 97.8732 51.9622 98.0247 51.9622C98.1988 51.9622 98.354 51.8827 98.4903 51.7237C98.6341 51.5723 98.7931 51.3224 98.9673 50.9742L99.3761 50.1338L98.3767 45.8182C98.3313 45.6138 98.2783 45.4737 98.2177 45.398C98.1647 45.3147 98.089 45.2731 97.9906 45.2731C97.8392 45.2731 97.7029 45.345 97.5817 45.4888C97.4606 45.6251 97.3584 45.7576 97.2751 45.8863L97.3773 45.2958C97.4606 45.0762 97.5969 44.8831 97.7862 44.7166C97.9754 44.5424 98.2026 44.4554 98.4676 44.4554C98.619 44.4554 98.7401 44.4894 98.831 44.5576C98.9294 44.6182 99.0051 44.7014 99.0581 44.8074C99.1187 44.9134 99.1641 45.0308 99.1944 45.1595C99.2323 45.2882 99.2663 45.4169 99.2966 45.5456L100.023 48.7255L101.261 46.2157ZM105.282 47.2151C105.622 47.2984 105.88 47.4498 106.054 47.6693C106.236 47.8813 106.327 48.135 106.327 48.4302C106.327 48.7255 106.27 48.9905 106.156 49.2252C106.05 49.4599 105.899 49.6606 105.702 49.8271C105.513 49.9861 105.285 50.111 105.021 50.2019C104.763 50.2927 104.487 50.3382 104.191 50.3382C103.851 50.3382 103.563 50.2927 103.328 50.2019C103.101 50.111 102.912 49.9937 102.761 49.8498C102.617 49.706 102.511 49.547 102.443 49.3729C102.382 49.1987 102.352 49.0246 102.352 48.8504L102.431 48.3167C102.56 48.7634 102.768 49.0851 103.056 49.282C103.351 49.4713 103.677 49.5659 104.032 49.5659C104.388 49.5659 104.691 49.4599 104.941 49.2479C105.191 49.0284 105.316 48.7142 105.316 48.3053C105.316 48.0555 105.229 47.8397 105.055 47.658C104.888 47.4763 104.631 47.3854 104.282 47.3854H103.783L103.839 47.0106H104.453C104.642 47.0106 104.809 46.9766 104.952 46.9084C105.096 46.8327 105.214 46.7343 105.304 46.6132C105.403 46.492 105.475 46.3557 105.52 46.2043C105.566 46.0453 105.588 45.8788 105.588 45.7046C105.588 45.4396 105.516 45.2239 105.373 45.0573C105.236 44.8831 105.021 44.7961 104.725 44.7961C104.059 44.7961 103.563 45.3601 103.237 46.4882H102.92L103.147 44.9891C103.321 44.8529 103.544 44.7279 103.817 44.6144C104.097 44.4932 104.407 44.4327 104.748 44.4327C105.013 44.4327 105.255 44.4667 105.475 44.5349C105.702 44.5954 105.895 44.6825 106.054 44.7961C106.221 44.9096 106.349 45.0497 106.44 45.2163C106.531 45.3828 106.576 45.5683 106.576 45.7728C106.576 45.9923 106.542 46.1892 106.474 46.3633C106.406 46.5299 106.311 46.6737 106.19 46.7949C106.077 46.9084 105.94 47.0031 105.781 47.0788C105.622 47.1469 105.456 47.1886 105.282 47.2037V47.2151ZM108.068 45.8182C108.075 45.7803 108.079 45.7463 108.079 45.716C108.087 45.6781 108.09 45.6478 108.09 45.6251C108.09 45.4888 108.041 45.3904 107.943 45.3298C107.844 45.2617 107.674 45.2276 107.432 45.2276L107.477 44.9437L108.976 44.4327H109.215L108.76 47.1583H109.158C109.309 47.1583 109.43 47.1318 109.521 47.0788C109.612 47.0182 109.707 46.916 109.805 46.7722L110.6 45.5797C110.729 45.3828 110.842 45.2163 110.941 45.08C111.039 44.9361 111.13 44.8226 111.213 44.7393C111.297 44.6484 111.38 44.5841 111.463 44.5462C111.547 44.5084 111.641 44.4894 111.747 44.4894C111.906 44.4894 112.027 44.5538 112.111 44.6825C112.202 44.8037 112.239 44.9664 112.224 45.1709L112.133 45.6819C112.08 45.5835 112.008 45.504 111.918 45.4434C111.827 45.3828 111.717 45.3526 111.588 45.3526C111.422 45.3526 111.285 45.398 111.179 45.4888C111.081 45.5797 110.975 45.7122 110.861 45.8863L110.146 46.9425L111.054 49.0889C111.107 49.2176 111.164 49.3161 111.225 49.3842C111.293 49.4524 111.391 49.4864 111.52 49.4864C111.656 49.4864 111.762 49.441 111.838 49.3501C111.921 49.2593 112.005 49.1571 112.088 49.0435L111.997 49.5546C111.914 49.7363 111.808 49.9028 111.679 50.0543C111.55 50.2057 111.365 50.2814 111.123 50.2814C110.88 50.2814 110.684 50.1981 110.532 50.0315C110.388 49.865 110.256 49.6454 110.135 49.3729L109.34 47.5331H108.692L108.238 50.2246H107.295L108.068 45.8182ZM116.334 50.2246L115.948 49.2366C115.88 49.3729 115.793 49.5091 115.687 49.6454C115.581 49.7741 115.46 49.8915 115.324 49.9975C115.195 50.0959 115.047 50.1754 114.881 50.236C114.722 50.3041 114.551 50.3382 114.37 50.3382C113.756 50.3382 113.306 50.1413 113.018 49.7476C112.73 49.3539 112.587 48.8164 112.587 48.135C112.587 47.6807 112.647 47.234 112.768 46.7949C112.897 46.3482 113.075 45.9507 113.302 45.6024C113.529 45.2541 113.798 44.974 114.108 44.762C114.419 44.5424 114.763 44.4327 115.142 44.4327C115.346 44.4327 115.524 44.4629 115.676 44.5235C115.835 44.5841 115.967 44.6636 116.073 44.762C116.179 44.8529 116.262 44.9589 116.323 45.08C116.384 45.2011 116.429 45.3185 116.459 45.4321L117.288 44.5462H117.538L116.584 50.2246H116.334ZM115.301 45.0005C115.066 45.0005 114.847 45.0914 114.642 45.2731C114.438 45.4548 114.26 45.7008 114.108 46.0113C113.965 46.3217 113.851 46.6813 113.768 47.0901C113.684 47.4914 113.643 47.9154 113.643 48.3621C113.643 48.8012 113.726 49.1495 113.893 49.4069C114.067 49.6643 114.32 49.7931 114.654 49.7931C114.82 49.7931 114.975 49.7476 115.119 49.6568C115.271 49.5583 115.407 49.4334 115.528 49.282C115.649 49.123 115.748 48.9451 115.823 48.7482C115.907 48.5514 115.967 48.347 116.005 48.135L116.243 46.7267C116.259 46.651 116.266 46.5677 116.266 46.4769C116.274 46.3785 116.278 46.2952 116.278 46.227C116.278 45.8409 116.194 45.5418 116.028 45.3298C115.861 45.1103 115.619 45.0005 115.301 45.0005Z" fill="#104A99"/>
<rect x="26.3259" y="24.3748" width="140.824" height="42.7014" stroke="#ADBFFD" stroke-width="1.36281"/>
<rect x="26.3259" y="91.1521" width="140.824" height="42.7014" fill="#ADBFFD"/>
<path d="M76.3974 112.902H73.0472L72.5702 115.821C72.5626 115.859 72.555 115.912 72.5475 115.98C72.5399 116.048 72.5361 116.105 72.5361 116.15C72.5361 116.324 72.5891 116.464 72.6951 116.57C72.8087 116.676 73.0017 116.729 73.2743 116.729L73.2289 117.002H70.5032L70.5487 116.729C70.8667 116.729 71.0976 116.661 71.2414 116.525C71.3853 116.381 71.4761 116.199 71.514 115.98L72.5361 109.836C72.5437 109.798 72.5513 109.745 72.5588 109.677C72.5664 109.609 72.5702 109.552 72.5702 109.506C72.5702 109.332 72.5134 109.192 72.3998 109.086C72.2863 108.98 72.0894 108.927 71.8093 108.927L71.8547 108.655H74.603L74.5576 108.927C74.2321 108.927 73.9973 108.999 73.8535 109.143C73.7096 109.287 73.6188 109.465 73.5809 109.677L73.1267 112.459H76.4769L76.9085 109.836C76.916 109.798 76.9236 109.745 76.9312 109.677C76.9387 109.609 76.9425 109.552 76.9425 109.506C76.9425 109.332 76.8857 109.192 76.7722 109.086C76.6662 108.98 76.4769 108.927 76.2043 108.927L76.2498 108.655H78.9754L78.93 108.927C78.612 108.927 78.3811 108.999 78.2372 109.143C78.0933 109.279 78.0025 109.457 77.9646 109.677L76.9425 115.821C76.935 115.859 76.9274 115.912 76.9198 115.98C76.9122 116.048 76.9085 116.105 76.9085 116.15C76.9085 116.324 76.9652 116.464 77.0788 116.57C77.1924 116.676 77.3892 116.729 77.6694 116.729L77.6239 117.002H74.8756L74.921 116.729C75.2466 116.729 75.4813 116.657 75.6251 116.514C75.769 116.37 75.8599 116.192 75.8977 115.98L76.3974 112.902ZM82.3381 117.002L81.952 116.014C81.8839 116.15 81.7968 116.286 81.6908 116.423C81.5848 116.551 81.4637 116.669 81.3274 116.775C81.1987 116.873 81.051 116.953 80.8845 117.013C80.7255 117.081 80.5551 117.116 80.3734 117.116C79.7602 117.116 79.3097 116.919 79.022 116.525C78.7343 116.131 78.5904 115.594 78.5904 114.912C78.5904 114.458 78.651 114.011 78.7721 113.572C78.9008 113.126 79.0788 112.728 79.3059 112.38C79.533 112.031 79.8018 111.751 80.1122 111.539C80.4226 111.32 80.7671 111.21 81.1457 111.21C81.3501 111.21 81.528 111.24 81.6794 111.301C81.8384 111.361 81.9709 111.441 82.0769 111.539C82.1829 111.63 82.2662 111.736 82.3268 111.857C82.3874 111.978 82.4328 112.096 82.4631 112.209L83.2921 111.324H83.542L82.588 117.002H82.3381ZM81.3047 111.778C81.07 111.778 80.8504 111.869 80.646 112.05C80.4416 112.232 80.2636 112.478 80.1122 112.789C79.9684 113.099 79.8548 113.459 79.7715 113.867C79.6882 114.269 79.6466 114.693 79.6466 115.139C79.6466 115.579 79.7299 115.927 79.8964 116.184C80.0706 116.442 80.3242 116.57 80.6573 116.57C80.8239 116.57 80.9791 116.525 81.123 116.434C81.2744 116.336 81.4107 116.211 81.5318 116.059C81.6529 115.9 81.7514 115.722 81.8271 115.526C81.9104 115.329 81.9709 115.124 82.0088 114.912L82.2473 113.504C82.2624 113.428 82.27 113.345 82.27 113.254C82.2776 113.156 82.2814 113.073 82.2814 113.004C82.2814 112.618 82.1981 112.319 82.0315 112.107C81.8649 111.888 81.6227 111.778 81.3047 111.778ZM87.5329 113.936C87.6464 113.958 87.76 113.996 87.8736 114.049C87.9947 114.102 88.1007 114.178 88.1916 114.276C88.29 114.367 88.3695 114.481 88.4301 114.617C88.4982 114.746 88.5323 114.897 88.5323 115.071C88.5323 115.435 88.4603 115.745 88.3165 116.003C88.1726 116.26 87.9871 116.472 87.76 116.639C87.5329 116.805 87.283 116.926 87.0105 117.002C86.7379 117.078 86.4729 117.116 86.2155 117.116C85.9278 117.116 85.659 117.074 85.4092 116.991C85.1669 116.907 84.9549 116.779 84.7732 116.604C84.5991 116.43 84.459 116.215 84.353 115.957C84.2546 115.7 84.2054 115.393 84.2054 115.037C84.2054 114.401 84.2924 113.845 84.4666 113.368C84.6407 112.891 84.8678 112.493 85.148 112.175C85.4357 111.857 85.7574 111.619 86.1133 111.46C86.4767 111.293 86.8439 111.21 87.2149 111.21C87.6919 111.21 88.0553 111.312 88.3051 111.517C88.5626 111.713 88.6913 111.994 88.6913 112.357C88.6913 112.577 88.6496 112.773 88.5663 112.948C88.4906 113.114 88.3922 113.266 88.2711 113.402C88.1575 113.531 88.0326 113.64 87.8963 113.731C87.7676 113.814 87.6464 113.883 87.5329 113.936ZM87.1127 111.596C86.9158 111.596 86.7265 111.657 86.5448 111.778C86.3631 111.899 86.1966 112.066 86.0451 112.278C85.9013 112.49 85.7726 112.739 85.659 113.027C85.553 113.315 85.4735 113.621 85.4205 113.947C85.6628 113.924 85.9202 113.89 86.1928 113.845C86.4653 113.792 86.719 113.708 86.9537 113.595C87.1884 113.481 87.3815 113.322 87.5329 113.118C87.6843 112.914 87.76 112.637 87.76 112.289C87.76 112.092 87.7032 111.929 87.5897 111.801C87.4837 111.664 87.3247 111.596 87.1127 111.596ZM86.3518 116.752C86.5032 116.752 86.6508 116.726 86.7947 116.673C86.9385 116.612 87.0635 116.525 87.1695 116.411C87.283 116.29 87.3701 116.139 87.4307 115.957C87.4988 115.775 87.5329 115.563 87.5329 115.321C87.5329 114.973 87.461 114.704 87.3171 114.515C87.1732 114.318 86.9234 114.22 86.5676 114.22C86.3253 114.22 86.0906 114.238 85.8634 114.276C85.6439 114.307 85.4697 114.341 85.341 114.379C85.3259 114.492 85.3107 114.632 85.2956 114.799C85.2805 114.958 85.2729 115.113 85.2729 115.264C85.2729 115.756 85.3675 116.127 85.5568 116.377C85.7537 116.627 86.0186 116.752 86.3518 116.752ZM90.3383 112.596C90.3458 112.558 90.3496 112.524 90.3496 112.493C90.3572 112.455 90.361 112.425 90.361 112.402C90.361 112.266 90.3118 112.168 90.2133 112.107C90.1149 112.039 89.9446 112.005 89.7023 112.005L89.7477 111.721L91.2354 111.21H91.4739L90.838 115.071C90.8228 115.139 90.8115 115.215 90.8039 115.298C90.8039 115.382 90.8039 115.45 90.8039 115.503C90.8039 115.624 90.8152 115.741 90.838 115.855C90.8607 115.968 90.9023 116.071 90.9629 116.162C91.031 116.252 91.1181 116.324 91.2241 116.377C91.3301 116.43 91.4664 116.457 91.6329 116.457C91.7919 116.457 91.9509 116.411 92.1099 116.321C92.2689 116.222 92.4128 116.101 92.5415 115.957C92.6702 115.806 92.78 115.635 92.8708 115.446C92.9692 115.257 93.0374 115.064 93.0752 114.867L93.6771 111.324H94.5857L93.8589 115.741C93.8513 115.779 93.8437 115.828 93.8361 115.889C93.8286 115.95 93.8248 115.999 93.8248 116.037C93.8248 116.264 93.9232 116.377 94.1201 116.377C94.2715 116.377 94.404 116.328 94.5175 116.23C94.6311 116.124 94.7712 115.972 94.9377 115.775L94.8355 116.298C94.6841 116.533 94.5251 116.718 94.3586 116.854C94.1996 116.991 93.9876 117.059 93.7226 117.059C93.397 117.059 93.1775 116.975 93.0639 116.809C92.9503 116.635 92.8935 116.427 92.8935 116.184C92.8935 116.139 92.8935 116.097 92.8935 116.059C92.8935 116.021 92.8973 115.98 92.9049 115.934C92.8367 116.063 92.7497 116.199 92.6437 116.343C92.5377 116.48 92.409 116.604 92.2576 116.718C92.1137 116.832 91.9509 116.926 91.7692 117.002C91.5875 117.078 91.3907 117.116 91.1787 117.116C90.9364 117.116 90.7282 117.078 90.554 117.002C90.3875 116.926 90.2512 116.828 90.1452 116.707C90.0468 116.578 89.9748 116.43 89.9294 116.264C89.884 116.09 89.8613 115.908 89.8613 115.719C89.8613 115.643 89.8651 115.552 89.8726 115.446C89.8802 115.34 89.8916 115.249 89.9067 115.174L90.3383 112.596ZM97.6033 111.994C97.2853 111.994 96.9938 112.069 96.7288 112.221C96.4638 112.372 96.2026 112.614 95.9452 112.948L96.0361 112.471C96.1875 112.084 96.4222 111.778 96.7402 111.551C97.0657 111.324 97.4557 111.21 97.9099 111.21C98.4323 111.21 98.8185 111.335 99.0683 111.585C99.3257 111.835 99.4545 112.145 99.4545 112.516C99.4545 112.743 99.409 112.936 99.3182 113.095C99.2273 113.247 99.1062 113.379 98.9548 113.493C98.8033 113.606 98.633 113.712 98.4437 113.811C98.2544 113.902 98.0614 114 97.8645 114.106L97.3307 114.401C97.096 114.53 96.8954 114.681 96.7288 114.856C96.5623 115.022 96.479 115.249 96.479 115.537C96.479 115.749 96.5585 115.934 96.7175 116.093C96.884 116.252 97.1263 116.332 97.4443 116.332C97.785 116.332 98.0916 116.256 98.3642 116.105C98.6443 115.953 98.9093 115.711 99.1592 115.378L99.0683 115.855C98.9169 116.241 98.6746 116.548 98.3415 116.775C98.0159 117.002 97.6222 117.116 97.1604 117.116C96.9333 117.116 96.7175 117.085 96.5131 117.025C96.3162 116.964 96.1421 116.881 95.9906 116.775C95.8468 116.661 95.7294 116.525 95.6386 116.366C95.5553 116.199 95.5137 116.014 95.5137 115.809C95.5137 115.56 95.5553 115.344 95.6386 115.162C95.7294 114.98 95.843 114.821 95.9793 114.685C96.1231 114.549 96.2859 114.428 96.4676 114.322C96.6569 114.216 96.8538 114.106 97.0582 113.992L97.6147 113.686C97.8872 113.534 98.0916 113.387 98.2279 113.243C98.3718 113.099 98.4437 112.914 98.4437 112.686C98.4437 112.52 98.3793 112.365 98.2506 112.221C98.1219 112.069 97.9061 111.994 97.6033 111.994ZM103.789 117.002L103.403 116.014C103.334 116.15 103.247 116.286 103.141 116.423C103.035 116.551 102.914 116.669 102.778 116.775C102.649 116.873 102.502 116.953 102.335 117.013C102.176 117.081 102.006 117.116 101.824 117.116C101.211 117.116 100.76 116.919 100.472 116.525C100.185 116.131 100.041 115.594 100.041 114.912C100.041 114.458 100.101 114.011 100.223 113.572C100.351 113.126 100.529 112.728 100.756 112.38C100.984 112.031 101.252 111.751 101.563 111.539C101.873 111.32 102.218 111.21 102.596 111.21C102.801 111.21 102.979 111.24 103.13 111.301C103.289 111.361 103.421 111.441 103.527 111.539C103.633 111.63 103.717 111.736 103.777 111.857C103.838 111.978 103.883 112.096 103.914 112.209L104.743 111.324H104.992L104.039 117.002H103.789ZM102.755 111.778C102.52 111.778 102.301 111.869 102.096 112.05C101.892 112.232 101.714 112.478 101.563 112.789C101.419 113.099 101.305 113.459 101.222 113.867C101.139 114.269 101.097 114.693 101.097 115.139C101.097 115.579 101.18 115.927 101.347 116.184C101.521 116.442 101.775 116.57 102.108 116.57C102.274 116.57 102.43 116.525 102.573 116.434C102.725 116.336 102.861 116.211 102.982 116.059C103.103 115.9 103.202 115.722 103.278 115.526C103.361 115.329 103.421 115.124 103.459 114.912L103.698 113.504C103.713 113.428 103.721 113.345 103.721 113.254C103.728 113.156 103.732 113.073 103.732 113.004C103.732 112.618 103.649 112.319 103.482 112.107C103.315 111.888 103.073 111.778 102.755 111.778ZM110.959 116.321C110.816 116.442 110.702 116.608 110.619 116.82C110.543 117.032 110.505 117.229 110.505 117.411C110.505 117.623 110.524 117.816 110.562 117.99C110.607 118.172 110.63 118.357 110.63 118.546C110.63 118.705 110.596 118.846 110.528 118.967C110.467 119.095 110.384 119.201 110.278 119.285C110.172 119.368 110.047 119.432 109.903 119.478C109.767 119.523 109.619 119.546 109.46 119.546C109.301 119.546 109.142 119.523 108.983 119.478L109.04 119.171C109.101 119.186 109.158 119.198 109.211 119.205C109.264 119.213 109.309 119.217 109.347 119.217C109.498 119.217 109.608 119.175 109.676 119.092C109.752 119.008 109.79 118.899 109.79 118.762C109.79 118.724 109.782 118.671 109.767 118.603C109.759 118.543 109.748 118.475 109.733 118.399C109.725 118.331 109.718 118.263 109.71 118.194C109.703 118.126 109.699 118.069 109.699 118.024C109.699 117.865 109.714 117.733 109.744 117.627C109.782 117.521 109.828 117.426 109.881 117.343C109.934 117.259 109.994 117.184 110.062 117.116C110.13 117.047 110.199 116.975 110.267 116.9C110.199 116.938 110.138 116.972 110.085 117.002C110.032 117.04 109.953 117.059 109.847 117.059C109.521 117.059 109.301 116.975 109.188 116.809C109.074 116.635 109.017 116.427 109.017 116.184C109.017 116.139 109.017 116.097 109.017 116.059C109.017 116.021 109.021 115.98 109.029 115.934C108.961 116.063 108.874 116.199 108.768 116.343C108.662 116.48 108.533 116.604 108.381 116.718C108.238 116.832 108.075 116.926 107.893 117.002C107.711 117.078 107.515 117.116 107.303 117.116C107.06 117.116 106.852 117.078 106.678 117.002C106.511 116.926 106.375 116.828 106.269 116.707C106.171 116.578 106.099 116.43 106.053 116.264C106.008 116.09 105.985 115.908 105.985 115.719C105.985 115.643 105.989 115.552 105.997 115.446C106.004 115.34 106.015 115.249 106.031 115.174L106.462 112.596C106.47 112.558 106.474 112.524 106.474 112.493C106.481 112.455 106.485 112.425 106.485 112.402C106.485 112.266 106.436 112.168 106.337 112.107C106.239 112.039 106.068 112.005 105.826 112.005L105.872 111.721L107.359 111.21H107.598L106.962 115.071C106.947 115.139 106.935 115.215 106.928 115.298C106.928 115.382 106.928 115.45 106.928 115.503C106.928 115.624 106.939 115.741 106.962 115.855C106.985 115.968 107.026 116.071 107.087 116.162C107.155 116.252 107.242 116.324 107.348 116.377C107.454 116.43 107.59 116.457 107.757 116.457C107.916 116.457 108.075 116.411 108.234 116.321C108.393 116.222 108.537 116.101 108.665 115.957C108.794 115.806 108.904 115.635 108.995 115.446C109.093 115.257 109.161 115.064 109.199 114.867L109.801 111.324H110.71L109.983 115.741C109.975 115.779 109.968 115.828 109.96 115.889C109.953 115.95 109.949 115.999 109.949 116.037C109.949 116.264 110.047 116.377 110.244 116.377C110.395 116.377 110.528 116.328 110.641 116.23C110.755 116.124 110.895 115.972 111.062 115.775L110.959 116.321ZM112.41 112.596C112.417 112.558 112.421 112.524 112.421 112.493C112.429 112.455 112.433 112.425 112.433 112.402C112.433 112.266 112.383 112.168 112.285 112.107C112.186 112.039 112.016 112.005 111.774 112.005L111.819 111.721L113.307 111.21H113.546L112.91 115.071C112.894 115.139 112.883 115.215 112.875 115.298C112.875 115.382 112.875 115.45 112.875 115.503C112.875 115.624 112.887 115.741 112.91 115.855C112.932 115.968 112.974 116.071 113.034 116.162C113.103 116.252 113.19 116.324 113.296 116.377C113.402 116.43 113.538 116.457 113.705 116.457C113.864 116.457 114.023 116.411 114.182 116.321C114.34 116.222 114.484 116.101 114.613 115.957C114.742 115.806 114.852 115.635 114.942 115.446C115.041 115.257 115.109 115.064 115.147 114.867L115.749 111.324H116.657L115.93 115.741C115.923 115.779 115.915 115.828 115.908 115.889C115.9 115.95 115.896 115.999 115.896 116.037C115.896 116.264 115.995 116.377 116.192 116.377C116.343 116.377 116.476 116.328 116.589 116.23C116.703 116.124 116.843 115.972 117.009 115.775L116.907 116.298C116.756 116.533 116.597 116.718 116.43 116.854C116.271 116.991 116.059 117.059 115.794 117.059C115.469 117.059 115.249 116.975 115.135 116.809C115.022 116.635 114.965 116.427 114.965 116.184C114.965 116.139 114.965 116.097 114.965 116.059C114.965 116.021 114.969 115.98 114.976 115.934C114.908 116.063 114.821 116.199 114.715 116.343C114.609 116.48 114.481 116.604 114.329 116.718C114.185 116.832 114.023 116.926 113.841 117.002C113.659 117.078 113.462 117.116 113.25 117.116C113.008 117.116 112.8 117.078 112.626 117.002C112.459 116.926 112.323 116.828 112.217 116.707C112.118 116.578 112.046 116.43 112.001 116.264C111.956 116.09 111.933 115.908 111.933 115.719C111.933 115.643 111.937 115.552 111.944 115.446C111.952 115.34 111.963 115.249 111.978 115.174L112.41 112.596ZM119.082 116.15C118.908 116.438 118.733 116.661 118.559 116.82C118.393 116.979 118.188 117.059 117.946 117.059C117.726 117.059 117.556 116.983 117.435 116.832C117.321 116.68 117.238 116.514 117.185 116.332L117.265 115.878C117.31 115.984 117.367 116.074 117.435 116.15C117.511 116.226 117.602 116.264 117.708 116.264C117.829 116.264 117.927 116.23 118.003 116.162C118.086 116.093 118.169 115.995 118.253 115.866L119.15 114.413C118.885 114.329 118.665 114.182 118.491 113.97C118.317 113.75 118.23 113.466 118.23 113.118C118.23 112.777 118.302 112.493 118.446 112.266C118.597 112.031 118.79 111.846 119.025 111.71C119.26 111.573 119.521 111.475 119.809 111.414C120.104 111.354 120.391 111.324 120.672 111.324H122.262L121.535 115.741C121.527 115.779 121.52 115.828 121.512 115.889C121.504 115.95 121.501 115.999 121.501 116.037C121.501 116.264 121.599 116.377 121.796 116.377C121.947 116.377 122.08 116.328 122.193 116.23C122.307 116.124 122.447 115.972 122.614 115.775L122.511 116.298C122.36 116.533 122.201 116.718 122.034 116.854C121.875 116.991 121.663 117.059 121.398 117.059C121.073 117.059 120.853 116.975 120.74 116.809C120.626 116.635 120.569 116.427 120.569 116.184C120.569 116.01 120.585 115.851 120.615 115.707L120.797 114.617H120.002L119.082 116.15ZM121.285 111.698H120.853C120.656 111.698 120.463 111.725 120.274 111.778C120.085 111.823 119.915 111.903 119.763 112.016C119.619 112.122 119.502 112.266 119.411 112.448C119.32 112.63 119.275 112.849 119.275 113.107C119.275 113.508 119.392 113.799 119.627 113.981C119.869 114.155 120.179 114.242 120.558 114.242H120.865L120.956 113.72L121.285 111.698Z" fill="white"/>
<rect x="26.3259" y="91.1521" width="140.824" height="42.7014" stroke="#ADBFFD" stroke-width="1.36281"/>
<path d="M168.438 114.093H206.898V43.1746H168.438M168.438 43.1746L175.97 35.959M168.438 43.1746L175.97 50.3902" stroke="#ADBFFD" stroke-width="0.45427" stroke-dasharray="13.63 4.54"/>
</svg>
