<svg width="748" height="305" viewBox="0 0 748 305" fill="none" xmlns="http://www.w3.org/2000/svg">
<rect x="0.906667" y="1.90667" width="746.187" height="301.187" rx="3.37131" fill="white" stroke="#ADBFFD" stroke-width="1.81333"/>
<mask id="mask0_1890_1747" style="mask-type:alpha" maskUnits="userSpaceOnUse" x="0" y="0" width="748" height="305">
<path d="M1.11714e-06 5.06642C5.00158e-07 2.70519 1.91416 0.791037 4.27539 0.791037L743.725 0.791035C746.086 0.791035 748 2.70519 748 5.06642L748 300.065C748 302.426 746.086 304.34 743.725 304.34L4.27549 304.34C1.91426 304.339 7.88154e-05 302.425 7.81984e-05 300.064L1.11714e-06 5.06642Z" fill="#D9D9D9"/>
</mask>
<g mask="url(#mask0_1890_1747)">
<path d="M-99.2227 -104.795L883.118 834.548" stroke="#ADBFFD" stroke-width="0.855078"/>
<path d="M-535.518 194.672L446.823 1134.02" stroke="#ADBFFD" stroke-width="0.855078"/>
<path d="M193.088 -480.436L1175.43 458.908" stroke="#ADBFFD" stroke-width="0.855078"/>
<path d="M-243.207 -180.969L739.134 758.375" stroke="#ADBFFD" stroke-width="0.855078"/>
<path d="M46.9316 -292.615L1029.27 646.728" stroke="#ADBFFD" stroke-width="0.855078"/>
<path d="M-389.361 6.85156L592.98 946.195" stroke="#ADBFFD" stroke-width="0.855078"/>
<path d="M-62.6836 -151.75L919.657 787.593" stroke="#ADBFFD" stroke-width="0.855078"/>
<path d="M-498.979 147.715L483.363 1087.06" stroke="#ADBFFD" stroke-width="0.855078"/>
<path d="M83.4707 -339.57L1065.81 599.773" stroke="#ADBFFD" stroke-width="0.855078"/>
<path d="M-352.824 -40.1035L629.517 899.24" stroke="#ADBFFD" stroke-width="0.855078"/>
<path d="M-26.1445 -198.705L956.196 740.638" stroke="#ADBFFD" stroke-width="0.855078"/>
<path d="M-462.439 100.762L519.902 1040.11" stroke="#ADBFFD" stroke-width="0.855078"/>
<path d="M120.01 -386.525L1102.35 552.818" stroke="#ADBFFD" stroke-width="0.855078"/>
<path d="M-316.285 -87.0586L666.056 852.285" stroke="#ADBFFD" stroke-width="0.855078"/>
<path d="M10.3945 -245.658L992.736 693.685" stroke="#ADBFFD" stroke-width="0.855078"/>
<path d="M-425.9 53.8066L556.441 993.15" stroke="#ADBFFD" stroke-width="0.855078"/>
<path d="M156.549 -433.48L1138.89 505.863" stroke="#ADBFFD" stroke-width="0.855078"/>
<path d="M-279.746 -134.016L702.595 805.328" stroke="#ADBFFD" stroke-width="0.855078"/>
<path d="M-90.0859 -116.533L892.255 822.81" stroke="#ADBFFD" stroke-width="0.855078"/>
<path d="M-526.383 182.932L455.958 1122.27" stroke="#ADBFFD" stroke-width="0.855078"/>
<path d="M202.223 -492.176L1184.56 447.168" stroke="#ADBFFD" stroke-width="0.855078"/>
<path d="M-234.072 -192.709L748.269 746.634" stroke="#ADBFFD" stroke-width="0.855078"/>
<path d="M56.0684 -304.354L1038.41 634.99" stroke="#ADBFFD" stroke-width="0.855078"/>
<path d="M-380.227 -4.88672L602.114 934.457" stroke="#ADBFFD" stroke-width="0.855078"/>
<path d="M-53.5488 -163.49L928.792 775.853" stroke="#ADBFFD" stroke-width="0.855078"/>
<path d="M-489.844 135.977L492.497 1075.32" stroke="#ADBFFD" stroke-width="0.855078"/>
<path d="M92.6074 -351.309L1074.95 588.035" stroke="#ADBFFD" stroke-width="0.855078"/>
<path d="M-343.688 -51.8418L638.654 887.502" stroke="#ADBFFD" stroke-width="0.855078"/>
<path d="M-17.0098 -210.443L965.331 728.9" stroke="#ADBFFD" stroke-width="0.855078"/>
<path d="M-453.305 89.0215L529.036 1028.36" stroke="#ADBFFD" stroke-width="0.855078"/>
<path d="M129.145 -398.264L1111.49 541.08" stroke="#ADBFFD" stroke-width="0.855078"/>
<path d="M-307.15 -98.7969L675.191 840.546" stroke="#ADBFFD" stroke-width="0.855078"/>
<path d="M19.5293 -257.398L1001.87 681.945" stroke="#ADBFFD" stroke-width="0.855078"/>
<path d="M-416.766 42.0684L565.575 981.412" stroke="#ADBFFD" stroke-width="0.855078"/>
<path d="M165.684 -445.219L1148.02 494.125" stroke="#ADBFFD" stroke-width="0.855078"/>
<path d="M-270.609 -145.752L711.732 793.591" stroke="#ADBFFD" stroke-width="0.855078"/>
<path d="M-80.9512 -128.273L901.39 811.07" stroke="#ADBFFD" stroke-width="0.855078"/>
<path d="M-517.25 171.193L465.091 1110.54" stroke="#ADBFFD" stroke-width="0.855078"/>
<path d="M211.357 -503.914L1193.7 435.429" stroke="#ADBFFD" stroke-width="0.855078"/>
<path d="M-224.939 -204.447L757.402 734.896" stroke="#ADBFFD" stroke-width="0.855078"/>
<path d="M65.2031 -316.092L1047.54 623.252" stroke="#ADBFFD" stroke-width="0.855078"/>
<path d="M-371.094 -16.625L611.247 922.718" stroke="#ADBFFD" stroke-width="0.855078"/>
<path d="M-44.4141 -175.229L937.927 764.115" stroke="#ADBFFD" stroke-width="0.855078"/>
<path d="M-480.709 124.238L501.632 1063.58" stroke="#ADBFFD" stroke-width="0.855078"/>
<path d="M101.742 -363.047L1084.08 576.296" stroke="#ADBFFD" stroke-width="0.855078"/>
<path d="M-334.555 -63.5801L647.786 875.763" stroke="#ADBFFD" stroke-width="0.855078"/>
<path d="M-7.875 -222.184L974.466 717.16" stroke="#ADBFFD" stroke-width="0.855078"/>
<path d="M-444.172 77.2832L538.169 1016.63" stroke="#ADBFFD" stroke-width="0.855078"/>
<path d="M138.279 -410.004L1120.62 529.339" stroke="#ADBFFD" stroke-width="0.855078"/>
<path d="M-298.016 -110.537L684.325 828.806" stroke="#ADBFFD" stroke-width="0.855078"/>
<path d="M28.6641 -269.137L1011.01 670.207" stroke="#ADBFFD" stroke-width="0.855078"/>
<path d="M-407.633 30.3301L574.708 969.673" stroke="#ADBFFD" stroke-width="0.855078"/>
<path d="M174.818 -456.959L1157.16 482.384" stroke="#ADBFFD" stroke-width="0.855078"/>
<path d="M-261.479 -157.492L720.863 781.851" stroke="#ADBFFD" stroke-width="0.855078"/>
<path d="M-71.8164 -140.012L910.525 799.332" stroke="#ADBFFD" stroke-width="0.855078"/>
<path d="M-508.113 159.455L474.228 1098.8" stroke="#ADBFFD" stroke-width="0.855078"/>
<path d="M74.3379 -327.832L1056.68 611.511" stroke="#ADBFFD" stroke-width="0.855078"/>
<path d="M-361.959 -28.3652L620.382 910.978" stroke="#ADBFFD" stroke-width="0.855078"/>
<path d="M-35.2773 -186.967L947.064 752.377" stroke="#ADBFFD" stroke-width="0.855078"/>
<path d="M-471.574 112.5L510.767 1051.84" stroke="#ADBFFD" stroke-width="0.855078"/>
<path d="M110.877 -374.787L1093.22 564.556" stroke="#ADBFFD" stroke-width="0.855078"/>
<path d="M-325.42 -75.3203L656.921 864.023" stroke="#ADBFFD" stroke-width="0.855078"/>
<path d="M1.25977 -233.92L983.601 705.423" stroke="#ADBFFD" stroke-width="0.855078"/>
<path d="M-435.037 65.5469L547.304 1004.89" stroke="#ADBFFD" stroke-width="0.855078"/>
<path d="M147.416 -421.742L1129.76 517.601" stroke="#ADBFFD" stroke-width="0.855078"/>
<path d="M-288.881 -122.275L693.46 817.068" stroke="#ADBFFD" stroke-width="0.855078"/>
<path d="M37.7988 -280.875L1020.14 658.468" stroke="#ADBFFD" stroke-width="0.855078"/>
<path d="M-398.498 18.5898L583.843 957.933" stroke="#ADBFFD" stroke-width="0.855078"/>
<path d="M183.953 -468.697L1166.29 470.646" stroke="#ADBFFD" stroke-width="0.855078"/>
<path d="M-252.342 -169.232L729.999 770.111" stroke="#ADBFFD" stroke-width="0.855078"/>
</g>
<rect x="0.906118" y="1.69713" width="746.188" height="301.737" rx="3.36927" stroke="#ADBFFD" stroke-width="1.81224"/>
<rect x="11.7793" y="11.666" width="723.988" height="281.349" rx="4.53059" fill="white"/>
<path d="M22.2012 22.9922V261.754H725.348" stroke="#ADBFFD" stroke-width="1.35918"/>
<path d="M25.6805 281.002H24.5252V274.097H22.0243V273.173C22.3505 273.173 22.6676 273.15 22.9757 273.105C23.2838 273.051 23.5601 272.956 23.8048 272.82C24.0585 272.684 24.2715 272.498 24.4436 272.262C24.6158 272.027 24.7336 271.728 24.797 271.365H25.6805V281.002ZM32.2587 273.975H37.0702V274.994H33.414V281.002H32.2587V273.975ZM40.6153 281.151C40.0535 281.151 39.5596 281.061 39.1338 280.88C38.7169 280.689 38.3636 280.431 38.0736 280.105C37.7836 279.77 37.5662 279.38 37.4212 278.936C37.2762 278.492 37.2037 278.012 37.2037 277.495C37.2037 276.979 37.2762 276.499 37.4212 276.055C37.5662 275.601 37.7836 275.212 38.0736 274.886C38.3636 274.55 38.7169 274.288 39.1338 274.097C39.5596 273.907 40.0535 273.812 40.6153 273.812C41.168 273.812 41.6573 273.907 42.0832 274.097C42.5091 274.288 42.867 274.55 43.1569 274.886C43.4469 275.212 43.6644 275.601 43.8093 276.055C43.9543 276.499 44.0268 276.979 44.0268 277.495C44.0268 278.012 43.9543 278.492 43.8093 278.936C43.6644 279.38 43.4469 279.77 43.1569 280.105C42.867 280.431 42.5091 280.689 42.0832 280.88C41.6573 281.061 41.168 281.151 40.6153 281.151ZM40.6153 280.146C40.9143 280.146 41.1952 280.087 41.458 279.969C41.7298 279.851 41.9654 279.684 42.1647 279.466C42.3641 279.24 42.5181 278.963 42.6268 278.637C42.7446 278.302 42.8035 277.921 42.8035 277.495C42.8035 277.069 42.7446 276.693 42.6268 276.367C42.5181 276.032 42.3641 275.751 42.1647 275.524C41.9654 275.298 41.7298 275.126 41.458 275.008C41.1952 274.89 40.9143 274.831 40.6153 274.831C40.3162 274.831 40.0308 274.89 39.759 275.008C39.4962 275.126 39.2651 275.298 39.0658 275.524C38.8665 275.751 38.7079 276.032 38.5901 276.367C38.4814 276.693 38.427 277.069 38.427 277.495C38.427 277.921 38.4814 278.302 38.5901 278.637C38.7079 278.963 38.8665 279.24 39.0658 279.466C39.2651 279.684 39.4962 279.851 39.759 279.969C40.0308 280.087 40.3162 280.146 40.6153 280.146ZM44.1521 279.983H44.9812C45.0809 279.792 45.1805 279.534 45.2802 279.208C45.3889 278.873 45.4841 278.506 45.5656 278.107C45.6563 277.699 45.7287 277.269 45.7831 276.816C45.8375 276.363 45.8647 275.919 45.8647 275.484V273.975H50.948V279.983H51.8994V283.136H50.7985V281.002H45.253V283.136H44.1521V279.983ZM49.7927 279.983V274.994H46.9928V275.592C46.9928 276.036 46.9656 276.48 46.9112 276.924C46.8659 277.359 46.8025 277.772 46.7209 278.161C46.6394 278.551 46.5488 278.904 46.4491 279.221C46.3585 279.539 46.2679 279.792 46.1773 279.983H49.7927Z" fill="#104A99"/>
<path d="M181.821 274.777C181.794 274.288 181.843 273.835 181.97 273.418C182.097 273.001 182.292 272.643 182.555 272.344C182.826 272.036 183.162 271.796 183.56 271.624C183.959 271.451 184.412 271.365 184.92 271.365C185.336 271.365 185.726 271.429 186.089 271.556C186.46 271.673 186.782 271.85 187.054 272.086C187.325 272.312 187.538 272.598 187.692 272.942C187.855 273.286 187.937 273.685 187.937 274.138C187.937 274.564 187.869 274.94 187.733 275.266C187.606 275.592 187.434 275.887 187.217 276.15C186.999 276.403 186.75 276.634 186.469 276.843C186.188 277.051 185.898 277.251 185.599 277.441C185.3 277.622 185.001 277.803 184.702 277.985C184.403 278.157 184.127 278.342 183.873 278.542C183.628 278.741 183.415 278.959 183.234 279.194C183.062 279.421 182.949 279.684 182.894 279.983H187.842V281.002H181.549C181.594 280.431 181.694 279.946 181.848 279.548C182.011 279.14 182.215 278.786 182.46 278.487C182.704 278.188 182.981 277.926 183.289 277.699C183.597 277.473 183.918 277.26 184.254 277.06C184.661 276.807 185.019 276.576 185.327 276.367C185.635 276.15 185.889 275.932 186.089 275.715C186.297 275.497 186.451 275.262 186.551 275.008C186.659 274.754 186.714 274.46 186.714 274.125C186.714 273.862 186.664 273.626 186.564 273.418C186.465 273.2 186.329 273.015 186.156 272.86C185.993 272.706 185.799 272.589 185.572 272.507C185.345 272.426 185.105 272.385 184.852 272.385C184.516 272.385 184.226 272.457 183.982 272.602C183.746 272.738 183.551 272.919 183.397 273.146C183.243 273.372 183.13 273.631 183.058 273.921C182.994 274.202 182.967 274.487 182.976 274.777H181.821ZM192.64 273.975H197.451V274.994H193.795V281.002H192.64V273.975ZM200.996 281.151C200.434 281.151 199.94 281.061 199.515 280.88C199.098 280.689 198.744 280.431 198.454 280.105C198.165 279.77 197.947 279.38 197.802 278.936C197.657 278.492 197.585 278.012 197.585 277.495C197.585 276.979 197.657 276.499 197.802 276.055C197.947 275.601 198.165 275.212 198.454 274.886C198.744 274.55 199.098 274.288 199.515 274.097C199.94 273.907 200.434 273.812 200.996 273.812C201.549 273.812 202.038 273.907 202.464 274.097C202.89 274.288 203.248 274.55 203.538 274.886C203.828 275.212 204.045 275.601 204.19 276.055C204.335 276.499 204.408 276.979 204.408 277.495C204.408 278.012 204.335 278.492 204.19 278.936C204.045 279.38 203.828 279.77 203.538 280.105C203.248 280.431 202.89 280.689 202.464 280.88C202.038 281.061 201.549 281.151 200.996 281.151ZM200.996 280.146C201.295 280.146 201.576 280.087 201.839 279.969C202.111 279.851 202.346 279.684 202.546 279.466C202.745 279.24 202.899 278.963 203.008 278.637C203.125 278.302 203.184 277.921 203.184 277.495C203.184 277.069 203.125 276.693 203.008 276.367C202.899 276.032 202.745 275.751 202.546 275.524C202.346 275.298 202.111 275.126 201.839 275.008C201.576 274.89 201.295 274.831 200.996 274.831C200.697 274.831 200.412 274.89 200.14 275.008C199.877 275.126 199.646 275.298 199.447 275.524C199.247 275.751 199.089 276.032 198.971 276.367C198.862 276.693 198.808 277.069 198.808 277.495C198.808 277.921 198.862 278.302 198.971 278.637C199.089 278.963 199.247 279.24 199.447 279.466C199.646 279.684 199.877 279.851 200.14 279.969C200.412 280.087 200.697 280.146 200.996 280.146ZM204.533 279.983H205.362C205.462 279.792 205.561 279.534 205.661 279.208C205.77 278.873 205.865 278.506 205.946 278.107C206.037 277.699 206.11 277.269 206.164 276.816C206.218 276.363 206.246 275.919 206.246 275.484V273.975H211.329V279.983H212.28V283.136H211.179V281.002H205.634V283.136H204.533V279.983ZM210.174 279.983V274.994H207.374V275.592C207.374 276.036 207.346 276.48 207.292 276.924C207.247 277.359 207.183 277.772 207.102 278.161C207.02 278.551 206.93 278.904 206.83 279.221C206.739 279.539 206.649 279.792 206.558 279.983H210.174ZM214.902 281.151C214.585 281.151 214.286 281.115 214.005 281.043C213.724 280.979 213.475 280.871 213.257 280.717C213.049 280.553 212.881 280.35 212.754 280.105C212.636 279.851 212.577 279.548 212.577 279.194C212.577 278.796 212.645 278.469 212.781 278.216C212.917 277.962 213.094 277.758 213.311 277.604C213.538 277.441 213.792 277.319 214.073 277.237C214.363 277.155 214.657 277.088 214.956 277.033C215.273 276.97 215.572 276.924 215.853 276.897C216.143 276.861 216.397 276.816 216.614 276.761C216.832 276.698 217.004 276.612 217.131 276.503C217.258 276.385 217.321 276.218 217.321 276C217.321 275.746 217.271 275.543 217.171 275.389C217.081 275.235 216.959 275.117 216.805 275.035C216.66 274.954 216.492 274.899 216.302 274.872C216.12 274.845 215.939 274.831 215.758 274.831C215.269 274.831 214.861 274.926 214.535 275.117C214.208 275.298 214.032 275.647 214.005 276.163H212.849C212.867 275.728 212.958 275.361 213.121 275.062C213.284 274.763 213.502 274.523 213.774 274.342C214.045 274.152 214.353 274.016 214.698 273.934C215.051 273.853 215.427 273.812 215.826 273.812C216.143 273.812 216.456 273.835 216.764 273.88C217.081 273.925 217.366 274.02 217.62 274.165C217.874 274.301 218.078 274.496 218.232 274.75C218.386 275.003 218.463 275.334 218.463 275.742V279.357C218.463 279.629 218.476 279.829 218.503 279.955C218.54 280.082 218.648 280.146 218.83 280.146C218.911 280.146 219.029 280.123 219.183 280.078V280.975C218.984 281.093 218.707 281.151 218.354 281.151C218.055 281.151 217.815 281.07 217.634 280.907C217.461 280.735 217.375 280.458 217.375 280.078C217.058 280.458 216.687 280.735 216.261 280.907C215.844 281.07 215.391 281.151 214.902 281.151ZM215.16 280.146C215.54 280.146 215.867 280.096 216.139 279.996C216.41 279.887 216.632 279.756 216.805 279.602C216.977 279.439 217.104 279.267 217.185 279.086C217.267 278.895 217.307 278.719 217.307 278.555V277.373C217.162 277.491 216.972 277.572 216.737 277.618C216.501 277.663 216.252 277.704 215.989 277.74C215.735 277.776 215.477 277.812 215.214 277.849C214.952 277.885 214.716 277.948 214.508 278.039C214.299 278.13 214.127 278.261 213.991 278.433C213.864 278.596 213.801 278.823 213.801 279.113C213.801 279.303 213.837 279.466 213.909 279.602C213.991 279.729 214.091 279.833 214.208 279.915C214.335 279.996 214.48 280.055 214.643 280.091C214.807 280.128 214.979 280.146 215.16 280.146Z" fill="#104A99"/>
<path d="M352.725 275.497C352.77 275.506 352.811 275.511 352.847 275.511C352.892 275.511 352.938 275.511 352.983 275.511H353.228C353.472 275.511 353.703 275.479 353.921 275.416C354.147 275.343 354.342 275.244 354.505 275.117C354.677 274.981 354.813 274.813 354.913 274.614C355.013 274.414 355.063 274.188 355.063 273.934C355.063 273.418 354.899 273.033 354.573 272.779C354.247 272.516 353.839 272.385 353.35 272.385C353.042 272.385 352.77 272.444 352.534 272.561C352.308 272.67 352.118 272.82 351.964 273.01C351.819 273.2 351.71 273.422 351.637 273.676C351.565 273.93 351.529 274.197 351.529 274.478H350.373C350.391 274.016 350.464 273.594 350.591 273.214C350.727 272.833 350.917 272.507 351.162 272.235C351.406 271.963 351.71 271.75 352.072 271.596C352.444 271.442 352.87 271.365 353.35 271.365C353.767 271.365 354.152 271.42 354.505 271.528C354.868 271.628 355.18 271.782 355.443 271.991C355.706 272.199 355.91 272.466 356.055 272.793C356.209 273.119 356.286 273.504 356.286 273.948C356.286 274.383 356.159 274.768 355.905 275.103C355.651 275.438 355.334 275.692 354.954 275.864V275.891C355.543 276.018 355.978 276.295 356.259 276.721C356.549 277.146 356.694 277.649 356.694 278.229C356.694 278.709 356.603 279.135 356.422 279.507C356.25 279.869 356.014 280.173 355.715 280.418C355.416 280.662 355.063 280.848 354.655 280.975C354.256 281.093 353.83 281.151 353.377 281.151C352.888 281.151 352.444 281.084 352.045 280.948C351.646 280.812 351.307 280.612 351.026 280.35C350.745 280.078 350.527 279.747 350.373 279.357C350.228 278.968 350.16 278.524 350.169 278.025H351.325C351.343 278.651 351.524 279.163 351.868 279.561C352.213 279.951 352.716 280.146 353.377 280.146C353.658 280.146 353.925 280.105 354.179 280.023C354.433 279.933 354.655 279.81 354.845 279.656C355.035 279.493 355.185 279.298 355.294 279.072C355.411 278.836 355.47 278.574 355.47 278.284C355.47 277.985 355.416 277.722 355.307 277.495C355.198 277.26 355.053 277.065 354.872 276.911C354.691 276.748 354.474 276.63 354.22 276.557C353.975 276.476 353.708 276.435 353.418 276.435C353.173 276.435 352.942 276.449 352.725 276.476V275.497ZM361.179 273.975H365.99V274.994H362.334V281.002H361.179V273.975ZM369.535 281.151C368.973 281.151 368.48 281.061 368.054 280.88C367.637 280.689 367.283 280.431 366.994 280.105C366.704 279.77 366.486 279.38 366.341 278.936C366.196 278.492 366.124 278.012 366.124 277.495C366.124 276.979 366.196 276.499 366.341 276.055C366.486 275.601 366.704 275.212 366.994 274.886C367.283 274.55 367.637 274.288 368.054 274.097C368.48 273.907 368.973 273.812 369.535 273.812C370.088 273.812 370.577 273.907 371.003 274.097C371.429 274.288 371.787 274.55 372.077 274.886C372.367 275.212 372.584 275.601 372.729 276.055C372.874 276.499 372.947 276.979 372.947 277.495C372.947 278.012 372.874 278.492 372.729 278.936C372.584 279.38 372.367 279.77 372.077 280.105C371.787 280.431 371.429 280.689 371.003 280.88C370.577 281.061 370.088 281.151 369.535 281.151ZM369.535 280.146C369.834 280.146 370.115 280.087 370.378 279.969C370.65 279.851 370.885 279.684 371.085 279.466C371.284 279.24 371.438 278.963 371.547 278.637C371.665 278.302 371.723 277.921 371.723 277.495C371.723 277.069 371.665 276.693 371.547 276.367C371.438 276.032 371.284 275.751 371.085 275.524C370.885 275.298 370.65 275.126 370.378 275.008C370.115 274.89 369.834 274.831 369.535 274.831C369.236 274.831 368.951 274.89 368.679 275.008C368.416 275.126 368.185 275.298 367.986 275.524C367.786 275.751 367.628 276.032 367.51 276.367C367.401 276.693 367.347 277.069 367.347 277.495C367.347 277.921 367.401 278.302 367.51 278.637C367.628 278.963 367.786 279.24 367.986 279.466C368.185 279.684 368.416 279.851 368.679 279.969C368.951 280.087 369.236 280.146 369.535 280.146ZM373.072 279.983H373.901C374.001 279.792 374.1 279.534 374.2 279.208C374.309 278.873 374.404 278.506 374.486 278.107C374.576 277.699 374.649 277.269 374.703 276.816C374.757 276.363 374.785 275.919 374.785 275.484V273.975H379.868V279.983H380.819V283.136H379.718V281.002H374.173V283.136H373.072V279.983ZM378.713 279.983V274.994H375.913V275.592C375.913 276.036 375.886 276.48 375.831 276.924C375.786 277.359 375.722 277.772 375.641 278.161C375.559 278.551 375.469 278.904 375.369 279.221C375.278 279.539 375.188 279.792 375.097 279.983H378.713ZM383.441 281.151C383.124 281.151 382.825 281.115 382.544 281.043C382.263 280.979 382.014 280.871 381.796 280.717C381.588 280.553 381.42 280.35 381.293 280.105C381.175 279.851 381.117 279.548 381.117 279.194C381.117 278.796 381.184 278.469 381.32 278.216C381.456 277.962 381.633 277.758 381.85 277.604C382.077 277.441 382.331 277.319 382.612 277.237C382.902 277.155 383.196 277.088 383.495 277.033C383.812 276.97 384.111 276.924 384.392 276.897C384.682 276.861 384.936 276.816 385.153 276.761C385.371 276.698 385.543 276.612 385.67 276.503C385.797 276.385 385.86 276.218 385.86 276C385.86 275.746 385.81 275.543 385.711 275.389C385.62 275.235 385.498 275.117 385.344 275.035C385.199 274.954 385.031 274.899 384.841 274.872C384.659 274.845 384.478 274.831 384.297 274.831C383.808 274.831 383.4 274.926 383.074 275.117C382.748 275.298 382.571 275.647 382.544 276.163H381.388C381.406 275.728 381.497 275.361 381.66 275.062C381.823 274.763 382.041 274.523 382.313 274.342C382.584 274.152 382.893 274.016 383.237 273.934C383.59 273.853 383.966 273.812 384.365 273.812C384.682 273.812 384.995 273.835 385.303 273.88C385.62 273.925 385.905 274.02 386.159 274.165C386.413 274.301 386.617 274.496 386.771 274.75C386.925 275.003 387.002 275.334 387.002 275.742V279.357C387.002 279.629 387.015 279.829 387.043 279.955C387.079 280.082 387.188 280.146 387.369 280.146C387.45 280.146 387.568 280.123 387.722 280.078V280.975C387.523 281.093 387.246 281.151 386.893 281.151C386.594 281.151 386.354 281.07 386.173 280.907C386.001 280.735 385.914 280.458 385.914 280.078C385.597 280.458 385.226 280.735 384.8 280.907C384.383 281.07 383.93 281.151 383.441 281.151ZM383.699 280.146C384.08 280.146 384.406 280.096 384.678 279.996C384.949 279.887 385.171 279.756 385.344 279.602C385.516 279.439 385.643 279.267 385.724 279.086C385.806 278.895 385.846 278.719 385.846 278.555V277.373C385.701 277.491 385.511 277.572 385.276 277.618C385.04 277.663 384.791 277.704 384.528 277.74C384.274 277.776 384.016 277.812 383.753 277.849C383.491 277.885 383.255 277.948 383.047 278.039C382.838 278.13 382.666 278.261 382.53 278.433C382.403 278.596 382.34 278.823 382.34 279.113C382.34 279.303 382.376 279.466 382.449 279.602C382.53 279.729 382.63 279.833 382.748 279.915C382.874 279.996 383.019 280.055 383.182 280.091C383.346 280.128 383.518 280.146 383.699 280.146Z" fill="#104A99"/>
<path d="M522.906 277.726V273.01H522.879L519.672 277.726H522.906ZM523.994 277.726H525.299V278.746H523.994V281.002H522.906V278.746H518.679V277.631L523.07 271.365H523.994V277.726ZM529.716 273.975H534.527V274.994H530.871V281.002H529.716V273.975ZM538.072 281.151C537.511 281.151 537.017 281.061 536.591 280.88C536.174 280.689 535.821 280.431 535.531 280.105C535.241 279.77 535.023 279.38 534.878 278.936C534.733 278.492 534.661 278.012 534.661 277.495C534.661 276.979 534.733 276.499 534.878 276.055C535.023 275.601 535.241 275.212 535.531 274.886C535.821 274.55 536.174 274.288 536.591 274.097C537.017 273.907 537.511 273.812 538.072 273.812C538.625 273.812 539.114 273.907 539.54 274.097C539.966 274.288 540.324 274.55 540.614 274.886C540.904 275.212 541.121 275.601 541.266 276.055C541.411 276.499 541.484 276.979 541.484 277.495C541.484 278.012 541.411 278.492 541.266 278.936C541.121 279.38 540.904 279.77 540.614 280.105C540.324 280.431 539.966 280.689 539.54 280.88C539.114 281.061 538.625 281.151 538.072 281.151ZM538.072 280.146C538.371 280.146 538.652 280.087 538.915 279.969C539.187 279.851 539.422 279.684 539.622 279.466C539.821 279.24 539.975 278.963 540.084 278.637C540.202 278.302 540.261 277.921 540.261 277.495C540.261 277.069 540.202 276.693 540.084 276.367C539.975 276.032 539.821 275.751 539.622 275.524C539.422 275.298 539.187 275.126 538.915 275.008C538.652 274.89 538.371 274.831 538.072 274.831C537.773 274.831 537.488 274.89 537.216 275.008C536.953 275.126 536.722 275.298 536.523 275.524C536.323 275.751 536.165 276.032 536.047 276.367C535.938 276.693 535.884 277.069 535.884 277.495C535.884 277.921 535.938 278.302 536.047 278.637C536.165 278.963 536.323 279.24 536.523 279.466C536.722 279.684 536.953 279.851 537.216 279.969C537.488 280.087 537.773 280.146 538.072 280.146ZM541.609 279.983H542.438C542.538 279.792 542.638 279.534 542.737 279.208C542.846 278.873 542.941 278.506 543.023 278.107C543.113 277.699 543.186 277.269 543.24 276.816C543.295 276.363 543.322 275.919 543.322 275.484V273.975H548.405V279.983H549.356V283.136H548.255V281.002H542.71V283.136H541.609V279.983ZM547.25 279.983V274.994H544.45V275.592C544.45 276.036 544.423 276.48 544.368 276.924C544.323 277.359 544.26 277.772 544.178 278.161C544.096 278.551 544.006 278.904 543.906 279.221C543.816 279.539 543.725 279.792 543.634 279.983H547.25ZM551.978 281.151C551.661 281.151 551.362 281.115 551.081 281.043C550.8 280.979 550.551 280.871 550.333 280.717C550.125 280.553 549.957 280.35 549.83 280.105C549.713 279.851 549.654 279.548 549.654 279.194C549.654 278.796 549.722 278.469 549.858 278.216C549.993 277.962 550.17 277.758 550.388 277.604C550.614 277.441 550.868 277.319 551.149 277.237C551.439 277.155 551.733 277.088 552.032 277.033C552.349 276.97 552.648 276.924 552.929 276.897C553.219 276.861 553.473 276.816 553.69 276.761C553.908 276.698 554.08 276.612 554.207 276.503C554.334 276.385 554.397 276.218 554.397 276C554.397 275.746 554.347 275.543 554.248 275.389C554.157 275.235 554.035 275.117 553.881 275.035C553.736 274.954 553.568 274.899 553.378 274.872C553.197 274.845 553.015 274.831 552.834 274.831C552.345 274.831 551.937 274.926 551.611 275.117C551.285 275.298 551.108 275.647 551.081 276.163H549.925C549.944 275.728 550.034 275.361 550.197 275.062C550.36 274.763 550.578 274.523 550.85 274.342C551.122 274.152 551.43 274.016 551.774 273.934C552.127 273.853 552.503 273.812 552.902 273.812C553.219 273.812 553.532 273.835 553.84 273.88C554.157 273.925 554.442 274.02 554.696 274.165C554.95 274.301 555.154 274.496 555.308 274.75C555.462 275.003 555.539 275.334 555.539 275.742V279.357C555.539 279.629 555.552 279.829 555.58 279.955C555.616 280.082 555.725 280.146 555.906 280.146C555.987 280.146 556.105 280.123 556.259 280.078V280.975C556.06 281.093 555.784 281.151 555.43 281.151C555.131 281.151 554.891 281.07 554.71 280.907C554.538 280.735 554.452 280.458 554.452 280.078C554.134 280.458 553.763 280.735 553.337 280.907C552.92 281.07 552.467 281.151 551.978 281.151ZM552.236 280.146C552.617 280.146 552.943 280.096 553.215 279.996C553.487 279.887 553.709 279.756 553.881 279.602C554.053 279.439 554.18 279.267 554.261 279.086C554.343 278.895 554.384 278.719 554.384 278.555V277.373C554.239 277.491 554.048 277.572 553.813 277.618C553.577 277.663 553.328 277.704 553.065 277.74C552.811 277.776 552.553 277.812 552.29 277.849C552.028 277.885 551.792 277.948 551.584 278.039C551.375 278.13 551.203 278.261 551.067 278.433C550.94 278.596 550.877 278.823 550.877 279.113C550.877 279.303 550.913 279.466 550.986 279.602C551.067 279.729 551.167 279.833 551.285 279.915C551.412 279.996 551.556 280.055 551.72 280.091C551.883 280.128 552.055 280.146 552.236 280.146Z" fill="#104A99"/>
<path d="M693.226 272.548H689.339L688.822 275.321L688.849 275.348C689.058 275.112 689.325 274.94 689.651 274.831C689.987 274.713 690.317 274.655 690.644 274.655C691.069 274.655 691.473 274.723 691.853 274.858C692.234 274.994 692.565 275.203 692.845 275.484C693.126 275.756 693.348 276.1 693.511 276.517C693.675 276.924 693.756 277.405 693.756 277.957C693.756 278.365 693.684 278.764 693.539 279.153C693.403 279.534 693.194 279.874 692.913 280.173C692.633 280.472 692.279 280.712 691.853 280.893C691.436 281.065 690.947 281.151 690.385 281.151C689.969 281.151 689.574 281.093 689.203 280.975C688.84 280.848 688.519 280.671 688.238 280.445C687.957 280.209 687.735 279.919 687.572 279.575C687.409 279.23 687.323 278.841 687.314 278.406H688.469C688.487 278.651 688.546 278.882 688.646 279.099C688.754 279.308 688.895 279.493 689.067 279.656C689.248 279.81 689.457 279.933 689.692 280.023C689.937 280.105 690.204 280.146 690.494 280.146C690.766 280.146 691.024 280.1 691.269 280.01C691.523 279.91 691.74 279.765 691.921 279.575C692.111 279.385 692.261 279.149 692.37 278.868C692.478 278.578 692.533 278.243 692.533 277.862C692.533 277.545 692.478 277.255 692.37 276.992C692.27 276.721 692.125 276.489 691.935 276.299C691.745 276.1 691.513 275.946 691.242 275.837C690.979 275.728 690.684 275.674 690.358 275.674C689.978 275.674 689.638 275.76 689.339 275.932C689.049 276.095 688.791 276.313 688.564 276.585L687.572 276.53L688.469 271.528H693.226V272.548ZM698.173 281.084C698.055 281.084 697.933 281.07 697.806 281.043C697.679 281.025 697.575 281.006 697.494 280.988V279.969C697.584 279.996 697.666 280.014 697.738 280.023C697.82 280.032 697.897 280.037 697.969 280.037C698.268 280.037 698.495 279.919 698.649 279.684C698.812 279.448 698.93 279.086 699.002 278.596C699.084 278.107 699.134 277.482 699.152 276.721C699.17 275.95 699.188 275.035 699.206 273.975H704.14V281.002H702.985V274.994H700.321C700.294 275.819 700.262 276.603 700.226 277.346C700.198 278.08 700.121 278.723 699.995 279.276C699.868 279.829 699.664 280.268 699.383 280.594C699.102 280.92 698.699 281.084 698.173 281.084ZM708.469 281.151C707.907 281.151 707.413 281.061 706.987 280.88C706.57 280.698 706.221 280.445 705.941 280.118C705.66 279.792 705.447 279.403 705.302 278.95C705.166 278.497 705.098 278.003 705.098 277.468C705.098 276.943 705.179 276.458 705.343 276.014C705.506 275.561 705.732 275.171 706.022 274.845C706.321 274.519 706.67 274.265 707.069 274.084C707.476 273.903 707.92 273.812 708.401 273.812C709.026 273.812 709.542 273.943 709.95 274.206C710.367 274.46 710.698 274.786 710.942 275.185C711.196 275.583 711.368 276.018 711.459 276.489C711.559 276.961 711.599 277.409 711.581 277.835H706.321C706.312 278.143 706.348 278.438 706.43 278.719C706.511 278.99 706.643 279.235 706.824 279.452C707.005 279.661 707.236 279.829 707.517 279.955C707.798 280.082 708.129 280.146 708.509 280.146C708.999 280.146 709.397 280.032 709.706 279.806C710.023 279.579 710.231 279.235 710.331 278.773H711.472C711.318 279.57 710.979 280.168 710.453 280.567C709.928 280.957 709.266 281.151 708.469 281.151ZM710.358 276.816C710.34 276.544 710.276 276.286 710.168 276.041C710.068 275.796 709.928 275.588 709.746 275.416C709.574 275.235 709.366 275.094 709.121 274.994C708.885 274.886 708.623 274.831 708.333 274.831C708.034 274.831 707.762 274.886 707.517 274.994C707.282 275.094 707.078 275.235 706.906 275.416C706.733 275.597 706.598 275.81 706.498 276.055C706.398 276.29 706.339 276.544 706.321 276.816H710.358ZM714.07 274.994H711.555V273.975H717.74V274.994H715.225V281.002H714.07V274.994Z" fill="#104A99"/>
<path d="M36.2441 26.8418L710.396 179.749" stroke="#ADBFFD" stroke-width="1.81224"/>
<path d="M38.5098 245.671L706.998 23.4453" stroke="#ADBFFD" stroke-width="1.81224"/>
<path d="M690.661 42.4351H693.08V51.4003H698.44V53.4336H690.661V42.4351ZM700.35 44.4685H697.054V42.4351H706.065V44.4685H702.769V53.4336H700.35V44.4685ZM711.985 53.4336H709.259L705.7 42.4351H708.18L710.63 50.1679H710.66L713.14 42.4351H715.636L711.985 53.4336Z" fill="#104A99"/>
<path d="M695.05 196.095C695.009 195.818 694.916 195.566 694.773 195.34C694.629 195.104 694.449 194.899 694.234 194.724C694.018 194.549 693.771 194.416 693.494 194.324C693.227 194.221 692.945 194.169 692.647 194.169C692.103 194.169 691.641 194.277 691.261 194.493C690.881 194.698 690.573 194.981 690.336 195.34C690.1 195.689 689.926 196.09 689.813 196.542C689.71 196.994 689.659 197.461 689.659 197.943C689.659 198.406 689.71 198.857 689.813 199.299C689.926 199.73 690.1 200.121 690.336 200.47C690.573 200.819 690.881 201.101 691.261 201.317C691.641 201.522 692.103 201.625 692.647 201.625C693.386 201.625 693.961 201.399 694.372 200.947C694.793 200.495 695.05 199.9 695.142 199.16H697.484C697.422 199.848 697.263 200.47 697.006 201.024C696.75 201.579 696.411 202.051 695.99 202.441C695.569 202.832 695.076 203.129 694.511 203.335C693.946 203.54 693.325 203.643 692.647 203.643C691.805 203.643 691.045 203.499 690.367 203.212C689.7 202.914 689.135 202.508 688.673 201.995C688.211 201.481 687.856 200.88 687.61 200.192C687.363 199.494 687.24 198.744 687.24 197.943C687.24 197.122 687.363 196.362 687.61 195.664C687.856 194.955 688.211 194.339 688.673 193.815C689.135 193.291 689.7 192.881 690.367 192.583C691.045 192.285 691.805 192.136 692.647 192.136C693.253 192.136 693.823 192.223 694.357 192.398C694.901 192.573 695.384 192.829 695.805 193.168C696.236 193.497 696.59 193.908 696.868 194.401C697.145 194.893 697.319 195.458 697.391 196.095H695.05ZM701.446 199.145H704.296L702.909 195.109H702.878L701.446 199.145ZM701.677 192.398H704.157L708.27 203.396H705.759L704.927 200.947H700.814L699.952 203.396H697.518L701.677 192.398ZM716.088 196.095C716.047 195.818 715.955 195.566 715.811 195.34C715.667 195.104 715.488 194.899 715.272 194.724C715.056 194.549 714.81 194.416 714.533 194.324C714.266 194.221 713.983 194.169 713.685 194.169C713.141 194.169 712.679 194.277 712.299 194.493C711.919 194.698 711.611 194.981 711.375 195.34C711.139 195.689 710.964 196.09 710.851 196.542C710.748 196.994 710.697 197.461 710.697 197.943C710.697 198.406 710.748 198.857 710.851 199.299C710.964 199.73 711.139 200.121 711.375 200.47C711.611 200.819 711.919 201.101 712.299 201.317C712.679 201.522 713.141 201.625 713.685 201.625C714.425 201.625 715 201.399 715.411 200.947C715.832 200.495 716.088 199.9 716.181 199.16H718.522C718.461 199.848 718.301 200.47 718.045 201.024C717.788 201.579 717.449 202.051 717.028 202.441C716.607 202.832 716.114 203.129 715.549 203.335C714.984 203.54 714.363 203.643 713.685 203.643C712.843 203.643 712.083 203.499 711.406 203.212C710.738 202.914 710.173 202.508 709.711 201.995C709.249 201.481 708.895 200.88 708.648 200.192C708.402 199.494 708.279 198.744 708.279 197.943C708.279 197.122 708.402 196.362 708.648 195.664C708.895 194.955 709.249 194.339 709.711 193.815C710.173 193.291 710.738 192.881 711.406 192.583C712.083 192.285 712.843 192.136 713.685 192.136C714.291 192.136 714.861 192.223 715.395 192.398C715.94 192.573 716.422 192.829 716.843 193.168C717.275 193.497 717.629 193.908 717.906 194.401C718.183 194.893 718.358 195.458 718.43 196.095H716.088Z" fill="#104A99"/>
<path d="M409.521 65.6758L425.074 103.369" stroke="#ADBFFD" stroke-width="0.855078"/>
<path d="M428.397 111.896L422.43 103.258L426.537 101.563L428.397 111.896Z" fill="#ADBFFD"/>
<path d="M372.502 47.8056C372.819 47.8056 373.121 47.7376 373.408 47.6017C373.695 47.4582 373.956 47.2468 374.19 46.9674C374.431 46.688 374.639 46.3445 374.813 45.9367C374.986 45.5214 375.111 45.0419 375.186 44.4983H373.997C373.31 44.4983 372.898 44.8985 372.763 45.6989H372.445L372.921 42.8899H373.25C373.234 42.9654 373.223 43.0334 373.216 43.0938C373.208 43.1542 373.204 43.2146 373.204 43.275C373.204 43.8111 373.491 44.0792 374.065 44.0792H375.232C375.254 43.83 375.266 43.5657 375.266 43.2863C375.266 42.8484 375.22 42.4633 375.13 42.131C375.047 41.7912 374.926 41.5081 374.767 41.2815C374.616 41.0475 374.435 40.8738 374.224 40.7605C374.02 40.6397 373.797 40.5793 373.555 40.5793C373.253 40.5793 372.989 40.6661 372.763 40.8398C372.544 41.0059 372.351 41.2249 372.185 41.4967C372.019 41.761 371.879 42.0555 371.766 42.3802C371.66 42.7049 371.57 43.0258 371.494 43.343H371.12L371.46 41.157C371.694 40.8398 371.981 40.5944 372.321 40.4207C372.661 40.2471 373.057 40.1602 373.51 40.1602C373.918 40.1602 374.295 40.2282 374.643 40.3641C374.99 40.4925 375.292 40.6926 375.549 40.9644C375.806 41.2287 376.006 41.5647 376.149 41.9725C376.3 42.3802 376.376 42.8597 376.376 43.4109C376.376 44.1585 376.281 44.8569 376.093 45.5063C375.911 46.1557 375.658 46.722 375.334 47.2053C375.009 47.681 374.62 48.0548 374.167 48.3266C373.722 48.5984 373.234 48.7344 372.706 48.7344C372.328 48.7344 372.004 48.674 371.732 48.5531C371.46 48.4323 371.23 48.2775 371.041 48.0887C370.86 47.8924 370.72 47.6772 370.622 47.4431C370.531 47.2091 370.482 46.975 370.475 46.7409L370.554 46.2878C370.622 46.4917 370.712 46.6843 370.826 46.8655C370.939 47.0467 371.075 47.2091 371.233 47.3525C371.4 47.4884 371.585 47.5979 371.788 47.681C372 47.7641 372.238 47.8056 372.502 47.8056ZM377.788 44.2264C377.796 44.1887 377.8 44.1547 377.8 44.1245C377.807 44.0867 377.811 44.0565 377.811 44.0339C377.811 43.898 377.762 43.7998 377.664 43.7394C377.566 43.6714 377.396 43.6374 377.154 43.6374L377.199 43.3543L378.695 42.8446H378.932L378.479 45.5629H378.876C379.027 45.5629 379.148 45.5365 379.238 45.4837C379.329 45.4233 379.423 45.3213 379.521 45.1778L380.314 43.9886C380.443 43.7922 380.556 43.6261 380.654 43.4902C380.752 43.3467 380.843 43.2335 380.926 43.1504C381.009 43.0598 381.092 42.9956 381.175 42.9579C381.258 42.9201 381.352 42.9012 381.458 42.9012C381.617 42.9012 381.738 42.9654 381.821 43.0938C381.911 43.2146 381.949 43.3769 381.934 43.5808L381.843 44.0905C381.79 43.9923 381.719 43.9131 381.628 43.8527C381.537 43.7922 381.428 43.762 381.3 43.762C381.134 43.762 380.998 43.8073 380.892 43.898C380.794 43.9886 380.688 44.1207 380.575 44.2944L379.861 45.3477L380.767 47.4884C380.82 47.6168 380.877 47.715 380.937 47.7829C381.005 47.8509 381.103 47.8849 381.232 47.8849C381.368 47.8849 381.473 47.8396 381.549 47.749C381.632 47.6583 381.715 47.5564 381.798 47.4431L381.707 47.9528C381.624 48.1341 381.519 48.3002 381.39 48.4512C381.262 48.6022 381.077 48.6777 380.835 48.6777C380.594 48.6777 380.397 48.5947 380.246 48.4285C380.103 48.2624 379.971 48.0434 379.85 47.7716L379.057 45.9367H378.411L377.958 48.6211H377.018L377.788 44.2264ZM384.934 42.8446C385.267 42.8446 385.561 42.905 385.818 43.0258C386.075 43.1466 386.286 43.3128 386.452 43.5242C386.626 43.7356 386.754 43.9848 386.837 44.2717C386.928 44.5587 386.973 44.8645 386.973 45.1892C386.973 45.68 386.909 46.1406 386.781 46.571C386.652 47.0014 386.471 47.379 386.237 47.7036C386.003 48.0208 385.723 48.2737 385.399 48.4625C385.074 48.6437 384.715 48.7344 384.323 48.7344C384.013 48.7344 383.73 48.6777 383.473 48.5645C383.224 48.4512 383.013 48.2926 382.839 48.0887C382.665 47.8849 382.529 47.6432 382.431 47.3639C382.341 47.0769 382.295 46.7598 382.295 46.4124C382.295 45.8688 382.359 45.3779 382.488 44.94C382.624 44.502 382.809 44.1283 383.043 43.8187C383.277 43.5091 383.553 43.2712 383.87 43.1051C384.194 42.9314 384.549 42.8446 384.934 42.8446ZM384.311 48.3719C384.621 48.3719 384.881 48.2473 385.093 47.9981C385.304 47.7414 385.474 47.4318 385.603 47.0694C385.731 46.7069 385.822 46.3294 385.874 45.9367C385.935 45.5365 385.965 45.1967 385.965 44.9173C385.965 44.3057 385.874 43.8715 385.693 43.6148C385.512 43.3505 385.267 43.2184 384.957 43.2184C384.746 43.2184 384.557 43.2788 384.391 43.3996C384.232 43.5129 384.089 43.6677 383.96 43.864C383.839 44.0603 383.738 44.2831 383.654 44.5322C383.571 44.7739 383.503 45.0231 383.451 45.2798C383.398 45.5365 383.36 45.7895 383.337 46.0387C383.315 46.2803 383.303 46.4955 383.303 46.6843C383.303 47.2959 383.394 47.7301 383.575 47.9868C383.764 48.2435 384.009 48.3719 384.311 48.3719ZM388.49 44.2264C388.497 44.1887 388.501 44.1547 388.501 44.1245C388.508 44.0867 388.512 44.0565 388.512 44.0339C388.512 43.898 388.463 43.7998 388.365 43.7394C388.267 43.6714 388.097 43.6374 387.855 43.6374L387.901 43.3543L389.396 42.8446H389.634L389.192 45.5063H391.366L391.797 42.9579H392.703L391.967 47.3639C391.959 47.4016 391.952 47.4507 391.944 47.5111C391.944 47.5715 391.944 47.6206 391.944 47.6583C391.944 47.8849 392.042 47.9981 392.239 47.9981C392.39 47.9981 392.522 47.9491 392.635 47.8509C392.748 47.7452 392.888 47.5942 393.054 47.3978L392.952 47.9189C392.801 48.1529 392.643 48.3379 392.476 48.4738C392.318 48.6098 392.106 48.6777 391.842 48.6777C391.517 48.6777 391.299 48.5947 391.185 48.4285C391.072 48.2549 391.015 48.0472 391.015 47.8056C391.015 47.7225 391.019 47.6432 391.027 47.5677C391.034 47.4922 391.046 47.4129 391.061 47.3299L391.299 45.9027H389.124L388.671 48.6211H387.765L388.49 44.2264ZM396.234 42.8446C396.566 42.8446 396.861 42.905 397.117 43.0258C397.374 43.1466 397.585 43.3128 397.752 43.5242C397.925 43.7356 398.054 43.9848 398.137 44.2717C398.227 44.5587 398.273 44.8645 398.273 45.1892C398.273 45.68 398.208 46.1406 398.08 46.571C397.952 47.0014 397.77 47.379 397.536 47.7036C397.302 48.0208 397.023 48.2737 396.698 48.4625C396.374 48.6437 396.015 48.7344 395.622 48.7344C395.313 48.7344 395.029 48.6777 394.773 48.5645C394.524 48.4512 394.312 48.2926 394.138 48.0887C393.965 47.8849 393.829 47.6432 393.731 47.3639C393.64 47.0769 393.595 46.7598 393.595 46.4124C393.595 45.8688 393.659 45.3779 393.787 44.94C393.923 44.502 394.108 44.1283 394.342 43.8187C394.576 43.5091 394.852 43.2712 395.169 43.1051C395.494 42.9314 395.849 42.8446 396.234 42.8446ZM395.611 48.3719C395.92 48.3719 396.181 48.2473 396.392 47.9981C396.604 47.7414 396.774 47.4318 396.902 47.0694C397.03 46.7069 397.121 46.3294 397.174 45.9367C397.234 45.5365 397.265 45.1967 397.265 44.9173C397.265 44.3057 397.174 43.8715 396.993 43.6148C396.811 43.3505 396.566 43.2184 396.256 43.2184C396.045 43.2184 395.856 43.2788 395.69 43.3996C395.532 43.5129 395.388 43.6677 395.26 43.864C395.139 44.0603 395.037 44.2831 394.954 44.5322C394.871 44.7739 394.803 45.0231 394.75 45.2798C394.697 45.5365 394.659 45.7895 394.637 46.0387C394.614 46.2803 394.603 46.4955 394.603 46.6843C394.603 47.2959 394.693 47.7301 394.875 47.9868C395.063 48.2435 395.309 48.3719 395.611 48.3719ZM402.227 47.1373L404.413 42.9579H405.466L404.73 47.3639C404.722 47.4016 404.715 47.4507 404.707 47.5111C404.7 47.5715 404.696 47.6206 404.696 47.6583C404.696 47.8849 404.798 47.9981 405.002 47.9981C405.153 47.9981 405.285 47.9491 405.398 47.8509C405.512 47.7452 405.647 47.5942 405.806 47.3978L405.704 47.9189C405.561 48.1529 405.406 48.3379 405.24 48.4738C405.074 48.6098 404.858 48.6777 404.594 48.6777C404.277 48.6777 404.062 48.5947 403.948 48.4285C403.835 48.2549 403.779 48.0472 403.779 47.8056C403.779 47.7225 403.782 47.6432 403.79 47.5677C403.797 47.4922 403.809 47.4129 403.824 47.3299L404.413 43.8413L401.91 48.6211H401.593L400.709 43.7734L400.483 45.2911C400.43 45.6687 400.373 46.0613 400.313 46.4691C400.252 46.8693 400.169 47.2393 400.064 47.5791C399.958 47.9113 399.822 48.1869 399.656 48.4059C399.49 48.6249 399.278 48.7344 399.021 48.7344C398.825 48.7344 398.678 48.6777 398.58 48.5645C398.489 48.4512 398.425 48.3228 398.387 48.1794L398.478 47.6017C398.561 47.6999 398.644 47.7678 398.727 47.8056C398.818 47.8433 398.916 47.8622 399.021 47.8622C399.308 47.8622 399.527 47.6621 399.678 47.2619C399.829 46.8617 399.958 46.2727 400.064 45.495L400.256 44.0565C400.264 44.0188 400.267 43.9735 400.267 43.9206C400.275 43.8678 400.279 43.8262 400.279 43.796C400.279 43.645 400.23 43.5204 400.131 43.4222C400.033 43.3241 399.86 43.275 399.61 43.275L399.667 42.9579H401.491L402.227 47.1373ZM407.158 44.2264C407.166 44.1887 407.17 44.1547 407.17 44.1245C407.177 44.0867 407.181 44.0565 407.181 44.0339C407.181 43.898 407.132 43.7998 407.034 43.7394C406.936 43.6714 406.766 43.6374 406.524 43.6374L406.57 43.3543L408.053 42.8446H408.291L407.657 46.6956C407.642 46.7636 407.63 46.8391 407.623 46.9221C407.623 47.0052 407.623 47.0731 407.623 47.126C407.623 47.2468 407.634 47.3639 407.657 47.4771C407.679 47.5904 407.721 47.6923 407.781 47.7829C407.849 47.8735 407.936 47.9453 408.042 47.9981C408.148 48.051 408.284 48.0774 408.45 48.0774C408.608 48.0774 408.767 48.0321 408.925 47.9415C409.084 47.8433 409.227 47.7225 409.356 47.5791C409.484 47.428 409.594 47.2581 409.684 47.0694C409.782 46.8806 409.85 46.688 409.888 46.4917L410.488 42.9579H411.395L410.67 47.3639C410.662 47.4016 410.655 47.4507 410.647 47.5111C410.639 47.5715 410.636 47.6206 410.636 47.6583C410.636 47.8849 410.734 47.9981 410.93 47.9981C411.081 47.9981 411.213 47.9491 411.327 47.8509C411.44 47.7452 411.58 47.5942 411.746 47.3978L411.644 47.9189C411.493 48.1529 411.334 48.3379 411.168 48.4738C411.009 48.6098 410.798 48.6777 410.534 48.6777C410.209 48.6777 409.99 48.5947 409.877 48.4285C409.764 48.2549 409.707 48.0472 409.707 47.8056C409.707 47.7603 409.707 47.7188 409.707 47.681C409.707 47.6432 409.711 47.6017 409.718 47.5564C409.65 47.6848 409.563 47.8207 409.458 47.9642C409.352 48.1001 409.224 48.2247 409.073 48.3379C408.929 48.4512 408.767 48.5456 408.586 48.6211C408.404 48.6966 408.208 48.7344 407.997 48.7344C407.755 48.7344 407.547 48.6966 407.374 48.6211C407.208 48.5456 407.072 48.4474 406.966 48.3266C406.868 48.1982 406.796 48.051 406.751 47.8849C406.705 47.7112 406.683 47.53 406.683 47.3412C406.683 47.2657 406.687 47.1751 406.694 47.0694C406.702 46.9637 406.713 46.873 406.728 46.7975L407.158 44.2264ZM412.728 44.2264C412.735 44.1887 412.739 44.1547 412.739 44.1245C412.747 44.0867 412.75 44.0565 412.75 44.0339C412.75 43.898 412.701 43.7998 412.603 43.7394C412.505 43.6714 412.335 43.6374 412.094 43.6374L412.139 43.3543L413.645 42.8446H413.872L413.577 44.6908C413.562 44.7663 413.551 44.8494 413.543 44.94C413.543 45.0306 413.543 45.0986 413.543 45.1439C413.543 45.3704 413.6 45.5592 413.713 45.7102C413.826 45.8537 414.038 45.9254 414.348 45.9254C414.544 45.9254 414.725 45.9027 414.891 45.8574C415.057 45.8046 415.242 45.7253 415.446 45.6196L415.899 42.9579H416.817L416.08 47.3639C416.073 47.4016 416.065 47.4507 416.058 47.5111C416.05 47.5715 416.046 47.6206 416.046 47.6583C416.046 47.8849 416.148 47.9981 416.352 47.9981C416.503 47.9981 416.635 47.9491 416.749 47.8509C416.862 47.7452 416.998 47.5942 417.156 47.3978L417.055 47.9189C416.911 48.1529 416.756 48.3379 416.59 48.4738C416.424 48.6098 416.209 48.6777 415.945 48.6777C415.627 48.6777 415.412 48.5947 415.299 48.4285C415.186 48.2549 415.129 48.0472 415.129 47.8056C415.129 47.7829 415.14 47.681 415.163 47.4998C415.193 47.3185 415.223 47.1222 415.254 46.9108C415.284 46.6918 415.31 46.4955 415.333 46.3218C415.363 46.1406 415.378 46.0387 415.378 46.016C415.182 46.1368 414.978 46.2388 414.767 46.3218C414.555 46.3973 414.283 46.4351 413.951 46.4351C413.566 46.4351 413.245 46.3294 412.988 46.1179C412.732 45.9065 412.603 45.5818 412.603 45.1439C412.603 45.0684 412.607 44.9853 412.615 44.8947C412.622 44.7965 412.633 44.7135 412.649 44.6455L412.728 44.2264ZM421.515 47.4771C421.364 47.8622 421.137 48.168 420.835 48.3946C420.541 48.6211 420.179 48.7344 419.748 48.7344C419.439 48.7344 419.155 48.6777 418.899 48.5645C418.649 48.4512 418.434 48.2926 418.253 48.0887C418.079 47.8849 417.943 47.6432 417.845 47.3639C417.747 47.0769 417.698 46.7636 417.698 46.4238C417.698 46.0009 417.755 45.578 417.868 45.1552C417.981 44.7248 418.155 44.3397 418.389 43.9999C418.623 43.6601 418.918 43.3845 419.272 43.1731C419.627 42.9541 420.046 42.8446 420.53 42.8446C420.96 42.8446 421.296 42.9465 421.538 43.1504C421.787 43.3543 421.911 43.6337 421.911 43.9886C421.911 44.3812 421.798 44.7097 421.572 44.974C421.345 45.2307 421.07 45.4421 420.745 45.6083C420.42 45.7668 420.077 45.8876 419.714 45.9707C419.352 46.0538 419.031 46.1104 418.751 46.1406C418.744 46.1935 418.74 46.2463 418.74 46.2992C418.74 46.3445 418.74 46.3898 418.74 46.4351C418.74 46.9183 418.85 47.2997 419.069 47.5791C419.295 47.8509 419.62 47.9868 420.043 47.9868C420.337 47.9868 420.609 47.9075 420.858 47.749C421.115 47.5828 421.36 47.3337 421.594 47.0014L421.515 47.4771ZM420.382 43.207C420.133 43.207 419.91 43.2977 419.714 43.4789C419.525 43.6601 419.363 43.8829 419.227 44.1471C419.091 44.4039 418.985 44.6795 418.91 44.974C418.834 45.2609 418.785 45.5176 418.763 45.7442C418.989 45.7215 419.227 45.6687 419.476 45.5856C419.733 45.495 419.967 45.3779 420.179 45.2345C420.397 45.0835 420.575 44.8985 420.711 44.6795C420.854 44.453 420.926 44.1924 420.926 43.898C420.926 43.7016 420.877 43.5393 420.779 43.4109C420.688 43.275 420.556 43.207 420.382 43.207ZM426.059 45.2345C426.067 45.159 426.07 45.0797 426.07 44.9966C426.078 44.906 426.082 44.8154 426.082 44.7248C426.082 44.5436 426.067 44.3661 426.037 44.1924C426.014 44.0112 425.969 43.8489 425.901 43.7054C425.833 43.5544 425.742 43.4336 425.629 43.343C425.516 43.2523 425.372 43.207 425.198 43.207C425.032 43.207 424.851 43.2674 424.655 43.3883C424.466 43.5015 424.288 43.6828 424.122 43.9319C423.964 44.1736 423.832 44.4869 423.726 44.872C423.62 45.2571 423.567 45.714 423.567 46.2425C423.567 46.7485 423.666 47.16 423.862 47.4771C424.058 47.7867 424.372 47.9415 424.802 47.9415C425.119 47.9415 425.38 47.8622 425.583 47.7036C425.795 47.5451 426.014 47.3072 426.24 46.9901L426.172 47.4545C426.044 47.8169 425.84 48.1227 425.561 48.3719C425.289 48.6135 424.938 48.7344 424.507 48.7344C424.16 48.7344 423.858 48.674 423.601 48.5531C423.352 48.4323 423.144 48.27 422.978 48.0661C422.812 47.8547 422.688 47.6093 422.605 47.3299C422.529 47.0429 422.491 46.7333 422.491 46.4011C422.491 45.8348 422.571 45.3326 422.729 44.8947C422.888 44.4492 423.092 44.0754 423.341 43.7734C423.59 43.4713 423.869 43.241 424.179 43.0825C424.489 42.9239 424.798 42.8446 425.108 42.8446C425.342 42.8446 425.542 42.871 425.708 42.9239C425.882 42.9692 426.029 43.0334 426.15 43.1164C426.278 43.1995 426.384 43.2939 426.467 43.3996C426.558 43.5053 426.633 43.611 426.693 43.7167L426.444 45.2345H426.059ZM428.077 44.2264C428.085 44.1887 428.089 44.1547 428.089 44.1245C428.096 44.0867 428.1 44.0565 428.1 44.0339C428.1 43.898 428.051 43.7998 427.953 43.7394C427.855 43.6714 427.685 43.6374 427.443 43.6374L427.489 43.3543L428.984 42.8446H429.221L428.768 45.5629H429.165C429.316 45.5629 429.437 45.5365 429.527 45.4837C429.618 45.4233 429.712 45.3213 429.81 45.1778L430.603 43.9886C430.732 43.7922 430.845 43.6261 430.943 43.4902C431.041 43.3467 431.132 43.2335 431.215 43.1504C431.298 43.0598 431.381 42.9956 431.464 42.9579C431.547 42.9201 431.642 42.9012 431.747 42.9012C431.906 42.9012 432.027 42.9654 432.11 43.0938C432.2 43.2146 432.238 43.3769 432.223 43.5808L432.132 44.0905C432.08 43.9923 432.008 43.9131 431.917 43.8527C431.827 43.7922 431.717 43.762 431.589 43.762C431.423 43.762 431.287 43.8073 431.181 43.898C431.083 43.9886 430.977 44.1207 430.864 44.2944L430.15 45.3477L431.056 47.4884C431.109 47.6168 431.166 47.715 431.226 47.7829C431.294 47.8509 431.392 47.8849 431.521 47.8849C431.657 47.8849 431.762 47.8396 431.838 47.749C431.921 47.6583 432.004 47.5564 432.087 47.4431L431.996 47.9528C431.913 48.1341 431.808 48.3002 431.679 48.4512C431.551 48.6022 431.366 48.6777 431.124 48.6777C430.883 48.6777 430.686 48.5947 430.535 48.4285C430.392 48.2624 430.26 48.0434 430.139 47.7716L429.346 45.9367H428.7L428.247 48.6211H427.307L428.077 44.2264ZM436.322 48.6211L435.937 47.6357C435.869 47.7716 435.782 47.9075 435.676 48.0434C435.571 48.1718 435.45 48.2889 435.314 48.3946C435.186 48.4927 435.038 48.572 434.872 48.6324C434.714 48.7004 434.544 48.7344 434.363 48.7344C433.751 48.7344 433.302 48.538 433.015 48.1454C432.728 47.7527 432.584 47.2166 432.584 46.537C432.584 46.084 432.645 45.6385 432.766 45.2005C432.894 44.755 433.071 44.3586 433.298 44.0112C433.524 43.6639 433.793 43.3845 434.102 43.1731C434.412 42.9541 434.755 42.8446 435.133 42.8446C435.337 42.8446 435.514 42.8748 435.665 42.9352C435.824 42.9956 435.956 43.0749 436.062 43.1731C436.167 43.2637 436.25 43.3694 436.311 43.4902C436.371 43.611 436.416 43.7281 436.447 43.8413L437.274 42.9579H437.523L436.571 48.6211H436.322ZM435.291 43.4109C435.057 43.4109 434.838 43.5015 434.634 43.6828C434.431 43.864 434.253 44.1094 434.102 44.419C433.959 44.7286 433.845 45.0872 433.762 45.495C433.679 45.8952 433.638 46.318 433.638 46.7636C433.638 47.2015 433.721 47.5489 433.887 47.8056C434.061 48.0623 434.314 48.1907 434.646 48.1907C434.812 48.1907 434.967 48.1454 435.11 48.0548C435.261 47.9566 435.397 47.832 435.518 47.681C435.639 47.5224 435.737 47.345 435.812 47.1487C435.895 46.9523 435.956 46.7485 435.994 46.537L436.231 45.1325C436.247 45.057 436.254 44.974 436.254 44.8834C436.262 44.7852 436.265 44.7021 436.265 44.6342C436.265 44.2491 436.182 43.9508 436.016 43.7394C435.85 43.5204 435.609 43.4109 435.291 43.4109ZM439.6 47.7716C439.426 48.0585 439.253 48.2813 439.079 48.4399C438.913 48.5984 438.709 48.6777 438.467 48.6777C438.249 48.6777 438.079 48.6022 437.958 48.4512C437.845 48.3002 437.761 48.1341 437.709 47.9528L437.788 47.4998C437.833 47.6055 437.89 47.6961 437.958 47.7716C438.033 47.8471 438.124 47.8849 438.23 47.8849C438.35 47.8849 438.449 47.8509 438.524 47.7829C438.607 47.715 438.69 47.6168 438.773 47.4884L439.668 46.0387C439.404 45.9556 439.185 45.8084 439.011 45.5969C438.837 45.3779 438.751 45.0948 438.751 44.7474C438.751 44.4076 438.822 44.1245 438.966 43.898C439.117 43.6639 439.309 43.4789 439.544 43.343C439.778 43.207 440.038 43.1089 440.325 43.0485C440.62 42.9881 440.906 42.9579 441.186 42.9579H442.772L442.047 47.3639C442.039 47.4016 442.032 47.4507 442.024 47.5111C442.016 47.5715 442.013 47.6206 442.013 47.6583C442.013 47.8849 442.111 47.9981 442.307 47.9981C442.458 47.9981 442.59 47.9491 442.704 47.8509C442.817 47.7452 442.957 47.5942 443.123 47.3978L443.021 47.9189C442.87 48.1529 442.711 48.3379 442.545 48.4738C442.386 48.6098 442.175 48.6777 441.911 48.6777C441.586 48.6777 441.367 48.5947 441.254 48.4285C441.141 48.2549 441.084 48.0472 441.084 47.8056C441.084 47.6319 441.099 47.4733 441.129 47.3299L441.31 46.2425H440.518L439.6 47.7716ZM441.797 43.3316H441.367C441.171 43.3316 440.978 43.3581 440.789 43.4109C440.601 43.4562 440.431 43.5355 440.28 43.6488C440.136 43.7545 440.019 43.898 439.929 44.0792C439.838 44.2604 439.793 44.4794 439.793 44.7361C439.793 45.1363 439.91 45.427 440.144 45.6083C440.385 45.7819 440.695 45.8688 441.073 45.8688H441.378L441.469 45.3477L441.797 43.3316ZM374.877 56.2345C374.885 56.159 374.889 56.0797 374.889 55.9966C374.896 55.906 374.9 55.8154 374.9 55.7248C374.9 55.5436 374.885 55.3661 374.855 55.1924C374.832 55.0112 374.787 54.8489 374.719 54.7054C374.651 54.5544 374.56 54.4336 374.447 54.343C374.334 54.2523 374.19 54.207 374.016 54.207C373.85 54.207 373.669 54.2674 373.473 54.3883C373.284 54.5015 373.107 54.6828 372.94 54.9319C372.782 55.1736 372.65 55.4869 372.544 55.872C372.438 56.2571 372.385 56.714 372.385 57.2425C372.385 57.7485 372.484 58.16 372.68 58.4771C372.876 58.7867 373.19 58.9415 373.62 58.9415C373.937 58.9415 374.198 58.8622 374.402 58.7036C374.613 58.5451 374.832 58.3072 375.058 57.9901L374.991 58.4545C374.862 58.8169 374.658 59.1227 374.379 59.3719C374.107 59.6135 373.756 59.7344 373.326 59.7344C372.978 59.7344 372.676 59.674 372.419 59.5531C372.17 59.4323 371.963 59.27 371.796 59.0661C371.63 58.8547 371.506 58.6093 371.423 58.3299C371.347 58.0429 371.309 57.7333 371.309 57.4011C371.309 56.8348 371.389 56.3326 371.547 55.8947C371.706 55.4492 371.91 55.0754 372.159 54.7734C372.408 54.4713 372.687 54.241 372.997 54.0825C373.307 53.9239 373.616 53.8446 373.926 53.8446C374.16 53.8446 374.36 53.871 374.526 53.9239C374.7 53.9692 374.847 54.0334 374.968 54.1164C375.096 54.1995 375.202 54.2939 375.285 54.3996C375.376 54.5053 375.451 54.611 375.512 54.7167L375.262 56.2345H374.877ZM382.74 55.8041C382.763 55.6682 382.774 55.5247 382.774 55.3737C382.774 55.1471 382.717 54.947 382.604 54.7734C382.491 54.5921 382.291 54.5015 382.004 54.5015C381.83 54.5015 381.664 54.5506 381.505 54.6488C381.347 54.7394 381.203 54.8602 381.075 55.0112C380.947 55.1547 380.837 55.3208 380.747 55.5096C380.664 55.6908 380.607 55.872 380.577 56.0533L379.976 59.6211H379.07L379.716 55.7814C379.723 55.7135 379.727 55.6455 379.727 55.5775C379.735 55.502 379.739 55.4341 379.739 55.3737C379.739 55.2604 379.727 55.1509 379.705 55.0452C379.682 54.9395 379.64 54.8489 379.58 54.7734C379.527 54.6903 379.452 54.6261 379.353 54.5808C379.255 54.528 379.127 54.5015 378.968 54.5015C378.802 54.5015 378.64 54.5506 378.481 54.6488C378.33 54.7394 378.191 54.8602 378.062 55.0112C377.934 55.1622 377.824 55.3321 377.734 55.5209C377.651 55.7021 377.594 55.8834 377.564 56.0646L376.964 59.6211H376.057L376.998 53.9579H377.247L377.745 54.9999C377.813 54.8715 377.896 54.7394 377.994 54.6035C378.1 54.4676 378.225 54.343 378.368 54.2297C378.511 54.1164 378.67 54.0258 378.844 53.9579C379.025 53.8823 379.217 53.8446 379.421 53.8446C379.655 53.8446 379.848 53.8786 379.999 53.9465C380.158 54.0069 380.286 54.0938 380.384 54.207C380.482 54.3203 380.554 54.4524 380.599 54.6035C380.645 54.7545 380.675 54.9168 380.69 55.0905C380.758 54.9395 380.849 54.7922 380.962 54.6488C381.075 54.4978 381.203 54.3618 381.347 54.241C381.498 54.1202 381.664 54.0258 381.845 53.9579C382.026 53.8823 382.219 53.8446 382.423 53.8446C382.665 53.8446 382.865 53.8823 383.023 53.9579C383.189 54.0258 383.321 54.124 383.42 54.2523C383.525 54.3732 383.597 54.5166 383.635 54.6828C383.68 54.8489 383.703 55.0225 383.703 55.2038C383.703 55.3623 383.691 55.5209 383.669 55.6795L383.227 58.3639C383.22 58.4016 383.212 58.4507 383.204 58.5111C383.197 58.5715 383.193 58.6206 383.193 58.6583C383.193 58.7716 383.22 58.8584 383.272 58.9189C383.333 58.9717 383.408 58.9981 383.499 58.9981C383.65 58.9981 383.782 58.9491 383.895 58.8509C384.009 58.7452 384.145 58.5942 384.303 58.3978L384.212 58.9189C384.061 59.1529 383.903 59.3379 383.737 59.4738C383.571 59.6098 383.355 59.6777 383.091 59.6777C382.774 59.6777 382.559 59.5947 382.446 59.4285C382.332 59.2549 382.276 59.0472 382.276 58.8056C382.276 58.7225 382.279 58.6432 382.287 58.5677C382.295 58.4922 382.306 58.4129 382.321 58.3299L382.74 55.8041ZM388.514 59.6211L388.129 58.6357C388.061 58.7716 387.974 58.9075 387.868 59.0434C387.762 59.1718 387.642 59.2889 387.506 59.3946C387.377 59.4927 387.23 59.572 387.064 59.6324C386.905 59.7004 386.736 59.7344 386.554 59.7344C385.943 59.7344 385.493 59.538 385.206 59.1454C384.92 58.7527 384.776 58.2166 384.776 57.537C384.776 57.084 384.836 56.6385 384.957 56.2005C385.086 55.755 385.263 55.3586 385.49 55.0112C385.716 54.6639 385.984 54.3845 386.294 54.1731C386.603 53.9541 386.947 53.8446 387.325 53.8446C387.528 53.8446 387.706 53.8748 387.857 53.9352C388.015 53.9956 388.148 54.0749 388.253 54.1731C388.359 54.2637 388.442 54.3694 388.502 54.4902C388.563 54.611 388.608 54.7281 388.638 54.8413L389.465 53.9579H389.714L388.763 59.6211H388.514ZM387.483 54.4109C387.249 54.4109 387.03 54.5015 386.826 54.6828C386.622 54.864 386.445 55.1094 386.294 55.419C386.15 55.7286 386.037 56.0872 385.954 56.495C385.871 56.8952 385.829 57.318 385.829 57.7636C385.829 58.2015 385.912 58.5489 386.079 58.8056C386.252 59.0623 386.505 59.1907 386.837 59.1907C387.004 59.1907 387.158 59.1454 387.302 59.0548C387.453 58.9566 387.589 58.832 387.71 58.681C387.83 58.5224 387.929 58.345 388.004 58.1487C388.087 57.9523 388.148 57.7485 388.185 57.537L388.423 56.1325C388.438 56.057 388.446 55.974 388.446 55.8834C388.453 55.7852 388.457 55.7021 388.457 55.6342C388.457 55.2491 388.374 54.9508 388.208 54.7394C388.042 54.5204 387.8 54.4109 387.483 54.4109ZM393.128 54.1844C393.415 54.1844 393.68 54.2297 393.921 54.3203C394.163 54.4034 394.37 54.5317 394.544 54.7054C394.718 54.8791 394.85 55.0943 394.941 55.351C395.039 55.6077 395.088 55.906 395.088 56.2458C395.088 56.714 395.02 57.1595 394.884 57.5823C394.748 58.0052 394.559 58.3752 394.318 58.6923C394.084 59.0095 393.808 59.2624 393.491 59.4512C393.174 59.64 392.834 59.7344 392.471 59.7344C391.845 59.7344 391.354 59.5229 390.999 59.1001C390.644 58.6772 390.467 58.1071 390.467 57.3898C390.467 57.0122 390.504 56.5818 390.58 56.0986C390.655 55.6077 390.769 55.1245 390.92 54.6488C391.078 54.1731 391.275 53.7313 391.509 53.3236C391.743 52.9158 392.022 52.5987 392.347 52.3722C392.641 52.1683 392.962 52.0324 393.31 51.9644C393.657 51.8964 394.016 51.8474 394.386 51.8172C394.567 51.8021 394.725 51.7756 394.861 51.7379C395.005 51.6926 395.137 51.5944 395.258 51.4434L395.439 51.1262L395.711 51.1376L395.178 52.8026C394.506 52.8403 393.94 52.8818 393.479 52.9272C393.026 52.9725 392.649 53.0782 392.347 53.2443C392.045 53.4029 391.807 53.6483 391.633 53.9805C391.467 54.3052 391.339 54.7734 391.248 55.385C391.46 54.9546 391.728 54.6488 392.052 54.4676C392.385 54.2788 392.743 54.1844 393.128 54.1844ZM391.429 57.8202C391.429 57.9712 391.441 58.1373 391.463 58.3185C391.486 58.4922 391.531 58.6583 391.599 58.8169C391.675 58.9679 391.777 59.0963 391.905 59.202C392.033 59.3077 392.207 59.3606 392.426 59.3606C392.63 59.3606 392.811 59.304 392.97 59.1907C393.128 59.0699 393.268 58.9189 393.389 58.7376C393.517 58.5489 393.623 58.3374 393.706 58.1033C393.797 57.8617 393.868 57.6201 393.921 57.3785C393.974 57.1293 394.012 56.8914 394.034 56.6649C394.065 56.4308 394.08 56.2269 394.08 56.0533C394.08 55.7739 394.05 55.5398 393.989 55.351C393.936 55.1547 393.861 54.9999 393.763 54.8866C393.664 54.7658 393.551 54.6828 393.423 54.6374C393.294 54.5846 393.159 54.5582 393.015 54.5582C392.705 54.5582 392.449 54.679 392.245 54.9206C392.041 55.1622 391.879 55.4567 391.758 55.8041C391.645 56.1439 391.562 56.5025 391.509 56.8801C391.456 57.2501 391.429 57.5635 391.429 57.8202ZM396.614 55.2264C396.622 55.1887 396.626 55.1547 396.626 55.1245C396.633 55.0867 396.637 55.0565 396.637 55.0339C396.637 54.898 396.588 54.7998 396.49 54.7394C396.391 54.6714 396.222 54.6374 395.98 54.6374L396.025 54.3543L397.509 53.8446H397.747L397.113 57.6956C397.098 57.7636 397.086 57.8391 397.079 57.9221C397.079 58.0052 397.079 58.0731 397.079 58.126C397.079 58.2468 397.09 58.3639 397.113 58.4771C397.135 58.5904 397.177 58.6923 397.237 58.7829C397.305 58.8735 397.392 58.9453 397.498 58.9981C397.603 59.051 397.739 59.0774 397.905 59.0774C398.064 59.0774 398.223 59.0321 398.381 58.9415C398.54 58.8433 398.683 58.7225 398.812 58.5791C398.94 58.428 399.049 58.2581 399.14 58.0694C399.238 57.8806 399.306 57.688 399.344 57.4917L399.944 53.9579H400.85L400.125 58.3639C400.118 58.4016 400.11 58.4507 400.103 58.5111C400.095 58.5715 400.091 58.6206 400.091 58.6583C400.091 58.8849 400.19 58.9981 400.386 58.9981C400.537 58.9981 400.669 58.9491 400.782 58.8509C400.896 58.7452 401.035 58.5942 401.201 58.3978L401.1 58.9189C400.949 59.1529 400.79 59.3379 400.624 59.4738C400.465 59.6098 400.254 59.6777 399.99 59.6777C399.665 59.6777 399.446 59.5947 399.333 59.4285C399.219 59.2549 399.163 59.0472 399.163 58.8056C399.163 58.7603 399.163 58.7188 399.163 58.681C399.163 58.6432 399.166 58.6017 399.174 58.5564C399.106 58.6848 399.019 58.8207 398.914 58.9642C398.808 59.1001 398.679 59.2247 398.528 59.3379C398.385 59.4512 398.223 59.5456 398.041 59.6211C397.86 59.6966 397.664 59.7344 397.452 59.7344C397.211 59.7344 397.003 59.6966 396.829 59.6211C396.663 59.5456 396.527 59.4474 396.422 59.3266C396.324 59.1982 396.252 59.051 396.206 58.8849C396.161 58.7112 396.139 58.53 396.139 58.3412C396.139 58.2657 396.142 58.1751 396.15 58.0694C396.157 57.9637 396.169 57.873 396.184 57.7975L396.614 55.2264ZM405.649 54.3316H404.211L403.973 55.4643C403.92 55.721 403.856 56.0042 403.781 56.3138C403.705 56.6158 403.618 56.9254 403.52 57.2425C403.43 57.5597 403.324 57.8693 403.203 58.1713C403.09 58.4658 402.965 58.7301 402.829 58.9642C402.693 59.1982 402.546 59.387 402.387 59.5305C402.236 59.6664 402.074 59.7344 401.9 59.7344C401.681 59.7344 401.53 59.6777 401.447 59.5645C401.364 59.4512 401.304 59.3228 401.266 59.1794L401.368 58.6017C401.451 58.6999 401.527 58.7678 401.595 58.8056C401.67 58.8433 401.772 58.8622 401.9 58.8622C402.286 58.8622 402.614 58.5375 402.886 57.8881C403.158 57.2388 403.418 56.2798 403.667 55.0112C403.675 54.981 403.682 54.9395 403.69 54.8866C403.698 54.8262 403.701 54.7771 403.701 54.7394C403.701 54.5959 403.652 54.4827 403.554 54.3996C403.463 54.3165 403.297 54.275 403.056 54.275L403.124 53.9579H406.624L405.887 58.3639C405.88 58.4016 405.872 58.4507 405.865 58.5111C405.857 58.5715 405.853 58.6206 405.853 58.6583C405.853 58.8849 405.955 58.9981 406.159 58.9981C406.31 58.9981 406.442 58.9491 406.556 58.8509C406.669 58.7452 406.805 58.5942 406.963 58.3978L406.873 58.9189C406.722 59.1529 406.563 59.3379 406.397 59.4738C406.238 59.6098 406.027 59.6777 405.763 59.6777C405.438 59.6777 405.219 59.5947 405.106 59.4285C404.993 59.2549 404.936 59.0472 404.936 58.8056C404.936 58.7225 404.94 58.6432 404.947 58.5677C404.955 58.4922 404.966 58.4129 404.981 58.3299L405.649 54.3316ZM408.946 56.7668C408.908 57.0236 408.878 57.235 408.856 57.4011C408.84 57.5597 408.825 57.6918 408.81 57.7975C408.803 57.8957 408.795 57.9712 408.788 58.0241C408.788 58.0769 408.788 58.126 408.788 58.1713C408.788 58.5564 408.848 58.8547 408.969 59.0661C409.097 59.27 409.305 59.3719 409.592 59.3719C409.773 59.3719 409.943 59.3228 410.102 59.2247C410.268 59.1265 410.411 58.9906 410.532 58.8169C410.66 58.6357 410.758 58.4243 410.826 58.1826C410.902 57.9334 410.94 57.6616 410.94 57.3671C410.94 57.0273 410.868 56.7593 410.724 56.5629C410.581 56.3666 410.362 56.2685 410.068 56.2685C409.917 56.2685 409.735 56.3062 409.524 56.3817C409.32 56.4497 409.127 56.578 408.946 56.7668ZM408.267 55.2264C408.274 55.1887 408.278 55.1547 408.278 55.1245C408.285 55.0867 408.289 55.0565 408.289 55.0339C408.289 54.898 408.24 54.7998 408.142 54.7394C408.044 54.6714 407.874 54.6374 407.632 54.6374L407.678 54.3543L409.184 53.8446H409.411L409.003 56.3704C409.229 56.1967 409.448 56.0646 409.66 55.974C409.871 55.8834 410.135 55.8381 410.453 55.8381C410.936 55.8381 411.306 55.9777 411.563 56.2571C411.819 56.529 411.948 56.9027 411.948 57.3785C411.948 57.7031 411.884 58.009 411.755 58.2959C411.627 58.5753 411.453 58.8245 411.234 59.0434C411.023 59.2549 410.774 59.4248 410.487 59.5531C410.207 59.674 409.909 59.7344 409.592 59.7344C409.26 59.7344 408.984 59.6891 408.765 59.5984C408.546 59.5078 408.369 59.387 408.233 59.236C408.104 59.0774 408.014 58.8924 407.961 58.681C407.908 58.4696 407.882 58.243 407.882 58.0014C407.882 57.8353 407.889 57.6692 407.904 57.503C407.927 57.3294 407.953 57.1557 407.983 56.982L408.267 55.2264ZM413.459 55.2264C413.466 55.1887 413.47 55.1547 413.47 55.1245C413.478 55.0867 413.481 55.0565 413.481 55.0339C413.481 54.898 413.432 54.7998 413.334 54.7394C413.236 54.6714 413.066 54.6374 412.824 54.6374L412.87 54.3543L414.365 53.8446H414.603L414.161 56.5063H416.336L416.766 53.9579H417.672L416.936 58.3639C416.928 58.4016 416.921 58.4507 416.913 58.5111C416.913 58.5715 416.913 58.6206 416.913 58.6583C416.913 58.8849 417.011 58.9981 417.208 58.9981C417.359 58.9981 417.491 58.9491 417.604 58.8509C417.717 58.7452 417.857 58.5942 418.023 58.3978L417.921 58.9189C417.77 59.1529 417.612 59.3379 417.446 59.4738C417.287 59.6098 417.076 59.6777 416.811 59.6777C416.487 59.6777 416.268 59.5947 416.154 59.4285C416.041 59.2549 415.984 59.0472 415.984 58.8056C415.984 58.7225 415.988 58.6432 415.996 58.5677C416.003 58.4922 416.015 58.4129 416.03 58.3299L416.268 56.9027H414.093L413.64 59.6211H412.734L413.459 55.2264ZM421.203 53.8446C421.535 53.8446 421.83 53.905 422.086 54.0258C422.343 54.1466 422.555 54.3128 422.721 54.5242C422.894 54.7356 423.023 54.9848 423.106 55.2717C423.196 55.5587 423.242 55.8645 423.242 56.1892C423.242 56.68 423.178 57.1406 423.049 57.571C422.921 58.0014 422.74 58.379 422.505 58.7036C422.271 59.0208 421.992 59.2737 421.667 59.4625C421.343 59.6437 420.984 59.7344 420.591 59.7344C420.282 59.7344 419.999 59.6777 419.742 59.5645C419.493 59.4512 419.281 59.2926 419.108 59.0887C418.934 58.8849 418.798 58.6432 418.7 58.3639C418.609 58.0769 418.564 57.7598 418.564 57.4124C418.564 56.8688 418.628 56.3779 418.756 55.94C418.892 55.502 419.077 55.1283 419.311 54.8187C419.546 54.5091 419.821 54.2712 420.138 54.1051C420.463 53.9314 420.818 53.8446 421.203 53.8446ZM420.58 59.3719C420.89 59.3719 421.15 59.2473 421.362 58.9981C421.573 58.7414 421.743 58.4318 421.871 58.0694C422 57.7069 422.09 57.3294 422.143 56.9367C422.203 56.5365 422.234 56.1967 422.234 55.9173C422.234 55.3057 422.143 54.8715 421.962 54.6148C421.781 54.3505 421.535 54.2184 421.226 54.2184C421.014 54.2184 420.825 54.2788 420.659 54.3996C420.501 54.5129 420.357 54.6677 420.229 54.864C420.108 55.0603 420.006 55.2831 419.923 55.5322C419.84 55.7739 419.772 56.0231 419.719 56.2798C419.666 56.5365 419.629 56.7895 419.606 57.0387C419.583 57.2803 419.572 57.4955 419.572 57.6843C419.572 58.2959 419.663 58.7301 419.844 58.9868C420.033 59.2435 420.278 59.3719 420.58 59.3719ZM427.544 56.2345C427.552 56.159 427.556 56.0797 427.556 55.9966C427.563 55.906 427.567 55.8154 427.567 55.7248C427.567 55.5436 427.552 55.3661 427.522 55.1924C427.499 55.0112 427.454 54.8489 427.386 54.7054C427.318 54.5544 427.227 54.4336 427.114 54.343C427.001 54.2523 426.857 54.207 426.684 54.207C426.518 54.207 426.336 54.2674 426.14 54.3883C425.951 54.5015 425.774 54.6828 425.608 54.9319C425.449 55.1736 425.317 55.4869 425.211 55.872C425.105 56.2571 425.053 56.714 425.053 57.2425C425.053 57.7485 425.151 58.16 425.347 58.4771C425.543 58.7867 425.857 58.9415 426.287 58.9415C426.604 58.9415 426.865 58.8622 427.069 58.7036C427.28 58.5451 427.499 58.3072 427.726 57.9901L427.658 58.4545C427.529 58.8169 427.325 59.1227 427.046 59.3719C426.774 59.6135 426.423 59.7344 425.993 59.7344C425.645 59.7344 425.343 59.674 425.087 59.5531C424.837 59.4323 424.63 59.27 424.464 59.0661C424.298 58.8547 424.173 58.6093 424.09 58.3299C424.014 58.0429 423.977 57.7333 423.977 57.4011C423.977 56.8348 424.056 56.3326 424.214 55.8947C424.373 55.4492 424.577 55.0754 424.826 54.7734C425.075 54.4713 425.355 54.241 425.664 54.0825C425.974 53.9239 426.283 53.8446 426.593 53.8446C426.827 53.8446 427.027 53.871 427.193 53.9239C427.367 53.9692 427.514 54.0334 427.635 54.1164C427.763 54.1995 427.869 54.2939 427.952 54.3996C428.043 54.5053 428.118 54.611 428.179 54.7167L427.93 56.2345H427.544ZM435.407 55.8041C435.43 55.6682 435.441 55.5247 435.441 55.3737C435.441 55.1471 435.385 54.947 435.271 54.7734C435.158 54.5921 434.958 54.5015 434.671 54.5015C434.497 54.5015 434.331 54.5506 434.173 54.6488C434.014 54.7394 433.871 54.8602 433.742 55.0112C433.614 55.1547 433.504 55.3208 433.414 55.5096C433.331 55.6908 433.274 55.872 433.244 56.0533L432.644 59.6211H431.737L432.383 55.7814C432.391 55.7135 432.394 55.6455 432.394 55.5775C432.402 55.502 432.406 55.4341 432.406 55.3737C432.406 55.2604 432.394 55.1509 432.372 55.0452C432.349 54.9395 432.308 54.8489 432.247 54.7734C432.194 54.6903 432.119 54.6261 432.021 54.5808C431.922 54.528 431.794 54.5015 431.636 54.5015C431.469 54.5015 431.307 54.5506 431.148 54.6488C430.997 54.7394 430.858 54.8602 430.729 55.0112C430.601 55.1622 430.492 55.3321 430.401 55.5209C430.318 55.7021 430.261 55.8834 430.231 56.0646L429.631 59.6211H428.725L429.665 53.9579H429.914L430.412 54.9999C430.48 54.8715 430.563 54.7394 430.661 54.6035C430.767 54.4676 430.892 54.343 431.035 54.2297C431.179 54.1164 431.337 54.0258 431.511 53.9579C431.692 53.8823 431.885 53.8446 432.089 53.8446C432.323 53.8446 432.515 53.8786 432.666 53.9465C432.825 54.0069 432.953 54.0938 433.051 54.207C433.149 54.3203 433.221 54.4524 433.267 54.6035C433.312 54.7545 433.342 54.9168 433.357 55.0905C433.425 54.9395 433.516 54.7922 433.629 54.6488C433.742 54.4978 433.871 54.3618 434.014 54.241C434.165 54.1202 434.331 54.0258 434.512 53.9579C434.694 53.8823 434.886 53.8446 435.09 53.8446C435.332 53.8446 435.532 53.8823 435.69 53.9579C435.857 54.0258 435.989 54.124 436.087 54.2523C436.193 54.3732 436.264 54.5166 436.302 54.6828C436.347 54.8489 436.37 55.0225 436.37 55.2038C436.37 55.3623 436.359 55.5209 436.336 55.6795L435.894 58.3639C435.887 58.4016 435.879 58.4507 435.872 58.5111C435.864 58.5715 435.86 58.6206 435.86 58.6583C435.86 58.7716 435.887 58.8584 435.94 58.9189C436 58.9717 436.075 58.9981 436.166 58.9981C436.317 58.9981 436.449 58.9491 436.563 58.8509C436.676 58.7452 436.812 58.5942 436.97 58.3978L436.88 58.9189C436.729 59.1529 436.57 59.3379 436.404 59.4738C436.238 59.6098 436.023 59.6777 435.758 59.6777C435.441 59.6777 435.226 59.5947 435.113 59.4285C434.999 59.2549 434.943 59.0472 434.943 58.8056C434.943 58.7225 434.947 58.6432 434.954 58.5677C434.962 58.4922 434.973 58.4129 434.988 58.3299L435.407 55.8041ZM438.882 56.7668C438.844 57.0236 438.814 57.235 438.791 57.4011C438.776 57.5597 438.761 57.6918 438.746 57.7975C438.738 57.8957 438.731 57.9712 438.723 58.0241C438.723 58.0769 438.723 58.126 438.723 58.1713C438.723 58.5564 438.784 58.8547 438.904 59.0661C439.033 59.27 439.24 59.3719 439.527 59.3719C439.709 59.3719 439.878 59.3228 440.037 59.2247C440.203 59.1265 440.347 58.9906 440.467 58.8169C440.596 58.6357 440.694 58.4243 440.762 58.1826C440.837 57.9334 440.875 57.6616 440.875 57.3671C440.875 57.0273 440.803 56.7593 440.66 56.5629C440.516 56.3666 440.298 56.2685 440.003 56.2685C439.852 56.2685 439.671 56.3062 439.459 56.3817C439.255 56.4497 439.063 56.578 438.882 56.7668ZM438.202 55.2264C438.21 55.1887 438.213 55.1547 438.213 55.1245C438.221 55.0867 438.225 55.0565 438.225 55.0339C438.225 54.898 438.176 54.7998 438.078 54.7394C437.979 54.6714 437.809 54.6374 437.568 54.6374L437.613 54.3543L439.12 53.8446H439.346L438.938 56.3704C439.165 56.1967 439.384 56.0646 439.595 55.974C439.807 55.8834 440.071 55.8381 440.388 55.8381C440.871 55.8381 441.241 55.9777 441.498 56.2571C441.755 56.529 441.883 56.9027 441.883 57.3785C441.883 57.7031 441.819 58.009 441.691 58.2959C441.562 58.5753 441.389 58.8245 441.17 59.0434C440.958 59.2549 440.709 59.4248 440.422 59.5531C440.143 59.674 439.844 59.7344 439.527 59.7344C439.195 59.7344 438.919 59.6891 438.7 59.5984C438.482 59.5078 438.304 59.387 438.168 59.236C438.04 59.0774 437.949 58.8924 437.896 58.681C437.843 58.4696 437.817 58.243 437.817 58.0014C437.817 57.8353 437.825 57.6692 437.84 57.503C437.862 57.3294 437.889 57.1557 437.919 56.982L438.202 55.2264Z" fill="#104A99"/>
<rect x="12.4589" y="12.3456" width="722.629" height="279.99" rx="3.851" stroke="#ADBFFD" stroke-width="1.35918" stroke-dasharray="13.59 4.53"/>
</svg>
