<svg width="908" height="162" viewBox="0 0 908 162" fill="none" xmlns="http://www.w3.org/2000/svg">
<rect y="1" width="908" height="160" rx="6.17021" fill="#F5F3EF"/>
<mask id="mask0_1419_853" style="mask-type:alpha" maskUnits="userSpaceOnUse" x="0" y="0" width="908" height="162">
<rect x="0.5" y="0.5" width="907" height="161" rx="10" fill="#D9D9D9"/>
</mask>
<g mask="url(#mask0_1419_853)">
<path d="M627.584 156.273L616.691 175.219C611.712 183.88 600.936 187.235 591.951 182.923C584.567 179.38 575.842 181.077 569.54 186.321C567.076 188.371 564.535 190.328 561.924 192.186C555.262 196.925 551.34 204.894 552.745 212.97C554.456 222.809 548.404 232.332 538.797 234.916L517.866 240.548C508.221 243.143 498.207 237.869 494.849 228.425C492.088 220.661 484.692 215.669 476.517 214.905C473.392 214.612 470.279 214.204 467.184 213.68C459.113 212.314 450.712 215.215 446.058 221.977C440.386 230.219 429.363 232.708 420.723 227.698L401.867 216.766C393.239 211.763 389.895 200.937 394.191 191.91C397.718 184.498 396.034 175.741 390.816 169.415C388.785 166.953 386.847 164.415 385.004 161.808C380.267 155.104 372.278 151.197 364.229 152.691C354.435 154.509 344.893 148.469 342.302 138.812L336.663 117.788C334.066 108.111 339.31 98.0541 348.709 94.684C356.44 91.9124 361.403 84.4806 362.165 76.2733C362.452 73.1887 362.852 70.1158 363.364 67.0609C364.747 58.8146 361.805 50.2251 354.933 45.5025C346.588 39.7679 344.048 28.5474 349.104 19.7533L359.709 1.30691C364.773 -7.5006 375.736 -10.907 384.868 -6.51008C392.367 -2.89937 401.235 -4.61507 407.649 -9.93036C410.047 -11.9175 412.517 -13.8162 415.053 -15.6229C421.724 -20.3755 425.612 -28.3923 424.125 -36.4693C422.314 -46.306 428.337 -55.8882 437.959 -58.477L458.993 -64.1361C468.615 -66.725 478.603 -61.4508 481.933 -52.0224C484.667 -44.2806 492.026 -39.2902 500.17 -38.5235C503.343 -38.2247 506.504 -37.8072 509.646 -37.2716C517.71 -35.8969 526.105 -38.811 530.733 -45.5842C536.37 -53.8333 547.378 -56.3389 556.006 -51.3366L575.137 -40.2443C583.778 -35.2349 587.142 -24.4044 582.871 -15.3502C579.366 -7.9215 581.065 0.833954 586.279 7.1709C588.28 9.60325 590.191 12.1093 592.007 14.6838C596.749 21.406 604.747 25.3392 612.817 23.8594C622.642 22.0578 632.197 28.1385 634.77 37.8299L640.352 58.8564C642.917 68.5201 637.661 78.542 628.274 81.8842C620.559 84.6312 615.586 92.0267 614.822 100.211C614.525 103.393 614.109 106.563 613.577 109.714C612.208 117.813 615.11 126.243 621.856 130.891C630.071 136.552 632.566 147.608 627.584 156.273Z" fill="#F5F3EF" stroke="#1C2229" stroke-linecap="round" stroke-linejoin="round"/>
<path d="M867.847 241.74C866.377 241.198 864.972 240.682 863.501 240.14C762.71 200.436 704.395 108.811 733.266 35.4784C762.136 -37.8537 867.252 -65.101 968.044 -25.397C969.469 -24.8356 970.913 -24.2292 972.313 -23.603L867.847 241.74Z" fill="#F5F3EF" stroke="#1C2229" stroke-linecap="round" stroke-linejoin="round"/>
<path d="M765.5 -8.57227L726.78 89.7755L648.41 58.9039C639.112 55.2412 634.576 44.724 638.219 35.4709L663.683 -29.2087C667.344 -38.5075 677.86 -43.0428 687.112 -39.3981L765.482 -8.52645L765.5 -8.57227Z" fill="#F5F3EF" stroke="#1C2229" stroke-linecap="round" stroke-linejoin="round"/>
<path d="M253.411 165.326L195.266 215.174L226.51 241.191L294.507 199.227L253.411 165.326Z" fill="#F5F3EF" stroke="#1C2229" stroke-linecap="round" stroke-linejoin="round"/>
<path d="M261.379 -76.7656C261.379 -76.7656 256.582 -56.2262 258.256 -35.3992C259.931 -14.5721 291.086 81.4193 332.937 135.905L363.58 175.794C365.196 177.903 365.966 180.539 365.737 183.182C365.508 185.825 364.296 188.282 362.341 190.066L320.927 227.426C319.011 229.165 316.516 230.128 313.925 230.128C311.334 230.128 308.832 229.164 306.903 227.424L283.423 206.593C224.36 153.447 171.002 128.56 120.413 119.956C69.8247 111.352 48.9741 110.685 48.9741 110.685L261.379 -76.7656Z" fill="#F5F3EF" stroke="#1C2229" stroke-linecap="round" stroke-linejoin="round"/>
<path d="M34.3183 105.615C53.6131 126.45 119.003 97.2622 180.37 40.4216C241.738 -16.419 275.845 -79.3877 256.55 -100.223C237.255 -121.059 171.865 -91.8708 110.498 -35.0302C49.13 21.8103 15.0235 84.7794 34.3183 105.615Z" fill="#F5F3EF" stroke="#1C2229" stroke-linecap="round" stroke-linejoin="round"/>
<path d="M280.425 209.179L304.939 230.692C306.969 232.477 309.639 233.427 312.43 233.357C315.22 233.287 317.934 232.203 320.045 230.315L365.898 189.733C368.051 187.795 369.423 185.168 369.741 182.371C370.06 179.573 369.302 176.81 367.617 174.626L335.687 133.327C329.448 125.237 313.339 100.142 307.749 91.6093L227.359 167.212C239.231 175.521 269.563 199.652 280.425 209.179Z" fill="#F5F3EF" stroke="#1C2229" stroke-linecap="round" stroke-linejoin="round"/>
<path d="M847.344 159.442L847.344 159.441C845.979 157.893 845.119 155.965 844.88 153.915C844.641 151.865 845.034 149.791 846.007 147.97C846.979 146.15 848.485 144.67 850.322 143.728C852.159 142.787 854.239 142.429 856.285 142.703L856.295 142.705L856.306 142.706L1013.16 156.85C1017.68 157.458 1021.78 159.838 1024.56 163.467C1027.33 167.099 1028.55 171.684 1027.94 176.214C1027.34 180.745 1024.96 184.849 1021.32 187.623C1017.7 190.396 1013.12 191.615 1008.59 191.012L853.601 162.78L853.589 162.778L853.578 162.777C851.166 162.453 848.952 161.268 847.344 159.442Z" fill="#F5F3EF" stroke="#1C2229"/>
<path d="M810.731 83.8774C781.428 49.4704 729.78 45.3328 695.374 74.6357C660.967 103.939 656.829 155.586 686.132 189.993" stroke="#1C2229"/>
<path d="M773.588 41.9119C792.381 46.8898 809.275 57.3288 822.135 71.9087C839.378 91.4579 848.15 117.056 846.52 143.072C844.891 169.088 832.994 193.391 813.447 210.636C798.869 223.498 780.803 231.747 761.536 234.342C742.269 236.936 722.666 233.759 705.204 225.211C687.743 216.664 673.209 203.131 663.439 186.323C653.67 169.515 649.104 150.187 650.319 130.784C651.534 111.381 658.476 92.7743 670.266 77.3166C682.056 61.8589 698.166 50.2447 716.557 43.9427C734.948 37.6406 754.795 36.9339 773.588 41.9119ZM666.826 147.926C669.002 164.064 675.913 179.194 686.688 191.404C701.135 207.775 721.492 217.737 743.284 219.099C765.075 220.461 786.514 213.111 802.887 198.667C815.098 187.894 823.841 173.742 828.008 158C832.176 142.258 831.582 125.634 826.302 110.23C821.021 94.8261 811.291 81.3339 798.343 71.4597C785.394 61.5856 769.808 55.7731 753.555 54.7572C737.303 53.7414 721.115 57.5679 707.037 65.7528C692.96 73.9377 681.625 86.1134 674.468 100.74C667.31 115.367 664.651 131.787 666.826 147.926Z" fill="#F5F3EF" stroke="#1C2229"/>
<path d="M778.047 46.9777C796.84 51.9537 813.735 62.3907 826.597 76.9688C835.138 86.6477 841.688 97.9143 845.874 110.125C850.06 122.336 851.8 135.252 850.994 148.135C850.188 161.018 846.852 173.616 841.176 185.21C835.5 196.804 827.597 207.166 817.916 215.705C803.338 228.566 785.273 236.815 766.006 239.41C746.74 242.004 727.137 238.827 709.676 230.281C692.215 221.734 677.68 208.202 667.91 191.394C658.14 174.587 653.573 155.261 654.787 135.858C656.001 116.455 662.942 97.8486 674.731 82.3904C686.519 66.9323 702.627 55.3171 721.018 49.0137C739.408 42.7103 759.254 42.0018 778.047 46.9777ZM671.294 152.984C673.467 169.122 680.377 184.253 691.149 196.464C705.595 212.838 725.954 222.803 747.747 224.167C769.54 225.53 790.982 218.181 807.356 203.735C819.567 192.962 828.309 178.811 832.477 163.07C836.645 147.329 836.051 130.705 830.771 115.301C825.492 99.8974 815.763 86.4051 802.815 76.5306C789.867 66.6561 774.282 60.8428 758.03 59.8259C741.778 58.809 725.59 62.6342 711.512 70.8177C697.434 79.0011 686.099 91.1754 678.94 105.801C671.782 120.426 669.121 136.846 671.294 152.984Z" fill="#F5F3EF" stroke="#1C2229"/>
<path d="M114.201 69.0994L114.201 69.0996L114.214 69.0982C116.126 68.8843 117.882 67.942 119.118 66.4669C120.353 64.9918 120.973 63.0975 120.848 61.1774L119.85 61.2423C119.958 62.9058 119.421 64.5469 118.351 65.8248C117.282 67.1011 115.763 67.917 114.109 68.1037C112.442 68.2466 110.787 67.7239 109.504 66.6498C108.22 65.5743 107.415 64.0337 107.265 62.3655L106.269 62.4552C106.443 64.387 107.375 66.1709 108.862 67.4164C110.349 68.6618 112.269 69.267 114.201 69.0994ZM-95.4183 169.225L-95.4241 169.225C-96.2721 169.252 -97.1171 169.11 -97.9095 168.806C-98.7018 168.503 -99.4258 168.045 -100.039 167.458L-100.73 168.18C-100.021 168.859 -99.1837 169.389 -98.2671 169.74C-97.3514 170.091 -96.3749 170.256 -95.3947 170.225C-94.4354 170.205 -93.4904 169.989 -92.6178 169.589C-91.7471 169.191 -90.9672 168.618 -90.3259 167.907C-89.6534 167.212 -89.1275 166.389 -88.779 165.486C-88.4298 164.582 -88.2662 163.616 -88.2978 162.647C-88.3173 161.689 -88.5285 160.745 -88.919 159.87C-89.3095 158.994 -89.8713 158.206 -90.5714 157.551C-96.0626 152.302 -101.043 146.544 -105.447 140.355L-106.262 140.934C-101.821 147.176 -96.7981 152.983 -91.2606 158.276L-91.2564 158.28C-90.6529 158.844 -90.1687 159.523 -89.8322 160.277C-89.4957 161.031 -89.3139 161.845 -89.2976 162.671L-89.2973 162.677C-89.2697 163.513 -89.4107 164.346 -89.7119 165.126C-90.0131 165.906 -90.4683 166.617 -91.0504 167.218L-91.0569 167.225L-91.0631 167.231C-91.6142 167.844 -92.285 168.337 -93.0341 168.68C-93.7832 169.023 -94.5946 169.208 -95.4183 169.225ZM114.651 73.3477L114.648 73.348C113.154 73.4809 111.648 73.3169 110.218 72.8656C108.787 72.4142 107.46 71.6844 106.313 70.7181C105.166 69.7518 104.221 68.5682 103.533 67.2353C102.845 65.9024 102.428 64.4466 102.305 62.9517L102.304 62.9457C100.683 45.7868 95.1459 29.2288 86.1182 14.547C77.0906 -0.134821 64.8136 -12.5488 50.2327 -21.7387C35.6518 -30.9285 19.1562 -36.649 2.01632 -38.4597C-15.1236 -40.2704 -32.4504 -38.1228 -48.6296 -32.1826C-64.8089 -26.2423 -79.4089 -16.6677 -91.3051 -4.19634C-103.201 8.27506 -112.076 23.3106 -117.246 39.7521C-122.417 56.1937 -123.744 73.6024 -121.127 90.6377C-118.509 107.673 -112.017 123.88 -102.149 138.011L-102.147 138.014C-97.9016 143.997 -93.0936 149.559 -87.7889 154.626L-87.788 154.627C-86.1547 156.18 -85.0172 158.181 -84.5186 160.379C-84.02 162.577 -84.1826 164.874 -84.986 166.979C-85.7894 169.085 -87.1978 170.906 -89.0337 172.214C-90.8695 173.521 -93.0508 174.256 -95.3032 174.326C-96.8135 174.371 -98.3176 174.116 -99.7285 173.576C-101.14 173.035 -102.429 172.221 -103.523 171.178L-103.868 171.54L-103.523 171.178C-109.904 165.101 -115.685 158.423 -120.784 151.236C-132.844 134.231 -140.822 114.674 -144.1 94.0859C-147.378 73.4974 -145.867 52.4305 -139.684 32.5204C-133.502 12.6104 -122.814 -5.6071 -108.451 -20.7177C-94.0876 -35.8283 -76.4353 -47.4255 -56.8642 -54.6091C-37.2931 -61.7928 -16.3298 -64.3695 4.3984 -62.1393C25.1266 -59.9091 45.062 -52.932 62.6571 -41.7496C80.2521 -30.5672 95.0335 -15.4803 105.854 2.33978C116.674 20.1598 123.242 40.2336 125.047 61.003C125.219 62.9904 124.869 64.9883 124.033 66.7994C123.197 68.6098 121.904 70.1711 120.282 71.3296C118.615 72.486 116.673 73.1821 114.651 73.3477Z" fill="#F5F3EF" stroke="#1C2229"/>
<path d="M-133.232 170.916C-134.301 174.554 -133.89 178.466 -132.088 181.802C-130.287 185.138 -127.241 187.628 -123.614 188.73L47.5893 240.602L-133.232 170.916ZM-133.232 170.916L-83.9168 4.21571C-83.9165 4.21469 -83.9162 4.21368 -83.9158 4.21266C-82.8194 0.626272 -80.3653 -2.38999 -77.0768 -4.19293C-73.7881 -5.99599 -69.9249 -6.44291 -66.3114 -5.43843C-66.3106 -5.43821 -66.3099 -5.43799 -66.3091 -5.43778L111.28 45.8381C113.137 46.3779 114.867 47.2871 116.366 48.5111C117.864 49.7352 119.1 51.249 119.999 52.9619C120.899 54.6747 121.443 56.5515 121.6 58.4798C121.757 60.4081 121.524 62.3483 120.914 64.1842L65.281 231.493C65.2809 231.493 65.2808 231.493 65.2807 231.494C64.0747 234.999 61.5613 237.904 58.265 239.601C54.9693 241.298 51.1457 241.657 47.5919 240.603L-133.232 170.916Z" fill="#F5F3EF" stroke="#1C2229"/>
<path d="M319.513 126.939L319.506 126.945L319.02 127.29C318.517 127.354 318.007 127.236 317.585 126.953L317.566 126.941L317.547 126.93L266.48 98.9866L266.234 98.852L265.991 98.9916L74.8038 208.759L74.8027 208.759C74.444 208.967 74.0297 209.057 73.6172 209.018C73.2048 208.98 72.8146 208.814 72.5007 208.543L72.4932 208.537L72.4855 208.531C72.1645 208.276 71.9322 207.926 71.8217 207.531C71.7113 207.137 71.7283 206.717 71.8704 206.332L71.8705 206.332L71.8745 206.321L106.124 106.105C106.124 106.105 106.125 106.105 106.125 106.105C106.296 105.613 106.644 105.203 107.101 104.953C107.556 104.704 108.088 104.633 108.593 104.753C108.594 104.754 108.596 104.754 108.598 104.754L157.777 117.718L157.957 117.766L158.124 117.684L317.051 39.8636L317.059 39.8594C317.49 39.6387 317.986 39.5818 318.455 39.6992C318.923 39.8163 319.333 40.0988 319.609 40.4944C326.877 51.3495 331.343 63.837 332.605 76.8399C333.349 86.6039 330.409 98.6097 327.185 108.369C323.975 118.086 320.508 125.508 320.207 126.148C320.047 126.466 319.808 126.739 319.513 126.939Z" fill="#F5F3EF" stroke="#1C2229"/>
</g>
</svg>
