<svg width="394" height="23" viewBox="0 0 394 23" fill="none" xmlns="http://www.w3.org/2000/svg">
<path d="M5.06 16.9853C6.36667 16.9853 7.4 16.4853 8.16 15.4853C8.92 14.4853 9.32667 13.0253 9.38 11.1053H7.12C6.45333 11.1053 5.96 11.2786 5.64 11.6253C5.33333 11.972 5.18 12.5053 5.18 13.2253H4.58V8.26531H5.18C5.18 8.98531 5.33333 9.51865 5.64 9.86531C5.94667 10.1986 6.44 10.3653 7.12 10.3653H9.38C9.32667 8.41865 8.90667 6.90531 8.12 5.82531C7.34667 4.73198 6.42667 4.18531 5.36 4.18531C3.54667 4.18531 2.42667 5.81198 2 9.06531H1.32V5.50531C2.16 4.13198 3.53333 3.44531 5.44 3.44531C7.16 3.44531 8.6 4.05865 9.76 5.28531C10.9333 6.51198 11.52 8.27865 11.52 10.5853C11.52 12.9853 11.0067 14.9253 9.98 16.4053C8.95333 17.8853 7.48667 18.6253 5.58 18.6253C4.40667 18.6253 3.43333 18.312 2.66 17.6853C1.9 17.0453 1.41333 16.2986 1.2 15.4453V14.6453C1.61333 15.3653 2.15333 15.9386 2.82 16.3653C3.48667 16.7786 4.23333 16.9853 5.06 16.9853ZM16.3967 5.48531V10.3853H22.7167V5.48531C22.7167 4.60531 22.1767 4.16531 21.0967 4.16531V3.68531H26.2767V4.16531C25.1967 4.16531 24.6567 4.60531 24.6567 5.48531V16.5853C24.6567 17.4653 25.1967 17.9053 26.2767 17.9053V18.3853H21.0967V17.9053C22.1767 17.9053 22.7167 17.4653 22.7167 16.5853V11.1653H16.3967V16.5853C16.3967 17.4653 16.9367 17.9053 18.0167 17.9053V18.3853H12.8367V17.9053C13.9167 17.9053 14.4567 17.4653 14.4567 16.5853V5.48531C14.4567 4.60531 13.9167 4.16531 12.8367 4.16531V3.68531H18.0167V4.16531C16.9367 4.16531 16.3967 4.60531 16.3967 5.48531ZM39.0958 5.48531V16.2053C39.0958 17.0853 39.6358 17.5253 40.7158 17.5253H40.9958V22.4653H40.3158C40.1024 21.0253 39.8891 20.092 39.6758 19.6653C39.3158 18.9453 38.6291 18.532 37.6158 18.4253C37.3891 18.3986 37.1424 18.3853 36.8758 18.3853H27.2758V17.9053C28.3558 17.9053 28.8958 17.4653 28.8958 16.5853V5.48531C28.8958 4.60531 28.3558 4.16531 27.2758 4.16531V3.68531H32.4558V4.16531C31.3758 4.16531 30.8358 4.60531 30.8358 5.48531V17.5253H37.1558V5.48531C37.1558 4.60531 36.6158 4.16531 35.5358 4.16531V3.68531H40.7158V4.16531C39.6358 4.16531 39.0958 4.60531 39.0958 5.48531ZM45.5678 5.48531V14.4053L52.1478 5.48531C52.1478 4.60531 51.6078 4.16531 50.5278 4.16531V3.68531H55.7078V4.16531C54.6278 4.16531 54.0878 4.60531 54.0878 5.48531V16.5853C54.0878 17.4653 54.6278 17.9053 55.7078 17.9053V18.3853H50.5278V17.9053C51.6078 17.9053 52.1478 17.4653 52.1478 16.5853V6.98531L45.5678 15.8653V16.5853C45.5678 17.4653 46.1078 17.9053 47.1878 17.9053V18.3853H42.0078V17.9053C43.0878 17.9053 43.6278 17.4653 43.6278 16.5853V5.48531C43.6278 4.60531 43.0878 4.16531 42.0078 4.16531V3.68531H47.1878V4.16531C46.1078 4.16531 45.5678 4.60531 45.5678 5.48531ZM60.2608 12.9053V16.6453C60.2608 17.4853 60.8008 17.9053 61.8808 17.9053V18.3853H56.7008V17.9053C57.7808 17.9053 58.3208 17.4653 58.3208 16.5853V5.48531C58.3208 4.60531 57.7808 4.16531 56.7008 4.16531V3.68531H61.8808V4.16531C60.8008 4.16531 60.2608 4.62531 60.2608 5.54531V11.5253L64.8408 5.88531C65.1874 5.44531 65.3608 5.09865 65.3608 4.84531C65.3608 4.39198 64.9274 4.16531 64.0608 4.16531V3.68531H69.0008V4.16531C67.8808 4.16531 66.9941 4.57198 66.3408 5.38531L63.2008 9.24531L67.6008 16.7253C68.0408 17.4853 68.6808 17.8653 69.5208 17.8653V18.3853H66.3408L61.9408 10.8253L60.2608 12.9053ZM74.8395 4.42531L74.7195 7.26531C74.4129 14.8386 73.2262 18.6253 71.1595 18.6253C70.3462 18.6253 69.8129 18.2253 69.5595 17.4253V16.2853C69.9462 16.672 70.4529 16.8653 71.0795 16.8653C71.9462 16.8653 72.5995 15.952 73.0395 14.1253C73.4929 12.2853 73.7729 9.40531 73.8795 5.48531C73.8929 5.07198 73.7662 4.75198 73.4995 4.52531C73.2462 4.28531 72.8329 4.16531 72.2595 4.16531V3.68531H82.2795V4.16531C81.1995 4.16531 80.6595 4.60531 80.6595 5.48531V16.5853C80.6595 17.4653 81.1995 17.9053 82.2795 17.9053V18.3853H77.0995V17.9053C78.1795 17.9053 78.7195 17.4653 78.7195 16.5853V4.42531H74.8395ZM93.6342 16.6053C92.5142 17.952 91.1209 18.6253 89.4542 18.6253C87.7876 18.6253 86.3876 17.952 85.2542 16.6053C84.1342 15.2586 83.5742 13.352 83.5742 10.8853C83.5742 8.44531 84.1342 6.59865 85.2542 5.34531C86.3742 4.07865 87.7742 3.44531 89.4542 3.44531C91.1342 3.44531 92.5342 4.07865 93.6542 5.34531C94.7742 6.59865 95.3342 8.44531 95.3342 10.8853C95.3342 13.352 94.7676 15.2586 93.6342 16.6053ZM86.6742 16.0653C87.3009 17.2786 88.2276 17.8853 89.4542 17.8853C90.6809 17.8853 91.6009 17.2786 92.2142 16.0653C92.8409 14.8386 93.1542 13.1053 93.1542 10.8653C93.1542 6.41198 91.9209 4.18531 89.4542 4.18531C86.9876 4.18531 85.7542 6.41198 85.7542 10.8653C85.7542 13.1053 86.0609 14.8386 86.6742 16.0653ZM96.6391 3.68531H109.999V4.16531C108.919 4.16531 108.379 4.60531 108.379 5.48531V16.5853C108.379 17.4653 108.919 17.9053 109.999 17.9053V18.3853H104.819V17.9053C105.899 17.9053 106.439 17.4653 106.439 16.5853V4.42531H100.199V16.5853C100.199 17.4653 100.739 17.9053 101.819 17.9053V18.3853H96.6391V17.9053C97.7191 17.9053 98.2591 17.4653 98.2591 16.5853V5.48531C98.2591 4.60531 97.7191 4.16531 96.6391 4.16531V3.68531ZM120.94 14.0053H121.52V18.3853H111V17.9053C112.08 17.9053 112.62 17.4653 112.62 16.5853V5.48531C112.62 4.60531 112.08 4.16531 111 4.16531V3.68531H121.1V7.82531H120.52C120.413 7.15865 120.3 6.63865 120.18 6.26531C120.073 5.89198 119.893 5.55198 119.64 5.24531C119.4 4.93865 119.073 4.72531 118.66 4.60531C118.26 4.48531 117.733 4.42531 117.08 4.42531H114.56V10.3653H115.74C117.073 10.3653 117.74 9.63198 117.74 8.16531H118.34V13.3253H117.74C117.74 11.8453 117.073 11.1053 115.74 11.1053H114.56V17.6453H117.36C118.053 17.6453 118.613 17.5853 119.04 17.4653C119.48 17.332 119.827 17.0986 120.08 16.7653C120.333 16.432 120.513 16.0653 120.62 15.6653C120.74 15.2653 120.847 14.712 120.94 14.0053ZM135.439 22.4653H134.759C134.545 21.0253 134.332 20.092 134.119 19.6653C133.759 18.9453 133.072 18.532 132.059 18.4253C131.832 18.3986 131.585 18.3853 131.319 18.3853H126.479C126.079 18.3853 125.725 18.412 125.419 18.4653C125.112 18.532 124.845 18.6053 124.619 18.6853C124.405 18.7786 124.212 18.9253 124.039 19.1253C123.879 19.3386 123.752 19.5253 123.659 19.6853C123.565 19.8586 123.472 20.1186 123.379 20.4653C123.299 20.812 123.239 21.1053 123.199 21.3453C123.159 21.5986 123.105 21.972 123.039 22.4653H122.359V17.6453C123.039 17.592 123.672 17.1453 124.259 16.3053C124.845 15.452 125.305 14.432 125.639 13.2453C125.985 12.0453 126.252 10.8386 126.439 9.62531C126.639 8.39865 126.739 7.31198 126.739 6.36531V5.48531C126.739 4.60531 126.199 4.16531 125.119 4.16531V3.68531H135.159V4.16531C134.079 4.16531 133.539 4.60531 133.539 5.48531V16.3253C133.539 17.2053 134.079 17.6453 135.159 17.6453H135.439V22.4653ZM131.599 17.6453V4.42531H127.559V6.18531C127.559 8.42531 127.225 10.692 126.559 12.9853C125.905 15.2786 125.172 16.832 124.359 17.6453H131.599ZM140.02 5.48531V14.4053L146.6 5.48531C146.6 4.60531 146.06 4.16531 144.98 4.16531V3.68531H150.16V4.16531C149.08 4.16531 148.54 4.60531 148.54 5.48531V16.5853C148.54 17.4653 149.08 17.9053 150.16 17.9053V18.3853H144.98V17.9053C146.06 17.9053 146.6 17.4653 146.6 16.5853V6.98531L140.02 15.8653V16.5853C140.02 17.4653 140.56 17.9053 141.64 17.9053V18.3853H136.46V17.9053C137.54 17.9053 138.08 17.4653 138.08 16.5853V5.48531C138.08 4.60531 137.54 4.16531 136.46 4.16531V3.68531H141.64V4.16531C140.56 4.16531 140.02 4.60531 140.02 5.48531ZM158.133 3.68531H162.833V4.16531C161.753 4.16531 161.213 4.60531 161.213 5.48531V16.5853C161.213 17.4653 161.753 17.9053 162.833 17.9053V18.3853H157.653V17.9053C158.733 17.9053 159.273 17.4653 159.273 16.5853V11.7653H158.473C158.046 11.7653 157.746 11.8453 157.573 12.0053C157.4 12.152 157.146 12.5253 156.813 13.1253L153.813 18.3853H150.553V17.9253C151.033 17.9253 151.413 17.852 151.693 17.7053C151.973 17.5586 152.22 17.3053 152.433 16.9453L155.553 11.4853C154.54 11.2586 153.766 10.812 153.233 10.1453C152.713 9.46531 152.453 8.68531 152.453 7.80531C152.453 7.04531 152.606 6.39198 152.913 5.84531C153.22 5.29865 153.646 4.87198 154.193 4.56531C154.74 4.25865 155.333 4.03865 155.973 3.90531C156.626 3.75865 157.346 3.68531 158.133 3.68531ZM158.313 11.0253H159.273V4.42531H158.393C155.886 4.42531 154.633 5.48531 154.633 7.60531C154.633 9.88531 155.86 11.0253 158.313 11.0253ZM179.664 5.48531V16.2053C179.664 17.0853 180.204 17.5253 181.284 17.5253H181.564V22.4653H180.884C180.67 21.0253 180.457 20.092 180.244 19.6653C179.884 18.9453 179.197 18.532 178.184 18.4253C177.957 18.3986 177.71 18.3853 177.444 18.3853H167.844V17.9053C168.924 17.9053 169.464 17.4653 169.464 16.5853V5.48531C169.464 4.60531 168.924 4.16531 167.844 4.16531V3.68531H173.024V4.16531C171.944 4.16531 171.404 4.60531 171.404 5.48531V17.5253H177.724V5.48531C177.724 4.60531 177.184 4.16531 176.104 4.16531V3.68531H181.284V4.16531C180.204 4.16531 179.664 4.60531 179.664 5.48531ZM186.136 5.48531V14.4053L192.716 5.48531C192.716 4.60531 192.176 4.16531 191.096 4.16531V3.68531H196.276V4.16531C195.196 4.16531 194.656 4.60531 194.656 5.48531V16.5853C194.656 17.4653 195.196 17.9053 196.276 17.9053V18.3853H191.096V17.9053C192.176 17.9053 192.716 17.4653 192.716 16.5853V6.98531L186.136 15.8653V16.5853C186.136 17.4653 186.676 17.9053 187.756 17.9053V18.3853H182.576V17.9053C183.656 17.9053 184.196 17.4653 184.196 16.5853V5.48531C184.196 4.60531 183.656 4.16531 182.576 4.16531V3.68531H187.756V4.16531C186.676 4.16531 186.136 4.60531 186.136 5.48531ZM205.869 5.64531H206.049C206.902 5.64531 207.695 5.74531 208.429 5.94531C209.175 6.13198 209.855 6.42531 210.469 6.82531C211.082 7.21198 211.562 7.75865 211.909 8.46531C212.269 9.15865 212.449 9.96531 212.449 10.8853C212.449 11.8053 212.269 12.6186 211.909 13.3253C211.562 14.0186 211.082 14.5653 210.469 14.9653C209.855 15.352 209.175 15.6453 208.429 15.8453C207.695 16.032 206.902 16.1253 206.049 16.1253H205.869V16.7853C205.869 17.6653 206.409 18.1053 207.489 18.1053V18.5853H202.309V18.1053C203.389 18.1053 203.929 17.6653 203.929 16.7853V16.1253H203.749C202.895 16.1253 202.095 16.032 201.349 15.8453C200.615 15.6453 199.942 15.352 199.329 14.9653C198.715 14.5653 198.229 14.0186 197.869 13.3253C197.522 12.6186 197.349 11.8053 197.349 10.8853C197.349 9.96531 197.522 9.15865 197.869 8.46531C198.229 7.75865 198.715 7.21198 199.329 6.82531C199.942 6.42531 200.615 6.13198 201.349 5.94531C202.095 5.74531 202.895 5.64531 203.749 5.64531H203.929V5.28531C203.929 4.40531 203.389 3.96531 202.309 3.96531V3.48531H207.489V3.96531C206.409 3.96531 205.869 4.40531 205.869 5.28531V5.64531ZM205.869 15.3853H205.969C207.262 15.3853 208.302 15.0186 209.089 14.2853C209.875 13.5386 210.269 12.4053 210.269 10.8853C210.269 9.36531 209.875 8.23865 209.089 7.50531C208.302 6.75865 207.262 6.38531 205.969 6.38531H205.869V15.3853ZM200.709 7.50531C199.922 8.23865 199.529 9.36531 199.529 10.8853C199.529 12.4053 199.922 13.5386 200.709 14.2853C201.495 15.0186 202.535 15.3853 203.829 15.3853H203.929V6.38531H203.829C202.535 6.38531 201.495 6.75865 200.709 7.50531ZM217.084 11.8653V16.5853C217.084 17.4653 217.624 17.9053 218.704 17.9053V18.3853H213.524V17.9053C214.604 17.9053 215.144 17.4653 215.144 16.5853V5.48531C215.144 4.60531 214.604 4.16531 213.524 4.16531V3.68531H218.564C222.298 3.68531 224.164 5.02531 224.164 7.70531C224.164 9.15865 223.638 10.2186 222.584 10.8853C221.544 11.5386 220.204 11.8653 218.564 11.8653H217.084ZM217.084 4.42531V11.1253H218.324C219.431 11.1253 220.318 10.852 220.984 10.3053C221.651 9.74531 221.984 8.89198 221.984 7.74531C221.984 5.53198 220.764 4.42531 218.324 4.42531H217.084ZM235.413 16.6053C234.293 17.952 232.9 18.6253 231.233 18.6253C229.566 18.6253 228.166 17.952 227.033 16.6053C225.913 15.2586 225.353 13.352 225.353 10.8853C225.353 8.44531 225.913 6.59865 227.033 5.34531C228.153 4.07865 229.553 3.44531 231.233 3.44531C232.913 3.44531 234.313 4.07865 235.433 5.34531C236.553 6.59865 237.113 8.44531 237.113 10.8853C237.113 13.352 236.546 15.2586 235.413 16.6053ZM228.453 16.0653C229.08 17.2786 230.006 17.8853 231.233 17.8853C232.46 17.8853 233.38 17.2786 233.993 16.0653C234.62 14.8386 234.933 13.1053 234.933 10.8653C234.933 6.41198 233.7 4.18531 231.233 4.18531C228.766 4.18531 227.533 6.41198 227.533 10.8653C227.533 13.1053 227.84 14.8386 228.453 16.0653ZM245.738 10.5453V10.5853C246.671 10.6786 247.505 11.0453 248.238 11.6853C248.985 12.312 249.358 13.1653 249.358 14.2453C249.358 15.6453 248.905 16.6853 247.998 17.3653C247.091 18.0453 245.685 18.3853 243.778 18.3853H238.418V17.9053C239.498 17.9053 240.038 17.4653 240.038 16.5853V5.48531C240.038 4.60531 239.498 4.16531 238.418 4.16531V3.68531H243.618C247.005 3.68531 248.698 4.90531 248.698 7.34531C248.698 8.21198 248.391 8.93865 247.778 9.52531C247.165 10.112 246.485 10.452 245.738 10.5453ZM241.978 4.42531V10.3653H243.418C245.498 10.3653 246.538 9.37198 246.538 7.38531C246.538 6.37198 246.231 5.62531 245.618 5.14531C245.005 4.66531 244.185 4.42531 243.158 4.42531H241.978ZM241.978 11.1053V17.6453H243.438C245.918 17.6453 247.158 16.5586 247.158 14.3853C247.158 12.1986 245.918 11.1053 243.438 11.1053H241.978ZM260.815 16.6053C259.695 17.952 258.301 18.6253 256.635 18.6253C254.968 18.6253 253.568 17.952 252.435 16.6053C251.315 15.2586 250.755 13.352 250.755 10.8853C250.755 8.44531 251.315 6.59865 252.435 5.34531C253.555 4.07865 254.955 3.44531 256.635 3.44531C258.315 3.44531 259.715 4.07865 260.835 5.34531C261.955 6.59865 262.515 8.44531 262.515 10.8853C262.515 13.352 261.948 15.2586 260.815 16.6053ZM253.855 16.0653C254.481 17.2786 255.408 17.8853 256.635 17.8853C257.861 17.8853 258.781 17.2786 259.395 16.0653C260.021 14.8386 260.335 13.1053 260.335 10.8653C260.335 6.41198 259.101 4.18531 256.635 4.18531C254.168 4.18531 252.935 6.41198 252.935 10.8653C252.935 13.1053 253.241 14.8386 253.855 16.0653ZM265.44 16.5853V5.48531C265.44 4.60531 264.9 4.16531 263.82 4.16531V3.68531H273.76V7.82531H273.18C273.073 7.15865 272.96 6.63865 272.84 6.26531C272.733 5.89198 272.553 5.55198 272.3 5.24531C272.06 4.93865 271.733 4.72531 271.32 4.60531C270.92 4.48531 270.393 4.42531 269.74 4.42531H267.38V16.5853C267.38 17.4653 267.92 17.9053 269 17.9053V18.3853H263.82V17.9053C264.9 17.9053 265.44 17.4653 265.44 16.5853ZM284.849 16.6053C283.729 17.952 282.336 18.6253 280.669 18.6253C279.002 18.6253 277.602 17.952 276.469 16.6053C275.349 15.2586 274.789 13.352 274.789 10.8853C274.789 8.44531 275.349 6.59865 276.469 5.34531C277.589 4.07865 278.989 3.44531 280.669 3.44531C282.349 3.44531 283.749 4.07865 284.869 5.34531C285.989 6.59865 286.549 8.44531 286.549 10.8853C286.549 13.352 285.982 15.2586 284.849 16.6053ZM277.889 16.0653C278.516 17.2786 279.442 17.8853 280.669 17.8853C281.896 17.8853 282.816 17.2786 283.429 16.0653C284.056 14.8386 284.369 13.1053 284.369 10.8653C284.369 6.41198 283.136 4.18531 280.669 4.18531C278.202 4.18531 276.969 6.41198 276.969 10.8653C276.969 13.1053 277.276 14.8386 277.889 16.0653ZM291.863 3.68531H305.223V4.16531C304.143 4.16531 303.603 4.60531 303.603 5.48531V16.5853C303.603 17.4653 304.143 17.9053 305.223 17.9053V18.3853H300.043V17.9053C301.123 17.9053 301.663 17.4653 301.663 16.5853V4.42531H295.423V16.5853C295.423 17.4653 295.963 17.9053 297.043 17.9053V18.3853H291.863V17.9053C292.943 17.9053 293.483 17.4653 293.483 16.5853V5.48531C293.483 4.60531 292.943 4.16531 291.863 4.16531V3.68531ZM309.784 11.8653V16.5853C309.784 17.4653 310.324 17.9053 311.404 17.9053V18.3853H306.224V17.9053C307.304 17.9053 307.844 17.4653 307.844 16.5853V5.48531C307.844 4.60531 307.304 4.16531 306.224 4.16531V3.68531H311.264C314.998 3.68531 316.864 5.02531 316.864 7.70531C316.864 9.15865 316.338 10.2186 315.284 10.8853C314.244 11.5386 312.904 11.8653 311.264 11.8653H309.784ZM309.784 4.42531V11.1253H311.024C312.131 11.1253 313.018 10.852 313.684 10.3053C314.351 9.74531 314.684 8.89198 314.684 7.74531C314.684 5.53198 313.464 4.42531 311.024 4.42531H309.784ZM328.113 16.6053C326.993 17.952 325.6 18.6253 323.933 18.6253C322.266 18.6253 320.866 17.952 319.733 16.6053C318.613 15.2586 318.053 13.352 318.053 10.8853C318.053 8.44531 318.613 6.59865 319.733 5.34531C320.853 4.07865 322.253 3.44531 323.933 3.44531C325.613 3.44531 327.013 4.07865 328.133 5.34531C329.253 6.59865 329.813 8.44531 329.813 10.8853C329.813 13.352 329.246 15.2586 328.113 16.6053ZM321.153 16.0653C321.78 17.2786 322.706 17.8853 323.933 17.8853C325.16 17.8853 326.08 17.2786 326.693 16.0653C327.32 14.8386 327.633 13.1053 327.633 10.8653C327.633 6.41198 326.4 4.18531 323.933 4.18531C321.466 4.18531 320.233 6.41198 320.233 10.8653C320.233 13.1053 320.54 14.8386 321.153 16.0653ZM343.051 22.4653H342.371C342.158 21.0253 341.944 20.092 341.731 19.6653C341.371 18.9453 340.684 18.532 339.671 18.4253C339.444 18.3986 339.198 18.3853 338.931 18.3853H334.091C333.691 18.3853 333.338 18.412 333.031 18.4653C332.724 18.532 332.458 18.6053 332.231 18.6853C332.018 18.7786 331.824 18.9253 331.651 19.1253C331.491 19.3386 331.364 19.5253 331.271 19.6853C331.178 19.8586 331.084 20.1186 330.991 20.4653C330.911 20.812 330.851 21.1053 330.811 21.3453C330.771 21.5986 330.718 21.972 330.651 22.4653H329.971V17.6453C330.651 17.592 331.284 17.1453 331.871 16.3053C332.458 15.452 332.918 14.432 333.251 13.2453C333.598 12.0453 333.864 10.8386 334.051 9.62531C334.251 8.39865 334.351 7.31198 334.351 6.36531V5.48531C334.351 4.60531 333.811 4.16531 332.731 4.16531V3.68531H342.771V4.16531C341.691 4.16531 341.151 4.60531 341.151 5.48531V16.3253C341.151 17.2053 341.691 17.6453 342.771 17.6453H343.051V22.4653ZM339.211 17.6453V4.42531H335.171V6.18531C335.171 8.42531 334.838 10.692 334.171 12.9853C333.518 15.2786 332.784 16.832 331.971 17.6453H339.211ZM350.433 12.4653L352.913 6.10531C353.139 5.54531 353.253 5.13865 353.253 4.88531C353.253 4.40531 352.779 4.16531 351.833 4.16531V3.68531H356.113V4.16531C355.513 4.16531 355.046 4.33198 354.713 4.66531C354.393 4.98531 354.119 5.43865 353.893 6.02531L350.893 13.8653C350.159 15.7986 349.573 17.0786 349.133 17.7053C348.706 18.3186 348.166 18.6253 347.513 18.6253C346.673 18.6253 346.106 18.2053 345.813 17.3653V16.3253C346.226 16.7786 346.766 17.0053 347.433 17.0053C348.273 17.0053 348.906 16.4786 349.333 15.4253L349.613 14.7053L345.113 5.52531C344.886 5.05865 344.619 4.71865 344.313 4.50531C344.019 4.27865 343.606 4.16531 343.073 4.16531V3.68531H348.413V4.16531C347.466 4.16531 346.993 4.39198 346.993 4.84531C346.993 5.01865 347.053 5.23865 347.173 5.50531L350.433 12.4653ZM359.669 12.9053V16.6453C359.669 17.4853 360.209 17.9053 361.289 17.9053V18.3853H356.109V17.9053C357.189 17.9053 357.729 17.4653 357.729 16.5853V5.48531C357.729 4.60531 357.189 4.16531 356.109 4.16531V3.68531H361.289V4.16531C360.209 4.16531 359.669 4.62531 359.669 5.54531V11.5253L364.249 5.88531C364.596 5.44531 364.769 5.09865 364.769 4.84531C364.769 4.39198 364.336 4.16531 363.469 4.16531V3.68531H368.409V4.16531C367.289 4.16531 366.403 4.57198 365.749 5.38531L362.609 9.24531L367.009 16.7253C367.449 17.4853 368.089 17.8653 368.929 17.8653V18.3853H365.749L361.349 10.8253L359.669 12.9053ZM374.078 4.42531H373.598C372.344 4.42531 371.478 4.65865 370.998 5.12531C370.518 5.57865 370.158 6.47865 369.918 7.82531H369.338V3.68531H380.758V7.82531H380.178C379.938 6.47865 379.578 5.57865 379.098 5.12531C378.618 4.65865 377.751 4.42531 376.498 4.42531H376.018V16.5853C376.018 17.4653 376.558 17.9053 377.638 17.9053V18.3853H372.458V17.9053C373.538 17.9053 374.078 17.4653 374.078 16.5853V4.42531ZM386.593 3.30531L391.173 16.0853C391.293 16.432 391.387 16.692 391.453 16.8653C391.533 17.0253 391.647 17.2053 391.793 17.4053C391.94 17.592 392.12 17.7253 392.333 17.8053C392.56 17.872 392.833 17.9053 393.153 17.9053V18.3853H387.793V17.9053C388.793 17.9053 389.293 17.6253 389.293 17.0653C389.293 16.8386 389.213 16.472 389.053 15.9653L388.353 13.9653H383.253L382.613 15.8053C382.427 16.3386 382.333 16.752 382.333 17.0453C382.333 17.3386 382.433 17.5586 382.633 17.7053C382.847 17.8386 383.233 17.9053 383.793 17.9053V18.3853H379.573V17.9053C380.173 17.9053 380.613 17.7586 380.893 17.4653C381.173 17.1586 381.427 16.6853 381.653 16.0453L386.133 3.30531H386.593ZM385.793 6.68531L383.513 13.1853H388.073L385.793 6.68531Z" fill="#1C2229"/>
</svg>
