<svg width="233" height="274" viewBox="0 0 233 274" fill="none" xmlns="http://www.w3.org/2000/svg">
<rect x="0.892507" y="0.892507" width="230.713" height="272.215" rx="3.31866" fill="white" stroke="#ADBFFD" stroke-width="1.78501"/>
<mask id="mask0_1387_2206" style="mask-type:alpha" maskUnits="userSpaceOnUse" x="0" y="0" width="233" height="274">
<path d="M3.91721e-07 4.2112C1.7538e-07 1.88544 1.8854 1.92479e-05 4.21117 1.92097e-05L228.287 1.55288e-05C230.613 1.54906e-05 232.498 1.88542 232.498 4.21118L232.498 269.788C232.498 272.114 230.613 274 228.287 274L4.21118 273.999C1.88542 273.999 2.53117e-05 272.113 2.50954e-05 269.788L3.91721e-07 4.2112Z" fill="#D9D9D9"/>
</mask>
<g mask="url(#mask0_1387_2206)">
<path d="M-97.7305 -103.998L869.855 821.236" stroke="#ADBFFD" stroke-width="0.842234"/>
<path d="M-527.473 190.971L440.113 1116.2" stroke="#ADBFFD" stroke-width="0.842234"/>
<path d="M190.188 -473.996L1157.77 451.238" stroke="#ADBFFD" stroke-width="0.842234"/>
<path d="M-239.553 -179.027L728.033 746.206" stroke="#ADBFFD" stroke-width="0.842234"/>
<path d="M46.2285 -288.998L1013.81 636.236" stroke="#ADBFFD" stroke-width="0.842234"/>
<path d="M-383.512 5.9707L584.074 931.204" stroke="#ADBFFD" stroke-width="0.842234"/>
<path d="M-61.7402 -150.248L905.845 774.986" stroke="#ADBFFD" stroke-width="0.842234"/>
<path d="M-491.482 144.719L476.103 1069.95" stroke="#ADBFFD" stroke-width="0.842234"/>
<path d="M82.2207 -335.246L1049.81 589.988" stroke="#ADBFFD" stroke-width="0.842234"/>
<path d="M-347.523 -40.2793L620.062 884.954" stroke="#ADBFFD" stroke-width="0.842234"/>
<path d="M-25.75 -196.498L941.836 728.736" stroke="#ADBFFD" stroke-width="0.842234"/>
<path d="M-455.492 98.4707L512.093 1023.7" stroke="#ADBFFD" stroke-width="0.842234"/>
<path d="M118.209 -381.496L1085.79 543.738" stroke="#ADBFFD" stroke-width="0.842234"/>
<path d="M-311.533 -86.5293L656.052 838.704" stroke="#ADBFFD" stroke-width="0.842234"/>
<path d="M10.2402 -242.748L977.826 682.486" stroke="#ADBFFD" stroke-width="0.842234"/>
<path d="M-419.502 52.2207L548.084 977.454" stroke="#ADBFFD" stroke-width="0.842234"/>
<path d="M154.197 -427.748L1121.78 497.486" stroke="#ADBFFD" stroke-width="0.842234"/>
<path d="M-275.543 -132.779L692.043 792.454" stroke="#ADBFFD" stroke-width="0.842234"/>
<path d="M-88.7324 -115.561L878.853 809.673" stroke="#ADBFFD" stroke-width="0.842234"/>
<path d="M-518.475 179.408L449.111 1104.64" stroke="#ADBFFD" stroke-width="0.842234"/>
<path d="M199.186 -485.559L1166.77 439.675" stroke="#ADBFFD" stroke-width="0.842234"/>
<path d="M-230.555 -190.592L737.031 734.642" stroke="#ADBFFD" stroke-width="0.842234"/>
<path d="M55.2266 -300.561L1022.81 624.673" stroke="#ADBFFD" stroke-width="0.842234"/>
<path d="M-374.516 -5.5918L593.07 919.642" stroke="#ADBFFD" stroke-width="0.842234"/>
<path d="M-52.7422 -161.811L914.843 763.423" stroke="#ADBFFD" stroke-width="0.842234"/>
<path d="M-482.486 133.156L485.099 1058.39" stroke="#ADBFFD" stroke-width="0.842234"/>
<path d="M91.2168 -346.811L1058.8 578.423" stroke="#ADBFFD" stroke-width="0.842234"/>
<path d="M-338.525 -51.8418L629.06 873.392" stroke="#ADBFFD" stroke-width="0.842234"/>
<path d="M-16.7539 -208.061L950.832 717.173" stroke="#ADBFFD" stroke-width="0.842234"/>
<path d="M-446.496 86.9082L521.089 1012.14" stroke="#ADBFFD" stroke-width="0.842234"/>
<path d="M127.207 -393.059L1094.79 532.175" stroke="#ADBFFD" stroke-width="0.842234"/>
<path d="M-302.535 -98.0918L665.05 827.142" stroke="#ADBFFD" stroke-width="0.842234"/>
<path d="M19.2363 -254.311L986.822 670.923" stroke="#ADBFFD" stroke-width="0.842234"/>
<path d="M-410.506 40.6582L557.08 965.892" stroke="#ADBFFD" stroke-width="0.842234"/>
<path d="M163.195 -439.309L1130.78 485.925" stroke="#ADBFFD" stroke-width="0.842234"/>
<path d="M-266.545 -144.342L701.041 780.892" stroke="#ADBFFD" stroke-width="0.842234"/>
<path d="M-79.7344 -127.125L887.851 798.109" stroke="#ADBFFD" stroke-width="0.842234"/>
<path d="M-509.479 167.846L458.107 1093.08" stroke="#ADBFFD" stroke-width="0.842234"/>
<path d="M208.182 -497.121L1175.77 428.113" stroke="#ADBFFD" stroke-width="0.842234"/>
<path d="M-221.559 -202.154L746.027 723.079" stroke="#ADBFFD" stroke-width="0.842234"/>
<path d="M64.2246 -312.123L1031.81 613.111" stroke="#ADBFFD" stroke-width="0.842234"/>
<path d="M-365.518 -17.1543L602.068 908.079" stroke="#ADBFFD" stroke-width="0.842234"/>
<path d="M-43.7461 -173.373L923.839 751.861" stroke="#ADBFFD" stroke-width="0.842234"/>
<path d="M-473.486 121.596L494.099 1046.83" stroke="#ADBFFD" stroke-width="0.842234"/>
<path d="M100.215 -358.371L1067.8 566.863" stroke="#ADBFFD" stroke-width="0.842234"/>
<path d="M-329.529 -63.4023L638.056 861.831" stroke="#ADBFFD" stroke-width="0.842234"/>
<path d="M-7.75586 -219.623L959.83 705.611" stroke="#ADBFFD" stroke-width="0.842234"/>
<path d="M-437.498 75.3438L530.087 1000.58" stroke="#ADBFFD" stroke-width="0.842234"/>
<path d="M136.203 -404.623L1103.79 520.611" stroke="#ADBFFD" stroke-width="0.842234"/>
<path d="M-293.539 -109.654L674.046 815.579" stroke="#ADBFFD" stroke-width="0.842234"/>
<path d="M28.2344 -265.873L995.82 659.361" stroke="#ADBFFD" stroke-width="0.842234"/>
<path d="M-401.506 29.0957L566.08 954.329" stroke="#ADBFFD" stroke-width="0.842234"/>
<path d="M172.193 -450.871L1139.78 474.363" stroke="#ADBFFD" stroke-width="0.842234"/>
<path d="M-257.549 -155.904L710.037 769.329" stroke="#ADBFFD" stroke-width="0.842234"/>
<path d="M-70.7363 -138.686L896.849 786.548" stroke="#ADBFFD" stroke-width="0.842234"/>
<path d="M-500.48 156.283L467.105 1081.52" stroke="#ADBFFD" stroke-width="0.842234"/>
<path d="M73.2207 -323.686L1040.81 601.548" stroke="#ADBFFD" stroke-width="0.842234"/>
<path d="M-356.52 -28.7168L611.066 896.517" stroke="#ADBFFD" stroke-width="0.842234"/>
<path d="M-34.748 -184.936L932.837 740.298" stroke="#ADBFFD" stroke-width="0.842234"/>
<path d="M-464.49 110.033L503.095 1035.27" stroke="#ADBFFD" stroke-width="0.842234"/>
<path d="M109.211 -369.936L1076.8 555.298" stroke="#ADBFFD" stroke-width="0.842234"/>
<path d="M-320.529 -74.9648L647.056 850.269" stroke="#ADBFFD" stroke-width="0.842234"/>
<path d="M1.24023 -231.186L968.826 694.048" stroke="#ADBFFD" stroke-width="0.842234"/>
<path d="M-428.5 63.7832L539.086 989.017" stroke="#ADBFFD" stroke-width="0.842234"/>
<path d="M145.201 -416.184L1112.79 509.05" stroke="#ADBFFD" stroke-width="0.842234"/>
<path d="M-284.541 -121.215L683.044 804.019" stroke="#ADBFFD" stroke-width="0.842234"/>
<path d="M37.2305 -277.434L1004.82 647.8" stroke="#ADBFFD" stroke-width="0.842234"/>
<path d="M-392.512 17.5332L575.074 942.767" stroke="#ADBFFD" stroke-width="0.842234"/>
<path d="M181.191 -462.436L1148.78 462.798" stroke="#ADBFFD" stroke-width="0.842234"/>
<path d="M-248.549 -167.467L719.037 757.767" stroke="#ADBFFD" stroke-width="0.842234"/>
</g>
<path d="M72.868 32.9471L193.31 222.583C141.009 255.374 71.9739 239.807 38.834 187.628C5.6941 135.449 20.9536 66.3456 72.868 32.9471Z" fill="white" stroke="#ADBFFD" stroke-width="1.33876"/>
<path d="M132.996 127.282L132.878 127.899L133.487 128.056L211.354 148.043C206.352 166.896 194.518 183.989 176.755 195.27C139.275 219.075 89.5943 207.988 65.7901 170.508C41.986 133.029 53.0723 83.3482 90.5522 59.544C108.315 48.2623 128.817 44.8176 148.008 48.3053L132.996 127.282Z" fill="white" stroke="#ADBFFD" stroke-width="1.33876"/>
<circle cx="133.654" cy="127.409" r="47.9684" transform="rotate(-32.4204 133.654 127.409)" fill="#ADBFFD" stroke="#ADBFFD" stroke-width="1.33876"/>
<path d="M128.444 130.24C128.436 130.277 128.429 130.329 128.421 130.396C128.414 130.463 128.41 130.519 128.41 130.564C128.41 130.735 128.462 130.872 128.566 130.976C128.678 131.081 128.868 131.133 129.135 131.133L129.091 131.4H126.413L126.458 131.133C126.77 131.133 126.997 131.066 127.138 130.932C127.28 130.791 127.369 130.612 127.406 130.396L128.41 124.305L124.807 131.4H124.505L123.211 124.283L122.23 130.24C122.222 130.277 122.215 130.329 122.207 130.396C122.2 130.463 122.196 130.519 122.196 130.564C122.196 130.735 122.248 130.872 122.352 130.976C122.464 131.081 122.654 131.133 122.921 131.133L122.877 131.4H120.735L120.779 131.133C121.092 131.133 121.318 131.066 121.46 130.932C121.601 130.791 121.69 130.612 121.728 130.396L122.732 124.361C122.739 124.324 122.747 124.271 122.754 124.205C122.761 124.138 122.765 124.082 122.765 124.037C122.765 123.866 122.709 123.729 122.598 123.624C122.486 123.52 122.293 123.468 122.018 123.468L122.062 123.2H124.082L125.242 129.56L128.488 123.2H130.441L130.396 123.468C130.076 123.468 129.846 123.539 129.704 123.68C129.563 123.822 129.474 123.996 129.437 124.205L128.444 130.24ZM130.964 127.072C130.971 127.035 130.975 127.001 130.975 126.971C130.982 126.934 130.986 126.904 130.986 126.882C130.986 126.748 130.938 126.652 130.841 126.592C130.744 126.525 130.577 126.492 130.339 126.492L130.384 126.213L131.845 125.711H132.079L131.455 129.504C131.44 129.571 131.429 129.645 131.421 129.727C131.421 129.809 131.421 129.876 131.421 129.928C131.421 130.047 131.432 130.162 131.455 130.274C131.477 130.385 131.518 130.486 131.577 130.575C131.644 130.664 131.73 130.735 131.834 130.787C131.938 130.839 132.072 130.865 132.236 130.865C132.392 130.865 132.548 130.82 132.704 130.731C132.86 130.634 133.002 130.515 133.128 130.374C133.255 130.225 133.362 130.058 133.452 129.872C133.548 129.686 133.615 129.496 133.652 129.303L134.244 125.822H135.136L134.422 130.162C134.415 130.199 134.407 130.248 134.4 130.307C134.392 130.367 134.389 130.415 134.389 130.452C134.389 130.675 134.485 130.787 134.679 130.787C134.828 130.787 134.958 130.738 135.069 130.642C135.181 130.538 135.318 130.389 135.482 130.196L135.382 130.709C135.233 130.939 135.077 131.121 134.913 131.255C134.757 131.389 134.549 131.456 134.288 131.456C133.969 131.456 133.753 131.374 133.641 131.211C133.53 131.04 133.474 130.835 133.474 130.597C133.474 130.553 133.474 130.512 133.474 130.474C133.474 130.437 133.478 130.396 133.485 130.352C133.418 130.478 133.333 130.612 133.229 130.753C133.124 130.887 132.998 131.01 132.849 131.121C132.708 131.233 132.548 131.326 132.369 131.4C132.191 131.475 131.998 131.512 131.789 131.512C131.551 131.512 131.347 131.475 131.176 131.4C131.012 131.326 130.878 131.229 130.774 131.11C130.677 130.984 130.607 130.839 130.562 130.675C130.518 130.504 130.495 130.326 130.495 130.14C130.495 130.065 130.499 129.976 130.506 129.872C130.514 129.768 130.525 129.679 130.54 129.604L130.964 127.072ZM139.015 128.6C139.231 128.749 139.406 128.927 139.54 129.136C139.674 129.336 139.741 129.563 139.741 129.816C139.741 130.077 139.692 130.315 139.596 130.53C139.499 130.738 139.365 130.917 139.194 131.066C139.023 131.207 138.822 131.319 138.591 131.4C138.368 131.475 138.123 131.512 137.855 131.512C137.513 131.512 137.171 131.456 136.829 131.345C136.487 131.226 136.208 131.069 135.992 130.876L136.226 129.437H136.528C136.58 129.995 136.736 130.419 136.996 130.709C137.264 130.999 137.576 131.144 137.933 131.144C138.216 131.144 138.435 131.062 138.591 130.898C138.748 130.727 138.826 130.523 138.826 130.285C138.826 130.084 138.774 129.913 138.67 129.772C138.565 129.623 138.428 129.485 138.257 129.359L137.219 128.578C137.033 128.429 136.877 128.254 136.751 128.053C136.624 127.853 136.561 127.63 136.561 127.384C136.561 127.109 136.606 126.867 136.695 126.659C136.792 126.451 136.918 126.276 137.074 126.135C137.238 125.993 137.428 125.889 137.643 125.822C137.866 125.748 138.104 125.711 138.357 125.711C138.647 125.711 138.937 125.763 139.227 125.867C139.517 125.964 139.748 126.112 139.919 126.313L139.718 127.518H139.439C139.343 126.982 139.19 126.607 138.982 126.391C138.774 126.176 138.528 126.068 138.246 126.068C137.993 126.068 137.781 126.135 137.61 126.268C137.446 126.402 137.364 126.607 137.364 126.882C137.364 127.083 137.42 127.261 137.532 127.418C137.643 127.574 137.788 127.719 137.967 127.853L139.015 128.6ZM142.858 124.74L142.669 125.822H144.242L144.164 126.224H142.602L142.044 129.749C142.029 129.824 142.018 129.902 142.01 129.984C142.003 130.058 141.999 130.125 141.999 130.184C141.999 130.4 142.044 130.564 142.133 130.675C142.222 130.787 142.367 130.843 142.568 130.843C142.762 130.843 142.925 130.809 143.059 130.742C143.2 130.668 143.338 130.549 143.472 130.385L143.405 130.82C143.316 131.006 143.182 131.17 143.003 131.311C142.832 131.445 142.591 131.512 142.278 131.512C141.862 131.512 141.557 131.404 141.363 131.188C141.17 130.973 141.073 130.675 141.073 130.296C141.073 130.147 141.092 129.969 141.129 129.76L141.698 126.224H140.672L140.716 125.99L142.624 124.74H142.858Z" fill="white"/>
<path d="M120.149 185.151H119.837C119.814 184.757 119.755 184.415 119.658 184.125C119.569 183.828 119.45 183.582 119.301 183.389C119.16 183.195 118.996 183.05 118.81 182.954C118.624 182.857 118.431 182.809 118.23 182.809C117.873 182.809 117.579 182.92 117.349 183.143C117.126 183.366 117.014 183.657 117.014 184.014C117.014 184.17 117.04 184.318 117.092 184.46C117.144 184.594 117.215 184.728 117.304 184.861C117.393 184.995 117.494 185.125 117.605 185.252C117.717 185.378 117.832 185.505 117.951 185.631L119.078 186.803C119.331 187.063 119.543 187.338 119.714 187.628C119.892 187.911 119.982 188.227 119.982 188.576C119.982 188.956 119.915 189.29 119.781 189.581C119.647 189.863 119.465 190.101 119.234 190.295C119.004 190.488 118.736 190.633 118.431 190.73C118.133 190.826 117.814 190.875 117.471 190.875C117.278 190.875 117.074 190.852 116.858 190.808C116.642 190.771 116.427 190.715 116.211 190.64C116.003 190.559 115.805 190.462 115.62 190.35C115.441 190.231 115.292 190.094 115.173 189.938L115.519 187.862H115.843C115.85 188.301 115.898 188.684 115.988 189.012C116.084 189.331 116.211 189.599 116.367 189.815C116.523 190.031 116.705 190.19 116.914 190.295C117.129 190.399 117.364 190.451 117.617 190.451C117.795 190.451 117.962 190.425 118.119 190.373C118.282 190.313 118.427 190.228 118.554 190.116C118.68 190.004 118.781 189.863 118.855 189.692C118.929 189.521 118.966 189.32 118.966 189.09C118.966 188.844 118.903 188.61 118.777 188.387C118.65 188.164 118.438 187.892 118.141 187.572L116.992 186.356C116.754 186.096 116.549 185.832 116.378 185.564C116.215 185.297 116.133 184.984 116.133 184.627C116.133 184.285 116.189 183.976 116.3 183.701C116.419 183.426 116.579 183.195 116.78 183.009C116.981 182.816 117.215 182.667 117.483 182.563C117.758 182.459 118.052 182.407 118.364 182.407C118.84 182.407 119.253 182.493 119.602 182.664C119.959 182.835 120.242 183.054 120.45 183.322L120.149 185.151ZM124.611 187.07C124.626 187.003 124.634 186.929 124.634 186.847C124.641 186.765 124.645 186.698 124.645 186.646C124.645 186.527 124.63 186.412 124.6 186.301C124.578 186.189 124.533 186.089 124.466 185.999C124.407 185.91 124.321 185.839 124.21 185.787C124.106 185.735 123.972 185.709 123.808 185.709C123.637 185.709 123.47 185.758 123.306 185.854C123.15 185.944 123.005 186.066 122.871 186.222C122.745 186.371 122.633 186.542 122.536 186.736C122.44 186.922 122.376 187.108 122.347 187.293L121.767 190.752H120.874L122.023 183.824C122.031 183.787 122.034 183.753 122.034 183.723C122.042 183.686 122.046 183.657 122.046 183.634C122.046 183.374 121.83 183.244 121.398 183.244L121.443 182.976L122.905 182.474H123.15L122.525 186.211C122.592 186.077 122.678 185.944 122.782 185.81C122.893 185.668 123.02 185.542 123.161 185.43C123.31 185.319 123.474 185.23 123.652 185.163C123.838 185.096 124.039 185.062 124.254 185.062C124.492 185.062 124.693 185.099 124.857 185.174C125.028 185.248 125.166 185.349 125.27 185.475C125.374 185.594 125.448 185.739 125.493 185.91C125.545 186.074 125.571 186.249 125.571 186.434C125.571 186.509 125.567 186.598 125.56 186.702C125.552 186.806 125.541 186.896 125.526 186.97L125.102 189.514C125.095 189.551 125.087 189.599 125.08 189.659C125.073 189.718 125.069 189.766 125.069 189.804C125.069 189.915 125.095 190.001 125.147 190.06C125.206 190.112 125.281 190.138 125.37 190.138C125.519 190.138 125.649 190.09 125.761 189.993C125.872 189.889 126.006 189.74 126.162 189.547L126.073 190.06C125.924 190.291 125.768 190.473 125.604 190.607C125.448 190.741 125.24 190.808 124.98 190.808C124.66 190.808 124.444 190.726 124.333 190.562C124.221 190.391 124.165 190.187 124.165 189.949C124.165 189.867 124.169 189.789 124.176 189.714C124.184 189.64 124.195 189.562 124.21 189.48L124.611 187.07ZM129.229 185.062C129.556 185.062 129.846 185.122 130.099 185.241C130.352 185.36 130.56 185.523 130.723 185.732C130.895 185.94 131.021 186.185 131.103 186.468C131.192 186.751 131.237 187.052 131.237 187.372C131.237 187.855 131.173 188.309 131.047 188.733C130.921 189.157 130.742 189.528 130.512 189.848C130.281 190.161 130.006 190.41 129.686 190.596C129.366 190.774 129.013 190.864 128.626 190.864C128.321 190.864 128.042 190.808 127.789 190.696C127.544 190.585 127.336 190.428 127.165 190.228C126.994 190.027 126.86 189.789 126.763 189.514C126.674 189.231 126.629 188.919 126.629 188.576C126.629 188.041 126.692 187.558 126.819 187.126C126.953 186.695 127.135 186.327 127.365 186.022C127.596 185.717 127.867 185.482 128.18 185.319C128.5 185.148 128.849 185.062 129.229 185.062ZM128.615 190.507C128.92 190.507 129.176 190.384 129.385 190.138C129.593 189.885 129.76 189.581 129.887 189.224C130.013 188.867 130.102 188.495 130.155 188.108C130.214 187.714 130.244 187.379 130.244 187.104C130.244 186.501 130.155 186.074 129.976 185.821C129.798 185.561 129.556 185.43 129.251 185.43C129.043 185.43 128.857 185.49 128.693 185.609C128.537 185.72 128.396 185.873 128.269 186.066C128.15 186.26 128.05 186.479 127.968 186.725C127.886 186.963 127.819 187.208 127.767 187.461C127.715 187.714 127.678 187.963 127.655 188.208C127.633 188.446 127.622 188.658 127.622 188.844C127.622 189.447 127.711 189.874 127.89 190.127C128.076 190.38 128.317 190.507 128.615 190.507ZM132.719 186.423C132.727 186.386 132.73 186.353 132.73 186.323C132.738 186.286 132.741 186.256 132.741 186.234C132.741 186.1 132.693 186.003 132.596 185.944C132.5 185.877 132.332 185.843 132.094 185.843L132.139 185.564L133.601 185.062H133.835L133.21 188.855C133.195 188.922 133.184 188.997 133.177 189.079C133.177 189.16 133.177 189.227 133.177 189.279C133.177 189.398 133.188 189.514 133.21 189.625C133.232 189.737 133.273 189.837 133.333 189.926C133.4 190.016 133.485 190.086 133.589 190.138C133.693 190.19 133.827 190.216 133.991 190.216C134.147 190.216 134.303 190.172 134.46 190.083C134.616 189.986 134.757 189.867 134.883 189.726C135.01 189.577 135.118 189.409 135.207 189.224C135.304 189.038 135.371 188.848 135.408 188.655L135.999 185.174H136.892L136.178 189.514C136.17 189.551 136.163 189.599 136.155 189.659C136.148 189.718 136.144 189.766 136.144 189.804C136.144 190.027 136.241 190.138 136.434 190.138C136.583 190.138 136.713 190.09 136.825 189.993C136.936 189.889 137.074 189.74 137.237 189.547L137.137 190.06C136.988 190.291 136.832 190.473 136.668 190.607C136.512 190.741 136.304 190.808 136.044 190.808C135.724 190.808 135.508 190.726 135.397 190.562C135.285 190.391 135.229 190.187 135.229 189.949C135.229 189.904 135.229 189.863 135.229 189.826C135.229 189.789 135.233 189.748 135.24 189.703C135.174 189.83 135.088 189.964 134.984 190.105C134.88 190.239 134.753 190.361 134.605 190.473C134.463 190.585 134.303 190.678 134.125 190.752C133.946 190.826 133.753 190.864 133.545 190.864C133.307 190.864 133.102 190.826 132.931 190.752C132.767 190.678 132.634 190.581 132.529 190.462C132.433 190.335 132.362 190.19 132.318 190.027C132.273 189.856 132.251 189.677 132.251 189.491C132.251 189.417 132.254 189.328 132.262 189.224C132.269 189.119 132.28 189.03 132.295 188.956L132.719 186.423ZM138.885 183.824C138.893 183.787 138.897 183.753 138.897 183.723C138.904 183.686 138.908 183.657 138.908 183.634C138.908 183.374 138.692 183.244 138.261 183.244L138.305 182.976L139.767 182.474H140.012L138.841 189.514C138.833 189.551 138.826 189.599 138.818 189.659C138.811 189.718 138.807 189.766 138.807 189.804C138.807 190.027 138.908 190.138 139.109 190.138C139.257 190.138 139.387 190.09 139.499 189.993C139.611 189.889 139.744 189.74 139.901 189.547L139.8 190.06C139.659 190.291 139.506 190.473 139.343 190.607C139.179 190.741 138.967 190.808 138.707 190.808C138.395 190.808 138.183 190.726 138.071 190.562C137.959 190.391 137.904 190.187 137.904 189.949C137.904 189.867 137.907 189.789 137.915 189.714C137.922 189.64 137.933 189.562 137.948 189.48L138.885 183.824ZM144.113 190.752L143.733 189.781C143.666 189.915 143.581 190.049 143.477 190.183C143.373 190.309 143.254 190.425 143.12 190.529C142.993 190.626 142.848 190.704 142.685 190.763C142.529 190.83 142.361 190.864 142.183 190.864C141.58 190.864 141.138 190.67 140.855 190.283C140.572 189.897 140.431 189.369 140.431 188.699C140.431 188.253 140.491 187.814 140.61 187.383C140.736 186.944 140.911 186.553 141.134 186.211C141.357 185.869 141.621 185.594 141.926 185.386C142.231 185.17 142.569 185.062 142.941 185.062C143.142 185.062 143.317 185.092 143.466 185.151C143.622 185.211 143.752 185.289 143.856 185.386C143.96 185.475 144.042 185.579 144.102 185.698C144.161 185.817 144.206 185.932 144.235 186.044L144.604 183.824C144.611 183.787 144.615 183.753 144.615 183.723C144.622 183.686 144.626 183.657 144.626 183.634C144.626 183.374 144.41 183.244 143.979 183.244L144.023 182.976L145.485 182.474H145.73L144.358 190.752H144.113ZM143.098 185.62C142.867 185.62 142.651 185.709 142.45 185.888C142.25 186.066 142.075 186.308 141.926 186.613C141.785 186.918 141.673 187.271 141.591 187.673C141.51 188.067 141.469 188.483 141.469 188.922C141.469 189.354 141.551 189.696 141.714 189.949C141.885 190.202 142.134 190.328 142.462 190.328C142.625 190.328 142.778 190.283 142.919 190.194C143.068 190.097 143.202 189.975 143.321 189.826C143.44 189.67 143.536 189.495 143.611 189.302C143.693 189.108 143.752 188.907 143.789 188.699L144.023 187.316C144.038 187.241 144.046 187.16 144.046 187.07C144.053 186.974 144.057 186.892 144.057 186.825C144.057 186.446 143.975 186.152 143.812 185.944C143.648 185.728 143.41 185.62 143.098 185.62Z" fill="#104A99"/>
<path d="M120.822 223.865C121.238 223.865 121.606 223.772 121.926 223.586C122.246 223.4 122.558 223.11 122.863 222.716L122.796 223.162C122.714 223.363 122.607 223.56 122.473 223.753C122.339 223.947 122.179 224.121 121.993 224.277C121.807 224.426 121.591 224.549 121.346 224.646C121.1 224.735 120.825 224.78 120.52 224.78C120.074 224.78 119.676 224.698 119.327 224.534C118.985 224.37 118.698 224.147 118.468 223.865C118.237 223.575 118.062 223.233 117.943 222.838C117.824 222.437 117.765 222.002 117.765 221.533C117.765 221.154 117.798 220.763 117.865 220.362C117.932 219.96 118.033 219.566 118.166 219.179C118.3 218.792 118.468 218.428 118.668 218.086C118.869 217.744 119.107 217.442 119.382 217.182C119.658 216.922 119.966 216.717 120.308 216.568C120.658 216.412 121.041 216.334 121.458 216.334C122.03 216.334 122.499 216.457 122.863 216.702C123.235 216.948 123.495 217.26 123.644 217.639L123.343 219.514H122.986C122.986 219.194 122.964 218.87 122.919 218.543C122.882 218.208 122.807 217.911 122.696 217.651C122.592 217.383 122.443 217.167 122.25 217.004C122.056 216.833 121.803 216.747 121.491 216.747C121.193 216.747 120.922 216.821 120.677 216.97C120.431 217.111 120.212 217.301 120.018 217.539C119.832 217.777 119.669 218.052 119.527 218.365C119.394 218.677 119.282 219.004 119.193 219.346C119.104 219.689 119.037 220.031 118.992 220.373C118.955 220.715 118.936 221.035 118.936 221.332C118.936 221.786 118.985 222.173 119.081 222.492C119.178 222.812 119.312 223.076 119.483 223.285C119.654 223.485 119.851 223.634 120.074 223.731C120.305 223.82 120.554 223.865 120.822 223.865ZM126.212 218.978C126.539 218.978 126.829 219.038 127.082 219.157C127.335 219.276 127.543 219.439 127.707 219.648C127.878 219.856 128.004 220.101 128.086 220.384C128.175 220.667 128.22 220.968 128.22 221.288C128.22 221.771 128.157 222.225 128.03 222.649C127.904 223.073 127.725 223.444 127.495 223.764C127.264 224.077 126.989 224.326 126.669 224.512C126.349 224.69 125.996 224.78 125.609 224.78C125.304 224.78 125.025 224.724 124.773 224.612C124.527 224.501 124.319 224.344 124.148 224.144C123.977 223.943 123.843 223.705 123.746 223.43C123.657 223.147 123.612 222.835 123.612 222.492C123.612 221.957 123.676 221.474 123.802 221.042C123.936 220.611 124.118 220.243 124.349 219.938C124.579 219.633 124.851 219.398 125.163 219.235C125.483 219.064 125.832 218.978 126.212 218.978ZM125.598 224.423C125.903 224.423 126.16 224.3 126.368 224.054C126.576 223.801 126.744 223.497 126.87 223.14C126.996 222.783 127.086 222.411 127.138 222.024C127.197 221.63 127.227 221.295 127.227 221.02C127.227 220.417 127.138 219.99 126.959 219.737C126.781 219.477 126.539 219.346 126.234 219.346C126.026 219.346 125.84 219.406 125.676 219.525C125.52 219.636 125.379 219.789 125.252 219.982C125.133 220.176 125.033 220.395 124.951 220.641C124.869 220.879 124.802 221.124 124.75 221.377C124.698 221.63 124.661 221.879 124.639 222.124C124.616 222.362 124.605 222.574 124.605 222.76C124.605 223.363 124.694 223.79 124.873 224.043C125.059 224.296 125.301 224.423 125.598 224.423ZM129.702 220.339C129.71 220.302 129.714 220.269 129.714 220.239C129.721 220.202 129.725 220.172 129.725 220.15C129.725 220.016 129.676 219.919 129.58 219.86C129.483 219.793 129.316 219.759 129.078 219.759L129.122 219.48L130.584 218.978H130.818L130.193 222.771C130.178 222.838 130.167 222.913 130.16 222.995C130.16 223.076 130.16 223.143 130.16 223.195C130.16 223.314 130.171 223.43 130.193 223.541C130.216 223.653 130.256 223.753 130.316 223.842C130.383 223.932 130.468 224.002 130.573 224.054C130.677 224.106 130.811 224.132 130.974 224.132C131.13 224.132 131.287 224.088 131.443 223.999C131.599 223.902 131.74 223.783 131.867 223.642C131.993 223.493 132.101 223.325 132.19 223.14C132.287 222.954 132.354 222.764 132.391 222.571L132.982 219.09H133.875L133.161 223.43C133.153 223.467 133.146 223.515 133.139 223.575C133.131 223.634 133.127 223.682 133.127 223.72C133.127 223.943 133.224 224.054 133.417 224.054C133.566 224.054 133.696 224.006 133.808 223.909C133.919 223.805 134.057 223.656 134.221 223.463L134.12 223.976C133.972 224.207 133.815 224.389 133.652 224.523C133.496 224.657 133.287 224.724 133.027 224.724C132.707 224.724 132.491 224.642 132.38 224.478C132.268 224.307 132.213 224.103 132.213 223.865C132.213 223.82 132.213 223.779 132.213 223.742C132.213 223.705 132.216 223.664 132.224 223.619C132.157 223.746 132.071 223.88 131.967 224.021C131.863 224.155 131.737 224.277 131.588 224.389C131.446 224.501 131.287 224.594 131.108 224.668C130.93 224.742 130.736 224.78 130.528 224.78C130.29 224.78 130.085 224.742 129.914 224.668C129.751 224.594 129.617 224.497 129.513 224.378C129.416 224.251 129.345 224.106 129.301 223.943C129.256 223.772 129.234 223.593 129.234 223.407C129.234 223.333 129.238 223.244 129.245 223.14C129.252 223.035 129.264 222.946 129.278 222.872L129.702 220.339ZM135.869 217.74C135.876 217.703 135.88 217.669 135.88 217.639C135.887 217.602 135.891 217.573 135.891 217.55C135.891 217.29 135.675 217.16 135.244 217.16L135.288 216.892L136.75 216.39H136.995L135.824 223.43C135.817 223.467 135.809 223.515 135.802 223.575C135.794 223.634 135.791 223.682 135.791 223.72C135.791 223.943 135.891 224.054 136.092 224.054C136.24 224.054 136.371 224.006 136.482 223.909C136.594 223.805 136.728 223.656 136.884 223.463L136.783 223.976C136.642 224.207 136.49 224.389 136.326 224.523C136.162 224.657 135.95 224.724 135.69 224.724C135.378 224.724 135.166 224.642 135.054 224.478C134.943 224.307 134.887 224.103 134.887 223.865C134.887 223.783 134.891 223.705 134.898 223.63C134.905 223.556 134.917 223.478 134.931 223.396L135.869 217.74ZM141.096 224.668L140.717 223.697C140.65 223.831 140.564 223.965 140.46 224.099C140.356 224.225 140.237 224.341 140.103 224.445C139.977 224.542 139.832 224.62 139.668 224.679C139.512 224.746 139.344 224.78 139.166 224.78C138.563 224.78 138.121 224.586 137.838 224.199C137.556 223.813 137.414 223.285 137.414 222.615C137.414 222.169 137.474 221.73 137.593 221.299C137.719 220.86 137.894 220.469 138.117 220.127C138.34 219.785 138.604 219.51 138.909 219.302C139.214 219.086 139.553 218.978 139.925 218.978C140.125 218.978 140.3 219.008 140.449 219.067C140.605 219.127 140.735 219.205 140.839 219.302C140.943 219.391 141.025 219.495 141.085 219.614C141.144 219.733 141.189 219.848 141.219 219.96L141.587 217.74C141.594 217.703 141.598 217.669 141.598 217.639C141.605 217.602 141.609 217.573 141.609 217.55C141.609 217.29 141.393 217.16 140.962 217.16L141.007 216.892L142.468 216.39H142.714L141.341 224.668H141.096ZM140.081 219.536C139.85 219.536 139.634 219.625 139.434 219.804C139.233 219.982 139.058 220.224 138.909 220.529C138.768 220.834 138.656 221.187 138.575 221.589C138.493 221.983 138.452 222.4 138.452 222.838C138.452 223.27 138.534 223.612 138.697 223.865C138.868 224.118 139.118 224.244 139.445 224.244C139.608 224.244 139.761 224.199 139.902 224.11C140.051 224.013 140.185 223.891 140.304 223.742C140.423 223.586 140.52 223.411 140.594 223.218C140.676 223.024 140.735 222.823 140.772 222.615L141.007 221.232C141.022 221.157 141.029 221.076 141.029 220.986C141.036 220.89 141.04 220.808 141.04 220.741C141.04 220.362 140.958 220.068 140.795 219.86C140.631 219.644 140.393 219.536 140.081 219.536Z" fill="#104A99"/>
<path d="M131.562 28.1477L131.529 28.4155C131.194 28.4155 130.941 28.5159 130.77 28.7167C130.599 28.9101 130.447 29.1555 130.313 29.453L127.223 36.4034H126.821L126.096 30.8364L123.675 36.4034H123.273L122.303 29.3192C122.28 29.1779 122.254 29.0514 122.225 28.9398C122.195 28.8283 122.15 28.7353 122.091 28.6609C122.031 28.5791 121.949 28.5196 121.845 28.4824C121.749 28.4378 121.622 28.4155 121.466 28.4155L121.499 28.1477H124.244L124.199 28.4155C123.887 28.4155 123.656 28.4638 123.508 28.5605C123.366 28.6572 123.296 28.8357 123.296 29.096C123.296 29.1555 123.299 29.2225 123.307 29.2969C123.314 29.3638 123.325 29.4307 123.34 29.4977L124.043 34.5069L126.007 29.9885L125.94 29.3192C125.925 29.1779 125.902 29.0514 125.873 28.9398C125.843 28.8283 125.795 28.7353 125.728 28.6609C125.668 28.5791 125.583 28.5196 125.471 28.4824C125.367 28.4378 125.229 28.4155 125.058 28.4155L125.103 28.1477H127.859L127.814 28.4155C127.502 28.4155 127.275 28.4638 127.133 28.5605C127 28.6498 126.933 28.8134 126.933 29.0514C126.933 29.1779 126.944 29.3192 126.966 29.4754L127.58 34.4957L129.733 29.7096C129.792 29.5832 129.856 29.4382 129.922 29.2745C129.989 29.1109 130.023 28.9547 130.023 28.806C130.023 28.687 129.971 28.594 129.867 28.5271C129.763 28.4527 129.58 28.4155 129.32 28.4155L129.365 28.1477H131.562ZM132.807 30.6579C133.135 30.6579 133.425 30.7174 133.678 30.8364C133.93 30.9554 134.139 31.1191 134.302 31.3273C134.473 31.5356 134.6 31.781 134.682 32.0636C134.771 32.3463 134.815 32.6475 134.815 32.9673C134.815 33.4507 134.752 33.9044 134.626 34.3284C134.499 34.7523 134.321 35.1242 134.09 35.444C133.86 35.7564 133.585 36.0055 133.265 36.1915C132.945 36.37 132.592 36.4592 132.205 36.4592C131.9 36.4592 131.621 36.4034 131.368 36.2919C131.123 36.1803 130.914 36.0241 130.743 35.8233C130.572 35.6225 130.438 35.3845 130.342 35.1093C130.253 34.8267 130.208 34.5143 130.208 34.1722C130.208 33.6367 130.271 33.1532 130.398 32.7218C130.531 32.2905 130.714 31.9223 130.944 31.6174C131.175 31.3124 131.446 31.0781 131.759 30.9145C132.078 30.7435 132.428 30.6579 132.807 30.6579ZM132.194 36.1022C132.499 36.1022 132.755 35.9795 132.964 35.7341C133.172 35.4812 133.339 35.1762 133.466 34.8192C133.592 34.4622 133.681 34.0904 133.733 33.7036C133.793 33.3094 133.823 32.9747 133.823 32.6995C133.823 32.0971 133.733 31.6694 133.555 31.4166C133.376 31.1562 133.135 31.0261 132.83 31.0261C132.621 31.0261 132.435 31.0856 132.272 31.2046C132.116 31.3161 131.974 31.4686 131.848 31.662C131.729 31.8554 131.628 32.0748 131.547 32.3202C131.465 32.5582 131.398 32.8037 131.346 33.0565C131.294 33.3094 131.257 33.5586 131.234 33.804C131.212 34.042 131.201 34.254 131.201 34.4399C131.201 35.0424 131.29 35.47 131.469 35.7229C131.655 35.9758 131.896 36.1022 132.194 36.1022ZM136.298 32.019C136.305 31.9818 136.309 31.9483 136.309 31.9186C136.317 31.8814 136.32 31.8517 136.32 31.8293C136.32 31.6955 136.272 31.5988 136.175 31.5393C136.079 31.4723 135.911 31.4389 135.673 31.4389L135.718 31.16L137.179 30.6579H137.414L136.789 34.4511C136.774 34.518 136.763 34.5924 136.755 34.6742C136.755 34.756 136.755 34.823 136.755 34.875C136.755 34.994 136.767 35.1093 136.789 35.2209C136.811 35.3324 136.852 35.4328 136.912 35.5221C136.979 35.6113 137.064 35.682 137.168 35.7341C137.272 35.7861 137.406 35.8122 137.57 35.8122C137.726 35.8122 137.882 35.7675 138.038 35.6783C138.195 35.5816 138.336 35.4626 138.462 35.3213C138.589 35.1725 138.697 35.0052 138.786 34.8192C138.883 34.6333 138.949 34.4436 138.987 34.2503L139.578 30.7695H140.47L139.756 35.1093C139.749 35.1465 139.742 35.1948 139.734 35.2543C139.727 35.3138 139.723 35.3622 139.723 35.3994C139.723 35.6225 139.82 35.7341 140.013 35.7341C140.162 35.7341 140.292 35.6857 140.404 35.589C140.515 35.4849 140.653 35.3361 140.816 35.1428L140.716 35.656C140.567 35.8865 140.411 36.0687 140.247 36.2026C140.091 36.3365 139.883 36.4034 139.623 36.4034C139.303 36.4034 139.087 36.3216 138.975 36.158C138.864 35.9869 138.808 35.7824 138.808 35.5444C138.808 35.4998 138.808 35.4589 138.808 35.4217C138.808 35.3845 138.812 35.3436 138.819 35.299C138.752 35.4254 138.667 35.5593 138.563 35.7006C138.459 35.8345 138.332 35.9572 138.183 36.0687C138.042 36.1803 137.882 36.2733 137.704 36.3477C137.525 36.422 137.332 36.4592 137.124 36.4592C136.886 36.4592 136.681 36.422 136.51 36.3477C136.346 36.2733 136.212 36.1766 136.108 36.0576C136.012 35.9312 135.941 35.7861 135.896 35.6225C135.852 35.4514 135.829 35.2729 135.829 35.087C135.829 35.0126 135.833 34.9234 135.841 34.8192C135.848 34.7151 135.859 34.6259 135.874 34.5515L136.298 32.019ZM142.464 29.4196C142.472 29.3824 142.475 29.3489 142.475 29.3192C142.483 29.282 142.487 29.2522 142.487 29.2299C142.487 28.9696 142.271 28.8394 141.839 28.8394L141.884 28.5717L143.346 28.0697H143.591L142.42 35.1093C142.412 35.1465 142.405 35.1948 142.397 35.2543C142.39 35.3138 142.386 35.3622 142.386 35.3994C142.386 35.6225 142.487 35.7341 142.687 35.7341C142.836 35.7341 142.966 35.6857 143.078 35.589C143.189 35.4849 143.323 35.3361 143.479 35.1428L143.379 35.656C143.238 35.8865 143.085 36.0687 142.922 36.2026C142.758 36.3365 142.546 36.4034 142.286 36.4034C141.973 36.4034 141.761 36.3216 141.65 36.158C141.538 35.9869 141.482 35.7824 141.482 35.5444C141.482 35.4626 141.486 35.3845 141.494 35.3101C141.501 35.2357 141.512 35.1576 141.527 35.0758L142.464 29.4196ZM147.692 36.3477L147.312 35.3771C147.245 35.5109 147.16 35.6448 147.056 35.7787C146.952 35.9051 146.833 36.0204 146.699 36.1245C146.572 36.2212 146.427 36.2993 146.264 36.3588C146.107 36.4258 145.94 36.4592 145.762 36.4592C145.159 36.4592 144.717 36.2658 144.434 35.8791C144.151 35.4923 144.01 34.9643 144.01 34.2949C144.01 33.8486 144.069 33.4098 144.188 32.9784C144.315 32.5396 144.49 32.1492 144.713 31.807C144.936 31.4649 145.2 31.1897 145.505 30.9815C145.81 30.7658 146.148 30.6579 146.52 30.6579C146.721 30.6579 146.896 30.6877 147.044 30.7472C147.201 30.8067 147.331 30.8848 147.435 30.9815C147.539 31.0707 147.621 31.1748 147.68 31.2938C147.74 31.4128 147.785 31.5281 147.814 31.6397L148.182 29.4196C148.19 29.3824 148.194 29.3489 148.194 29.3192C148.201 29.282 148.205 29.2522 148.205 29.2299C148.205 28.9696 147.989 28.8394 147.558 28.8394L147.602 28.5717L149.064 28.0697H149.309L147.937 36.3477H147.692ZM146.676 31.2157C146.446 31.2157 146.23 31.305 146.029 31.4835C145.828 31.662 145.654 31.9037 145.505 32.2087C145.364 32.5136 145.252 32.8669 145.17 33.2685C145.088 33.6627 145.048 34.0792 145.048 34.518C145.048 34.9494 145.129 35.2915 145.293 35.5444C145.464 35.7973 145.713 35.9237 146.04 35.9237C146.204 35.9237 146.357 35.8791 146.498 35.7898C146.647 35.6932 146.78 35.5704 146.899 35.4217C147.018 35.2655 147.115 35.0907 147.19 34.8973C147.271 34.704 147.331 34.5031 147.368 34.2949L147.602 32.9115C147.617 32.8371 147.625 32.7553 147.625 32.6661C147.632 32.5694 147.636 32.4876 147.636 32.4206C147.636 32.0413 147.554 31.7475 147.39 31.5393C147.227 31.3236 146.989 31.2157 146.676 31.2157Z" fill="#104A99"/>
</svg>
