<svg width="238" height="279" viewBox="0 0 238 279" fill="none" xmlns="http://www.w3.org/2000/svg">
<rect x="1.23471" y="0.90854" width="234.858" height="277.105" rx="3.37828" fill="white" stroke="#ADBFFD" stroke-width="1.81708"/>
<mask id="mask0_1910_3198" style="mask-type:alpha" maskUnits="userSpaceOnUse" x="0" y="0" width="237" height="279">
<path d="M0.326172 4.28686C0.326172 1.91931 2.24545 1.95937e-05 4.61299 1.95548e-05L232.714 1.58077e-05C235.082 1.57689e-05 237.001 1.91929 237.001 4.28684L237.001 274.635C237.001 277.003 235.082 278.922 232.714 278.922L4.61301 278.921C2.24547 278.921 0.326198 277.002 0.326197 274.634L0.326172 4.28686Z" fill="#D9D9D9"/>
</mask>
<g mask="url(#mask0_1910_3198)">
<path d="M-99.1582 -105.867L885.81 835.988" stroke="#ADBFFD" stroke-width="0.857364"/>
<path d="M-536.621 194.4L448.347 1136.26" stroke="#ADBFFD" stroke-width="0.857364"/>
<path d="M193.932 -482.512L1178.9 459.343" stroke="#ADBFFD" stroke-width="0.857364"/>
<path d="M-243.529 -182.244L741.438 759.611" stroke="#ADBFFD" stroke-width="0.857364"/>
<path d="M47.3867 -294.189L1032.35 647.666" stroke="#ADBFFD" stroke-width="0.857364"/>
<path d="M-390.074 6.07812L594.893 947.933" stroke="#ADBFFD" stroke-width="0.857364"/>
<path d="M-62.5215 -152.947L922.446 788.908" stroke="#ADBFFD" stroke-width="0.857364"/>
<path d="M-499.984 147.318L484.983 1089.17" stroke="#ADBFFD" stroke-width="0.857364"/>
<path d="M84.0234 -341.271L1068.99 600.584" stroke="#ADBFFD" stroke-width="0.857364"/>
<path d="M-353.438 -41.0039L631.53 900.851" stroke="#ADBFFD" stroke-width="0.857364"/>
<path d="M-25.8848 -200.027L959.083 741.828" stroke="#ADBFFD" stroke-width="0.857364"/>
<path d="M-463.348 100.238L521.62 1042.09" stroke="#ADBFFD" stroke-width="0.857364"/>
<path d="M120.66 -388.352L1105.63 553.503" stroke="#ADBFFD" stroke-width="0.857364"/>
<path d="M-316.803 -88.084L668.165 853.771" stroke="#ADBFFD" stroke-width="0.857364"/>
<path d="M10.752 -247.109L995.72 694.746" stroke="#ADBFFD" stroke-width="0.857364"/>
<path d="M-426.711 53.1582L558.257 995.013" stroke="#ADBFFD" stroke-width="0.857364"/>
<path d="M157.297 -435.432L1142.26 506.423" stroke="#ADBFFD" stroke-width="0.857364"/>
<path d="M-280.166 -135.166L704.802 806.689" stroke="#ADBFFD" stroke-width="0.857364"/>
<path d="M-90 -117.637L894.968 824.218" stroke="#ADBFFD" stroke-width="0.857364"/>
<path d="M-527.463 182.629L457.505 1124.48" stroke="#ADBFFD" stroke-width="0.857364"/>
<path d="M203.092 -494.283L1188.06 447.572" stroke="#ADBFFD" stroke-width="0.857364"/>
<path d="M-234.369 -194.016L750.599 747.839" stroke="#ADBFFD" stroke-width="0.857364"/>
<path d="M56.5469 -305.961L1041.51 635.894" stroke="#ADBFFD" stroke-width="0.857364"/>
<path d="M-380.916 -5.69336L604.052 936.162" stroke="#ADBFFD" stroke-width="0.857364"/>
<path d="M-53.3633 -164.719L931.604 777.136" stroke="#ADBFFD" stroke-width="0.857364"/>
<path d="M-490.826 135.549L494.142 1077.4" stroke="#ADBFFD" stroke-width="0.857364"/>
<path d="M93.1836 -353.041L1078.15 588.814" stroke="#ADBFFD" stroke-width="0.857364"/>
<path d="M-344.279 -52.7734L640.688 889.082" stroke="#ADBFFD" stroke-width="0.857364"/>
<path d="M-16.7266 -211.799L968.241 730.056" stroke="#ADBFFD" stroke-width="0.857364"/>
<path d="M-454.189 88.4688L530.778 1030.32" stroke="#ADBFFD" stroke-width="0.857364"/>
<path d="M129.818 -400.121L1114.79 541.734" stroke="#ADBFFD" stroke-width="0.857364"/>
<path d="M-307.643 -99.8535L677.325 842.002" stroke="#ADBFFD" stroke-width="0.857364"/>
<path d="M19.9102 -258.879L1004.88 682.976" stroke="#ADBFFD" stroke-width="0.857364"/>
<path d="M-417.553 41.3887L567.415 983.244" stroke="#ADBFFD" stroke-width="0.857364"/>
<path d="M166.455 -447.201L1151.42 494.654" stroke="#ADBFFD" stroke-width="0.857364"/>
<path d="M-271.006 -146.934L713.962 794.921" stroke="#ADBFFD" stroke-width="0.857364"/>
<path d="M-80.8398 -129.408L904.128 812.447" stroke="#ADBFFD" stroke-width="0.857364"/>
<path d="M-518.303 170.859L466.665 1112.71" stroke="#ADBFFD" stroke-width="0.857364"/>
<path d="M212.25 -506.053L1197.22 435.802" stroke="#ADBFFD" stroke-width="0.857364"/>
<path d="M-225.211 -205.785L759.757 736.07" stroke="#ADBFFD" stroke-width="0.857364"/>
<path d="M65.7051 -317.73L1050.67 624.125" stroke="#ADBFFD" stroke-width="0.857364"/>
<path d="M-371.756 -17.4629L613.212 924.392" stroke="#ADBFFD" stroke-width="0.857364"/>
<path d="M-44.2031 -176.488L940.765 765.367" stroke="#ADBFFD" stroke-width="0.857364"/>
<path d="M-481.666 123.779L503.302 1065.63" stroke="#ADBFFD" stroke-width="0.857364"/>
<path d="M102.342 -364.811L1087.31 577.045" stroke="#ADBFFD" stroke-width="0.857364"/>
<path d="M-335.121 -64.543L649.847 877.312" stroke="#ADBFFD" stroke-width="0.857364"/>
<path d="M-7.56836 -223.57L977.399 718.285" stroke="#ADBFFD" stroke-width="0.857364"/>
<path d="M-445.031 76.6973L539.936 1018.55" stroke="#ADBFFD" stroke-width="0.857364"/>
<path d="M138.979 -411.893L1123.95 529.962" stroke="#ADBFFD" stroke-width="0.857364"/>
<path d="M-298.484 -111.625L686.483 830.23" stroke="#ADBFFD" stroke-width="0.857364"/>
<path d="M29.0684 -270.65L1014.04 671.205" stroke="#ADBFFD" stroke-width="0.857364"/>
<path d="M-408.395 29.6172L576.573 971.472" stroke="#ADBFFD" stroke-width="0.857364"/>
<path d="M175.613 -458.973L1160.58 482.882" stroke="#ADBFFD" stroke-width="0.857364"/>
<path d="M-261.848 -158.705L723.12 783.15" stroke="#ADBFFD" stroke-width="0.857364"/>
<path d="M-71.6816 -141.178L913.286 800.677" stroke="#ADBFFD" stroke-width="0.857364"/>
<path d="M-509.143 159.09L475.825 1100.94" stroke="#ADBFFD" stroke-width="0.857364"/>
<path d="M74.8652 -329.5L1059.83 612.355" stroke="#ADBFFD" stroke-width="0.857364"/>
<path d="M-362.598 -29.2324L622.37 912.623" stroke="#ADBFFD" stroke-width="0.857364"/>
<path d="M-35.0449 -188.26L949.923 753.595" stroke="#ADBFFD" stroke-width="0.857364"/>
<path d="M-472.508 112.008L512.46 1053.86" stroke="#ADBFFD" stroke-width="0.857364"/>
<path d="M111.5 -376.582L1096.47 565.273" stroke="#ADBFFD" stroke-width="0.857364"/>
<path d="M-325.961 -76.3145L659.007 865.541" stroke="#ADBFFD" stroke-width="0.857364"/>
<path d="M1.5918 -235.338L986.56 706.517" stroke="#ADBFFD" stroke-width="0.857364"/>
<path d="M-435.871 64.9277L549.097 1006.78" stroke="#ADBFFD" stroke-width="0.857364"/>
<path d="M148.137 -423.662L1133.1 518.193" stroke="#ADBFFD" stroke-width="0.857364"/>
<path d="M-289.324 -123.395L695.643 818.461" stroke="#ADBFFD" stroke-width="0.857364"/>
<path d="M38.2266 -282.42L1023.19 659.435" stroke="#ADBFFD" stroke-width="0.857364"/>
<path d="M-399.234 17.8477L585.733 959.703" stroke="#ADBFFD" stroke-width="0.857364"/>
<path d="M184.773 -470.742L1169.74 471.113" stroke="#ADBFFD" stroke-width="0.857364"/>
<path d="M-252.688 -170.477L732.28 771.378" stroke="#ADBFFD" stroke-width="0.857364"/>
</g>
<path d="M118.893 159.904L118.893 189.432" stroke="#ADBFFD" stroke-width="0.857364"/>
<path d="M118.849 198.972L116.621 188.684L121.076 188.684L118.849 198.972Z" fill="#ADBFFD"/>
<path d="M156.66 109.572C169.908 130.43 163.738 158.077 142.88 171.324C122.022 184.572 94.3745 178.402 81.1272 157.544C67.88 136.686 74.0497 109.039 94.9076 95.7913C115.765 82.5441 143.413 88.7137 156.66 109.572Z" fill="#ADBFFD" stroke="#ADBFFD" stroke-width="1.36281"/>
<path d="M89.4104 139.083C87.8968 139.083 86.7281 138.738 85.9044 138.048C85.0806 137.348 84.6585 136.375 84.6379 135.129H87.0319C87.0422 135.5 87.1091 135.819 87.2327 136.087C87.3665 136.354 87.5364 136.576 87.7424 136.751C87.9586 136.916 88.2057 137.039 88.4837 137.122C88.772 137.194 89.0809 137.23 89.4104 137.23C89.9768 137.23 90.435 137.06 90.7851 136.72C91.1352 136.37 91.3102 135.943 91.3102 135.438C91.3102 135.129 91.2536 134.877 91.1403 134.681C91.027 134.475 90.8726 134.316 90.6769 134.202C90.4813 134.079 90.2599 133.996 90.0128 133.955C89.7657 133.914 89.5083 133.893 89.2405 133.893H88.4065V132.256C88.4992 132.267 88.6124 132.272 88.7463 132.272C88.8802 132.272 88.9831 132.272 89.0552 132.272C90.3835 132.272 91.0476 131.772 91.0476 130.774C91.0476 130.341 90.8932 130.006 90.5843 129.77C90.2857 129.533 89.8892 129.414 89.395 129.414C88.7978 129.414 88.319 129.559 87.9586 129.847C87.6085 130.135 87.4077 130.547 87.3562 131.082H85.0703C85.0806 130.465 85.2042 129.934 85.441 129.492C85.6779 129.049 85.9919 128.683 86.3832 128.395C86.7848 128.107 87.243 127.896 87.7578 127.762C88.2829 127.618 88.8338 127.546 89.4104 127.546C89.9665 127.546 90.4813 127.623 90.955 127.777C91.4389 127.921 91.8508 128.127 92.1906 128.395C92.5407 128.663 92.8135 128.987 93.0092 129.368C93.2151 129.739 93.3181 130.156 93.3181 130.619C93.3181 131.175 93.1636 131.654 92.8547 132.056C92.5458 132.457 92.1442 132.714 91.65 132.828C91.9383 132.879 92.2112 132.977 92.4686 133.121C92.726 133.265 92.9474 133.451 93.1327 133.677C93.3181 133.893 93.4622 134.151 93.5652 134.45C93.6785 134.748 93.7351 135.072 93.7351 135.423C93.7351 135.958 93.6218 136.452 93.3953 136.905C93.1791 137.348 92.8753 137.734 92.484 138.064C92.1031 138.383 91.65 138.635 91.1249 138.82C90.5997 138.996 90.0282 139.083 89.4104 139.083ZM97.0629 139.037C96.6819 139.037 96.3267 138.99 95.9972 138.898C95.6677 138.805 95.3794 138.661 95.1323 138.465C94.8852 138.27 94.6895 138.022 94.5454 137.724C94.4115 137.425 94.3446 137.07 94.3446 136.658C94.3446 136.205 94.4218 135.834 94.5763 135.546C94.741 135.248 94.9469 135.011 95.1941 134.836C95.4515 134.661 95.7398 134.532 96.059 134.45C96.3885 134.357 96.718 134.285 97.0475 134.233C97.377 134.182 97.7013 134.141 98.0205 134.11C98.3397 134.079 98.6229 134.032 98.87 133.971C99.1171 133.909 99.3128 133.821 99.4569 133.708C99.6011 133.585 99.668 133.41 99.6577 133.183C99.6577 132.956 99.6165 132.771 99.5342 132.627C99.4621 132.483 99.3591 132.375 99.2253 132.303C99.1017 132.22 98.9524 132.169 98.7773 132.148C98.6126 132.117 98.4324 132.102 98.2368 132.102C97.8043 132.102 97.4645 132.195 97.2174 132.38C96.9703 132.565 96.8261 132.874 96.7849 133.307H94.5917C94.6226 132.802 94.7513 132.38 94.9778 132.04C95.2044 131.69 95.4927 131.412 95.8428 131.206C96.1928 131 96.5841 130.856 97.0166 130.774C97.4491 130.681 97.8918 130.635 98.3449 130.635C98.7465 130.635 99.1532 130.665 99.565 130.727C99.9769 130.779 100.353 130.887 100.693 131.052C101.032 131.216 101.31 131.448 101.527 131.747C101.743 132.045 101.851 132.431 101.851 132.905V137.06C101.851 137.42 101.872 137.765 101.913 138.095C101.954 138.424 102.026 138.671 102.129 138.836H99.9048C99.8637 138.712 99.8276 138.589 99.7967 138.465C99.7761 138.331 99.7607 138.198 99.7504 138.064C99.4003 138.424 98.9884 138.676 98.5148 138.82C98.0411 138.965 97.5572 139.037 97.0629 139.037ZM97.8815 137.585C98.314 137.585 98.6486 137.513 98.8855 137.369C99.1223 137.224 99.2973 137.055 99.4106 136.859C99.5239 136.653 99.5908 136.447 99.6114 136.241C99.6423 136.035 99.6577 135.87 99.6577 135.747V134.928C99.565 135.011 99.4518 135.078 99.3179 135.129C99.1841 135.17 99.0348 135.206 98.87 135.237C98.7053 135.268 98.5354 135.294 98.3603 135.314C98.1853 135.335 98.0102 135.361 97.8352 135.392C97.6601 135.423 97.4954 135.464 97.3409 135.515C97.1865 135.567 97.0475 135.639 96.9239 135.731C96.8107 135.814 96.718 135.922 96.6459 136.056C96.5738 136.19 96.5378 136.36 96.5378 136.565C96.5378 136.771 96.5738 136.941 96.6459 137.075C96.718 137.199 96.8158 137.302 96.9394 137.384C97.0629 137.456 97.2071 137.508 97.3718 137.539C97.5366 137.569 97.7065 137.585 97.8815 137.585ZM103.09 130.851H105.283V134.11L108.218 130.851H110.797L107.461 134.372L111.23 138.836H108.573L105.746 135.515L105.283 136.025V138.836H103.09V130.851ZM113.874 139.037C113.493 139.037 113.138 138.99 112.808 138.898C112.479 138.805 112.191 138.661 111.943 138.465C111.696 138.27 111.501 138.022 111.356 137.724C111.223 137.425 111.156 137.07 111.156 136.658C111.156 136.205 111.233 135.834 111.387 135.546C111.552 135.248 111.758 135.011 112.005 134.836C112.263 134.661 112.551 134.532 112.87 134.45C113.2 134.357 113.529 134.285 113.859 134.233C114.188 134.182 114.512 134.141 114.832 134.11C115.151 134.079 115.434 134.032 115.681 133.971C115.928 133.909 116.124 133.821 116.268 133.708C116.412 133.585 116.479 133.41 116.469 133.183C116.469 132.956 116.428 132.771 116.345 132.627C116.273 132.483 116.17 132.375 116.036 132.303C115.913 132.22 115.764 132.169 115.588 132.148C115.424 132.117 115.244 132.102 115.048 132.102C114.615 132.102 114.276 132.195 114.028 132.38C113.781 132.565 113.637 132.874 113.596 133.307H111.403C111.434 132.802 111.562 132.38 111.789 132.04C112.015 131.69 112.304 131.412 112.654 131.206C113.004 131 113.395 130.856 113.828 130.774C114.26 130.681 114.703 130.635 115.156 130.635C115.558 130.635 115.964 130.665 116.376 130.727C116.788 130.779 117.164 130.887 117.504 131.052C117.843 131.216 118.121 131.448 118.338 131.747C118.554 132.045 118.662 132.431 118.662 132.905V137.06C118.662 137.42 118.683 137.765 118.724 138.095C118.765 138.424 118.837 138.671 118.94 138.836H116.716C116.675 138.712 116.639 138.589 116.608 138.465C116.587 138.331 116.572 138.198 116.562 138.064C116.211 138.424 115.8 138.676 115.326 138.82C114.852 138.965 114.368 139.037 113.874 139.037ZM114.693 137.585C115.125 137.585 115.46 137.513 115.697 137.369C115.933 137.224 116.108 137.055 116.222 136.859C116.335 136.653 116.402 136.447 116.422 136.241C116.453 136.035 116.469 135.87 116.469 135.747V134.928C116.376 135.011 116.263 135.078 116.129 135.129C115.995 135.17 115.846 135.206 115.681 135.237C115.516 135.268 115.346 135.294 115.171 135.314C114.996 135.335 114.821 135.361 114.646 135.392C114.471 135.423 114.307 135.464 114.152 135.515C113.998 135.567 113.859 135.639 113.735 135.731C113.622 135.814 113.529 135.922 113.457 136.056C113.385 136.19 113.349 136.36 113.349 136.565C113.349 136.771 113.385 136.941 113.457 137.075C113.529 137.199 113.627 137.302 113.75 137.384C113.874 137.456 114.018 137.508 114.183 137.539C114.348 137.569 114.518 137.585 114.693 137.585ZM123.145 139.037C122.64 139.037 122.161 138.985 121.708 138.882C121.265 138.79 120.874 138.63 120.534 138.403C120.195 138.177 119.922 137.889 119.716 137.539C119.52 137.188 119.417 136.756 119.407 136.241H121.492C121.533 136.674 121.698 137.003 121.986 137.23C122.285 137.456 122.686 137.569 123.191 137.569C123.685 137.569 124.046 137.466 124.272 137.261C124.499 137.055 124.612 136.802 124.612 136.504C124.612 136.174 124.504 135.907 124.287 135.701C124.082 135.495 123.731 135.392 123.237 135.392H122.388V134.017H122.959C123.423 134.017 123.788 133.945 124.056 133.801C124.334 133.657 124.473 133.384 124.473 132.982C124.473 132.745 124.37 132.539 124.164 132.364C123.968 132.179 123.654 132.086 123.222 132.086C122.779 132.086 122.429 132.164 122.171 132.318C121.924 132.462 121.77 132.751 121.708 133.183H119.669C119.711 132.72 119.834 132.328 120.04 132.009C120.256 131.68 120.524 131.417 120.843 131.221C121.173 131.016 121.543 130.866 121.955 130.774C122.377 130.681 122.815 130.635 123.268 130.635C124.329 130.635 125.147 130.81 125.724 131.16C126.311 131.499 126.604 132.04 126.604 132.781C126.604 133.018 126.558 133.24 126.465 133.446C126.383 133.641 126.275 133.816 126.141 133.971C126.007 134.125 125.853 134.254 125.678 134.357C125.502 134.45 125.333 134.511 125.168 134.542V134.573C125.353 134.594 125.544 134.64 125.739 134.712C125.945 134.774 126.131 134.882 126.295 135.036C126.46 135.181 126.594 135.371 126.697 135.608C126.81 135.834 126.867 136.123 126.867 136.473C126.867 136.905 126.774 137.281 126.589 137.6C126.414 137.92 126.161 138.187 125.832 138.403C125.513 138.62 125.122 138.779 124.658 138.882C124.205 138.985 123.701 139.037 123.145 139.037ZM130.187 139.037C129.806 139.037 129.451 138.99 129.122 138.898C128.792 138.805 128.504 138.661 128.257 138.465C128.01 138.27 127.814 138.022 127.67 137.724C127.536 137.425 127.469 137.07 127.469 136.658C127.469 136.205 127.546 135.834 127.701 135.546C127.865 135.248 128.071 135.011 128.319 134.836C128.576 134.661 128.864 134.532 129.183 134.45C129.513 134.357 129.842 134.285 130.172 134.233C130.501 134.182 130.826 134.141 131.145 134.11C131.464 134.079 131.747 134.032 131.995 133.971C132.242 133.909 132.437 133.821 132.581 133.708C132.726 133.585 132.793 133.41 132.782 133.183C132.782 132.956 132.741 132.771 132.659 132.627C132.587 132.483 132.484 132.375 132.35 132.303C132.226 132.22 132.077 132.169 131.902 132.148C131.737 132.117 131.557 132.102 131.361 132.102C130.929 132.102 130.589 132.195 130.342 132.38C130.095 132.565 129.951 132.874 129.909 133.307H127.716C127.747 132.802 127.876 132.38 128.102 132.04C128.329 131.69 128.617 131.412 128.967 131.206C129.317 131 129.709 130.856 130.141 130.774C130.574 130.681 131.016 130.635 131.469 130.635C131.871 130.635 132.278 130.665 132.69 130.727C133.101 130.779 133.477 130.887 133.817 131.052C134.157 131.216 134.435 131.448 134.651 131.747C134.867 132.045 134.975 132.431 134.975 132.905V137.06C134.975 137.42 134.996 137.765 135.037 138.095C135.078 138.424 135.15 138.671 135.253 138.836H133.029C132.988 138.712 132.952 138.589 132.921 138.465C132.901 138.331 132.885 138.198 132.875 138.064C132.525 138.424 132.113 138.676 131.639 138.82C131.166 138.965 130.682 139.037 130.187 139.037ZM131.006 137.585C131.438 137.585 131.773 137.513 132.01 137.369C132.247 137.224 132.422 137.055 132.535 136.859C132.648 136.653 132.715 136.447 132.736 136.241C132.767 136.035 132.782 135.87 132.782 135.747V134.928C132.69 135.011 132.576 135.078 132.442 135.129C132.309 135.17 132.159 135.206 131.995 135.237C131.83 135.268 131.66 135.294 131.485 135.314C131.31 135.335 131.135 135.361 130.96 135.392C130.785 135.423 130.62 135.464 130.465 135.515C130.311 135.567 130.172 135.639 130.048 135.731C129.935 135.814 129.842 135.922 129.77 136.056C129.698 136.19 129.662 136.36 129.662 136.565C129.662 136.771 129.698 136.941 129.77 137.075C129.842 137.199 129.94 137.302 130.064 137.384C130.187 137.456 130.332 137.508 130.496 137.539C130.661 137.569 130.831 137.585 131.006 137.585ZM136.214 130.851H138.408V133.754H141.512V130.851H143.705V138.836H141.512V135.484H138.408V138.836H136.214V130.851ZM148.783 139.037C148.155 139.037 147.589 138.939 147.084 138.743C146.58 138.548 146.147 138.27 145.787 137.909C145.427 137.539 145.149 137.096 144.953 136.581C144.757 136.066 144.659 135.489 144.659 134.851C144.659 134.213 144.757 133.636 144.953 133.121C145.149 132.596 145.427 132.153 145.787 131.793C146.147 131.422 146.58 131.139 147.084 130.943C147.589 130.738 148.155 130.635 148.783 130.635C149.411 130.635 149.978 130.738 150.482 130.943C150.997 131.139 151.435 131.422 151.795 131.793C152.155 132.153 152.434 132.596 152.629 133.121C152.825 133.636 152.923 134.213 152.923 134.851C152.923 135.489 152.825 136.066 152.629 136.581C152.434 137.096 152.155 137.539 151.795 137.909C151.435 138.27 150.997 138.548 150.482 138.743C149.978 138.939 149.411 139.037 148.783 139.037ZM148.783 137.4C149.154 137.4 149.463 137.327 149.71 137.183C149.967 137.039 150.168 136.849 150.312 136.612C150.467 136.365 150.575 136.092 150.637 135.793C150.699 135.484 150.729 135.17 150.729 134.851C150.729 134.532 150.699 134.218 150.637 133.909C150.575 133.6 150.467 133.327 150.312 133.09C150.168 132.854 149.967 132.663 149.71 132.519C149.463 132.364 149.154 132.287 148.783 132.287C148.413 132.287 148.104 132.364 147.857 132.519C147.609 132.663 147.409 132.854 147.254 133.09C147.11 133.327 147.007 133.6 146.945 133.909C146.884 134.218 146.853 134.532 146.853 134.851C146.853 135.17 146.884 135.484 146.945 135.793C147.007 136.092 147.11 136.365 147.254 136.612C147.409 136.849 147.609 137.039 147.857 137.183C148.104 137.327 148.413 137.4 148.783 137.4Z" fill="white"/>
<path d="M118.893 49.0625L118.893 78.5901" stroke="#ADBFFD" stroke-width="0.857364"/>
<path d="M118.849 88.1302L116.621 77.8418L121.076 77.8418L118.849 88.1302Z" fill="#ADBFFD"/>
<rect x="35.99" y="12.0408" width="165.354" height="54.5124" fill="white"/>
<path d="M85.2616 42.6158C85.254 42.6536 85.2464 42.7066 85.2389 42.7748C85.2313 42.8429 85.2275 42.8997 85.2275 42.9451C85.2275 43.1193 85.2805 43.2593 85.3865 43.3653C85.5001 43.4713 85.6931 43.5243 85.9657 43.5243L85.9203 43.7969H83.1947L83.2401 43.5243C83.5581 43.5243 83.789 43.4562 83.9329 43.3199C84.0767 43.176 84.1676 42.9943 84.2054 42.7748L85.3524 35.8699H82.0136L80.9006 42.6158C80.893 42.6536 80.8855 42.7066 80.8779 42.7748C80.8703 42.8429 80.8665 42.8997 80.8665 42.9451C80.8665 43.1193 80.9195 43.2593 81.0255 43.3653C81.1391 43.4713 81.3322 43.5243 81.6047 43.5243L81.5593 43.7969H78.8337L78.8791 43.5243C79.1971 43.5243 79.428 43.4562 79.5719 43.3199C79.7157 43.176 79.8066 42.9943 79.8444 42.7748L80.8665 36.6308C80.8741 36.5929 80.8817 36.5399 80.8892 36.4718C80.8968 36.4036 80.9006 36.3468 80.9006 36.3014C80.9006 36.1273 80.8438 35.9872 80.7302 35.8812C80.6167 35.7752 80.4198 35.7222 80.1397 35.7222L80.1851 35.4497H87.2945L87.249 35.7222C86.9235 35.7222 86.6888 35.7941 86.5449 35.938C86.4011 36.0819 86.3102 36.2598 86.2723 36.4718L85.2616 42.6158ZM85.9758 46.2613L86.0213 45.9887C86.3014 45.9887 86.502 45.9319 86.6232 45.8184C86.7519 45.7048 86.8352 45.5458 86.873 45.3414L87.8497 39.3791C87.8573 39.3412 87.861 39.3072 87.861 39.2769C87.8686 39.239 87.8724 39.2087 87.8724 39.186C87.8724 39.0498 87.8232 38.9513 87.7248 38.8908C87.6263 38.8226 87.456 38.7885 87.2137 38.7885L87.2591 38.516L88.7696 38.0049H88.9967L88.8491 38.9248C88.9778 38.6826 89.1671 38.4706 89.4169 38.2888C89.6743 38.0996 89.9734 38.0049 90.3141 38.0049C90.6321 38.0049 90.9009 38.0617 91.1204 38.1753C91.3476 38.2888 91.5331 38.4478 91.6769 38.6523C91.8283 38.8567 91.9381 39.099 92.0063 39.3791C92.0744 39.6517 92.1085 39.9469 92.1085 40.2649C92.1085 40.7343 92.0441 41.1886 91.9154 41.6277C91.7943 42.0669 91.6201 42.4568 91.393 42.7975C91.1734 43.1382 90.9084 43.4145 90.598 43.6265C90.2876 43.8309 89.9469 43.9332 89.5759 43.9332C89.3488 43.9332 89.1519 43.9029 88.9854 43.8423C88.8264 43.7893 88.6901 43.7136 88.5765 43.6152C88.4705 43.5167 88.3872 43.4032 88.3267 43.2745C88.2661 43.1458 88.2207 43.0095 88.1904 42.8656L87.8156 45.1597C87.808 45.2051 87.8005 45.2619 87.7929 45.33C87.7853 45.3982 87.7815 45.455 87.7815 45.5004C87.7815 45.6518 87.827 45.7692 87.9178 45.8524C88.0163 45.9433 88.1866 45.9887 88.4289 45.9887L88.3835 46.2613H85.9758ZM88.4062 41.6504C88.391 41.7262 88.3797 41.8019 88.3721 41.8776C88.3645 41.9457 88.3607 42.0177 88.3607 42.0934C88.3607 42.4568 88.4365 42.7558 88.5879 42.9905C88.7469 43.2253 88.9967 43.3426 89.3374 43.3426C89.5721 43.3426 89.7917 43.2555 89.9961 43.0814C90.2081 42.9073 90.3936 42.6688 90.5526 42.3659C90.7116 42.0631 90.8365 41.7148 90.9274 41.3211C91.0182 40.9198 91.0637 40.4921 91.0637 40.0378C91.0637 39.5835 90.9804 39.2239 90.8138 38.9589C90.6548 38.6939 90.3936 38.5614 90.0302 38.5614C89.856 38.5614 89.6895 38.6106 89.5305 38.709C89.3791 38.7999 89.2428 38.9248 89.1216 39.0838C89.0005 39.2352 88.8983 39.4094 88.815 39.6062C88.7317 39.8031 88.6749 40.0037 88.6447 40.2081L88.4062 41.6504ZM95.4592 38.0049C95.7923 38.0049 96.0876 38.0655 96.345 38.1866C96.6024 38.3078 96.8144 38.4743 96.981 38.6863C97.1551 38.8983 97.2838 39.1482 97.3671 39.4359C97.4579 39.7236 97.5034 40.0302 97.5034 40.3558C97.5034 40.8479 97.439 41.3097 97.3103 41.7413C97.1816 42.1729 96.9999 42.5514 96.7652 42.877C96.5305 43.195 96.2503 43.4486 95.9248 43.6379C95.5992 43.8196 95.2396 43.9104 94.8459 43.9104C94.5355 43.9104 94.2516 43.8537 93.9941 43.7401C93.7443 43.6265 93.5323 43.4675 93.3582 43.2631C93.184 43.0587 93.0477 42.8164 92.9493 42.5363C92.8585 42.2486 92.813 41.9306 92.813 41.5823C92.813 41.0372 92.8774 40.5451 93.0061 40.1059C93.1424 39.6668 93.3279 39.292 93.5626 38.9816C93.7973 38.6712 94.0736 38.4327 94.3916 38.2661C94.7172 38.092 95.073 38.0049 95.4592 38.0049ZM94.8345 43.547C95.145 43.547 95.4062 43.4221 95.6182 43.1723C95.8301 42.9148 96.0005 42.6044 96.1292 42.241C96.2579 41.8776 96.3488 41.499 96.4018 41.1053C96.4623 40.7041 96.4926 40.3633 96.4926 40.0832C96.4926 39.47 96.4018 39.0346 96.2201 38.7772C96.0384 38.5122 95.7923 38.3797 95.4819 38.3797C95.2699 38.3797 95.0806 38.4403 94.914 38.5614C94.755 38.675 94.6112 38.8302 94.4825 39.027C94.3613 39.2239 94.2591 39.4472 94.1758 39.6971C94.0926 39.9394 94.0244 40.1892 93.9714 40.4466C93.9184 40.7041 93.8806 40.9577 93.8579 41.2075C93.8351 41.4498 93.8238 41.6656 93.8238 41.8549C93.8238 42.4681 93.9146 42.9035 94.0963 43.1609C94.2856 43.4183 94.5317 43.547 94.8345 43.547ZM99.569 36.1765C99.6144 36.0705 99.6825 35.9683 99.7734 35.8699C99.8718 35.7714 99.9816 35.6882 100.103 35.62C100.224 35.5443 100.353 35.4837 100.489 35.4383C100.633 35.3929 100.777 35.3702 100.92 35.3702C101.587 35.3702 102.098 35.6541 102.454 36.2219C102.809 36.7822 102.987 37.6604 102.987 38.8567C102.987 39.1141 102.972 39.417 102.942 39.7652C102.919 40.1135 102.87 40.4769 102.794 40.8555C102.719 41.2265 102.616 41.5937 102.488 41.9571C102.359 42.3205 102.189 42.6498 101.977 42.9451C101.772 43.2328 101.522 43.4675 101.227 43.6492C100.932 43.8234 100.584 43.9104 100.182 43.9104C99.8642 43.9104 99.5803 43.8574 99.3305 43.7514C99.0882 43.6379 98.8838 43.4789 98.7172 43.2745C98.5506 43.07 98.4219 42.824 98.3311 42.5363C98.2478 42.2486 98.2062 41.9306 98.2062 41.5823C98.2062 41.0523 98.2743 40.5716 98.4106 40.14C98.5544 39.7009 98.7437 39.3299 98.9784 39.027C99.2207 38.7166 99.497 38.4781 99.8075 38.3116C100.125 38.145 100.462 38.0617 100.818 38.0617C101.106 38.0617 101.348 38.1223 101.545 38.2434C101.749 38.357 101.927 38.516 102.079 38.7204C102.079 38.3418 102.052 37.9898 101.999 37.6642C101.946 37.3311 101.863 37.0434 101.749 36.8011C101.636 36.5588 101.492 36.3696 101.318 36.2333C101.144 36.097 100.936 36.0289 100.693 36.0289C100.451 36.0289 100.224 36.0894 100.012 36.2106C99.7999 36.3241 99.6295 36.4566 99.5008 36.608L99.569 36.1765ZM100.194 43.547C100.496 43.547 100.754 43.4221 100.966 43.1723C101.178 42.9148 101.348 42.6082 101.477 42.2524C101.606 41.8889 101.696 41.5142 101.749 41.128C101.81 40.7343 101.84 40.3974 101.84 40.1173C101.84 39.5192 101.749 39.0914 101.568 38.834C101.386 38.569 101.144 38.4365 100.841 38.4365C100.523 38.4365 100.258 38.5652 100.046 38.8226C99.8415 39.0725 99.675 39.3791 99.5463 39.7425C99.4175 40.0984 99.3267 40.4731 99.2737 40.8668C99.2207 41.2605 99.1942 41.5975 99.1942 41.8776C99.1942 42.4833 99.2851 42.9148 99.4668 43.1723C99.656 43.4221 99.8983 43.547 100.194 43.547ZM107.311 39.7879C107.41 39.5835 107.485 39.4094 107.538 39.2655C107.591 39.1217 107.618 38.9968 107.618 38.8908C107.618 38.7696 107.576 38.6561 107.493 38.5501C107.41 38.4441 107.235 38.3911 106.97 38.3911L107.027 38.1185H108.515L108.458 38.3911L105.29 44.8758C105.199 45.0575 105.104 45.2354 105.006 45.4095C104.915 45.5912 104.816 45.7502 104.71 45.8865C104.604 46.0228 104.491 46.1326 104.37 46.2159C104.249 46.2991 104.12 46.3408 103.984 46.3408C103.779 46.3408 103.624 46.2802 103.518 46.1591C103.42 46.0455 103.351 45.913 103.314 45.7616L103.393 45.2278C103.476 45.3263 103.571 45.402 103.677 45.455C103.79 45.508 103.923 45.5345 104.074 45.5345C104.249 45.5345 104.404 45.455 104.54 45.296C104.684 45.1445 104.843 44.8947 105.017 44.5464L105.426 43.706L104.426 39.3905C104.381 39.186 104.328 39.046 104.267 38.9703C104.214 38.887 104.139 38.8453 104.04 38.8453C103.889 38.8453 103.753 38.9173 103.631 39.0611C103.51 39.1974 103.408 39.3299 103.325 39.4586L103.427 38.868C103.51 38.6485 103.647 38.4554 103.836 38.2888C104.025 38.1147 104.252 38.0276 104.517 38.0276C104.669 38.0276 104.79 38.0617 104.881 38.1299C104.979 38.1904 105.055 38.2737 105.108 38.3797C105.168 38.4857 105.214 38.6031 105.244 38.7318C105.282 38.8605 105.316 38.9892 105.346 39.1179L106.073 42.2978L107.311 39.7879ZM109.401 39.3905C109.408 39.3526 109.412 39.3185 109.412 39.2882C109.42 39.2504 109.424 39.2201 109.424 39.1974C109.424 39.0611 109.374 38.9627 109.276 38.9021C109.177 38.834 109.007 38.7999 108.765 38.7999L108.81 38.516L110.309 38.0049H110.548L110.094 40.7306H110.491C110.642 40.7306 110.764 40.7041 110.854 40.6511C110.945 40.5905 111.04 40.4883 111.138 40.3444L111.933 39.152C112.062 38.9551 112.176 38.7885 112.274 38.6523C112.372 38.5084 112.463 38.3948 112.547 38.3116C112.63 38.2207 112.713 38.1564 112.796 38.1185C112.88 38.0806 112.974 38.0617 113.08 38.0617C113.239 38.0617 113.361 38.1261 113.444 38.2548C113.535 38.3759 113.573 38.5387 113.557 38.7431L113.467 39.2542C113.414 39.1557 113.342 39.0763 113.251 39.0157C113.16 38.9551 113.05 38.9248 112.921 38.9248C112.755 38.9248 112.619 38.9703 112.513 39.0611C112.414 39.152 112.308 39.2845 112.195 39.4586L111.479 40.5148L112.388 42.6612C112.441 42.7899 112.497 42.8883 112.558 42.9565C112.626 43.0246 112.725 43.0587 112.853 43.0587C112.99 43.0587 113.096 43.0133 113.171 42.9224C113.255 42.8316 113.338 42.7293 113.421 42.6158L113.33 43.1268C113.247 43.3085 113.141 43.4751 113.012 43.6265C112.884 43.7779 112.698 43.8537 112.456 43.8537C112.214 43.8537 112.017 43.7704 111.865 43.6038C111.721 43.4372 111.589 43.2177 111.468 42.9451L110.673 41.1053H110.025L109.571 43.7969H108.629L109.401 39.3905ZM120.865 39.9696C120.887 39.8334 120.899 39.6895 120.899 39.5381C120.899 39.311 120.842 39.1103 120.728 38.9362C120.615 38.7545 120.414 38.6636 120.127 38.6636C119.952 38.6636 119.786 38.7128 119.627 38.8113C119.468 38.9021 119.324 39.0233 119.195 39.1747C119.067 39.3185 118.957 39.4851 118.866 39.6744C118.783 39.8561 118.726 40.0378 118.696 40.2195L118.094 43.7969H117.185L117.832 39.9469C117.84 39.8788 117.844 39.8107 117.844 39.7425C117.851 39.6668 117.855 39.5987 117.855 39.5381C117.855 39.4245 117.844 39.3147 117.821 39.2087C117.798 39.1028 117.757 39.0119 117.696 38.9362C117.643 38.8529 117.568 38.7885 117.469 38.7431C117.371 38.6901 117.242 38.6636 117.083 38.6636C116.916 38.6636 116.754 38.7128 116.595 38.8113C116.443 38.9021 116.303 39.0233 116.174 39.1747C116.046 39.3261 115.936 39.4965 115.845 39.6857C115.762 39.8674 115.705 40.0491 115.675 40.2309L115.073 43.7969H114.164L115.107 38.1185H115.357L115.856 39.1633C115.925 39.0346 116.008 38.9021 116.106 38.7658C116.212 38.6296 116.337 38.5046 116.481 38.3911C116.625 38.2775 116.784 38.1866 116.958 38.1185C117.14 38.0428 117.333 38.0049 117.537 38.0049C117.772 38.0049 117.965 38.039 118.116 38.1071C118.275 38.1677 118.404 38.2548 118.503 38.3683C118.601 38.4819 118.673 38.6144 118.718 38.7658C118.764 38.9173 118.794 39.08 118.809 39.2542C118.877 39.1028 118.968 38.9551 119.082 38.8113C119.195 38.6598 119.324 38.5236 119.468 38.4024C119.619 38.2813 119.786 38.1866 119.968 38.1185C120.149 38.0428 120.342 38.0049 120.547 38.0049C120.789 38.0049 120.99 38.0428 121.149 38.1185C121.315 38.1866 121.448 38.2851 121.546 38.4138C121.652 38.5349 121.724 38.6788 121.762 38.8453C121.807 39.0119 121.83 39.186 121.83 39.3677C121.83 39.5267 121.819 39.6857 121.796 39.8447L121.353 42.5363C121.346 42.5741 121.338 42.6233 121.33 42.6839C121.323 42.7445 121.319 42.7937 121.319 42.8316C121.319 42.9451 121.346 43.0322 121.399 43.0928C121.459 43.1458 121.535 43.1723 121.626 43.1723C121.777 43.1723 121.91 43.123 122.023 43.0246C122.137 42.9186 122.273 42.7672 122.432 42.5703L122.341 43.0928C122.19 43.3275 122.031 43.513 121.864 43.6492C121.698 43.7855 121.482 43.8537 121.217 43.8537C120.899 43.8537 120.683 43.7704 120.569 43.6038C120.456 43.4297 120.399 43.2215 120.399 42.9792C120.399 42.8959 120.403 42.8164 120.41 42.7407C120.418 42.665 120.429 42.5855 120.445 42.5022L120.865 39.9696ZM125.823 39.3905C125.831 39.3526 125.834 39.3185 125.834 39.2882C125.842 39.2504 125.846 39.2201 125.846 39.1974C125.846 39.0611 125.797 38.9627 125.698 38.9021C125.6 38.834 125.429 38.7999 125.187 38.7999L125.233 38.516L126.732 38.0049H126.97L126.527 40.6738H128.708L129.139 38.1185H130.048L129.31 42.5363C129.302 42.5741 129.295 42.6233 129.287 42.6839C129.287 42.7445 129.287 42.7937 129.287 42.8316C129.287 43.0587 129.385 43.1723 129.582 43.1723C129.734 43.1723 129.866 43.123 129.98 43.0246C130.093 42.9186 130.233 42.7672 130.4 42.5703L130.298 43.0928C130.146 43.3275 129.987 43.513 129.821 43.6492C129.662 43.7855 129.45 43.8537 129.185 43.8537C128.859 43.8537 128.64 43.7704 128.526 43.6038C128.412 43.4297 128.356 43.2215 128.356 42.9792C128.356 42.8959 128.359 42.8164 128.367 42.7407C128.375 42.665 128.386 42.5855 128.401 42.5022L128.64 41.0713H126.459L126.005 43.7969H125.096L125.823 39.3905ZM134.69 43.7969L134.304 42.8088C134.235 42.9451 134.148 43.0814 134.042 43.2177C133.936 43.3464 133.815 43.4637 133.679 43.5697C133.55 43.6682 133.403 43.7477 133.236 43.8082C133.077 43.8764 132.907 43.9104 132.725 43.9104C132.112 43.9104 131.661 43.7136 131.374 43.3199C131.086 42.9262 130.942 42.3886 130.942 41.7072C130.942 41.253 131.003 40.8063 131.124 40.3671C131.252 39.9204 131.43 39.5229 131.657 39.1747C131.885 38.8264 132.153 38.5463 132.464 38.3343C132.774 38.1147 133.119 38.0049 133.497 38.0049C133.702 38.0049 133.88 38.0352 134.031 38.0958C134.19 38.1564 134.323 38.2359 134.429 38.3343C134.535 38.4251 134.618 38.5311 134.678 38.6523C134.739 38.7734 134.784 38.8908 134.815 39.0043L135.644 38.1185H135.894L134.94 43.7969H134.69ZM133.656 38.5728C133.422 38.5728 133.202 38.6636 132.998 38.8453C132.793 39.027 132.615 39.2731 132.464 39.5835C132.32 39.8939 132.206 40.2536 132.123 40.6624C132.04 41.0637 131.998 41.4877 131.998 41.9344C131.998 42.3735 132.081 42.7218 132.248 42.9792C132.422 43.2366 132.676 43.3653 133.009 43.3653C133.175 43.3653 133.331 43.3199 133.475 43.229C133.626 43.1306 133.762 43.0057 133.883 42.8543C134.005 42.6953 134.103 42.5173 134.179 42.3205C134.262 42.1236 134.323 41.9192 134.36 41.7072L134.599 40.299C134.614 40.2233 134.622 40.14 134.622 40.0491C134.629 39.9507 134.633 39.8674 134.633 39.7993C134.633 39.4132 134.55 39.1141 134.383 38.9021C134.217 38.6826 133.974 38.5728 133.656 38.5728ZM139.68 37.0623C139.847 37.0623 139.99 37.0282 140.112 36.9601C140.24 36.8844 140.346 36.7898 140.43 36.6762C140.513 36.5626 140.573 36.4377 140.611 36.3014C140.649 36.1651 140.668 36.0289 140.668 35.8926C140.668 35.8244 140.664 35.7714 140.657 35.7336H141.066C141.172 35.7639 141.255 35.8282 141.315 35.9266C141.384 36.0175 141.418 36.1197 141.418 36.2333C141.418 36.415 141.368 36.5816 141.27 36.733C141.172 36.8768 141.039 37.0018 140.873 37.1077C140.714 37.2137 140.524 37.297 140.305 37.3576C140.085 37.4106 139.854 37.4371 139.612 37.4371C139.165 37.4371 138.813 37.3538 138.556 37.1872C138.298 37.0131 138.17 36.7822 138.17 36.4945C138.17 36.3355 138.215 36.1803 138.306 36.0289C138.404 35.8774 138.541 35.779 138.715 35.7336H139.146C139.093 35.8396 139.052 35.9418 139.021 36.0402C138.999 36.1311 138.987 36.2295 138.987 36.3355C138.987 36.5323 139.036 36.7027 139.135 36.8465C139.241 36.9904 139.423 37.0623 139.68 37.0623ZM137.363 39.3905C137.371 39.3526 137.375 39.3185 137.375 39.2882C137.382 39.2504 137.386 39.2201 137.386 39.1974C137.386 39.0611 137.337 38.9627 137.238 38.9021C137.14 38.834 136.97 38.7999 136.727 38.7999L136.773 38.516L138.26 38.0049H138.499L137.863 41.8662C137.848 41.9344 137.836 42.0101 137.829 42.0934C137.829 42.1766 137.829 42.2448 137.829 42.2978C137.829 42.4189 137.84 42.5363 137.863 42.6498C137.886 42.7634 137.927 42.8656 137.988 42.9565C138.056 43.0473 138.143 43.1193 138.249 43.1723C138.355 43.2253 138.491 43.2518 138.658 43.2518C138.817 43.2518 138.976 43.2063 139.135 43.1155C139.294 43.017 139.438 42.8959 139.566 42.7521C139.695 42.6006 139.805 42.4303 139.896 42.241C139.994 42.0517 140.062 41.8587 140.1 41.6618L140.702 38.1185H141.611L140.884 42.5363C140.876 42.5741 140.869 42.6233 140.861 42.6839C140.854 42.7445 140.85 42.7937 140.85 42.8316C140.85 43.0587 140.948 43.1723 141.145 43.1723C141.296 43.1723 141.429 43.123 141.543 43.0246C141.656 42.9186 141.796 42.7672 141.963 42.5703L141.861 43.0928C141.709 43.3275 141.55 43.513 141.384 43.6492C141.225 43.7855 141.013 43.8537 140.748 43.8537C140.422 43.8537 140.202 43.7704 140.089 43.6038C139.975 43.4297 139.919 43.2215 139.919 42.9792C139.919 42.9338 139.919 42.8921 139.919 42.8543C139.919 42.8164 139.922 42.7748 139.93 42.7293C139.862 42.858 139.775 42.9943 139.669 43.1382C139.563 43.2745 139.434 43.3994 139.283 43.513C139.139 43.6265 138.976 43.7212 138.794 43.7969C138.613 43.8726 138.416 43.9104 138.204 43.9104C137.961 43.9104 137.753 43.8726 137.579 43.7969C137.412 43.7212 137.276 43.6227 137.17 43.5016C137.072 43.3729 137 43.2253 136.954 43.0587C136.909 42.8845 136.886 42.7028 136.886 42.5136C136.886 42.4379 136.89 42.347 136.898 42.241C136.905 42.135 136.917 42.0441 136.932 41.9684L137.363 39.3905ZM143.867 36.1765C143.913 36.0705 143.981 35.9683 144.072 35.8699C144.17 35.7714 144.28 35.6882 144.401 35.62C144.522 35.5443 144.651 35.4837 144.787 35.4383C144.931 35.3929 145.075 35.3702 145.219 35.3702C145.885 35.3702 146.396 35.6541 146.752 36.2219C147.108 36.7822 147.286 37.6604 147.286 38.8567C147.286 39.1141 147.271 39.417 147.24 39.7652C147.218 40.1135 147.168 40.4769 147.093 40.8555C147.017 41.2265 146.915 41.5937 146.786 41.9571C146.657 42.3205 146.487 42.6498 146.275 42.9451C146.071 43.2328 145.821 43.4675 145.525 43.6492C145.23 43.8234 144.882 43.9104 144.481 43.9104C144.163 43.9104 143.879 43.8574 143.629 43.7514C143.387 43.6379 143.182 43.4789 143.016 43.2745C142.849 43.07 142.72 42.824 142.63 42.5363C142.546 42.2486 142.505 41.9306 142.505 41.5823C142.505 41.0523 142.573 40.5716 142.709 40.14C142.853 39.7009 143.042 39.3299 143.277 39.027C143.519 38.7166 143.795 38.4781 144.106 38.3116C144.424 38.145 144.761 38.0617 145.117 38.0617C145.404 38.0617 145.647 38.1223 145.843 38.2434C146.048 38.357 146.226 38.516 146.377 38.7204C146.377 38.3418 146.351 37.9898 146.298 37.6642C146.245 37.3311 146.161 37.0434 146.048 36.8011C145.934 36.5588 145.79 36.3696 145.616 36.2333C145.442 36.097 145.234 36.0289 144.992 36.0289C144.749 36.0289 144.522 36.0894 144.31 36.2106C144.098 36.3241 143.928 36.4566 143.799 36.608L143.867 36.1765ZM144.492 43.547C144.795 43.547 145.052 43.4221 145.264 43.1723C145.476 42.9148 145.647 42.6082 145.775 42.2524C145.904 41.8889 145.995 41.5142 146.048 41.128C146.108 40.7343 146.139 40.3974 146.139 40.1173C146.139 39.5192 146.048 39.0914 145.866 38.834C145.684 38.569 145.442 38.4365 145.139 38.4365C144.821 38.4365 144.556 38.5652 144.344 38.8226C144.14 39.0725 143.973 39.3791 143.845 39.7425C143.716 40.0984 143.625 40.4731 143.572 40.8668C143.519 41.2605 143.493 41.5975 143.493 41.8776C143.493 42.4833 143.583 42.9148 143.765 43.1723C143.954 43.4221 144.197 43.547 144.492 43.547ZM151.803 42.6498C151.651 43.036 151.424 43.3426 151.121 43.5697C150.826 43.7969 150.462 43.9104 150.031 43.9104C149.721 43.9104 149.437 43.8537 149.179 43.7401C148.929 43.6265 148.714 43.4675 148.532 43.2631C148.358 43.0587 148.221 42.8164 148.123 42.5363C148.025 42.2486 147.975 41.9344 147.975 41.5937C147.975 41.1697 148.032 40.7457 148.146 40.3217C148.259 39.8902 148.433 39.504 148.668 39.1633C148.903 38.8226 149.198 38.5463 149.554 38.3343C149.91 38.1147 150.33 38.0049 150.815 38.0049C151.246 38.0049 151.583 38.1071 151.825 38.3116C152.075 38.516 152.2 38.7961 152.2 39.152C152.2 39.5457 152.087 39.875 151.859 40.14C151.632 40.3974 151.356 40.6094 151.03 40.776C150.705 40.935 150.36 41.0561 149.997 41.1394C149.633 41.2227 149.312 41.2795 149.032 41.3097C149.024 41.3627 149.02 41.4157 149.02 41.4687C149.02 41.5142 149.02 41.5596 149.02 41.605C149.02 42.0896 149.13 42.4719 149.35 42.7521C149.577 43.0246 149.902 43.1609 150.326 43.1609C150.621 43.1609 150.894 43.0814 151.144 42.9224C151.401 42.7558 151.647 42.506 151.882 42.1729L151.803 42.6498ZM150.667 38.3683C150.417 38.3683 150.194 38.4592 149.997 38.6409C149.808 38.8226 149.645 39.046 149.509 39.311C149.372 39.5684 149.266 39.8447 149.191 40.14C149.115 40.4277 149.066 40.6851 149.043 40.9123C149.27 40.8895 149.509 40.8365 149.758 40.7533C150.016 40.6624 150.251 40.5451 150.462 40.4012C150.682 40.2498 150.86 40.0643 150.996 39.8447C151.14 39.6176 151.212 39.3564 151.212 39.0611C151.212 38.8643 151.163 38.7015 151.064 38.5728C150.974 38.4365 150.841 38.3683 150.667 38.3683ZM153.565 39.3905C153.573 39.3526 153.576 39.3185 153.576 39.2882C153.584 39.2504 153.588 39.2201 153.588 39.1974C153.588 39.0611 153.539 38.9627 153.44 38.9021C153.342 38.834 153.171 38.7999 152.929 38.7999L152.975 38.516L154.474 38.0049H154.712L154.269 40.6738H156.45L156.881 38.1185H157.79L157.052 42.5363C157.044 42.5741 157.036 42.6233 157.029 42.6839C157.029 42.7445 157.029 42.7937 157.029 42.8316C157.029 43.0587 157.127 43.1723 157.324 43.1723C157.476 43.1723 157.608 43.123 157.722 43.0246C157.835 42.9186 157.975 42.7672 158.142 42.5703L158.04 43.0928C157.888 43.3275 157.729 43.513 157.563 43.6492C157.404 43.7855 157.192 43.8537 156.927 43.8537C156.601 43.8537 156.382 43.7704 156.268 43.6038C156.154 43.4297 156.098 43.2215 156.098 42.9792C156.098 42.8959 156.101 42.8164 156.109 42.7407C156.117 42.665 156.128 42.5855 156.143 42.5022L156.382 41.0713H154.201L153.747 43.7969H152.838L153.565 39.3905Z" fill="#104A99"/>
<rect x="35.99" y="12.0408" width="165.354" height="54.5124" stroke="#ADBFFD" stroke-width="1.36281"/>
<path d="M236.095 39.5234V234.405H153.418" stroke="#ADBFFD" stroke-width="0.45427" stroke-dasharray="13.63 4.54"/>
<path d="M147.531 215.147C157.416 230.711 152.812 251.341 137.248 261.226C121.684 271.111 101.053 266.507 91.1684 250.943C81.2834 235.379 85.8872 214.749 101.451 204.864C117.015 194.979 137.646 199.583 147.531 215.147Z" fill="white" stroke="#ADBFFD" stroke-width="1.36281"/>
<path d="M100.791 232.664C101.231 232.793 101.564 233.02 101.791 233.346C102.018 233.664 102.132 234.038 102.132 234.47C102.132 234.894 102.056 235.28 101.904 235.628C101.753 235.969 101.549 236.26 101.291 236.503C101.034 236.745 100.735 236.93 100.394 237.059C100.053 237.188 99.6974 237.252 99.3265 237.252C98.9176 237.252 98.5656 237.195 98.2703 237.082C97.975 236.961 97.7327 236.806 97.5434 236.616C97.3617 236.419 97.2255 236.204 97.1346 235.969C97.0513 235.727 97.0097 235.481 97.0097 235.231L97.0665 234.765C97.1497 235.053 97.2595 235.295 97.3958 235.492C97.5321 235.689 97.6873 235.848 97.8614 235.969C98.0431 236.09 98.2362 236.177 98.4406 236.23C98.6451 236.283 98.857 236.31 99.0766 236.31C99.3265 236.31 99.5687 236.268 99.8034 236.185C100.038 236.094 100.243 235.969 100.417 235.81C100.591 235.651 100.731 235.458 100.837 235.231C100.943 234.996 100.996 234.735 100.996 234.447C100.996 234.25 100.962 234.061 100.894 233.879C100.826 233.698 100.727 233.539 100.598 233.402C100.477 233.266 100.322 233.156 100.133 233.073C99.9511 232.99 99.7429 232.948 99.5082 232.948H98.804L98.8835 232.471H99.7353C99.9927 232.471 100.224 232.414 100.428 232.301C100.632 232.187 100.807 232.036 100.95 231.846C101.094 231.65 101.204 231.43 101.28 231.188C101.356 230.938 101.393 230.677 101.393 230.404C101.393 229.995 101.28 229.681 101.053 229.462C100.833 229.234 100.545 229.121 100.19 229.121C99.7277 229.121 99.3302 229.333 98.9971 229.757C98.664 230.181 98.4179 230.775 98.2589 231.54H97.8955L98.2249 229.427C98.4444 229.246 98.7246 229.072 99.0653 228.905C99.406 228.738 99.7883 228.655 100.212 228.655C100.553 228.655 100.863 228.701 101.144 228.791C101.431 228.875 101.674 229 101.87 229.166C102.075 229.325 102.234 229.518 102.347 229.745C102.461 229.973 102.518 230.226 102.518 230.506C102.518 230.817 102.472 231.097 102.381 231.347C102.291 231.597 102.166 231.812 102.007 231.994C101.848 232.176 101.662 232.323 101.45 232.437C101.246 232.543 101.026 232.615 100.791 232.653V232.664ZM106.83 237.139L106.444 236.151C106.376 236.287 106.289 236.423 106.183 236.559C106.077 236.688 105.956 236.806 105.82 236.912C105.691 237.01 105.543 237.089 105.377 237.15C105.218 237.218 105.047 237.252 104.866 237.252C104.252 237.252 103.802 237.055 103.514 236.662C103.226 236.268 103.083 235.73 103.083 235.049C103.083 234.595 103.143 234.148 103.264 233.709C103.393 233.262 103.571 232.865 103.798 232.516C104.025 232.168 104.294 231.888 104.604 231.676C104.915 231.457 105.259 231.347 105.638 231.347C105.842 231.347 106.02 231.377 106.172 231.438C106.331 231.498 106.463 231.578 106.569 231.676C106.675 231.767 106.758 231.873 106.819 231.994C106.879 232.115 106.925 232.233 106.955 232.346L107.784 231.46H108.034L107.08 237.139H106.83ZM105.797 231.915C105.562 231.915 105.343 232.005 105.138 232.187C104.934 232.369 104.756 232.615 104.604 232.925C104.46 233.236 104.347 233.595 104.264 234.004C104.18 234.405 104.139 234.829 104.139 235.276C104.139 235.715 104.222 236.064 104.389 236.321C104.563 236.578 104.816 236.707 105.149 236.707C105.316 236.707 105.471 236.662 105.615 236.571C105.767 236.472 105.903 236.347 106.024 236.196C106.145 236.037 106.243 235.859 106.319 235.662C106.402 235.465 106.463 235.261 106.501 235.049L106.739 233.641C106.755 233.565 106.762 233.482 106.762 233.391C106.77 233.293 106.773 233.209 106.773 233.141C106.773 232.755 106.69 232.456 106.524 232.244C106.357 232.024 106.115 231.915 105.797 231.915ZM109.561 232.732C109.568 232.694 109.572 232.66 109.572 232.63C109.58 232.592 109.583 232.562 109.583 232.539C109.583 232.403 109.534 232.304 109.436 232.244C109.337 232.176 109.167 232.142 108.925 232.142L108.97 231.858L110.469 231.347H110.708L110.253 234.072H110.651C110.802 234.072 110.923 234.046 111.014 233.993C111.105 233.932 111.2 233.83 111.298 233.686L112.093 232.494C112.222 232.297 112.335 232.13 112.434 231.994C112.532 231.85 112.623 231.737 112.706 231.653C112.79 231.563 112.873 231.498 112.956 231.46C113.04 231.422 113.134 231.404 113.24 231.404C113.399 231.404 113.52 231.468 113.604 231.597C113.694 231.718 113.732 231.88 113.717 232.085L113.626 232.596C113.573 232.498 113.501 232.418 113.411 232.357C113.32 232.297 113.21 232.267 113.081 232.267C112.915 232.267 112.778 232.312 112.672 232.403C112.574 232.494 112.468 232.626 112.354 232.8L111.639 233.857L112.547 236.003C112.6 236.132 112.657 236.23 112.718 236.298C112.786 236.366 112.884 236.4 113.013 236.4C113.149 236.4 113.255 236.355 113.331 236.264C113.414 236.173 113.498 236.071 113.581 235.958L113.49 236.469C113.407 236.65 113.301 236.817 113.172 236.968C113.043 237.12 112.858 237.195 112.616 237.195C112.373 237.195 112.176 237.112 112.025 236.946C111.881 236.779 111.749 236.559 111.628 236.287L110.833 234.447H110.185L109.731 237.139H108.788L109.561 232.732ZM113.256 239.603L113.302 239.331C113.582 239.331 113.783 239.274 113.904 239.16C114.033 239.047 114.116 238.888 114.154 238.683L115.13 232.721C115.138 232.683 115.142 232.649 115.142 232.619C115.149 232.581 115.153 232.551 115.153 232.528C115.153 232.392 115.104 232.293 115.005 232.233C114.907 232.164 114.737 232.13 114.494 232.13L114.54 231.858L116.05 231.347H116.277L116.13 232.267C116.258 232.024 116.448 231.812 116.698 231.631C116.955 231.441 117.254 231.347 117.595 231.347C117.913 231.347 118.182 231.404 118.401 231.517C118.628 231.631 118.814 231.79 118.958 231.994C119.109 232.198 119.219 232.441 119.287 232.721C119.355 232.993 119.389 233.289 119.389 233.607C119.389 234.076 119.325 234.53 119.196 234.97C119.075 235.409 118.901 235.799 118.674 236.139C118.454 236.48 118.189 236.756 117.879 236.968C117.568 237.173 117.228 237.275 116.857 237.275C116.629 237.275 116.433 237.245 116.266 237.184C116.107 237.131 115.971 237.055 115.857 236.957C115.751 236.859 115.668 236.745 115.607 236.616C115.547 236.488 115.501 236.351 115.471 236.207L115.096 238.501C115.089 238.547 115.081 238.604 115.074 238.672C115.066 238.74 115.062 238.797 115.062 238.842C115.062 238.994 115.108 239.111 115.198 239.194C115.297 239.285 115.467 239.331 115.71 239.331L115.664 239.603H113.256ZM115.687 234.992C115.672 235.068 115.66 235.144 115.653 235.219C115.645 235.288 115.641 235.359 115.641 235.435C115.641 235.799 115.717 236.098 115.869 236.332C116.028 236.567 116.277 236.684 116.618 236.684C116.853 236.684 117.072 236.597 117.277 236.423C117.489 236.249 117.674 236.011 117.833 235.708C117.992 235.405 118.117 235.057 118.208 234.663C118.299 234.262 118.344 233.834 118.344 233.38C118.344 232.925 118.261 232.566 118.094 232.301C117.935 232.036 117.674 231.903 117.311 231.903C117.137 231.903 116.97 231.952 116.811 232.051C116.66 232.142 116.523 232.267 116.402 232.426C116.281 232.577 116.179 232.751 116.096 232.948C116.012 233.145 115.956 233.346 115.925 233.55L115.687 234.992ZM126.022 231.46H126.93L126.204 235.878C126.196 235.916 126.188 235.965 126.181 236.026C126.173 236.086 126.17 236.135 126.17 236.173C126.17 236.4 126.268 236.514 126.465 236.514C126.616 236.514 126.749 236.465 126.862 236.366C126.976 236.26 127.116 236.109 127.283 235.912L127.18 236.435C127.029 236.669 126.87 236.855 126.703 236.991C126.544 237.127 126.332 237.195 126.067 237.195C125.742 237.195 125.522 237.112 125.409 236.946C125.295 236.771 125.238 236.563 125.238 236.321C125.238 236.238 125.242 236.158 125.25 236.082C125.257 236.007 125.269 235.927 125.284 235.844L126.022 231.46ZM121.536 234.277C121.498 234.534 121.468 234.746 121.445 234.913C121.43 235.072 121.415 235.204 121.4 235.31C121.392 235.409 121.385 235.484 121.377 235.537C121.377 235.59 121.377 235.64 121.377 235.685C121.377 236.071 121.438 236.37 121.559 236.582C121.687 236.787 121.896 236.889 122.183 236.889C122.365 236.889 122.535 236.84 122.694 236.741C122.861 236.643 123.005 236.506 123.126 236.332C123.255 236.151 123.353 235.939 123.421 235.696C123.497 235.447 123.535 235.174 123.535 234.879C123.535 234.538 123.463 234.269 123.319 234.072C123.175 233.875 122.956 233.777 122.66 233.777C122.509 233.777 122.327 233.815 122.115 233.891C121.911 233.959 121.718 234.087 121.536 234.277ZM120.855 232.732C120.862 232.694 120.866 232.66 120.866 232.63C120.874 232.592 120.877 232.562 120.877 232.539C120.877 232.403 120.828 232.304 120.73 232.244C120.631 232.176 120.461 232.142 120.219 232.142L120.264 231.858L121.775 231.347H122.002L121.593 233.879C121.82 233.705 122.039 233.573 122.251 233.482C122.463 233.391 122.728 233.346 123.046 233.346C123.531 233.346 123.902 233.486 124.159 233.766C124.417 234.038 124.546 234.413 124.546 234.89C124.546 235.216 124.481 235.522 124.352 235.81C124.224 236.09 124.05 236.34 123.83 236.559C123.618 236.771 123.368 236.942 123.081 237.071C122.8 237.192 122.501 237.252 122.183 237.252C121.85 237.252 121.574 237.207 121.354 237.116C121.135 237.025 120.957 236.904 120.821 236.753C120.692 236.594 120.601 236.408 120.548 236.196C120.495 235.984 120.468 235.757 120.468 235.515C120.468 235.348 120.476 235.182 120.491 235.015C120.514 234.841 120.54 234.667 120.571 234.493L120.855 232.732ZM134.55 233.311C134.573 233.175 134.584 233.031 134.584 232.88C134.584 232.653 134.527 232.452 134.414 232.278C134.3 232.096 134.1 232.005 133.812 232.005C133.638 232.005 133.471 232.055 133.312 232.153C133.153 232.244 133.009 232.365 132.881 232.516C132.752 232.66 132.642 232.827 132.551 233.016C132.468 233.198 132.411 233.38 132.381 233.561L131.779 237.139H130.871L131.518 233.289C131.525 233.221 131.529 233.152 131.529 233.084C131.537 233.009 131.541 232.94 131.541 232.88C131.541 232.766 131.529 232.657 131.507 232.551C131.484 232.445 131.442 232.354 131.382 232.278C131.329 232.195 131.253 232.13 131.154 232.085C131.056 232.032 130.927 232.005 130.768 232.005C130.602 232.005 130.439 232.055 130.28 232.153C130.129 232.244 129.989 232.365 129.86 232.516C129.731 232.668 129.621 232.838 129.53 233.028C129.447 233.209 129.39 233.391 129.36 233.573L128.758 237.139H127.85L128.792 231.46H129.042L129.542 232.505C129.61 232.376 129.693 232.244 129.792 232.108C129.898 231.971 130.023 231.846 130.166 231.733C130.31 231.619 130.469 231.528 130.643 231.46C130.825 231.385 131.018 231.347 131.223 231.347C131.457 231.347 131.65 231.381 131.802 231.449C131.961 231.51 132.09 231.597 132.188 231.71C132.286 231.824 132.358 231.956 132.404 232.108C132.449 232.259 132.479 232.422 132.495 232.596C132.563 232.445 132.654 232.297 132.767 232.153C132.881 232.002 133.009 231.865 133.153 231.744C133.305 231.623 133.471 231.528 133.653 231.46C133.835 231.385 134.028 231.347 134.232 231.347C134.474 231.347 134.675 231.385 134.834 231.46C135.001 231.528 135.133 231.627 135.232 231.756C135.338 231.877 135.409 232.021 135.447 232.187C135.493 232.354 135.515 232.528 135.515 232.71C135.515 232.869 135.504 233.028 135.481 233.187L135.038 235.878C135.031 235.916 135.023 235.965 135.016 236.026C135.008 236.086 135.004 236.135 135.004 236.173C135.004 236.287 135.031 236.374 135.084 236.435C135.144 236.488 135.22 236.514 135.311 236.514C135.462 236.514 135.595 236.465 135.709 236.366C135.822 236.26 135.958 236.109 136.117 235.912L136.027 236.435C135.875 236.669 135.716 236.855 135.55 236.991C135.383 237.127 135.167 237.195 134.902 237.195C134.584 237.195 134.368 237.112 134.255 236.946C134.141 236.771 134.085 236.563 134.085 236.321C134.085 236.238 134.088 236.158 134.096 236.082C134.103 236.007 134.115 235.927 134.13 235.844L134.55 233.311ZM138.034 234.277C137.996 234.534 137.966 234.746 137.943 234.913C137.928 235.072 137.913 235.204 137.898 235.31C137.89 235.409 137.882 235.484 137.875 235.537C137.875 235.59 137.875 235.64 137.875 235.685C137.875 236.071 137.935 236.37 138.057 236.582C138.185 236.787 138.394 236.889 138.681 236.889C138.863 236.889 139.033 236.84 139.192 236.741C139.359 236.643 139.503 236.506 139.624 236.332C139.753 236.151 139.851 235.939 139.919 235.696C139.995 235.447 140.033 235.174 140.033 234.879C140.033 234.538 139.961 234.269 139.817 234.072C139.673 233.875 139.454 233.777 139.158 233.777C139.007 233.777 138.825 233.815 138.613 233.891C138.409 233.959 138.216 234.087 138.034 234.277ZM137.353 232.732C137.36 232.694 137.364 232.66 137.364 232.63C137.371 232.592 137.375 232.562 137.375 232.539C137.375 232.403 137.326 232.304 137.228 232.244C137.129 232.176 136.959 232.142 136.717 232.142L136.762 231.858L138.272 231.347H138.5L138.091 233.879C138.318 233.705 138.537 233.573 138.749 233.482C138.961 233.391 139.226 233.346 139.544 233.346C140.029 233.346 140.4 233.486 140.657 233.766C140.915 234.038 141.043 234.413 141.043 234.89C141.043 235.216 140.979 235.522 140.85 235.81C140.722 236.09 140.548 236.34 140.328 236.559C140.116 236.771 139.866 236.942 139.578 237.071C139.298 237.192 138.999 237.252 138.681 237.252C138.348 237.252 138.072 237.207 137.852 237.116C137.633 237.025 137.455 236.904 137.318 236.753C137.19 236.594 137.099 236.408 137.046 236.196C136.993 235.984 136.966 235.757 136.966 235.515C136.966 235.348 136.974 235.182 136.989 235.015C137.012 234.841 137.038 234.667 137.069 234.493L137.353 232.732Z" fill="#104A99"/>
</svg>
