<svg width="238" height="159" viewBox="0 0 238 159" fill="none" xmlns="http://www.w3.org/2000/svg">
<rect x="1.32456" y="1.55307" width="234.858" height="155.815" rx="3.37828" fill="white" stroke="#ADBFFD" stroke-width="1.81708"/>
<mask id="mask0_1910_3539" style="mask-type:alpha" maskUnits="userSpaceOnUse" x="0" y="0" width="238" height="159">
<path d="M0.416016 4.93135C0.416016 2.56381 2.33529 0.644534 4.70284 0.644534L232.804 0.644533C235.171 0.644532 237.091 2.56381 237.091 4.93135L237.091 153.989C237.091 156.357 235.171 158.276 232.804 158.276L4.70285 158.276C2.33531 158.276 0.416041 156.357 0.41604 153.989L0.416016 4.93135Z" fill="#D9D9D9"/>
</mask>
<g mask="url(#mask0_1910_3539)">
<path d="M-99.0684 -105.221L885.899 836.634" stroke="#ADBFFD" stroke-width="0.857364"/>
<path d="M194.021 -481.865L1178.99 459.99" stroke="#ADBFFD" stroke-width="0.857364"/>
<path d="M-243.439 -181.598L741.528 760.257" stroke="#ADBFFD" stroke-width="0.857364"/>
<path d="M47.4766 -293.543L1032.44 648.312" stroke="#ADBFFD" stroke-width="0.857364"/>
<path d="M-389.984 6.72461L594.983 948.58" stroke="#ADBFFD" stroke-width="0.857364"/>
<path d="M-62.4316 -152.301L922.536 789.554" stroke="#ADBFFD" stroke-width="0.857364"/>
<path d="M-499.895 147.965L485.073 1089.82" stroke="#ADBFFD" stroke-width="0.857364"/>
<path d="M84.1133 -340.625L1069.08 601.23" stroke="#ADBFFD" stroke-width="0.857364"/>
<path d="M-353.348 -40.3574L631.62 901.498" stroke="#ADBFFD" stroke-width="0.857364"/>
<path d="M-25.7949 -199.381L959.173 742.474" stroke="#ADBFFD" stroke-width="0.857364"/>
<path d="M-463.258 100.885L521.71 1042.74" stroke="#ADBFFD" stroke-width="0.857364"/>
<path d="M120.75 -387.705L1105.72 554.15" stroke="#ADBFFD" stroke-width="0.857364"/>
<path d="M-316.713 -87.4375L668.255 854.418" stroke="#ADBFFD" stroke-width="0.857364"/>
<path d="M10.8418 -246.463L995.81 695.392" stroke="#ADBFFD" stroke-width="0.857364"/>
<path d="M-426.621 53.8047L558.347 995.66" stroke="#ADBFFD" stroke-width="0.857364"/>
<path d="M157.387 -434.785L1142.35 507.07" stroke="#ADBFFD" stroke-width="0.857364"/>
<path d="M-280.076 -134.52L704.892 807.336" stroke="#ADBFFD" stroke-width="0.857364"/>
<path d="M-89.9102 -116.99L895.058 824.865" stroke="#ADBFFD" stroke-width="0.857364"/>
<path d="M203.182 -493.637L1188.15 448.218" stroke="#ADBFFD" stroke-width="0.857364"/>
<path d="M-234.279 -193.369L750.688 748.486" stroke="#ADBFFD" stroke-width="0.857364"/>
<path d="M56.6367 -305.314L1041.6 636.541" stroke="#ADBFFD" stroke-width="0.857364"/>
<path d="M-380.826 -5.04688L604.142 936.808" stroke="#ADBFFD" stroke-width="0.857364"/>
<path d="M-53.2734 -164.072L931.694 777.783" stroke="#ADBFFD" stroke-width="0.857364"/>
<path d="M-490.736 136.195L494.231 1078.05" stroke="#ADBFFD" stroke-width="0.857364"/>
<path d="M93.2734 -352.395L1078.24 589.461" stroke="#ADBFFD" stroke-width="0.857364"/>
<path d="M-344.189 -52.127L640.778 889.728" stroke="#ADBFFD" stroke-width="0.857364"/>
<path d="M-16.6367 -211.152L968.331 730.703" stroke="#ADBFFD" stroke-width="0.857364"/>
<path d="M-454.1 89.1152L530.868 1030.97" stroke="#ADBFFD" stroke-width="0.857364"/>
<path d="M129.908 -399.475L1114.88 542.38" stroke="#ADBFFD" stroke-width="0.857364"/>
<path d="M-307.553 -99.207L677.415 842.648" stroke="#ADBFFD" stroke-width="0.857364"/>
<path d="M20 -258.232L1004.97 683.623" stroke="#ADBFFD" stroke-width="0.857364"/>
<path d="M-417.463 42.0352L567.505 983.89" stroke="#ADBFFD" stroke-width="0.857364"/>
<path d="M166.545 -446.555L1151.51 495.3" stroke="#ADBFFD" stroke-width="0.857364"/>
<path d="M-270.916 -146.287L714.052 795.568" stroke="#ADBFFD" stroke-width="0.857364"/>
<path d="M-80.75 -128.762L904.218 813.093" stroke="#ADBFFD" stroke-width="0.857364"/>
<path d="M212.34 -505.406L1197.31 436.449" stroke="#ADBFFD" stroke-width="0.857364"/>
<path d="M-225.121 -205.139L759.847 736.716" stroke="#ADBFFD" stroke-width="0.857364"/>
<path d="M65.7949 -317.084L1050.76 624.771" stroke="#ADBFFD" stroke-width="0.857364"/>
<path d="M-371.666 -16.8164L613.302 925.039" stroke="#ADBFFD" stroke-width="0.857364"/>
<path d="M-44.1133 -175.842L940.854 766.013" stroke="#ADBFFD" stroke-width="0.857364"/>
<path d="M-481.576 124.426L503.392 1066.28" stroke="#ADBFFD" stroke-width="0.857364"/>
<path d="M102.432 -364.164L1087.4 577.691" stroke="#ADBFFD" stroke-width="0.857364"/>
<path d="M-335.031 -63.8965L649.936 877.959" stroke="#ADBFFD" stroke-width="0.857364"/>
<path d="M-7.47852 -222.924L977.489 718.931" stroke="#ADBFFD" stroke-width="0.857364"/>
<path d="M-444.941 77.3438L540.026 1019.2" stroke="#ADBFFD" stroke-width="0.857364"/>
<path d="M139.068 -411.246L1124.04 530.609" stroke="#ADBFFD" stroke-width="0.857364"/>
<path d="M-298.395 -110.979L686.573 830.877" stroke="#ADBFFD" stroke-width="0.857364"/>
<path d="M29.1582 -270.002L1014.13 671.853" stroke="#ADBFFD" stroke-width="0.857364"/>
<path d="M-408.305 30.2637L576.663 972.119" stroke="#ADBFFD" stroke-width="0.857364"/>
<path d="M175.703 -458.326L1160.67 483.529" stroke="#ADBFFD" stroke-width="0.857364"/>
<path d="M-261.758 -158.059L723.21 783.796" stroke="#ADBFFD" stroke-width="0.857364"/>
<path d="M-71.5918 -140.531L913.376 801.324" stroke="#ADBFFD" stroke-width="0.857364"/>
<path d="M74.9551 -328.854L1059.92 613.002" stroke="#ADBFFD" stroke-width="0.857364"/>
<path d="M-362.508 -28.5859L622.46 913.269" stroke="#ADBFFD" stroke-width="0.857364"/>
<path d="M-34.9551 -187.613L950.013 754.242" stroke="#ADBFFD" stroke-width="0.857364"/>
<path d="M-472.418 112.654L512.55 1054.51" stroke="#ADBFFD" stroke-width="0.857364"/>
<path d="M111.59 -375.936L1096.56 565.92" stroke="#ADBFFD" stroke-width="0.857364"/>
<path d="M-325.871 -75.668L659.097 866.187" stroke="#ADBFFD" stroke-width="0.857364"/>
<path d="M1.68164 -234.691L986.649 707.164" stroke="#ADBFFD" stroke-width="0.857364"/>
<path d="M-435.781 65.5742L549.186 1007.43" stroke="#ADBFFD" stroke-width="0.857364"/>
<path d="M148.227 -423.016L1133.19 518.839" stroke="#ADBFFD" stroke-width="0.857364"/>
<path d="M-289.234 -122.748L695.733 819.107" stroke="#ADBFFD" stroke-width="0.857364"/>
<path d="M38.3164 -281.773L1023.28 660.082" stroke="#ADBFFD" stroke-width="0.857364"/>
<path d="M-399.145 18.4941L585.823 960.349" stroke="#ADBFFD" stroke-width="0.857364"/>
<path d="M184.863 -470.096L1169.83 471.759" stroke="#ADBFFD" stroke-width="0.857364"/>
<path d="M-252.598 -169.83L732.37 772.025" stroke="#ADBFFD" stroke-width="0.857364"/>
</g>
<rect x="65.8809" y="34.3172" width="64.4786" height="64.24" transform="rotate(45 65.8809 34.3172)" fill="white"/>
<path d="M53.6855 77.6451C53.678 77.6829 53.6704 77.7359 53.6628 77.8041C53.6552 77.8722 53.6515 77.929 53.6515 77.9744C53.6515 78.1486 53.7045 78.2886 53.8105 78.3946C53.924 78.5006 54.1171 78.5536 54.3896 78.5536L54.3442 78.8262H51.6186L51.664 78.5536C51.982 78.5536 52.2129 78.4855 52.3568 78.3492C52.5006 78.2053 52.5915 78.0236 52.6294 77.8041L53.5379 72.3642L49.1996 77.4179L49.1655 77.6451C49.158 77.6829 49.1504 77.7359 49.1428 77.8041C49.1353 77.8722 49.1315 77.929 49.1315 77.9744C49.1315 78.1486 49.1845 78.2886 49.2905 78.3946C49.404 78.5006 49.5971 78.5536 49.8697 78.5536L49.8242 78.8262H47.0986L47.144 78.5536C47.462 78.5536 47.693 78.4855 47.8368 78.3492C47.9807 78.2053 48.0715 78.0236 48.1094 77.8041L49.1315 71.6601C49.139 71.6222 49.1466 71.5692 49.1542 71.5011C49.1618 71.4329 49.1655 71.3761 49.1655 71.3307C49.1655 71.1566 49.1088 71.0165 48.9952 70.9105C48.8816 70.8045 48.6848 70.7515 48.4046 70.7515L48.4501 70.479H51.1984L51.153 70.7515C50.8274 70.7515 50.5927 70.8234 50.4489 70.9673C50.305 71.1112 50.2141 71.2891 50.1763 71.5011L49.3359 76.6002L53.6742 71.5011C53.6742 71.4632 53.6742 71.4329 53.6742 71.4102C53.6817 71.3799 53.6855 71.3534 53.6855 71.3307C53.6855 71.1566 53.6287 71.0165 53.5152 70.9105C53.4016 70.8045 53.2048 70.7515 52.9246 70.7515L52.9701 70.479H55.7184L55.673 70.7515C55.3474 70.7515 55.1127 70.8234 54.9688 70.9673C54.825 71.1112 54.7341 71.2891 54.6963 71.5011L53.6855 77.6451ZM58.9414 75.4305C58.949 75.3548 58.9528 75.2753 58.9528 75.192C58.9603 75.1012 58.9641 75.0103 58.9641 74.9194C58.9641 74.7377 58.949 74.5598 58.9187 74.3857C58.896 74.204 58.8505 74.0412 58.7824 73.8973C58.7143 73.7459 58.6234 73.6248 58.5098 73.5339C58.3963 73.4431 58.2524 73.3976 58.0783 73.3976C57.9117 73.3976 57.73 73.4582 57.5332 73.5794C57.3439 73.6929 57.166 73.8746 56.9994 74.1245C56.8404 74.3668 56.7079 74.681 56.6019 75.0671C56.4959 75.4532 56.4429 75.9113 56.4429 76.4413C56.4429 76.9485 56.5413 77.3612 56.7382 77.6791C56.935 77.9896 57.2492 78.1448 57.6808 78.1448C57.9988 78.1448 58.26 78.0653 58.4644 77.9063C58.6764 77.7473 58.896 77.5088 59.1231 77.1908L59.055 77.6564C58.9263 78.0198 58.7218 78.3265 58.4417 78.5763C58.1691 78.8186 57.8171 78.9397 57.3855 78.9397C57.0373 78.9397 56.7344 78.8792 56.477 78.758C56.2271 78.6369 56.0189 78.4741 55.8524 78.2697C55.6858 78.0577 55.5609 77.8116 55.4776 77.5315C55.4019 77.2438 55.364 76.9334 55.364 76.6002C55.364 76.0324 55.4435 75.5289 55.6025 75.0898C55.7615 74.6431 55.9659 74.2683 56.2158 73.9655C56.4656 73.6626 56.7458 73.4317 57.0562 73.2727C57.3666 73.1137 57.677 73.0342 57.9874 73.0342C58.2221 73.0342 58.4228 73.0607 58.5893 73.1137C58.7635 73.1592 58.9111 73.2235 59.0323 73.3068C59.161 73.3901 59.267 73.4847 59.3502 73.5907C59.4411 73.6967 59.5168 73.8027 59.5774 73.9087L59.3275 75.4305H58.9414ZM60.9651 74.4198C60.9727 74.3819 60.9765 74.3478 60.9765 74.3175C60.984 74.2797 60.9878 74.2494 60.9878 74.2267C60.9878 74.0904 60.9386 73.992 60.8402 73.9314C60.7418 73.8633 60.5714 73.8292 60.3291 73.8292L60.3746 73.5453L61.8737 73.0342H62.1122L61.6579 75.7598H62.0554C62.2068 75.7598 62.3279 75.7333 62.4188 75.6804C62.5096 75.6198 62.6043 75.5176 62.7027 75.3737L63.4977 74.1813C63.6264 73.9844 63.74 73.8178 63.8384 73.6816C63.9368 73.5377 64.0277 73.4241 64.1109 73.3409C64.1942 73.25 64.2775 73.1857 64.3608 73.1478C64.4441 73.1099 64.5387 73.091 64.6447 73.091C64.8037 73.091 64.9248 73.1554 65.0081 73.2841C65.099 73.4052 65.1368 73.568 65.1217 73.7724L65.0308 74.2835C64.9778 74.185 64.9059 74.1055 64.8151 74.045C64.7242 73.9844 64.6144 73.9541 64.4857 73.9541C64.3191 73.9541 64.1829 73.9996 64.0769 74.0904C63.9784 74.1813 63.8724 74.3138 63.7589 74.4879L63.0434 75.5441L63.9519 77.6905C64.0049 77.8192 64.0617 77.9176 64.1223 77.9858C64.1904 78.0539 64.2889 78.088 64.4176 78.088C64.5539 78.088 64.6599 78.0426 64.7356 77.9517C64.8188 77.8608 64.9021 77.7586 64.9854 77.6451L64.8946 78.1561C64.8113 78.3378 64.7053 78.5044 64.5766 78.6558C64.4479 78.8072 64.2624 78.883 64.0201 78.883C63.7778 78.883 63.581 78.7997 63.4295 78.6331C63.2857 78.4665 63.1532 78.247 63.032 77.9744L62.2371 76.1346H61.5897L61.1355 78.8262H60.1929L60.9651 74.4198ZM69.2318 78.8262L68.8456 77.8381C68.7775 77.9744 68.6904 78.1107 68.5844 78.247C68.4784 78.3757 68.3573 78.493 68.221 78.599C68.0923 78.6975 67.9447 78.777 67.7781 78.8375C67.6191 78.9057 67.4488 78.9397 67.2671 78.9397C66.6538 78.9397 66.2033 78.7429 65.9156 78.3492C65.6279 77.9555 65.484 77.4179 65.484 76.7365C65.484 76.2823 65.5446 75.8356 65.6658 75.3964C65.7945 74.9497 65.9724 74.5522 66.1995 74.204C66.4267 73.8557 66.6954 73.5756 67.0058 73.3636C67.3163 73.144 67.6608 73.0342 68.0393 73.0342C68.2437 73.0342 68.4217 73.0645 68.5731 73.1251C68.7321 73.1857 68.8646 73.2651 68.9706 73.3636C69.0766 73.4544 69.1598 73.5604 69.2204 73.6816C69.281 73.8027 69.3264 73.9201 69.3567 74.0336L70.1857 73.1478H70.4356L69.4816 78.8262H69.2318ZM68.1983 73.6021C67.9636 73.6021 67.744 73.6929 67.5396 73.8746C67.3352 74.0563 67.1573 74.3024 67.0058 74.6128C66.862 74.9232 66.7484 75.2829 66.6651 75.6917C66.5819 76.093 66.5402 76.517 66.5402 76.9637C66.5402 77.4028 66.6235 77.7511 66.7901 78.0085C66.9642 78.2659 67.2178 78.3946 67.551 78.3946C67.7175 78.3946 67.8727 78.3492 68.0166 78.2583C68.168 78.1599 68.3043 78.035 68.4254 77.8836C68.5466 77.7246 68.645 77.5466 68.7207 77.3498C68.804 77.1529 68.8646 76.9485 68.9024 76.7365L69.1409 75.3283C69.1561 75.2526 69.1636 75.1693 69.1636 75.0784C69.1712 74.98 69.175 74.8967 69.175 74.8286C69.175 74.4425 69.0917 74.1434 68.9251 73.9314C68.7586 73.7118 68.5163 73.6021 68.1983 73.6021ZM77.8222 74.9989C77.8449 74.8627 77.8562 74.7188 77.8562 74.5674C77.8562 74.3403 77.7995 74.1396 77.6859 73.9655C77.5723 73.7838 77.3717 73.6929 77.084 73.6929C76.9099 73.6929 76.7433 73.7421 76.5843 73.8406C76.4253 73.9314 76.2814 74.0525 76.1527 74.204C76.024 74.3478 75.9142 74.5144 75.8234 74.7037C75.7401 74.8854 75.6833 75.0671 75.653 75.2488L75.0511 78.8262H74.1426L74.7899 74.9762C74.7975 74.9081 74.8013 74.84 74.8013 74.7718C74.8089 74.6961 74.8126 74.628 74.8126 74.5674C74.8126 74.4538 74.8013 74.344 74.7786 74.238C74.7559 74.132 74.7142 74.0412 74.6536 73.9655C74.6006 73.8822 74.5249 73.8178 74.4265 73.7724C74.3281 73.7194 74.1994 73.6929 74.0404 73.6929C73.8738 73.6929 73.711 73.7421 73.552 73.8406C73.4006 73.9314 73.2606 74.0525 73.1318 74.204C73.0031 74.3554 72.8933 74.5257 72.8025 74.715C72.7192 74.8967 72.6624 75.0784 72.6321 75.2602L72.0302 78.8262H71.1217L72.0643 73.1478H72.3142L72.8139 74.1926C72.882 74.0639 72.9653 73.9314 73.0637 73.7951C73.1697 73.6588 73.2946 73.5339 73.4385 73.4204C73.5823 73.3068 73.7413 73.2159 73.9155 73.1478C74.0972 73.0721 74.2902 73.0342 74.4947 73.0342C74.7294 73.0342 74.9224 73.0683 75.0738 73.1364C75.2328 73.197 75.3615 73.2841 75.46 73.3976C75.5584 73.5112 75.6303 73.6437 75.6758 73.7951C75.7212 73.9466 75.7515 74.1093 75.7666 74.2835C75.8347 74.132 75.9256 73.9844 76.0392 73.8406C76.1527 73.6891 76.2814 73.5529 76.4253 73.4317C76.5767 73.3106 76.7433 73.2159 76.925 73.1478C77.1067 73.0721 77.2998 73.0342 77.5042 73.0342C77.7465 73.0342 77.9471 73.0721 78.1061 73.1478C78.2727 73.2159 78.4052 73.3144 78.5036 73.4431C78.6096 73.5642 78.6815 73.7081 78.7194 73.8746C78.7648 74.0412 78.7875 74.2153 78.7875 74.397C78.7875 74.556 78.7761 74.715 78.7534 74.874L78.3105 77.5656C78.3029 77.6034 78.2954 77.6526 78.2878 77.7132C78.2802 77.7738 78.2764 77.823 78.2764 77.8608C78.2764 77.9744 78.3029 78.0615 78.3559 78.1221C78.4165 78.1751 78.4922 78.2015 78.5831 78.2015C78.7345 78.2015 78.867 78.1523 78.9806 78.0539C79.0941 77.9479 79.2304 77.7965 79.3894 77.5996L79.2986 78.1221C79.1471 78.3568 78.9881 78.5423 78.8216 78.6785C78.655 78.8148 78.4392 78.883 78.1742 78.883C77.8562 78.883 77.6405 78.7997 77.5269 78.6331C77.4133 78.459 77.3566 78.2508 77.3566 78.0085C77.3566 77.9252 77.3603 77.8457 77.3679 77.77C77.3755 77.6943 77.3868 77.6148 77.402 77.5315L77.8222 74.9989ZM81.306 75.9643C81.2681 76.2217 81.2378 76.4337 81.2151 76.6002C81.2 76.7592 81.1848 76.8917 81.1697 76.9977C81.1621 77.0962 81.1545 77.1719 81.147 77.2249C81.147 77.2779 81.147 77.3271 81.147 77.3725C81.147 77.7586 81.2075 78.0577 81.3287 78.2697C81.4574 78.4741 81.6656 78.5763 81.9533 78.5763C82.135 78.5763 82.3053 78.5271 82.4643 78.4287C82.6309 78.3303 82.7748 78.194 82.8959 78.0198C83.0246 77.8381 83.123 77.6261 83.1912 77.3839C83.2669 77.134 83.3047 76.8615 83.3047 76.5662C83.3047 76.2255 83.2328 75.9567 83.089 75.7598C82.9451 75.563 82.7255 75.4646 82.4303 75.4646C82.2788 75.4646 82.0971 75.5024 81.8851 75.5781C81.6807 75.6463 81.4877 75.775 81.306 75.9643ZM80.6245 74.4198C80.6321 74.3819 80.6359 74.3478 80.6359 74.3175C80.6435 74.2797 80.6473 74.2494 80.6473 74.2267C80.6473 74.0904 80.5981 73.992 80.4996 73.9314C80.4012 73.8633 80.2308 73.8292 79.9886 73.8292L80.034 73.5453L81.5444 73.0342H81.7716L81.3627 75.5668C81.5899 75.3926 81.8094 75.2602 82.0214 75.1693C82.2334 75.0784 82.4984 75.033 82.8164 75.033C83.301 75.033 83.6719 75.1731 83.9294 75.4532C84.1868 75.7258 84.3155 76.1006 84.3155 76.5775C84.3155 76.9031 84.2511 77.2097 84.1224 77.4974C83.9937 77.7776 83.8196 78.0274 83.6 78.247C83.388 78.459 83.1382 78.6293 82.8505 78.758C82.5703 78.8792 82.2713 78.9397 81.9533 78.9397C81.6202 78.9397 81.3438 78.8943 81.1242 78.8035C80.9047 78.7126 80.7268 78.5915 80.5905 78.44C80.4618 78.281 80.3709 78.0956 80.3179 77.8836C80.2649 77.6716 80.2384 77.4444 80.2384 77.2022C80.2384 77.0356 80.246 76.869 80.2611 76.7025C80.2838 76.5283 80.3103 76.3542 80.3406 76.18L80.6245 74.4198ZM49.2154 86.0784C49.2305 86.0103 49.2381 85.9346 49.2381 85.8513C49.2456 85.768 49.2494 85.6999 49.2494 85.6469C49.2494 85.5257 49.2343 85.4084 49.204 85.2948C49.1813 85.1813 49.1359 85.079 49.0677 84.9882C49.0072 84.8973 48.9201 84.8254 48.8065 84.7724C48.7005 84.7194 48.5642 84.6929 48.3977 84.6929C48.2235 84.6929 48.0532 84.7421 47.8866 84.8406C47.7276 84.9314 47.58 85.0563 47.4437 85.2153C47.315 85.3668 47.2014 85.5409 47.103 85.7377C47.0046 85.927 46.9402 86.1163 46.9099 86.3056L46.3194 89.8262H45.4109L46.3535 84.1478H46.6147L47.0917 85.204C47.1598 85.0677 47.2469 84.9314 47.3529 84.7951C47.4664 84.6513 47.5951 84.5226 47.739 84.409C47.8904 84.2954 48.057 84.2046 48.2387 84.1364C48.428 84.0683 48.6324 84.0342 48.8519 84.0342C49.0942 84.0342 49.2986 84.0721 49.4652 84.1478C49.6393 84.2235 49.7794 84.3257 49.8854 84.4544C49.9914 84.5756 50.0671 84.7232 50.1125 84.8973C50.1655 85.0639 50.192 85.2418 50.192 85.4311C50.192 85.5068 50.1883 85.5977 50.1807 85.7037C50.1731 85.8097 50.1618 85.9005 50.1466 85.9762L49.7151 88.5656C49.7075 88.6034 49.6999 88.6526 49.6923 88.7132C49.6848 88.7738 49.681 88.823 49.681 88.8608C49.681 88.9744 49.7075 89.0615 49.7605 89.1221C49.8211 89.1751 49.8968 89.2015 49.9876 89.2015C50.139 89.2015 50.2715 89.1523 50.3851 89.0539C50.4987 88.9479 50.635 88.7965 50.794 88.5996L50.7031 89.1221C50.5517 89.3568 50.3927 89.5423 50.2261 89.6785C50.0671 89.8148 49.8551 89.883 49.5901 89.883C49.2646 89.883 49.045 89.7997 48.9314 89.6331C48.8179 89.459 48.7611 89.2508 48.7611 89.0085C48.7611 88.9252 48.7649 88.8457 48.7724 88.77C48.78 88.6943 48.7914 88.6148 48.8065 88.5315L49.2154 86.0784ZM50.2244 92.2906L50.2699 92.018C50.55 92.018 50.7506 91.9612 50.8718 91.8477C51.0005 91.7341 51.0838 91.5751 51.1216 91.3707L52.0983 85.4084C52.1059 85.3705 52.1096 85.3365 52.1096 85.3062C52.1172 85.2683 52.121 85.238 52.121 85.2153C52.121 85.079 52.0718 84.9806 51.9734 84.9201C51.8749 84.8519 51.7046 84.8178 51.4623 84.8178L51.5077 84.5453L53.0182 84.0342H53.2453L53.0977 84.9541C53.2264 84.7118 53.4157 84.4999 53.6655 84.3181C53.9229 84.1289 54.222 84.0342 54.5627 84.0342C54.8807 84.0342 55.1495 84.091 55.369 84.2046C55.5962 84.3181 55.7817 84.4771 55.9255 84.6816C56.0769 84.886 56.1867 85.1283 56.2549 85.4084C56.323 85.681 56.3571 85.9762 56.3571 86.2942C56.3571 86.7636 56.2927 87.2179 56.164 87.657C56.0429 88.0962 55.8687 88.4861 55.6416 88.8268C55.422 89.1675 55.157 89.4438 54.8466 89.6558C54.5362 89.8602 54.1955 89.9625 53.8245 89.9625C53.5974 89.9625 53.4005 89.9322 53.234 89.8716C53.075 89.8186 52.9387 89.7429 52.8251 89.6445C52.7191 89.546 52.6358 89.4325 52.5753 89.3038C52.5147 89.1751 52.4693 89.0388 52.439 88.8949L52.0642 91.189C52.0567 91.2344 52.0491 91.2912 52.0415 91.3593C52.0339 91.4275 52.0302 91.4843 52.0302 91.5297C52.0302 91.6811 52.0756 91.7985 52.1664 91.8817C52.2649 91.9726 52.4352 92.018 52.6775 92.018L52.6321 92.2906H50.2244ZM52.6548 87.6797C52.6396 87.7555 52.6283 87.8312 52.6207 87.9069C52.6131 87.975 52.6093 88.0469 52.6093 88.1227C52.6093 88.4861 52.6851 88.7851 52.8365 89.0198C52.9955 89.2545 53.2453 89.3719 53.586 89.3719C53.8207 89.3719 54.0403 89.2848 54.2447 89.1107C54.4567 88.9366 54.6422 88.6981 54.8012 88.3952C54.9602 88.0924 55.0851 87.7441 55.176 87.3504C55.2668 86.9491 55.3123 86.5214 55.3123 86.0671C55.3123 85.6128 55.229 85.2532 55.0624 84.9882C54.9034 84.7232 54.6422 84.5907 54.2788 84.5907C54.1047 84.5907 53.9381 84.6399 53.7791 84.7383C53.6277 84.8292 53.4914 84.9541 53.3702 85.1131C53.2491 85.2645 53.1469 85.4387 53.0636 85.6355C52.9803 85.8324 52.9235 86.033 52.8933 86.2374L52.6548 87.6797ZM59.7078 84.0342C60.0409 84.0342 60.3362 84.0948 60.5936 84.2159C60.851 84.3371 61.063 84.5036 61.2296 84.7156C61.4037 84.9276 61.5324 85.1775 61.6157 85.4652C61.7065 85.7529 61.752 86.0595 61.752 86.3851C61.752 86.8772 61.6876 87.339 61.5589 87.7706C61.4302 88.2022 61.2485 88.5807 61.0138 88.9063C60.7791 89.2243 60.4989 89.4779 60.1734 89.6672C59.8478 89.8489 59.4882 89.9397 59.0945 89.9397C58.7841 89.9397 58.5002 89.883 58.2427 89.7694C57.9929 89.6558 57.7809 89.4968 57.6068 89.2924C57.4326 89.088 57.2963 88.8457 57.1979 88.5656C57.1071 88.2779 57.0616 87.9599 57.0616 87.6116C57.0616 87.0665 57.126 86.5744 57.2547 86.1352C57.391 85.6961 57.5765 85.3213 57.8112 85.0109C58.0459 84.7005 58.3222 84.462 58.6402 84.2954C58.9658 84.1213 59.3216 84.0342 59.7078 84.0342ZM59.0831 89.5763C59.3936 89.5763 59.6548 89.4514 59.8668 89.2015C60.0787 88.9441 60.2491 88.6337 60.3778 88.2703C60.5065 87.9069 60.5974 87.5283 60.6504 87.1346C60.7109 86.7333 60.7412 86.3926 60.7412 86.1125C60.7412 85.4992 60.6504 85.0639 60.4687 84.8065C60.287 84.5415 60.0409 84.409 59.7305 84.409C59.5185 84.409 59.3292 84.4696 59.1626 84.5907C59.0036 84.7043 58.8598 84.8595 58.7311 85.0563C58.6099 85.2532 58.5077 85.4765 58.4244 85.7264C58.3412 85.9687 58.273 86.2185 58.22 86.4759C58.167 86.7333 58.1292 86.987 58.1065 87.2368C58.0837 87.4791 58.0724 87.6949 58.0724 87.8842C58.0724 88.4974 58.1632 88.9328 58.3449 89.1902C58.5342 89.4476 58.7803 89.5763 59.0831 89.5763ZM63.8176 82.2058C63.863 82.0998 63.9311 81.9976 64.022 81.8992C64.1204 81.8007 64.2302 81.7174 64.3513 81.6493C64.4725 81.5736 64.6012 81.513 64.7375 81.4676C64.8813 81.4222 65.0252 81.3995 65.169 81.3995C65.8353 81.3995 66.3463 81.6834 66.7022 82.2512C67.058 82.8115 67.236 83.6897 67.236 84.886C67.236 85.1434 67.2208 85.4462 67.1905 85.7945C67.1678 86.1428 67.1186 86.5062 67.0429 86.8848C66.9672 87.2558 66.865 87.623 66.7363 87.9864C66.6075 88.3498 66.4372 88.6791 66.2252 88.9744C66.0208 89.2621 65.7709 89.4968 65.4757 89.6785C65.1804 89.8527 64.8321 89.9397 64.4308 89.9397C64.1128 89.9397 63.8289 89.8867 63.5791 89.7807C63.3368 89.6672 63.1324 89.5082 62.9658 89.3038C62.7993 89.0993 62.6705 88.8533 62.5797 88.5656C62.4964 88.2779 62.4548 87.9599 62.4548 87.6116C62.4548 87.0816 62.5229 86.6009 62.6592 86.1693C62.803 85.7302 62.9923 85.3592 63.227 85.0563C63.4693 84.7459 63.7456 84.5074 64.0561 84.3409C64.3741 84.1743 64.711 84.091 65.0668 84.091C65.3545 84.091 65.5968 84.1516 65.7936 84.2727C65.9981 84.3863 66.176 84.5453 66.3274 84.7497C66.3274 84.3711 66.3009 84.0191 66.2479 83.6935C66.1949 83.3604 66.1116 83.0727 65.9981 82.8304C65.8845 82.5881 65.7407 82.3989 65.5665 82.2626C65.3924 82.1263 65.1842 82.0582 64.9419 82.0582C64.6996 82.0582 64.4725 82.1187 64.2605 82.2399C64.0485 82.3534 63.8781 82.4859 63.7494 82.6373L63.8176 82.2058ZM64.4422 89.5763C64.745 89.5763 65.0025 89.4514 65.2145 89.2015C65.4264 88.9441 65.5968 88.6375 65.7255 88.2817C65.8542 87.9182 65.9451 87.5435 65.9981 87.1573C66.0586 86.7636 66.0889 86.4267 66.0889 86.1466C66.0889 85.5485 65.9981 85.1207 65.8164 84.8633C65.6347 84.5983 65.3924 84.4658 65.0895 84.4658C64.7715 84.4658 64.5066 84.5945 64.2946 84.8519C64.0901 85.1018 63.9236 85.4084 63.7949 85.7718C63.6662 86.1277 63.5753 86.5024 63.5223 86.8961C63.4693 87.2898 63.4428 87.6267 63.4428 87.9069C63.4428 88.5126 63.5337 88.9441 63.7154 89.2015C63.9046 89.4514 64.1469 89.5763 64.4422 89.5763ZM71.5597 85.8172C71.6581 85.6128 71.7338 85.4387 71.7868 85.2948C71.8398 85.151 71.8663 85.026 71.8663 84.9201C71.8663 84.7989 71.8247 84.6853 71.7414 84.5794C71.6581 84.4734 71.484 84.4204 71.219 84.4204L71.2758 84.1478H72.7635L72.7067 84.4204L69.5382 90.9051C69.4473 91.0868 69.3527 91.2647 69.2543 91.4388C69.1634 91.6205 69.065 91.7795 68.959 91.9158C68.853 92.0521 68.7394 92.1619 68.6183 92.2452C68.4971 92.3284 68.3684 92.3701 68.2322 92.3701C68.0277 92.3701 67.8725 92.3095 67.7665 92.1884C67.6681 92.0748 67.6 91.9423 67.5621 91.7909L67.6416 91.2571C67.7249 91.3555 67.8195 91.4313 67.9255 91.4843C68.0391 91.5373 68.1716 91.5638 68.323 91.5638C68.4971 91.5638 68.6524 91.4843 68.7886 91.3253C68.9325 91.1738 69.0915 90.924 69.2656 90.5757L69.6745 89.7353L68.6751 85.4198C68.6296 85.2153 68.5766 85.0753 68.5161 84.9996C68.4631 84.9163 68.3874 84.8746 68.2889 84.8746C68.1375 84.8746 68.0012 84.9466 67.8801 85.0904C67.759 85.2267 67.6567 85.3592 67.5735 85.4879L67.6757 84.8973C67.759 84.6778 67.8952 84.4847 68.0845 84.3181C68.2738 84.144 68.5009 84.0569 68.7659 84.0569C68.9173 84.0569 69.0385 84.091 69.1293 84.1592C69.2278 84.2197 69.3035 84.303 69.3565 84.409C69.417 84.515 69.4625 84.6323 69.4928 84.7611C69.5306 84.8898 69.5647 85.0185 69.595 85.1472L70.3218 88.3271L71.5597 85.8172ZM73.6494 85.4198C73.657 85.3819 73.6608 85.3478 73.6608 85.3175C73.6683 85.2797 73.6721 85.2494 73.6721 85.2267C73.6721 85.0904 73.6229 84.992 73.5245 84.9314C73.4261 84.8633 73.2557 84.8292 73.0134 84.8292L73.0589 84.5453L74.558 84.0342H74.7964L74.3422 86.7598H74.7397C74.8911 86.7598 75.0122 86.7333 75.1031 86.6804C75.1939 86.6198 75.2886 86.5176 75.387 86.3737L76.182 85.1813C76.3107 84.9844 76.4243 84.8178 76.5227 84.6816C76.6211 84.5377 76.712 84.4241 76.7952 84.3409C76.8785 84.25 76.9618 84.1856 77.0451 84.1478C77.1284 84.1099 77.223 84.091 77.329 84.091C77.488 84.091 77.6091 84.1554 77.6924 84.2841C77.7833 84.4052 77.8211 84.568 77.806 84.7724L77.7151 85.2835C77.6621 85.185 77.5902 85.1055 77.4994 85.045C77.4085 84.9844 77.2987 84.9541 77.17 84.9541C77.0034 84.9541 76.8672 84.9996 76.7612 85.0904C76.6627 85.1813 76.5567 85.3138 76.4432 85.4879L75.7277 86.5441L76.6362 88.6905C76.6892 88.8192 76.746 88.9176 76.8066 88.9858C76.8747 89.0539 76.9732 89.088 77.1019 89.088C77.2382 89.088 77.3441 89.0426 77.4199 88.9517C77.5031 88.8608 77.5864 88.7586 77.6697 88.6451L77.5789 89.1561C77.4956 89.3378 77.3896 89.5044 77.2609 89.6558C77.1322 89.8072 76.9467 89.883 76.7044 89.883C76.4621 89.883 76.2653 89.7997 76.1138 89.6331C75.97 89.4665 75.8375 89.247 75.7163 88.9744L74.9214 87.1346H74.274L73.8198 89.8262H72.8772L73.6494 85.4198ZM85.1133 85.9989C85.1361 85.8627 85.1474 85.7188 85.1474 85.5674C85.1474 85.3403 85.0906 85.1396 84.9771 84.9655C84.8635 84.7838 84.6629 84.6929 84.3752 84.6929C84.201 84.6929 84.0345 84.7421 83.8755 84.8406C83.7165 84.9314 83.5726 85.0525 83.4439 85.204C83.3152 85.3478 83.2054 85.5144 83.1146 85.7037C83.0313 85.8854 82.9745 86.0671 82.9442 86.2488L82.3423 89.8262H81.4338L82.0811 85.9762C82.0887 85.9081 82.0925 85.84 82.0925 85.7718C82.1 85.6961 82.1038 85.628 82.1038 85.5674C82.1038 85.4538 82.0925 85.344 82.0697 85.238C82.047 85.132 82.0054 85.0412 81.9448 84.9655C81.8918 84.8822 81.8161 84.8178 81.7177 84.7724C81.6193 84.7194 81.4905 84.6929 81.3316 84.6929C81.165 84.6929 81.0022 84.7421 80.8432 84.8406C80.6918 84.9314 80.5517 85.0525 80.423 85.204C80.2943 85.3554 80.1845 85.5257 80.0937 85.715C80.0104 85.8967 79.9536 86.0784 79.9233 86.2602L79.3214 89.8262H78.4129L79.3555 84.1478H79.6053L80.105 85.1926C80.1732 85.0639 80.2564 84.9314 80.3549 84.7951C80.4609 84.6588 80.5858 84.5339 80.7296 84.4204C80.8735 84.3068 81.0325 84.2159 81.2066 84.1478C81.3883 84.0721 81.5814 84.0342 81.7858 84.0342C82.0205 84.0342 82.2136 84.0683 82.365 84.1364C82.524 84.197 82.6527 84.2841 82.7511 84.3976C82.8496 84.5112 82.9215 84.6437 82.9669 84.7951C83.0124 84.9466 83.0426 85.1093 83.0578 85.2835C83.1259 85.132 83.2168 84.9844 83.3303 84.8406C83.4439 84.6891 83.5726 84.5529 83.7165 84.4317C83.8679 84.3106 84.0345 84.2159 84.2162 84.1478C84.3979 84.0721 84.5909 84.0342 84.7954 84.0342C85.0376 84.0342 85.2383 84.0721 85.3973 84.1478C85.5638 84.2159 85.6963 84.3144 85.7948 84.4431C85.9008 84.5642 85.9727 84.7081 86.0105 84.8746C86.056 85.0412 86.0787 85.2153 86.0787 85.397C86.0787 85.556 86.0673 85.715 86.0446 85.874L85.6017 88.5656C85.5941 88.6034 85.5865 88.6526 85.579 88.7132C85.5714 88.7738 85.5676 88.823 85.5676 88.8608C85.5676 88.9744 85.5941 89.0615 85.6471 89.1221C85.7077 89.1751 85.7834 89.2015 85.8743 89.2015C86.0257 89.2015 86.1582 89.1523 86.2717 89.0539C86.3853 88.9479 86.5216 88.7965 86.6806 88.5996L86.5897 89.1221C86.4383 89.3568 86.2793 89.5423 86.1127 89.6785C85.9462 89.8148 85.7304 89.883 85.4654 89.883C85.1474 89.883 84.9316 89.7997 84.8181 89.6331C84.7045 89.459 84.6477 89.2508 84.6477 89.0085C84.6477 88.9252 84.6515 88.8457 84.6591 88.77C84.6667 88.6943 84.678 88.6148 84.6931 88.5315L85.1133 85.9989Z" fill="#104A99"/>
<rect x="65.8809" y="34.3172" width="64.4786" height="64.24" transform="rotate(45 65.8809 34.3172)" stroke="#ADBFFD" stroke-width="1.36281"/>
<rect x="171.545" y="34.3172" width="64.4786" height="64.24" transform="rotate(45 171.545 34.3172)" fill="white"/>
<path d="M159.729 79.897C159.919 79.9122 160.112 79.9652 160.309 80.056C160.506 80.1469 160.68 80.2718 160.831 80.4308C160.99 80.5898 161.119 80.7829 161.217 81.01C161.316 81.2296 161.365 81.4756 161.365 81.7482C161.365 82.1949 161.285 82.581 161.126 82.9066C160.975 83.2246 160.752 83.4896 160.456 83.7015C160.169 83.9135 159.817 84.0725 159.4 84.1785C158.984 84.277 158.518 84.3262 158.003 84.3262H155.153L155.198 84.0536C155.516 84.0536 155.747 83.9855 155.891 83.8492C156.035 83.7053 156.126 83.5236 156.163 83.3041L157.186 77.1601C157.193 77.1222 157.201 77.0692 157.208 77.0011C157.216 76.9329 157.22 76.8761 157.22 76.8307C157.22 76.6566 157.163 76.5165 157.049 76.4105C156.936 76.3045 156.739 76.2515 156.459 76.2515L156.504 75.979H159.264C160.021 75.979 160.612 76.1228 161.035 76.4105C161.459 76.6982 161.671 77.1487 161.671 77.762C161.671 78.08 161.611 78.3677 161.49 78.6251C161.376 78.8749 161.225 79.0907 161.035 79.2724C160.846 79.4466 160.638 79.5866 160.411 79.6926C160.184 79.791 159.96 79.8516 159.741 79.8743L159.729 79.897ZM157.765 79.7721H158.514C158.772 79.7721 159.022 79.738 159.264 79.6699C159.506 79.6018 159.718 79.492 159.9 79.3406C160.089 79.1816 160.237 78.9771 160.343 78.7273C160.456 78.4774 160.513 78.1708 160.513 77.8074C160.513 77.3304 160.365 76.9784 160.07 76.7512C159.775 76.5165 159.4 76.3992 158.946 76.3992H158.333L157.765 79.7721ZM157.095 83.906H157.856C158.166 83.906 158.461 83.8719 158.741 83.8038C159.029 83.728 159.279 83.6069 159.491 83.4403C159.703 83.2738 159.87 83.0542 159.991 82.7817C160.119 82.5091 160.184 82.1722 160.184 81.7709C160.184 81.2561 160.021 80.8661 159.695 80.6012C159.377 80.3286 158.965 80.1923 158.458 80.1923H157.697L157.095 83.906ZM166.058 83.1791C165.906 83.5653 165.679 83.8719 165.376 84.099C165.081 84.3262 164.718 84.4397 164.286 84.4397C163.976 84.4397 163.692 84.383 163.434 84.2694C163.185 84.1558 162.969 83.9968 162.787 83.7924C162.613 83.588 162.477 83.3457 162.378 83.0656C162.28 82.7779 162.231 82.4637 162.231 82.123C162.231 81.699 162.287 81.275 162.401 80.851C162.515 80.4194 162.689 80.0333 162.923 79.6926C163.158 79.3519 163.453 79.0756 163.809 78.8636C164.165 78.644 164.585 78.5342 165.07 78.5342C165.501 78.5342 165.838 78.6364 166.081 78.8409C166.33 79.0453 166.455 79.3254 166.455 79.6813C166.455 80.075 166.342 80.4043 166.115 80.6693C165.887 80.9267 165.611 81.1387 165.286 81.3053C164.96 81.4643 164.616 81.5854 164.252 81.6687C163.889 81.752 163.567 81.8088 163.287 81.839C163.279 81.892 163.275 81.945 163.275 81.998C163.275 82.0435 163.275 82.0889 163.275 82.1343C163.275 82.6189 163.385 83.0012 163.605 83.2813C163.832 83.5539 164.157 83.6902 164.581 83.6902C164.877 83.6902 165.149 83.6107 165.399 83.4517C165.657 83.2851 165.903 83.0353 166.137 82.7022L166.058 83.1791ZM164.922 78.8976C164.672 78.8976 164.449 78.9885 164.252 79.1702C164.063 79.3519 163.9 79.5753 163.764 79.8403C163.627 80.0977 163.521 80.374 163.446 80.6693C163.37 80.957 163.321 81.2144 163.298 81.4416C163.525 81.4188 163.764 81.3658 164.014 81.2826C164.271 81.1917 164.506 81.0744 164.718 80.9305C164.937 80.7791 165.115 80.5936 165.252 80.374C165.395 80.1469 165.467 79.8857 165.467 79.5904C165.467 79.3936 165.418 79.2308 165.32 79.1021C165.229 78.9658 165.096 78.8976 164.922 78.8976ZM165.958 86.7906L166.003 86.518C166.283 86.518 166.484 86.4612 166.605 86.3477C166.734 86.2341 166.817 86.0751 166.855 85.8707L167.832 79.9084C167.839 79.8705 167.843 79.8365 167.843 79.8062C167.851 79.7683 167.854 79.738 167.854 79.7153C167.854 79.579 167.805 79.4806 167.707 79.4201C167.608 79.3519 167.438 79.3178 167.196 79.3178L167.241 79.0453L168.752 78.5342H168.979L168.831 79.4541C168.96 79.2118 169.149 78.9999 169.399 78.8181C169.656 78.6289 169.955 78.5342 170.296 78.5342C170.614 78.5342 170.883 78.591 171.102 78.7046C171.33 78.8181 171.515 78.9771 171.659 79.1816C171.81 79.386 171.92 79.6283 171.988 79.9084C172.056 80.181 172.09 80.4762 172.09 80.7942C172.09 81.2636 172.026 81.7179 171.897 82.157C171.776 82.5962 171.602 82.9861 171.375 83.3268C171.155 83.6675 170.89 83.9438 170.58 84.1558C170.27 84.3602 169.929 84.4625 169.558 84.4625C169.331 84.4625 169.134 84.4322 168.967 84.3716C168.808 84.3186 168.672 84.2429 168.559 84.1445C168.453 84.046 168.369 83.9325 168.309 83.8038C168.248 83.6751 168.203 83.5388 168.172 83.3949L167.798 85.689C167.79 85.7344 167.782 85.7912 167.775 85.8593C167.767 85.9275 167.764 85.9843 167.764 86.0297C167.764 86.1811 167.809 86.2985 167.9 86.3817C167.998 86.4726 168.169 86.518 168.411 86.518L168.365 86.7906H165.958ZM168.388 82.1797C168.373 82.2555 168.362 82.3312 168.354 82.4069C168.347 82.475 168.343 82.5469 168.343 82.6227C168.343 82.9861 168.418 83.2851 168.57 83.5198C168.729 83.7545 168.979 83.8719 169.319 83.8719C169.554 83.8719 169.774 83.7848 169.978 83.6107C170.19 83.4366 170.376 83.1981 170.535 82.8952C170.694 82.5924 170.819 82.2441 170.909 81.8504C171 81.4491 171.046 81.0214 171.046 80.5671C171.046 80.1128 170.962 79.7532 170.796 79.4882C170.637 79.2232 170.376 79.0907 170.012 79.0907C169.838 79.0907 169.672 79.1399 169.513 79.2383C169.361 79.3292 169.225 79.4541 169.104 79.6131C168.983 79.7645 168.88 79.9387 168.797 80.1355C168.714 80.3324 168.657 80.533 168.627 80.7374L168.388 82.1797ZM173.613 79.9198C173.62 79.8819 173.624 79.8478 173.624 79.8175C173.632 79.7797 173.635 79.7494 173.635 79.7267C173.635 79.5904 173.586 79.492 173.488 79.4314C173.389 79.3633 173.219 79.3292 172.977 79.3292L173.022 79.0453L174.521 78.5342H174.76L174.317 81.2031H176.497L176.929 78.6478H177.837L177.099 83.0656C177.092 83.1034 177.084 83.1526 177.077 83.2132C177.077 83.2738 177.077 83.323 177.077 83.3608C177.077 83.588 177.175 83.7015 177.372 83.7015C177.523 83.7015 177.656 83.6523 177.769 83.5539C177.883 83.4479 178.023 83.2965 178.19 83.0996L178.087 83.6221C177.936 83.8568 177.777 84.0423 177.61 84.1785C177.451 84.3148 177.239 84.383 176.974 84.383C176.649 84.383 176.429 84.2997 176.316 84.1331C176.202 83.959 176.145 83.7508 176.145 83.5085C176.145 83.4252 176.149 83.3457 176.157 83.27C176.164 83.1943 176.176 83.1148 176.191 83.0315L176.429 81.6006H174.249L173.794 84.3262H172.886L173.613 79.9198ZM181.378 78.5342C181.711 78.5342 182.006 78.5948 182.264 78.7159C182.521 78.8371 182.733 79.0036 182.9 79.2156C183.074 79.4276 183.202 79.6775 183.286 79.9652C183.377 80.2529 183.422 80.5595 183.422 80.8851C183.422 81.3772 183.358 81.839 183.229 82.2706C183.1 82.7022 182.918 83.0807 182.684 83.4063C182.449 83.7243 182.169 83.9779 181.843 84.1672C181.518 84.3489 181.158 84.4397 180.764 84.4397C180.454 84.4397 180.17 84.383 179.913 84.2694C179.663 84.1558 179.451 83.9968 179.277 83.7924C179.103 83.588 178.966 83.3457 178.868 83.0656C178.777 82.7779 178.732 82.4599 178.732 82.1116C178.732 81.5665 178.796 81.0744 178.925 80.6352C179.061 80.1961 179.246 79.8213 179.481 79.5109C179.716 79.2005 179.992 78.962 180.31 78.7954C180.636 78.6213 180.992 78.5342 181.378 78.5342ZM180.753 84.0763C181.064 84.0763 181.325 83.9514 181.537 83.7015C181.749 83.4441 181.919 83.1337 182.048 82.7703C182.177 82.4069 182.267 82.0283 182.32 81.6346C182.381 81.2333 182.411 80.8926 182.411 80.6125C182.411 79.9992 182.32 79.5639 182.139 79.3065C181.957 79.0415 181.711 78.909 181.4 78.909C181.188 78.909 180.999 78.9696 180.833 79.0907C180.674 79.2043 180.53 79.3595 180.401 79.5563C180.28 79.7532 180.178 79.9765 180.094 80.2264C180.011 80.4687 179.943 80.7185 179.89 80.9759C179.837 81.2333 179.799 81.487 179.776 81.7368C179.754 81.9791 179.742 82.1949 179.742 82.3842C179.742 82.9974 179.833 83.4328 180.015 83.6902C180.204 83.9476 180.45 84.0763 180.753 84.0763ZM184.852 83.8038C184.852 83.5842 184.92 83.3987 185.056 83.2473C185.2 83.0959 185.363 83.0201 185.544 83.0201C185.718 83.0201 185.862 83.0845 185.976 83.2132C186.089 83.3343 186.146 83.4858 186.146 83.6675C186.146 83.8795 186.071 84.0612 185.919 84.2126C185.775 84.3565 185.616 84.4284 185.442 84.4284C185.268 84.4284 185.124 84.3678 185.011 84.2467C184.905 84.1255 184.852 83.9779 184.852 83.8038ZM186.578 75.8654C187.146 75.8654 187.589 76.0168 187.907 76.3197C188.232 76.6225 188.395 77.0238 188.395 77.5235C188.395 77.8642 188.331 78.1632 188.202 78.4207C188.081 78.6705 187.922 78.9014 187.725 79.1134C187.536 79.3254 187.331 79.5261 187.112 79.7153C186.892 79.9046 186.684 80.1015 186.487 80.3059C186.298 80.5027 186.139 80.7185 186.01 80.9532C185.889 81.1879 185.828 81.4567 185.828 81.7595C185.828 81.7974 185.828 81.8428 185.828 81.8958C185.828 81.9488 185.832 81.998 185.84 82.0435H185.522C185.491 81.8996 185.476 81.7558 185.476 81.6119C185.476 81.3015 185.522 81.0214 185.612 80.7715C185.711 80.5217 185.832 80.2945 185.976 80.0901C186.12 79.8781 186.275 79.6813 186.442 79.4996C186.608 79.3178 186.763 79.1361 186.907 78.9544C187.051 78.7651 187.168 78.5721 187.259 78.3752C187.358 78.1784 187.407 77.9588 187.407 77.7165C187.407 77.4591 187.308 77.232 187.112 77.0351C186.922 76.8307 186.65 76.7285 186.294 76.7285C185.885 76.7285 185.541 76.8383 185.26 77.0578C184.988 77.2774 184.765 77.5424 184.59 77.8528L184.67 77.2736C184.738 77.0843 184.829 76.9026 184.942 76.7285C185.064 76.5544 185.204 76.4067 185.363 76.2856C185.529 76.1569 185.711 76.0547 185.908 75.979C186.112 75.9032 186.336 75.8654 186.578 75.8654Z" fill="#104A99"/>
<rect x="171.545" y="34.3172" width="64.4786" height="64.24" transform="rotate(45 171.545 34.3172)" stroke="#ADBFFD" stroke-width="1.36281"/>
</svg>
