<svg width="238" height="158" viewBox="0 0 238 158" fill="none" xmlns="http://www.w3.org/2000/svg">
<rect x="1.57065" y="0.90854" width="234.858" height="155.815" rx="3.37828" fill="white" stroke="#ADBFFD" stroke-width="1.81708"/>
<mask id="mask0_1910_3291" style="mask-type:alpha" maskUnits="userSpaceOnUse" x="0" y="0" width="238" height="158">
<path d="M0.66211 4.28683C0.66211 1.91928 2.58138 1.10776e-05 4.94893 1.1061e-05L233.05 9.45841e-06C235.418 9.44178e-06 237.337 1.91928 237.337 4.28683L237.337 153.345C237.337 155.712 235.418 157.632 233.05 157.632L4.94894 157.631C2.5814 157.631 0.662134 155.712 0.662134 153.344L0.66211 4.28683Z" fill="#D9D9D9"/>
</mask>
<g mask="url(#mask0_1910_3291)">
<path d="M-98.8223 -105.865L886.145 835.99" stroke="#ADBFFD" stroke-width="0.857364"/>
<path d="M194.268 -482.51L1179.24 459.345" stroke="#ADBFFD" stroke-width="0.857364"/>
<path d="M-243.193 -182.242L741.774 759.613" stroke="#ADBFFD" stroke-width="0.857364"/>
<path d="M47.7227 -294.188L1032.69 647.668" stroke="#ADBFFD" stroke-width="0.857364"/>
<path d="M-389.738 6.08008L595.229 947.935" stroke="#ADBFFD" stroke-width="0.857364"/>
<path d="M-62.1855 -152.945L922.782 788.91" stroke="#ADBFFD" stroke-width="0.857364"/>
<path d="M-499.648 147.32L485.319 1089.18" stroke="#ADBFFD" stroke-width="0.857364"/>
<path d="M84.3594 -341.27L1069.33 600.586" stroke="#ADBFFD" stroke-width="0.857364"/>
<path d="M-353.102 -41.002L631.866 900.853" stroke="#ADBFFD" stroke-width="0.857364"/>
<path d="M-25.5488 -200.025L959.419 741.83" stroke="#ADBFFD" stroke-width="0.857364"/>
<path d="M-463.012 100.24L521.956 1042.1" stroke="#ADBFFD" stroke-width="0.857364"/>
<path d="M120.996 -388.35L1105.96 553.505" stroke="#ADBFFD" stroke-width="0.857364"/>
<path d="M-316.467 -88.082L668.501 853.773" stroke="#ADBFFD" stroke-width="0.857364"/>
<path d="M11.0879 -247.107L996.056 694.748" stroke="#ADBFFD" stroke-width="0.857364"/>
<path d="M-426.375 53.1602L558.593 995.015" stroke="#ADBFFD" stroke-width="0.857364"/>
<path d="M157.633 -435.43L1142.6 506.425" stroke="#ADBFFD" stroke-width="0.857364"/>
<path d="M-279.83 -135.164L705.138 806.691" stroke="#ADBFFD" stroke-width="0.857364"/>
<path d="M-89.6641 -117.635L895.304 824.22" stroke="#ADBFFD" stroke-width="0.857364"/>
<path d="M203.428 -494.281L1188.4 447.574" stroke="#ADBFFD" stroke-width="0.857364"/>
<path d="M-234.033 -194.014L750.935 747.841" stroke="#ADBFFD" stroke-width="0.857364"/>
<path d="M56.8828 -305.959L1041.85 635.896" stroke="#ADBFFD" stroke-width="0.857364"/>
<path d="M-380.58 -5.69141L604.388 936.164" stroke="#ADBFFD" stroke-width="0.857364"/>
<path d="M-53.0273 -164.717L931.94 777.138" stroke="#ADBFFD" stroke-width="0.857364"/>
<path d="M-490.49 135.551L494.477 1077.41" stroke="#ADBFFD" stroke-width="0.857364"/>
<path d="M93.5195 -353.039L1078.49 588.816" stroke="#ADBFFD" stroke-width="0.857364"/>
<path d="M-343.943 -52.7715L641.024 889.084" stroke="#ADBFFD" stroke-width="0.857364"/>
<path d="M-16.3906 -211.797L968.577 730.058" stroke="#ADBFFD" stroke-width="0.857364"/>
<path d="M-453.854 88.4707L531.114 1030.33" stroke="#ADBFFD" stroke-width="0.857364"/>
<path d="M130.154 -400.119L1115.12 541.736" stroke="#ADBFFD" stroke-width="0.857364"/>
<path d="M-307.307 -99.8516L677.661 842.003" stroke="#ADBFFD" stroke-width="0.857364"/>
<path d="M20.2461 -258.877L1005.21 682.978" stroke="#ADBFFD" stroke-width="0.857364"/>
<path d="M-417.217 41.3906L567.751 983.246" stroke="#ADBFFD" stroke-width="0.857364"/>
<path d="M166.791 -447.199L1151.76 494.656" stroke="#ADBFFD" stroke-width="0.857364"/>
<path d="M-270.67 -146.932L714.298 794.923" stroke="#ADBFFD" stroke-width="0.857364"/>
<path d="M-80.5039 -129.406L904.464 812.449" stroke="#ADBFFD" stroke-width="0.857364"/>
<path d="M212.586 -506.051L1197.55 435.804" stroke="#ADBFFD" stroke-width="0.857364"/>
<path d="M-224.875 -205.783L760.093 736.072" stroke="#ADBFFD" stroke-width="0.857364"/>
<path d="M66.041 -317.729L1051.01 624.127" stroke="#ADBFFD" stroke-width="0.857364"/>
<path d="M-371.42 -17.4609L613.548 924.394" stroke="#ADBFFD" stroke-width="0.857364"/>
<path d="M-43.8672 -176.486L941.101 765.369" stroke="#ADBFFD" stroke-width="0.857364"/>
<path d="M-481.33 123.781L503.638 1065.64" stroke="#ADBFFD" stroke-width="0.857364"/>
<path d="M102.678 -364.809L1087.65 577.046" stroke="#ADBFFD" stroke-width="0.857364"/>
<path d="M-334.785 -64.541L650.183 877.314" stroke="#ADBFFD" stroke-width="0.857364"/>
<path d="M-7.23242 -223.568L977.735 718.287" stroke="#ADBFFD" stroke-width="0.857364"/>
<path d="M-444.695 76.6992L540.272 1018.55" stroke="#ADBFFD" stroke-width="0.857364"/>
<path d="M139.314 -411.891L1124.28 529.964" stroke="#ADBFFD" stroke-width="0.857364"/>
<path d="M-298.148 -111.623L686.819 830.232" stroke="#ADBFFD" stroke-width="0.857364"/>
<path d="M29.4043 -270.648L1014.37 671.207" stroke="#ADBFFD" stroke-width="0.857364"/>
<path d="M-408.059 29.6191L576.909 971.474" stroke="#ADBFFD" stroke-width="0.857364"/>
<path d="M175.949 -458.971L1160.92 482.884" stroke="#ADBFFD" stroke-width="0.857364"/>
<path d="M-261.512 -158.703L723.456 783.152" stroke="#ADBFFD" stroke-width="0.857364"/>
<path d="M-71.3457 -141.176L913.622 800.679" stroke="#ADBFFD" stroke-width="0.857364"/>
<path d="M75.2012 -329.498L1060.17 612.357" stroke="#ADBFFD" stroke-width="0.857364"/>
<path d="M-362.262 -29.2305L622.706 912.625" stroke="#ADBFFD" stroke-width="0.857364"/>
<path d="M-34.709 -188.258L950.259 753.597" stroke="#ADBFFD" stroke-width="0.857364"/>
<path d="M-472.172 112.01L512.796 1053.86" stroke="#ADBFFD" stroke-width="0.857364"/>
<path d="M111.836 -376.58L1096.8 565.275" stroke="#ADBFFD" stroke-width="0.857364"/>
<path d="M-325.625 -76.3125L659.343 865.543" stroke="#ADBFFD" stroke-width="0.857364"/>
<path d="M1.92773 -235.336L986.895 706.519" stroke="#ADBFFD" stroke-width="0.857364"/>
<path d="M-435.535 64.9297L549.433 1006.78" stroke="#ADBFFD" stroke-width="0.857364"/>
<path d="M148.473 -423.66L1133.44 518.195" stroke="#ADBFFD" stroke-width="0.857364"/>
<path d="M-288.988 -123.393L695.979 818.462" stroke="#ADBFFD" stroke-width="0.857364"/>
<path d="M38.5625 -282.418L1023.53 659.437" stroke="#ADBFFD" stroke-width="0.857364"/>
<path d="M-398.898 17.8496L586.069 959.705" stroke="#ADBFFD" stroke-width="0.857364"/>
<path d="M185.109 -470.74L1170.08 471.115" stroke="#ADBFFD" stroke-width="0.857364"/>
<path d="M-252.352 -170.475L732.616 771.38" stroke="#ADBFFD" stroke-width="0.857364"/>
</g>
<rect x="29.5076" y="19.7615" width="179.437" height="42.7014" fill="white"/>
<path d="M97.0265 41.5115H93.6762L93.1992 44.4302C93.1917 44.4681 93.1841 44.5211 93.1765 44.5892C93.1689 44.6574 93.1652 44.7141 93.1652 44.7596C93.1652 44.9337 93.2182 45.0738 93.3242 45.1798C93.4377 45.2858 93.6308 45.3388 93.9034 45.3388L93.8579 45.6113H91.1323L91.1777 45.3388C91.4957 45.3388 91.7266 45.2706 91.8705 45.1343C92.0143 44.9905 92.1052 44.8088 92.1431 44.5892L93.1652 38.4452C93.1727 38.4074 93.1803 38.3544 93.1879 38.2862C93.1954 38.2181 93.1992 38.1613 93.1992 38.1159C93.1992 37.9417 93.1425 37.8017 93.0289 37.6957C92.9153 37.5897 92.7185 37.5367 92.4383 37.5367L92.4838 37.2641H95.2321L95.1867 37.5367C94.8611 37.5367 94.6264 37.6086 94.4825 37.7525C94.3387 37.8963 94.2478 38.0742 94.21 38.2862L93.7557 41.0686H97.106L97.5375 38.4452C97.5451 38.4074 97.5527 38.3544 97.5602 38.2862C97.5678 38.2181 97.5716 38.1613 97.5716 38.1159C97.5716 37.9417 97.5148 37.8017 97.4012 37.6957C97.2952 37.5897 97.106 37.5367 96.8334 37.5367L96.8788 37.2641H99.6044L99.559 37.5367C99.241 37.5367 99.0101 37.6086 98.8663 37.7525C98.7224 37.8887 98.6315 38.0667 98.5937 38.2862L97.5716 44.4302C97.564 44.4681 97.5564 44.5211 97.5489 44.5892C97.5413 44.6574 97.5375 44.7141 97.5375 44.7596C97.5375 44.9337 97.5943 45.0738 97.7079 45.1798C97.8214 45.2858 98.0183 45.3388 98.2984 45.3388L98.253 45.6113H95.5047L95.5501 45.3388C95.8756 45.3388 96.1103 45.2668 96.2542 45.123C96.3981 44.9791 96.4889 44.8012 96.5268 44.5892L97.0265 41.5115ZM103.047 44.4643C102.895 44.8504 102.668 45.1571 102.365 45.3842C102.07 45.6113 101.707 45.7249 101.275 45.7249C100.965 45.7249 100.681 45.6681 100.423 45.5545C100.173 45.441 99.9577 45.282 99.7759 45.0776C99.6018 44.8731 99.4655 44.6309 99.3671 44.3507C99.2687 44.063 99.2195 43.7488 99.2195 43.4081C99.2195 42.9841 99.2763 42.5601 99.3898 42.1362C99.5034 41.7046 99.6775 41.3185 99.9122 40.9778C100.147 40.6371 100.442 40.3607 100.798 40.1487C101.154 39.9292 101.574 39.8194 102.059 39.8194C102.49 39.8194 102.827 39.9216 103.069 40.126C103.319 40.3304 103.444 40.6106 103.444 40.9664C103.444 41.3601 103.331 41.6895 103.103 41.9545C102.876 42.2119 102.6 42.4239 102.274 42.5904C101.949 42.7494 101.604 42.8706 101.241 42.9538C100.878 43.0371 100.556 43.0939 100.276 43.1242C100.268 43.1772 100.264 43.2302 100.264 43.2832C100.264 43.3286 100.264 43.374 100.264 43.4195C100.264 43.904 100.374 44.2864 100.594 44.5665C100.821 44.8391 101.146 44.9753 101.57 44.9753C101.866 44.9753 102.138 44.8959 102.388 44.7369C102.645 44.5703 102.891 44.3204 103.126 43.9873L103.047 44.4643ZM101.911 40.1828C101.661 40.1828 101.438 40.2737 101.241 40.4554C101.052 40.6371 100.889 40.8604 100.753 41.1254C100.616 41.3828 100.51 41.6592 100.435 41.9545C100.359 42.2422 100.31 42.4996 100.287 42.7267C100.514 42.704 100.753 42.651 101.002 42.5677C101.26 42.4769 101.495 42.3595 101.707 42.2157C101.926 42.0642 102.104 41.8787 102.24 41.6592C102.384 41.432 102.456 41.1708 102.456 40.8756C102.456 40.6787 102.407 40.5159 102.309 40.3872C102.218 40.2509 102.085 40.1828 101.911 40.1828ZM106.908 41.2049C106.916 41.1671 106.92 41.133 106.92 41.1027C106.927 41.0648 106.931 41.0346 106.931 41.0118C106.931 40.8756 106.882 40.7771 106.784 40.7166C106.685 40.6484 106.515 40.6144 106.272 40.6144L106.318 40.3304L107.817 39.8194H108.055L107.613 42.4882H109.793L110.225 39.933H111.133L110.395 44.3507C110.387 44.3886 110.38 44.4378 110.372 44.4984C110.372 44.5589 110.372 44.6081 110.372 44.646C110.372 44.8731 110.471 44.9867 110.668 44.9867C110.819 44.9867 110.951 44.9375 111.065 44.8391C111.179 44.7331 111.319 44.5816 111.485 44.3848L111.383 44.9072C111.232 45.1419 111.073 45.3274 110.906 45.4637C110.747 45.6 110.535 45.6681 110.27 45.6681C109.944 45.6681 109.725 45.5848 109.611 45.4183C109.498 45.2441 109.441 45.0359 109.441 44.7936C109.441 44.7104 109.445 44.6309 109.452 44.5552C109.46 44.4794 109.471 44.3999 109.486 44.3167L109.725 42.8857H107.544L107.09 45.6113H106.182L106.908 41.2049ZM115.775 45.6113L115.389 44.6233C115.321 44.7596 115.234 44.8959 115.128 45.0321C115.022 45.1608 114.901 45.2782 114.764 45.3842C114.636 45.4826 114.488 45.5621 114.321 45.6227C114.162 45.6908 113.992 45.7249 113.81 45.7249C113.197 45.7249 112.747 45.528 112.459 45.1343C112.171 44.7406 112.027 44.2031 112.027 43.5217C112.027 43.0674 112.088 42.6207 112.209 42.1816C112.338 41.7349 112.516 41.3374 112.743 40.9891C112.97 40.6409 113.239 40.3607 113.549 40.1487C113.86 39.9292 114.204 39.8194 114.583 39.8194C114.787 39.8194 114.965 39.8497 115.116 39.9102C115.275 39.9708 115.408 40.0503 115.514 40.1487C115.62 40.2396 115.703 40.3456 115.764 40.4667C115.824 40.5879 115.87 40.7052 115.9 40.8188L116.729 39.933H116.979L116.025 45.6113H115.775ZM114.742 40.3872C114.507 40.3872 114.287 40.4781 114.083 40.6598C113.878 40.8415 113.701 41.0876 113.549 41.398C113.405 41.7084 113.292 42.068 113.208 42.4769C113.125 42.8781 113.083 43.3021 113.083 43.7488C113.083 44.1879 113.167 44.5362 113.333 44.7936C113.507 45.0511 113.761 45.1798 114.094 45.1798C114.261 45.1798 114.416 45.1343 114.56 45.0435C114.711 44.9451 114.848 44.8201 114.969 44.6687C115.09 44.5097 115.188 44.3318 115.264 44.135C115.347 43.9381 115.408 43.7337 115.446 43.5217L115.684 42.1134C115.699 42.0377 115.707 41.9545 115.707 41.8636C115.714 41.7652 115.718 41.6819 115.718 41.6138C115.718 41.2276 115.635 40.9286 115.468 40.7166C115.302 40.497 115.06 40.3872 114.742 40.3872ZM120.765 38.8768C120.932 38.8768 121.076 38.8427 121.197 38.7746C121.326 38.6989 121.432 38.6042 121.515 38.4906C121.598 38.3771 121.659 38.2522 121.697 38.1159C121.734 37.9796 121.753 37.8433 121.753 37.707C121.753 37.6389 121.75 37.5859 121.742 37.548H122.151C122.257 37.5783 122.34 37.6427 122.401 37.7411C122.469 37.832 122.503 37.9342 122.503 38.0477C122.503 38.2294 122.454 38.396 122.355 38.5474C122.257 38.6913 122.124 38.8162 121.958 38.9222C121.799 39.0282 121.61 39.1115 121.39 39.172C121.17 39.225 120.939 39.2515 120.697 39.2515C120.251 39.2515 119.898 39.1683 119.641 39.0017C119.384 38.8276 119.255 38.5966 119.255 38.3089C119.255 38.1499 119.3 37.9947 119.391 37.8433C119.49 37.6919 119.626 37.5935 119.8 37.548H120.232C120.179 37.654 120.137 37.7562 120.107 37.8547C120.084 37.9455 120.073 38.0439 120.073 38.1499C120.073 38.3468 120.122 38.5171 120.22 38.661C120.326 38.8048 120.508 38.8768 120.765 38.8768ZM118.449 41.2049C118.456 41.1671 118.46 41.133 118.46 41.1027C118.468 41.0648 118.471 41.0346 118.471 41.0118C118.471 40.8756 118.422 40.7771 118.324 40.7166C118.225 40.6484 118.055 40.6144 117.813 40.6144L117.858 40.3304L119.346 39.8194H119.584L118.948 43.6807C118.933 43.7488 118.922 43.8245 118.914 43.9078C118.914 43.9911 118.914 44.0592 118.914 44.1122C118.914 44.2334 118.926 44.3507 118.948 44.4643C118.971 44.5779 119.013 44.6801 119.073 44.7709C119.141 44.8618 119.228 44.9337 119.334 44.9867C119.44 45.0397 119.577 45.0662 119.743 45.0662C119.902 45.0662 120.061 45.0208 120.22 44.9299C120.379 44.8315 120.523 44.7104 120.652 44.5665C120.78 44.4151 120.89 44.2447 120.981 44.0555C121.08 43.8662 121.148 43.6731 121.186 43.4763L121.787 39.933H122.696L121.969 44.3507C121.962 44.3886 121.954 44.4378 121.946 44.4984C121.939 44.5589 121.935 44.6081 121.935 44.646C121.935 44.8731 122.034 44.9867 122.23 44.9867C122.382 44.9867 122.514 44.9375 122.628 44.8391C122.741 44.7331 122.881 44.5816 123.048 44.3848L122.946 44.9072C122.794 45.1419 122.635 45.3274 122.469 45.4637C122.31 45.6 122.098 45.6681 121.833 45.6681C121.507 45.6681 121.288 45.5848 121.174 45.4183C121.061 45.2441 121.004 45.0359 121.004 44.7936C121.004 44.7482 121.004 44.7066 121.004 44.6687C121.004 44.6309 121.008 44.5892 121.015 44.5438C120.947 44.6725 120.86 44.8088 120.754 44.9526C120.648 45.0889 120.519 45.2138 120.368 45.3274C120.224 45.441 120.061 45.5356 119.88 45.6113C119.698 45.687 119.501 45.7249 119.289 45.7249C119.047 45.7249 118.838 45.687 118.664 45.6113C118.498 45.5356 118.362 45.4372 118.256 45.3161C118.157 45.1873 118.085 45.0397 118.04 44.8731C117.994 44.699 117.972 44.5173 117.972 44.328C117.972 44.2523 117.975 44.1614 117.983 44.0555C117.991 43.9495 118.002 43.8586 118.017 43.7829L118.449 41.2049ZM124.953 37.9909C124.998 37.8849 125.066 37.7827 125.157 37.6843C125.256 37.5859 125.365 37.5026 125.486 37.4345C125.608 37.3588 125.736 37.2982 125.873 37.2528C126.016 37.2073 126.16 37.1846 126.304 37.1846C126.97 37.1846 127.481 37.4685 127.837 38.0364C128.193 38.5966 128.371 39.4749 128.371 40.6711C128.371 40.9286 128.356 41.2314 128.326 41.5797C128.303 41.928 128.254 42.2914 128.178 42.6699C128.102 43.0409 128 43.4081 127.871 43.7715C127.743 44.135 127.572 44.4643 127.36 44.7596C127.156 45.0473 126.906 45.282 126.611 45.4637C126.316 45.6378 125.967 45.7249 125.566 45.7249C125.248 45.7249 124.964 45.6719 124.714 45.5659C124.472 45.4523 124.268 45.2933 124.101 45.0889C123.934 44.8845 123.806 44.6384 123.715 44.3507C123.632 44.063 123.59 43.745 123.59 43.3968C123.59 42.8668 123.658 42.386 123.794 41.9545C123.938 41.5153 124.127 41.1443 124.362 40.8415C124.604 40.5311 124.881 40.2926 125.191 40.126C125.509 39.9595 125.846 39.8762 126.202 39.8762C126.49 39.8762 126.732 39.9367 126.929 40.0579C127.133 40.1714 127.311 40.3304 127.463 40.5349C127.463 40.1563 127.436 39.8042 127.383 39.4787C127.33 39.1455 127.247 38.8578 127.133 38.6156C127.02 38.3733 126.876 38.184 126.702 38.0477C126.528 37.9114 126.319 37.8433 126.077 37.8433C125.835 37.8433 125.608 37.9039 125.396 38.025C125.184 38.1386 125.013 38.2711 124.885 38.4225L124.953 37.9909ZM125.577 45.3615C125.88 45.3615 126.138 45.2366 126.35 44.9867C126.562 44.7293 126.732 44.4227 126.861 44.0668C126.989 43.7034 127.08 43.3286 127.133 42.9425C127.194 42.5488 127.224 42.2119 127.224 41.9317C127.224 41.3336 127.133 40.9058 126.952 40.6484C126.77 40.3834 126.528 40.2509 126.225 40.2509C125.907 40.2509 125.642 40.3797 125.43 40.6371C125.225 40.8869 125.059 41.1936 124.93 41.557C124.801 41.9128 124.71 42.2876 124.657 42.6813C124.604 43.075 124.578 43.4119 124.578 43.692C124.578 44.2977 124.669 44.7293 124.851 44.9867C125.04 45.2366 125.282 45.3615 125.577 45.3615ZM132.888 44.4643C132.736 44.8504 132.509 45.1571 132.206 45.3842C131.911 45.6113 131.548 45.7249 131.116 45.7249C130.806 45.7249 130.522 45.6681 130.264 45.5545C130.015 45.441 129.799 45.282 129.617 45.0776C129.443 44.8731 129.307 44.6309 129.208 44.3507C129.11 44.063 129.061 43.7488 129.061 43.4081C129.061 42.9841 129.117 42.5601 129.231 42.1362C129.345 41.7046 129.519 41.3185 129.753 40.9778C129.988 40.6371 130.283 40.3607 130.639 40.1487C130.995 39.9292 131.415 39.8194 131.9 39.8194C132.331 39.8194 132.668 39.9216 132.911 40.126C133.16 40.3304 133.285 40.6106 133.285 40.9664C133.285 41.3601 133.172 41.6895 132.945 41.9545C132.718 42.2119 132.441 42.4239 132.116 42.5904C131.79 42.7494 131.446 42.8706 131.082 42.9538C130.719 43.0371 130.397 43.0939 130.117 43.1242C130.109 43.1772 130.105 43.2302 130.105 43.2832C130.105 43.3286 130.105 43.374 130.105 43.4195C130.105 43.904 130.215 44.2864 130.435 44.5665C130.662 44.8391 130.988 44.9753 131.412 44.9753C131.707 44.9753 131.979 44.8959 132.229 44.7369C132.487 44.5703 132.733 44.3204 132.967 43.9873L132.888 44.4643ZM131.752 40.1828C131.502 40.1828 131.279 40.2737 131.082 40.4554C130.893 40.6371 130.73 40.8604 130.594 41.1254C130.458 41.3828 130.352 41.6592 130.276 41.9545C130.2 42.2422 130.151 42.4996 130.128 42.7267C130.355 42.704 130.594 42.651 130.844 42.5677C131.101 42.4769 131.336 42.3595 131.548 42.2157C131.767 42.0642 131.945 41.8787 132.082 41.6592C132.225 41.432 132.297 41.1708 132.297 40.8756C132.297 40.6787 132.248 40.5159 132.15 40.3872C132.059 40.2509 131.926 40.1828 131.752 40.1828ZM134.65 41.2049C134.658 41.1671 134.662 41.133 134.662 41.1027C134.669 41.0648 134.673 41.0346 134.673 41.0118C134.673 40.8756 134.624 40.7771 134.525 40.7166C134.427 40.6484 134.257 40.6144 134.014 40.6144L134.06 40.3304L135.559 39.8194H135.797L135.355 42.4882H137.535L137.967 39.933H138.875L138.137 44.3507C138.129 44.3886 138.122 44.4378 138.114 44.4984C138.114 44.5589 138.114 44.6081 138.114 44.646C138.114 44.8731 138.213 44.9867 138.409 44.9867C138.561 44.9867 138.693 44.9375 138.807 44.8391C138.921 44.7331 139.061 44.5816 139.227 44.3848L139.125 44.9072C138.974 45.1419 138.815 45.3274 138.648 45.4637C138.489 45.6 138.277 45.6681 138.012 45.6681C137.686 45.6681 137.467 45.5848 137.353 45.4183C137.24 45.2441 137.183 45.0359 137.183 44.7936C137.183 44.7104 137.187 44.6309 137.194 44.5552C137.202 44.4794 137.213 44.3999 137.228 44.3167L137.467 42.8857H135.286L134.832 45.6113H133.924L134.65 41.2049ZM145.698 39.933H146.606L145.879 44.3507C145.872 44.3886 145.864 44.4378 145.857 44.4984C145.849 44.5589 145.845 44.6081 145.845 44.646C145.845 44.8731 145.944 44.9867 146.14 44.9867C146.292 44.9867 146.424 44.9375 146.538 44.8391C146.651 44.7331 146.792 44.5816 146.958 44.3848L146.856 44.9072C146.704 45.1419 146.545 45.3274 146.379 45.4637C146.22 45.6 146.008 45.6681 145.743 45.6681C145.417 45.6681 145.198 45.5848 145.084 45.4183C144.971 45.2441 144.914 45.0359 144.914 44.7936C144.914 44.7104 144.918 44.6309 144.925 44.5552C144.933 44.4794 144.944 44.3999 144.959 44.3167L145.698 39.933ZM141.212 42.7494C141.174 43.0068 141.143 43.2188 141.121 43.3854C141.106 43.5444 141.09 43.6769 141.075 43.7829C141.068 43.8813 141.06 43.957 141.053 44.01C141.053 44.063 141.053 44.1122 141.053 44.1577C141.053 44.5438 141.113 44.8429 141.234 45.0548C141.363 45.2593 141.571 45.3615 141.859 45.3615C142.041 45.3615 142.211 45.3123 142.37 45.2138C142.537 45.1154 142.68 44.9791 142.802 44.805C142.93 44.6233 143.029 44.4113 143.097 44.169C143.173 43.9192 143.21 43.6466 143.21 43.3513C143.21 43.0106 143.138 42.7419 142.995 42.545C142.851 42.3482 142.631 42.2497 142.336 42.2497C142.184 42.2497 142.003 42.2876 141.791 42.3633C141.586 42.4314 141.393 42.5601 141.212 42.7494ZM140.53 41.2049C140.538 41.1671 140.542 41.133 140.542 41.1027C140.549 41.0648 140.553 41.0346 140.553 41.0118C140.553 40.8756 140.504 40.7771 140.405 40.7166C140.307 40.6484 140.136 40.6144 139.894 40.6144L139.94 40.3304L141.45 39.8194H141.677L141.268 42.3519C141.496 42.1778 141.715 42.0453 141.927 41.9545C142.139 41.8636 142.404 41.8182 142.722 41.8182C143.207 41.8182 143.578 41.9582 143.835 42.2384C144.092 42.5109 144.221 42.8857 144.221 43.3627C144.221 43.6883 144.157 43.9949 144.028 44.2826C143.899 44.5627 143.725 44.8126 143.506 45.0321C143.294 45.2441 143.044 45.4145 142.756 45.5432C142.476 45.6643 142.177 45.7249 141.859 45.7249C141.526 45.7249 141.249 45.6795 141.03 45.5886C140.81 45.4978 140.632 45.3766 140.496 45.2252C140.367 45.0662 140.277 44.8807 140.224 44.6687C140.171 44.4567 140.144 44.2296 140.144 43.9873C140.144 43.8207 140.152 43.6542 140.167 43.4876C140.189 43.3135 140.216 43.1393 140.246 42.9652L140.53 41.2049Z" fill="#104A99"/>
<rect x="29.5076" y="19.7615" width="179.437" height="42.7014" stroke="#ADBFFD" stroke-width="1.36281"/>
<rect x="29.5076" y="86.5388" width="179.437" height="42.7014" fill="#ADBFFD"/>
<path d="M107.945 104.314C107.619 104.314 107.384 104.386 107.24 104.53C107.104 104.674 107.017 104.852 106.979 105.064L105.98 111.06C105.972 111.098 105.965 111.151 105.957 111.219C105.95 111.287 105.946 111.344 105.946 111.389C105.946 111.563 106.003 111.703 106.116 111.809C106.23 111.915 106.43 111.968 106.718 111.968H106.854L106.411 114.705H106.048C106.056 114.577 106.059 114.452 106.059 114.331C106.059 114.217 106.059 114.107 106.059 114.001C106.059 113.729 106.044 113.49 106.014 113.286C105.984 113.089 105.915 112.922 105.809 112.786C105.711 112.65 105.567 112.548 105.378 112.48C105.189 112.419 104.939 112.389 104.628 112.389H102.062C101.683 112.389 101.377 112.434 101.142 112.525C100.907 112.623 100.714 112.767 100.563 112.957C100.411 113.153 100.283 113.396 100.177 113.683C100.078 113.971 99.9721 114.312 99.8586 114.705H99.4838L99.9494 111.968C100.207 111.946 100.46 111.817 100.71 111.582C100.96 111.348 101.199 111.052 101.426 110.697C101.66 110.333 101.876 109.924 102.073 109.47C102.278 109.016 102.459 108.558 102.618 108.096C102.785 107.626 102.925 107.172 103.038 106.733C103.16 106.294 103.25 105.904 103.311 105.563C103.372 105.26 103.402 105.033 103.402 104.882C103.402 104.708 103.345 104.571 103.232 104.473C103.118 104.367 102.925 104.314 102.652 104.314L102.686 104.041H107.99L107.945 104.314ZM106.059 104.462H103.924L103.743 105.495C103.614 106.192 103.444 106.881 103.232 107.562C103.027 108.236 102.8 108.864 102.55 109.447C102.3 110.023 102.043 110.53 101.778 110.969C101.513 111.408 101.255 111.741 101.006 111.968H104.81L106.059 104.462ZM111.593 111.242C111.441 111.628 111.214 111.934 110.911 112.162C110.616 112.389 110.253 112.502 109.821 112.502C109.511 112.502 109.227 112.445 108.969 112.332C108.719 112.218 108.504 112.059 108.322 111.855C108.148 111.65 108.011 111.408 107.913 111.128C107.815 110.84 107.765 110.526 107.765 110.185C107.765 109.761 107.822 109.337 107.936 108.914C108.049 108.482 108.223 108.096 108.458 107.755C108.693 107.414 108.988 107.138 109.344 106.926C109.7 106.707 110.12 106.597 110.605 106.597C111.036 106.597 111.373 106.699 111.615 106.903C111.865 107.108 111.99 107.388 111.99 107.744C111.99 108.137 111.877 108.467 111.649 108.732C111.422 108.989 111.146 109.201 110.82 109.368C110.495 109.527 110.15 109.648 109.787 109.731C109.424 109.814 109.102 109.871 108.822 109.902C108.814 109.955 108.81 110.008 108.81 110.061C108.81 110.106 108.81 110.151 108.81 110.197C108.81 110.681 108.92 111.064 109.14 111.344C109.367 111.616 109.692 111.753 110.116 111.753C110.412 111.753 110.684 111.673 110.934 111.514C111.191 111.348 111.437 111.098 111.672 110.765L111.593 111.242ZM110.457 106.96C110.207 106.96 109.984 107.051 109.787 107.233C109.598 107.414 109.435 107.638 109.299 107.903C109.162 108.16 109.056 108.437 108.981 108.732C108.905 109.02 108.856 109.277 108.833 109.504C109.06 109.481 109.299 109.428 109.548 109.345C109.806 109.254 110.041 109.137 110.253 108.993C110.472 108.842 110.65 108.656 110.786 108.437C110.93 108.209 111.002 107.948 111.002 107.653C111.002 107.456 110.953 107.293 110.854 107.165C110.764 107.028 110.631 106.96 110.457 106.96ZM119.261 108.561C119.283 108.425 119.295 108.281 119.295 108.13C119.295 107.903 119.238 107.702 119.124 107.528C119.011 107.346 118.81 107.255 118.522 107.255C118.348 107.255 118.182 107.305 118.023 107.403C117.864 107.494 117.72 107.615 117.591 107.766C117.463 107.91 117.353 108.077 117.262 108.266C117.179 108.448 117.122 108.63 117.092 108.811L116.49 112.389H115.581L116.228 108.539C116.236 108.471 116.24 108.402 116.24 108.334C116.247 108.259 116.251 108.19 116.251 108.13C116.251 108.016 116.24 107.907 116.217 107.801C116.194 107.695 116.153 107.604 116.092 107.528C116.039 107.445 115.963 107.38 115.865 107.335C115.767 107.282 115.638 107.255 115.479 107.255C115.312 107.255 115.15 107.305 114.991 107.403C114.839 107.494 114.699 107.615 114.57 107.766C114.442 107.918 114.332 108.088 114.241 108.278C114.158 108.459 114.101 108.641 114.071 108.823L113.469 112.389H112.56L113.503 106.71H113.753L114.252 107.755C114.32 107.626 114.404 107.494 114.502 107.358C114.608 107.221 114.733 107.096 114.877 106.983C115.021 106.869 115.18 106.778 115.354 106.71C115.536 106.635 115.729 106.597 115.933 106.597C116.168 106.597 116.361 106.631 116.512 106.699C116.671 106.76 116.8 106.847 116.898 106.96C116.997 107.074 117.069 107.206 117.114 107.358C117.16 107.509 117.19 107.672 117.205 107.846C117.273 107.695 117.364 107.547 117.478 107.403C117.591 107.252 117.72 107.115 117.864 106.994C118.015 106.873 118.182 106.778 118.363 106.71C118.545 106.635 118.738 106.597 118.943 106.597C119.185 106.597 119.386 106.635 119.545 106.71C119.711 106.778 119.844 106.877 119.942 107.006C120.048 107.127 120.12 107.271 120.158 107.437C120.203 107.604 120.226 107.778 120.226 107.96C120.226 108.119 120.215 108.278 120.192 108.437L119.749 111.128C119.741 111.166 119.734 111.215 119.726 111.276C119.719 111.336 119.715 111.385 119.715 111.423C119.715 111.537 119.741 111.624 119.794 111.685C119.855 111.738 119.931 111.764 120.022 111.764C120.173 111.764 120.305 111.715 120.419 111.616C120.533 111.51 120.669 111.359 120.828 111.162L120.737 111.685C120.586 111.919 120.427 112.105 120.26 112.241C120.094 112.377 119.878 112.445 119.613 112.445C119.295 112.445 119.079 112.362 118.965 112.196C118.852 112.021 118.795 111.813 118.795 111.571C118.795 111.488 118.799 111.408 118.806 111.332C118.814 111.257 118.825 111.177 118.84 111.094L119.261 108.561ZM125.05 112.389L124.664 111.401C124.596 111.537 124.509 111.673 124.403 111.809C124.297 111.938 124.175 112.056 124.039 112.162C123.91 112.26 123.763 112.339 123.596 112.4C123.437 112.468 123.267 112.502 123.085 112.502C122.472 112.502 122.021 112.305 121.734 111.912C121.446 111.518 121.302 110.98 121.302 110.299C121.302 109.845 121.363 109.398 121.484 108.959C121.613 108.512 121.79 108.115 122.018 107.766C122.245 107.418 122.514 107.138 122.824 106.926C123.134 106.707 123.479 106.597 123.857 106.597C124.062 106.597 124.24 106.627 124.391 106.688C124.55 106.748 124.683 106.828 124.789 106.926C124.895 107.017 124.978 107.123 125.039 107.244C125.099 107.365 125.145 107.483 125.175 107.596L126.004 106.71H126.254L125.3 112.389H125.05ZM124.016 107.165C123.782 107.165 123.562 107.255 123.358 107.437C123.153 107.619 122.975 107.865 122.824 108.175C122.68 108.486 122.567 108.845 122.483 109.254C122.4 109.655 122.358 110.079 122.358 110.526C122.358 110.965 122.442 111.314 122.608 111.571C122.782 111.828 123.036 111.957 123.369 111.957C123.536 111.957 123.691 111.912 123.835 111.821C123.986 111.722 124.122 111.597 124.244 111.446C124.365 111.287 124.463 111.109 124.539 110.912C124.622 110.715 124.683 110.511 124.721 110.299L124.959 108.891C124.974 108.815 124.982 108.732 124.982 108.641C124.989 108.543 124.993 108.459 124.993 108.391C124.993 108.005 124.91 107.706 124.743 107.494C124.577 107.274 124.334 107.165 124.016 107.165ZM130.613 107.085H129.171L128.933 108.221C128.88 108.478 128.815 108.762 128.739 109.072C128.664 109.375 128.577 109.686 128.478 110.004C128.387 110.322 128.281 110.632 128.16 110.935C128.047 111.23 127.922 111.495 127.786 111.73C127.649 111.965 127.502 112.154 127.343 112.298C127.191 112.434 127.028 112.502 126.854 112.502C126.635 112.502 126.483 112.445 126.4 112.332C126.317 112.218 126.256 112.09 126.218 111.946L126.32 111.367C126.404 111.465 126.479 111.533 126.548 111.571C126.623 111.609 126.726 111.628 126.854 111.628C127.24 111.628 127.57 111.302 127.842 110.651C128.115 110 128.376 109.038 128.626 107.766C128.633 107.736 128.641 107.695 128.649 107.642C128.656 107.581 128.66 107.532 128.66 107.494C128.66 107.35 128.611 107.236 128.512 107.153C128.421 107.07 128.255 107.028 128.013 107.028L128.081 106.71H131.59L130.852 111.128C130.844 111.166 130.837 111.215 130.829 111.276C130.822 111.336 130.818 111.385 130.818 111.423C130.818 111.65 130.92 111.764 131.124 111.764C131.276 111.764 131.408 111.715 131.522 111.616C131.635 111.51 131.772 111.359 131.931 111.162L131.84 111.685C131.688 111.919 131.529 112.105 131.363 112.241C131.204 112.377 130.992 112.445 130.727 112.445C130.401 112.445 130.182 112.362 130.068 112.196C129.955 112.021 129.898 111.813 129.898 111.571C129.898 111.488 129.902 111.408 129.909 111.332C129.917 111.257 129.928 111.177 129.943 111.094L130.613 107.085ZM133.283 107.982C133.29 107.944 133.294 107.91 133.294 107.88C133.302 107.842 133.306 107.812 133.306 107.789C133.306 107.653 133.256 107.554 133.158 107.494C133.06 107.426 132.889 107.392 132.647 107.392L132.692 107.108L134.18 106.597H134.419L133.783 110.458C133.767 110.526 133.756 110.602 133.749 110.685C133.749 110.768 133.749 110.837 133.749 110.89C133.749 111.011 133.76 111.128 133.783 111.242C133.805 111.355 133.847 111.457 133.908 111.548C133.976 111.639 134.063 111.711 134.169 111.764C134.275 111.817 134.411 111.844 134.578 111.844C134.737 111.844 134.896 111.798 135.055 111.707C135.214 111.609 135.357 111.488 135.486 111.344C135.615 111.192 135.725 111.022 135.815 110.833C135.914 110.644 135.982 110.45 136.02 110.254L136.622 106.71H137.53L136.803 111.128C136.796 111.166 136.788 111.215 136.781 111.276C136.773 111.336 136.769 111.385 136.769 111.423C136.769 111.65 136.868 111.764 137.065 111.764C137.216 111.764 137.349 111.715 137.462 111.616C137.576 111.51 137.716 111.359 137.882 111.162L137.78 111.685C137.629 111.919 137.47 112.105 137.303 112.241C137.144 112.377 136.932 112.445 136.667 112.445C136.342 112.445 136.122 112.362 136.009 112.196C135.895 112.021 135.838 111.813 135.838 111.571C135.838 111.526 135.838 111.484 135.838 111.446C135.838 111.408 135.842 111.367 135.85 111.321C135.781 111.45 135.694 111.586 135.588 111.73C135.482 111.866 135.354 111.991 135.202 112.105C135.058 112.218 134.896 112.313 134.714 112.389C134.532 112.464 134.335 112.502 134.123 112.502C133.881 112.502 133.673 112.464 133.499 112.389C133.332 112.313 133.196 112.215 133.09 112.093C132.991 111.965 132.919 111.817 132.874 111.65C132.829 111.476 132.806 111.295 132.806 111.105C132.806 111.03 132.81 110.939 132.817 110.833C132.825 110.727 132.836 110.636 132.851 110.56L133.283 107.982Z" fill="white"/>
<rect x="29.5076" y="86.5388" width="179.437" height="42.7014" stroke="#ADBFFD" stroke-width="1.36281"/>
</svg>
